<svg width="357" height="136" viewBox="0 0 357 136" fill="none" xmlns="http://www.w3.org/2000/svg">
<path d="M84.1034 15.196C81.8074 15.196 80.0434 13.656 80.0434 11.01C80.0434 8.434 81.9054 6.838 83.8234 6.838C86.1194 6.838 87.2394 8.504 87.2394 10.674C87.2394 11.122 87.1834 11.556 87.1274 11.752H82.4514C82.6754 12.844 83.4314 13.292 84.4394 13.292C85.0134 13.292 85.5454 13.124 86.1194 12.788L86.9454 14.286C86.1194 14.874 85.0274 15.196 84.1034 15.196ZM82.4094 10.114H85.1254C85.1254 9.33 84.7754 8.742 83.8654 8.742C83.1794 8.742 82.5774 9.176 82.4094 10.114ZM87.6644 15L90.1004 10.856L87.8044 7.034H90.4784L91.1364 8.252C91.3464 8.714 91.5704 9.176 91.7944 9.624H91.8644C92.0184 9.176 92.2144 8.714 92.3824 8.252L92.8724 7.034H95.4484L93.1524 11.136L95.5884 15H92.9144L92.1864 13.74C91.9484 13.292 91.7104 12.816 91.4584 12.382H91.3884C91.1924 12.816 90.9964 13.278 90.8004 13.74L90.2544 15H87.6644ZM96.8156 15V7.034H99.3076V15H96.8156ZM98.0616 5.928C97.2216 5.928 96.6756 5.424 96.6756 4.64C96.6756 3.87 97.2216 3.366 98.0616 3.366C98.8876 3.366 99.4476 3.87 99.4476 4.64C99.4476 5.424 98.8876 5.928 98.0616 5.928ZM101.314 15V7.034H103.344L103.526 8.042H103.568C104.226 7.384 104.912 6.838 105.99 6.838C107.096 6.838 107.768 7.3 108.174 8.154C108.86 7.454 109.602 6.838 110.666 6.838C112.402 6.838 113.158 8.084 113.158 10.072V15H110.666V10.38C110.666 9.274 110.386 8.966 109.756 8.966C109.392 8.966 108.958 9.19 108.482 9.68V15H105.99V10.38C105.99 9.274 105.696 8.966 105.066 8.966C104.702 8.966 104.268 9.19 103.806 9.68V15H101.314ZM118.567 15.196C116.537 15.196 114.661 13.656 114.661 11.01C114.661 8.378 116.537 6.838 118.567 6.838C120.583 6.838 122.459 8.378 122.459 11.01C122.459 13.656 120.583 15.196 118.567 15.196ZM118.567 13.18C119.491 13.18 119.911 12.34 119.911 11.01C119.911 9.694 119.491 8.854 118.567 8.854C117.629 8.854 117.209 9.694 117.209 11.01C117.209 12.34 117.629 13.18 118.567 13.18ZM137.232 4.416C137.232 4.794 137.54 5.102 137.918 5.102C138.296 5.102 138.604 4.794 138.604 4.416C138.604 4.038 138.296 3.73 137.918 3.73C137.54 3.73 137.232 4.038 137.232 4.416ZM136.252 4.416C136.252 3.492 136.994 2.75 137.918 2.75C138.842 2.75 139.584 3.492 139.584 4.416C139.584 5.34 138.842 6.082 137.918 6.082C136.994 6.082 136.252 5.34 136.252 4.416ZM134.558 3.8C134.516 3.996 134.404 4.78 134.404 5.158C134.404 6.04 134.404 7.23 134.404 8.112C134.404 9.246 134.404 13.222 134.404 14.496C134.404 15.35 133.872 15.924 132.794 15.924C131.954 15.924 131.142 15.896 130.358 15.798L130.148 13.712C130.736 13.824 131.338 13.866 131.674 13.866C132.024 13.866 132.15 13.754 132.164 13.39C132.178 12.998 132.178 8.77 132.178 8.112C132.178 7.622 132.178 6.054 132.178 5.144C132.178 4.752 132.108 4.066 132.052 3.8H134.558ZM127.376 5.97C127.81 6.026 128.384 6.082 128.818 6.082C129.686 6.082 136.322 6.082 137.414 6.082C137.848 6.082 138.534 6.04 138.926 5.984V8.196C138.45 8.154 137.834 8.14 137.428 8.14C136.336 8.14 129.77 8.14 128.818 8.14C128.398 8.14 127.782 8.154 127.376 8.196V5.97ZM131.142 10.044C130.47 11.304 129.182 13.166 128.44 13.978L126.606 12.732C127.544 11.822 128.622 10.352 129.21 9.134L131.142 10.044ZM137.246 9.064C137.946 9.96 139.066 11.738 139.626 12.76L137.638 13.852C137.008 12.592 136.042 10.926 135.398 10.072L137.246 9.064ZM140.9 9.344C143.448 8.7 145.45 7.832 147.018 6.88C148.432 6.012 150.14 4.5 151.022 3.436L152.856 5.186C151.526 6.488 149.692 7.888 148.04 8.854C146.43 9.792 144.134 10.856 141.95 11.486L140.9 9.344ZM146.682 7.972L149.118 7.44V13.698C149.118 14.37 149.146 15.336 149.258 15.728H146.57C146.626 15.35 146.682 14.37 146.682 13.698V7.972ZM159.702 10.52H167.248V16.26H165.316V12.354H161.55V16.316H159.702V10.52ZM165.806 3.002L167.346 4.598C165.218 5.452 162.418 5.886 159.954 6.096C159.87 5.606 159.604 4.808 159.38 4.36C161.732 4.136 164.252 3.66 165.806 3.002ZM162.488 4.78H164.42V11.584H162.488V4.78ZM158.904 7.09H167.836V9.036H158.904V7.09ZM161.046 13.922H166.086V15.756H161.046V13.922ZM155.32 4.682L156.468 3.212C157.21 3.59 158.442 4.206 159.044 4.584L157.84 6.222C157.294 5.816 156.09 5.144 155.32 4.682ZM154.648 8.574L155.74 7.062C156.51 7.412 157.798 8.014 158.428 8.392L157.294 10.086C156.72 9.68 155.474 9.008 154.648 8.574ZM154.788 14.804C155.53 13.768 156.594 12.074 157.448 10.436L158.946 11.794C158.204 13.264 157.364 14.776 156.51 16.176L154.788 14.804ZM173.1 4.948C173.002 4.528 172.904 4.178 172.792 3.828L175.186 3.45C175.228 3.73 175.27 4.248 175.34 4.598C175.508 5.69 176.796 12.438 177.146 14.146C177.244 14.566 177.384 15.084 177.51 15.574L175.074 15.994C175.004 15.448 174.976 14.944 174.892 14.524C174.64 13.04 173.366 6.306 173.1 4.948ZM169.348 6.6C169.838 6.572 170.286 6.544 170.72 6.488C171.882 6.348 176.81 5.592 178.028 5.354C178.49 5.27 179.12 5.13 179.512 5.018L179.918 7.23C179.554 7.258 178.91 7.356 178.462 7.412C176.95 7.65 172.106 8.42 171.168 8.588C170.692 8.686 170.314 8.77 169.796 8.91L169.348 6.6ZM169.39 10.744C169.782 10.73 170.482 10.646 170.958 10.576C172.456 10.352 177.51 9.554 179.092 9.246C179.638 9.134 180.226 8.994 180.632 8.882L181.08 11.108C180.66 11.136 180.016 11.248 179.484 11.332C177.762 11.598 172.722 12.424 171.35 12.69C170.72 12.802 170.188 12.9 169.866 12.984L169.39 10.744ZM187.94 5.928C187.996 6.306 188.094 6.712 188.178 7.076C188.738 9.05 189.942 13.46 190.32 14.734C190.39 14.972 190.614 15.7 190.726 15.994L188.43 16.554C188.374 16.148 188.276 15.63 188.15 15.21C187.772 13.866 186.624 9.232 186.106 7.538C186.008 7.174 185.84 6.796 185.672 6.46L187.94 5.928ZM194.66 8.224C194.058 9.47 192.672 11.654 191.678 12.76L189.816 11.836C190.446 11.248 191.37 10.128 191.692 9.526C190.908 9.666 185.672 10.786 184.44 11.066L183.922 9.05C184.384 9.008 184.79 8.966 185.28 8.882C186.078 8.77 191.384 7.748 192.49 7.51C192.77 7.454 193.078 7.356 193.288 7.258L194.66 8.224ZM199.7 4.136C200.666 4.794 202.5 6.25 203.34 7.146L201.604 8.924C200.862 8.112 199.098 6.572 198.09 5.858L199.7 4.136ZM197.628 13.432C199.686 13.152 201.492 12.522 202.864 11.724C205.384 10.268 207.274 8.098 208.212 6.124L209.528 8.518C208.408 10.506 206.42 12.452 204.082 13.824C202.654 14.664 200.834 15.392 199.07 15.672L197.628 13.432ZM220.476 6.334C220.476 6.782 220.84 7.146 221.288 7.146C221.736 7.146 222.1 6.782 222.1 6.334C222.1 5.886 221.736 5.522 221.288 5.522C220.84 5.522 220.476 5.886 220.476 6.334ZM219.412 6.334C219.412 5.284 220.238 4.444 221.288 4.444C222.338 4.444 223.178 5.284 223.178 6.334C223.178 7.384 222.338 8.21 221.288 8.21C220.238 8.21 219.412 7.384 219.412 6.334ZM210.564 10.842C211.012 10.478 211.348 10.156 211.81 9.694C212.426 9.078 213.448 7.804 214.456 6.6C215.338 5.55 216.262 5.396 217.424 6.488C218.418 7.426 219.412 8.462 220.266 9.386C221.204 10.394 222.66 11.948 223.738 13.096L221.862 15.112C220.952 13.978 219.804 12.522 219.02 11.584C218.194 10.59 216.99 9.246 216.528 8.77C216.122 8.364 215.814 8.378 215.464 8.84C214.974 9.484 214.092 10.772 213.56 11.528C213.224 12.018 212.874 12.55 212.608 12.956L210.564 10.842ZM225.418 8.28C225.978 8.322 227.154 8.378 227.84 8.378C229.842 8.378 233.902 8.378 235.274 8.378C235.904 8.378 236.59 8.308 236.996 8.28V10.954C236.632 10.94 235.848 10.87 235.274 10.87C233.888 10.87 229.828 10.87 227.84 10.87C227.042 10.87 225.992 10.912 225.418 10.954V8.28ZM241.003 4.136C241.969 4.794 243.803 6.25 244.643 7.146L242.907 8.924C242.165 8.112 240.401 6.572 239.393 5.858L241.003 4.136ZM238.931 13.432C240.989 13.152 242.795 12.522 244.167 11.724C246.687 10.268 248.577 8.098 249.515 6.124L250.831 8.518C249.711 10.506 247.723 12.452 245.385 13.824C243.957 14.664 242.137 15.392 240.373 15.672L238.931 13.432ZM255.395 8.448V13.726H253.449V10.324H251.993V8.448H255.395ZM255.395 12.928C255.857 13.796 256.711 14.16 258.027 14.216C259.777 14.3 263.151 14.258 265.237 14.076C265.013 14.538 264.705 15.476 264.607 16.05C262.773 16.148 259.791 16.176 257.999 16.092C256.417 16.022 255.367 15.658 254.541 14.594C254.009 15.112 253.463 15.602 252.749 16.204L251.811 14.174C252.385 13.824 253.043 13.39 253.631 12.928H255.395ZM251.993 4.542L253.547 3.394C254.317 4.01 255.283 4.92 255.731 5.578L254.051 6.866C253.673 6.194 252.749 5.228 251.993 4.542ZM255.479 6.614H264.943V7.986H255.479V6.614ZM258.419 9.372V9.848H261.919V9.372H258.419ZM256.543 8.294H263.935V10.926H256.543V8.294ZM259.483 9.974L261.177 10.562C260.127 11.976 258.335 13.124 256.627 13.796C256.389 13.418 255.829 12.662 255.479 12.312C257.075 11.836 258.671 10.996 259.483 9.974ZM263.375 10.184L264.789 11.164C264.047 11.626 263.319 12.074 262.759 12.354L261.709 11.542C262.241 11.206 262.969 10.604 263.375 10.184ZM260.883 10.576C261.625 11.57 263.123 12.228 264.985 12.48C264.607 12.844 264.117 13.53 263.879 13.992C261.849 13.544 260.351 12.508 259.441 10.982L260.883 10.576ZM261.989 4.458V5.228H262.563V4.458H261.989ZM259.917 4.458V5.228H260.477V4.458H259.917ZM257.845 4.458V5.228H258.405V4.458H257.845ZM256.151 3.366H264.355V6.32H256.151V3.366ZM259.077 10.324H261.009V14.048H259.077V10.324ZM273.189 9.022H275.303V13.558C275.303 14.118 275.359 14.188 275.765 14.188C275.933 14.188 276.521 14.188 276.731 14.188C277.151 14.188 277.221 13.852 277.291 11.892C277.725 12.242 278.621 12.592 279.167 12.732C278.971 15.322 278.467 16.092 276.927 16.092C276.577 16.092 275.751 16.092 275.415 16.092C273.637 16.092 273.189 15.448 273.189 13.572V9.022ZM266.203 7.692H278.873V9.666H266.203V7.692ZM267.505 3.954H277.529V5.914H267.505V3.954ZM269.199 9.26H271.397C271.173 12.312 270.683 14.818 267.057 16.288C266.833 15.77 266.273 15.014 265.811 14.622C268.877 13.488 269.045 11.584 269.199 9.26Z" fill="black"/>
<path d="M94.9548 133.196C93.0228 133.196 91.7908 131.712 91.7908 129.164C91.7908 126.658 93.3728 125.104 95.0808 125.104C95.9628 125.104 96.5368 125.44 97.1528 125.972L97.0828 124.698V121.856H98.7068V133H97.3768L97.2508 132.146H97.2088C96.6208 132.734 95.8228 133.196 94.9548 133.196ZM95.3468 131.852C95.9768 131.852 96.5368 131.558 97.0828 130.914V127.162C96.5228 126.644 95.9768 126.448 95.4028 126.448C94.3248 126.448 93.4568 127.484 93.4568 129.136C93.4568 130.886 94.1428 131.852 95.3468 131.852ZM110.591 122.598C110.591 123.06 110.969 123.424 111.431 123.424C111.893 123.424 112.271 123.06 112.271 122.598C112.271 122.136 111.893 121.758 111.431 121.758C110.969 121.758 110.591 122.136 110.591 122.598ZM109.863 122.598C109.863 121.73 110.563 121.016 111.431 121.016C112.299 121.016 112.999 121.73 112.999 122.598C112.999 123.466 112.299 124.166 111.431 124.166C110.563 124.166 109.863 123.466 109.863 122.598ZM107.693 122.108C107.665 122.304 107.595 122.878 107.595 123.2C107.595 123.984 107.595 125.16 107.595 125.902C107.595 127.036 107.595 131.418 107.595 132.496C107.595 133.266 107.189 133.7 106.279 133.7C105.621 133.7 104.795 133.658 104.165 133.588L104.039 132.202C104.641 132.314 105.271 132.37 105.621 132.37C105.999 132.37 106.153 132.216 106.153 131.852C106.167 131.194 106.167 126.56 106.167 125.902C106.167 125.426 106.167 123.984 106.167 123.2C106.167 122.864 106.111 122.332 106.055 122.108H107.693ZM101.155 124.404C101.561 124.46 101.967 124.502 102.415 124.502C103.255 124.502 110.199 124.502 111.109 124.502C111.459 124.502 111.991 124.46 112.355 124.418V125.874C111.949 125.846 111.473 125.832 111.123 125.832C110.213 125.832 103.311 125.832 102.415 125.832C101.995 125.832 101.533 125.846 101.155 125.888V124.404ZM104.529 127.918C103.913 129.136 102.611 130.942 101.827 131.782L100.623 130.97C101.561 130.088 102.723 128.478 103.283 127.33L104.529 127.918ZM110.451 127.316C111.179 128.212 112.299 129.962 112.859 130.984L111.557 131.698C110.983 130.55 109.961 128.828 109.247 127.96L110.451 127.316ZM114.959 127.778C117.423 127.134 119.523 126.182 121.077 125.216C122.533 124.306 124.017 123.018 124.955 121.87L126.145 122.99C124.913 124.25 123.331 125.496 121.693 126.504C120.139 127.456 117.885 128.492 115.659 129.164L114.959 127.778ZM120.825 125.93L122.365 125.524V131.88C122.365 132.44 122.393 133.21 122.477 133.518H120.727C120.783 133.224 120.825 132.44 120.825 131.88V125.93ZM131.171 122.584C132.151 123.242 133.957 124.698 134.755 125.51L133.635 126.644C132.921 125.888 131.171 124.376 130.135 123.676L131.171 122.584ZM129.729 131.936C132.053 131.6 133.873 130.802 135.217 129.99C137.485 128.604 139.235 126.504 140.075 124.698L140.929 126.238C139.935 128.044 138.199 129.962 136.029 131.306C134.615 132.174 132.837 133 130.653 133.392L129.729 131.936ZM146.473 131.726C146.473 130.816 146.473 124.796 146.473 123.62C146.473 123.186 146.445 122.528 146.361 122.066H148.083C148.027 122.528 147.971 123.13 147.971 123.62C147.971 125.524 147.985 130.9 147.985 131.726C147.985 132.146 148.027 133 148.083 133.518H146.361C146.445 133.014 146.473 132.258 146.473 131.726ZM147.649 125.72C149.511 126.252 152.423 127.33 153.893 128.058L153.277 129.57C151.681 128.73 149.175 127.778 147.649 127.288V125.72ZM165.443 127.68C165.443 124.838 166.605 122.612 168.215 121.002L169.265 121.506C167.739 123.102 166.703 125.104 166.703 127.68C166.703 130.27 167.739 132.272 169.265 133.868L168.215 134.372C166.605 132.762 165.443 130.536 165.443 127.68ZM178.477 121.856H182.243V123.06H178.477V121.856ZM178.477 125.048H182.243V126.224H178.477V125.048ZM178.463 128.282H182.271V129.472H178.463V128.282ZM181.669 121.856H182.943V132.622C182.943 133.322 182.803 133.7 182.355 133.91C181.921 134.12 181.235 134.148 180.199 134.148C180.157 133.798 179.975 133.21 179.807 132.874C180.479 132.902 181.179 132.902 181.389 132.888C181.585 132.888 181.669 132.818 181.669 132.608V121.856ZM177.931 121.856H179.177V126.966C179.177 129.15 178.995 132.244 177.763 134.232C177.553 133.994 177.007 133.602 176.713 133.476C177.833 131.642 177.931 128.982 177.931 126.966V121.856ZM170.567 122.962H177.343V124.124H170.567V122.962ZM172.289 125.188H175.747V126.224H172.289V125.188ZM172.289 127.386H175.761V128.422H172.289V127.386ZM170.385 129.626H177.301V130.802H170.385V129.626ZM171.715 121.352H172.919V130.074H171.715V121.352ZM175.117 121.352H176.335V130.074H175.117V121.352ZM172.247 131.012L173.507 131.376C172.989 132.426 172.177 133.504 171.421 134.204C171.169 133.98 170.651 133.602 170.343 133.42C171.113 132.818 171.841 131.908 172.247 131.012ZM174.291 131.53L175.299 130.984C175.859 131.614 176.531 132.468 176.839 133.042L175.761 133.672C175.495 133.112 174.837 132.188 174.291 131.53ZM188.865 129.752H192.925V130.732H188.865V129.752ZM188.795 127.652H193.541V132.874H188.795V131.88H192.295V128.66H188.795V127.652ZM188.235 127.652H189.439V133.588H188.235V127.652ZM185.757 123.732H189.481V124.656H185.757V123.732ZM192.225 123.732H196.005V124.656H192.225V123.732ZM195.459 121.758H196.789V132.538C196.789 133.308 196.635 133.714 196.131 133.938C195.627 134.162 194.857 134.176 193.667 134.176C193.611 133.812 193.415 133.196 193.219 132.832C194.017 132.874 194.871 132.86 195.123 132.846C195.375 132.846 195.459 132.762 195.459 132.524V121.758ZM185.855 121.758H190.321V126.686H185.855V125.706H189.075V122.752H185.855V121.758ZM196.145 121.758V122.752H192.701V125.734H196.145V126.714H191.441V121.758H196.145ZM185.099 121.758H186.415V134.19H185.099V121.758ZM200.737 122.15H209.585V123.41H200.737V122.15ZM200.737 125.398H209.585V126.644H200.737V125.398ZM200.681 128.73H209.627V129.976H200.681V128.73ZM199.981 122.15H201.283V127.218C201.283 129.388 201.031 132.398 199.337 134.26C199.127 134.008 198.595 133.56 198.301 133.392C199.841 131.67 199.981 129.178 199.981 127.204V122.15ZM209.095 122.15H210.411V132.51C210.411 133.294 210.229 133.672 209.711 133.882C209.193 134.092 208.367 134.12 207.065 134.106C207.009 133.756 206.799 133.182 206.617 132.832C207.527 132.874 208.465 132.86 208.731 132.86C208.997 132.846 209.095 132.762 209.095 132.51V122.15ZM204.335 122.64H205.679V134.036H204.335V122.64ZM215.535 126.686V131.726H214.233V127.918H212.553V126.686H215.535ZM215.535 131.152C216.165 132.146 217.355 132.58 218.951 132.636C220.533 132.706 223.697 132.664 225.461 132.538C225.307 132.846 225.097 133.49 225.041 133.882C223.431 133.952 220.547 133.98 218.937 133.924C217.117 133.854 215.871 133.406 214.961 132.3C214.331 132.874 213.701 133.448 212.973 134.064L212.301 132.692C212.931 132.272 213.673 131.712 214.331 131.152H215.535ZM212.623 122.304L213.603 121.52C214.457 122.136 215.465 123.06 215.927 123.732L214.863 124.586C214.457 123.914 213.477 122.948 212.623 122.304ZM219.987 125.37H221.261V130.816C221.261 131.418 221.163 131.726 220.743 131.908C220.309 132.09 219.721 132.104 218.853 132.104C218.797 131.768 218.643 131.306 218.503 130.97C219.035 130.998 219.595 130.998 219.749 130.998C219.931 130.998 219.987 130.942 219.987 130.788V125.37ZM217.775 128.422L218.937 128.716C218.461 129.766 217.705 130.83 216.949 131.516C216.725 131.32 216.235 130.998 215.955 130.844C216.711 130.228 217.383 129.332 217.775 128.422ZM222.087 128.856L223.137 128.38C223.837 129.136 224.663 130.2 225.013 130.928L223.907 131.488C223.571 130.76 222.787 129.668 222.087 128.856ZM218.041 124.698H223.235V125.79H218.041V124.698ZM216.431 126.826H225.013V127.932H216.431V126.826ZM220.547 122.388C219.693 123.55 218.083 124.908 216.459 125.706C216.319 125.384 215.997 124.88 215.773 124.586C217.411 123.83 219.035 122.444 219.847 121.212H221.149C222.241 122.57 223.879 123.816 225.461 124.46C225.181 124.782 224.873 125.286 224.677 125.664C223.221 124.922 221.499 123.592 220.547 122.388ZM232.839 124.418H237.893V125.51H232.839V124.418ZM230.557 132.692C231.845 132.482 233.833 132.104 235.765 131.74L235.863 132.888C234.155 133.28 232.349 133.672 230.991 133.98L230.557 132.692ZM232.083 121.814H233.371V132.902H232.083V121.814ZM232.839 121.814H238.495V128.17H232.839V127.022H237.193V122.962H232.839V121.814ZM235.639 127.414C236.199 129.976 237.389 132.118 239.461 133.028C239.167 133.294 238.775 133.798 238.593 134.134C236.367 133 235.163 130.62 234.533 127.61L235.639 127.414ZM238.089 128.394L239.125 129.136C238.355 129.864 237.389 130.648 236.647 131.152L235.821 130.508C236.535 129.962 237.529 129.08 238.089 128.394ZM227.001 121.786H230.543V122.976H228.247V134.19H227.001V121.786ZM230.165 121.786H230.403L230.599 121.744L231.495 122.276C231.075 123.466 230.529 124.95 230.039 126.056C231.089 127.19 231.313 128.17 231.313 129.01C231.313 129.864 231.117 130.438 230.683 130.746C230.473 130.9 230.193 130.984 229.885 131.026C229.591 131.068 229.213 131.054 228.863 131.04C228.849 130.718 228.751 130.186 228.555 129.85C228.877 129.878 229.129 129.878 229.353 129.878C229.521 129.864 229.689 129.822 229.815 129.738C230.025 129.598 230.109 129.276 230.095 128.856C230.095 128.142 229.843 127.232 228.863 126.21C229.353 124.936 229.885 123.116 230.165 122.178V121.786ZM242.933 125.44H250.913V126.714H242.933V125.44ZM246.895 128.8H251.613V130.032H246.895V128.8ZM246.195 126.14H247.581V133.084L246.195 132.916V126.14ZM242.863 127.722L244.249 127.876C243.871 130.704 242.989 132.888 241.407 134.26C241.183 134.022 240.623 133.56 240.315 133.364C241.855 132.188 242.583 130.214 242.863 127.722ZM243.829 129.514C244.781 132.244 246.867 132.692 249.555 132.692C250.171 132.692 252.551 132.692 253.349 132.664C253.153 132.986 252.929 133.616 252.873 134.022H249.485C246.195 134.022 243.955 133.364 242.751 129.892L243.829 129.514ZM246.181 121.198H247.581V123.592H246.181V121.198ZM240.987 122.724H252.831V125.972H251.473V123.97H242.289V125.972H240.987V122.724ZM258.361 127.68C258.361 130.536 257.199 132.762 255.589 134.372L254.539 133.868C256.065 132.272 257.101 130.27 257.101 127.68C257.101 125.104 256.065 123.102 254.539 121.506L255.589 121.002C257.199 122.612 258.361 124.838 258.361 127.68Z" fill="black"/>
<path d="M13.05 104.989C10.2167 104.989 7.98333 104.455 6.35 103.389C4.75 102.322 3.6 100.839 2.9 98.9385C2.23333 97.0052 1.9 94.7885 1.9 92.2885V90.8385H10.25C10.25 90.8719 10.25 91.0552 10.25 91.3885C10.25 91.7219 10.25 92.0219 10.25 92.2885C10.25 93.6219 10.3333 94.7052 10.5 95.5385C10.6667 96.3719 10.9667 96.9885 11.4 97.3885C11.8333 97.7552 12.4333 97.9385 13.2 97.9385C13.9667 97.9385 14.5333 97.7385 14.9 97.3385C15.3 96.9385 15.5667 96.3385 15.7 95.5385C15.8333 94.7385 15.9 93.7385 15.9 92.5385C15.9 90.5385 15.6167 89.0219 15.05 87.9885C14.5167 86.9219 13.3833 86.3719 11.65 86.3385C11.6167 86.3385 11.4333 86.3385 11.1 86.3385C10.7667 86.3385 10.4333 86.3385 10.1 86.3385V80.5885C10.3333 80.5885 10.5667 80.5885 10.8 80.5885C11.0333 80.5885 11.25 80.5885 11.45 80.5885C13.2167 80.5885 14.4 80.1052 15 79.1385C15.6 78.1719 15.9 76.6719 15.9 74.6385C15.9 73.0719 15.6833 71.8719 15.25 71.0385C14.85 70.2052 14.0833 69.7885 12.95 69.7885C11.85 69.7885 11.1167 70.2552 10.75 71.1885C10.4167 72.1219 10.25 73.3219 10.25 74.7885C10.25 75.1219 10.25 75.4719 10.25 75.8385C10.25 76.1719 10.25 76.5219 10.25 76.8885H1.9V74.4385C1.9 72.0052 2.33333 69.9552 3.2 68.2885C4.1 66.5885 5.36667 65.3052 7 64.4385C8.66667 63.5719 10.65 63.1385 12.95 63.1385C15.2833 63.1385 17.2833 63.5552 18.95 64.3885C20.6167 65.2219 21.9 66.4552 22.8 68.0885C23.7 69.6885 24.15 71.6885 24.15 74.0885C24.15 76.4552 23.6667 78.4385 22.7 80.0385C21.7333 81.6385 20.5667 82.6219 19.2 82.9885C20.1333 83.3219 20.9667 83.8552 21.7 84.5885C22.4667 85.3219 23.0667 86.3219 23.5 87.5885C23.9333 88.8219 24.15 90.4052 24.15 92.3385C24.15 94.8052 23.7833 96.9885 23.05 98.8885C22.35 100.789 21.1833 102.289 19.55 103.389C17.9167 104.455 15.75 104.989 13.05 104.989Z" fill="black"/>
<path d="M35.2355 96.8064C32.1018 96.8064 29.8305 94.2476 29.8305 89.964C29.8305 85.6803 32.1018 83.2078 35.2355 83.2078C38.3692 83.2078 40.6691 85.6803 40.6691 89.964C40.6691 94.2476 38.3692 96.8064 35.2355 96.8064ZM35.2355 93.9889C36.2417 93.9889 37.1042 92.9539 37.1042 89.964C37.1042 86.974 36.2417 86.0253 35.2355 86.0253C34.2292 86.0253 33.3667 86.974 33.3667 89.964C33.3667 92.9539 34.2292 93.9889 35.2355 93.9889ZM35.983 105.402L47.5115 83.2078H50.444L38.9154 105.402H35.983ZM51.1628 105.402C48.0578 105.402 45.7578 102.844 45.7578 98.5601C45.7578 94.2764 48.0578 91.7752 51.1628 91.7752C54.2677 91.7752 56.5677 94.2764 56.5677 98.5601C56.5677 102.844 54.2677 105.402 51.1628 105.402ZM51.1628 102.556C52.169 102.556 53.0315 101.55 53.0315 98.5601C53.0315 95.5414 52.169 94.6214 51.1628 94.6214C50.1565 94.6214 49.294 95.5414 49.294 98.5601C49.294 101.55 50.1565 102.556 51.1628 102.556Z" fill="black"/>
<path d="M121.235 31.948C121.137 31.528 121.039 31.178 120.927 30.828L123.321 30.45C123.363 30.73 123.405 31.248 123.475 31.598C123.643 32.69 124.931 39.438 125.281 41.146C125.379 41.566 125.519 42.084 125.645 42.574L123.209 42.994C123.139 42.448 123.111 41.944 123.027 41.524C122.775 40.04 121.501 33.306 121.235 31.948ZM117.483 33.6C117.973 33.572 118.421 33.544 118.855 33.488C120.017 33.348 124.945 32.592 126.163 32.354C126.625 32.27 127.255 32.13 127.647 32.018L128.053 34.23C127.689 34.258 127.045 34.356 126.597 34.412C125.085 34.65 120.241 35.42 119.303 35.588C118.827 35.686 118.449 35.77 117.931 35.91L117.483 33.6ZM117.525 37.744C117.917 37.73 118.617 37.646 119.093 37.576C120.591 37.352 125.645 36.554 127.227 36.246C127.773 36.134 128.361 35.994 128.767 35.882L129.215 38.108C128.795 38.136 128.151 38.248 127.619 38.332C125.897 38.598 120.857 39.424 119.485 39.69C118.855 39.802 118.323 39.9 118.001 39.984L117.525 37.744ZM136.075 32.928C136.131 33.306 136.229 33.712 136.313 34.076C136.873 36.05 138.077 40.46 138.455 41.734C138.525 41.972 138.749 42.7 138.861 42.994L136.565 43.554C136.509 43.148 136.411 42.63 136.285 42.21C135.907 40.866 134.759 36.232 134.241 34.538C134.143 34.174 133.975 33.796 133.807 33.46L136.075 32.928ZM142.795 35.224C142.193 36.47 140.807 38.654 139.813 39.76L137.951 38.836C138.581 38.248 139.505 37.128 139.827 36.526C139.043 36.666 133.807 37.786 132.575 38.066L132.057 36.05C132.519 36.008 132.925 35.966 133.415 35.882C134.213 35.77 139.519 34.748 140.625 34.51C140.905 34.454 141.213 34.356 141.423 34.258L142.795 35.224ZM147.835 31.136C148.801 31.794 150.635 33.25 151.475 34.146L149.739 35.924C148.997 35.112 147.233 33.572 146.225 32.858L147.835 31.136ZM145.763 40.432C147.821 40.152 149.627 39.522 150.999 38.724C153.519 37.268 155.409 35.098 156.347 33.124L157.663 35.518C156.543 37.506 154.555 39.452 152.217 40.824C150.789 41.664 148.969 42.392 147.205 42.672L145.763 40.432ZM168.611 33.334C168.611 33.782 168.975 34.146 169.423 34.146C169.871 34.146 170.235 33.782 170.235 33.334C170.235 32.886 169.871 32.522 169.423 32.522C168.975 32.522 168.611 32.886 168.611 33.334ZM167.547 33.334C167.547 32.284 168.373 31.444 169.423 31.444C170.473 31.444 171.313 32.284 171.313 33.334C171.313 34.384 170.473 35.21 169.423 35.21C168.373 35.21 167.547 34.384 167.547 33.334ZM158.699 37.842C159.147 37.478 159.483 37.156 159.945 36.694C160.561 36.078 161.583 34.804 162.591 33.6C163.473 32.55 164.397 32.396 165.559 33.488C166.553 34.426 167.547 35.462 168.401 36.386C169.339 37.394 170.795 38.948 171.873 40.096L169.997 42.112C169.087 40.978 167.939 39.522 167.155 38.584C166.329 37.59 165.125 36.246 164.663 35.77C164.257 35.364 163.949 35.378 163.599 35.84C163.109 36.484 162.227 37.772 161.695 38.528C161.359 39.018 161.009 39.55 160.743 39.956L158.699 37.842ZM173.553 35.28C174.113 35.322 175.289 35.378 175.975 35.378C177.977 35.378 182.037 35.378 183.409 35.378C184.039 35.378 184.725 35.308 185.131 35.28V37.954C184.767 37.94 183.983 37.87 183.409 37.87C182.023 37.87 177.963 37.87 175.975 37.87C175.177 37.87 174.127 37.912 173.553 37.954V35.28ZM189.137 31.136C190.103 31.794 191.937 33.25 192.777 34.146L191.041 35.924C190.299 35.112 188.535 33.572 187.527 32.858L189.137 31.136ZM187.065 40.432C189.123 40.152 190.929 39.522 192.301 38.724C194.821 37.268 196.711 35.098 197.649 33.124L198.965 35.518C197.845 37.506 195.857 39.452 193.519 40.824C192.091 41.664 190.271 42.392 188.507 42.672L187.065 40.432ZM205.587 30.058H207.687V32.396H205.587V30.058ZM200.603 31.178H212.699V34.356H210.585V32.942H202.619V34.356H200.603V31.178ZM201.891 33.768H211.537V35.392H201.891V33.768ZM200.547 38.248H212.839V39.998H200.547V38.248ZM202.115 35.994H211.201V37.618H202.115V35.994ZM207.547 38.584C208.359 40.376 210.081 41.328 213.049 41.594C212.629 42.014 212.111 42.826 211.859 43.372C208.513 42.868 206.833 41.524 205.727 38.948L207.547 38.584ZM205.531 33.18H207.589V37.296C207.589 39.788 206.371 42.098 201.471 43.33C201.247 42.896 200.659 42.112 200.211 41.692C204.817 40.782 205.531 39.074 205.531 37.268V33.18ZM221.323 31.71H227.063V33.544H221.323V31.71ZM222.877 33.782H224.557V40.656H222.877V33.782ZM221.351 30.016L223.353 30.422C222.863 32.424 221.981 34.328 220.833 35.504C220.511 35.126 219.755 34.384 219.321 34.048C220.315 33.138 221.015 31.612 221.351 30.016ZM219.531 37.212L225.621 34.426L226.307 36.078L220.231 38.892L219.531 37.212ZM220.651 34.748H222.443V40.95C222.443 41.566 222.527 41.636 223.185 41.636C223.479 41.636 224.683 41.636 225.019 41.636C225.551 41.636 225.663 41.412 225.747 40.236C226.139 40.516 226.867 40.81 227.371 40.922C227.161 42.756 226.643 43.316 225.187 43.316C224.767 43.316 223.353 43.316 222.961 43.316C221.127 43.316 220.651 42.784 220.651 40.95V34.748ZM225.089 34.762H224.977L225.299 34.552L225.607 34.356L226.853 34.776L226.783 35.042C226.783 37.03 226.783 38.262 226.755 38.71C226.741 39.256 226.559 39.592 226.167 39.788C225.817 39.984 225.341 39.998 224.949 39.998C224.907 39.55 224.781 38.906 224.599 38.542C224.711 38.556 224.837 38.556 224.921 38.556C225.019 38.556 225.061 38.528 225.075 38.388C225.089 38.248 225.089 37.156 225.089 34.762ZM214.127 32.088H220.119V33.964H214.127V32.088ZM216.409 35.224H218.565V37.058H216.409V35.224ZM216.129 30.044H218.075V32.69H216.129V30.044ZM215.401 33.25H217.319C217.249 37.17 217.067 40.894 215.331 43.316C215.009 42.826 214.407 42.196 213.903 41.874C215.345 39.83 215.359 36.638 215.401 33.25ZM217.921 35.224H219.741C219.741 35.224 219.741 35.756 219.741 35.966C219.685 40.362 219.629 42.056 219.279 42.574C218.999 43.008 218.719 43.162 218.313 43.246C217.963 43.344 217.459 43.344 216.885 43.344C216.857 42.798 216.675 42.042 216.409 41.552C216.759 41.594 217.067 41.594 217.263 41.594C217.431 41.594 217.543 41.552 217.655 41.37C217.837 41.062 217.879 39.676 217.921 35.588V35.224ZM228.813 32.424H240.545V39.704H238.403V34.426H230.857V39.774H228.813V32.424ZM229.863 37.044H239.579V39.046H229.863V37.044ZM233.545 30.03H235.701V43.33H233.545V30.03Z" fill="#CC0033"/>
<path d="M303.976 8.448V13.726H302.03V10.324H300.378V8.448H303.976ZM303.976 12.928C304.452 13.81 305.292 14.16 306.608 14.216C308.358 14.3 311.732 14.258 313.818 14.076C313.594 14.538 313.286 15.476 313.188 16.05C311.354 16.148 308.372 16.176 306.58 16.092C304.984 16.022 303.948 15.658 303.122 14.594C302.52 15.112 301.904 15.616 301.12 16.204L300.196 14.174C300.826 13.824 301.568 13.39 302.212 12.928H303.976ZM300.56 4.626L301.96 3.31C302.814 3.884 303.934 4.766 304.452 5.424L302.94 6.894C302.492 6.236 301.414 5.27 300.56 4.626ZM306.258 5.956L307.56 4.892C308.764 5.312 310.528 6.054 311.48 6.586L310.08 7.776C309.254 7.258 307.518 6.46 306.258 5.956ZM305.026 6.544H312.096V7.986H306.93V13.796H305.026V6.544ZM311.144 6.544H313.076V12.116C313.076 12.9 312.95 13.306 312.446 13.572C311.97 13.838 311.34 13.852 310.556 13.852C310.486 13.362 310.276 12.704 310.066 12.27C310.388 12.284 310.822 12.284 310.948 12.284C311.102 12.284 311.144 12.228 311.144 12.088V6.544ZM305.222 3.436H311.718V4.948H305.222V3.436ZM306.09 8.476H311.774V9.862H306.09V8.476ZM306.09 10.38H311.774V11.822H306.09V10.38ZM308.12 7.244H309.926V13.74H308.12V7.244ZM310.976 3.436H311.438L311.83 3.338L313.02 4.304C312.012 5.27 310.626 6.32 309.338 6.992C309.114 6.656 308.624 6.138 308.344 5.872C309.338 5.34 310.5 4.402 310.976 3.786V3.436ZM320.09 10.03H322.204V16.33H320.09V10.03ZM319.152 8.434V9.036H322.694V8.434H319.152ZM317.206 7.034H324.78V10.436H317.206V7.034ZM315.806 11.094H325.256V12.9H317.878V15.714H315.806V11.094ZM324.304 11.094H326.404V13.95C326.404 14.832 326.222 15.336 325.592 15.63C324.962 15.91 324.178 15.924 323.226 15.924C323.128 15.364 322.848 14.58 322.582 14.076C323.086 14.104 323.842 14.104 324.024 14.104C324.234 14.104 324.304 14.062 324.304 13.908V11.094ZM319.866 3.016H321.98V5.606H319.866V3.016ZM314.868 4.808H327.174V8.406H325.144V6.544H316.814V8.406H314.868V4.808ZM315.96 3.814L317.822 3.086C318.2 3.506 318.578 4.094 318.746 4.514L316.8 5.354C316.674 4.934 316.31 4.276 315.96 3.814ZM324.08 3.128L326.292 3.758C325.774 4.332 325.284 4.822 324.906 5.158L323.17 4.57C323.492 4.15 323.87 3.562 324.08 3.128ZM331.878 8.448V13.726H329.932V10.324H328.476V8.448H331.878ZM331.878 12.928C332.34 13.796 333.194 14.16 334.51 14.216C336.26 14.3 339.634 14.258 341.72 14.076C341.496 14.538 341.188 15.476 341.09 16.05C339.256 16.148 336.274 16.176 334.482 16.092C332.9 16.022 331.85 15.658 331.024 14.594C330.492 15.112 329.946 15.602 329.232 16.204L328.294 14.174C328.868 13.824 329.526 13.39 330.114 12.928H331.878ZM328.476 4.542L330.03 3.394C330.8 4.01 331.766 4.92 332.214 5.578L330.534 6.866C330.156 6.194 329.232 5.228 328.476 4.542ZM331.962 6.614H341.426V7.986H331.962V6.614ZM334.902 9.372V9.848H338.402V9.372H334.902ZM333.026 8.294H340.418V10.926H333.026V8.294ZM335.966 9.974L337.66 10.562C336.61 11.976 334.818 13.124 333.11 13.796C332.872 13.418 332.312 12.662 331.962 12.312C333.558 11.836 335.154 10.996 335.966 9.974ZM339.858 10.184L341.272 11.164C340.53 11.626 339.802 12.074 339.242 12.354L338.192 11.542C338.724 11.206 339.452 10.604 339.858 10.184ZM337.366 10.576C338.108 11.57 339.606 12.228 341.468 12.48C341.09 12.844 340.6 13.53 340.362 13.992C338.332 13.544 336.834 12.508 335.924 10.982L337.366 10.576ZM338.472 4.458V5.228H339.046V4.458H338.472ZM336.4 4.458V5.228H336.96V4.458H336.4ZM334.328 4.458V5.228H334.888V4.458H334.328ZM332.634 3.366H340.838V6.32H332.634V3.366ZM335.56 10.324H337.492V14.048H335.56V10.324ZM349.672 9.022H351.786V13.558C351.786 14.118 351.842 14.188 352.248 14.188C352.416 14.188 353.004 14.188 353.214 14.188C353.634 14.188 353.704 13.852 353.774 11.892C354.208 12.242 355.104 12.592 355.65 12.732C355.454 15.322 354.95 16.092 353.41 16.092C353.06 16.092 352.234 16.092 351.898 16.092C350.12 16.092 349.672 15.448 349.672 13.572V9.022ZM342.686 7.692H355.356V9.666H342.686V7.692ZM343.988 3.954H354.012V5.914H343.988V3.954ZM345.682 9.26H347.88C347.656 12.312 347.166 14.818 343.54 16.288C343.316 15.77 342.756 15.014 342.294 14.622C345.36 13.488 345.528 11.584 345.682 9.26Z" fill="black"/>
<path d="M138.617 105V59.85C138.103 60.13 137.52 60.41 136.867 60.69C136.213 60.97 135.513 61.2733 134.767 61.6C134.067 61.88 133.367 62.16 132.667 62.44C132.013 62.72 131.407 63 130.847 63.28V54.6C131.36 54.32 132.083 53.9467 133.017 53.48C133.95 52.9667 134.953 52.4067 136.027 51.8C137.1 51.1933 138.103 50.5867 139.037 49.98C139.97 49.3267 140.67 48.7667 141.137 48.3H150.307V105H138.617ZM175.764 106.05C172.357 106.05 169.51 105.373 167.224 104.02C164.937 102.62 163.21 100.707 162.044 98.28C160.877 95.8533 160.294 93.03 160.294 89.81V64.12C160.294 60.8067 160.83 57.9133 161.904 55.44C163.024 52.92 164.727 50.96 167.014 49.56C169.3 48.16 172.217 47.46 175.764 47.46C179.31 47.46 182.204 48.16 184.444 49.56C186.73 50.96 188.41 52.92 189.484 55.44C190.604 57.9133 191.164 60.8067 191.164 64.12V89.81C191.164 92.9833 190.58 95.8067 189.414 98.28C188.247 100.707 186.52 102.62 184.234 104.02C181.947 105.373 179.124 106.05 175.764 106.05ZM175.764 95.62C176.884 95.62 177.677 95.27 178.144 94.57C178.657 93.8233 178.96 92.9833 179.054 92.05C179.194 91.07 179.264 90.23 179.264 89.53V64.4C179.264 63.6067 179.217 62.72 179.124 61.74C179.03 60.7133 178.727 59.8267 178.214 59.08C177.747 58.2867 176.93 57.89 175.764 57.89C174.597 57.89 173.757 58.2867 173.244 59.08C172.777 59.8267 172.497 60.7133 172.404 61.74C172.31 62.72 172.264 63.6067 172.264 64.4V89.53C172.264 90.23 172.334 91.07 172.474 92.05C172.614 92.9833 172.917 93.8233 173.384 94.57C173.897 95.27 174.69 95.62 175.764 95.62Z" fill="#CC0033"/>
<path d="M202.661 95.8231C199.152 95.8231 196.608 92.9574 196.608 88.1596C196.608 83.3619 199.152 80.5927 202.661 80.5927C206.171 80.5927 208.747 83.3619 208.747 88.1596C208.747 92.9574 206.171 95.8231 202.661 95.8231ZM202.661 92.6676C203.788 92.6676 204.754 91.5084 204.754 88.1596C204.754 84.8109 203.788 83.7483 202.661 83.7483C201.534 83.7483 200.568 84.8109 200.568 88.1596C200.568 91.5084 201.534 92.6676 202.661 92.6676ZM203.499 105.451L216.411 80.5927H219.695L206.783 105.451H203.499ZM220.5 105.451C217.022 105.451 214.446 102.585 214.446 97.7873C214.446 92.9896 217.022 90.1882 220.5 90.1882C223.977 90.1882 226.553 92.9896 226.553 97.7873C226.553 102.585 223.977 105.451 220.5 105.451ZM220.5 102.263C221.627 102.263 222.593 101.136 222.593 97.7873C222.593 94.4063 221.627 93.376 220.5 93.376C219.373 93.376 218.407 94.4063 218.407 97.7873C218.407 101.136 219.373 102.263 220.5 102.263Z" fill="#CC0033"/>
<path d="M304.103 105V59.85C303.59 60.13 303.006 60.41 302.353 60.69C301.7 60.97 301 61.2733 300.253 61.6C299.553 61.88 298.853 62.16 298.153 62.44C297.5 62.72 296.893 63 296.333 63.28V54.6C296.846 54.32 297.57 53.9467 298.503 53.48C299.436 52.9667 300.44 52.4067 301.513 51.8C302.586 51.1933 303.59 50.5867 304.523 49.98C305.456 49.3267 306.156 48.7667 306.623 48.3H315.793V105H304.103Z" fill="#CC0033"/>
<path d="M330.551 95.2076C327.042 95.2076 324.498 92.3419 324.498 87.5441C324.498 82.7464 327.042 79.9773 330.551 79.9773C334.061 79.9773 336.637 82.7464 336.637 87.5441C336.637 92.3419 334.061 95.2076 330.551 95.2076ZM330.551 92.0521C331.678 92.0521 332.644 90.8929 332.644 87.5441C332.644 84.1954 331.678 83.1328 330.551 83.1328C329.425 83.1328 328.459 84.1954 328.459 87.5441C328.459 90.8929 329.425 92.0521 330.551 92.0521ZM331.389 104.835L344.301 79.9773H347.585L334.673 104.835H331.389ZM348.39 104.835C344.912 104.835 342.337 101.97 342.337 97.1718C342.337 92.3741 344.912 89.5727 348.39 89.5727C351.868 89.5727 354.444 92.3741 354.444 97.1718C354.444 101.97 351.868 104.835 348.39 104.835ZM348.39 101.648C349.517 101.648 350.483 100.521 350.483 97.1718C350.483 93.7909 349.517 92.7605 348.39 92.7605C347.263 92.7605 346.297 93.7909 346.297 97.1718C346.297 100.521 347.263 101.648 348.39 101.648Z" fill="#CC0033"/>
<mask id="mask0_2004_631" style="mask-type:alpha" maskUnits="userSpaceOnUse" x="76" y="65" width="32" height="41">
<path fill-rule="evenodd" clip-rule="evenodd" d="M107.386 85.4654L94.5622 105.57L89.8293 102.552L100.727 85.4654L89.8293 68.3793L94.5622 65.3605L107.386 85.4654Z" fill="white"/>
<path fill-rule="evenodd" clip-rule="evenodd" d="M93.9844 85.4654L81.1609 105.57L76.4279 102.552L87.3259 85.4654L76.4279 68.3793L81.1609 65.3605L93.9844 85.4654Z" fill="white"/>
</mask>
<g mask="url(#mask0_2004_631)">
<path d="M73.1804 68.2733H107.565V102.658H73.1804V68.2733Z" fill="url(#paint0_linear_2004_631)"/>
</g>
<path d="M280.362 88.6392H266.639V102.362H260.961V88.6392H247.238V82.9608H260.961V69.238H266.639V82.9608H280.362V88.6392Z" fill="#CC0033"/>
<defs>
<linearGradient id="paint0_linear_2004_631" x1="76.689" y1="80.5534" x2="107.565" y2="80.5534" gradientUnits="userSpaceOnUse">
<stop/>
<stop offset="1" stop-color="#CC0033"/>
</linearGradient>
</defs>
</svg>
