<svg width="495" height="258" viewBox="0 0 495 258" fill="none" xmlns="http://www.w3.org/2000/svg">
<path d="M78.9638 17.036H99.2078V22.874H78.9638V17.036ZM60.1478 14.306H80.3918V19.934H60.1478V14.306ZM88.9598 8.09H95.0078V40.598C95.0078 42.222 94.8398 43.496 94.5038 44.42C94.1958 45.372 93.5938 46.114 92.6978 46.646C91.8018 47.178 90.6818 47.528 89.3378 47.696C87.9938 47.864 86.4538 47.948 84.7178 47.948C84.6618 47.332 84.5358 46.632 84.3398 45.848C84.1438 45.064 83.9058 44.28 83.6258 43.496C83.3738 42.684 83.1078 41.97 82.8278 41.354C83.9198 41.41 84.9558 41.452 85.9358 41.48C86.9438 41.48 87.6298 41.48 87.9938 41.48C88.3578 41.48 88.6098 41.424 88.7498 41.312C88.8898 41.172 88.9598 40.92 88.9598 40.556V8.09ZM77.9978 27.998L82.8698 25.604C83.5138 26.5 84.1438 27.466 84.7598 28.502C85.4038 29.538 85.9638 30.56 86.4398 31.568C86.9158 32.576 87.2658 33.5 87.4898 34.34L82.2398 37.028C82.0438 36.216 81.7218 35.292 81.2738 34.256C80.8538 33.192 80.3498 32.114 79.7618 31.022C79.2018 29.93 78.6138 28.922 77.9978 27.998ZM60.6518 25.814L64.9358 22.328C66.1678 23.644 67.4418 25.058 68.7578 26.57C70.0738 28.082 71.3478 29.622 72.5798 31.19C73.8398 32.73 74.9598 34.242 75.9398 35.726C76.9478 37.21 77.7598 38.596 78.3758 39.884L73.5038 44.042C72.9718 42.754 72.2298 41.354 71.2778 39.842C70.3258 38.302 69.2618 36.72 68.0858 35.096C66.9098 33.472 65.6778 31.862 64.3898 30.266C63.1298 28.67 61.8838 27.186 60.6518 25.814ZM67.1198 8.132H72.9578V17.792H67.1198V8.132ZM71.5718 20.69L77.4938 21.53C76.7938 25.506 75.8138 29.146 74.5538 32.45C73.2938 35.726 71.7118 38.638 69.8078 41.186C67.9038 43.734 65.6218 45.904 62.9618 47.696C62.7098 47.276 62.3318 46.758 61.8278 46.142C61.3518 45.554 60.8478 44.952 60.3158 44.336C59.7838 43.748 59.3078 43.272 58.8878 42.908C61.3518 41.48 63.4238 39.688 65.1038 37.532C66.8118 35.376 68.1838 32.884 69.2198 30.056C70.2838 27.228 71.0678 24.106 71.5718 20.69ZM112.858 30.98L116.89 28.04C119.158 29.16 120.992 30.434 122.392 31.862C123.82 33.262 124.87 34.718 125.542 36.23C126.214 37.714 126.55 39.142 126.55 40.514C126.578 41.886 126.312 43.118 125.752 44.21C125.22 45.302 124.45 46.156 123.442 46.772C122.574 47.332 121.762 47.71 121.006 47.906C120.25 48.102 119.312 48.214 118.192 48.242C117.66 48.242 117.1 48.228 116.512 48.2C115.952 48.2 115.378 48.186 114.79 48.158C114.762 47.346 114.608 46.422 114.328 45.386C114.048 44.378 113.642 43.482 113.11 42.698C113.838 42.782 114.566 42.838 115.294 42.866C116.022 42.894 116.652 42.908 117.184 42.908C117.688 42.908 118.15 42.88 118.57 42.824C119.018 42.74 119.396 42.558 119.704 42.278C120.236 41.942 120.572 41.368 120.712 40.556C120.852 39.744 120.698 38.806 120.25 37.742C119.802 36.65 118.976 35.53 117.772 34.382C116.596 33.206 114.958 32.072 112.858 30.98ZM117.688 30.812L121.678 32.786C120.418 33.85 118.892 34.858 117.1 35.81C115.336 36.734 113.474 37.56 111.514 38.288C109.554 39.016 107.622 39.604 105.718 40.052C105.354 39.464 104.864 38.778 104.248 37.994C103.632 37.182 103.072 36.524 102.568 36.02C104.416 35.712 106.292 35.306 108.196 34.802C110.128 34.27 111.92 33.668 113.572 32.996C115.252 32.296 116.624 31.568 117.688 30.812ZM120.376 34.634L124.618 36.86C123.414 37.924 122.042 38.946 120.502 39.926C118.99 40.878 117.38 41.788 115.672 42.656C113.964 43.496 112.214 44.252 110.422 44.924C108.658 45.596 106.922 46.17 105.214 46.646C104.85 46.002 104.332 45.246 103.66 44.378C102.988 43.51 102.372 42.81 101.812 42.278C103.52 41.914 105.256 41.466 107.02 40.934C108.784 40.402 110.492 39.8 112.144 39.128C113.796 38.456 115.322 37.742 116.722 36.986C118.15 36.23 119.368 35.446 120.376 34.634ZM113.656 10.61H125.962V15.062H113.656V10.61ZM120.46 24.302L124.954 26.402C123.386 27.662 121.51 28.81 119.326 29.846C117.142 30.854 114.846 31.75 112.438 32.534C110.058 33.29 107.734 33.934 105.466 34.466C105.27 34.102 104.99 33.654 104.626 33.122C104.262 32.59 103.884 32.058 103.492 31.526C103.128 30.994 102.792 30.56 102.484 30.224C104.724 29.888 106.964 29.44 109.204 28.88C111.472 28.292 113.586 27.62 115.546 26.864C117.534 26.08 119.172 25.226 120.46 24.302ZM127.264 25.31C127.964 27.83 128.916 30.168 130.12 32.324C131.352 34.452 132.878 36.314 134.698 37.91C136.546 39.506 138.73 40.752 141.25 41.648C140.83 42.04 140.368 42.544 139.864 43.16C139.36 43.748 138.884 44.364 138.436 45.008C137.988 45.652 137.624 46.24 137.344 46.772C134.572 45.568 132.206 44 130.246 42.068C128.314 40.108 126.69 37.812 125.374 35.18C124.086 32.548 123.008 29.622 122.14 26.402L127.264 25.31ZM135.664 27.662L140.578 31.232C139.542 31.876 138.464 32.506 137.344 33.122C136.224 33.71 135.118 34.27 134.026 34.802C132.962 35.306 131.968 35.754 131.044 36.146L127.18 32.996C128.076 32.576 129.042 32.072 130.078 31.484C131.114 30.868 132.122 30.224 133.102 29.552C134.082 28.88 134.936 28.25 135.664 27.662ZM112.522 21.11V23.42H130.708V21.11H112.522ZM106.81 16.784H136.756V27.746H106.81V16.784ZM113.11 7.88L119.41 9.182C117.73 11.646 115.812 13.97 113.656 16.154C111.5 18.31 108.924 20.298 105.928 22.118C105.648 21.642 105.27 21.124 104.794 20.564C104.318 20.004 103.814 19.472 103.282 18.968C102.778 18.464 102.302 18.072 101.854 17.792C103.646 16.868 105.256 15.86 106.684 14.768C108.112 13.648 109.358 12.5 110.422 11.324C111.514 10.148 112.41 9 113.11 7.88ZM118.318 19.178H124.324V26.192H118.318V19.178ZM123.484 10.61H124.87L125.794 10.358L129.952 13.088C129.42 13.9 128.79 14.796 128.062 15.776C127.334 16.728 126.578 17.652 125.794 18.548C125.01 19.444 124.268 20.228 123.568 20.9C123.008 20.452 122.294 19.948 121.426 19.388C120.586 18.828 119.844 18.366 119.2 18.002C119.76 17.414 120.32 16.742 120.88 15.986C121.468 15.202 121.986 14.432 122.434 13.676C122.91 12.892 123.26 12.234 123.484 11.702V10.61ZM167.92 15.146C167.612 17.274 167.234 19.542 166.786 21.95C166.338 24.358 165.708 26.878 164.896 29.51C164.084 32.31 163.118 34.76 161.998 36.86C160.878 38.96 159.618 40.598 158.218 41.774C156.846 42.95 155.334 43.538 153.682 43.538C151.946 43.538 150.378 42.978 148.978 41.858C147.606 40.71 146.514 39.17 145.702 37.238C144.918 35.278 144.526 33.108 144.526 30.728C144.526 28.236 145.03 25.884 146.038 23.672C147.046 21.432 148.446 19.458 150.238 17.75C152.03 16.042 154.13 14.698 156.538 13.718C158.946 12.738 161.55 12.248 164.35 12.248C167.038 12.248 169.446 12.682 171.574 13.55C173.73 14.39 175.564 15.58 177.076 17.12C178.616 18.66 179.792 20.466 180.604 22.538C181.416 24.582 181.822 26.794 181.822 29.174C181.822 32.114 181.234 34.774 180.058 37.154C178.882 39.506 177.104 41.48 174.724 43.076C172.344 44.644 169.334 45.736 165.694 46.352L161.83 40.304C162.726 40.192 163.482 40.08 164.098 39.968C164.714 39.828 165.33 39.688 165.946 39.548C167.29 39.212 168.508 38.736 169.6 38.12C170.692 37.504 171.63 36.748 172.414 35.852C173.198 34.956 173.8 33.934 174.22 32.786C174.64 31.61 174.85 30.336 174.85 28.964C174.85 27.34 174.612 25.87 174.136 24.554C173.688 23.238 173.002 22.104 172.078 21.152C171.182 20.2 170.076 19.472 168.76 18.968C167.444 18.464 165.932 18.212 164.224 18.212C162.04 18.212 160.122 18.604 158.47 19.388C156.846 20.144 155.488 21.138 154.396 22.37C153.304 23.574 152.478 24.862 151.918 26.234C151.386 27.606 151.12 28.88 151.12 30.056C151.12 31.26 151.246 32.282 151.498 33.122C151.75 33.934 152.072 34.55 152.464 34.97C152.884 35.39 153.346 35.6 153.85 35.6C154.41 35.6 154.928 35.32 155.404 34.76C155.908 34.2 156.384 33.374 156.832 32.282C157.308 31.162 157.798 29.79 158.302 28.166C158.946 26.178 159.492 24.036 159.94 21.74C160.388 19.416 160.71 17.148 160.906 14.936L167.92 15.146ZM203.368 9.56C203.312 9.812 203.256 10.204 203.2 10.736C203.144 11.24 203.088 11.758 203.032 12.29C202.976 12.822 202.934 13.27 202.906 13.634C202.85 14.586 202.794 15.524 202.738 16.448C202.71 17.344 202.682 18.24 202.654 19.136C202.626 20.032 202.598 20.928 202.57 21.824C202.57 22.72 202.57 23.63 202.57 24.554C202.57 25.73 202.584 27.046 202.612 28.502C202.64 29.93 202.668 31.358 202.696 32.786C202.752 34.186 202.794 35.46 202.822 36.608C202.85 37.756 202.864 38.624 202.864 39.212C202.864 41.172 202.64 42.698 202.192 43.79C201.772 44.854 201.17 45.582 200.386 45.974C199.63 46.394 198.748 46.604 197.74 46.604C196.62 46.604 195.444 46.38 194.212 45.932C192.98 45.512 191.832 44.91 190.768 44.126C189.732 43.37 188.878 42.474 188.206 41.438C187.562 40.402 187.24 39.282 187.24 38.078C187.24 36.65 187.772 35.236 188.836 33.836C189.9 32.436 191.314 31.162 193.078 30.014C194.842 28.838 196.76 27.9 198.832 27.2C200.708 26.556 202.64 26.08 204.628 25.772C206.644 25.464 208.422 25.31 209.962 25.31C212.174 25.31 214.19 25.688 216.01 26.444C217.858 27.172 219.328 28.25 220.42 29.678C221.54 31.106 222.1 32.856 222.1 34.928C222.1 36.552 221.806 38.078 221.218 39.506C220.658 40.906 219.692 42.138 218.32 43.202C216.948 44.238 215.058 45.064 212.65 45.68C211.67 45.876 210.704 46.03 209.752 46.142C208.8 46.254 207.862 46.352 206.938 46.436L204.628 39.842C205.636 39.842 206.588 39.828 207.484 39.8C208.38 39.744 209.178 39.66 209.878 39.548C210.97 39.352 211.936 39.058 212.776 38.666C213.616 38.246 214.274 37.728 214.75 37.112C215.226 36.468 215.464 35.726 215.464 34.886C215.464 34.046 215.24 33.332 214.792 32.744C214.344 32.156 213.7 31.708 212.86 31.4C212.048 31.064 211.054 30.896 209.878 30.896C208.17 30.896 206.392 31.078 204.544 31.442C202.724 31.778 201.03 32.24 199.462 32.828C198.286 33.276 197.25 33.78 196.354 34.34C195.458 34.9 194.758 35.474 194.254 36.062C193.75 36.65 193.498 37.224 193.498 37.784C193.498 38.036 193.568 38.274 193.708 38.498C193.876 38.722 194.072 38.918 194.296 39.086C194.548 39.254 194.8 39.394 195.052 39.506C195.304 39.59 195.528 39.632 195.724 39.632C196.032 39.632 196.312 39.548 196.564 39.38C196.816 39.184 196.942 38.722 196.942 37.994C196.942 37.294 196.914 36.244 196.858 34.844C196.83 33.444 196.788 31.862 196.732 30.098C196.704 28.306 196.69 26.528 196.69 24.764C196.69 23.588 196.69 22.44 196.69 21.32C196.69 20.2 196.69 19.164 196.69 18.212C196.69 17.232 196.69 16.364 196.69 15.608C196.69 14.824 196.69 14.18 196.69 13.676C196.69 13.368 196.676 12.948 196.648 12.416C196.62 11.856 196.578 11.31 196.522 10.778C196.494 10.218 196.452 9.812 196.396 9.56H203.368ZM214.708 14.054C215.828 14.558 217.074 15.174 218.446 15.902C219.818 16.602 221.134 17.302 222.394 18.002C223.654 18.702 224.676 19.318 225.46 19.85L222.436 25.016C221.932 24.624 221.232 24.148 220.336 23.588C219.44 23.028 218.46 22.454 217.396 21.866C216.36 21.278 215.352 20.732 214.372 20.228C213.42 19.696 212.622 19.29 211.978 19.01L214.708 14.054ZM188.626 16.07C189.914 16.21 191.048 16.294 192.028 16.322C193.036 16.35 193.918 16.364 194.674 16.364C195.794 16.364 197.012 16.322 198.328 16.238C199.672 16.126 201.03 15.986 202.402 15.818C203.774 15.65 205.118 15.44 206.434 15.188C207.75 14.936 208.954 14.656 210.046 14.348L210.172 20.648C208.94 20.928 207.624 21.18 206.224 21.404C204.824 21.6 203.424 21.782 202.024 21.95C200.652 22.09 199.35 22.202 198.118 22.286C196.886 22.37 195.808 22.412 194.884 22.412C193.372 22.412 192.154 22.398 191.23 22.37C190.306 22.342 189.48 22.286 188.752 22.202L188.626 16.07ZM241.168 28.67C243.268 32.506 246.516 35.53 250.912 37.742C255.308 39.954 260.838 41.396 267.502 42.068C267.054 42.544 266.578 43.146 266.074 43.874C265.598 44.574 265.136 45.302 264.688 46.058C264.24 46.814 263.876 47.486 263.596 48.074C258.864 47.402 254.734 46.338 251.206 44.882C247.678 43.454 244.626 41.564 242.05 39.212C239.474 36.86 237.248 34.004 235.372 30.644L241.168 28.67ZM231.298 23.168H257.968V29.132H231.298V23.168ZM229.156 13.13H265.486V19.178H229.156V13.13ZM244.066 8.09H250.45V25.856H244.066V8.09ZM255.994 23.168H257.254L258.304 22.958L262.63 25.394C261.398 28.894 259.732 31.932 257.632 34.508C255.56 37.084 253.138 39.268 250.366 41.06C247.594 42.824 244.542 44.266 241.21 45.386C237.906 46.534 234.392 47.402 230.668 47.99C230.5 47.43 230.22 46.772 229.828 46.016C229.464 45.288 229.058 44.56 228.61 43.832C228.162 43.104 227.742 42.516 227.35 42.068C230.934 41.648 234.266 41.018 237.346 40.178C240.454 39.338 243.24 38.218 245.704 36.818C248.196 35.418 250.31 33.696 252.046 31.652C253.81 29.58 255.126 27.116 255.994 24.26V23.168ZM292.072 9.14L298.75 10.19C298.358 13.102 297.896 16.056 297.364 19.052C296.86 22.02 296.3 24.946 295.684 27.83C295.096 30.714 294.48 33.458 293.836 36.062C293.192 38.638 292.548 40.99 291.904 43.118L286.108 41.942C286.752 39.786 287.368 37.378 287.956 34.718C288.572 32.058 289.146 29.272 289.678 26.36C290.21 23.448 290.672 20.536 291.064 17.624C291.484 14.684 291.82 11.856 292.072 9.14ZM282.076 40.682C283.924 40.514 286.066 40.304 288.502 40.052C290.966 39.8 293.57 39.52 296.314 39.212C299.058 38.904 301.76 38.596 304.42 38.288L304.63 44C302.166 44.392 299.674 44.77 297.154 45.134C294.662 45.498 292.24 45.848 289.888 46.184C287.536 46.52 285.38 46.828 283.42 47.108L282.076 40.682ZM296.986 28.544L302.446 26.696C303.454 28.684 304.448 30.826 305.428 33.122C306.436 35.39 307.332 37.616 308.116 39.8C308.928 41.984 309.516 43.944 309.88 45.68L303.79 47.948C303.566 46.688 303.216 45.26 302.74 43.664C302.292 42.068 301.76 40.416 301.144 38.708C300.528 36.972 299.856 35.236 299.128 33.5C298.428 31.764 297.714 30.112 296.986 28.544ZM269.938 15.776H286.402V21.446H269.938V15.776ZM275.482 8.048H281.446V41.522C281.446 42.978 281.292 44.112 280.984 44.924C280.676 45.736 280.116 46.38 279.304 46.856C278.464 47.304 277.456 47.598 276.28 47.738C275.104 47.906 273.704 47.99 272.08 47.99C271.968 47.178 271.744 46.212 271.408 45.092C271.1 44 270.75 43.062 270.358 42.278C271.198 42.306 272.038 42.334 272.878 42.362C273.746 42.362 274.334 42.362 274.642 42.362C274.95 42.334 275.16 42.264 275.272 42.152C275.412 42.012 275.482 41.788 275.482 41.48V8.048ZM269.266 28.712C270.722 28.516 272.388 28.278 274.264 27.998C276.168 27.718 278.156 27.41 280.228 27.074C282.328 26.71 284.4 26.36 286.444 26.024L286.864 31.4C284.988 31.792 283.084 32.184 281.152 32.576C279.248 32.94 277.386 33.304 275.566 33.668C273.746 34.032 272.052 34.368 270.484 34.676L269.266 28.712ZM329.032 14.054C330.404 14.222 331.916 14.348 333.568 14.432C335.22 14.488 336.886 14.502 338.566 14.474C340.274 14.446 341.898 14.39 343.438 14.306C345.006 14.222 346.378 14.124 347.554 14.012V20.564C346.182 20.676 344.712 20.774 343.144 20.858C341.576 20.914 339.98 20.942 338.356 20.942C336.732 20.942 335.122 20.914 333.526 20.858C331.958 20.774 330.474 20.676 329.074 20.564L329.032 14.054ZM333.358 32.45C333.218 33.122 333.106 33.71 333.022 34.214C332.966 34.718 332.938 35.25 332.938 35.81C332.938 36.258 333.05 36.65 333.274 36.986C333.498 37.322 333.82 37.588 334.24 37.784C334.688 37.98 335.234 38.134 335.878 38.246C336.522 38.33 337.278 38.372 338.146 38.372C340.022 38.372 341.772 38.288 343.396 38.12C345.048 37.924 346.826 37.63 348.73 37.238L348.856 44.126C347.484 44.378 345.916 44.574 344.152 44.714C342.416 44.854 340.302 44.924 337.81 44.924C334.142 44.924 331.384 44.28 329.536 42.992C327.716 41.704 326.806 39.94 326.806 37.7C326.806 36.804 326.862 35.894 326.974 34.97C327.114 34.046 327.31 33.038 327.562 31.946L333.358 32.45ZM323.446 11.492C323.334 11.8 323.194 12.248 323.026 12.836C322.858 13.424 322.704 13.998 322.564 14.558C322.424 15.118 322.326 15.524 322.27 15.776C322.186 16.224 322.06 16.896 321.892 17.792C321.724 18.688 321.542 19.724 321.346 20.9C321.178 22.048 321.01 23.238 320.842 24.47C320.674 25.674 320.534 26.836 320.422 27.956C320.31 29.048 320.254 29.986 320.254 30.77C320.254 30.826 320.254 30.98 320.254 31.232C320.254 31.484 320.268 31.652 320.296 31.736C320.492 31.344 320.674 30.98 320.842 30.644C321.038 30.308 321.22 29.972 321.388 29.636C321.584 29.272 321.766 28.894 321.934 28.502L325 30.938C324.58 32.198 324.16 33.514 323.74 34.886C323.348 36.258 322.998 37.546 322.69 38.75C322.382 39.954 322.144 40.948 321.976 41.732C321.92 42.04 321.864 42.404 321.808 42.824C321.752 43.244 321.724 43.552 321.724 43.748C321.724 43.972 321.724 44.252 321.724 44.588C321.724 44.952 321.738 45.302 321.766 45.638L315.886 46.016C315.466 44.616 315.074 42.684 314.71 40.22C314.374 37.728 314.206 35.054 314.206 32.198C314.206 30.602 314.262 28.992 314.374 27.368C314.514 25.744 314.668 24.19 314.836 22.706C315.032 21.194 315.214 19.836 315.382 18.632C315.578 17.428 315.732 16.434 315.844 15.65C315.928 15.006 316.026 14.25 316.138 13.382C316.25 12.514 316.32 11.688 316.348 10.904L323.446 11.492ZM372.964 17.036H393.208V22.874H372.964V17.036ZM354.148 14.306H374.392V19.934H354.148V14.306ZM382.96 8.09H389.008V40.598C389.008 42.222 388.84 43.496 388.504 44.42C388.196 45.372 387.594 46.114 386.698 46.646C385.802 47.178 384.682 47.528 383.338 47.696C381.994 47.864 380.454 47.948 378.718 47.948C378.662 47.332 378.536 46.632 378.34 45.848C378.144 45.064 377.906 44.28 377.626 43.496C377.374 42.684 377.108 41.97 376.828 41.354C377.92 41.41 378.956 41.452 379.936 41.48C380.944 41.48 381.63 41.48 381.994 41.48C382.358 41.48 382.61 41.424 382.75 41.312C382.89 41.172 382.96 40.92 382.96 40.556V8.09ZM371.998 27.998L376.87 25.604C377.514 26.5 378.144 27.466 378.76 28.502C379.404 29.538 379.964 30.56 380.44 31.568C380.916 32.576 381.266 33.5 381.49 34.34L376.24 37.028C376.044 36.216 375.722 35.292 375.274 34.256C374.854 33.192 374.35 32.114 373.762 31.022C373.202 29.93 372.614 28.922 371.998 27.998ZM354.652 25.814L358.936 22.328C360.168 23.644 361.442 25.058 362.758 26.57C364.074 28.082 365.348 29.622 366.58 31.19C367.84 32.73 368.96 34.242 369.94 35.726C370.948 37.21 371.76 38.596 372.376 39.884L367.504 44.042C366.972 42.754 366.23 41.354 365.278 39.842C364.326 38.302 363.262 36.72 362.086 35.096C360.91 33.472 359.678 31.862 358.39 30.266C357.13 28.67 355.884 27.186 354.652 25.814ZM361.12 8.132H366.958V17.792H361.12V8.132ZM365.572 20.69L371.494 21.53C370.794 25.506 369.814 29.146 368.554 32.45C367.294 35.726 365.712 38.638 363.808 41.186C361.904 43.734 359.622 45.904 356.962 47.696C356.71 47.276 356.332 46.758 355.828 46.142C355.352 45.554 354.848 44.952 354.316 44.336C353.784 43.748 353.308 43.272 352.888 42.908C355.352 41.48 357.424 39.688 359.104 37.532C360.812 35.376 362.184 32.884 363.22 30.056C364.284 27.228 365.068 24.106 365.572 20.69ZM410.764 10.358C410.624 11.338 410.498 12.416 410.386 13.592C410.274 14.768 410.19 15.818 410.134 16.742C410.078 17.834 410.022 19.178 409.966 20.774C409.91 22.342 409.854 23.994 409.798 25.73C409.742 27.438 409.7 29.104 409.672 30.728C409.644 32.324 409.63 33.696 409.63 34.844C409.63 36.188 409.854 37.252 410.302 38.036C410.778 38.792 411.408 39.338 412.192 39.674C412.976 39.982 413.844 40.136 414.796 40.136C416.42 40.136 417.918 39.912 419.29 39.464C420.662 39.016 421.922 38.414 423.07 37.658C424.218 36.874 425.268 35.964 426.22 34.928C427.172 33.892 428.026 32.786 428.782 31.61L433.402 37.28C432.758 38.288 431.876 39.366 430.756 40.514C429.664 41.634 428.334 42.698 426.766 43.706C425.226 44.714 423.448 45.526 421.432 46.142C419.416 46.786 417.19 47.108 414.754 47.108C412.318 47.108 410.204 46.73 408.412 45.974C406.62 45.218 405.234 44.056 404.254 42.488C403.302 40.892 402.826 38.876 402.826 36.44C402.826 35.376 402.84 34.13 402.868 32.702C402.896 31.246 402.924 29.734 402.952 28.166C403.008 26.57 403.05 25.016 403.078 23.504C403.106 21.992 403.134 20.648 403.162 19.472C403.19 18.268 403.204 17.358 403.204 16.742C403.204 15.594 403.148 14.474 403.036 13.382C402.952 12.262 402.798 11.226 402.574 10.274L410.764 10.358ZM95.1297 65.844C94.9897 65.2 94.8357 64.612 94.6677 64.08C94.5277 63.548 94.3737 63.016 94.2057 62.484L101.388 61.35C101.444 61.77 101.5 62.316 101.556 62.988C101.64 63.66 101.738 64.262 101.85 64.794C101.934 65.27 102.06 66.054 102.228 67.146C102.424 68.21 102.662 69.498 102.942 71.01C103.222 72.494 103.53 74.104 103.866 75.84C104.202 77.548 104.538 79.284 104.874 81.048C105.21 82.812 105.532 84.506 105.84 86.13C106.148 87.726 106.428 89.168 106.68 90.456C106.932 91.716 107.128 92.71 107.268 93.438C107.408 94.054 107.576 94.74 107.772 95.496C107.968 96.252 108.164 96.994 108.36 97.722L101.052 98.982C100.94 98.17 100.856 97.386 100.8 96.63C100.744 95.874 100.646 95.188 100.506 94.572C100.394 93.928 100.226 93.004 100.002 91.8C99.8057 90.596 99.5537 89.21 99.2457 87.642C98.9657 86.074 98.6577 84.422 98.3217 82.686C97.9857 80.95 97.6497 79.214 97.3137 77.478C97.0057 75.714 96.6977 74.062 96.3897 72.522C96.1097 70.982 95.8577 69.638 95.6337 68.49C95.4097 67.314 95.2417 66.432 95.1297 65.844ZM83.8737 70.8C84.6017 70.744 85.3017 70.702 85.9737 70.674C86.6737 70.618 87.3457 70.548 87.9897 70.464C88.5777 70.38 89.4317 70.268 90.5517 70.128C91.6717 69.96 92.9457 69.778 94.3737 69.582C95.8297 69.358 97.3277 69.134 98.8677 68.91C100.436 68.658 101.948 68.42 103.404 68.196C104.86 67.944 106.148 67.72 107.268 67.524C108.416 67.328 109.298 67.174 109.914 67.062C110.614 66.922 111.384 66.768 112.224 66.6C113.064 66.404 113.778 66.222 114.366 66.054L115.584 72.69C115.052 72.718 114.352 72.802 113.484 72.942C112.644 73.054 111.888 73.152 111.216 73.236C110.46 73.348 109.466 73.502 108.234 73.698C107.002 73.894 105.644 74.118 104.16 74.37C102.676 74.594 101.164 74.832 99.6237 75.084C98.0837 75.336 96.6137 75.574 95.2137 75.798C93.8417 76.022 92.6377 76.218 91.6017 76.386C90.5657 76.554 89.8097 76.68 89.3337 76.764C88.6337 76.904 87.9617 77.044 87.3177 77.184C86.7017 77.324 86.0017 77.506 85.2177 77.73L83.8737 70.8ZM83.9997 83.232C84.5877 83.204 85.3437 83.148 86.2677 83.064C87.1917 82.952 88.0037 82.84 88.7037 82.728C89.4597 82.616 90.4677 82.462 91.7277 82.266C92.9877 82.07 94.4017 81.846 95.9697 81.594C97.5377 81.342 99.1477 81.09 100.8 80.838C102.48 80.558 104.104 80.292 105.672 80.04C107.24 79.76 108.668 79.508 109.956 79.284C111.272 79.06 112.322 78.878 113.106 78.738C113.918 78.57 114.73 78.388 115.542 78.192C116.382 77.996 117.11 77.814 117.726 77.646L119.07 84.324C118.454 84.352 117.698 84.436 116.802 84.576C115.934 84.716 115.094 84.856 114.282 84.996C113.414 85.136 112.308 85.318 110.964 85.542C109.648 85.738 108.192 85.976 106.596 86.256C105 86.508 103.362 86.774 101.682 87.054C100.03 87.306 98.4337 87.572 96.8937 87.852C95.3537 88.104 93.9677 88.342 92.7357 88.566C91.5317 88.762 90.5797 88.93 89.8797 89.07C88.9277 89.238 88.0597 89.392 87.2757 89.532C86.5197 89.672 85.9037 89.812 85.4277 89.952L83.9997 83.232ZM139.65 68.784C139.734 69.344 139.846 69.918 139.986 70.506C140.126 71.094 140.252 71.668 140.364 72.228C140.644 73.208 140.966 74.37 141.33 75.714C141.694 77.03 142.086 78.444 142.506 79.956C142.926 81.468 143.346 82.994 143.766 84.534C144.186 86.046 144.592 87.502 144.984 88.902C145.376 90.274 145.726 91.506 146.034 92.598C146.342 93.69 146.594 94.558 146.79 95.202C146.874 95.426 146.986 95.776 147.126 96.252C147.266 96.756 147.42 97.26 147.588 97.764C147.756 98.268 147.896 98.674 148.008 98.982L141.12 100.662C141.036 100.046 140.924 99.374 140.784 98.646C140.644 97.918 140.476 97.246 140.28 96.63C140.084 95.958 139.832 95.048 139.524 93.9C139.244 92.752 138.908 91.464 138.516 90.036C138.152 88.58 137.76 87.082 137.34 85.542C136.948 83.974 136.556 82.448 136.164 80.964C135.772 79.452 135.394 78.066 135.03 76.806C134.694 75.518 134.4 74.454 134.148 73.614C134.008 73.054 133.812 72.508 133.56 71.976C133.336 71.416 133.098 70.884 132.846 70.38L139.65 68.784ZM159.81 75.672C159.362 76.596 158.788 77.674 158.088 78.906C157.388 80.11 156.618 81.356 155.778 82.644C154.938 83.904 154.098 85.122 153.258 86.298C152.418 87.446 151.62 88.44 150.864 89.28L145.278 86.508C145.922 85.92 146.608 85.206 147.336 84.366C148.092 83.498 148.792 82.63 149.436 81.762C150.108 80.894 150.598 80.166 150.906 79.578C150.57 79.634 149.982 79.746 149.142 79.914C148.33 80.082 147.35 80.292 146.202 80.544C145.082 80.768 143.85 81.02 142.506 81.3C141.19 81.58 139.86 81.874 138.516 82.182C137.172 82.462 135.884 82.742 134.652 83.022C133.42 83.274 132.328 83.512 131.376 83.736C130.424 83.932 129.682 84.086 129.15 84.198L127.596 78.15C128.296 78.094 128.968 78.024 129.612 77.94C130.256 77.856 130.942 77.758 131.67 77.646C132.006 77.59 132.594 77.492 133.434 77.352C134.274 77.212 135.268 77.03 136.416 76.806C137.564 76.582 138.796 76.344 140.112 76.092C141.456 75.84 142.8 75.588 144.144 75.336C145.488 75.084 146.762 74.846 147.966 74.622C149.198 74.37 150.276 74.16 151.2 73.992C152.124 73.796 152.824 73.642 153.3 73.53C153.72 73.446 154.14 73.334 154.56 73.194C155.008 73.054 155.386 72.914 155.694 72.774L159.81 75.672ZM174.93 63.408C175.658 63.912 176.512 64.542 177.492 65.298C178.472 66.026 179.48 66.824 180.516 67.692C181.58 68.532 182.574 69.372 183.498 70.212C184.45 71.024 185.234 71.766 185.85 72.438L180.642 77.772C180.082 77.156 179.368 76.442 178.5 75.63C177.632 74.79 176.694 73.936 175.686 73.068C174.678 72.172 173.684 71.332 172.704 70.548C171.724 69.764 170.856 69.106 170.1 68.574L174.93 63.408ZM168.714 91.296C170.786 91.016 172.746 90.624 174.594 90.12C176.47 89.616 178.234 89.028 179.886 88.356C181.538 87.684 183.05 86.956 184.422 86.172C186.942 84.716 189.238 83.064 191.31 81.216C193.382 79.34 195.188 77.394 196.728 75.378C198.296 73.334 199.542 71.332 200.466 69.372L204.414 76.554C203.294 78.542 201.908 80.502 200.256 82.434C198.604 84.338 196.742 86.144 194.67 87.852C192.626 89.56 190.428 91.1 188.076 92.472C186.648 93.312 185.108 94.11 183.456 94.866C181.804 95.594 180.096 96.224 178.332 96.756C176.568 97.316 174.804 97.736 173.04 98.016L168.714 91.296ZM237.258 70.002C237.258 70.674 237.496 71.248 237.972 71.724C238.448 72.2 239.022 72.438 239.694 72.438C240.366 72.438 240.94 72.2 241.416 71.724C241.892 71.248 242.13 70.674 242.13 70.002C242.13 69.33 241.892 68.756 241.416 68.28C240.94 67.804 240.366 67.566 239.694 67.566C239.022 67.566 238.448 67.804 237.972 68.28C237.496 68.756 237.258 69.33 237.258 70.002ZM234.066 70.002C234.066 68.938 234.318 67.986 234.822 67.146C235.326 66.278 235.998 65.592 236.838 65.088C237.706 64.584 238.658 64.332 239.694 64.332C240.758 64.332 241.71 64.584 242.55 65.088C243.418 65.592 244.104 66.278 244.608 67.146C245.112 67.986 245.364 68.938 245.364 70.002C245.364 71.038 245.112 71.99 244.608 72.858C244.104 73.698 243.418 74.37 242.55 74.874C241.71 75.378 240.758 75.63 239.694 75.63C238.658 75.63 237.706 75.378 236.838 74.874C235.998 74.37 235.326 73.698 234.822 72.858C234.318 71.99 234.066 71.038 234.066 70.002ZM207.522 83.526C208.194 82.966 208.81 82.434 209.37 81.93C209.93 81.398 210.56 80.782 211.26 80.082C211.736 79.606 212.268 79.032 212.856 78.36C213.444 77.688 214.088 76.946 214.788 76.134C215.488 75.294 216.202 74.426 216.93 73.53C217.686 72.606 218.442 71.696 219.198 70.8C220.514 69.232 221.886 68.378 223.314 68.238C224.77 68.07 226.366 68.812 228.102 70.464C229.11 71.388 230.104 72.354 231.084 73.362C232.064 74.342 233.016 75.322 233.94 76.302C234.892 77.282 235.788 78.234 236.628 79.158C237.58 80.166 238.658 81.314 239.862 82.602C241.066 83.89 242.298 85.206 243.558 86.55C244.818 87.894 245.98 89.14 247.044 90.288L241.416 96.336C240.52 95.188 239.554 93.984 238.518 92.724C237.51 91.436 236.516 90.19 235.536 88.986C234.556 87.754 233.674 86.676 232.89 85.752C232.274 84.996 231.602 84.212 230.874 83.4C230.146 82.56 229.432 81.748 228.732 80.964C228.032 80.152 227.388 79.438 226.8 78.822C226.212 78.178 225.75 77.674 225.414 77.31C224.798 76.694 224.238 76.4 223.734 76.428C223.258 76.456 222.754 76.82 222.222 77.52C221.858 77.996 221.424 78.584 220.92 79.284C220.444 79.956 219.94 80.67 219.408 81.426C218.876 82.182 218.358 82.924 217.854 83.652C217.35 84.38 216.902 85.024 216.51 85.584C216.006 86.312 215.502 87.054 214.998 87.81C214.494 88.566 214.046 89.252 213.654 89.868L207.522 83.526ZM252.084 75.84C252.644 75.868 253.358 75.91 254.226 75.966C255.122 76.022 256.032 76.064 256.956 76.092C257.88 76.12 258.678 76.134 259.35 76.134C260.218 76.134 261.184 76.134 262.248 76.134C263.34 76.134 264.488 76.134 265.692 76.134C266.896 76.134 268.114 76.134 269.346 76.134C270.606 76.134 271.838 76.134 273.042 76.134C274.246 76.134 275.394 76.134 276.486 76.134C277.578 76.134 278.558 76.134 279.426 76.134C280.322 76.134 281.064 76.134 281.652 76.134C282.604 76.134 283.542 76.092 284.466 76.008C285.418 75.924 286.202 75.868 286.818 75.84V83.862C286.286 83.834 285.502 83.792 284.466 83.736C283.458 83.652 282.52 83.61 281.652 83.61C281.064 83.61 280.322 83.61 279.426 83.61C278.53 83.61 277.536 83.61 276.444 83.61C275.352 83.61 274.204 83.61 273 83.61C271.796 83.61 270.564 83.61 269.304 83.61C268.072 83.61 266.854 83.61 265.65 83.61C264.446 83.61 263.298 83.61 262.206 83.61C261.142 83.61 260.19 83.61 259.35 83.61C258.146 83.61 256.844 83.638 255.444 83.694C254.072 83.75 252.952 83.806 252.084 83.862V75.84ZM298.838 63.408C299.566 63.912 300.42 64.542 301.4 65.298C302.38 66.026 303.388 66.824 304.424 67.692C305.488 68.532 306.482 69.372 307.406 70.212C308.358 71.024 309.142 71.766 309.758 72.438L304.55 77.772C303.99 77.156 303.276 76.442 302.408 75.63C301.54 74.79 300.602 73.936 299.594 73.068C298.586 72.172 297.592 71.332 296.612 70.548C295.632 69.764 294.764 69.106 294.008 68.574L298.838 63.408ZM292.622 91.296C294.694 91.016 296.654 90.624 298.502 90.12C300.378 89.616 302.142 89.028 303.794 88.356C305.446 87.684 306.958 86.956 308.33 86.172C310.85 84.716 313.146 83.064 315.218 81.216C317.29 79.34 319.096 77.394 320.636 75.378C322.204 73.334 323.45 71.332 324.374 69.372L328.322 76.554C327.202 78.542 325.816 80.502 324.164 82.434C322.512 84.338 320.65 86.144 318.578 87.852C316.534 89.56 314.336 91.1 311.984 92.472C310.556 93.312 309.016 94.11 307.364 94.866C305.712 95.594 304.004 96.224 302.24 96.756C300.476 97.316 298.712 97.736 296.948 98.016L292.622 91.296ZM333.866 67.272H369.062V89.112H362.636V73.278H339.998V89.322H333.866V67.272ZM337.016 81.132H366.164V87.138H337.016V81.132ZM348.062 60.09H354.53V99.99H348.062V60.09ZM388.592 69.666C389.824 69.778 391.056 69.876 392.288 69.96C393.548 70.016 394.822 70.044 396.11 70.044C398.686 70.044 401.262 69.932 403.838 69.708C406.414 69.456 408.808 69.092 411.02 68.616V74.958C408.836 75.266 406.456 75.504 403.88 75.672C401.304 75.84 398.728 75.938 396.152 75.966C394.892 75.966 393.632 75.952 392.372 75.924C391.112 75.868 389.866 75.798 388.634 75.714L388.592 69.666ZM405.308 62.82C405.252 63.212 405.196 63.66 405.14 64.164C405.112 64.668 405.084 65.158 405.056 65.634C405.028 66.054 405 66.642 404.972 67.398C404.944 68.154 404.916 69.022 404.888 70.002C404.888 70.954 404.888 71.99 404.888 73.11C404.888 75.21 404.916 77.114 404.972 78.822C405.056 80.502 405.14 82.028 405.224 83.4C405.308 84.744 405.378 85.976 405.434 87.096C405.518 88.188 405.56 89.21 405.56 90.162C405.56 91.394 405.392 92.514 405.056 93.522C404.72 94.502 404.202 95.342 403.502 96.042C402.802 96.77 401.892 97.316 400.772 97.68C399.68 98.072 398.35 98.268 396.782 98.268C393.814 98.268 391.434 97.652 389.642 96.42C387.85 95.188 386.954 93.382 386.954 91.002C386.954 89.434 387.36 88.076 388.172 86.928C388.984 85.752 390.118 84.856 391.574 84.24C393.03 83.596 394.738 83.274 396.698 83.274C398.798 83.274 400.688 83.498 402.368 83.946C404.076 84.394 405.616 84.982 406.988 85.71C408.36 86.438 409.564 87.222 410.6 88.062C411.664 88.874 412.588 89.644 413.372 90.372L409.928 95.706C408.248 94.11 406.638 92.752 405.098 91.632C403.558 90.512 402.06 89.658 400.604 89.07C399.148 88.482 397.678 88.188 396.194 88.188C395.214 88.188 394.416 88.37 393.8 88.734C393.212 89.098 392.918 89.616 392.918 90.288C392.918 91.016 393.24 91.534 393.884 91.842C394.528 92.122 395.298 92.262 396.194 92.262C396.866 92.262 397.412 92.136 397.832 91.884C398.252 91.632 398.546 91.254 398.714 90.75C398.91 90.246 399.008 89.616 399.008 88.86C399.008 88.16 398.98 87.25 398.924 86.13C398.868 84.982 398.798 83.708 398.714 82.308C398.658 80.908 398.602 79.424 398.546 77.856C398.49 76.288 398.462 74.706 398.462 73.11C398.462 71.43 398.448 69.918 398.42 68.574C398.42 67.23 398.406 66.278 398.378 65.718C398.378 65.41 398.336 64.962 398.252 64.374C398.196 63.786 398.126 63.268 398.042 62.82H405.308ZM384.938 63.366C384.826 63.674 384.686 64.122 384.518 64.71C384.35 65.298 384.196 65.872 384.056 66.432C383.944 66.992 383.86 67.398 383.804 67.65C383.692 68.098 383.552 68.798 383.384 69.75C383.244 70.702 383.076 71.808 382.88 73.068C382.712 74.3 382.544 75.574 382.376 76.89C382.208 78.206 382.068 79.452 381.956 80.628C381.872 81.776 381.83 82.742 381.83 83.526C381.83 83.582 381.83 83.736 381.83 83.988C381.83 84.24 381.844 84.408 381.872 84.492C382.04 84.072 382.208 83.694 382.376 83.358C382.572 83.022 382.754 82.686 382.922 82.35C383.118 82.014 383.3 81.636 383.468 81.216L386.534 83.694C386.114 84.954 385.694 86.242 385.274 87.558C384.882 88.846 384.532 90.064 384.224 91.212C383.916 92.36 383.678 93.34 383.51 94.152C383.454 94.432 383.398 94.782 383.342 95.202C383.286 95.594 383.258 95.902 383.258 96.126C383.258 96.35 383.258 96.63 383.258 96.966C383.258 97.33 383.272 97.68 383.3 98.016L377.546 98.436C377.098 97.008 376.692 95.118 376.328 92.766C375.992 90.414 375.824 87.81 375.824 84.954C375.824 83.358 375.88 81.706 375.992 79.998C376.132 78.262 376.286 76.596 376.454 75C376.65 73.404 376.832 71.962 377 70.674C377.196 69.358 377.35 68.308 377.462 67.524C377.546 66.88 377.63 66.124 377.714 65.256C377.826 64.388 377.896 63.562 377.924 62.778L384.938 63.366Z" fill="#CC0033"/>
<path d="M391.475 224.017V246.637H383.135V232.057H376.895V224.017H391.475ZM391.475 243.217C392.475 245.057 393.895 246.417 395.735 247.297C397.615 248.137 399.955 248.617 402.755 248.737C404.635 248.817 406.875 248.877 409.475 248.917C412.075 248.917 414.795 248.897 417.635 248.857C420.515 248.817 423.335 248.737 426.095 248.617C428.895 248.497 431.415 248.337 433.655 248.137C433.335 248.777 432.995 249.617 432.635 250.657C432.275 251.657 431.935 252.677 431.615 253.717C431.335 254.797 431.115 255.757 430.955 256.597C428.995 256.717 426.775 256.797 424.295 256.837C421.855 256.917 419.335 256.957 416.735 256.957C414.135 256.997 411.615 256.997 409.175 256.957C406.735 256.917 404.555 256.857 402.635 256.777C399.235 256.617 396.355 256.077 393.995 255.157C391.635 254.237 389.575 252.637 387.815 250.357C386.695 251.477 385.515 252.577 384.275 253.657C383.035 254.777 381.655 255.977 380.135 257.257L376.115 248.557C377.355 247.797 378.655 246.977 380.015 246.097C381.375 245.177 382.675 244.217 383.915 243.217H391.475ZM376.895 207.277L383.555 202.357C384.675 203.237 385.835 204.237 387.035 205.357C388.235 206.437 389.355 207.537 390.395 208.657C391.435 209.737 392.275 210.757 392.915 211.717L385.715 217.237C385.195 216.277 384.435 215.217 383.435 214.057C382.475 212.857 381.415 211.677 380.255 210.517C379.095 209.317 377.975 208.237 376.895 207.277ZM391.835 216.157H432.395V222.037H391.835V216.157ZM404.435 227.977V230.017H419.435V227.977H404.435ZM396.395 223.357H428.075V234.637H396.395V223.357ZM408.995 230.557L416.255 233.077C414.775 235.077 412.975 236.957 410.855 238.717C408.735 240.477 406.455 242.057 404.015 243.457C401.615 244.817 399.195 245.977 396.755 246.937C396.435 246.377 395.975 245.697 395.375 244.897C394.775 244.097 394.155 243.297 393.515 242.497C392.915 241.697 392.355 241.057 391.835 240.577C394.115 239.897 396.335 239.057 398.495 238.057C400.695 237.057 402.695 235.917 404.495 234.637C406.335 233.357 407.835 231.997 408.995 230.557ZM425.675 231.457L431.735 235.657C430.135 236.657 428.575 237.617 427.055 238.537C425.575 239.417 424.235 240.157 423.035 240.757L418.535 237.277C419.295 236.797 420.115 236.217 420.995 235.537C421.875 234.857 422.735 234.157 423.575 233.437C424.415 232.717 425.115 232.057 425.675 231.457ZM414.995 233.137C416.075 234.537 417.475 235.797 419.195 236.917C420.915 237.997 422.915 238.917 425.195 239.677C427.475 240.397 429.935 240.937 432.575 241.297C431.775 242.057 430.915 243.077 429.995 244.357C429.075 245.637 428.355 246.777 427.835 247.777C424.955 247.137 422.315 246.237 419.915 245.077C417.515 243.877 415.395 242.417 413.555 240.697C411.715 238.977 410.135 237.037 408.815 234.877L414.995 233.137ZM419.735 206.917V210.217H422.195V206.917H419.735ZM410.855 206.917V210.217H413.255V206.917H410.855ZM401.975 206.917V210.217H404.375V206.917H401.975ZM394.715 202.237H429.875V214.897H394.715V202.237ZM407.255 232.057H415.535V248.017H407.255V232.057ZM467.735 226.477H476.795V245.917C476.795 247.117 476.895 247.877 477.095 248.197C477.335 248.477 477.895 248.617 478.775 248.617C478.975 248.617 479.255 248.617 479.615 248.617C479.975 248.617 480.355 248.617 480.755 248.617C481.195 248.617 481.595 248.617 481.955 248.617C482.355 248.617 482.675 248.617 482.915 248.617C483.515 248.617 483.955 248.377 484.235 247.897C484.555 247.417 484.795 246.477 484.955 245.077C485.115 243.677 485.235 241.577 485.315 238.777C485.955 239.257 486.755 239.737 487.715 240.217C488.675 240.697 489.655 241.137 490.655 241.537C491.695 241.897 492.595 242.177 493.355 242.377C493.075 246.057 492.595 248.957 491.915 251.077C491.275 253.157 490.295 254.617 488.975 255.457C487.695 256.337 485.955 256.777 483.755 256.777C483.395 256.777 482.915 256.777 482.315 256.777C481.755 256.777 481.155 256.777 480.515 256.777C479.875 256.777 479.255 256.777 478.655 256.777C478.095 256.777 477.635 256.777 477.275 256.777C474.755 256.777 472.795 256.437 471.395 255.757C470.035 255.077 469.075 253.937 468.515 252.337C467.995 250.777 467.735 248.657 467.735 245.977V226.477ZM437.795 220.777H492.095V229.237H437.795V220.777ZM443.375 204.757H486.335V213.157H443.375V204.757ZM450.635 227.497H460.055C459.815 230.777 459.415 233.897 458.855 236.857C458.335 239.777 457.455 242.517 456.215 245.077C454.975 247.637 453.175 249.977 450.815 252.097C448.455 254.217 445.335 256.057 441.455 257.617C440.975 256.497 440.215 255.237 439.175 253.837C438.135 252.437 437.115 251.317 436.115 250.477C439.395 249.277 441.975 247.877 443.855 246.277C445.735 244.637 447.135 242.857 448.055 240.937C448.975 238.977 449.595 236.877 449.915 234.637C450.235 232.357 450.475 229.977 450.635 227.497Z" fill="#CC0033"/>
<path d="M18.3 148.62V150.12H41.22V148.62H18.3ZM18.3 142.08V143.52H41.22V142.08H18.3ZM9.96 136.62H49.98V155.58H9.96V136.62ZM2.94 157.08H57V163.92H2.94V157.08ZM30.9 165.3H49.56V171.84H30.9V165.3ZM12.9 165.36H25.92V171.24H12.9V165.36ZM12.9 172.86H25.92V178.74H12.9V172.86ZM38.88 171.18C40.52 174.46 43 177.3 46.32 179.7C49.64 182.1 53.62 183.82 58.26 184.86C57.7 185.38 57.08 186.04 56.4 186.84C55.76 187.64 55.14 188.46 54.54 189.3C53.98 190.18 53.52 190.96 53.16 191.64C48.04 190.12 43.74 187.8 40.26 184.68C36.82 181.52 34.04 177.66 31.92 173.1L38.88 171.18ZM47.04 165.3H48.54L49.98 165.06L55.38 167.04C54.26 171.28 52.66 175 50.58 178.2C48.54 181.36 46.08 184.06 43.2 186.3C40.32 188.54 37.06 190.38 33.42 191.82C32.94 190.78 32.24 189.58 31.32 188.22C30.4 186.9 29.54 185.84 28.74 185.04C31.02 184.32 33.14 183.36 35.1 182.16C37.1 180.96 38.88 179.56 40.44 177.96C42.04 176.36 43.4 174.6 44.52 172.68C45.64 170.76 46.48 168.7 47.04 166.5V165.3ZM2.4 181.32C4.44 181.24 6.72 181.14 9.24 181.02C11.8 180.86 14.48 180.7 17.28 180.54C20.12 180.34 22.94 180.16 25.74 180V187.02C21.74 187.34 17.74 187.64 13.74 187.92C9.74 188.24 6.14 188.52 2.94 188.76L2.4 181.32ZM21.48 159.3H29.82V191.7H21.48V159.3ZM7.38 159.48H15.3V184.08H7.38V159.48ZM63.18 150.24H116.94V159.3H63.18V150.24ZM94.86 153.9C96.02 158.34 97.62 162.48 99.66 166.32C101.7 170.12 104.26 173.46 107.34 176.34C110.46 179.22 114.16 181.5 118.44 183.18C117.72 183.82 116.94 184.64 116.1 185.64C115.3 186.6 114.52 187.6 113.76 188.64C113.04 189.68 112.44 190.62 111.96 191.46C107.24 189.26 103.22 186.46 99.9 183.06C96.62 179.62 93.88 175.64 91.68 171.12C89.48 166.56 87.6 161.5 86.04 155.94L94.86 153.9ZM84.9 134.7H94.5C94.46 137.98 94.36 141.38 94.2 144.9C94.08 148.38 93.78 151.88 93.3 155.4C92.82 158.88 92.04 162.32 90.96 165.72C89.92 169.12 88.46 172.38 86.58 175.5C84.7 178.62 82.28 181.54 79.32 184.26C76.4 186.94 72.82 189.34 68.58 191.46C67.9 190.26 66.94 188.96 65.7 187.56C64.5 186.16 63.26 184.98 61.98 184.02C65.98 182.18 69.32 180.1 72 177.78C74.72 175.46 76.9 172.94 78.54 170.22C80.22 167.5 81.5 164.68 82.38 161.76C83.26 158.8 83.86 155.8 84.18 152.76C84.5 149.68 84.68 146.62 84.72 143.58C84.8 140.54 84.86 137.58 84.9 134.7ZM15.12 218.96H45.12V226.58H15.12V218.96ZM14.58 247.1H44.88V254.72H14.58V247.1ZM10.74 231.68H49.86V256.82H40.86V239.3H19.32V256.82H10.74V231.68ZM29.76 208.28C28.12 210.56 26.08 212.88 23.64 215.24C21.2 217.6 18.5 219.86 15.54 222.02C12.58 224.18 9.48 226.12 6.24 227.84C5.88 227.16 5.38 226.38 4.74 225.5C4.14 224.62 3.48 223.76 2.76 222.92C2.08 222.08 1.42 221.36 0.78 220.76C4.22 219.12 7.5 217.12 10.62 214.76C13.74 212.4 16.52 209.9 18.96 207.26C21.44 204.62 23.4 202.12 24.84 199.76H33.96C35.6 202.08 37.38 204.28 39.3 206.36C41.26 208.4 43.32 210.3 45.48 212.06C47.68 213.78 49.94 215.32 52.26 216.68C54.62 218 57 219.12 59.4 220.04C58.32 221.16 57.3 222.42 56.34 223.82C55.38 225.18 54.5 226.54 53.7 227.9C51.42 226.7 49.12 225.34 46.8 223.82C44.48 222.26 42.26 220.62 40.14 218.9C38.02 217.14 36.06 215.36 34.26 213.56C32.5 211.76 31 210 29.76 208.28ZM86.28 219.68H118.98V228.32H86.28V219.68ZM98.1 200H106.98V256.7H98.1V200ZM64.5 218.24H84.24V224.72H64.5V218.24ZM64.86 201.44H84.36V207.92H64.86V201.44ZM64.5 226.52H84.24V233H64.5V226.52ZM61.5 209.66H86.64V216.44H61.5V209.66ZM68.46 234.98H84.06V253.64H68.46V246.86H76.44V241.76H68.46V234.98ZM64.26 234.98H71.76V255.8H64.26V234.98Z" fill="#CC0033"/>
<path d="M141.926 255.225V148.155C140.708 148.819 139.325 149.483 137.776 150.147C136.226 150.811 134.566 151.53 132.796 152.305C131.136 152.969 129.476 153.633 127.816 154.297C126.266 154.961 124.828 155.625 123.5 156.289V135.705C124.717 135.041 126.432 134.155 128.646 133.049C130.859 131.831 133.238 130.503 135.784 129.065C138.329 127.626 140.708 126.187 142.922 124.749C145.135 123.199 146.795 121.871 147.902 120.765H169.648V255.225H141.926ZM205.797 255.225V148.155C204.579 148.819 203.196 149.483 201.647 150.147C200.097 150.811 198.437 151.53 196.667 152.305C195.007 152.969 193.347 153.633 191.687 154.297C190.137 154.961 188.699 155.625 187.371 156.289V135.705C188.588 135.041 190.303 134.155 192.517 133.049C194.73 131.831 197.109 130.503 199.655 129.065C202.2 127.626 204.579 126.187 206.793 124.749C209.006 123.199 210.666 121.871 211.773 120.765H233.519V255.225H205.797Z" fill="#CC0033"/>
<path d="M274.723 222.237C270.583 222.237 266.865 221.163 263.568 219.017C260.348 216.793 257.78 213.65 255.863 209.587C254.023 205.447 253.103 200.54 253.103 194.867C253.103 189.117 254.023 184.248 255.863 180.262C257.78 176.198 260.348 173.132 263.568 171.062C266.865 168.915 270.583 167.842 274.723 167.842C278.94 167.842 282.658 168.915 285.878 171.062C289.175 173.132 291.743 176.198 293.583 180.262C295.5 184.248 296.458 189.117 296.458 194.867C296.458 200.54 295.5 205.447 293.583 209.587C291.743 213.65 289.175 216.793 285.878 219.017C282.658 221.163 278.94 222.237 274.723 222.237ZM274.723 210.967C276.716 210.967 278.441 209.778 279.898 207.402C281.431 205.025 282.198 200.847 282.198 194.867C282.198 188.887 281.431 184.785 279.898 182.562C278.441 180.262 276.716 179.112 274.723 179.112C272.73 179.112 270.966 180.262 269.433 182.562C267.976 184.785 267.248 188.887 267.248 194.867C267.248 200.847 267.976 205.025 269.433 207.402C270.966 209.778 272.73 210.967 274.723 210.967ZM277.713 256.622L323.828 167.842H335.558L289.443 256.622H277.713ZM338.433 256.622C334.293 256.622 330.575 255.548 327.278 253.402C324.058 251.178 321.49 248.035 319.573 243.972C317.733 239.832 316.813 234.925 316.813 229.252C316.813 223.502 317.733 218.633 319.573 214.647C321.49 210.583 324.058 207.478 327.278 205.332C330.575 203.185 334.293 202.112 338.433 202.112C342.573 202.112 346.253 203.185 349.473 205.332C352.77 207.478 355.338 210.583 357.178 214.647C359.095 218.633 360.053 223.502 360.053 229.252C360.053 234.925 359.095 239.832 357.178 243.972C355.338 248.035 352.77 251.178 349.473 253.402C346.253 255.548 342.573 256.622 338.433 256.622ZM338.433 245.237C340.426 245.237 342.151 244.087 343.608 241.787C345.141 239.41 345.908 235.232 345.908 229.252C345.908 223.195 345.141 219.055 343.608 216.832C342.151 214.608 340.426 213.497 338.433 213.497C336.44 213.497 334.676 214.608 333.143 216.832C331.686 219.055 330.958 223.195 330.958 229.252C330.958 235.232 331.686 239.41 333.143 241.787C334.676 244.087 336.44 245.237 338.433 245.237Z" fill="#CC0033"/>
</svg>
