<svg width="470" height="227" viewBox="0 0 470 227" fill="none" xmlns="http://www.w3.org/2000/svg">
<path d="M18.5162 14.8882H35.8682V19.8922H18.5162V14.8882ZM2.38825 12.5482H19.7402V17.3722H2.38825V12.5482ZM27.0842 7.22024H32.2682V35.0842C32.2682 36.4762 32.1242 37.5682 31.8362 38.3602C31.5722 39.1762 31.0562 39.8122 30.2882 40.2682C29.5202 40.7242 28.5602 41.0242 27.4082 41.1682C26.2562 41.3122 24.9362 41.3842 23.4482 41.3842C23.4002 40.8562 23.2922 40.2562 23.1242 39.5842C22.9562 38.9122 22.7522 38.2402 22.5122 37.5682C22.2962 36.8722 22.0682 36.2602 21.8282 35.7322C22.7642 35.7802 23.6522 35.8162 24.4922 35.8402C25.3562 35.8402 25.9442 35.8402 26.2562 35.8402C26.5682 35.8402 26.7842 35.7922 26.9042 35.6962C27.0242 35.5762 27.0842 35.3602 27.0842 35.0482V7.22024ZM17.6882 24.2842L21.8642 22.2322C22.4162 23.0002 22.9562 23.8282 23.4842 24.7162C24.0362 25.6042 24.5162 26.4802 24.9242 27.3442C25.3322 28.2082 25.6322 29.0002 25.8242 29.7202L21.3242 32.0242C21.1562 31.3282 20.8802 30.5362 20.4962 29.6482C20.1362 28.7362 19.7042 27.8122 19.2002 26.8762C18.7202 25.9402 18.2162 25.0762 17.6882 24.2842ZM2.82025 22.4122L6.49225 19.4242C7.54825 20.5522 8.64025 21.7642 9.76825 23.0602C10.8962 24.3562 11.9882 25.6762 13.0442 27.0202C14.1242 28.3402 15.0842 29.6362 15.9242 30.9082C16.7882 32.1802 17.4842 33.3682 18.0122 34.4722L13.8362 38.0362C13.3802 36.9322 12.7442 35.7322 11.9282 34.4362C11.1122 33.1162 10.2002 31.7602 9.19225 30.3682C8.18425 28.9762 7.12825 27.5962 6.02425 26.2282C4.94425 24.8602 3.87625 23.5882 2.82025 22.4122ZM8.36425 7.25624H13.3682V15.5362H8.36425V7.25624ZM12.1802 18.0202L17.2562 18.7402C16.6562 22.1482 15.8162 25.2682 14.7362 28.1002C13.6562 30.9082 12.3002 33.4042 10.6682 35.5882C9.03625 37.7722 7.08025 39.6322 4.80025 41.1682C4.58425 40.8082 4.26025 40.3642 3.82825 39.8362C3.42025 39.3322 2.98825 38.8162 2.53225 38.2882C2.07625 37.7842 1.66825 37.3762 1.30825 37.0642C3.42025 35.8402 5.19625 34.3042 6.63625 32.4562C8.10025 30.6082 9.27625 28.4722 10.1642 26.0482C11.0762 23.6242 11.7482 20.9482 12.1802 18.0202ZM47.5682 26.8402L51.0242 24.3202C52.9682 25.2802 54.5402 26.3722 55.7402 27.5962C56.9642 28.7962 57.8642 30.0442 58.4402 31.3402C59.0162 32.6122 59.3042 33.8362 59.3042 35.0122C59.3282 36.1882 59.1002 37.2442 58.6202 38.1802C58.1642 39.1162 57.5042 39.8482 56.6402 40.3762C55.8962 40.8562 55.2002 41.1802 54.5522 41.3482C53.9042 41.5162 53.1002 41.6122 52.1402 41.6362C51.6842 41.6362 51.2042 41.6242 50.7002 41.6002C50.2202 41.6002 49.7282 41.5882 49.2242 41.5642C49.2002 40.8682 49.0682 40.0762 48.8282 39.1882C48.5882 38.3242 48.2402 37.5562 47.7842 36.8842C48.4082 36.9562 49.0322 37.0042 49.6562 37.0282C50.2802 37.0522 50.8202 37.0642 51.2762 37.0642C51.7082 37.0642 52.1042 37.0402 52.4642 36.9922C52.8482 36.9202 53.1722 36.7642 53.4362 36.5242C53.8922 36.2362 54.1802 35.7442 54.3002 35.0482C54.4202 34.3522 54.2882 33.5482 53.9042 32.6362C53.5202 31.7002 52.8122 30.7402 51.7802 29.7562C50.7722 28.7482 49.3682 27.7762 47.5682 26.8402ZM51.7082 26.6962L55.1282 28.3882C54.0482 29.3002 52.7402 30.1642 51.2042 30.9802C49.6922 31.7722 48.0962 32.4802 46.4162 33.1042C44.7362 33.7282 43.0802 34.2322 41.4482 34.6162C41.1362 34.1122 40.7162 33.5242 40.1882 32.8522C39.6602 32.1562 39.1802 31.5922 38.7482 31.1602C40.3322 30.8962 41.9402 30.5482 43.5722 30.1162C45.2282 29.6602 46.7642 29.1442 48.1802 28.5682C49.6202 27.9682 50.7962 27.3442 51.7082 26.6962ZM54.0122 29.9722L57.6482 31.8802C56.6162 32.7922 55.4402 33.6682 54.1202 34.5082C52.8242 35.3242 51.4442 36.1042 49.9802 36.8482C48.5162 37.5682 47.0162 38.2162 45.4802 38.7922C43.9682 39.3682 42.4802 39.8602 41.0162 40.2682C40.7042 39.7162 40.2602 39.0682 39.6842 38.3242C39.1082 37.5802 38.5802 36.9802 38.1002 36.5242C39.5642 36.2122 41.0522 35.8282 42.5642 35.3722C44.0762 34.9162 45.5402 34.4002 46.9562 33.8242C48.3722 33.2482 49.6802 32.6362 50.8802 31.9882C52.1042 31.3402 53.1482 30.6682 54.0122 29.9722ZM48.2522 9.38024H58.8002V13.1962H48.2522V9.38024ZM54.0842 21.1162L57.9362 22.9162C56.5922 23.9962 54.9842 24.9802 53.1122 25.8682C51.2402 26.7322 49.2722 27.5002 47.2082 28.1722C45.1682 28.8202 43.1762 29.3722 41.2322 29.8282C41.0642 29.5162 40.8242 29.1322 40.5122 28.6762C40.2002 28.2202 39.8762 27.7642 39.5402 27.3082C39.2282 26.8522 38.9402 26.4802 38.6762 26.1922C40.5962 25.9042 42.5162 25.5202 44.4362 25.0402C46.3802 24.5362 48.1922 23.9602 49.8722 23.3122C51.5762 22.6402 52.9802 21.9082 54.0842 21.1162ZM59.9162 21.9802C60.5162 24.1402 61.3322 26.1442 62.3642 27.9922C63.4202 29.8162 64.7282 31.4122 66.2882 32.7802C67.8722 34.1482 69.7442 35.2162 71.9042 35.9842C71.5442 36.3202 71.1482 36.7522 70.7162 37.2802C70.2842 37.7842 69.8762 38.3122 69.4922 38.8642C69.1082 39.4162 68.7962 39.9202 68.5562 40.3762C66.1802 39.3442 64.1522 38.0002 62.4722 36.3442C60.8162 34.6642 59.4242 32.6962 58.2962 30.4402C57.1922 28.1842 56.2682 25.6762 55.5242 22.9162L59.9162 21.9802ZM67.1162 23.9962L71.3282 27.0562C70.4402 27.6082 69.5162 28.1482 68.5562 28.6762C67.5962 29.1802 66.6482 29.6602 65.7122 30.1162C64.8002 30.5482 63.9482 30.9322 63.1562 31.2682L59.8442 28.5682C60.6122 28.2082 61.4402 27.7762 62.3282 27.2722C63.2162 26.7442 64.0802 26.1922 64.9202 25.6162C65.7602 25.0402 66.4922 24.5002 67.1162 23.9962ZM47.2802 18.3802V20.3602H62.8682V18.3802H47.2802ZM42.3842 14.6722H68.0522V24.0682H42.3842V14.6722ZM47.7842 7.04024L53.1842 8.15624C51.7442 10.2682 50.1002 12.2602 48.2522 14.1322C46.4042 15.9802 44.1962 17.6842 41.6282 19.2442C41.3882 18.8362 41.0642 18.3922 40.6562 17.9122C40.2482 17.4322 39.8162 16.9762 39.3602 16.5442C38.9282 16.1122 38.5202 15.7762 38.1362 15.5362C39.6722 14.7442 41.0522 13.8802 42.2762 12.9442C43.5002 11.9842 44.5682 11.0002 45.4802 9.99224C46.4162 8.98424 47.1842 8.00024 47.7842 7.04024ZM52.2482 16.7242H57.3962V22.7362H52.2482V16.7242ZM56.6762 9.38024H57.8642L58.6562 9.16424L62.2202 11.5042C61.7642 12.2002 61.2242 12.9682 60.6002 13.8082C59.9762 14.6242 59.3282 15.4162 58.6562 16.1842C57.9842 16.9522 57.3482 17.6242 56.7482 18.2002C56.2682 17.8162 55.6562 17.3842 54.9122 16.9042C54.1922 16.4242 53.5562 16.0282 53.0042 15.7162C53.4842 15.2122 53.9642 14.6362 54.4442 13.9882C54.9482 13.3162 55.3922 12.6562 55.7762 12.0082C56.1842 11.3362 56.4842 10.7722 56.6762 10.3162V9.38024ZM94.7642 13.2682C94.5002 15.0922 94.1762 17.0362 93.7922 19.1002C93.4082 21.1642 92.8682 23.3242 92.1722 25.5802C91.4762 27.9802 90.6482 30.0802 89.6882 31.8802C88.7282 33.6802 87.6482 35.0842 86.4482 36.0922C85.2722 37.1002 83.9762 37.6042 82.5602 37.6042C81.0722 37.6042 79.7282 37.1242 78.5282 36.1642C77.3522 35.1802 76.4162 33.8602 75.7202 32.2042C75.0482 30.5242 74.7122 28.6642 74.7122 26.6242C74.7122 24.4882 75.1442 22.4722 76.0082 20.5762C76.8722 18.6562 78.0722 16.9642 79.6082 15.5002C81.1442 14.0362 82.9442 12.8842 85.0082 12.0442C87.0722 11.2042 89.3042 10.7842 91.7042 10.7842C94.0082 10.7842 96.0722 11.1562 97.8962 11.9002C99.7442 12.6202 101.316 13.6402 102.612 14.9602C103.932 16.2802 104.94 17.8282 105.636 19.6042C106.332 21.3562 106.68 23.2522 106.68 25.2922C106.68 27.8122 106.176 30.0922 105.168 32.1322C104.16 34.1482 102.636 35.8402 100.596 37.2082C98.5562 38.5522 95.9762 39.4882 92.8562 40.0162L89.5442 34.8322C90.3122 34.7362 90.9602 34.6402 91.4882 34.5442C92.0162 34.4242 92.5442 34.3042 93.0722 34.1842C94.2242 33.8962 95.2682 33.4882 96.2042 32.9602C97.1402 32.4322 97.9442 31.7842 98.6162 31.0162C99.2882 30.2482 99.8042 29.3722 100.164 28.3882C100.524 27.3802 100.704 26.2882 100.704 25.1122C100.704 23.7202 100.5 22.4602 100.092 21.3322C99.7082 20.2042 99.1202 19.2322 98.3282 18.4162C97.5602 17.6002 96.6122 16.9762 95.4842 16.5442C94.3562 16.1122 93.0602 15.8962 91.5962 15.8962C89.7242 15.8962 88.0802 16.2322 86.6642 16.9042C85.2722 17.5522 84.1082 18.4042 83.1722 19.4602C82.2362 20.4922 81.5282 21.5962 81.0482 22.7722C80.5922 23.9482 80.3642 25.0402 80.3642 26.0482C80.3642 27.0802 80.4722 27.9562 80.6882 28.6762C80.9042 29.3722 81.1802 29.9002 81.5162 30.2602C81.8762 30.6202 82.2722 30.8002 82.7042 30.8002C83.1842 30.8002 83.6282 30.5602 84.0362 30.0802C84.4682 29.6002 84.8762 28.8922 85.2602 27.9562C85.6682 26.9962 86.0882 25.8202 86.5202 24.4282C87.0722 22.7242 87.5402 20.8882 87.9242 18.9202C88.3082 16.9282 88.5842 14.9842 88.7522 13.0882L94.7642 13.2682ZM125.148 8.48024C125.1 8.69624 125.052 9.03224 125.004 9.48824C124.956 9.92024 124.908 10.3642 124.86 10.8202C124.812 11.2762 124.776 11.6602 124.752 11.9722C124.704 12.7882 124.656 13.5922 124.608 14.3842C124.584 15.1522 124.56 15.9202 124.536 16.6882C124.512 17.4562 124.488 18.2242 124.464 18.9922C124.464 19.7602 124.464 20.5402 124.464 21.3322C124.464 22.3402 124.476 23.4682 124.5 24.7162C124.524 25.9402 124.548 27.1642 124.572 28.3882C124.62 29.5882 124.656 30.6802 124.68 31.6642C124.704 32.6482 124.716 33.3922 124.716 33.8962C124.716 35.5762 124.524 36.8842 124.14 37.8202C123.78 38.7322 123.264 39.3562 122.592 39.6922C121.944 40.0522 121.188 40.2322 120.324 40.2322C119.364 40.2322 118.356 40.0402 117.3 39.6562C116.244 39.2962 115.26 38.7802 114.348 38.1082C113.46 37.4602 112.728 36.6922 112.152 35.8042C111.6 34.9162 111.324 33.9562 111.324 32.9242C111.324 31.7002 111.78 30.4882 112.692 29.2882C113.604 28.0882 114.816 26.9962 116.328 26.0122C117.84 25.0042 119.484 24.2002 121.26 23.6002C122.868 23.0482 124.524 22.6402 126.228 22.3762C127.956 22.1122 129.48 21.9802 130.8 21.9802C132.696 21.9802 134.424 22.3042 135.984 22.9522C137.568 23.5762 138.828 24.5002 139.764 25.7242C140.724 26.9482 141.204 28.4482 141.204 30.2242C141.204 31.6162 140.952 32.9242 140.448 34.1482C139.968 35.3482 139.14 36.4042 137.964 37.3162C136.788 38.2042 135.168 38.9122 133.104 39.4402C132.264 39.6082 131.436 39.7402 130.62 39.8362C129.804 39.9322 129 40.0162 128.208 40.0882L126.228 34.4362C127.092 34.4362 127.908 34.4242 128.676 34.4002C129.444 34.3522 130.128 34.2802 130.728 34.1842C131.664 34.0162 132.492 33.7642 133.212 33.4282C133.932 33.0682 134.496 32.6242 134.904 32.0962C135.312 31.5442 135.516 30.9082 135.516 30.1882C135.516 29.4682 135.324 28.8562 134.94 28.3522C134.556 27.8482 134.004 27.4642 133.284 27.2002C132.588 26.9122 131.736 26.7682 130.728 26.7682C129.264 26.7682 127.74 26.9242 126.156 27.2362C124.596 27.5242 123.144 27.9202 121.8 28.4242C120.792 28.8082 119.904 29.2402 119.136 29.7202C118.368 30.2002 117.768 30.6922 117.336 31.1962C116.904 31.7002 116.688 32.1922 116.688 32.6722C116.688 32.8882 116.748 33.0922 116.868 33.2842C117.012 33.4762 117.18 33.6442 117.372 33.7882C117.588 33.9322 117.804 34.0522 118.02 34.1482C118.236 34.2202 118.428 34.2562 118.596 34.2562C118.86 34.2562 119.1 34.1842 119.316 34.0402C119.532 33.8722 119.64 33.4762 119.64 32.8522C119.64 32.2522 119.616 31.3522 119.568 30.1522C119.544 28.9522 119.508 27.5962 119.46 26.0842C119.436 24.5482 119.424 23.0242 119.424 21.5122C119.424 20.5042 119.424 19.5202 119.424 18.5602C119.424 17.6002 119.424 16.7122 119.424 15.8962C119.424 15.0562 119.424 14.3122 119.424 13.6642C119.424 12.9922 119.424 12.4402 119.424 12.0082C119.424 11.7442 119.412 11.3842 119.388 10.9282C119.364 10.4482 119.328 9.98024 119.28 9.52424C119.256 9.04424 119.22 8.69624 119.172 8.48024H125.148ZM134.868 12.3322C135.828 12.7642 136.896 13.2922 138.072 13.9162C139.248 14.5162 140.376 15.1162 141.456 15.7162C142.536 16.3162 143.412 16.8442 144.084 17.3002L141.492 21.7282C141.06 21.3922 140.46 20.9842 139.692 20.5042C138.924 20.0242 138.084 19.5322 137.172 19.0282C136.284 18.5242 135.42 18.0562 134.58 17.6242C133.764 17.1682 133.08 16.8202 132.528 16.5802L134.868 12.3322ZM112.512 14.0602C113.616 14.1802 114.588 14.2522 115.428 14.2762C116.292 14.3002 117.048 14.3122 117.696 14.3122C118.656 14.3122 119.7 14.2762 120.828 14.2042C121.98 14.1082 123.144 13.9882 124.32 13.8442C125.496 13.7002 126.648 13.5202 127.776 13.3042C128.904 13.0882 129.936 12.8482 130.872 12.5842L130.98 17.9842C129.924 18.2242 128.796 18.4402 127.596 18.6322C126.396 18.8002 125.196 18.9562 123.996 19.1002C122.82 19.2202 121.704 19.3162 120.648 19.3882C119.592 19.4602 118.668 19.4962 117.876 19.4962C116.58 19.4962 115.536 19.4842 114.744 19.4602C113.952 19.4362 113.244 19.3882 112.62 19.3162L112.512 14.0602ZM157.548 24.8602C159.348 28.1482 162.132 30.7402 165.9 32.6362C169.668 34.5322 174.408 35.7682 180.12 36.3442C179.736 36.7522 179.328 37.2682 178.896 37.8922C178.488 38.4922 178.092 39.1162 177.708 39.7642C177.324 40.4122 177.012 40.9882 176.772 41.4922C172.716 40.9162 169.176 40.0042 166.152 38.7562C163.128 37.5322 160.512 35.9122 158.304 33.8962C156.096 31.8802 154.188 29.4322 152.58 26.5522L157.548 24.8602ZM149.088 20.1442H171.948V25.2562H149.088V20.1442ZM147.252 11.5402H178.392V16.7242H147.252V11.5402ZM160.032 7.22024H165.504V22.4482H160.032V7.22024ZM170.256 20.1442H171.336L172.236 19.9642L175.944 22.0522C174.888 25.0522 173.46 27.6562 171.66 29.8642C169.884 32.0722 167.808 33.9442 165.432 35.4802C163.056 36.9922 160.44 38.2282 157.584 39.1882C154.752 40.1722 151.74 40.9162 148.548 41.4202C148.404 40.9402 148.164 40.3762 147.828 39.7282C147.516 39.1042 147.168 38.4802 146.784 37.8562C146.4 37.2322 146.04 36.7282 145.704 36.3442C148.776 35.9842 151.632 35.4442 154.272 34.7242C156.936 34.0042 159.324 33.0442 161.436 31.8442C163.572 30.6442 165.384 29.1682 166.872 27.4162C168.384 25.6402 169.512 23.5282 170.256 21.0802V20.1442ZM201.18 8.12024L206.904 9.02024C206.568 11.5162 206.172 14.0482 205.716 16.6162C205.284 19.1602 204.804 21.6682 204.276 24.1402C203.772 26.6122 203.244 28.9642 202.692 31.1962C202.14 33.4042 201.588 35.4202 201.036 37.2442L196.068 36.2362C196.62 34.3882 197.148 32.3242 197.652 30.0442C198.18 27.7642 198.672 25.3762 199.128 22.8802C199.584 20.3842 199.98 17.8882 200.316 15.3922C200.676 12.8722 200.964 10.4482 201.18 8.12024ZM192.612 35.1562C194.196 35.0122 196.032 34.8322 198.12 34.6162C200.232 34.4002 202.464 34.1602 204.816 33.8962C207.168 33.6322 209.484 33.3682 211.764 33.1042L211.944 38.0002C209.832 38.3362 207.696 38.6602 205.536 38.9722C203.4 39.2842 201.324 39.5842 199.308 39.8722C197.292 40.1602 195.444 40.4242 193.764 40.6642L192.612 35.1562ZM205.392 24.7522L210.072 23.1682C210.936 24.8722 211.788 26.7082 212.628 28.6762C213.492 30.6202 214.26 32.5282 214.932 34.4002C215.628 36.2722 216.132 37.9522 216.444 39.4402L211.224 41.3842C211.032 40.3042 210.732 39.0802 210.324 37.7122C209.94 36.3442 209.484 34.9282 208.956 33.4642C208.428 31.9762 207.852 30.4882 207.228 29.0002C206.628 27.5122 206.016 26.0962 205.392 24.7522ZM182.208 13.8082H196.32V18.6682H182.208V13.8082ZM186.96 7.18424H192.072V35.8762C192.072 37.1242 191.94 38.0962 191.676 38.7922C191.412 39.4882 190.932 40.0402 190.236 40.4482C189.516 40.8322 188.652 41.0842 187.644 41.2042C186.636 41.3482 185.436 41.4202 184.044 41.4202C183.948 40.7242 183.756 39.8962 183.468 38.9362C183.204 38.0002 182.904 37.1962 182.568 36.5242C183.288 36.5482 184.008 36.5722 184.728 36.5962C185.472 36.5962 185.976 36.5962 186.24 36.5962C186.504 36.5722 186.684 36.5122 186.78 36.4162C186.9 36.2962 186.96 36.1042 186.96 35.8402V7.18424ZM181.632 24.8962C182.88 24.7282 184.308 24.5242 185.916 24.2842C187.548 24.0442 189.252 23.7802 191.028 23.4922C192.828 23.1802 194.604 22.8802 196.356 22.5922L196.716 27.2002C195.108 27.5362 193.476 27.8722 191.82 28.2082C190.188 28.5202 188.592 28.8322 187.032 29.1442C185.472 29.4562 184.02 29.7442 182.676 30.0082L181.632 24.8962ZM226.992 11.9362C226.896 12.4402 226.812 13.0042 226.74 13.6282C226.668 14.2522 226.608 14.8522 226.56 15.4282C226.512 16.0042 226.488 16.4722 226.488 16.8322C226.488 17.6242 226.488 18.4162 226.488 19.2082C226.512 20.0002 226.536 20.7922 226.56 21.5842C226.584 22.3522 226.632 23.1442 226.704 23.9602C226.848 25.5202 227.04 26.9122 227.28 28.1362C227.52 29.3362 227.844 30.2842 228.252 30.9802C228.684 31.6522 229.248 31.9882 229.944 31.9882C230.352 31.9882 230.736 31.7482 231.096 31.2682C231.456 30.7882 231.78 30.1762 232.068 29.4322C232.38 28.6882 232.644 27.9202 232.86 27.1282C233.076 26.3362 233.256 25.6402 233.4 25.0402L237.792 30.4402C236.952 32.5522 236.124 34.2442 235.308 35.5162C234.492 36.7642 233.64 37.6642 232.752 38.2162C231.864 38.7682 230.892 39.0442 229.836 39.0442C228.42 39.0442 227.1 38.6122 225.876 37.7482C224.676 36.8602 223.644 35.4322 222.78 33.4642C221.94 31.4722 221.352 28.8442 221.016 25.5802C220.896 24.4282 220.8 23.2402 220.728 22.0162C220.68 20.7922 220.644 19.6282 220.62 18.5242C220.62 17.4202 220.62 16.4962 220.62 15.7522C220.62 15.2002 220.596 14.5762 220.548 13.8802C220.5 13.1602 220.416 12.4882 220.296 11.8642L226.992 11.9362ZM244.596 12.6202C245.292 13.4362 245.964 14.4562 246.612 15.6802C247.26 16.9042 247.848 18.2242 248.376 19.6402C248.928 21.0562 249.408 22.4962 249.816 23.9602C250.224 25.4002 250.548 26.7922 250.788 28.1362C251.052 29.4802 251.22 30.6682 251.292 31.7002L245.496 33.9322C245.376 32.5642 245.16 31.0042 244.848 29.2522C244.56 27.5002 244.152 25.7122 243.624 23.8882C243.12 22.0402 242.484 20.2882 241.716 18.6322C240.972 16.9762 240.072 15.5722 239.016 14.4202L244.596 12.6202ZM263.712 13.2562C263.266 13.2562 262.884 13.0978 262.567 12.781C262.251 12.4642 262.092 12.0826 262.092 11.6362C262.092 11.1898 262.251 10.8082 262.567 10.4914C262.884 10.1746 263.266 10.0162 263.712 10.0162C264.159 10.0162 264.54 10.1746 264.857 10.4914C265.174 10.8082 265.332 11.1898 265.332 11.6362C265.332 12.0826 265.174 12.4642 264.857 12.781C264.54 13.0978 264.159 13.2562 263.712 13.2562ZM263.712 17.1658L270.84 10.0378L271.467 10.6642L264.339 17.7922L271.467 24.9202L270.84 25.5466L263.712 18.4186L256.563 25.5682L255.936 24.9418L263.086 17.7922L255.958 10.6642L256.584 10.0378L263.712 17.1658ZM259.176 17.7922C259.176 18.2386 259.018 18.6202 258.701 18.937C258.384 19.2538 258.003 19.4122 257.556 19.4122C257.11 19.4122 256.728 19.2538 256.411 18.937C256.095 18.6202 255.936 18.2386 255.936 17.7922C255.936 17.3458 256.095 16.9642 256.411 16.6474C256.728 16.3306 257.11 16.1722 257.556 16.1722C258.003 16.1722 258.384 16.3306 258.701 16.6474C259.018 16.9642 259.176 17.3458 259.176 17.7922ZM268.248 17.7922C268.248 17.3458 268.407 16.9642 268.723 16.6474C269.04 16.3306 269.422 16.1722 269.868 16.1722C270.315 16.1722 270.696 16.3306 271.013 16.6474C271.33 16.9642 271.488 17.3458 271.488 17.7922C271.488 18.2386 271.33 18.6202 271.013 18.937C270.696 19.2538 270.315 19.4122 269.868 19.4122C269.422 19.4122 269.04 19.2538 268.723 18.937C268.407 18.6202 268.248 18.2386 268.248 17.7922ZM263.712 22.3282C264.159 22.3282 264.54 22.4866 264.857 22.8034C265.174 23.1202 265.332 23.5018 265.332 23.9482C265.332 24.3946 265.174 24.7762 264.857 25.093C264.54 25.4098 264.159 25.5682 263.712 25.5682C263.266 25.5682 262.884 25.4098 262.567 25.093C262.251 24.7762 262.092 24.3946 262.092 23.9482C262.092 23.5018 262.251 23.1202 262.567 22.8034C262.884 22.4866 263.266 22.3282 263.712 22.3282ZM276.845 26.0002V22.8898H280.258V13.753H277.299V11.377C278.163 11.2186 278.897 11.0242 279.502 10.7938C280.121 10.5634 280.711 10.2682 281.273 9.90824H284.103V22.8898H286.997V26.0002H276.845ZM299.771 13.2562C299.324 13.2562 298.943 13.0978 298.626 12.781C298.309 12.4642 298.151 12.0826 298.151 11.6362C298.151 11.1898 298.309 10.8082 298.626 10.4914C298.943 10.1746 299.324 10.0162 299.771 10.0162C300.217 10.0162 300.599 10.1746 300.916 10.4914C301.232 10.8082 301.391 11.1898 301.391 11.6362C301.391 12.0826 301.232 12.4642 300.916 12.781C300.599 13.0978 300.217 13.2562 299.771 13.2562ZM299.771 17.1658L306.899 10.0378L307.525 10.6642L300.397 17.7922L307.525 24.9202L306.899 25.5466L299.771 18.4186L292.621 25.5682L291.995 24.9418L299.144 17.7922L292.016 10.6642L292.643 10.0378L299.771 17.1658ZM295.235 17.7922C295.235 18.2386 295.076 18.6202 294.76 18.937C294.443 19.2538 294.061 19.4122 293.615 19.4122C293.168 19.4122 292.787 19.2538 292.47 18.937C292.153 18.6202 291.995 18.2386 291.995 17.7922C291.995 17.3458 292.153 16.9642 292.47 16.6474C292.787 16.3306 293.168 16.1722 293.615 16.1722C294.061 16.1722 294.443 16.3306 294.76 16.6474C295.076 16.9642 295.235 17.3458 295.235 17.7922ZM304.307 17.7922C304.307 17.3458 304.465 16.9642 304.782 16.6474C305.099 16.3306 305.48 16.1722 305.927 16.1722C306.373 16.1722 306.755 16.3306 307.072 16.6474C307.388 16.9642 307.547 17.3458 307.547 17.7922C307.547 18.2386 307.388 18.6202 307.072 18.937C306.755 19.2538 306.373 19.4122 305.927 19.4122C305.48 19.4122 305.099 19.2538 304.782 18.937C304.465 18.6202 304.307 18.2386 304.307 17.7922ZM299.771 22.3282C300.217 22.3282 300.599 22.4866 300.916 22.8034C301.232 23.1202 301.391 23.5018 301.391 23.9482C301.391 24.3946 301.232 24.7762 300.916 25.093C300.599 25.4098 300.217 25.5682 299.771 25.5682C299.324 25.5682 298.943 25.4098 298.626 25.093C298.309 24.7762 298.151 24.3946 298.151 23.9482C298.151 23.5018 298.309 23.1202 298.626 22.8034C298.943 22.4866 299.324 22.3282 299.771 22.3282ZM312.126 26.0002V23.797C313.465 22.573 314.639 21.4354 315.647 20.3842C316.655 19.333 317.44 18.3538 318.001 17.4466C318.563 16.525 318.844 15.6754 318.844 14.8978C318.844 14.4082 318.757 13.9978 318.584 13.6666C318.426 13.321 318.188 13.0618 317.872 12.889C317.555 12.7162 317.18 12.6298 316.748 12.6298C316.201 12.6298 315.704 12.7882 315.258 13.105C314.826 13.4074 314.416 13.7674 314.027 14.185L311.932 12.1114C312.724 11.2618 313.523 10.6354 314.329 10.2322C315.15 9.82904 316.129 9.62744 317.267 9.62744C318.304 9.62744 319.218 9.83624 320.01 10.2538C320.802 10.6714 321.421 11.2618 321.868 12.025C322.314 12.7738 322.537 13.6594 322.537 14.6818C322.537 15.6034 322.3 16.5466 321.824 17.5114C321.364 18.4618 320.766 19.405 320.032 20.341C319.297 21.2626 318.52 22.141 317.699 22.9762C318.102 22.9186 318.548 22.8682 319.038 22.825C319.542 22.7818 319.974 22.7602 320.334 22.7602H323.272V26.0002H312.126ZM335.829 13.2562C335.383 13.2562 335.001 13.0978 334.684 12.781C334.368 12.4642 334.209 12.0826 334.209 11.6362C334.209 11.1898 334.368 10.8082 334.684 10.4914C335.001 10.1746 335.383 10.0162 335.829 10.0162C336.276 10.0162 336.657 10.1746 336.974 10.4914C337.291 10.8082 337.449 11.1898 337.449 11.6362C337.449 12.0826 337.291 12.4642 336.974 12.781C336.657 13.0978 336.276 13.2562 335.829 13.2562ZM335.829 17.1658L342.957 10.0378L343.584 10.6642L336.456 17.7922L343.584 24.9202L342.957 25.5466L335.829 18.4186L328.68 25.5682L328.053 24.9418L335.203 17.7922L328.075 10.6642L328.701 10.0378L335.829 17.1658ZM331.293 17.7922C331.293 18.2386 331.135 18.6202 330.818 18.937C330.501 19.2538 330.12 19.4122 329.673 19.4122C329.227 19.4122 328.845 19.2538 328.528 18.937C328.212 18.6202 328.053 18.2386 328.053 17.7922C328.053 17.3458 328.212 16.9642 328.528 16.6474C328.845 16.3306 329.227 16.1722 329.673 16.1722C330.12 16.1722 330.501 16.3306 330.818 16.6474C331.135 16.9642 331.293 17.3458 331.293 17.7922ZM340.365 17.7922C340.365 17.3458 340.524 16.9642 340.84 16.6474C341.157 16.3306 341.539 16.1722 341.985 16.1722C342.432 16.1722 342.813 16.3306 343.13 16.6474C343.447 16.9642 343.605 17.3458 343.605 17.7922C343.605 18.2386 343.447 18.6202 343.13 18.937C342.813 19.2538 342.432 19.4122 341.985 19.4122C341.539 19.4122 341.157 19.2538 340.84 18.937C340.524 18.6202 340.365 18.2386 340.365 17.7922ZM335.829 22.3282C336.276 22.3282 336.657 22.4866 336.974 22.8034C337.291 23.1202 337.449 23.5018 337.449 23.9482C337.449 24.3946 337.291 24.7762 336.974 25.093C336.657 25.4098 336.276 25.5682 335.829 25.5682C335.383 25.5682 335.001 25.4098 334.684 25.093C334.368 24.7762 334.209 24.3946 334.209 23.9482C334.209 23.5018 334.368 23.1202 334.684 22.8034C335.001 22.4866 335.383 22.3282 335.829 22.3282ZM353.304 26.3026C352.454 26.3026 351.684 26.209 350.992 26.0218C350.316 25.8346 349.711 25.5754 349.178 25.2442C348.645 24.8986 348.184 24.5026 347.796 24.0562L349.567 21.637C350.056 22.0834 350.582 22.4578 351.144 22.7602C351.705 23.0482 352.296 23.1922 352.915 23.1922C353.419 23.1922 353.851 23.1274 354.211 22.9978C354.585 22.8538 354.873 22.645 355.075 22.3714C355.276 22.0978 355.377 21.7594 355.377 21.3562C355.377 20.8954 355.269 20.4994 355.053 20.1682C354.837 19.837 354.434 19.585 353.844 19.4122C353.253 19.2394 352.396 19.153 351.273 19.153V16.4314C352.195 16.4314 352.915 16.345 353.433 16.1722C353.952 15.9994 354.319 15.7546 354.535 15.4378C354.765 15.121 354.88 14.7538 354.88 14.3362C354.88 13.789 354.722 13.3714 354.405 13.0834C354.088 12.781 353.635 12.6298 353.044 12.6298C352.512 12.6298 352.022 12.745 351.576 12.9754C351.129 13.2058 350.661 13.537 350.172 13.969L348.228 11.6146C348.976 10.981 349.754 10.4914 350.56 10.1458C351.381 9.80024 352.267 9.62744 353.217 9.62744C354.326 9.62744 355.291 9.80024 356.112 10.1458C356.947 10.477 357.588 10.9738 358.034 11.6362C358.495 12.2842 358.725 13.0906 358.725 14.0554C358.725 14.8474 358.509 15.553 358.077 16.1722C357.645 16.777 357.004 17.2522 356.155 17.5978V17.7058C356.745 17.8786 357.271 18.145 357.732 18.505C358.207 18.8506 358.574 19.2826 358.833 19.801C359.107 20.3194 359.244 20.9242 359.244 21.6154C359.244 22.609 358.97 23.4586 358.423 24.1642C357.876 24.8554 357.148 25.3882 356.241 25.7626C355.348 26.1226 354.369 26.3026 353.304 26.3026ZM377.036 12.3322C378.212 12.4762 379.508 12.5842 380.924 12.6562C382.34 12.7042 383.768 12.7162 385.208 12.6922C386.672 12.6682 388.064 12.6202 389.384 12.5482C390.728 12.4762 391.904 12.3922 392.912 12.2962V17.9122C391.736 18.0082 390.476 18.0922 389.132 18.1642C387.788 18.2122 386.42 18.2362 385.028 18.2362C383.636 18.2362 382.256 18.2122 380.888 18.1642C379.544 18.0922 378.272 18.0082 377.072 17.9122L377.036 12.3322ZM380.744 28.1002C380.624 28.6762 380.528 29.1802 380.456 29.6122C380.408 30.0442 380.384 30.5002 380.384 30.9802C380.384 31.3642 380.48 31.7002 380.672 31.9882C380.864 32.2762 381.14 32.5042 381.5 32.6722C381.884 32.8402 382.352 32.9722 382.904 33.0682C383.456 33.1402 384.104 33.1762 384.848 33.1762C386.456 33.1762 387.956 33.1042 389.348 32.9602C390.764 32.7922 392.288 32.5402 393.92 32.2042L394.028 38.1082C392.852 38.3242 391.508 38.4922 389.996 38.6122C388.508 38.7322 386.696 38.7922 384.56 38.7922C381.416 38.7922 379.052 38.2402 377.468 37.1362C375.908 36.0322 375.128 34.5202 375.128 32.6002C375.128 31.8322 375.176 31.0522 375.272 30.2602C375.392 29.4682 375.56 28.6042 375.776 27.6682L380.744 28.1002ZM372.248 10.1362C372.152 10.4002 372.032 10.7842 371.888 11.2882C371.744 11.7922 371.612 12.2842 371.492 12.7642C371.372 13.2442 371.288 13.5922 371.24 13.8082C371.168 14.1922 371.06 14.7682 370.916 15.5362C370.772 16.3042 370.616 17.1922 370.448 18.2002C370.304 19.1842 370.16 20.2042 370.016 21.2602C369.872 22.2922 369.752 23.2882 369.656 24.2482C369.56 25.1842 369.512 25.9882 369.512 26.6602C369.512 26.7082 369.512 26.8402 369.512 27.0562C369.512 27.2722 369.524 27.4162 369.548 27.4882C369.716 27.1522 369.872 26.8402 370.016 26.5522C370.184 26.2642 370.34 25.9762 370.484 25.6882C370.652 25.3762 370.808 25.0522 370.952 24.7162L373.58 26.8042C373.22 27.8842 372.86 29.0122 372.5 30.1882C372.164 31.3642 371.864 32.4682 371.6 33.5002C371.336 34.5322 371.132 35.3842 370.988 36.0562C370.94 36.3202 370.892 36.6322 370.844 36.9922C370.796 37.3522 370.772 37.6162 370.772 37.7842C370.772 37.9762 370.772 38.2162 370.772 38.5042C370.772 38.8162 370.784 39.1162 370.808 39.4042L365.768 39.7282C365.408 38.5282 365.072 36.8722 364.76 34.7602C364.472 32.6242 364.328 30.3322 364.328 27.8842C364.328 26.5162 364.376 25.1362 364.472 23.7442C364.592 22.3522 364.724 21.0202 364.868 19.7482C365.036 18.4522 365.192 17.2882 365.336 16.2562C365.504 15.2242 365.636 14.3722 365.732 13.7002C365.804 13.1482 365.888 12.5002 365.984 11.7562C366.08 11.0122 366.14 10.3042 366.164 9.63224L372.248 10.1362ZM414.692 14.8882H432.044V19.8922H414.692V14.8882ZM398.564 12.5482H415.916V17.3722H398.564V12.5482ZM423.26 7.22024H428.444V35.0842C428.444 36.4762 428.3 37.5682 428.012 38.3602C427.748 39.1762 427.232 39.8122 426.464 40.2682C425.696 40.7242 424.736 41.0242 423.584 41.1682C422.432 41.3122 421.112 41.3842 419.624 41.3842C419.576 40.8562 419.468 40.2562 419.3 39.5842C419.132 38.9122 418.928 38.2402 418.688 37.5682C418.472 36.8722 418.244 36.2602 418.004 35.7322C418.94 35.7802 419.828 35.8162 420.668 35.8402C421.532 35.8402 422.12 35.8402 422.432 35.8402C422.744 35.8402 422.96 35.7922 423.08 35.6962C423.2 35.5762 423.26 35.3602 423.26 35.0482V7.22024ZM413.864 24.2842L418.04 22.2322C418.592 23.0002 419.132 23.8282 419.66 24.7162C420.212 25.6042 420.692 26.4802 421.1 27.3442C421.508 28.2082 421.808 29.0002 422 29.7202L417.5 32.0242C417.332 31.3282 417.056 30.5362 416.672 29.6482C416.312 28.7362 415.88 27.8122 415.376 26.8762C414.896 25.9402 414.392 25.0762 413.864 24.2842ZM398.996 22.4122L402.668 19.4242C403.724 20.5522 404.816 21.7642 405.944 23.0602C407.072 24.3562 408.164 25.6762 409.22 27.0202C410.3 28.3402 411.26 29.6362 412.1 30.9082C412.964 32.1802 413.66 33.3682 414.188 34.4722L410.012 38.0362C409.556 36.9322 408.92 35.7322 408.104 34.4362C407.288 33.1162 406.376 31.7602 405.368 30.3682C404.36 28.9762 403.304 27.5962 402.2 26.2282C401.12 24.8602 400.052 23.5882 398.996 22.4122ZM404.54 7.25624H409.544V15.5362H404.54V7.25624ZM408.356 18.0202L413.432 18.7402C412.832 22.1482 411.992 25.2682 410.912 28.1002C409.832 30.9082 408.476 33.4042 406.844 35.5882C405.212 37.7722 403.256 39.6322 400.976 41.1682C400.76 40.8082 400.436 40.3642 400.004 39.8362C399.596 39.3322 399.164 38.8162 398.708 38.2882C398.252 37.7842 397.844 37.3762 397.484 37.0642C399.596 35.8402 401.372 34.3042 402.812 32.4562C404.276 30.6082 405.452 28.4722 406.34 26.0482C407.252 23.6242 407.924 20.9482 408.356 18.0202ZM447.092 9.16424C446.972 10.0042 446.864 10.9282 446.768 11.9362C446.672 12.9442 446.6 13.8442 446.552 14.6362C446.504 15.5722 446.456 16.7242 446.408 18.0922C446.36 19.4362 446.312 20.8522 446.264 22.3402C446.216 23.8042 446.18 25.2322 446.156 26.6242C446.132 27.9922 446.12 29.1682 446.12 30.1522C446.12 31.3042 446.312 32.2162 446.696 32.8882C447.104 33.5362 447.644 34.0042 448.316 34.2922C448.988 34.5562 449.732 34.6882 450.548 34.6882C451.94 34.6882 453.224 34.4962 454.4 34.1122C455.576 33.7282 456.656 33.2122 457.64 32.5642C458.624 31.8922 459.524 31.1122 460.34 30.2242C461.156 29.3362 461.888 28.3882 462.536 27.3802L466.496 32.2402C465.944 33.1042 465.188 34.0282 464.228 35.0122C463.292 35.9722 462.152 36.8842 460.808 37.7482C459.488 38.6122 457.964 39.3082 456.236 39.8362C454.508 40.3882 452.6 40.6642 450.512 40.6642C448.424 40.6642 446.612 40.3402 445.076 39.6922C443.54 39.0442 442.352 38.0482 441.512 36.7042C440.696 35.3362 440.288 33.6082 440.288 31.5202C440.288 30.6082 440.3 29.5402 440.324 28.3162C440.348 27.0682 440.372 25.7722 440.396 24.4282C440.444 23.0602 440.48 21.7282 440.504 20.4322C440.528 19.1362 440.552 17.9842 440.576 16.9762C440.6 15.9442 440.612 15.1642 440.612 14.6362C440.612 13.6522 440.564 12.6922 440.468 11.7562C440.396 10.7962 440.264 9.90824 440.072 9.09224L447.092 9.16424ZM104.46 56.1522C104.34 55.6002 104.208 55.0962 104.064 54.6402C103.944 54.1842 103.812 53.7282 103.668 53.2722L109.824 52.3002C109.872 52.6602 109.92 53.1282 109.968 53.7042C110.04 54.2802 110.124 54.7962 110.22 55.2522C110.292 55.6602 110.4 56.3322 110.544 57.2682C110.712 58.1802 110.916 59.2842 111.156 60.5802C111.396 61.8522 111.66 63.2322 111.948 64.7202C112.236 66.1842 112.524 67.6722 112.812 69.1842C113.1 70.6962 113.376 72.1482 113.64 73.5402C113.904 74.9082 114.144 76.1442 114.36 77.2482C114.576 78.3282 114.744 79.1802 114.864 79.8042C114.984 80.3322 115.128 80.9202 115.296 81.5682C115.464 82.2162 115.632 82.8522 115.8 83.4762L109.536 84.5562C109.44 83.8602 109.368 83.1882 109.32 82.5402C109.272 81.8922 109.188 81.3042 109.068 80.7762C108.972 80.2242 108.828 79.4322 108.636 78.4002C108.468 77.3682 108.252 76.1802 107.988 74.8362C107.748 73.4922 107.484 72.0762 107.196 70.5882C106.908 69.1002 106.62 67.6122 106.332 66.1242C106.068 64.6122 105.804 63.1962 105.54 61.8762C105.3 60.5562 105.084 59.4042 104.892 58.4202C104.7 57.4122 104.556 56.6562 104.46 56.1522ZM94.8125 60.4002C95.4365 60.3522 96.0365 60.3162 96.6125 60.2922C97.2125 60.2442 97.7885 60.1842 98.3405 60.1122C98.8445 60.0402 99.5765 59.9442 100.536 59.8242C101.496 59.6802 102.588 59.5242 103.812 59.3562C105.06 59.1642 106.344 58.9722 107.664 58.7802C109.008 58.5642 110.304 58.3602 111.552 58.1682C112.8 57.9522 113.904 57.7602 114.864 57.5922C115.848 57.4242 116.604 57.2922 117.132 57.1962C117.732 57.0762 118.392 56.9442 119.112 56.8002C119.832 56.6322 120.444 56.4762 120.948 56.3322L121.992 62.0202C121.536 62.0442 120.936 62.1162 120.192 62.2362C119.472 62.3322 118.824 62.4162 118.248 62.4882C117.6 62.5842 116.748 62.7162 115.692 62.8842C114.636 63.0522 113.472 63.2442 112.2 63.4602C110.928 63.6522 109.632 63.8562 108.312 64.0722C106.992 64.2882 105.732 64.4922 104.532 64.6842C103.356 64.8762 102.324 65.0442 101.436 65.1882C100.548 65.3322 99.9005 65.4402 99.4925 65.5122C98.8925 65.6322 98.3165 65.7522 97.7645 65.8722C97.2365 65.9922 96.6365 66.1482 95.9645 66.3402L94.8125 60.4002ZM94.9205 71.0562C95.4245 71.0322 96.0725 70.9842 96.8645 70.9122C97.6565 70.8162 98.3525 70.7202 98.9525 70.6242C99.6005 70.5282 100.464 70.3962 101.544 70.2282C102.624 70.0602 103.836 69.8682 105.18 69.6522C106.524 69.4362 107.904 69.2202 109.32 69.0042C110.76 68.7642 112.152 68.5362 113.496 68.3202C114.84 68.0802 116.064 67.8642 117.168 67.6722C118.296 67.4802 119.196 67.3242 119.868 67.2042C120.564 67.0602 121.26 66.9042 121.956 66.7362C122.676 66.5682 123.3 66.4122 123.828 66.2682L124.98 71.9922C124.452 72.0162 123.804 72.0882 123.036 72.2082C122.292 72.3282 121.572 72.4482 120.876 72.5682C120.132 72.6882 119.184 72.8442 118.032 73.0362C116.904 73.2042 115.656 73.4082 114.288 73.6482C112.92 73.8642 111.516 74.0922 110.076 74.3322C108.66 74.5482 107.292 74.7762 105.972 75.0162C104.652 75.2322 103.464 75.4362 102.408 75.6282C101.376 75.7962 100.56 75.9402 99.9605 76.0602C99.1445 76.2042 98.4005 76.3362 97.7285 76.4562C97.0805 76.5762 96.5525 76.6962 96.1445 76.8162L94.9205 71.0562ZM142.62 58.6722C142.692 59.1522 142.788 59.6442 142.908 60.1482C143.028 60.6522 143.136 61.1442 143.232 61.6242C143.472 62.4642 143.748 63.4602 144.06 64.6122C144.372 65.7402 144.708 66.9522 145.068 68.2482C145.428 69.5442 145.788 70.8522 146.148 72.1722C146.508 73.4682 146.856 74.7162 147.192 75.9162C147.528 77.0922 147.828 78.1482 148.092 79.0842C148.356 80.0202 148.572 80.7642 148.74 81.3162C148.812 81.5082 148.908 81.8082 149.028 82.2162C149.148 82.6482 149.28 83.0802 149.424 83.5122C149.568 83.9442 149.688 84.2922 149.784 84.5562L143.88 85.9962C143.808 85.4682 143.712 84.8922 143.592 84.2682C143.472 83.6442 143.328 83.0682 143.16 82.5402C142.992 81.9642 142.776 81.1842 142.512 80.2002C142.272 79.2162 141.984 78.1122 141.648 76.8882C141.336 75.6402 141 74.3562 140.64 73.0362C140.304 71.6922 139.968 70.3842 139.632 69.1122C139.296 67.8162 138.972 66.6282 138.66 65.5482C138.372 64.4442 138.12 63.5322 137.904 62.8122C137.784 62.3322 137.616 61.8642 137.4 61.4082C137.208 60.9282 137.004 60.4722 136.788 60.0402L142.62 58.6722ZM159.9 64.5762C159.516 65.3682 159.024 66.2922 158.424 67.3482C157.824 68.3802 157.164 69.4482 156.444 70.5522C155.724 71.6322 155.004 72.6762 154.284 73.6842C153.564 74.6682 152.88 75.5202 152.232 76.2402L147.444 73.8642C147.996 73.3602 148.584 72.7482 149.208 72.0282C149.856 71.2842 150.456 70.5402 151.008 69.7962C151.584 69.0522 152.004 68.4282 152.268 67.9242C151.98 67.9722 151.476 68.0682 150.756 68.2122C150.06 68.3562 149.22 68.5362 148.236 68.7522C147.276 68.9442 146.22 69.1602 145.068 69.4002C143.94 69.6402 142.8 69.8922 141.648 70.1562C140.496 70.3962 139.392 70.6362 138.336 70.8762C137.28 71.0922 136.344 71.2962 135.528 71.4882C134.712 71.6562 134.076 71.7882 133.62 71.8842L132.288 66.7002C132.888 66.6522 133.464 66.5922 134.016 66.5202C134.568 66.4482 135.156 66.3642 135.78 66.2682C136.068 66.2202 136.572 66.1362 137.292 66.0162C138.012 65.8962 138.864 65.7402 139.848 65.5482C140.832 65.3562 141.888 65.1522 143.016 64.9362C144.168 64.7202 145.32 64.5042 146.472 64.2882C147.624 64.0722 148.716 63.8682 149.748 63.6762C150.804 63.4602 151.728 63.2802 152.52 63.1362C153.312 62.9682 153.912 62.8362 154.32 62.7402C154.68 62.6682 155.04 62.5722 155.4 62.4522C155.784 62.3322 156.108 62.2122 156.372 62.0922L159.9 64.5762ZM172.86 54.0642C173.484 54.4962 174.216 55.0362 175.056 55.6842C175.896 56.3082 176.76 56.9922 177.648 57.7362C178.56 58.4562 179.412 59.1762 180.204 59.8962C181.02 60.5922 181.692 61.2282 182.22 61.8042L177.756 66.3762C177.276 65.8482 176.664 65.2362 175.92 64.5402C175.176 63.8202 174.372 63.0882 173.508 62.3442C172.644 61.5762 171.792 60.8562 170.952 60.1842C170.112 59.5122 169.368 58.9482 168.72 58.4922L172.86 54.0642ZM167.532 77.9682C169.308 77.7282 170.988 77.3922 172.572 76.9602C174.18 76.5282 175.692 76.0242 177.108 75.4482C178.524 74.8722 179.82 74.2482 180.996 73.5762C183.156 72.3282 185.124 70.9122 186.9 69.3282C188.676 67.7202 190.224 66.0522 191.544 64.3242C192.888 62.5722 193.956 60.8562 194.748 59.1762L198.132 65.3322C197.172 67.0362 195.984 68.7162 194.568 70.3722C193.152 72.0042 191.556 73.5522 189.78 75.0162C188.028 76.4802 186.144 77.8002 184.128 78.9762C182.904 79.6962 181.584 80.3802 180.168 81.0282C178.752 81.6522 177.288 82.1922 175.776 82.6482C174.264 83.1282 172.752 83.4882 171.24 83.7282L167.532 77.9682ZM226.284 59.7162C226.284 60.2922 226.488 60.7842 226.896 61.1922C227.304 61.6002 227.796 61.8042 228.372 61.8042C228.948 61.8042 229.44 61.6002 229.848 61.1922C230.256 60.7842 230.46 60.2922 230.46 59.7162C230.46 59.1402 230.256 58.6482 229.848 58.2402C229.44 57.8322 228.948 57.6282 228.372 57.6282C227.796 57.6282 227.304 57.8322 226.896 58.2402C226.488 58.6482 226.284 59.1402 226.284 59.7162ZM223.548 59.7162C223.548 58.8042 223.764 57.9882 224.196 57.2682C224.628 56.5242 225.204 55.9362 225.924 55.5042C226.668 55.0722 227.484 54.8562 228.372 54.8562C229.284 54.8562 230.1 55.0722 230.82 55.5042C231.564 55.9362 232.152 56.5242 232.584 57.2682C233.016 57.9882 233.232 58.8042 233.232 59.7162C233.232 60.6042 233.016 61.4202 232.584 62.1642C232.152 62.8842 231.564 63.4602 230.82 63.8922C230.1 64.3242 229.284 64.5402 228.372 64.5402C227.484 64.5402 226.668 64.3242 225.924 63.8922C225.204 63.4602 224.628 62.8842 224.196 62.1642C223.764 61.4202 223.548 60.6042 223.548 59.7162ZM200.796 71.3082C201.372 70.8282 201.9 70.3722 202.38 69.9402C202.86 69.4842 203.4 68.9562 204 68.3562C204.408 67.9482 204.864 67.4562 205.368 66.8802C205.872 66.3042 206.424 65.6682 207.024 64.9722C207.624 64.2522 208.236 63.5082 208.86 62.7402C209.508 61.9482 210.156 61.1682 210.804 60.4002C211.932 59.0562 213.108 58.3242 214.332 58.2042C215.58 58.0602 216.948 58.6962 218.436 60.1122C219.3 60.9042 220.152 61.7322 220.992 62.5962C221.832 63.4362 222.648 64.2762 223.44 65.1162C224.256 65.9562 225.024 66.7722 225.744 67.5642C226.56 68.4282 227.484 69.4122 228.516 70.5162C229.548 71.6202 230.604 72.7482 231.684 73.9002C232.764 75.0522 233.76 76.1202 234.672 77.1042L229.848 82.2882C229.08 81.3042 228.252 80.2722 227.364 79.1922C226.5 78.0882 225.648 77.0202 224.808 75.9882C223.968 74.9322 223.212 74.0082 222.54 73.2162C222.012 72.5682 221.436 71.8962 220.812 71.2002C220.188 70.4802 219.576 69.7842 218.976 69.1122C218.376 68.4162 217.824 67.8042 217.32 67.2762C216.816 66.7242 216.42 66.2922 216.132 65.9802C215.604 65.4522 215.124 65.2002 214.692 65.2242C214.284 65.2482 213.852 65.5602 213.396 66.1602C213.084 66.5682 212.712 67.0722 212.28 67.6722C211.872 68.2482 211.44 68.8602 210.984 69.5082C210.528 70.1562 210.084 70.7922 209.652 71.4162C209.22 72.0402 208.836 72.5922 208.5 73.0722C208.068 73.6962 207.636 74.3322 207.204 74.9802C206.772 75.6282 206.388 76.2162 206.052 76.7442L200.796 71.3082ZM238.992 64.7202C239.472 64.7442 240.084 64.7802 240.828 64.8282C241.596 64.8762 242.376 64.9122 243.168 64.9362C243.96 64.9602 244.644 64.9722 245.22 64.9722C245.964 64.9722 246.792 64.9722 247.704 64.9722C248.64 64.9722 249.624 64.9722 250.656 64.9722C251.688 64.9722 252.732 64.9722 253.788 64.9722C254.868 64.9722 255.924 64.9722 256.956 64.9722C257.988 64.9722 258.972 64.9722 259.908 64.9722C260.844 64.9722 261.684 64.9722 262.428 64.9722C263.196 64.9722 263.832 64.9722 264.336 64.9722C265.152 64.9722 265.956 64.9362 266.748 64.8642C267.564 64.7922 268.236 64.7442 268.764 64.7202V71.5962C268.308 71.5722 267.636 71.5362 266.748 71.4882C265.884 71.4162 265.08 71.3802 264.336 71.3802C263.832 71.3802 263.196 71.3802 262.428 71.3802C261.66 71.3802 260.808 71.3802 259.872 71.3802C258.936 71.3802 257.952 71.3802 256.92 71.3802C255.888 71.3802 254.832 71.3802 253.752 71.3802C252.696 71.3802 251.652 71.3802 250.62 71.3802C249.588 71.3802 248.604 71.3802 247.668 71.3802C246.756 71.3802 245.94 71.3802 245.22 71.3802C244.188 71.3802 243.072 71.4042 241.872 71.4522C240.696 71.5002 239.736 71.5482 238.992 71.5962V64.7202ZM279.068 54.0642C279.692 54.4962 280.424 55.0362 281.264 55.6842C282.104 56.3082 282.968 56.9922 283.856 57.7362C284.768 58.4562 285.62 59.1762 286.412 59.8962C287.228 60.5922 287.9 61.2282 288.428 61.8042L283.964 66.3762C283.484 65.8482 282.872 65.2362 282.128 64.5402C281.384 63.8202 280.58 63.0882 279.716 62.3442C278.852 61.5762 278 60.8562 277.16 60.1842C276.32 59.5122 275.576 58.9482 274.928 58.4922L279.068 54.0642ZM273.74 77.9682C275.516 77.7282 277.196 77.3922 278.78 76.9602C280.388 76.5282 281.9 76.0242 283.316 75.4482C284.732 74.8722 286.028 74.2482 287.204 73.5762C289.364 72.3282 291.332 70.9122 293.108 69.3282C294.884 67.7202 296.432 66.0522 297.752 64.3242C299.096 62.5722 300.164 60.8562 300.956 59.1762L304.34 65.3322C303.38 67.0362 302.192 68.7162 300.776 70.3722C299.36 72.0042 297.764 73.5522 295.988 75.0162C294.236 76.4802 292.352 77.8002 290.336 78.9762C289.112 79.6962 287.792 80.3802 286.376 81.0282C284.96 81.6522 283.496 82.1922 281.984 82.6482C280.472 83.1282 278.96 83.4882 277.448 83.7282L273.74 77.9682ZM309.092 57.3762H339.26V76.0962H333.752V62.5242H314.348V76.2762H309.092V57.3762ZM311.792 69.2562H336.776V74.4042H311.792V69.2562ZM321.26 51.2202H326.804V85.4202H321.26V51.2202ZM356 59.4282C357.056 59.5242 358.112 59.6082 359.168 59.6802C360.248 59.7282 361.34 59.7522 362.444 59.7522C364.652 59.7522 366.86 59.6562 369.068 59.4642C371.276 59.2482 373.328 58.9362 375.224 58.5282V63.9642C373.352 64.2282 371.312 64.4322 369.104 64.5762C366.896 64.7202 364.688 64.8042 362.48 64.8282C361.4 64.8282 360.32 64.8162 359.24 64.7922C358.16 64.7442 357.092 64.6842 356.036 64.6122L356 59.4282ZM370.328 53.5602C370.28 53.8962 370.232 54.2802 370.184 54.7122C370.16 55.1442 370.136 55.5642 370.112 55.9722C370.088 56.3322 370.064 56.8362 370.04 57.4842C370.016 58.1322 369.992 58.8762 369.968 59.7162C369.968 60.5322 369.968 61.4202 369.968 62.3802C369.968 64.1802 369.992 65.8122 370.04 67.2762C370.112 68.7162 370.184 70.0242 370.256 71.2002C370.328 72.3522 370.388 73.4082 370.436 74.3682C370.508 75.3042 370.544 76.1802 370.544 76.9962C370.544 78.0522 370.4 79.0122 370.112 79.8762C369.824 80.7162 369.38 81.4362 368.78 82.0362C368.18 82.6602 367.4 83.1282 366.44 83.4402C365.504 83.7762 364.364 83.9442 363.02 83.9442C360.476 83.9442 358.436 83.4162 356.9 82.3602C355.364 81.3042 354.596 79.7562 354.596 77.7162C354.596 76.3722 354.944 75.2082 355.64 74.2242C356.336 73.2162 357.308 72.4482 358.556 71.9202C359.804 71.3682 361.268 71.0922 362.948 71.0922C364.748 71.0922 366.368 71.2842 367.808 71.6682C369.272 72.0522 370.592 72.5562 371.768 73.1802C372.944 73.8042 373.976 74.4762 374.864 75.1962C375.776 75.8922 376.568 76.5522 377.24 77.1762L374.288 81.7482C372.848 80.3802 371.468 79.2162 370.148 78.2562C368.828 77.2962 367.544 76.5642 366.296 76.0602C365.048 75.5562 363.788 75.3042 362.516 75.3042C361.676 75.3042 360.992 75.4602 360.464 75.7722C359.96 76.0842 359.708 76.5282 359.708 77.1042C359.708 77.7282 359.984 78.1722 360.536 78.4362C361.088 78.6762 361.748 78.7962 362.516 78.7962C363.092 78.7962 363.56 78.6882 363.92 78.4722C364.28 78.2562 364.532 77.9322 364.676 77.5002C364.844 77.0682 364.928 76.5282 364.928 75.8802C364.928 75.2802 364.904 74.5002 364.856 73.5402C364.808 72.5562 364.748 71.4642 364.676 70.2642C364.628 69.0642 364.58 67.7922 364.532 66.4482C364.484 65.1042 364.46 63.7482 364.46 62.3802C364.46 60.9402 364.448 59.6442 364.424 58.4922C364.424 57.3402 364.412 56.5242 364.388 56.0442C364.388 55.7802 364.352 55.3962 364.28 54.8922C364.232 54.3882 364.172 53.9442 364.1 53.5602H370.328ZM352.868 54.0282C352.772 54.2922 352.652 54.6762 352.508 55.1802C352.364 55.6842 352.232 56.1762 352.112 56.6562C352.016 57.1362 351.944 57.4842 351.896 57.7002C351.8 58.0842 351.68 58.6842 351.536 59.5002C351.416 60.3162 351.272 61.2642 351.104 62.3442C350.96 63.4002 350.816 64.4922 350.672 65.6202C350.528 66.7482 350.408 67.8162 350.312 68.8242C350.24 69.8082 350.204 70.6362 350.204 71.3082C350.204 71.3562 350.204 71.4882 350.204 71.7042C350.204 71.9202 350.216 72.0642 350.24 72.1362C350.384 71.7762 350.528 71.4522 350.672 71.1642C350.84 70.8762 350.996 70.5882 351.14 70.3002C351.308 70.0122 351.464 69.6882 351.608 69.3282L354.236 71.4522C353.876 72.5322 353.516 73.6362 353.156 74.7642C352.82 75.8682 352.52 76.9122 352.256 77.8962C351.992 78.8802 351.788 79.7202 351.644 80.4162C351.596 80.6562 351.548 80.9562 351.5 81.3162C351.452 81.6522 351.428 81.9162 351.428 82.1082C351.428 82.3002 351.428 82.5402 351.428 82.8282C351.428 83.1402 351.44 83.4402 351.464 83.7282L346.532 84.0882C346.148 82.8642 345.8 81.2442 345.488 79.2282C345.2 77.2122 345.056 74.9802 345.056 72.5322C345.056 71.1642 345.104 69.7482 345.2 68.2842C345.32 66.7962 345.452 65.3682 345.596 64.0002C345.764 62.6322 345.92 61.3962 346.064 60.2922C346.232 59.1642 346.364 58.2642 346.46 57.5922C346.532 57.0402 346.604 56.3922 346.676 55.6482C346.772 54.9042 346.832 54.1962 346.856 53.5242L352.868 54.0282Z" fill="#CC0033"/>
<path d="M359.652 194.698V214.275H352.434V201.656H347.033V194.698H359.652ZM359.652 211.315C360.517 212.907 361.746 214.084 363.338 214.846C364.965 215.573 366.991 215.988 369.414 216.092C371.041 216.162 372.98 216.213 375.23 216.248C377.48 216.248 379.834 216.231 382.292 216.196C384.785 216.162 387.225 216.092 389.614 215.988C392.037 215.885 394.218 215.746 396.157 215.573C395.88 216.127 395.586 216.854 395.274 217.754C394.962 218.619 394.668 219.502 394.391 220.402C394.149 221.337 393.958 222.168 393.82 222.895C392.124 222.999 390.202 223.068 388.056 223.103C385.944 223.172 383.763 223.206 381.513 223.206C379.263 223.241 377.082 223.241 374.97 223.206C372.858 223.172 370.972 223.12 369.31 223.051C366.368 222.912 363.875 222.445 361.832 221.649C359.79 220.852 358.007 219.468 356.484 217.494C355.515 218.464 354.493 219.416 353.42 220.35C352.347 221.32 351.153 222.358 349.837 223.466L346.358 215.937C347.431 215.279 348.556 214.569 349.733 213.807C350.91 213.011 352.035 212.18 353.109 211.315H359.652ZM347.033 180.21L352.797 175.952C353.766 176.714 354.77 177.579 355.809 178.549C356.847 179.483 357.817 180.435 358.717 181.405C359.617 182.339 360.344 183.222 360.898 184.053L354.666 188.83C354.216 187.999 353.559 187.082 352.693 186.078C351.862 185.039 350.945 184.018 349.941 183.014C348.937 181.976 347.968 181.041 347.033 180.21ZM359.963 187.896H395.066V192.984H359.963V187.896ZM370.868 198.125V199.891H383.85V198.125H370.868ZM363.91 194.127H391.327V203.889H363.91V194.127ZM374.814 200.358L381.098 202.539C379.817 204.27 378.259 205.897 376.424 207.42C374.589 208.944 372.616 210.311 370.504 211.523C368.427 212.7 366.333 213.704 364.221 214.534C363.944 214.05 363.546 213.461 363.027 212.769C362.508 212.077 361.971 211.384 361.417 210.692C360.898 209.999 360.413 209.446 359.963 209.03C361.936 208.442 363.858 207.715 365.727 206.849C367.631 205.984 369.362 204.997 370.92 203.889C372.512 202.781 373.811 201.604 374.814 200.358ZM389.25 201.137L394.495 204.772C393.11 205.637 391.76 206.468 390.445 207.265C389.164 208.026 388.004 208.667 386.966 209.186L383.071 206.174C383.729 205.759 384.438 205.257 385.2 204.668C385.962 204.08 386.706 203.474 387.433 202.851C388.16 202.228 388.766 201.656 389.25 201.137ZM380.007 202.591C380.942 203.803 382.154 204.893 383.642 205.863C385.131 206.797 386.862 207.593 388.835 208.251C390.808 208.874 392.937 209.342 395.222 209.653C394.53 210.311 393.785 211.194 392.989 212.302C392.193 213.409 391.57 214.396 391.12 215.261C388.627 214.708 386.342 213.929 384.265 212.925C382.188 211.886 380.353 210.623 378.761 209.134C377.169 207.645 375.801 205.966 374.659 204.097L380.007 202.591ZM384.11 179.899V182.755H386.239V179.899H384.11ZM376.424 179.899V182.755H378.501V179.899H376.424ZM368.739 179.899V182.755H370.816V179.899H368.739ZM362.456 175.848H392.885V186.805H362.456V175.848ZM373.309 201.656H380.475V215.469H373.309V201.656ZM425.652 196.827H433.493V213.652C433.493 214.69 433.579 215.348 433.752 215.625C433.96 215.867 434.445 215.988 435.206 215.988C435.38 215.988 435.622 215.988 435.933 215.988C436.245 215.988 436.574 215.988 436.92 215.988C437.301 215.988 437.647 215.988 437.959 215.988C438.305 215.988 438.582 215.988 438.789 215.988C439.309 215.988 439.69 215.781 439.932 215.365C440.209 214.95 440.417 214.136 440.555 212.925C440.693 211.713 440.797 209.896 440.867 207.472C441.42 207.888 442.113 208.303 442.944 208.719C443.775 209.134 444.623 209.515 445.488 209.861C446.388 210.173 447.167 210.415 447.825 210.588C447.583 213.773 447.167 216.283 446.579 218.117C446.025 219.918 445.177 221.181 444.034 221.908C442.926 222.67 441.42 223.051 439.516 223.051C439.205 223.051 438.789 223.051 438.27 223.051C437.786 223.051 437.266 223.051 436.712 223.051C436.158 223.051 435.622 223.051 435.103 223.051C434.618 223.051 434.22 223.051 433.908 223.051C431.727 223.051 430.031 222.756 428.819 222.168C427.642 221.579 426.811 220.593 426.327 219.208C425.877 217.858 425.652 216.023 425.652 213.704V196.827ZM399.74 191.894H446.734V199.216H399.74V191.894ZM404.569 178.029H441.749V185.299H404.569V178.029ZM410.852 197.71H419.005C418.797 200.549 418.451 203.249 417.966 205.811C417.516 208.338 416.755 210.709 415.682 212.925C414.608 215.14 413.051 217.165 411.008 219C408.966 220.835 406.265 222.427 402.907 223.778C402.492 222.808 401.834 221.718 400.934 220.506C400.034 219.295 399.151 218.325 398.286 217.598C401.125 216.56 403.357 215.348 404.984 213.963C406.612 212.544 407.823 211.003 408.619 209.342C409.416 207.645 409.952 205.828 410.229 203.889C410.506 201.916 410.714 199.856 410.852 197.71Z" fill="#CC0033"/>
<path d="M34.658 191.271H60.6219V197.866H34.658V191.271ZM34.1907 215.625H60.4142V222.22H34.1907V215.625ZM30.8673 202.279H64.7242V224.037H56.935V208.874H38.293V224.037H30.8673V202.279ZM47.3284 182.028C45.909 184.001 44.1435 186.009 42.0318 188.051C39.92 190.094 37.5833 192.05 35.0215 193.919C32.4597 195.789 29.7768 197.468 26.9727 198.956C26.6611 198.368 26.2284 197.693 25.6745 196.931C25.1552 196.169 24.584 195.425 23.9609 194.698C23.3724 193.971 22.8012 193.348 22.2473 192.829C25.2245 191.409 28.0632 189.678 30.7634 187.636C33.4637 185.593 35.8697 183.43 37.9814 181.145C40.1277 178.86 41.8241 176.696 43.0703 174.654H50.9633C52.3827 176.662 53.9232 178.566 55.5849 180.366C57.2812 182.132 59.0641 183.776 60.9335 185.299C62.8375 186.788 64.7934 188.121 66.8013 189.298C68.8438 190.44 70.9036 191.409 72.9807 192.206C72.046 193.175 71.1633 194.265 70.3324 195.477C69.5016 196.654 68.74 197.831 68.0476 199.008C66.0743 197.969 64.0838 196.792 62.0759 195.477C60.068 194.127 58.1467 192.707 56.3119 191.219C54.4771 189.696 52.7808 188.155 51.223 186.597C49.6998 185.039 48.4016 183.516 47.3284 182.028ZM96.2444 191.894H124.545V199.372H96.2444V191.894ZM106.474 174.862H114.159V223.933H106.474V174.862ZM77.3946 190.648H94.4788V196.256H77.3946V190.648ZM77.7062 176.108H94.5827V181.716H77.7062V176.108ZM77.3946 197.814H94.4788V203.422H77.3946V197.814ZM74.7982 183.222H96.5559V189.09H74.7982V183.222ZM80.8218 205.136H94.323V221.285H80.8218V215.417H87.7282V211.003H80.8218V205.136ZM77.1869 205.136H83.6778V223.154H77.1869V205.136Z" fill="#CC0033"/>
<path d="M151.308 222.966V129.441C150.245 130.021 149.037 130.601 147.683 131.181C146.33 131.761 144.88 132.389 143.333 133.066C141.883 133.646 140.433 134.226 138.983 134.806C137.63 135.386 136.373 135.966 135.213 136.546V118.566C136.277 117.986 137.775 117.212 139.708 116.246C141.642 115.182 143.72 114.022 145.943 112.766C148.167 111.509 150.245 110.252 152.178 108.996C154.112 107.642 155.562 106.482 156.528 105.516H175.523V222.966H151.308ZM199.849 222.966V129.441C198.786 130.021 197.578 130.601 196.224 131.181C194.871 131.761 193.421 132.389 191.874 133.066C190.424 133.646 188.974 134.226 187.524 134.806C186.171 135.386 184.914 135.966 183.754 136.546V118.566C184.818 117.986 186.316 117.212 188.249 116.246C190.183 115.182 192.261 114.022 194.484 112.766C196.708 111.509 198.786 110.252 200.719 108.996C202.653 107.642 204.103 106.482 205.069 105.516H224.064V222.966H199.849Z" fill="#CC0033"/>
<path d="M258.209 194.534C254.609 194.534 251.376 193.601 248.509 191.734C245.709 189.801 243.476 187.068 241.809 183.534C240.209 179.934 239.409 175.668 239.409 170.734C239.409 165.734 240.209 161.501 241.809 158.034C243.476 154.501 245.709 151.834 248.509 150.034C251.376 148.168 254.609 147.234 258.209 147.234C261.876 147.234 265.109 148.168 267.909 150.034C270.776 151.834 273.009 154.501 274.609 158.034C276.276 161.501 277.109 165.734 277.109 170.734C277.109 175.668 276.276 179.934 274.609 183.534C273.009 187.068 270.776 189.801 267.909 191.734C265.109 193.601 261.876 194.534 258.209 194.534ZM258.209 184.734C259.943 184.734 261.443 183.701 262.709 181.634C264.043 179.568 264.709 175.934 264.709 170.734C264.709 165.534 264.043 161.968 262.709 160.034C261.443 158.034 259.943 157.034 258.209 157.034C256.476 157.034 254.943 158.034 253.609 160.034C252.343 161.968 251.709 165.534 251.709 170.734C251.709 175.934 252.343 179.568 253.609 181.634C254.943 183.701 256.476 184.734 258.209 184.734ZM260.809 224.434L300.909 147.234H311.109L271.009 224.434H260.809ZM313.609 224.434C310.009 224.434 306.776 223.501 303.909 221.634C301.109 219.701 298.876 216.968 297.209 213.434C295.609 209.834 294.809 205.568 294.809 200.634C294.809 195.634 295.609 191.401 297.209 187.934C298.876 184.401 301.109 181.701 303.909 179.834C306.776 177.968 310.009 177.034 313.609 177.034C317.209 177.034 320.409 177.968 323.209 179.834C326.076 181.701 328.309 184.401 329.909 187.934C331.576 191.401 332.409 195.634 332.409 200.634C332.409 205.568 331.576 209.834 329.909 213.434C328.309 216.968 326.076 219.701 323.209 221.634C320.409 223.501 317.209 224.434 313.609 224.434ZM313.609 214.534C315.343 214.534 316.843 213.534 318.109 211.534C319.443 209.468 320.109 205.834 320.109 200.634C320.109 195.368 319.443 191.768 318.109 189.834C316.843 187.901 315.343 186.934 313.609 186.934C311.876 186.934 310.343 187.901 309.009 189.834C307.743 191.768 307.109 195.368 307.109 200.634C307.109 205.834 307.743 209.468 309.009 211.534C310.343 213.534 311.876 214.534 313.609 214.534Z" fill="#CC0033"/>
</svg>
