<svg width="422" height="218" viewBox="0 0 422 218" fill="none" xmlns="http://www.w3.org/2000/svg">
<path d="M329.464 52.3879C330.52 52.4839 331.576 52.5679 332.632 52.6399C333.712 52.6879 334.804 52.7119 335.908 52.7119C338.116 52.7119 340.324 52.6159 342.532 52.4239C344.74 52.2079 346.792 51.8959 348.688 51.4879V56.9239C346.816 57.1879 344.776 57.3919 342.568 57.5359C340.36 57.6799 338.152 57.7639 335.944 57.7879C334.864 57.7879 333.784 57.7759 332.704 57.7519C331.624 57.7039 330.556 57.6439 329.5 57.5719L329.464 52.3879ZM343.792 46.5199C343.744 46.8559 343.696 47.2399 343.648 47.6719C343.624 48.1039 343.6 48.5239 343.576 48.9319C343.552 49.2919 343.528 49.7959 343.504 50.4439C343.48 51.0919 343.456 51.8359 343.432 52.6759C343.432 53.4919 343.432 54.3799 343.432 55.3399C343.432 57.1399 343.456 58.7719 343.504 60.2359C343.576 61.6759 343.648 62.9839 343.72 64.1599C343.792 65.3119 343.852 66.3679 343.9 67.3279C343.972 68.2639 344.008 69.1399 344.008 69.9559C344.008 71.0119 343.864 71.9719 343.576 72.8359C343.288 73.6759 342.844 74.3959 342.244 74.9959C341.644 75.6199 340.864 76.0879 339.904 76.3999C338.968 76.7359 337.828 76.9039 336.484 76.9039C333.94 76.9039 331.9 76.3759 330.364 75.3199C328.828 74.2639 328.06 72.7159 328.06 70.6759C328.06 69.3319 328.408 68.1679 329.104 67.1839C329.8 66.1759 330.772 65.4079 332.02 64.8799C333.268 64.3279 334.732 64.0519 336.412 64.0519C338.212 64.0519 339.832 64.2439 341.272 64.6279C342.736 65.0119 344.056 65.5159 345.232 66.1399C346.408 66.7639 347.44 67.4359 348.328 68.1559C349.24 68.8519 350.032 69.5119 350.704 70.1359L347.752 74.7079C346.312 73.3399 344.932 72.1759 343.612 71.2159C342.292 70.2559 341.008 69.5239 339.76 69.0199C338.512 68.5159 337.252 68.2639 335.98 68.2639C335.14 68.2639 334.456 68.4199 333.928 68.7319C333.424 69.0439 333.172 69.4879 333.172 70.0639C333.172 70.6879 333.448 71.1319 334 71.3959C334.552 71.6359 335.212 71.7559 335.98 71.7559C336.556 71.7559 337.024 71.6479 337.384 71.4319C337.744 71.2159 337.996 70.8919 338.14 70.4599C338.308 70.0279 338.392 69.4879 338.392 68.8399C338.392 68.2399 338.368 67.4599 338.32 66.4999C338.272 65.5159 338.212 64.4239 338.14 63.2239C338.092 62.0239 338.044 60.7519 337.996 59.4079C337.948 58.0639 337.924 56.7079 337.924 55.3399C337.924 53.8999 337.912 52.6039 337.888 51.4519C337.888 50.2999 337.876 49.4839 337.852 49.0039C337.852 48.7399 337.816 48.3559 337.744 47.8519C337.696 47.3479 337.636 46.9039 337.564 46.5199H343.792ZM326.332 46.9879C326.236 47.2519 326.116 47.6359 325.972 48.1399C325.828 48.6439 325.696 49.1359 325.576 49.6159C325.48 50.0959 325.408 50.4439 325.36 50.6599C325.264 51.0439 325.144 51.6439 325 52.4599C324.88 53.2759 324.736 54.2239 324.568 55.3039C324.424 56.3599 324.28 57.4519 324.136 58.5799C323.992 59.7079 323.872 60.7759 323.776 61.7839C323.704 62.7679 323.668 63.5959 323.668 64.2679C323.668 64.3159 323.668 64.4479 323.668 64.6639C323.668 64.8799 323.68 65.0239 323.704 65.0959C323.848 64.7359 323.992 64.4119 324.136 64.1239C324.304 63.8359 324.46 63.5479 324.604 63.2599C324.772 62.9719 324.928 62.6479 325.072 62.2879L327.7 64.4119C327.34 65.4919 326.98 66.5959 326.62 67.7239C326.284 68.8279 325.984 69.8719 325.72 70.8559C325.456 71.8399 325.252 72.6799 325.108 73.3759C325.06 73.6159 325.012 73.9159 324.964 74.2759C324.916 74.6119 324.892 74.8759 324.892 75.0679C324.892 75.2599 324.892 75.4999 324.892 75.7879C324.892 76.0999 324.904 76.3999 324.928 76.6879L319.996 77.0479C319.612 75.8239 319.264 74.2039 318.952 72.1879C318.664 70.1719 318.52 67.9399 318.52 65.4919C318.52 64.1239 318.568 62.7079 318.664 61.2439C318.784 59.7559 318.916 58.3279 319.06 56.9599C319.228 55.5919 319.384 54.3559 319.528 53.2519C319.696 52.1239 319.828 51.2239 319.924 50.5519C319.996 49.9999 320.068 49.3519 320.14 48.6079C320.236 47.8639 320.296 47.1559 320.32 46.4839L326.332 46.9879Z" fill="#CC0033"/>
<path d="M282.555 50.3362H312.723V69.0562H307.215V55.4842H287.811V69.2362H282.555V50.3362ZM285.255 62.2162H310.239V67.3642H285.255V62.2162ZM294.723 44.1802H300.267V78.3802H294.723V44.1802Z" fill="#CC0033"/>
<path d="M252.531 47.0239C253.155 47.4559 253.887 47.9959 254.727 48.6439C255.567 49.2679 256.431 49.9519 257.319 50.6959C258.231 51.4159 259.083 52.1359 259.875 52.8559C260.691 53.5519 261.363 54.1879 261.891 54.7639L257.427 59.3359C256.947 58.8079 256.335 58.1959 255.591 57.4999C254.847 56.7799 254.043 56.0479 253.179 55.3039C252.315 54.5359 251.463 53.8159 250.623 53.1439C249.783 52.4719 249.039 51.9079 248.391 51.4519L252.531 47.0239ZM247.203 70.9279C248.979 70.6879 250.659 70.3519 252.243 69.9199C253.851 69.4879 255.363 68.9839 256.779 68.4079C258.195 67.8319 259.491 67.2079 260.667 66.5359C262.827 65.2879 264.795 63.8719 266.571 62.2879C268.347 60.6799 269.895 59.0119 271.215 57.2839C272.559 55.5319 273.627 53.8159 274.419 52.1359L277.803 58.2919C276.843 59.9959 275.655 61.6759 274.239 63.3319C272.823 64.9639 271.227 66.5119 269.451 67.9759C267.699 69.4399 265.815 70.7599 263.799 71.9359C262.575 72.6559 261.255 73.3399 259.839 73.9879C258.423 74.6119 256.959 75.1519 255.447 75.6079C253.935 76.0879 252.423 76.4479 250.911 76.6879L247.203 70.9279Z" fill="#CC0033"/>
<path d="M212.457 57.6802C212.937 57.7042 213.549 57.7402 214.293 57.7882C215.061 57.8362 215.841 57.8722 216.633 57.8962C217.425 57.9202 218.109 57.9322 218.685 57.9322C219.429 57.9322 220.257 57.9322 221.169 57.9322C222.105 57.9322 223.089 57.9322 224.121 57.9322C225.153 57.9322 226.197 57.9322 227.253 57.9322C228.333 57.9322 229.389 57.9322 230.421 57.9322C231.453 57.9322 232.437 57.9322 233.373 57.9322C234.309 57.9322 235.149 57.9322 235.893 57.9322C236.661 57.9322 237.297 57.9322 237.801 57.9322C238.617 57.9322 239.421 57.8962 240.213 57.8242C241.029 57.7522 241.701 57.7042 242.229 57.6802V64.5562C241.773 64.5322 241.101 64.4962 240.213 64.4482C239.349 64.3762 238.545 64.3402 237.801 64.3402C237.297 64.3402 236.661 64.3402 235.893 64.3402C235.125 64.3402 234.273 64.3402 233.337 64.3402C232.401 64.3402 231.417 64.3402 230.385 64.3402C229.353 64.3402 228.297 64.3402 227.217 64.3402C226.161 64.3402 225.117 64.3402 224.085 64.3402C223.053 64.3402 222.069 64.3402 221.133 64.3402C220.221 64.3402 219.405 64.3402 218.685 64.3402C217.653 64.3402 216.537 64.3642 215.337 64.4122C214.161 64.4602 213.201 64.5082 212.457 64.5562V57.6802Z" fill="#CC0033"/>
<path d="M199.75 52.6759C199.75 53.2519 199.954 53.7439 200.362 54.1519C200.77 54.5599 201.262 54.7639 201.838 54.7639C202.414 54.7639 202.906 54.5599 203.314 54.1519C203.722 53.7439 203.926 53.2519 203.926 52.6759C203.926 52.0999 203.722 51.6079 203.314 51.1999C202.906 50.7919 202.414 50.5879 201.838 50.5879C201.262 50.5879 200.77 50.7919 200.362 51.1999C199.954 51.6079 199.75 52.0999 199.75 52.6759ZM197.014 52.6759C197.014 51.7639 197.23 50.9479 197.662 50.2279C198.094 49.4839 198.67 48.8959 199.39 48.4639C200.134 48.0319 200.95 47.8159 201.838 47.8159C202.75 47.8159 203.566 48.0319 204.286 48.4639C205.03 48.8959 205.618 49.4839 206.05 50.2279C206.482 50.9479 206.698 51.7639 206.698 52.6759C206.698 53.5639 206.482 54.3799 206.05 55.1239C205.618 55.8439 205.03 56.4199 204.286 56.8519C203.566 57.2839 202.75 57.4999 201.838 57.4999C200.95 57.4999 200.134 57.2839 199.39 56.8519C198.67 56.4199 198.094 55.8439 197.662 55.1239C197.23 54.3799 197.014 53.5639 197.014 52.6759ZM174.262 64.2679C174.838 63.7879 175.366 63.3319 175.846 62.8999C176.326 62.4439 176.866 61.9159 177.466 61.3159C177.874 60.9079 178.33 60.4159 178.834 59.8399C179.338 59.2639 179.89 58.6279 180.49 57.9319C181.09 57.2119 181.702 56.4679 182.326 55.6999C182.974 54.9079 183.622 54.1279 184.27 53.3599C185.398 52.0159 186.574 51.2839 187.798 51.1639C189.046 51.0199 190.414 51.6559 191.902 53.0719C192.766 53.8639 193.618 54.6919 194.458 55.5559C195.298 56.3959 196.114 57.2359 196.906 58.0759C197.722 58.9159 198.49 59.7319 199.21 60.5239C200.026 61.3879 200.95 62.3719 201.982 63.4759C203.014 64.5799 204.07 65.7079 205.15 66.8599C206.23 68.0119 207.226 69.0799 208.138 70.0639L203.314 75.2479C202.546 74.2639 201.718 73.2319 200.83 72.1519C199.966 71.0479 199.114 69.9799 198.274 68.9479C197.434 67.8919 196.678 66.9679 196.006 66.1759C195.478 65.5279 194.902 64.8559 194.278 64.1599C193.654 63.4399 193.042 62.7439 192.442 62.0719C191.842 61.3759 191.29 60.7639 190.786 60.2359C190.282 59.6839 189.886 59.2519 189.598 58.9399C189.07 58.4119 188.59 58.1599 188.158 58.1839C187.75 58.2079 187.318 58.5199 186.862 59.1199C186.55 59.5279 186.178 60.0319 185.746 60.6319C185.338 61.2079 184.906 61.8199 184.45 62.4679C183.994 63.1159 183.55 63.7519 183.118 64.3759C182.686 64.9999 182.302 65.5519 181.966 66.0319C181.534 66.6559 181.102 67.2919 180.67 67.9399C180.238 68.5879 179.854 69.1759 179.518 69.7039L174.262 64.2679Z" fill="#CC0033"/>
<path d="M146.324 47.0239C146.948 47.4559 147.68 47.9959 148.52 48.6439C149.36 49.2679 150.224 49.9519 151.112 50.6959C152.024 51.4159 152.876 52.1359 153.668 52.8559C154.484 53.5519 155.156 54.1879 155.684 54.7639L151.22 59.3359C150.74 58.8079 150.128 58.1959 149.384 57.4999C148.64 56.7799 147.836 56.0479 146.972 55.3039C146.108 54.5359 145.256 53.8159 144.416 53.1439C143.576 52.4719 142.832 51.9079 142.184 51.4519L146.324 47.0239ZM140.996 70.9279C142.772 70.6879 144.452 70.3519 146.036 69.9199C147.644 69.4879 149.156 68.9839 150.572 68.4079C151.988 67.8319 153.284 67.2079 154.46 66.5359C156.62 65.2879 158.588 63.8719 160.364 62.2879C162.14 60.6799 163.688 59.0119 165.008 57.2839C166.352 55.5319 167.42 53.8159 168.212 52.1359L171.596 58.2919C170.636 59.9959 169.448 61.6759 168.032 63.3319C166.616 64.9639 165.02 66.5119 163.244 67.9759C161.492 69.4399 159.608 70.7599 157.592 71.9359C156.368 72.6559 155.048 73.3399 153.632 73.9879C152.216 74.6119 150.752 75.1519 149.24 75.6079C147.728 76.0879 146.216 76.4479 144.704 76.6879L140.996 70.9279Z" fill="#CC0033"/>
<path d="M116.082 51.6318C116.154 52.1118 116.25 52.6038 116.37 53.1078C116.49 53.6118 116.598 54.1038 116.694 54.5838C116.934 55.4238 117.21 56.4198 117.522 57.5718C117.834 58.6998 118.17 59.9118 118.53 61.2078C118.89 62.5038 119.25 63.8118 119.61 65.1318C119.97 66.4278 120.318 67.6758 120.654 68.8758C120.99 70.0518 121.29 71.1078 121.554 72.0438C121.818 72.9798 122.034 73.7238 122.202 74.2758C122.274 74.4678 122.37 74.7678 122.49 75.1758C122.61 75.6078 122.742 76.0398 122.886 76.4718C123.03 76.9038 123.15 77.2518 123.246 77.5158L117.342 78.9558C117.27 78.4278 117.174 77.8518 117.054 77.2278C116.934 76.6038 116.79 76.0278 116.622 75.4998C116.454 74.9238 116.238 74.1438 115.974 73.1598C115.734 72.1758 115.446 71.0718 115.11 69.8478C114.798 68.5998 114.462 67.3158 114.102 65.9958C113.766 64.6518 113.43 63.3438 113.094 62.0718C112.758 60.7758 112.434 59.5878 112.122 58.5078C111.834 57.4038 111.582 56.4918 111.366 55.7718C111.246 55.2918 111.078 54.8238 110.862 54.3678C110.67 53.8878 110.466 53.4318 110.25 52.9998L116.082 51.6318ZM133.362 57.5358C132.978 58.3278 132.486 59.2518 131.886 60.3078C131.286 61.3398 130.626 62.4078 129.906 63.5118C129.186 64.5918 128.466 65.6358 127.746 66.6438C127.026 67.6278 126.342 68.4798 125.694 69.1998L120.906 66.8238C121.458 66.3198 122.046 65.7078 122.67 64.9878C123.318 64.2438 123.918 63.4998 124.47 62.7558C125.046 62.0118 125.466 61.3878 125.73 60.8838C125.442 60.9318 124.938 61.0278 124.218 61.1718C123.522 61.3158 122.682 61.4958 121.698 61.7118C120.738 61.9038 119.682 62.1198 118.53 62.3598C117.402 62.5998 116.262 62.8518 115.11 63.1158C113.958 63.3558 112.854 63.5958 111.798 63.8358C110.742 64.0518 109.806 64.2558 108.99 64.4478C108.174 64.6158 107.538 64.7478 107.082 64.8438L105.75 59.6598C106.35 59.6118 106.926 59.5518 107.478 59.4798C108.03 59.4078 108.618 59.3238 109.242 59.2278C109.53 59.1798 110.034 59.0958 110.754 58.9758C111.474 58.8558 112.326 58.6998 113.31 58.5078C114.294 58.3158 115.35 58.1118 116.478 57.8958C117.63 57.6798 118.782 57.4638 119.934 57.2478C121.086 57.0318 122.178 56.8278 123.21 56.6358C124.266 56.4198 125.19 56.2398 125.982 56.0958C126.774 55.9278 127.374 55.7958 127.782 55.6998C128.142 55.6278 128.502 55.5318 128.862 55.4118C129.246 55.2918 129.57 55.1718 129.834 55.0518L133.362 57.5358Z" fill="#CC0033"/>
<path d="M77.9253 49.1118C77.8053 48.5598 77.6733 48.0558 77.5293 47.5998C77.4093 47.1438 77.2773 46.6878 77.1333 46.2318L83.2893 45.2598C83.3373 45.6198 83.3853 46.0878 83.4333 46.6638C83.5053 47.2398 83.5893 47.7558 83.6853 48.2118C83.7573 48.6198 83.8653 49.2918 84.0093 50.2278C84.1773 51.1398 84.3813 52.2438 84.6213 53.5398C84.8613 54.8118 85.1253 56.1918 85.4133 57.6798C85.7013 59.1438 85.9893 60.6318 86.2773 62.1438C86.5653 63.6558 86.8413 65.1078 87.1053 66.4998C87.3693 67.8678 87.6093 69.1038 87.8253 70.2078C88.0413 71.2878 88.2093 72.1398 88.3293 72.7638C88.4493 73.2918 88.5933 73.8798 88.7613 74.5278C88.9293 75.1758 89.0973 75.8118 89.2653 76.4358L83.0013 77.5158C82.9053 76.8198 82.8333 76.1478 82.7853 75.4998C82.7373 74.8518 82.6533 74.2638 82.5333 73.7358C82.4373 73.1838 82.2933 72.3918 82.1013 71.3598C81.9333 70.3278 81.7173 69.1398 81.4533 67.7958C81.2133 66.4518 80.9493 65.0358 80.6613 63.5478C80.3733 62.0598 80.0853 60.5718 79.7973 59.0838C79.5333 57.5718 79.2693 56.1558 79.0053 54.8358C78.7653 53.5158 78.5493 52.3638 78.3573 51.3798C78.1653 50.3718 78.0213 49.6158 77.9253 49.1118ZM68.2773 53.3598C68.9013 53.3118 69.5013 53.2758 70.0773 53.2518C70.6773 53.2038 71.2533 53.1438 71.8053 53.0718C72.3093 52.9998 73.0413 52.9038 74.0013 52.7838C74.9613 52.6398 76.0533 52.4838 77.2773 52.3158C78.5253 52.1238 79.8093 51.9318 81.1293 51.7398C82.4733 51.5238 83.7693 51.3198 85.0173 51.1278C86.2653 50.9118 87.3693 50.7198 88.3293 50.5518C89.3133 50.3838 90.0693 50.2518 90.5973 50.1558C91.1973 50.0358 91.8573 49.9038 92.5773 49.7598C93.2973 49.5918 93.9093 49.4358 94.4133 49.2918L95.4573 54.9798C95.0013 55.0038 94.4013 55.0758 93.6573 55.1958C92.9373 55.2918 92.2893 55.3758 91.7133 55.4478C91.0653 55.5438 90.2133 55.6758 89.1573 55.8438C88.1013 56.0118 86.9373 56.2038 85.6653 56.4198C84.3933 56.6118 83.0973 56.8158 81.7773 57.0318C80.4573 57.2478 79.1973 57.4518 77.9973 57.6438C76.8213 57.8358 75.7893 58.0038 74.9013 58.1478C74.0133 58.2918 73.3653 58.3998 72.9573 58.4718C72.3573 58.5918 71.7813 58.7118 71.2293 58.8318C70.7013 58.9518 70.1013 59.1078 69.4293 59.2998L68.2773 53.3598ZM68.3853 64.0158C68.8893 63.9918 69.5373 63.9438 70.3293 63.8718C71.1213 63.7758 71.8173 63.6798 72.4173 63.5838C73.0653 63.4878 73.9293 63.3558 75.0093 63.1878C76.0893 63.0198 77.3013 62.8278 78.6453 62.6118C79.9893 62.3958 81.3693 62.1798 82.7853 61.9638C84.2253 61.7238 85.6173 61.4958 86.9613 61.2798C88.3053 61.0398 89.5293 60.8238 90.6333 60.6318C91.7613 60.4398 92.6613 60.2838 93.3333 60.1638C94.0293 60.0198 94.7253 59.8638 95.4213 59.6958C96.1413 59.5278 96.7653 59.3718 97.2933 59.2278L98.4453 64.9518C97.9173 64.9758 97.2693 65.0478 96.5013 65.1678C95.7573 65.2878 95.0373 65.4078 94.3413 65.5278C93.5973 65.6478 92.6493 65.8038 91.4973 65.9958C90.3693 66.1638 89.1213 66.3678 87.7533 66.6078C86.3853 66.8238 84.9813 67.0518 83.5413 67.2918C82.1253 67.5078 80.7573 67.7358 79.4373 67.9758C78.1173 68.1918 76.9293 68.3958 75.8733 68.5878C74.8413 68.7558 74.0253 68.8998 73.4253 69.0198C72.6093 69.1638 71.8653 69.2958 71.1933 69.4158C70.5453 69.5358 70.0173 69.6558 69.6093 69.7758L68.3853 64.0158Z" fill="#CC0033"/>
<path d="M366.469 2.12376C366.349 2.96376 366.241 3.88776 366.145 4.89576C366.049 5.90376 365.977 6.80376 365.929 7.59576C365.881 8.53176 365.833 9.68376 365.785 11.0518C365.737 12.3958 365.689 13.8118 365.641 15.2998C365.593 16.7638 365.557 18.1918 365.533 19.5838C365.509 20.9518 365.497 22.1278 365.497 23.1118C365.497 24.2638 365.689 25.1758 366.073 25.8478C366.481 26.4958 367.021 26.9638 367.693 27.2518C368.365 27.5158 369.109 27.6478 369.925 27.6478C371.317 27.6478 372.601 27.4558 373.777 27.0718C374.953 26.6878 376.033 26.1718 377.017 25.5238C378.001 24.8518 378.901 24.0718 379.717 23.1838C380.533 22.2958 381.265 21.3478 381.913 20.3398L385.873 25.1998C385.321 26.0638 384.565 26.9878 383.605 27.9718C382.669 28.9318 381.529 29.8438 380.185 30.7078C378.865 31.5718 377.341 32.2678 375.613 32.7958C373.885 33.3478 371.977 33.6238 369.889 33.6238C367.801 33.6238 365.989 33.2998 364.453 32.6518C362.917 32.0038 361.729 31.0078 360.889 29.6638C360.073 28.2958 359.665 26.5678 359.665 24.4798C359.665 23.5678 359.677 22.4998 359.701 21.2758C359.725 20.0278 359.749 18.7318 359.773 17.3878C359.821 16.0198 359.857 14.6878 359.881 13.3918C359.905 12.0958 359.929 10.9438 359.953 9.93576C359.977 8.90376 359.989 8.12376 359.989 7.59576C359.989 6.61176 359.941 5.65176 359.845 4.71576C359.773 3.75576 359.641 2.86776 359.449 2.05176L366.469 2.12376Z" fill="#CC0033"/>
<path d="M334.067 7.84818H351.419V12.8522H334.067V7.84818ZM317.939 5.50818H335.291V10.3322H317.939V5.50818ZM342.635 0.180176H347.819V28.0442C347.819 29.4362 347.675 30.5282 347.387 31.3202C347.123 32.1362 346.607 32.7722 345.839 33.2282C345.071 33.6842 344.111 33.9842 342.959 34.1282C341.807 34.2722 340.487 34.3442 338.999 34.3442C338.951 33.8162 338.843 33.2162 338.675 32.5442C338.507 31.8722 338.303 31.2002 338.063 30.5282C337.847 29.8322 337.619 29.2202 337.379 28.6922C338.315 28.7402 339.203 28.7762 340.043 28.8002C340.907 28.8002 341.495 28.8002 341.807 28.8002C342.119 28.8002 342.335 28.7522 342.455 28.6562C342.575 28.5362 342.635 28.3202 342.635 28.0082V0.180176ZM333.239 17.2442L337.415 15.1922C337.967 15.9602 338.507 16.7882 339.035 17.6762C339.587 18.5642 340.067 19.4402 340.475 20.3042C340.883 21.1682 341.183 21.9602 341.375 22.6802L336.875 24.9842C336.707 24.2882 336.431 23.4962 336.047 22.6082C335.687 21.6962 335.255 20.7722 334.751 19.8362C334.271 18.9002 333.767 18.0362 333.239 17.2442ZM318.371 15.3722L322.043 12.3842C323.099 13.5122 324.191 14.7242 325.319 16.0202C326.447 17.3162 327.539 18.6362 328.595 19.9802C329.675 21.3002 330.635 22.5962 331.475 23.8682C332.339 25.1402 333.035 26.3282 333.563 27.4322L329.387 30.9962C328.931 29.8922 328.295 28.6922 327.479 27.3962C326.663 26.0762 325.751 24.7202 324.743 23.3282C323.735 21.9362 322.679 20.5562 321.575 19.1882C320.495 17.8202 319.427 16.5482 318.371 15.3722ZM323.915 0.216175H328.919V8.49618H323.915V0.216175ZM327.731 10.9802L332.807 11.7002C332.207 15.1082 331.367 18.2282 330.287 21.0602C329.207 23.8682 327.851 26.3642 326.219 28.5482C324.587 30.7322 322.631 32.5922 320.351 34.1282C320.135 33.7682 319.811 33.3242 319.379 32.7962C318.971 32.2922 318.539 31.7762 318.083 31.2482C317.627 30.7442 317.219 30.3362 316.859 30.0242C318.971 28.8002 320.747 27.2642 322.187 25.4162C323.651 23.5682 324.827 21.4322 325.715 19.0082C326.627 16.5842 327.299 13.9082 327.731 10.9802Z" fill="#CC0033"/>
<path d="M296.411 5.2918C297.587 5.4358 298.883 5.5438 300.299 5.6158C301.715 5.6638 303.143 5.6758 304.583 5.6518C306.047 5.6278 307.439 5.5798 308.759 5.5078C310.103 5.4358 311.279 5.3518 312.287 5.2558V10.8718C311.111 10.9678 309.851 11.0518 308.507 11.1238C307.163 11.1718 305.795 11.1958 304.403 11.1958C303.011 11.1958 301.631 11.1718 300.263 11.1238C298.919 11.0518 297.647 10.9678 296.447 10.8718L296.411 5.2918ZM300.119 21.0598C299.999 21.6358 299.903 22.1398 299.831 22.5718C299.783 23.0038 299.759 23.4598 299.759 23.9398C299.759 24.3238 299.855 24.6598 300.047 24.9478C300.239 25.2358 300.515 25.4638 300.875 25.6318C301.259 25.7998 301.727 25.9318 302.279 26.0278C302.831 26.0998 303.479 26.1358 304.223 26.1358C305.831 26.1358 307.331 26.0638 308.723 25.9198C310.139 25.7518 311.663 25.4998 313.295 25.1638L313.403 31.0678C312.227 31.2838 310.883 31.4518 309.371 31.5718C307.883 31.6918 306.071 31.7518 303.935 31.7518C300.791 31.7518 298.427 31.1998 296.843 30.0958C295.283 28.9918 294.503 27.4798 294.503 25.5598C294.503 24.7918 294.551 24.0118 294.647 23.2198C294.767 22.4278 294.935 21.5638 295.151 20.6278L300.119 21.0598ZM291.623 3.0958C291.527 3.3598 291.407 3.7438 291.263 4.2478C291.119 4.7518 290.987 5.2438 290.867 5.7238C290.747 6.2038 290.663 6.5518 290.615 6.7678C290.543 7.1518 290.435 7.7278 290.291 8.4958C290.147 9.2638 289.991 10.1518 289.823 11.1598C289.679 12.1438 289.535 13.1638 289.391 14.2198C289.247 15.2518 289.127 16.2478 289.031 17.2078C288.935 18.1438 288.887 18.9478 288.887 19.6198C288.887 19.6678 288.887 19.7998 288.887 20.0158C288.887 20.2318 288.899 20.3758 288.923 20.4478C289.091 20.1118 289.247 19.7998 289.391 19.5118C289.559 19.2238 289.715 18.9358 289.859 18.6478C290.027 18.3358 290.183 18.0118 290.327 17.6758L292.955 19.7638C292.595 20.8438 292.235 21.9718 291.875 23.1478C291.539 24.3238 291.239 25.4278 290.975 26.4598C290.711 27.4918 290.507 28.3438 290.363 29.0158C290.315 29.2798 290.267 29.5918 290.219 29.9518C290.171 30.3118 290.147 30.5758 290.147 30.7438C290.147 30.9358 290.147 31.1758 290.147 31.4638C290.147 31.7758 290.159 32.0758 290.183 32.3638L285.143 32.6878C284.783 31.4878 284.447 29.8318 284.135 27.7198C283.847 25.5838 283.703 23.2918 283.703 20.8438C283.703 19.4758 283.751 18.0958 283.847 16.7038C283.967 15.3118 284.099 13.9798 284.243 12.7078C284.411 11.4118 284.567 10.2478 284.711 9.2158C284.879 8.1838 285.011 7.3318 285.107 6.6598C285.179 6.1078 285.263 5.4598 285.359 4.7158C285.455 3.9718 285.515 3.2638 285.539 2.5918L291.623 3.0958Z" fill="#CC0033"/>
<path d="M254.544 4.89622C254.448 5.40022 254.364 5.96422 254.292 6.58822C254.22 7.21222 254.16 7.81222 254.112 8.38822C254.064 8.96422 254.04 9.43222 254.04 9.79222C254.04 10.5842 254.04 11.3762 254.04 12.1682C254.064 12.9602 254.088 13.7522 254.112 14.5442C254.136 15.3122 254.184 16.1042 254.256 16.9202C254.4 18.4802 254.592 19.8722 254.832 21.0962C255.072 22.2962 255.396 23.2442 255.804 23.9402C256.236 24.6122 256.8 24.9482 257.496 24.9482C257.904 24.9482 258.288 24.7082 258.648 24.2282C259.008 23.7482 259.332 23.1362 259.62 22.3922C259.932 21.6482 260.196 20.8802 260.412 20.0882C260.628 19.2962 260.808 18.6002 260.952 18.0002L265.344 23.4002C264.504 25.5122 263.676 27.2042 262.86 28.4762C262.044 29.7242 261.192 30.6242 260.304 31.1762C259.416 31.7282 258.444 32.0042 257.388 32.0042C255.972 32.0042 254.652 31.5722 253.428 30.7082C252.228 29.8202 251.196 28.3922 250.332 26.4242C249.492 24.4322 248.904 21.8042 248.568 18.5402C248.448 17.3882 248.352 16.2002 248.28 14.9762C248.232 13.7522 248.196 12.5882 248.172 11.4842C248.172 10.3802 248.172 9.45622 248.172 8.71222C248.172 8.16022 248.148 7.53622 248.1 6.84022C248.052 6.12022 247.968 5.44822 247.848 4.82422L254.544 4.89622ZM272.148 5.58022C272.844 6.39622 273.516 7.41622 274.164 8.64022C274.812 9.86422 275.4 11.1842 275.928 12.6002C276.48 14.0162 276.96 15.4562 277.368 16.9202C277.776 18.3602 278.1 19.7522 278.34 21.0962C278.604 22.4402 278.772 23.6282 278.844 24.6602L273.048 26.8922C272.928 25.5242 272.712 23.9642 272.4 22.2122C272.112 20.4602 271.704 18.6722 271.176 16.8482C270.672 15.0002 270.036 13.2482 269.268 11.5922C268.524 9.93622 267.624 8.53222 266.568 7.38022L272.148 5.58022Z" fill="#CC0033"/>
<path d="M228.732 1.08004L234.456 1.98004C234.12 4.47604 233.724 7.00804 233.268 9.57604C232.836 12.12 232.356 14.628 231.828 17.1C231.324 19.572 230.796 21.924 230.244 24.156C229.692 26.364 229.14 28.38 228.588 30.204L223.62 29.196C224.172 27.348 224.7 25.284 225.204 23.004C225.732 20.724 226.224 18.336 226.68 15.84C227.136 13.344 227.532 10.848 227.868 8.35205C228.228 5.83204 228.516 3.40804 228.732 1.08004ZM220.164 28.116C221.748 27.972 223.584 27.792 225.672 27.576C227.784 27.36 230.016 27.12 232.368 26.856C234.72 26.592 237.036 26.328 239.316 26.064L239.496 30.96C237.384 31.296 235.248 31.62 233.088 31.932C230.952 32.244 228.876 32.544 226.86 32.832C224.844 33.12 222.996 33.384 221.316 33.624L220.164 28.116ZM232.944 17.712L237.624 16.128C238.488 17.832 239.34 19.668 240.18 21.636C241.044 23.58 241.812 25.488 242.484 27.36C243.18 29.232 243.684 30.912 243.996 32.4L238.776 34.344C238.584 33.264 238.284 32.04 237.876 30.672C237.492 29.304 237.036 27.888 236.508 26.424C235.98 24.936 235.404 23.448 234.78 21.96C234.18 20.472 233.568 19.056 232.944 17.712ZM209.76 6.76804H223.872V11.628H209.76V6.76804ZM214.512 0.144043H219.624V28.836C219.624 30.084 219.492 31.056 219.228 31.752C218.964 32.448 218.484 33 217.788 33.408C217.068 33.792 216.204 34.044 215.196 34.164C214.188 34.308 212.988 34.38 211.596 34.38C211.5 33.684 211.308 32.856 211.02 31.896C210.756 30.96 210.456 30.156 210.12 29.484C210.84 29.508 211.56 29.532 212.28 29.556C213.024 29.556 213.528 29.556 213.792 29.556C214.056 29.532 214.236 29.472 214.332 29.376C214.452 29.256 214.512 29.064 214.512 28.8V0.144043ZM209.184 17.856C210.432 17.688 211.86 17.484 213.468 17.244C215.1 17.004 216.804 16.74 218.58 16.452C220.38 16.14 222.156 15.84 223.908 15.552L224.268 20.16C222.66 20.496 221.028 20.832 219.372 21.168C217.74 21.48 216.144 21.792 214.584 22.104C213.024 22.416 211.572 22.704 210.228 22.968L209.184 17.856Z" fill="#CC0033"/>
<path d="M185.098 17.8202C186.898 21.1082 189.682 23.7002 193.45 25.5962C197.218 27.4922 201.958 28.7282 207.67 29.3042C207.286 29.7122 206.878 30.2282 206.446 30.8522C206.038 31.4522 205.642 32.0762 205.258 32.7242C204.874 33.3722 204.562 33.9482 204.322 34.4522C200.266 33.8762 196.726 32.9642 193.702 31.7162C190.678 30.4922 188.062 28.8722 185.854 26.8562C183.646 24.8402 181.738 22.3922 180.13 19.5122L185.098 17.8202ZM176.638 13.1042H199.498V18.2162H176.638V13.1042ZM174.802 4.50018H205.942V9.68418H174.802V4.50018ZM187.582 0.180176H193.054V15.4082H187.582V0.180176ZM197.806 13.1042H198.886L199.786 12.9242L203.494 15.0122C202.438 18.0122 201.01 20.6162 199.21 22.8242C197.434 25.0322 195.358 26.9042 192.982 28.4402C190.606 29.9522 187.99 31.1882 185.134 32.1482C182.302 33.1322 179.29 33.8762 176.098 34.3802C175.954 33.9002 175.714 33.3362 175.378 32.6882C175.066 32.0642 174.718 31.4402 174.334 30.8162C173.95 30.1922 173.59 29.6882 173.254 29.3042C176.326 28.9442 179.182 28.4042 181.822 27.6842C184.486 26.9642 186.874 26.0042 188.986 24.8042C191.122 23.6042 192.934 22.1282 194.422 20.3762C195.934 18.6002 197.062 16.4882 197.806 14.0402V13.1042Z" fill="#CC0033"/>
<path d="M152.699 1.43994C152.651 1.65594 152.603 1.99194 152.555 2.44794C152.507 2.87994 152.459 3.32394 152.411 3.77994C152.363 4.23594 152.327 4.61994 152.303 4.93194C152.255 5.74794 152.207 6.55194 152.159 7.34394C152.135 8.11194 152.111 8.87994 152.087 9.64794C152.063 10.4159 152.039 11.1839 152.015 11.9519C152.015 12.7199 152.015 13.4999 152.015 14.2919C152.015 15.2999 152.027 16.4279 152.051 17.6759C152.075 18.8999 152.099 20.1239 152.123 21.3479C152.171 22.5479 152.207 23.6399 152.231 24.6239C152.255 25.6079 152.267 26.3519 152.267 26.8559C152.267 28.5359 152.075 29.8439 151.691 30.7799C151.331 31.6919 150.815 32.3159 150.143 32.6519C149.495 33.0119 148.739 33.1919 147.875 33.1919C146.915 33.1919 145.907 32.9999 144.851 32.6159C143.795 32.2559 142.811 31.7399 141.899 31.0679C141.011 30.4199 140.279 29.6519 139.703 28.7639C139.151 27.8759 138.875 26.9159 138.875 25.8839C138.875 24.6599 139.331 23.4479 140.243 22.2479C141.155 21.0479 142.367 19.9559 143.879 18.9719C145.391 17.9639 147.035 17.1599 148.811 16.5599C150.419 16.0079 152.075 15.5999 153.779 15.3359C155.507 15.0719 157.031 14.9399 158.351 14.9399C160.247 14.9399 161.975 15.2639 163.535 15.9119C165.119 16.5359 166.379 17.4599 167.315 18.6839C168.275 19.9079 168.755 21.4079 168.755 23.1839C168.755 24.5759 168.503 25.8839 167.999 27.1079C167.519 28.3079 166.691 29.3639 165.515 30.2759C164.339 31.1639 162.719 31.8719 160.655 32.3999C159.815 32.5679 158.987 32.6999 158.171 32.7959C157.355 32.8919 156.551 32.9759 155.759 33.0479L153.779 27.3959C154.643 27.3959 155.459 27.3839 156.227 27.3599C156.995 27.3119 157.679 27.2399 158.279 27.1439C159.215 26.9759 160.043 26.7239 160.763 26.3879C161.483 26.0279 162.047 25.5839 162.455 25.0559C162.863 24.5039 163.067 23.8679 163.067 23.1479C163.067 22.4279 162.875 21.8159 162.491 21.3119C162.107 20.8079 161.555 20.4239 160.835 20.1599C160.139 19.8719 159.287 19.7279 158.279 19.7279C156.815 19.7279 155.291 19.8839 153.707 20.1959C152.147 20.4839 150.695 20.8799 149.351 21.3839C148.343 21.7679 147.455 22.1999 146.687 22.6799C145.919 23.1599 145.319 23.6519 144.887 24.1559C144.455 24.6599 144.239 25.1519 144.239 25.6319C144.239 25.8479 144.299 26.0519 144.419 26.2439C144.563 26.4359 144.731 26.6039 144.923 26.7479C145.139 26.8919 145.355 27.0119 145.571 27.1079C145.787 27.1799 145.979 27.2159 146.147 27.2159C146.411 27.2159 146.651 27.1439 146.867 26.9999C147.083 26.8319 147.191 26.4359 147.191 25.8119C147.191 25.2119 147.167 24.3119 147.119 23.1119C147.095 21.9119 147.059 20.5559 147.011 19.0439C146.987 17.5079 146.975 15.9839 146.975 14.4719C146.975 13.4639 146.975 12.4799 146.975 11.5199C146.975 10.5599 146.975 9.67194 146.975 8.85594C146.975 8.01594 146.975 7.27194 146.975 6.62394C146.975 5.95194 146.975 5.39994 146.975 4.96794C146.975 4.70394 146.963 4.34394 146.939 3.88794C146.915 3.40794 146.879 2.93994 146.831 2.48394C146.807 2.00394 146.771 1.65594 146.723 1.43994H152.699ZM162.419 5.29194C163.379 5.72394 164.447 6.25194 165.623 6.87594C166.799 7.47594 167.927 8.07594 169.007 8.67594C170.087 9.27594 170.963 9.80394 171.635 10.2599L169.043 14.6879C168.611 14.3519 168.011 13.9439 167.243 13.4639C166.475 12.9839 165.635 12.4919 164.723 11.9879C163.835 11.4839 162.971 11.0159 162.131 10.5839C161.315 10.1279 160.631 9.77994 160.079 9.53994L162.419 5.29194ZM140.063 7.01994C141.167 7.13994 142.139 7.21194 142.979 7.23594C143.843 7.25994 144.599 7.27194 145.247 7.27194C146.207 7.27194 147.251 7.23594 148.379 7.16394C149.531 7.06794 150.695 6.94794 151.871 6.80394C153.047 6.65994 154.199 6.47994 155.327 6.26394C156.455 6.04794 157.487 5.80794 158.423 5.54394L158.531 10.9439C157.475 11.1839 156.347 11.3999 155.147 11.5919C153.947 11.7599 152.747 11.9159 151.547 12.0599C150.371 12.1799 149.255 12.2759 148.199 12.3479C147.143 12.4199 146.219 12.4559 145.427 12.4559C144.131 12.4559 143.087 12.4439 142.295 12.4199C141.503 12.3959 140.795 12.3479 140.171 12.2759L140.063 7.01994Z" fill="#CC0033"/>
<path d="M122.314 6.22814C122.05 8.05214 121.726 9.99614 121.342 12.0601C120.958 14.1241 120.418 16.2841 119.722 18.5401C119.026 20.9401 118.198 23.0401 117.238 24.8401C116.278 26.6401 115.198 28.0441 113.998 29.0521C112.822 30.0601 111.526 30.5641 110.11 30.5641C108.622 30.5641 107.278 30.0841 106.078 29.1241C104.902 28.1401 103.966 26.8201 103.27 25.1641C102.598 23.4841 102.262 21.6241 102.262 19.5841C102.262 17.4481 102.694 15.4321 103.558 13.5361C104.422 11.6161 105.622 9.92414 107.158 8.46014C108.694 6.99614 110.494 5.84414 112.558 5.00414C114.622 4.16414 116.854 3.74414 119.254 3.74414C121.558 3.74414 123.622 4.11614 125.446 4.86014C127.294 5.58014 128.866 6.60014 130.162 7.92014C131.482 9.24014 132.49 10.7881 133.186 12.5641C133.882 14.3161 134.23 16.2121 134.23 18.2521C134.23 20.7721 133.726 23.0521 132.718 25.0921C131.71 27.1081 130.186 28.8001 128.146 30.1681C126.106 31.5121 123.526 32.4481 120.406 32.9761L117.094 27.7921C117.862 27.6961 118.51 27.6001 119.038 27.5041C119.566 27.3841 120.094 27.2641 120.622 27.1441C121.774 26.8561 122.818 26.4481 123.754 25.9201C124.69 25.3921 125.494 24.7441 126.166 23.9761C126.838 23.2081 127.354 22.3321 127.714 21.3481C128.074 20.3401 128.254 19.2481 128.254 18.0721C128.254 16.6801 128.05 15.4201 127.642 14.2921C127.258 13.1641 126.67 12.1921 125.878 11.3761C125.11 10.5601 124.162 9.93614 123.034 9.50414C121.906 9.07214 120.61 8.85614 119.146 8.85614C117.274 8.85614 115.63 9.19214 114.214 9.86414C112.822 10.5121 111.658 11.3641 110.722 12.4201C109.786 13.4521 109.078 14.5561 108.598 15.7321C108.142 16.9081 107.914 18.0001 107.914 19.0081C107.914 20.0401 108.022 20.9161 108.238 21.6361C108.454 22.3321 108.73 22.8601 109.066 23.2201C109.426 23.5801 109.822 23.7601 110.254 23.7601C110.734 23.7601 111.178 23.5201 111.586 23.0401C112.018 22.5601 112.426 21.8521 112.81 20.9161C113.218 19.9561 113.638 18.7801 114.07 17.3881C114.622 15.6841 115.09 13.8481 115.474 11.8801C115.858 9.88814 116.134 7.94414 116.302 6.04814L122.314 6.22814Z" fill="#CC0033"/>
<path d="M75.1203 19.8L78.5763 17.28C80.5203 18.24 82.0923 19.332 83.2923 20.556C84.5163 21.756 85.4163 23.004 85.9923 24.3C86.5683 25.572 86.8563 26.796 86.8563 27.972C86.8803 29.148 86.6523 30.204 86.1723 31.14C85.7163 32.076 85.0563 32.808 84.1923 33.336C83.4483 33.816 82.7523 34.14 82.1043 34.308C81.4563 34.476 80.6523 34.572 79.6923 34.596C79.2363 34.596 78.7563 34.584 78.2523 34.56C77.7723 34.56 77.2803 34.548 76.7763 34.524C76.7523 33.828 76.6203 33.036 76.3803 32.148C76.1403 31.284 75.7923 30.516 75.3363 29.844C75.9603 29.916 76.5843 29.964 77.2083 29.988C77.8323 30.012 78.3723 30.024 78.8283 30.024C79.2603 30.024 79.6563 30 80.0163 29.952C80.4003 29.88 80.7243 29.724 80.9883 29.484C81.4443 29.196 81.7323 28.704 81.8523 28.008C81.9723 27.312 81.8403 26.508 81.4563 25.596C81.0723 24.66 80.3643 23.7 79.3323 22.716C78.3243 21.708 76.9203 20.736 75.1203 19.8ZM79.2603 19.656L82.6803 21.348C81.6003 22.26 80.2923 23.124 78.7563 23.94C77.2443 24.732 75.6483 25.44 73.9683 26.064C72.2883 26.688 70.6323 27.192 69.0003 27.576C68.6883 27.072 68.2683 26.484 67.7403 25.812C67.2123 25.116 66.7323 24.552 66.3003 24.12C67.8843 23.856 69.4923 23.508 71.1243 23.076C72.7803 22.62 74.3163 22.104 75.7323 21.528C77.1723 20.928 78.3483 20.304 79.2603 19.656ZM81.5643 22.932L85.2003 24.84C84.1683 25.752 82.9923 26.628 81.6723 27.468C80.3763 28.284 78.9963 29.064 77.5323 29.808C76.0683 30.528 74.5683 31.176 73.0323 31.752C71.5203 32.328 70.0323 32.82 68.5683 33.228C68.2563 32.676 67.8123 32.028 67.2363 31.284C66.6603 30.54 66.1323 29.94 65.6523 29.484C67.1163 29.172 68.6043 28.788 70.1163 28.332C71.6283 27.876 73.0923 27.36 74.5083 26.784C75.9243 26.208 77.2323 25.596 78.4323 24.948C79.6563 24.3 80.7003 23.628 81.5643 22.932ZM75.8043 2.34H86.3523V6.156H75.8043V2.34ZM81.6363 14.076L85.4883 15.876C84.1443 16.956 82.5363 17.94 80.6643 18.828C78.7923 19.692 76.8243 20.46 74.7603 21.132C72.7203 21.78 70.7283 22.332 68.7843 22.788C68.6163 22.476 68.3763 22.092 68.0643 21.636C67.7523 21.18 67.4283 20.724 67.0923 20.268C66.7803 19.812 66.4923 19.44 66.2283 19.152C68.1483 18.864 70.0683 18.48 71.9883 18C73.9323 17.496 75.7443 16.92 77.4243 16.272C79.1283 15.6 80.5323 14.868 81.6363 14.076ZM87.4683 14.94C88.0683 17.1 88.8843 19.104 89.9163 20.952C90.9723 22.776 92.2803 24.372 93.8403 25.74C95.4243 27.108 97.2963 28.176 99.4563 28.944C99.0963 29.28 98.7003 29.712 98.2683 30.24C97.8363 30.744 97.4283 31.272 97.0443 31.824C96.6603 32.376 96.3483 32.88 96.1083 33.336C93.7323 32.304 91.7043 30.96 90.0243 29.304C88.3683 27.624 86.9763 25.656 85.8483 23.4C84.7443 21.144 83.8203 18.636 83.0763 15.876L87.4683 14.94ZM94.6683 16.956L98.8803 20.016C97.9923 20.568 97.0683 21.108 96.1083 21.636C95.1483 22.14 94.2003 22.62 93.2643 23.076C92.3523 23.508 91.5003 23.892 90.7083 24.228L87.3963 21.528C88.1643 21.168 88.9923 20.736 89.8803 20.232C90.7683 19.704 91.6323 19.152 92.4723 18.576C93.3123 18 94.0443 17.46 94.6683 16.956ZM74.8323 11.34V13.32H90.4203V11.34H74.8323ZM69.9363 7.632H95.6043V17.028H69.9363V7.632ZM75.3363 0L80.7363 1.116C79.2963 3.228 77.6523 5.22 75.8043 7.092C73.9563 8.94 71.7483 10.644 69.1803 12.204C68.9403 11.796 68.6163 11.352 68.2083 10.872C67.8003 10.392 67.3683 9.936 66.9123 9.504C66.4803 9.072 66.0723 8.736 65.6883 8.496C67.2243 7.704 68.6043 6.84 69.8283 5.904C71.0523 4.944 72.1203 3.96 73.0323 2.952C73.9683 1.944 74.7363 0.959999 75.3363 0ZM79.8003 9.684H84.9483V15.696H79.8003V9.684ZM84.2283 2.34H85.4163L86.2083 2.124L89.7723 4.464C89.3163 5.16 88.7763 5.928 88.1523 6.768C87.5283 7.584 86.8803 8.376 86.2083 9.144C85.5363 9.912 84.9003 10.584 84.3003 11.16C83.8203 10.776 83.2083 10.344 82.4643 9.864C81.7443 9.384 81.1083 8.988 80.5563 8.676C81.0363 8.172 81.5163 7.596 81.9963 6.948C82.5003 6.276 82.9443 5.616 83.3283 4.968C83.7363 4.296 84.0363 3.732 84.2283 3.276V2.34Z" fill="#CC0033"/>
<path d="M46.0674 7.84818H63.4194V12.8522H46.0674V7.84818ZM29.9394 5.50818H47.2914V10.3322H29.9394V5.50818ZM54.6354 0.180176H59.8194V28.0442C59.8194 29.4362 59.6754 30.5282 59.3874 31.3202C59.1234 32.1362 58.6074 32.7722 57.8394 33.2282C57.0714 33.6842 56.1114 33.9842 54.9594 34.1282C53.8074 34.2722 52.4874 34.3442 50.9994 34.3442C50.9514 33.8162 50.8434 33.2162 50.6754 32.5442C50.5074 31.8722 50.3034 31.2002 50.0634 30.5282C49.8474 29.8322 49.6194 29.2202 49.3794 28.6922C50.3154 28.7402 51.2034 28.7762 52.0434 28.8002C52.9074 28.8002 53.4954 28.8002 53.8074 28.8002C54.1194 28.8002 54.3354 28.7522 54.4554 28.6562C54.5754 28.5362 54.6354 28.3202 54.6354 28.0082V0.180176ZM45.2394 17.2442L49.4154 15.1922C49.9674 15.9602 50.5074 16.7882 51.0354 17.6762C51.5874 18.5642 52.0674 19.4402 52.4754 20.3042C52.8834 21.1682 53.1834 21.9602 53.3754 22.6802L48.8754 24.9842C48.7074 24.2882 48.4314 23.4962 48.0474 22.6082C47.6874 21.6962 47.2554 20.7722 46.7514 19.8362C46.2714 18.9002 45.7674 18.0362 45.2394 17.2442ZM30.3714 15.3722L34.0434 12.3842C35.0994 13.5122 36.1914 14.7242 37.3194 16.0202C38.4474 17.3162 39.5394 18.6362 40.5954 19.9802C41.6754 21.3002 42.6354 22.5962 43.4754 23.8682C44.3394 25.1402 45.0354 26.3282 45.5634 27.4322L41.3874 30.9962C40.9314 29.8922 40.2954 28.6922 39.4794 27.3962C38.6634 26.0762 37.7514 24.7202 36.7434 23.3282C35.7354 21.9362 34.6794 20.5562 33.5754 19.1882C32.4954 17.8202 31.4274 16.5482 30.3714 15.3722ZM35.9154 0.216175H40.9194V8.49618H35.9154V0.216175ZM39.7314 10.9802L44.8074 11.7002C44.2074 15.1082 43.3674 18.2282 42.2874 21.0602C41.2074 23.8682 39.8514 26.3642 38.2194 28.5482C36.5874 30.7322 34.6314 32.5922 32.3514 34.1282C32.1354 33.7682 31.8114 33.3242 31.3794 32.7962C30.9714 32.2922 30.5394 31.7762 30.0834 31.2482C29.6274 30.7442 29.2194 30.3362 28.8594 30.0242C30.9714 28.8002 32.7474 27.2642 34.1874 25.4162C35.6514 23.5682 36.8274 21.4322 37.7154 19.0082C38.6274 16.5842 39.2994 13.9082 39.7314 10.9802Z" fill="#CC0033"/>
<path d="M399.616 189.787H407.457V206.611C407.457 207.65 407.544 208.308 407.717 208.584C407.924 208.827 408.409 208.948 409.171 208.948C409.344 208.948 409.586 208.948 409.898 208.948C410.209 208.948 410.538 208.948 410.884 208.948C411.265 208.948 411.611 208.948 411.923 208.948C412.269 208.948 412.546 208.948 412.754 208.948C413.273 208.948 413.654 208.74 413.896 208.325C414.173 207.909 414.381 207.096 414.519 205.884C414.658 204.673 414.762 202.855 414.831 200.432C415.385 200.847 416.077 201.263 416.908 201.678C417.739 202.094 418.587 202.474 419.452 202.82C420.352 203.132 421.131 203.374 421.789 203.547C421.547 206.732 421.131 209.242 420.543 211.077C419.989 212.877 419.141 214.141 417.998 214.868C416.891 215.629 415.385 216.01 413.481 216.01C413.169 216.01 412.754 216.01 412.234 216.01C411.75 216.01 411.23 216.01 410.677 216.01C410.123 216.01 409.586 216.01 409.067 216.01C408.582 216.01 408.184 216.01 407.872 216.01C405.691 216.01 403.995 215.716 402.784 215.127C401.607 214.539 400.776 213.552 400.291 212.167C399.841 210.817 399.616 208.983 399.616 206.663V189.787ZM373.704 184.853H420.699V192.175H373.704V184.853ZM378.533 170.989H415.714V178.259H378.533V170.989ZM384.817 190.669H392.969C392.761 193.508 392.415 196.208 391.931 198.77C391.481 201.297 390.719 203.669 389.646 205.884C388.573 208.1 387.015 210.125 384.972 211.96C382.93 213.795 380.23 215.387 376.872 216.737C376.456 215.768 375.798 214.677 374.898 213.466C373.998 212.254 373.115 211.285 372.25 210.558C375.089 209.519 377.322 208.308 378.949 206.923C380.576 205.503 381.787 203.963 382.584 202.301C383.38 200.605 383.916 198.787 384.193 196.849C384.47 194.876 384.678 192.816 384.817 190.669Z" fill="#CC0033"/>
<path d="M333.614 187.657V207.234H326.396V194.616H320.995V187.657H333.614ZM333.614 204.274C334.479 205.867 335.708 207.044 337.301 207.805C338.928 208.532 340.953 208.948 343.376 209.052C345.003 209.121 346.942 209.173 349.192 209.207C351.442 209.207 353.796 209.19 356.254 209.156C358.747 209.121 361.187 209.052 363.576 208.948C365.999 208.844 368.18 208.705 370.119 208.532C369.842 209.086 369.548 209.813 369.236 210.713C368.925 211.579 368.63 212.462 368.354 213.362C368.111 214.296 367.921 215.127 367.782 215.854C366.086 215.958 364.165 216.027 362.018 216.062C359.907 216.131 357.726 216.166 355.475 216.166C353.225 216.2 351.044 216.2 348.933 216.166C346.821 216.131 344.934 216.079 343.272 216.01C340.33 215.871 337.837 215.404 335.795 214.608C333.752 213.812 331.969 212.427 330.446 210.454C329.477 211.423 328.456 212.375 327.382 213.31C326.309 214.279 325.115 215.318 323.799 216.425L320.32 208.896C321.393 208.238 322.519 207.528 323.696 206.767C324.873 205.971 325.998 205.14 327.071 204.274H333.614ZM320.995 173.17L326.759 168.911C327.729 169.673 328.733 170.539 329.771 171.508C330.81 172.443 331.779 173.395 332.679 174.364C333.579 175.299 334.306 176.181 334.86 177.012L328.629 181.79C328.179 180.959 327.521 180.041 326.656 179.037C325.825 177.999 324.907 176.978 323.903 175.974C322.899 174.935 321.93 174 320.995 173.17ZM333.925 180.855H369.029V185.944H333.925V180.855ZM344.83 191.085V192.85H357.812V191.085H344.83ZM337.872 187.086H365.29V196.849H337.872V187.086ZM348.777 193.318L355.06 195.498C353.779 197.229 352.221 198.856 350.386 200.38C348.552 201.903 346.578 203.27 344.467 204.482C342.39 205.659 340.295 206.663 338.183 207.494C337.907 207.009 337.508 206.421 336.989 205.728C336.47 205.036 335.933 204.344 335.379 203.651C334.86 202.959 334.375 202.405 333.925 201.989C335.899 201.401 337.82 200.674 339.689 199.809C341.593 198.943 343.324 197.956 344.882 196.849C346.475 195.741 347.773 194.564 348.777 193.318ZM363.213 194.096L368.457 197.731C367.073 198.597 365.723 199.428 364.407 200.224C363.126 200.986 361.966 201.626 360.928 202.145L357.033 199.133C357.691 198.718 358.401 198.216 359.162 197.628C359.924 197.039 360.668 196.433 361.395 195.81C362.122 195.187 362.728 194.616 363.213 194.096ZM353.97 195.55C354.904 196.762 356.116 197.853 357.604 198.822C359.093 199.757 360.824 200.553 362.797 201.211C364.77 201.834 366.9 202.301 369.184 202.613C368.492 203.27 367.748 204.153 366.951 205.261C366.155 206.369 365.532 207.355 365.082 208.221C362.59 207.667 360.305 206.888 358.228 205.884C356.15 204.846 354.316 203.582 352.723 202.093C351.131 200.605 349.763 198.926 348.621 197.056L353.97 195.55ZM358.072 172.858V175.714H360.201V172.858H358.072ZM350.386 172.858V175.714H352.464V172.858H350.386ZM342.701 172.858V175.714H344.778V172.858H342.701ZM336.418 168.808H366.848V179.764H336.418V168.808ZM347.271 194.616H354.437V208.429H347.271V194.616Z" fill="#CC0033"/>
<path d="M74.2079 184.399H102.509V191.877H74.2079V184.399ZM84.4377 167.367H92.123V216.438H84.4377V167.367ZM55.3581 183.153H72.4423V188.761H55.3581V183.153ZM55.6697 168.613H72.5462V174.221H55.6697V168.613ZM55.3581 190.319H72.4423V195.927H55.3581V190.319ZM52.7617 175.727H74.5195V181.595H52.7617V175.727ZM58.7853 197.641H72.2866V213.79H58.7853V207.922H65.6917V203.508H58.7853V197.641ZM55.1504 197.641H61.6414V215.66H55.1504V197.641Z" fill="#CC0033"/>
<path d="M12.6217 183.776H38.5856V190.37H12.6217V183.776ZM12.1543 208.13H38.3779V214.725H12.1543V208.13ZM8.83095 194.784H42.6879V216.542H34.8987V201.379H16.2566V216.542H8.83095V194.784ZM25.2921 174.532C23.8727 176.506 22.1072 178.514 19.9954 180.556C17.8837 182.599 15.5469 184.555 12.9852 186.424C10.4234 188.293 7.74047 189.972 4.93637 191.461C4.6248 190.872 4.19207 190.197 3.63817 189.436C3.11889 188.674 2.54769 187.93 1.92455 187.203C1.33604 186.476 0.764834 185.853 0.210938 185.333C3.18813 183.914 6.02685 182.183 8.72709 180.141C11.4273 178.098 13.8333 175.934 15.9451 173.65C18.0914 171.365 19.7877 169.201 21.034 167.159H28.927C30.3464 169.167 31.8869 171.071 33.5486 172.871C35.2449 174.636 37.0277 176.281 38.8971 177.804C40.8012 179.292 42.7571 180.625 44.765 181.802C46.8075 182.945 48.8673 183.914 50.9444 184.71C50.0097 185.68 49.1269 186.77 48.2961 187.982C47.4652 189.159 46.7036 190.336 46.0112 191.513C44.038 190.474 42.0474 189.297 40.0395 187.982C38.0317 186.632 36.1103 185.212 34.2756 183.724C32.4408 182.2 30.7445 180.66 29.1866 179.102C27.6634 177.544 26.3652 176.021 25.2921 174.532Z" fill="#CC0033"/>
<path d="M54.2143 126.556H100.742V134.397H54.2143V126.556ZM81.6322 129.724C82.6361 133.566 84.0209 137.149 85.7864 140.473C87.552 143.762 89.7676 146.652 92.4332 149.145C95.1334 151.637 98.3356 153.611 102.04 155.065C101.417 155.618 100.742 156.328 100.015 157.194C99.3223 158.024 98.6472 158.89 97.9895 159.79C97.3663 160.69 96.847 161.504 96.4316 162.231C92.3466 160.327 88.8675 157.903 85.9941 154.961C83.1554 151.984 80.7841 148.539 78.88 144.627C76.976 140.681 75.3489 136.301 73.9988 131.489L81.6322 129.724ZM73.0122 113.107H81.3206C81.286 115.946 81.1995 118.888 81.061 121.935C80.9571 124.946 80.6975 127.976 80.2821 131.022C79.8667 134.034 79.1916 137.011 78.2569 139.954C77.3568 142.896 76.0932 145.718 74.4662 148.418C72.8391 151.118 70.7447 153.645 68.1829 155.999C65.6558 158.319 62.5574 160.396 58.8878 162.231C58.2993 161.192 57.4685 160.067 56.3953 158.855C55.3568 157.644 54.2836 156.622 53.1758 155.792C56.6376 154.199 59.5283 152.399 61.8477 150.391C64.2018 148.383 66.0885 146.202 67.5079 143.848C68.9618 141.494 70.0696 139.054 70.8312 136.526C71.5928 133.965 72.1121 131.368 72.3891 128.737C72.666 126.072 72.8218 123.423 72.8564 120.792C72.9257 118.161 72.9776 115.599 73.0122 113.107Z" fill="#CC0033"/>
<path d="M15.3741 125.154V126.452H35.2106V125.154H15.3741ZM15.3741 119.494V120.74H35.2106V119.494H15.3741ZM8.15618 114.769H42.792V131.178H8.15618V114.769ZM2.08063 132.476H48.8676V138.396H2.08063V132.476ZM26.279 139.59H42.4285V145.25H26.279V139.59ZM10.7006 139.642H21.969V144.731H10.7006V139.642ZM10.7006 146.133H21.969V151.222H10.7006V146.133ZM33.1854 144.679C34.6047 147.518 36.7511 149.976 39.6244 152.053C42.4978 154.13 45.9423 155.618 49.958 156.518C49.4734 156.969 48.9368 157.54 48.3483 158.232C47.7944 158.924 47.2578 159.634 46.7385 160.361C46.2539 161.123 45.8558 161.798 45.5442 162.386C41.113 161.071 37.3915 159.063 34.3797 156.363C31.4025 153.628 28.9965 150.287 27.1618 146.341L33.1854 144.679ZM40.2476 139.59H41.5457L42.792 139.382L47.4655 141.096C46.4962 144.766 45.1115 147.985 43.3113 150.755C41.5457 153.489 39.4167 155.826 36.9242 157.765C34.4316 159.703 31.6102 161.296 28.4599 162.542C28.0445 161.642 27.4387 160.603 26.6425 159.426C25.8462 158.284 25.1019 157.367 24.4096 156.674C26.3828 156.051 28.2176 155.22 29.9139 154.182C31.6449 153.143 33.1854 151.932 34.5355 150.547C35.9202 149.162 37.0973 147.639 38.0666 145.977C39.0359 144.315 39.7629 142.533 40.2476 140.629V139.59ZM1.61328 153.455C3.37883 153.386 5.35208 153.299 7.53305 153.195C9.74863 153.057 12.0681 152.918 14.4914 152.78C16.9493 152.607 19.3899 152.451 21.8132 152.312V158.388C18.3513 158.665 14.8895 158.924 11.4276 159.167C7.96578 159.444 4.85011 159.686 2.08063 159.894L1.61328 153.455ZM18.1263 134.397H25.3443V162.438H18.1263V134.397ZM5.92329 134.553H12.7778V155.843H5.92329V134.553Z" fill="#CC0033"/>
<path d="M177.814 215.925V122.4C176.75 122.98 175.542 123.56 174.189 124.14C172.835 124.72 171.385 125.348 169.839 126.025C168.389 126.605 166.939 127.185 165.489 127.765C164.135 128.345 162.879 128.925 161.719 129.505V111.525C162.782 110.945 164.28 110.172 166.214 109.205C168.147 108.142 170.225 106.982 172.449 105.725C174.672 104.468 176.75 103.212 178.684 101.955C180.617 100.602 182.067 99.4418 183.034 98.4751H202.029V215.925H177.814Z" fill="#CC0033"/>
<path d="M129.271 215.925V122.4C128.207 122.98 126.999 123.56 125.646 124.14C124.292 124.72 122.842 125.348 121.296 126.025C119.846 126.605 118.396 127.185 116.946 127.765C115.592 128.345 114.336 128.925 113.176 129.505V111.525C114.239 110.945 115.737 110.172 117.671 109.205C119.604 108.142 121.682 106.982 123.906 105.725C126.129 104.468 128.207 103.212 130.141 101.955C132.074 100.602 133.524 99.4418 134.491 98.4751H153.486V215.925H129.271Z" fill="#CC0033"/>
<path d="M232.175 187.494C228.575 187.494 225.342 186.561 222.475 184.694C219.675 182.761 217.442 180.027 215.775 176.494C214.175 172.894 213.375 168.627 213.375 163.694C213.375 158.694 214.175 154.461 215.775 150.994C217.442 147.461 219.675 144.794 222.475 142.994C225.342 141.127 228.575 140.194 232.175 140.194C235.842 140.194 239.075 141.127 241.875 142.994C244.742 144.794 246.975 147.461 248.575 150.994C250.242 154.461 251.075 158.694 251.075 163.694C251.075 168.627 250.242 172.894 248.575 176.494C246.975 180.027 244.742 182.761 241.875 184.694C239.075 186.561 235.842 187.494 232.175 187.494ZM232.175 177.694C233.908 177.694 235.408 176.661 236.675 174.594C238.008 172.527 238.675 168.894 238.675 163.694C238.675 158.494 238.008 154.927 236.675 152.994C235.408 150.994 233.908 149.994 232.175 149.994C230.442 149.994 228.908 150.994 227.575 152.994C226.308 154.927 225.675 158.494 225.675 163.694C225.675 168.894 226.308 172.527 227.575 174.594C228.908 176.661 230.442 177.694 232.175 177.694ZM234.775 217.394L274.875 140.194H285.075L244.975 217.394H234.775ZM287.575 217.394C283.975 217.394 280.742 216.461 277.875 214.594C275.075 212.661 272.842 209.927 271.175 206.394C269.575 202.794 268.775 198.527 268.775 193.594C268.775 188.594 269.575 184.361 271.175 180.894C272.842 177.361 275.075 174.661 277.875 172.794C280.742 170.927 283.975 169.994 287.575 169.994C291.175 169.994 294.375 170.927 297.175 172.794C300.042 174.661 302.275 177.361 303.875 180.894C305.542 184.361 306.375 188.594 306.375 193.594C306.375 198.527 305.542 202.794 303.875 206.394C302.275 209.927 300.042 212.661 297.175 214.594C294.375 216.461 291.175 217.394 287.575 217.394ZM287.575 207.494C289.308 207.494 290.808 206.494 292.075 204.494C293.408 202.427 294.075 198.794 294.075 193.594C294.075 188.327 293.408 184.727 292.075 182.794C290.808 180.861 289.308 179.894 287.575 179.894C285.842 179.894 284.308 180.861 282.975 182.794C281.708 184.727 281.075 188.327 281.075 193.594C281.075 198.794 281.708 202.427 282.975 204.494C284.308 206.494 285.842 207.494 287.575 207.494Z" fill="#CC0033"/>
</svg>
