<svg width="548" height="258" viewBox="0 0 548 258" fill="none" xmlns="http://www.w3.org/2000/svg">
<path d="M21.4356 17.036H41.6796V22.874H21.4356V17.036ZM2.61961 14.306H22.8636V19.934H2.61961V14.306ZM31.4316 8.09H37.4796V40.598C37.4796 42.222 37.3116 43.496 36.9756 44.42C36.6676 45.372 36.0656 46.114 35.1696 46.646C34.2736 47.178 33.1536 47.528 31.8096 47.696C30.4656 47.864 28.9256 47.948 27.1896 47.948C27.1336 47.332 27.0076 46.632 26.8116 45.848C26.6156 45.064 26.3776 44.28 26.0976 43.496C25.8456 42.684 25.5796 41.97 25.2996 41.354C26.3916 41.41 27.4276 41.452 28.4076 41.48C29.4156 41.48 30.1016 41.48 30.4656 41.48C30.8296 41.48 31.0816 41.424 31.2216 41.312C31.3616 41.172 31.4316 40.92 31.4316 40.556V8.09ZM20.4696 27.998L25.3416 25.604C25.9856 26.5 26.6156 27.466 27.2316 28.502C27.8756 29.538 28.4356 30.56 28.9116 31.568C29.3876 32.576 29.7376 33.5 29.9616 34.34L24.7116 37.028C24.5156 36.216 24.1936 35.292 23.7456 34.256C23.3256 33.192 22.8216 32.114 22.2336 31.022C21.6736 29.93 21.0856 28.922 20.4696 27.998ZM3.12361 25.814L7.40761 22.328C8.63961 23.644 9.91361 25.058 11.2296 26.57C12.5456 28.082 13.8196 29.622 15.0516 31.19C16.3116 32.73 17.4316 34.242 18.4116 35.726C19.4196 37.21 20.2316 38.596 20.8476 39.884L15.9756 44.042C15.4436 42.754 14.7016 41.354 13.7496 39.842C12.7976 38.302 11.7336 36.72 10.5576 35.096C9.38161 33.472 8.14961 31.862 6.86161 30.266C5.60161 28.67 4.35561 27.186 3.12361 25.814ZM9.59161 8.132H15.4296V17.792H9.59161V8.132ZM14.0436 20.69L19.9656 21.53C19.2656 25.506 18.2856 29.146 17.0256 32.45C15.7656 35.726 14.1836 38.638 12.2796 41.186C10.3756 43.734 8.09361 45.904 5.43361 47.696C5.18161 47.276 4.80361 46.758 4.29961 46.142C3.82361 45.554 3.31961 44.952 2.78761 44.336C2.25561 43.748 1.77961 43.272 1.35961 42.908C3.82361 41.48 5.89561 39.688 7.57561 37.532C9.28361 35.376 10.6556 32.884 11.6916 30.056C12.7556 27.228 13.5396 24.106 14.0436 20.69ZM55.3296 30.98L59.3616 28.04C61.6296 29.16 63.4636 30.434 64.8636 31.862C66.2916 33.262 67.3416 34.718 68.0136 36.23C68.6856 37.714 69.0216 39.142 69.0216 40.514C69.0496 41.886 68.7836 43.118 68.2236 44.21C67.6916 45.302 66.9216 46.156 65.9136 46.772C65.0456 47.332 64.2336 47.71 63.4776 47.906C62.7216 48.102 61.7836 48.214 60.6636 48.242C60.1316 48.242 59.5716 48.228 58.9836 48.2C58.4236 48.2 57.8496 48.186 57.2616 48.158C57.2336 47.346 57.0796 46.422 56.7996 45.386C56.5196 44.378 56.1136 43.482 55.5816 42.698C56.3096 42.782 57.0376 42.838 57.7656 42.866C58.4936 42.894 59.1236 42.908 59.6556 42.908C60.1596 42.908 60.6216 42.88 61.0416 42.824C61.4896 42.74 61.8676 42.558 62.1756 42.278C62.7076 41.942 63.0436 41.368 63.1836 40.556C63.3236 39.744 63.1696 38.806 62.7216 37.742C62.2736 36.65 61.4476 35.53 60.2436 34.382C59.0676 33.206 57.4296 32.072 55.3296 30.98ZM60.1596 30.812L64.1496 32.786C62.8896 33.85 61.3636 34.858 59.5716 35.81C57.8076 36.734 55.9456 37.56 53.9856 38.288C52.0256 39.016 50.0936 39.604 48.1896 40.052C47.8256 39.464 47.3356 38.778 46.7196 37.994C46.1036 37.182 45.5436 36.524 45.0396 36.02C46.8876 35.712 48.7636 35.306 50.6676 34.802C52.5996 34.27 54.3916 33.668 56.0436 32.996C57.7236 32.296 59.0956 31.568 60.1596 30.812ZM62.8476 34.634L67.0896 36.86C65.8856 37.924 64.5136 38.946 62.9736 39.926C61.4616 40.878 59.8516 41.788 58.1436 42.656C56.4356 43.496 54.6856 44.252 52.8936 44.924C51.1296 45.596 49.3936 46.17 47.6856 46.646C47.3216 46.002 46.8036 45.246 46.1316 44.378C45.4596 43.51 44.8436 42.81 44.2836 42.278C45.9916 41.914 47.7276 41.466 49.4916 40.934C51.2556 40.402 52.9636 39.8 54.6156 39.128C56.2676 38.456 57.7936 37.742 59.1936 36.986C60.6216 36.23 61.8396 35.446 62.8476 34.634ZM56.1276 10.61H68.4336V15.062H56.1276V10.61ZM62.9316 24.302L67.4256 26.402C65.8576 27.662 63.9816 28.81 61.7976 29.846C59.6136 30.854 57.3176 31.75 54.9096 32.534C52.5296 33.29 50.2056 33.934 47.9376 34.466C47.7416 34.102 47.4616 33.654 47.0976 33.122C46.7336 32.59 46.3556 32.058 45.9636 31.526C45.5996 30.994 45.2636 30.56 44.9556 30.224C47.1956 29.888 49.4356 29.44 51.6756 28.88C53.9436 28.292 56.0576 27.62 58.0176 26.864C60.0056 26.08 61.6436 25.226 62.9316 24.302ZM69.7356 25.31C70.4356 27.83 71.3876 30.168 72.5916 32.324C73.8236 34.452 75.3496 36.314 77.1696 37.91C79.0176 39.506 81.2016 40.752 83.7216 41.648C83.3016 42.04 82.8396 42.544 82.3356 43.16C81.8316 43.748 81.3556 44.364 80.9076 45.008C80.4596 45.652 80.0956 46.24 79.8156 46.772C77.0436 45.568 74.6776 44 72.7176 42.068C70.7856 40.108 69.1616 37.812 67.8456 35.18C66.5576 32.548 65.4796 29.622 64.6116 26.402L69.7356 25.31ZM78.1356 27.662L83.0496 31.232C82.0136 31.876 80.9356 32.506 79.8156 33.122C78.6956 33.71 77.5896 34.27 76.4976 34.802C75.4336 35.306 74.4396 35.754 73.5156 36.146L69.6516 32.996C70.5476 32.576 71.5136 32.072 72.5496 31.484C73.5856 30.868 74.5936 30.224 75.5736 29.552C76.5536 28.88 77.4076 28.25 78.1356 27.662ZM54.9936 21.11V23.42H73.1796V21.11H54.9936ZM49.2816 16.784H79.2276V27.746H49.2816V16.784ZM55.5816 7.88L61.8816 9.182C60.2016 11.646 58.2836 13.97 56.1276 16.154C53.9716 18.31 51.3956 20.298 48.3996 22.118C48.1196 21.642 47.7416 21.124 47.2656 20.564C46.7896 20.004 46.2856 19.472 45.7536 18.968C45.2496 18.464 44.7736 18.072 44.3256 17.792C46.1176 16.868 47.7276 15.86 49.1556 14.768C50.5836 13.648 51.8296 12.5 52.8936 11.324C53.9856 10.148 54.8816 9 55.5816 7.88ZM60.7896 19.178H66.7956V26.192H60.7896V19.178ZM65.9556 10.61H67.3416L68.2656 10.358L72.4236 13.088C71.8916 13.9 71.2616 14.796 70.5336 15.776C69.8056 16.728 69.0496 17.652 68.2656 18.548C67.4816 19.444 66.7396 20.228 66.0396 20.9C65.4796 20.452 64.7656 19.948 63.8976 19.388C63.0576 18.828 62.3156 18.366 61.6716 18.002C62.2316 17.414 62.7916 16.742 63.3516 15.986C63.9396 15.202 64.4576 14.432 64.9056 13.676C65.3816 12.892 65.7316 12.234 65.9556 11.702V10.61ZM110.392 15.146C110.084 17.274 109.706 19.542 109.258 21.95C108.81 24.358 108.18 26.878 107.368 29.51C106.556 32.31 105.59 34.76 104.47 36.86C103.35 38.96 102.09 40.598 100.69 41.774C99.3176 42.95 97.8056 43.538 96.1536 43.538C94.4176 43.538 92.8496 42.978 91.4496 41.858C90.0776 40.71 88.9856 39.17 88.1736 37.238C87.3896 35.278 86.9976 33.108 86.9976 30.728C86.9976 28.236 87.5016 25.884 88.5096 23.672C89.5176 21.432 90.9176 19.458 92.7096 17.75C94.5016 16.042 96.6016 14.698 99.0096 13.718C101.418 12.738 104.022 12.248 106.822 12.248C109.51 12.248 111.918 12.682 114.046 13.55C116.202 14.39 118.036 15.58 119.548 17.12C121.088 18.66 122.264 20.466 123.076 22.538C123.888 24.582 124.294 26.794 124.294 29.174C124.294 32.114 123.706 34.774 122.53 37.154C121.354 39.506 119.576 41.48 117.196 43.076C114.816 44.644 111.806 45.736 108.166 46.352L104.302 40.304C105.198 40.192 105.954 40.08 106.57 39.968C107.186 39.828 107.802 39.688 108.418 39.548C109.762 39.212 110.98 38.736 112.072 38.12C113.164 37.504 114.102 36.748 114.886 35.852C115.67 34.956 116.272 33.934 116.692 32.786C117.112 31.61 117.322 30.336 117.322 28.964C117.322 27.34 117.084 25.87 116.608 24.554C116.16 23.238 115.474 22.104 114.55 21.152C113.654 20.2 112.548 19.472 111.232 18.968C109.916 18.464 108.404 18.212 106.696 18.212C104.512 18.212 102.594 18.604 100.942 19.388C99.3176 20.144 97.9596 21.138 96.8676 22.37C95.7756 23.574 94.9496 24.862 94.3896 26.234C93.8576 27.606 93.5916 28.88 93.5916 30.056C93.5916 31.26 93.7176 32.282 93.9696 33.122C94.2216 33.934 94.5436 34.55 94.9356 34.97C95.3556 35.39 95.8176 35.6 96.3216 35.6C96.8816 35.6 97.3996 35.32 97.8756 34.76C98.3796 34.2 98.8556 33.374 99.3036 32.282C99.7796 31.162 100.27 29.79 100.774 28.166C101.418 26.178 101.964 24.036 102.412 21.74C102.86 19.416 103.182 17.148 103.378 14.936L110.392 15.146ZM145.84 9.56C145.784 9.812 145.728 10.204 145.672 10.736C145.616 11.24 145.56 11.758 145.504 12.29C145.448 12.822 145.406 13.27 145.378 13.634C145.322 14.586 145.266 15.524 145.21 16.448C145.182 17.344 145.154 18.24 145.126 19.136C145.098 20.032 145.07 20.928 145.042 21.824C145.042 22.72 145.042 23.63 145.042 24.554C145.042 25.73 145.056 27.046 145.084 28.502C145.112 29.93 145.14 31.358 145.168 32.786C145.224 34.186 145.266 35.46 145.294 36.608C145.322 37.756 145.336 38.624 145.336 39.212C145.336 41.172 145.112 42.698 144.664 43.79C144.244 44.854 143.642 45.582 142.858 45.974C142.102 46.394 141.22 46.604 140.212 46.604C139.092 46.604 137.916 46.38 136.684 45.932C135.452 45.512 134.304 44.91 133.24 44.126C132.204 43.37 131.35 42.474 130.678 41.438C130.034 40.402 129.712 39.282 129.712 38.078C129.712 36.65 130.244 35.236 131.308 33.836C132.372 32.436 133.786 31.162 135.55 30.014C137.314 28.838 139.232 27.9 141.304 27.2C143.18 26.556 145.112 26.08 147.1 25.772C149.116 25.464 150.894 25.31 152.434 25.31C154.646 25.31 156.662 25.688 158.482 26.444C160.33 27.172 161.8 28.25 162.892 29.678C164.012 31.106 164.572 32.856 164.572 34.928C164.572 36.552 164.278 38.078 163.69 39.506C163.13 40.906 162.164 42.138 160.792 43.202C159.42 44.238 157.53 45.064 155.122 45.68C154.142 45.876 153.176 46.03 152.224 46.142C151.272 46.254 150.334 46.352 149.41 46.436L147.1 39.842C148.108 39.842 149.06 39.828 149.956 39.8C150.852 39.744 151.65 39.66 152.35 39.548C153.442 39.352 154.408 39.058 155.248 38.666C156.088 38.246 156.746 37.728 157.222 37.112C157.698 36.468 157.936 35.726 157.936 34.886C157.936 34.046 157.712 33.332 157.264 32.744C156.816 32.156 156.172 31.708 155.332 31.4C154.52 31.064 153.526 30.896 152.35 30.896C150.642 30.896 148.864 31.078 147.016 31.442C145.196 31.778 143.502 32.24 141.934 32.828C140.758 33.276 139.722 33.78 138.826 34.34C137.93 34.9 137.23 35.474 136.726 36.062C136.222 36.65 135.97 37.224 135.97 37.784C135.97 38.036 136.04 38.274 136.18 38.498C136.348 38.722 136.544 38.918 136.768 39.086C137.02 39.254 137.272 39.394 137.524 39.506C137.776 39.59 138 39.632 138.196 39.632C138.504 39.632 138.784 39.548 139.036 39.38C139.288 39.184 139.414 38.722 139.414 37.994C139.414 37.294 139.386 36.244 139.33 34.844C139.302 33.444 139.26 31.862 139.204 30.098C139.176 28.306 139.162 26.528 139.162 24.764C139.162 23.588 139.162 22.44 139.162 21.32C139.162 20.2 139.162 19.164 139.162 18.212C139.162 17.232 139.162 16.364 139.162 15.608C139.162 14.824 139.162 14.18 139.162 13.676C139.162 13.368 139.148 12.948 139.12 12.416C139.092 11.856 139.05 11.31 138.994 10.778C138.966 10.218 138.924 9.812 138.868 9.56H145.84ZM157.18 14.054C158.3 14.558 159.546 15.174 160.918 15.902C162.29 16.602 163.606 17.302 164.866 18.002C166.126 18.702 167.148 19.318 167.932 19.85L164.908 25.016C164.404 24.624 163.704 24.148 162.808 23.588C161.912 23.028 160.932 22.454 159.868 21.866C158.832 21.278 157.824 20.732 156.844 20.228C155.892 19.696 155.094 19.29 154.45 19.01L157.18 14.054ZM131.098 16.07C132.386 16.21 133.52 16.294 134.5 16.322C135.508 16.35 136.39 16.364 137.146 16.364C138.266 16.364 139.484 16.322 140.8 16.238C142.144 16.126 143.502 15.986 144.874 15.818C146.246 15.65 147.59 15.44 148.906 15.188C150.222 14.936 151.426 14.656 152.518 14.348L152.644 20.648C151.412 20.928 150.096 21.18 148.696 21.404C147.296 21.6 145.896 21.782 144.496 21.95C143.124 22.09 141.822 22.202 140.59 22.286C139.358 22.37 138.28 22.412 137.356 22.412C135.844 22.412 134.626 22.398 133.702 22.37C132.778 22.342 131.952 22.286 131.224 22.202L131.098 16.07ZM183.64 28.67C185.74 32.506 188.988 35.53 193.384 37.742C197.78 39.954 203.31 41.396 209.974 42.068C209.526 42.544 209.05 43.146 208.546 43.874C208.07 44.574 207.608 45.302 207.16 46.058C206.712 46.814 206.348 47.486 206.068 48.074C201.336 47.402 197.206 46.338 193.678 44.882C190.15 43.454 187.098 41.564 184.522 39.212C181.946 36.86 179.72 34.004 177.844 30.644L183.64 28.67ZM173.77 23.168H200.44V29.132H173.77V23.168ZM171.628 13.13H207.958V19.178H171.628V13.13ZM186.538 8.09H192.922V25.856H186.538V8.09ZM198.466 23.168H199.726L200.776 22.958L205.102 25.394C203.87 28.894 202.204 31.932 200.104 34.508C198.032 37.084 195.61 39.268 192.838 41.06C190.066 42.824 187.014 44.266 183.682 45.386C180.378 46.534 176.864 47.402 173.14 47.99C172.972 47.43 172.692 46.772 172.3 46.016C171.936 45.288 171.53 44.56 171.082 43.832C170.634 43.104 170.214 42.516 169.822 42.068C173.406 41.648 176.738 41.018 179.818 40.178C182.926 39.338 185.712 38.218 188.176 36.818C190.668 35.418 192.782 33.696 194.518 31.652C196.282 29.58 197.598 27.116 198.466 24.26V23.168ZM234.544 9.14L241.222 10.19C240.83 13.102 240.368 16.056 239.836 19.052C239.332 22.02 238.772 24.946 238.156 27.83C237.568 30.714 236.952 33.458 236.308 36.062C235.664 38.638 235.02 40.99 234.376 43.118L228.58 41.942C229.224 39.786 229.84 37.378 230.428 34.718C231.044 32.058 231.618 29.272 232.15 26.36C232.682 23.448 233.144 20.536 233.536 17.624C233.956 14.684 234.292 11.856 234.544 9.14ZM224.548 40.682C226.396 40.514 228.538 40.304 230.974 40.052C233.438 39.8 236.042 39.52 238.786 39.212C241.53 38.904 244.232 38.596 246.892 38.288L247.102 44C244.638 44.392 242.146 44.77 239.626 45.134C237.134 45.498 234.712 45.848 232.36 46.184C230.008 46.52 227.852 46.828 225.892 47.108L224.548 40.682ZM239.458 28.544L244.918 26.696C245.926 28.684 246.92 30.826 247.9 33.122C248.908 35.39 249.804 37.616 250.588 39.8C251.4 41.984 251.988 43.944 252.352 45.68L246.262 47.948C246.038 46.688 245.688 45.26 245.212 43.664C244.764 42.068 244.232 40.416 243.616 38.708C243 36.972 242.328 35.236 241.6 33.5C240.9 31.764 240.186 30.112 239.458 28.544ZM212.41 15.776H228.874V21.446H212.41V15.776ZM217.954 8.048H223.918V41.522C223.918 42.978 223.764 44.112 223.456 44.924C223.148 45.736 222.588 46.38 221.776 46.856C220.936 47.304 219.928 47.598 218.752 47.738C217.576 47.906 216.176 47.99 214.552 47.99C214.44 47.178 214.216 46.212 213.88 45.092C213.572 44 213.222 43.062 212.83 42.278C213.67 42.306 214.51 42.334 215.35 42.362C216.218 42.362 216.806 42.362 217.114 42.362C217.422 42.334 217.632 42.264 217.744 42.152C217.884 42.012 217.954 41.788 217.954 41.48V8.048ZM211.738 28.712C213.194 28.516 214.86 28.278 216.736 27.998C218.64 27.718 220.628 27.41 222.7 27.074C224.8 26.71 226.872 26.36 228.916 26.024L229.336 31.4C227.46 31.792 225.556 32.184 223.624 32.576C221.72 32.94 219.858 33.304 218.038 33.668C216.218 34.032 214.524 34.368 212.956 34.676L211.738 28.712ZM264.658 13.592C264.546 14.18 264.448 14.838 264.364 15.566C264.28 16.294 264.21 16.994 264.154 17.666C264.098 18.338 264.07 18.884 264.07 19.304C264.07 20.228 264.07 21.152 264.07 22.076C264.098 23 264.126 23.924 264.154 24.848C264.182 25.744 264.238 26.668 264.322 27.62C264.49 29.44 264.714 31.064 264.994 32.492C265.274 33.892 265.652 34.998 266.128 35.81C266.632 36.594 267.29 36.986 268.102 36.986C268.578 36.986 269.026 36.706 269.446 36.146C269.866 35.586 270.244 34.872 270.58 34.004C270.944 33.136 271.252 32.24 271.504 31.316C271.756 30.392 271.966 29.58 272.134 28.88L277.258 35.18C276.278 37.644 275.312 39.618 274.36 41.102C273.408 42.558 272.414 43.608 271.378 44.252C270.342 44.896 269.208 45.218 267.976 45.218C266.324 45.218 264.784 44.714 263.356 43.706C261.956 42.67 260.752 41.004 259.744 38.708C258.764 36.384 258.078 33.318 257.686 29.51C257.546 28.166 257.434 26.78 257.35 25.352C257.294 23.924 257.252 22.566 257.224 21.278C257.224 19.99 257.224 18.912 257.224 18.044C257.224 17.4 257.196 16.672 257.14 15.86C257.084 15.02 256.986 14.236 256.846 13.508L264.658 13.592ZM285.196 14.39C286.008 15.342 286.792 16.532 287.548 17.96C288.304 19.388 288.99 20.928 289.606 22.58C290.25 24.232 290.81 25.912 291.286 27.62C291.762 29.3 292.14 30.924 292.42 32.492C292.728 34.06 292.924 35.446 293.008 36.65L286.246 39.254C286.106 37.658 285.854 35.838 285.49 33.794C285.154 31.75 284.678 29.664 284.062 27.536C283.474 25.38 282.732 23.336 281.836 21.404C280.968 19.472 279.918 17.834 278.686 16.49L285.196 14.39ZM307.498 15.132C306.977 15.132 306.532 14.9472 306.162 14.5776C305.792 14.208 305.608 13.7628 305.608 13.242C305.608 12.7212 305.792 12.276 306.162 11.9064C306.532 11.5368 306.977 11.352 307.498 11.352C308.018 11.352 308.464 11.5368 308.833 11.9064C309.203 12.276 309.388 12.7212 309.388 13.242C309.388 13.7628 309.203 14.208 308.833 14.5776C308.464 14.9472 308.018 15.132 307.498 15.132ZM307.498 19.6932L315.814 11.3772L316.544 12.108L308.228 20.424L316.544 28.74L315.814 29.4708L307.498 21.1548L299.156 29.496L298.426 28.7652L306.767 20.424L298.451 12.108L299.182 11.3772L307.498 19.6932ZM302.206 20.424C302.206 20.9448 302.021 21.39 301.651 21.7596C301.282 22.1292 300.836 22.314 300.316 22.314C299.795 22.314 299.35 22.1292 298.98 21.7596C298.61 21.39 298.426 20.9448 298.426 20.424C298.426 19.9032 298.61 19.458 298.98 19.0884C299.35 18.7188 299.795 18.534 300.316 18.534C300.836 18.534 301.282 18.7188 301.651 19.0884C302.021 19.458 302.206 19.9032 302.206 20.424ZM312.79 20.424C312.79 19.9032 312.974 19.458 313.344 19.0884C313.714 18.7188 314.159 18.534 314.68 18.534C315.2 18.534 315.646 18.7188 316.015 19.0884C316.385 19.458 316.57 19.9032 316.57 20.424C316.57 20.9448 316.385 21.39 316.015 21.7596C315.646 22.1292 315.2 22.314 314.68 22.314C314.159 22.314 313.714 22.1292 313.344 21.7596C312.974 21.39 312.79 20.9448 312.79 20.424ZM307.498 25.716C308.018 25.716 308.464 25.9008 308.833 26.2704C309.203 26.64 309.388 27.0852 309.388 27.606C309.388 28.1268 309.203 28.572 308.833 28.9416C308.464 29.3112 308.018 29.496 307.498 29.496C306.977 29.496 306.532 29.3112 306.162 28.9416C305.792 28.572 305.608 28.1268 305.608 27.606C305.608 27.0852 305.792 26.64 306.162 26.2704C306.532 25.9008 306.977 25.716 307.498 25.716ZM322.819 30V26.3712H326.801V15.7116H323.348V12.9396C324.356 12.7548 325.213 12.528 325.919 12.2592C326.641 11.9904 327.33 11.646 327.985 11.226H331.286V26.3712H334.663V30H322.819ZM349.566 15.132C349.045 15.132 348.6 14.9472 348.23 14.5776C347.861 14.208 347.676 13.7628 347.676 13.242C347.676 12.7212 347.861 12.276 348.23 11.9064C348.6 11.5368 349.045 11.352 349.566 11.352C350.087 11.352 350.532 11.5368 350.901 11.9064C351.271 12.276 351.456 12.7212 351.456 13.242C351.456 13.7628 351.271 14.208 350.901 14.5776C350.532 14.9472 350.087 15.132 349.566 15.132ZM349.566 19.6932L357.882 11.3772L358.613 12.108L350.297 20.424L358.613 28.74L357.882 29.4708L349.566 21.1548L341.225 29.496L340.494 28.7652L348.835 20.424L340.519 12.108L341.25 11.3772L349.566 19.6932ZM344.274 20.424C344.274 20.9448 344.089 21.39 343.719 21.7596C343.35 22.1292 342.905 22.314 342.384 22.314C341.863 22.314 341.418 22.1292 341.048 21.7596C340.679 21.39 340.494 20.9448 340.494 20.424C340.494 19.9032 340.679 19.458 341.048 19.0884C341.418 18.7188 341.863 18.534 342.384 18.534C342.905 18.534 343.35 18.7188 343.719 19.0884C344.089 19.458 344.274 19.9032 344.274 20.424ZM354.858 20.424C354.858 19.9032 355.043 19.458 355.412 19.0884C355.782 18.7188 356.227 18.534 356.748 18.534C357.269 18.534 357.714 18.7188 358.083 19.0884C358.453 19.458 358.638 19.9032 358.638 20.424C358.638 20.9448 358.453 21.39 358.083 21.7596C357.714 22.1292 357.269 22.314 356.748 22.314C356.227 22.314 355.782 22.1292 355.412 21.7596C355.043 21.39 354.858 20.9448 354.858 20.424ZM349.566 25.716C350.087 25.716 350.532 25.9008 350.901 26.2704C351.271 26.64 351.456 27.0852 351.456 27.606C351.456 28.1268 351.271 28.572 350.901 28.9416C350.532 29.3112 350.087 29.496 349.566 29.496C349.045 29.496 348.6 29.3112 348.23 28.9416C347.861 28.572 347.676 28.1268 347.676 27.606C347.676 27.0852 347.861 26.64 348.23 26.2704C348.6 25.9008 349.045 25.716 349.566 25.716ZM363.98 30V27.4296C365.543 26.0016 366.912 24.6744 368.088 23.448C369.264 22.2216 370.179 21.0792 370.835 20.0208C371.49 18.9456 371.817 17.9544 371.817 17.0472C371.817 16.476 371.717 15.9972 371.515 15.6108C371.33 15.2076 371.053 14.9052 370.683 14.7036C370.314 14.502 369.877 14.4012 369.373 14.4012C368.735 14.4012 368.155 14.586 367.634 14.9556C367.13 15.3084 366.651 15.7284 366.198 16.2156L363.753 13.7964C364.677 12.8052 365.61 12.0744 366.551 11.604C367.508 11.1336 368.651 10.8984 369.978 10.8984C371.187 10.8984 372.254 11.142 373.178 11.6292C374.102 12.1164 374.825 12.8052 375.345 13.6956C375.866 14.5692 376.127 15.6024 376.127 16.7952C376.127 17.8704 375.849 18.9708 375.295 20.0964C374.757 21.2052 374.06 22.3056 373.203 23.3976C372.347 24.4728 371.439 25.4976 370.482 26.472C370.952 26.4048 371.473 26.346 372.044 26.2956C372.632 26.2452 373.136 26.22 373.556 26.22H376.983V30H363.98ZM391.634 15.132C391.113 15.132 390.668 14.9472 390.299 14.5776C389.929 14.208 389.744 13.7628 389.744 13.242C389.744 12.7212 389.929 12.276 390.299 11.9064C390.668 11.5368 391.113 11.352 391.634 11.352C392.155 11.352 392.6 11.5368 392.97 11.9064C393.339 12.276 393.524 12.7212 393.524 13.242C393.524 13.7628 393.339 14.208 392.97 14.5776C392.6 14.9472 392.155 15.132 391.634 15.132ZM391.634 19.6932L399.95 11.3772L400.681 12.108L392.365 20.424L400.681 28.74L399.95 29.4708L391.634 21.1548L383.293 29.496L382.562 28.7652L390.903 20.424L382.587 12.108L383.318 11.3772L391.634 19.6932ZM386.342 20.424C386.342 20.9448 386.157 21.39 385.788 21.7596C385.418 22.1292 384.973 22.314 384.452 22.314C383.931 22.314 383.486 22.1292 383.117 21.7596C382.747 21.39 382.562 20.9448 382.562 20.424C382.562 19.9032 382.747 19.458 383.117 19.0884C383.486 18.7188 383.931 18.534 384.452 18.534C384.973 18.534 385.418 18.7188 385.788 19.0884C386.157 19.458 386.342 19.9032 386.342 20.424ZM396.926 20.424C396.926 19.9032 397.111 19.458 397.481 19.0884C397.85 18.7188 398.295 18.534 398.816 18.534C399.337 18.534 399.782 18.7188 400.152 19.0884C400.521 19.458 400.706 19.9032 400.706 20.424C400.706 20.9448 400.521 21.39 400.152 21.7596C399.782 22.1292 399.337 22.314 398.816 22.314C398.295 22.314 397.85 22.1292 397.481 21.7596C397.111 21.39 396.926 20.9448 396.926 20.424ZM391.634 25.716C392.155 25.716 392.6 25.9008 392.97 26.2704C393.339 26.64 393.524 27.0852 393.524 27.606C393.524 28.1268 393.339 28.572 392.97 28.9416C392.6 29.3112 392.155 29.496 391.634 29.496C391.113 29.496 390.668 29.3112 390.299 28.9416C389.929 28.572 389.744 28.1268 389.744 27.606C389.744 27.0852 389.929 26.64 390.299 26.2704C390.668 25.9008 391.113 25.716 391.634 25.716ZM412.021 30.3528C411.03 30.3528 410.131 30.2436 409.325 30.0252C408.535 29.8068 407.829 29.5044 407.208 29.118C406.586 28.7148 406.049 28.2528 405.595 27.732L407.661 24.9096C408.233 25.4304 408.846 25.8672 409.501 26.22C410.156 26.556 410.845 26.724 411.567 26.724C412.155 26.724 412.659 26.6484 413.079 26.4972C413.516 26.3292 413.852 26.0856 414.087 25.7664C414.323 25.4472 414.44 25.0524 414.44 24.582C414.44 24.0444 414.314 23.5824 414.062 23.196C413.81 22.8096 413.34 22.5156 412.651 22.314C411.962 22.1124 410.963 22.0116 409.652 22.0116V18.8364C410.727 18.8364 411.567 18.7356 412.172 18.534C412.777 18.3324 413.205 18.0468 413.457 17.6772C413.726 17.3076 413.861 16.8792 413.861 16.392C413.861 15.7536 413.676 15.2664 413.306 14.9304C412.937 14.5776 412.407 14.4012 411.719 14.4012C411.097 14.4012 410.526 14.5356 410.005 14.8044C409.484 15.0732 408.938 15.4596 408.367 15.9636L406.099 13.2168C406.973 12.4776 407.88 11.9064 408.821 11.5032C409.778 11.1 410.811 10.8984 411.92 10.8984C413.214 10.8984 414.339 11.1 415.297 11.5032C416.271 11.8896 417.019 12.4692 417.54 13.242C418.077 13.998 418.346 14.9388 418.346 16.0644C418.346 16.9884 418.094 17.8116 417.59 18.534C417.086 19.2396 416.339 19.794 415.347 20.1972V20.3232C416.036 20.5248 416.649 20.8356 417.187 21.2556C417.741 21.6588 418.17 22.1628 418.472 22.7676C418.791 23.3724 418.951 24.078 418.951 24.8844C418.951 26.0436 418.632 27.0348 417.993 27.858C417.355 28.6644 416.507 29.286 415.448 29.7228C414.407 30.1428 413.264 30.3528 412.021 30.3528ZM439.708 14.054C441.08 14.222 442.592 14.348 444.244 14.432C445.896 14.488 447.562 14.502 449.242 14.474C450.95 14.446 452.574 14.39 454.114 14.306C455.682 14.222 457.054 14.124 458.23 14.012V20.564C456.858 20.676 455.388 20.774 453.82 20.858C452.252 20.914 450.656 20.942 449.032 20.942C447.408 20.942 445.798 20.914 444.202 20.858C442.634 20.774 441.15 20.676 439.75 20.564L439.708 14.054ZM444.034 32.45C443.894 33.122 443.782 33.71 443.698 34.214C443.642 34.718 443.614 35.25 443.614 35.81C443.614 36.258 443.726 36.65 443.95 36.986C444.174 37.322 444.496 37.588 444.916 37.784C445.364 37.98 445.91 38.134 446.554 38.246C447.198 38.33 447.954 38.372 448.822 38.372C450.698 38.372 452.448 38.288 454.072 38.12C455.724 37.924 457.502 37.63 459.406 37.238L459.532 44.126C458.16 44.378 456.592 44.574 454.828 44.714C453.092 44.854 450.978 44.924 448.486 44.924C444.818 44.924 442.06 44.28 440.212 42.992C438.392 41.704 437.482 39.94 437.482 37.7C437.482 36.804 437.538 35.894 437.65 34.97C437.79 34.046 437.986 33.038 438.238 31.946L444.034 32.45ZM434.122 11.492C434.01 11.8 433.87 12.248 433.702 12.836C433.534 13.424 433.38 13.998 433.24 14.558C433.1 15.118 433.002 15.524 432.946 15.776C432.862 16.224 432.736 16.896 432.568 17.792C432.4 18.688 432.218 19.724 432.022 20.9C431.854 22.048 431.686 23.238 431.518 24.47C431.35 25.674 431.21 26.836 431.098 27.956C430.986 29.048 430.93 29.986 430.93 30.77C430.93 30.826 430.93 30.98 430.93 31.232C430.93 31.484 430.944 31.652 430.972 31.736C431.168 31.344 431.35 30.98 431.518 30.644C431.714 30.308 431.896 29.972 432.064 29.636C432.26 29.272 432.442 28.894 432.61 28.502L435.676 30.938C435.256 32.198 434.836 33.514 434.416 34.886C434.024 36.258 433.674 37.546 433.366 38.75C433.058 39.954 432.82 40.948 432.652 41.732C432.596 42.04 432.54 42.404 432.484 42.824C432.428 43.244 432.4 43.552 432.4 43.748C432.4 43.972 432.4 44.252 432.4 44.588C432.4 44.952 432.414 45.302 432.442 45.638L426.562 46.016C426.142 44.616 425.75 42.684 425.386 40.22C425.05 37.728 424.882 35.054 424.882 32.198C424.882 30.602 424.938 28.992 425.05 27.368C425.19 25.744 425.344 24.19 425.512 22.706C425.708 21.194 425.89 19.836 426.058 18.632C426.254 17.428 426.408 16.434 426.52 15.65C426.604 15.006 426.702 14.25 426.814 13.382C426.926 12.514 426.996 11.688 427.024 10.904L434.122 11.492ZM483.64 17.036H503.884V22.874H483.64V17.036ZM464.824 14.306H485.068V19.934H464.824V14.306ZM493.636 8.09H499.684V40.598C499.684 42.222 499.516 43.496 499.18 44.42C498.872 45.372 498.27 46.114 497.374 46.646C496.478 47.178 495.358 47.528 494.014 47.696C492.67 47.864 491.13 47.948 489.394 47.948C489.338 47.332 489.212 46.632 489.016 45.848C488.82 45.064 488.582 44.28 488.302 43.496C488.05 42.684 487.784 41.97 487.504 41.354C488.596 41.41 489.632 41.452 490.612 41.48C491.62 41.48 492.306 41.48 492.67 41.48C493.034 41.48 493.286 41.424 493.426 41.312C493.566 41.172 493.636 40.92 493.636 40.556V8.09ZM482.674 27.998L487.546 25.604C488.19 26.5 488.82 27.466 489.436 28.502C490.08 29.538 490.64 30.56 491.116 31.568C491.592 32.576 491.942 33.5 492.166 34.34L486.916 37.028C486.72 36.216 486.398 35.292 485.95 34.256C485.53 33.192 485.026 32.114 484.438 31.022C483.878 29.93 483.29 28.922 482.674 27.998ZM465.328 25.814L469.612 22.328C470.844 23.644 472.118 25.058 473.434 26.57C474.75 28.082 476.024 29.622 477.256 31.19C478.516 32.73 479.636 34.242 480.616 35.726C481.624 37.21 482.436 38.596 483.052 39.884L478.18 44.042C477.648 42.754 476.906 41.354 475.954 39.842C475.002 38.302 473.938 36.72 472.762 35.096C471.586 33.472 470.354 31.862 469.066 30.266C467.806 28.67 466.56 27.186 465.328 25.814ZM471.796 8.132H477.634V17.792H471.796V8.132ZM476.248 20.69L482.17 21.53C481.47 25.506 480.49 29.146 479.23 32.45C477.97 35.726 476.388 38.638 474.484 41.186C472.58 43.734 470.298 45.904 467.638 47.696C467.386 47.276 467.008 46.758 466.504 46.142C466.028 45.554 465.524 44.952 464.992 44.336C464.46 43.748 463.984 43.272 463.564 42.908C466.028 41.48 468.1 39.688 469.78 37.532C471.488 35.376 472.86 32.884 473.896 30.056C474.96 27.228 475.744 24.106 476.248 20.69ZM521.44 10.358C521.3 11.338 521.174 12.416 521.062 13.592C520.95 14.768 520.866 15.818 520.81 16.742C520.754 17.834 520.698 19.178 520.642 20.774C520.586 22.342 520.53 23.994 520.474 25.73C520.418 27.438 520.376 29.104 520.348 30.728C520.32 32.324 520.306 33.696 520.306 34.844C520.306 36.188 520.53 37.252 520.978 38.036C521.454 38.792 522.084 39.338 522.868 39.674C523.652 39.982 524.52 40.136 525.472 40.136C527.096 40.136 528.594 39.912 529.966 39.464C531.338 39.016 532.598 38.414 533.746 37.658C534.894 36.874 535.944 35.964 536.896 34.928C537.848 33.892 538.702 32.786 539.458 31.61L544.078 37.28C543.434 38.288 542.552 39.366 541.432 40.514C540.34 41.634 539.01 42.698 537.442 43.706C535.902 44.714 534.124 45.526 532.108 46.142C530.092 46.786 527.866 47.108 525.43 47.108C522.994 47.108 520.88 46.73 519.088 45.974C517.296 45.218 515.91 44.056 514.93 42.488C513.978 40.892 513.502 38.876 513.502 36.44C513.502 35.376 513.516 34.13 513.544 32.702C513.572 31.246 513.6 29.734 513.628 28.166C513.684 26.57 513.726 25.016 513.754 23.504C513.782 21.992 513.81 20.648 513.838 19.472C513.866 18.268 513.88 17.358 513.88 16.742C513.88 15.594 513.824 14.474 513.712 13.382C513.628 12.262 513.474 11.226 513.25 10.274L521.44 10.358ZM121.704 65.844C121.564 65.2 121.41 64.612 121.242 64.08C121.102 63.548 120.948 63.016 120.78 62.484L127.962 61.35C128.018 61.77 128.074 62.316 128.13 62.988C128.214 63.66 128.312 64.262 128.424 64.794C128.508 65.27 128.634 66.054 128.802 67.146C128.998 68.21 129.236 69.498 129.516 71.01C129.796 72.494 130.104 74.104 130.44 75.84C130.776 77.548 131.112 79.284 131.448 81.048C131.784 82.812 132.106 84.506 132.414 86.13C132.722 87.726 133.002 89.168 133.254 90.456C133.506 91.716 133.702 92.71 133.842 93.438C133.982 94.054 134.15 94.74 134.346 95.496C134.542 96.252 134.738 96.994 134.934 97.722L127.626 98.982C127.514 98.17 127.43 97.386 127.374 96.63C127.318 95.874 127.22 95.188 127.08 94.572C126.968 93.928 126.8 93.004 126.576 91.8C126.38 90.596 126.128 89.21 125.82 87.642C125.54 86.074 125.232 84.422 124.896 82.686C124.56 80.95 124.224 79.214 123.888 77.478C123.58 75.714 123.272 74.062 122.964 72.522C122.684 70.982 122.432 69.638 122.208 68.49C121.984 67.314 121.816 66.432 121.704 65.844ZM110.448 70.8C111.176 70.744 111.876 70.702 112.548 70.674C113.248 70.618 113.92 70.548 114.564 70.464C115.152 70.38 116.006 70.268 117.126 70.128C118.246 69.96 119.52 69.778 120.948 69.582C122.404 69.358 123.902 69.134 125.442 68.91C127.01 68.658 128.522 68.42 129.978 68.196C131.434 67.944 132.722 67.72 133.842 67.524C134.99 67.328 135.872 67.174 136.488 67.062C137.188 66.922 137.958 66.768 138.798 66.6C139.638 66.404 140.352 66.222 140.94 66.054L142.158 72.69C141.626 72.718 140.926 72.802 140.058 72.942C139.218 73.054 138.462 73.152 137.79 73.236C137.034 73.348 136.04 73.502 134.808 73.698C133.576 73.894 132.218 74.118 130.734 74.37C129.25 74.594 127.738 74.832 126.198 75.084C124.658 75.336 123.188 75.574 121.788 75.798C120.416 76.022 119.212 76.218 118.176 76.386C117.14 76.554 116.384 76.68 115.908 76.764C115.208 76.904 114.536 77.044 113.892 77.184C113.276 77.324 112.576 77.506 111.792 77.73L110.448 70.8ZM110.574 83.232C111.162 83.204 111.918 83.148 112.842 83.064C113.766 82.952 114.578 82.84 115.278 82.728C116.034 82.616 117.042 82.462 118.302 82.266C119.562 82.07 120.976 81.846 122.544 81.594C124.112 81.342 125.722 81.09 127.374 80.838C129.054 80.558 130.678 80.292 132.246 80.04C133.814 79.76 135.242 79.508 136.53 79.284C137.846 79.06 138.896 78.878 139.68 78.738C140.492 78.57 141.304 78.388 142.116 78.192C142.956 77.996 143.684 77.814 144.3 77.646L145.644 84.324C145.028 84.352 144.272 84.436 143.376 84.576C142.508 84.716 141.668 84.856 140.856 84.996C139.988 85.136 138.882 85.318 137.538 85.542C136.222 85.738 134.766 85.976 133.17 86.256C131.574 86.508 129.936 86.774 128.256 87.054C126.604 87.306 125.008 87.572 123.468 87.852C121.928 88.104 120.542 88.342 119.31 88.566C118.106 88.762 117.154 88.93 116.454 89.07C115.502 89.238 114.634 89.392 113.85 89.532C113.094 89.672 112.478 89.812 112.002 89.952L110.574 83.232ZM166.224 68.784C166.308 69.344 166.42 69.918 166.56 70.506C166.7 71.094 166.826 71.668 166.938 72.228C167.218 73.208 167.54 74.37 167.904 75.714C168.268 77.03 168.66 78.444 169.08 79.956C169.5 81.468 169.92 82.994 170.34 84.534C170.76 86.046 171.166 87.502 171.558 88.902C171.95 90.274 172.3 91.506 172.608 92.598C172.916 93.69 173.168 94.558 173.364 95.202C173.448 95.426 173.56 95.776 173.7 96.252C173.84 96.756 173.994 97.26 174.162 97.764C174.33 98.268 174.47 98.674 174.582 98.982L167.694 100.662C167.61 100.046 167.498 99.374 167.358 98.646C167.218 97.918 167.05 97.246 166.854 96.63C166.658 95.958 166.406 95.048 166.098 93.9C165.818 92.752 165.482 91.464 165.09 90.036C164.726 88.58 164.334 87.082 163.914 85.542C163.522 83.974 163.13 82.448 162.738 80.964C162.346 79.452 161.968 78.066 161.604 76.806C161.268 75.518 160.974 74.454 160.722 73.614C160.582 73.054 160.386 72.508 160.134 71.976C159.91 71.416 159.672 70.884 159.42 70.38L166.224 68.784ZM186.384 75.672C185.936 76.596 185.362 77.674 184.662 78.906C183.962 80.11 183.192 81.356 182.352 82.644C181.512 83.904 180.672 85.122 179.832 86.298C178.992 87.446 178.194 88.44 177.438 89.28L171.852 86.508C172.496 85.92 173.182 85.206 173.91 84.366C174.666 83.498 175.366 82.63 176.01 81.762C176.682 80.894 177.172 80.166 177.48 79.578C177.144 79.634 176.556 79.746 175.716 79.914C174.904 80.082 173.924 80.292 172.776 80.544C171.656 80.768 170.424 81.02 169.08 81.3C167.764 81.58 166.434 81.874 165.09 82.182C163.746 82.462 162.458 82.742 161.226 83.022C159.994 83.274 158.902 83.512 157.95 83.736C156.998 83.932 156.256 84.086 155.724 84.198L154.17 78.15C154.87 78.094 155.542 78.024 156.186 77.94C156.83 77.856 157.516 77.758 158.244 77.646C158.58 77.59 159.168 77.492 160.008 77.352C160.848 77.212 161.842 77.03 162.99 76.806C164.138 76.582 165.37 76.344 166.686 76.092C168.03 75.84 169.374 75.588 170.718 75.336C172.062 75.084 173.336 74.846 174.54 74.622C175.772 74.37 176.85 74.16 177.774 73.992C178.698 73.796 179.398 73.642 179.874 73.53C180.294 73.446 180.714 73.334 181.134 73.194C181.582 73.054 181.96 72.914 182.268 72.774L186.384 75.672ZM201.504 63.408C202.232 63.912 203.086 64.542 204.066 65.298C205.046 66.026 206.054 66.824 207.09 67.692C208.154 68.532 209.148 69.372 210.072 70.212C211.024 71.024 211.808 71.766 212.424 72.438L207.216 77.772C206.656 77.156 205.942 76.442 205.074 75.63C204.206 74.79 203.268 73.936 202.26 73.068C201.252 72.172 200.258 71.332 199.278 70.548C198.298 69.764 197.43 69.106 196.674 68.574L201.504 63.408ZM195.288 91.296C197.36 91.016 199.32 90.624 201.168 90.12C203.044 89.616 204.808 89.028 206.46 88.356C208.112 87.684 209.624 86.956 210.996 86.172C213.516 84.716 215.812 83.064 217.884 81.216C219.956 79.34 221.762 77.394 223.302 75.378C224.87 73.334 226.116 71.332 227.04 69.372L230.988 76.554C229.868 78.542 228.482 80.502 226.83 82.434C225.178 84.338 223.316 86.144 221.244 87.852C219.2 89.56 217.002 91.1 214.65 92.472C213.222 93.312 211.682 94.11 210.03 94.866C208.378 95.594 206.67 96.224 204.906 96.756C203.142 97.316 201.378 97.736 199.614 98.016L195.288 91.296ZM263.832 70.002C263.832 70.674 264.07 71.248 264.546 71.724C265.022 72.2 265.596 72.438 266.268 72.438C266.94 72.438 267.514 72.2 267.99 71.724C268.466 71.248 268.704 70.674 268.704 70.002C268.704 69.33 268.466 68.756 267.99 68.28C267.514 67.804 266.94 67.566 266.268 67.566C265.596 67.566 265.022 67.804 264.546 68.28C264.07 68.756 263.832 69.33 263.832 70.002ZM260.64 70.002C260.64 68.938 260.892 67.986 261.396 67.146C261.9 66.278 262.572 65.592 263.412 65.088C264.28 64.584 265.232 64.332 266.268 64.332C267.332 64.332 268.284 64.584 269.124 65.088C269.992 65.592 270.678 66.278 271.182 67.146C271.686 67.986 271.938 68.938 271.938 70.002C271.938 71.038 271.686 71.99 271.182 72.858C270.678 73.698 269.992 74.37 269.124 74.874C268.284 75.378 267.332 75.63 266.268 75.63C265.232 75.63 264.28 75.378 263.412 74.874C262.572 74.37 261.9 73.698 261.396 72.858C260.892 71.99 260.64 71.038 260.64 70.002ZM234.096 83.526C234.768 82.966 235.384 82.434 235.944 81.93C236.504 81.398 237.134 80.782 237.834 80.082C238.31 79.606 238.842 79.032 239.43 78.36C240.018 77.688 240.662 76.946 241.362 76.134C242.062 75.294 242.776 74.426 243.504 73.53C244.26 72.606 245.016 71.696 245.772 70.8C247.088 69.232 248.46 68.378 249.888 68.238C251.344 68.07 252.94 68.812 254.676 70.464C255.684 71.388 256.678 72.354 257.658 73.362C258.638 74.342 259.59 75.322 260.514 76.302C261.466 77.282 262.362 78.234 263.202 79.158C264.154 80.166 265.232 81.314 266.436 82.602C267.64 83.89 268.872 85.206 270.132 86.55C271.392 87.894 272.554 89.14 273.618 90.288L267.99 96.336C267.094 95.188 266.128 93.984 265.092 92.724C264.084 91.436 263.09 90.19 262.11 88.986C261.13 87.754 260.248 86.676 259.464 85.752C258.848 84.996 258.176 84.212 257.448 83.4C256.72 82.56 256.006 81.748 255.306 80.964C254.606 80.152 253.962 79.438 253.374 78.822C252.786 78.178 252.324 77.674 251.988 77.31C251.372 76.694 250.812 76.4 250.308 76.428C249.832 76.456 249.328 76.82 248.796 77.52C248.432 77.996 247.998 78.584 247.494 79.284C247.018 79.956 246.514 80.67 245.982 81.426C245.45 82.182 244.932 82.924 244.428 83.652C243.924 84.38 243.476 85.024 243.084 85.584C242.58 86.312 242.076 87.054 241.572 87.81C241.068 88.566 240.62 89.252 240.228 89.868L234.096 83.526ZM278.658 75.84C279.218 75.868 279.932 75.91 280.8 75.966C281.696 76.022 282.606 76.064 283.53 76.092C284.454 76.12 285.252 76.134 285.924 76.134C286.792 76.134 287.758 76.134 288.822 76.134C289.914 76.134 291.062 76.134 292.266 76.134C293.47 76.134 294.688 76.134 295.92 76.134C297.18 76.134 298.412 76.134 299.616 76.134C300.82 76.134 301.968 76.134 303.06 76.134C304.152 76.134 305.132 76.134 306 76.134C306.896 76.134 307.638 76.134 308.226 76.134C309.178 76.134 310.116 76.092 311.04 76.008C311.992 75.924 312.776 75.868 313.392 75.84V83.862C312.86 83.834 312.076 83.792 311.04 83.736C310.032 83.652 309.094 83.61 308.226 83.61C307.638 83.61 306.896 83.61 306 83.61C305.104 83.61 304.11 83.61 303.018 83.61C301.926 83.61 300.778 83.61 299.574 83.61C298.37 83.61 297.138 83.61 295.878 83.61C294.646 83.61 293.428 83.61 292.224 83.61C291.02 83.61 289.872 83.61 288.78 83.61C287.716 83.61 286.764 83.61 285.924 83.61C284.72 83.61 283.418 83.638 282.018 83.694C280.646 83.75 279.526 83.806 278.658 83.862V75.84ZM325.412 63.408C326.14 63.912 326.994 64.542 327.974 65.298C328.954 66.026 329.962 66.824 330.998 67.692C332.062 68.532 333.056 69.372 333.98 70.212C334.932 71.024 335.716 71.766 336.332 72.438L331.124 77.772C330.564 77.156 329.85 76.442 328.982 75.63C328.114 74.79 327.176 73.936 326.168 73.068C325.16 72.172 324.166 71.332 323.186 70.548C322.206 69.764 321.338 69.106 320.582 68.574L325.412 63.408ZM319.196 91.296C321.268 91.016 323.228 90.624 325.076 90.12C326.952 89.616 328.716 89.028 330.368 88.356C332.02 87.684 333.532 86.956 334.904 86.172C337.424 84.716 339.72 83.064 341.792 81.216C343.864 79.34 345.67 77.394 347.21 75.378C348.778 73.334 350.024 71.332 350.948 69.372L354.896 76.554C353.776 78.542 352.39 80.502 350.738 82.434C349.086 84.338 347.224 86.144 345.152 87.852C343.108 89.56 340.91 91.1 338.558 92.472C337.13 93.312 335.59 94.11 333.938 94.866C332.286 95.594 330.578 96.224 328.814 96.756C327.05 97.316 325.286 97.736 323.522 98.016L319.196 91.296ZM360.44 67.272H395.636V89.112H389.21V73.278H366.572V89.322H360.44V67.272ZM363.59 81.132H392.738V87.138H363.59V81.132ZM374.636 60.09H381.104V99.99H374.636V60.09ZM415.166 69.666C416.398 69.778 417.63 69.876 418.862 69.96C420.122 70.016 421.396 70.044 422.684 70.044C425.26 70.044 427.836 69.932 430.412 69.708C432.988 69.456 435.382 69.092 437.594 68.616V74.958C435.41 75.266 433.03 75.504 430.454 75.672C427.878 75.84 425.302 75.938 422.726 75.966C421.466 75.966 420.206 75.952 418.946 75.924C417.686 75.868 416.44 75.798 415.208 75.714L415.166 69.666ZM431.882 62.82C431.826 63.212 431.77 63.66 431.714 64.164C431.686 64.668 431.658 65.158 431.63 65.634C431.602 66.054 431.574 66.642 431.546 67.398C431.518 68.154 431.49 69.022 431.462 70.002C431.462 70.954 431.462 71.99 431.462 73.11C431.462 75.21 431.49 77.114 431.546 78.822C431.63 80.502 431.714 82.028 431.798 83.4C431.882 84.744 431.952 85.976 432.008 87.096C432.092 88.188 432.134 89.21 432.134 90.162C432.134 91.394 431.966 92.514 431.63 93.522C431.294 94.502 430.776 95.342 430.076 96.042C429.376 96.77 428.466 97.316 427.346 97.68C426.254 98.072 424.924 98.268 423.356 98.268C420.388 98.268 418.008 97.652 416.216 96.42C414.424 95.188 413.528 93.382 413.528 91.002C413.528 89.434 413.934 88.076 414.746 86.928C415.558 85.752 416.692 84.856 418.148 84.24C419.604 83.596 421.312 83.274 423.272 83.274C425.372 83.274 427.262 83.498 428.942 83.946C430.65 84.394 432.19 84.982 433.562 85.71C434.934 86.438 436.138 87.222 437.174 88.062C438.238 88.874 439.162 89.644 439.946 90.372L436.502 95.706C434.822 94.11 433.212 92.752 431.672 91.632C430.132 90.512 428.634 89.658 427.178 89.07C425.722 88.482 424.252 88.188 422.768 88.188C421.788 88.188 420.99 88.37 420.374 88.734C419.786 89.098 419.492 89.616 419.492 90.288C419.492 91.016 419.814 91.534 420.458 91.842C421.102 92.122 421.872 92.262 422.768 92.262C423.44 92.262 423.986 92.136 424.406 91.884C424.826 91.632 425.12 91.254 425.288 90.75C425.484 90.246 425.582 89.616 425.582 88.86C425.582 88.16 425.554 87.25 425.498 86.13C425.442 84.982 425.372 83.708 425.288 82.308C425.232 80.908 425.176 79.424 425.12 77.856C425.064 76.288 425.036 74.706 425.036 73.11C425.036 71.43 425.022 69.918 424.994 68.574C424.994 67.23 424.98 66.278 424.952 65.718C424.952 65.41 424.91 64.962 424.826 64.374C424.77 63.786 424.7 63.268 424.616 62.82H431.882ZM411.512 63.366C411.4 63.674 411.26 64.122 411.092 64.71C410.924 65.298 410.77 65.872 410.63 66.432C410.518 66.992 410.434 67.398 410.378 67.65C410.266 68.098 410.126 68.798 409.958 69.75C409.818 70.702 409.65 71.808 409.454 73.068C409.286 74.3 409.118 75.574 408.95 76.89C408.782 78.206 408.642 79.452 408.53 80.628C408.446 81.776 408.404 82.742 408.404 83.526C408.404 83.582 408.404 83.736 408.404 83.988C408.404 84.24 408.418 84.408 408.446 84.492C408.614 84.072 408.782 83.694 408.95 83.358C409.146 83.022 409.328 82.686 409.496 82.35C409.692 82.014 409.874 81.636 410.042 81.216L413.108 83.694C412.688 84.954 412.268 86.242 411.848 87.558C411.456 88.846 411.106 90.064 410.798 91.212C410.49 92.36 410.252 93.34 410.084 94.152C410.028 94.432 409.972 94.782 409.916 95.202C409.86 95.594 409.832 95.902 409.832 96.126C409.832 96.35 409.832 96.63 409.832 96.966C409.832 97.33 409.846 97.68 409.874 98.016L404.12 98.436C403.672 97.008 403.266 95.118 402.902 92.766C402.566 90.414 402.398 87.81 402.398 84.954C402.398 83.358 402.454 81.706 402.566 79.998C402.706 78.262 402.86 76.596 403.028 75C403.224 73.404 403.406 71.962 403.574 70.674C403.77 69.358 403.924 68.308 404.036 67.524C404.12 66.88 404.204 66.124 404.288 65.256C404.4 64.388 404.47 63.562 404.498 62.778L411.512 63.366Z" fill="#CC0033"/>
<path d="M417.475 224.016V246.636H409.135V232.056H402.895V224.016H417.475ZM417.475 243.216C418.475 245.056 419.895 246.416 421.735 247.296C423.615 248.136 425.955 248.616 428.755 248.736C430.635 248.816 432.875 248.876 435.475 248.916C438.075 248.916 440.795 248.896 443.635 248.856C446.515 248.816 449.335 248.736 452.095 248.616C454.895 248.496 457.415 248.336 459.655 248.136C459.335 248.776 458.995 249.616 458.635 250.656C458.275 251.656 457.935 252.676 457.615 253.716C457.335 254.796 457.115 255.756 456.955 256.596C454.995 256.716 452.775 256.796 450.295 256.836C447.855 256.916 445.335 256.956 442.735 256.956C440.135 256.996 437.615 256.996 435.175 256.956C432.735 256.916 430.555 256.856 428.635 256.776C425.235 256.616 422.355 256.076 419.995 255.156C417.635 254.236 415.575 252.636 413.815 250.356C412.695 251.476 411.515 252.576 410.275 253.656C409.035 254.776 407.655 255.976 406.135 257.256L402.115 248.556C403.355 247.796 404.655 246.976 406.015 246.096C407.375 245.176 408.675 244.216 409.915 243.216H417.475ZM402.895 207.276L409.555 202.356C410.675 203.236 411.835 204.236 413.035 205.356C414.235 206.436 415.355 207.536 416.395 208.656C417.435 209.736 418.275 210.756 418.915 211.716L411.715 217.236C411.195 216.276 410.435 215.216 409.435 214.056C408.475 212.856 407.415 211.676 406.255 210.516C405.095 209.316 403.975 208.236 402.895 207.276ZM417.835 216.156H458.395V222.036H417.835V216.156ZM430.435 227.976V230.016H445.435V227.976H430.435ZM422.395 223.356H454.075V234.636H422.395V223.356ZM434.995 230.556L442.255 233.076C440.775 235.076 438.975 236.956 436.855 238.716C434.735 240.476 432.455 242.056 430.015 243.456C427.615 244.816 425.195 245.976 422.755 246.936C422.435 246.376 421.975 245.696 421.375 244.896C420.775 244.096 420.155 243.296 419.515 242.496C418.915 241.696 418.355 241.056 417.835 240.576C420.115 239.896 422.335 239.056 424.495 238.056C426.695 237.056 428.695 235.916 430.495 234.636C432.335 233.356 433.835 231.996 434.995 230.556ZM451.675 231.456L457.735 235.656C456.135 236.656 454.575 237.616 453.055 238.536C451.575 239.416 450.235 240.156 449.035 240.756L444.535 237.276C445.295 236.796 446.115 236.216 446.995 235.536C447.875 234.856 448.735 234.156 449.575 233.436C450.415 232.716 451.115 232.056 451.675 231.456ZM440.995 233.136C442.075 234.536 443.475 235.796 445.195 236.916C446.915 237.996 448.915 238.916 451.195 239.676C453.475 240.396 455.935 240.936 458.575 241.296C457.775 242.056 456.915 243.076 455.995 244.356C455.075 245.636 454.355 246.776 453.835 247.776C450.955 247.136 448.315 246.236 445.915 245.076C443.515 243.876 441.395 242.416 439.555 240.696C437.715 238.976 436.135 237.036 434.815 234.876L440.995 233.136ZM445.735 206.916V210.216H448.195V206.916H445.735ZM436.855 206.916V210.216H439.255V206.916H436.855ZM427.975 206.916V210.216H430.375V206.916H427.975ZM420.715 202.236H455.875V214.896H420.715V202.236ZM433.255 232.056H441.535V248.016H433.255V232.056ZM493.735 226.476H502.795V245.916C502.795 247.116 502.895 247.876 503.095 248.196C503.335 248.476 503.895 248.616 504.775 248.616C504.975 248.616 505.255 248.616 505.615 248.616C505.975 248.616 506.355 248.616 506.755 248.616C507.195 248.616 507.595 248.616 507.955 248.616C508.355 248.616 508.675 248.616 508.915 248.616C509.515 248.616 509.955 248.376 510.235 247.896C510.555 247.416 510.795 246.476 510.955 245.076C511.115 243.676 511.235 241.576 511.315 238.776C511.955 239.256 512.755 239.736 513.715 240.216C514.675 240.696 515.655 241.136 516.655 241.536C517.695 241.896 518.595 242.176 519.355 242.376C519.075 246.056 518.595 248.956 517.915 251.076C517.275 253.156 516.295 254.616 514.975 255.456C513.695 256.336 511.955 256.776 509.755 256.776C509.395 256.776 508.915 256.776 508.315 256.776C507.755 256.776 507.155 256.776 506.515 256.776C505.875 256.776 505.255 256.776 504.655 256.776C504.095 256.776 503.635 256.776 503.275 256.776C500.755 256.776 498.795 256.436 497.395 255.756C496.035 255.076 495.075 253.936 494.515 252.336C493.995 250.776 493.735 248.656 493.735 245.976V226.476ZM463.795 220.776H518.095V229.236H463.795V220.776ZM469.375 204.756H512.335V213.156H469.375V204.756ZM476.635 227.496H486.055C485.815 230.776 485.415 233.896 484.855 236.856C484.335 239.776 483.455 242.516 482.215 245.076C480.975 247.636 479.175 249.976 476.815 252.096C474.455 254.216 471.335 256.056 467.455 257.616C466.975 256.496 466.215 255.236 465.175 253.836C464.135 252.436 463.115 251.316 462.115 250.476C465.395 249.276 467.975 247.876 469.855 246.276C471.735 244.636 473.135 242.856 474.055 240.936C474.975 238.976 475.595 236.876 475.915 234.636C476.235 232.356 476.475 229.976 476.635 227.496Z" fill="#CC0033"/>
<path d="M41.12 216.96H71.12V224.58H41.12V216.96ZM40.58 245.1H70.88V252.72H40.58V245.1ZM36.74 229.68H75.86V254.82H66.86V237.3H45.32V254.82H36.74V229.68ZM55.76 206.28C54.12 208.56 52.08 210.88 49.64 213.24C47.2 215.6 44.5 217.86 41.54 220.02C38.58 222.18 35.48 224.12 32.24 225.84C31.88 225.16 31.38 224.38 30.74 223.5C30.14 222.62 29.48 221.76 28.76 220.92C28.08 220.08 27.42 219.36 26.78 218.76C30.22 217.12 33.5 215.12 36.62 212.76C39.74 210.4 42.52 207.9 44.96 205.26C47.44 202.62 49.4 200.12 50.84 197.76H59.96C61.6 200.08 63.38 202.28 65.3 204.36C67.26 206.4 69.32 208.3 71.48 210.06C73.68 211.78 75.94 213.32 78.26 214.68C80.62 216 83 217.12 85.4 218.04C84.32 219.16 83.3 220.42 82.34 221.82C81.38 223.18 80.5 224.54 79.7 225.9C77.42 224.7 75.12 223.34 72.8 221.82C70.48 220.26 68.26 218.62 66.14 216.9C64.02 215.14 62.06 213.36 60.26 211.56C58.5 209.76 57 208 55.76 206.28ZM112.28 217.68H144.98V226.32H112.28V217.68ZM124.1 198H132.98V254.7H124.1V198ZM90.5 216.24H110.24V222.72H90.5V216.24ZM90.86 199.44H110.36V205.92H90.86V199.44ZM90.5 224.52H110.24V231H90.5V224.52ZM87.5 207.66H112.64V214.44H87.5V207.66ZM94.46 232.98H110.06V251.64H94.46V244.86H102.44V239.76H94.46V232.98ZM90.26 232.98H97.76V253.8H90.26V232.98Z" fill="#CC0033"/>
<path d="M167.926 255.224V148.154C166.708 148.818 165.325 149.482 163.776 150.146C162.226 150.81 160.566 151.53 158.796 152.304C157.136 152.968 155.476 153.632 153.816 154.296C152.266 154.96 150.828 155.624 149.5 156.288V135.704C150.717 135.04 152.432 134.155 154.646 133.048C156.859 131.831 159.238 130.503 161.784 129.064C164.329 127.626 166.708 126.187 168.922 124.748C171.135 123.199 172.795 121.871 173.902 120.764H195.648V255.224H167.926ZM231.797 255.224V148.154C230.579 148.818 229.196 149.482 227.647 150.146C226.097 150.81 224.437 151.53 222.667 152.304C221.007 152.968 219.347 153.632 217.687 154.296C216.137 154.96 214.699 155.624 213.371 156.288V135.704C214.588 135.04 216.303 134.155 218.517 133.048C220.73 131.831 223.109 130.503 225.655 129.064C228.2 127.626 230.579 126.187 232.793 124.748C235.006 123.199 236.666 121.871 237.773 120.764H259.519V255.224H231.797Z" fill="#CC0033"/>
<path d="M300.723 222.236C296.583 222.236 292.865 221.163 289.568 219.016C286.348 216.793 283.78 213.65 281.863 209.586C280.023 205.446 279.103 200.54 279.103 194.866C279.103 189.116 280.023 184.248 281.863 180.261C283.78 176.198 286.348 173.131 289.568 171.061C292.865 168.915 296.583 167.841 300.723 167.841C304.94 167.841 308.658 168.915 311.878 171.061C315.175 173.131 317.743 176.198 319.583 180.261C321.5 184.248 322.458 189.116 322.458 194.866C322.458 200.54 321.5 205.446 319.583 209.586C317.743 213.65 315.175 216.793 311.878 219.016C308.658 221.163 304.94 222.236 300.723 222.236ZM300.723 210.966C302.716 210.966 304.441 209.778 305.898 207.401C307.431 205.025 308.198 200.846 308.198 194.866C308.198 188.886 307.431 184.785 305.898 182.561C304.441 180.261 302.716 179.111 300.723 179.111C298.73 179.111 296.966 180.261 295.433 182.561C293.976 184.785 293.248 188.886 293.248 194.866C293.248 200.846 293.976 205.025 295.433 207.401C296.966 209.778 298.73 210.966 300.723 210.966ZM303.713 256.621L349.828 167.841H361.558L315.443 256.621H303.713ZM364.433 256.621C360.293 256.621 356.575 255.548 353.278 253.401C350.058 251.178 347.49 248.035 345.573 243.971C343.733 239.831 342.813 234.925 342.813 229.251C342.813 223.501 343.733 218.633 345.573 214.646C347.49 210.583 350.058 207.478 353.278 205.331C356.575 203.185 360.293 202.111 364.433 202.111C368.573 202.111 372.253 203.185 375.473 205.331C378.77 207.478 381.338 210.583 383.178 214.646C385.095 218.633 386.053 223.501 386.053 229.251C386.053 234.925 385.095 239.831 383.178 243.971C381.338 248.035 378.77 251.178 375.473 253.401C372.253 255.548 368.573 256.621 364.433 256.621ZM364.433 245.236C366.426 245.236 368.151 244.086 369.608 241.786C371.141 239.41 371.908 235.231 371.908 229.251C371.908 223.195 371.141 219.055 369.608 216.831C368.151 214.608 366.426 213.496 364.433 213.496C362.44 213.496 360.676 214.608 359.143 216.831C357.686 219.055 356.958 223.195 356.958 229.251C356.958 235.231 357.686 239.41 359.143 241.786C360.676 244.086 362.44 245.236 364.433 245.236Z" fill="#CC0033"/>
</svg>
