<svg id="_レイヤー_1" data-name="レイヤー 1" xmlns="http://www.w3.org/2000/svg" viewBox="0 0 310 70"><defs><style>.cls-1,.cls-2{fill:none;stroke-width:0}.cls-2{fill:#000}</style></defs><g><g><path class="cls-2" d="M29.5 40.88h4.98v-11.7c0-5.89-4.35-10.76-10.02-11.58l-.25-.03-.27-.03c-3.32-.42-5.6-1.2-7.41-2.33-2.06-1.28-2.56-2.14-2.56-2.14s-1.31.82-1.47 2.64c-.14 1.62.44 3.44 2.39 4.83a11.657 11.657 0 00-3.82 8.65c0 6.46 5.24 11.7 11.7 11.7 2.5 0 4.82-.79 6.73-2.13v2.13zm-6.72-4.64c-3.9 0-7.06-3.16-7.06-7.06s3.16-7.06 7.06-7.06 7.06 3.16 7.06 7.06-3.16 7.06-7.06 7.06m73.02 4.64h4.98v-11.7c0-5.89-4.35-10.76-10.02-11.58l-.25-.03-.27-.03c-3.31-.42-5.6-1.2-7.41-2.33-2.06-1.28-2.55-2.14-2.55-2.14s-1.31.82-1.47 2.64c-.14 1.62.44 3.44 2.39 4.83a11.657 11.657 0 00-3.82 8.65c0 6.46 5.24 11.7 11.7 11.7 2.51 0 4.82-.79 6.73-2.13v2.13zm-6.73-4.64c-3.9 0-7.06-3.16-7.06-7.06s3.16-7.06 7.06-7.06 7.06 3.16 7.06 7.06-3.16 7.06-7.06 7.06m-8.1 11.89c-4 6.96-13.15 11.84-23.78 11.84s-19.78-4.88-23.78-11.84h5.62c3.7 4.47 10.45 7.48 18.16 7.48s14.47-3 18.16-7.48h5.62zm82.66-30.66c-6.46 0-11.7 5.24-11.7 11.7s5.24 11.7 11.7 11.7 11.7-5.24 11.7-11.7-5.24-11.7-11.7-11.7m0 18.77c-3.9 0-7.06-3.16-7.06-7.06s3.16-7.06 7.06-7.06 7.06 3.16 7.06 7.06-3.16 7.06-7.06 7.06m-22.11-10.25v14.89h-5.07V25.99c0-1.91-1.54-3.45-3.45-3.45s-3.45 1.54-3.45 3.45v14.89h-5.07V25.99a3.45 3.45 0 00-6.9 0v14.89h-5.07V25.99c0-1.26.28-2.45.77-3.53-1.54-1.39-2-3.08-1.87-4.6.17-1.93 1.56-2.81 1.56-2.81s.68.76 2.72 2.28c.51.38 1.08.69 1.71.95 1.1-.52 2.32-.81 3.62-.81 2.33 0 4.44.94 5.98 2.46a8.486 8.486 0 015.98-2.46c4.7 0 8.52 3.81 8.52 8.52M51.29 40.88h-4.98V10.2h4.98v8.71c1.53-.91 3.31-1.44 5.22-1.44 5.63 0 10.2 4.57 10.2 10.2v13.21h-4.98V27.67c0-2.88-2.34-5.22-5.22-5.22s-5.22 2.34-5.22 5.22v13.21z"/><path class="cls-2" d="M51.29 40.88h-4.98V10.2h4.98v8.71c1.53-.91 3.31-1.44 5.22-1.44 5.63 0 10.2 4.57 10.2 10.2v13.21h-4.98V27.67c0-2.88-2.34-5.22-5.22-5.22s-5.22 2.34-5.22 5.22v13.21z"/></g><g><path class="cls-2" d="M192.28 32.97c.12-.14.23-.31.32-.5.3-.66.26-1.33-.1-1.49-.36-.17-.9.23-1.2.89-.01.02-.02.05-.03.07v-.07c0-.71-.33-1.28-.72-1.28s-.71.57-.72 1.28v.07c0-.02-.02-.05-.03-.07-.3-.66-.84-1.06-1.2-.89-.36.17-.41.83-.1 1.49.09.19.2.36.32.5-1.91.57-3.28 2.04-3.28 3.78 0 2.22 2.25 4.03 5.01 4.03s5.01-1.81 5.01-4.03c0-1.73-1.37-3.21-3.28-3.78zm25.24-.14c.08-.11.16-.24.22-.38.3-.66.26-1.33-.1-1.49-.36-.17-.9.23-1.2.89-.06.13-.11.27-.14.4-.03-.13-.08-.26-.14-.4-.3-.66-.84-1.06-1.2-.89-.36.17-.41.83-.1 1.49.06.14.14.26.22.38-2.17.44-3.79 2.02-3.79 3.9 0 2.22 2.25 4.03 5.01 4.03s5.01-1.81 5.01-4.03c0-1.88-1.62-3.46-3.79-3.9zm10.86-2.82c3.27-.46 6.51-1.03 9.72-1.7v12.58h9.72V25.91c2.81-.8 5.59-1.67 8.34-2.64v-11.1c-8.92 3.42-18.23 5.88-27.78 7.32v10.52z"/><path class="cls-2" d="M219.63 7.06c-3.74 0-6.78 3.04-6.78 6.78 0 1.34.4 2.59 1.07 3.64h-5.64v-5.36h-9.72v5.36h-8.28v9.72h8.28v13.68h9.72V27.2h8.28v-7.33c.92.47 1.96.74 3.06.74 3.74 0 6.78-3.04 6.78-6.78s-3.04-6.78-6.78-6.78zm0 9.66a2.88 2.88 0 11.001-5.761 2.88 2.88 0 01-.001 5.761z"/><polygon class="cls-2" points="263.41 23.64 273.1 25.29 273.1 19.9 263.41 18.26 263.41 23.64"/><polygon class="cls-2" points="263.41 14.64 273.1 16.29 273.1 10.91 263.41 9.26 263.41 14.64"/><polygon class="cls-2" points="263.41 42.19 273.1 38.92 273.1 29.17 263.41 32.56 263.41 42.19"/><path class="cls-2" d="M292.64 15.72c1.93-.28 3.72-.58 5.21-.88V9.56c-5.22 1.03-13.9 2.11-20.14 2.14v5.29c1.61 0 3.38-.09 5.21-.21v3.25h-6.29v5.28h6.29v3.35h-5.21v12.23h20.14V28.66h-5.21v-3.35h6.29v-5.28h-6.29v-4.31zm-1.3 21.05h-7.13v-4h7.13v4z"/></g></g><g><g><rect class="cls-1" x="119.92" y="-119.04" width="70.17" height="308.25" transform="rotate(90 155 35.08)"/><rect class="cls-1" x="11.07" y="10.2" width="164.26" height="49.77"/></g><rect class="cls-1" x="185.54" y="10.2" width="113.39" height="49.77"/></g></svg>