<svg width="315" height="55" viewBox="0 0 315 55" fill="none" xmlns="http://www.w3.org/2000/svg">
<path d="M288.091 0.930786H27.0607C12.2123 0.930786 0.175293 12.9678 0.175293 27.8162V27.8171C0.175293 42.6656 12.2123 54.7026 27.0607 54.7026H288.091C302.939 54.7026 314.976 42.6656 314.976 27.8171V27.8162C314.976 12.9678 302.939 0.930786 288.091 0.930786Z" fill="black"/>
<path d="M30.4172 28.6832C30.4172 27.609 30.4171 25.7672 28.37 25.7672C27.7818 25.7672 26.6824 25.8954 25.9139 27.0979C26.1964 27.3024 26.5031 27.5328 26.5031 28.2232C26.5031 28.9397 26.0942 29.6041 25.4289 29.6041C24.9168 29.6041 24.3797 29.1953 24.3797 28.2232C24.3797 26.6119 26.1444 24.9495 28.5493 24.9495C29.9813 24.9495 32.0025 25.6399 32.0025 28.633V35.2067C32.0025 36.1276 32.0545 36.5625 32.5145 36.5625C32.7961 36.5625 33.3081 36.4091 33.6919 35.2578L34.0998 35.5654C33.8703 36.2298 33.3583 37.7398 31.9774 37.7398C30.5445 37.7398 30.4432 36.1285 30.4172 35.4111C30.0334 36.1025 29.1376 37.7398 27.0402 37.7398C25.454 37.7398 24.1753 36.6136 24.1753 34.466C24.1753 31.0891 27.2697 30.1933 30.4172 29.58V28.6842V28.6832ZM30.4172 30.3457C26.2726 31.2666 25.9139 33.0322 25.9139 34.1575C25.9139 34.6946 25.9139 36.4602 27.7557 36.4602C28.3179 36.4602 28.7278 36.358 29.29 35.8469C30.1858 35.0793 30.4162 33.442 30.4162 33.4169V30.3466L30.4172 30.3457Z" fill="white" stroke="white" stroke-width="1.06679" stroke-linecap="round" stroke-linejoin="round"/>
<path d="M46.1978 35.7688C46.1978 36.2288 46.1978 36.7408 46.9914 36.7408H47.8101V37.5344H43.0012V36.7408H43.8449C44.5354 36.7408 44.6125 36.2288 44.6125 35.7688V28.8616C44.6125 28.1201 44.6125 25.9456 42.7447 25.9456C41.414 25.9456 40.5451 27.1731 40.2635 27.6331C39.8287 28.3496 39.496 29.6282 39.496 30.1152V35.7679C39.496 36.1517 39.496 36.7399 40.2896 36.7399H41.1082V37.5335H36.2993V36.7399H37.1431C37.6802 36.7399 37.9097 36.331 37.9097 35.7679V19.4742H36.3495V18.6806C37.8586 18.6555 38.3195 18.6035 39.496 18.1435V27.9407C39.9049 26.9427 40.7496 24.9476 43.0513 24.9476C44.1005 24.9476 45.2769 25.4847 45.7629 26.4046C46.1978 27.2754 46.1978 28.1693 46.1978 28.7845V35.7688Z" fill="white" stroke="white" stroke-width="1.06679" stroke-linecap="round" stroke-linejoin="round"/>
<path d="M57.3498 28.6832C57.3498 27.609 57.3498 25.7672 55.3026 25.7672C54.7144 25.7672 53.6151 25.8954 52.8466 27.0979C53.1291 27.3024 53.4357 27.5328 53.4357 28.2232C53.4357 28.9397 53.0268 29.6041 52.3615 29.6041C51.8495 29.6041 51.3123 29.1953 51.3123 28.2232C51.3123 26.6119 53.077 24.9495 55.4819 24.9495C56.9139 24.9495 58.9351 25.6399 58.9351 28.633V35.2067C58.9351 36.1276 58.9871 36.5625 59.4471 36.5625C59.7287 36.5625 60.2407 36.4091 60.6245 35.2578L61.0324 35.5654C60.8029 36.2298 60.2909 37.7398 58.91 37.7398C57.4771 37.7398 57.3758 36.1285 57.3498 35.4111C56.966 36.1025 56.0702 37.7398 53.9728 37.7398C52.3866 37.7398 51.1079 36.6136 51.1079 34.466C51.1079 31.0891 54.2024 30.1933 57.3498 29.58V28.6842V28.6832ZM57.3498 30.3457C53.2053 31.2666 52.8466 33.0322 52.8466 34.1575C52.8466 34.6946 52.8466 36.4602 54.6884 36.4602C55.2506 36.4602 55.6604 36.358 56.2226 35.8469C57.1184 35.0793 57.3488 33.442 57.3488 33.4169V30.3466L57.3498 30.3457Z" fill="white" stroke="white" stroke-width="1.06679" stroke-linecap="round" stroke-linejoin="round"/>
<path d="M79.1417 35.7688C79.1417 36.2288 79.1667 36.7408 79.9343 36.7408H80.753V37.5344H75.9441V36.7408H76.7878C77.4532 36.7408 77.5554 36.3319 77.5554 35.7688V28.8616C77.5554 28.2994 77.5554 25.9205 75.8158 25.9205C73.9489 25.9205 73.1563 28.9898 73.1563 29.7323V35.7688C73.1563 36.1275 73.1563 36.7408 73.9229 36.7408H74.7416V37.5344H69.9587V36.7408H70.7774C71.5449 36.7408 71.5449 36.1526 71.5449 35.7688V28.8616C71.5449 28.2223 71.5449 25.9205 69.8305 25.9205C68.0147 25.9205 67.0678 28.9638 67.0678 30.1412V35.7688C67.0678 36.2037 67.0678 36.7408 67.8613 36.7408H68.68V37.5344H63.8711V36.7408H64.7149C65.2771 36.7408 65.4824 36.3831 65.4824 35.7688V26.2792H63.9213V25.4856C64.74 25.4605 65.5837 25.4605 67.0678 24.9485V27.9667C67.656 26.3043 68.602 24.9485 70.2653 24.9485C71.1351 24.9485 72.9509 25.4605 73.1303 27.8385C73.3598 27.122 74.1274 24.9485 76.2247 24.9485C79.1417 24.9485 79.1417 28.0689 79.1417 28.7854V35.7688Z" fill="white" stroke="white" stroke-width="1.06679" stroke-linecap="round" stroke-linejoin="round"/>
<path d="M88.6037 24.9745C91.2632 24.9745 93.4637 27.8143 93.4637 31.3437C93.4637 34.8479 91.2893 37.7388 88.6037 37.7388C85.815 37.7388 83.7437 34.7457 83.7437 31.3437C83.7437 27.9667 85.815 24.9745 88.6037 24.9745ZM91.5448 31.3437C91.5448 27.8394 90.2912 25.7671 88.6037 25.7671C86.839 25.7671 85.6616 27.9927 85.6616 31.3437C85.6616 34.8219 86.8892 36.9452 88.6037 36.9452C90.3684 36.9452 91.5448 34.6936 91.5448 31.3437Z" fill="white" stroke="white" stroke-width="1.06679" stroke-linecap="round" stroke-linejoin="round"/>
<path d="M109.277 28.0931C109.042 30.5873 108.787 31.8018 107.977 33.0591C107.274 34.1463 106.144 34.807 105.207 34.807C104.76 34.807 104.355 34.6147 104.355 34.125C104.355 33.5925 104.866 33.4215 105.441 33.2087C106.848 32.719 108.234 31.8445 108.723 27.9658L109.278 28.094L109.277 28.0931ZM110.428 32.995C111.046 33.5061 112.665 34.8061 113.411 35.1472C113.411 34.9762 113.39 27.7939 113.39 25.3434C112.835 25.4066 110.428 25.6417 109.938 25.6835C109.426 25.7477 106.826 26.0673 106.656 26.387C106.528 26.5998 106.507 26.6221 106.422 26.6221C106.016 26.6221 104.759 25.0451 104.759 23.9365C104.759 23.4041 105.015 23.2117 105.228 23.063C105.27 23.7869 105.675 24.8965 106.422 24.8965C107.359 24.8965 112.197 24.5331 113.39 24.4486C113.39 23.7879 113.347 20.8477 113.347 20.2501C113.347 20.1015 113.347 19.8236 113.284 19.6954C113.177 19.4612 112.645 19.2057 112.09 19.2057C111.941 19.2057 111.813 19.227 111.6 19.2698C111.793 18.6091 112.007 18.3108 112.496 18.3108C113.136 18.3108 115.032 18.886 115.032 19.6322C115.032 19.7604 114.884 19.8877 114.627 20.1015C114.456 20.2288 114.35 23.9802 114.35 24.3844C117.27 24.1503 119.166 24.0006 119.636 23.8724C119.742 23.852 120.105 23.5955 120.211 23.5955C120.317 23.5955 122.577 23.8724 122.577 24.5972C122.577 24.8314 122.364 25.1297 122.108 25.1297C121.959 25.1297 120.02 25.0015 119.613 25.0015C118.783 25.0015 118.335 25.0219 114.328 25.257C114.328 25.428 114.285 28.134 114.285 28.1768C114.285 30.6709 114.456 33.9949 114.498 34.4C114.519 34.5283 114.605 35.1035 114.605 35.2317C114.605 36.1043 113.987 37.5335 113.539 37.5335C113.347 37.5335 113.326 37.448 113.156 36.7018C113.092 36.4249 112.197 35.5086 110.215 33.441L110.428 32.995ZM117.737 27.4965C122.404 30.6923 123.086 32.9522 123.086 34.0385C123.086 34.8702 122.681 34.9975 122.554 34.9975C122.171 34.9975 122.085 34.7847 121.552 33.5906C120.743 31.7368 119.25 29.4991 117.419 27.9435L117.737 27.4965ZM123.704 20.1442C123.704 21.2305 123.065 22.8075 121.168 22.8075C119.314 22.8075 118.611 21.2946 118.611 20.2074C118.611 19.4612 119.016 17.5646 121.168 17.5646C122.297 17.5646 123.704 18.3312 123.704 20.1433V20.1442ZM119.25 20.1647C119.25 21.3151 120.146 22.0613 121.211 22.0613C122.51 22.0613 123.065 20.974 123.065 20.1647C123.065 19.3757 122.575 18.2885 121.168 18.2885C119.932 18.2885 119.25 19.1843 119.25 20.1647Z" fill="white" stroke="white" stroke-width="1.06679" stroke-linecap="round" stroke-linejoin="round"/>
<path d="M127.415 31.6736C131.06 30.0966 135.365 26.6862 137.666 24.5758C139.583 22.8288 142.1 20.016 142.1 19.4835C142.1 18.9715 141.588 18.61 140.884 18.5449C140.99 18.2253 141.14 17.9697 141.524 17.9697C142.439 17.9697 144.081 19.6322 144.081 20.3784C144.081 20.5494 144.038 20.698 143.697 20.698C143.612 20.698 143.463 20.6776 143.356 20.6553C142.909 21.1878 140.82 23.576 138.711 25.2589C138.965 25.4717 139.392 25.8554 139.392 26.2606C139.392 26.3665 139.179 26.7076 139.158 26.7931C139.051 27.24 139.029 31.3753 139.029 31.418C139.029 32.3129 139.178 36.5327 139.178 37.0224C139.178 38.0241 138.667 38.0873 138.539 38.0873C137.964 38.0873 137.899 36.1907 137.899 35.7855C137.899 35.7001 137.942 35.4445 138.028 35.0616C138.092 34.0599 138.135 33.2496 138.135 28.1777C138.135 26.3238 138.092 26.1956 137.964 25.8118C135.214 28.37 130.27 31.3102 127.627 32.2265L127.415 31.6726L127.415 31.6736Z" fill="white" stroke="white" stroke-width="1.06679" stroke-linecap="round" stroke-linejoin="round"/>
<path d="M165.129 29.0707L165.716 28.1191C166.384 28.6655 167.133 29.5158 167.133 29.6171C167.133 29.8606 166.445 29.921 166.343 29.921V37.291H165.371V36.1777H155.409V37.291H154.437V28.2195L155.773 29.0707H159.842V25.1622H153.019C152.694 26.1342 151.217 30.5482 151.055 31.2368C150.933 31.6819 150.914 32.0676 150.914 32.3714C150.914 32.8565 150.933 32.9587 151.238 34.072C151.319 34.3963 151.441 35.1444 151.441 35.6313C151.441 36.5624 151.096 37.1497 150.651 37.1497C150.306 37.1497 150.184 36.8059 150.184 36.502C150.184 36.4621 150.266 35.8748 150.286 35.7735C150.346 35.3079 150.366 34.8628 150.366 34.4976C150.366 31.8659 149.557 31.5816 148.788 31.4812L148.848 31.0157C149.192 31.0761 149.273 31.076 149.435 31.076C149.92 31.076 150.042 30.8121 150.508 29.8411C151.035 28.6869 153.039 23.4422 153.465 22.3884L153.808 22.7136C153.505 23.6643 153.403 23.9886 153.242 24.4755H159.843V20.4862C156.827 20.7705 155.41 20.83 153.708 20.8913L153.607 20.304C161.767 19.6164 164.541 18.6639 165.249 18.3405L166.221 19.3729C166.404 19.5755 166.484 19.6563 166.484 19.858C166.484 19.9593 166.444 20.0206 166.282 20.0206C166.079 20.0206 165.816 19.8989 165.451 19.6963C163.831 20.0401 163.021 20.1414 160.814 20.4053V24.4755H165.877L166.747 23.1792C167.173 23.5435 167.354 23.7256 168.226 24.7989L168.044 25.1632H160.815V29.0716L165.129 29.0707ZM148.93 22.6114C149.497 22.7526 151.582 23.3204 151.582 24.8379C151.582 25.2226 151.379 25.5674 151.096 25.5674C150.915 25.5674 150.853 25.4856 150.428 24.7162C149.861 23.6838 149.436 23.4199 148.808 23.0351L148.93 22.6114ZM149.943 18.5617C152.696 19.2503 152.899 20.4248 152.899 20.8291C152.899 21.0521 152.838 21.4768 152.474 21.4768C152.17 21.4768 152.048 21.2547 151.907 21.0112C151.179 19.6954 150.166 19.2094 149.8 19.0272L149.943 18.5617ZM155.41 29.7593V35.49H165.372V29.7593H155.41Z" fill="white" stroke="white" stroke-width="1.06679" stroke-linecap="round" stroke-linejoin="round"/>
<path d="M179.113 26.1538C178.793 27.0496 177.408 30.906 177.152 31.695C176.939 32.3557 176.236 34.5302 176.236 34.9985C176.236 35.1695 176.279 35.2754 176.514 35.8088C176.599 36.0216 176.642 36.2558 176.642 36.4481C176.642 37.0234 176.364 37.1516 176.173 37.1516C175.278 37.1516 174.296 34.0618 174.296 29.671C174.296 26.8154 174.617 25.2171 175.532 21.1255C175.618 20.7845 175.745 20.1238 175.745 19.9956C175.745 19.74 175.383 19.1007 174.446 18.9306C174.574 18.5682 174.723 18.3554 175.085 18.3554C175.959 18.3554 177.303 19.8255 177.303 20.529C177.303 20.8273 177.217 20.8923 176.919 21.1042C176.642 21.2752 175.022 25.6864 175.022 30.0335C175.022 31.9096 175.278 32.8259 175.406 33.2729C176.471 31.2266 176.705 30.6514 178.73 26.006L179.114 26.1547L179.113 26.1538ZM182.886 28.306C182.479 29.0735 181.927 30.2026 181.927 31.694C181.927 33.4197 183.056 34.4642 183.802 34.8266C184.74 35.2736 186.039 35.4018 187.318 35.4018C187.936 35.4018 189.663 35.3386 190.388 35.1249C190.516 35.0821 191.07 34.7838 191.197 34.7838C191.261 34.7838 192.796 34.7838 192.796 35.4445C192.796 36.6377 189.493 36.6377 188.363 36.6377C184.761 36.6377 183.482 36.1266 182.545 35.2104C181.607 34.3155 181.223 33.1 181.223 31.971C181.223 30.2026 182.161 28.6042 182.502 28.0495L182.886 28.305V28.306ZM185.614 23.7238C185.934 23.3186 186.956 22.0613 188.81 20.8895C188.533 20.9313 187.681 21.2947 187.552 21.3365C186.486 21.8048 185.975 21.9544 184.909 21.9544C183.183 21.9544 182.586 21.592 181.926 21.1869L181.862 20.5689C182.522 20.8245 183.12 21.0382 183.865 21.0382C184.824 21.0382 186.593 20.6117 187.487 20.3134C188.703 19.8878 189.576 19.6099 190.257 19.6099C191.131 19.6099 191.259 20.3989 191.259 20.6117C191.259 21.1014 191.11 21.1237 190.662 21.1664C189.234 21.3374 187.231 22.6365 185.888 24.0434L185.611 23.7238H185.614Z" fill="white" stroke="white" stroke-width="1.06679" stroke-linecap="round" stroke-linejoin="round"/>
<path d="M213.491 20.9322L214.195 19.9518C214.75 20.357 215.729 21.4015 215.729 21.5511C215.729 21.657 215.708 21.657 214.813 21.8912V33.2077H213.79V32.1001H206.437V37.8764H205.436V32.1001H198.019V33.4856H196.996V19.8672L198.424 20.9322H205.436V17.7783L207.013 17.9269C207.184 17.9269 207.545 17.9697 207.545 18.2466C207.545 18.6099 206.884 18.7373 206.437 18.8228V20.9322H213.491ZM205.436 21.657H198.019V26.1323H205.436V21.657ZM205.436 26.8572H198.019V31.3752H205.436V26.8572ZM206.437 26.1333H213.79V21.6579H206.437V26.1333ZM206.437 31.3762H213.79V26.8581H206.437V31.3762Z" fill="white" stroke="white" stroke-width="1.06679" stroke-linecap="round" stroke-linejoin="round"/>
<path d="M240.048 36.1489C239.771 36.2344 239.388 36.384 239.281 37.2148C237.256 37.3848 233.975 37.4694 231.907 37.4694C228.434 37.4694 224.704 37.278 223.361 33.5051C222.764 34.6351 221.293 36.7446 221.124 37.001C221.124 37.107 221.167 37.278 221.167 37.448C221.167 37.6608 221.081 37.7463 220.996 37.7463C220.868 37.7463 220.718 37.5753 220.569 37.3198L219.909 36.1898C220.335 35.977 221.421 35.0607 222.657 33.5265V26.3861H220.782L220.057 26.4502L219.886 25.5767L220.802 25.6622H222.486L223.19 24.5545C223.829 25.087 224.617 26.0887 224.617 26.3024C224.617 26.4297 224.617 26.5366 223.679 26.6853V32.9941C223.828 33.441 223.935 33.7179 224.191 34.0804C227.814 31.182 230.457 24.8314 230.457 21.6338L231.65 22.0603C231.437 21.0159 231.373 20.5048 231.287 19.9723H226.684L226.492 19.2475H230.925L231.735 17.9688C232.375 18.4808 233.205 19.6526 233.205 19.8227C233.205 19.9927 232.609 20.1005 231.991 20.1433C232.545 23.9997 234.164 30.1161 239.876 33.4196L239.747 33.8462C239.3 33.8666 239.023 34.0376 238.746 34.6556C236.678 33.0368 233.44 30.1384 231.756 22.6151C231.65 22.6356 231.627 22.6356 231.479 22.6356C230.967 25.1715 229.71 30.5854 224.531 34.4855C226.108 36.1266 228.899 36.1266 231.202 36.1266C233.227 36.1266 237.276 36.0838 240.067 35.6796L240.047 36.148L240.048 36.1489ZM220.675 17.7997C221.848 18.2467 224.149 19.1425 224.149 20.975C224.149 21.4442 223.957 21.7639 223.659 21.7639C223.425 21.7639 223.382 21.658 222.85 20.7631C222.018 19.3134 221.039 18.6955 220.421 18.2903L220.675 17.7997Z" fill="white" stroke="white" stroke-width="1.06679" stroke-linecap="round" stroke-linejoin="round"/>
<path d="M257.356 25.1938C257.59 26.2179 258.166 27.9008 258.848 29.2426C259.913 31.353 260.255 32.1633 260.255 33.3137C260.255 33.9949 260.084 35.6573 258.464 36.5317C257.271 37.1924 254.65 37.3634 253.371 37.3634C248.534 37.3634 246.317 36.831 246.317 34.6565C246.317 33.4206 247.02 31.9505 247.041 31.8864C246.829 32.1419 246.509 32.4625 245.954 32.4625C244.995 32.4625 243.738 31.418 243.738 29.1803C243.738 27.8803 244.335 24.4709 246.593 24.4709C247.829 24.4709 248.319 25.4298 248.49 25.77C248.533 25.2161 248.553 24.9392 248.724 22.3819C247.233 22.5315 246.529 22.5315 246.401 22.5315C244.846 22.5315 243.907 21.828 243.481 21.2314L243.587 20.7631C244.312 21.4238 245.016 21.7639 246.252 21.7639C247.381 21.7639 248.404 21.5725 248.788 21.487C248.852 20.4852 248.894 19.8032 248.894 19.0783C248.894 18.6955 248.511 18.61 248.127 18.61C247.68 18.61 247.573 18.6955 247.381 18.8442C247.252 17.9707 247.956 17.821 248.723 17.821C250.13 17.821 250.557 18.3321 250.557 18.5877C250.557 18.6945 250.429 18.8228 250.194 19.0142C250.023 19.1629 249.831 20.8681 249.788 21.2733C252.367 20.6339 252.474 20.6125 252.964 20.3143C253.433 20.0373 253.518 19.9946 253.646 19.9946C253.837 19.9946 254.669 20.2929 254.669 20.7194C254.669 21.0595 254.264 21.2305 253.945 21.3374C253.539 21.4861 251.877 21.9126 249.704 22.2536C249.661 22.6588 249.214 26.899 249.214 26.9418C249.214 27.07 249.3 27.6025 249.3 27.7093C249.3 28.476 248.81 29.7119 248.084 31.4385C247.295 33.3146 247.232 33.5274 247.232 34.2309C247.232 35.4241 247.658 36.2558 252.496 36.2558C253.988 36.2558 256.971 36.1275 258.143 35.3395C258.847 34.8702 259.102 33.954 259.102 33.4215C259.102 32.3984 259.038 32.2283 257.781 28.4778C257.312 27.0923 257.056 25.9419 256.907 25.3025L257.354 25.1957L257.356 25.1938ZM244.74 28.9025C244.74 29.2649 244.74 31.6085 246.253 31.6085C247.404 31.6085 248.364 28.0922 248.364 27.0691C248.364 26.1528 247.682 24.9587 246.488 25.1511C245.038 25.3862 244.74 27.8794 244.74 28.9025ZM256.867 20.2278C257.058 20.186 257.25 20.1433 257.57 20.1433C261.086 20.1433 263.047 23.6587 263.047 25.2356C263.047 25.9818 262.77 26.2801 262.493 26.2801C262.174 26.2801 262.109 26.1314 261.597 24.7032C260.256 21.0586 258.465 20.7389 256.952 20.6757L256.867 20.2278Z" fill="white" stroke="white" stroke-width="1.06679" stroke-linecap="round" stroke-linejoin="round"/>
<path d="M293.903 23.6002L286.328 32.0341L278.754 23.6002" stroke="white" stroke-width="1.01011" stroke-linecap="round" stroke-linejoin="round"/>
</svg>
