<svg width="128" height="20" viewBox="0 0 128 20" fill="none" xmlns="http://www.w3.org/2000/svg">
<path d="M6.15139 4.06539L6.87157 2.93634C7.33899 3.36473 7.88446 4.0849 8.1177 4.37669L7.92349 4.72796H1.14824L0.914062 4.06539H6.15139ZM5.97668 12.0859L6.65783 11.1129C7.02768 11.4242 7.78689 12.32 7.78689 12.4167C7.78689 12.5338 7.51462 12.6118 7.1838 12.6499V18.4903H6.24988V17.2646H2.53098V18.8806H1.59614V11.191L2.8618 12.0859H5.97668ZM5.45165 6.55767L6.1328 5.48716C6.6188 5.93506 7.06764 6.51864 7.33991 6.85039L7.14477 7.22024H1.71323V6.55767H5.45165ZM5.45165 9.24417L6.11329 8.19317C6.48313 8.56302 7.04812 9.24417 7.30088 9.55641L7.12618 9.90674H1.71416V9.24417H5.45165ZM5.17937 1.73015L5.84101 0.756288C6.19135 1.06759 6.2694 1.16516 7.02861 2.06004L6.81488 2.39086H1.98643V1.72922H5.18031L5.17937 1.73015ZM2.53098 16.6039H6.24988V12.7493H2.53098V16.6039ZM13.881 8.56395H16.3928L17.1715 7.31688C17.4633 7.59008 18.0283 8.17366 18.5728 8.89384L18.3786 9.22466H13.881V13.0988H17.0749L17.9316 11.756C18.1835 11.9697 18.8265 12.6508 19.3906 13.371L19.1778 13.7613H13.8819V18.823H12.9675V13.7613H8.21714L7.94486 13.0988H12.9675V9.22466H9.01538L8.76261 8.56302H12.9675V4.88314H8.76261L8.49034 4.2215H11.5077C11.372 4.04587 10.9826 3.151 10.8841 2.97444C10.3981 2.0396 9.95021 1.49505 9.191 0.852928L9.42425 0.541626C10.5152 1.06666 12.1897 2.27378 12.1897 3.73458C12.1897 3.96782 12.1702 4.02636 12.0726 4.2215H14.4674C15.1875 2.97443 15.8101 1.37889 16.0443 0.580655L17.2514 1.22278C17.4847 1.35845 17.7569 1.51457 17.7569 1.70878C17.7569 1.903 17.5432 1.92251 17.4066 1.92251C17.1148 1.92251 17.0173 1.903 16.8035 1.88348C15.9858 3.18724 15.5184 3.75223 15.1104 4.22058H17.0767L17.9131 3.05157C18.1463 3.2653 18.6918 3.79219 19.2949 4.53095L19.0811 4.88222H13.8829V8.56209L13.881 8.56395Z" fill="#B97850" stroke="#B97850" stroke-width="0.426531" stroke-miterlimit="10"/>
<path d="M28.964 2.83787C29.1972 3.0135 29.3534 3.12966 29.3534 3.30529C29.3534 3.42237 29.2363 3.53853 29.003 3.53853C28.8673 3.53853 28.7298 3.51902 28.4966 3.4614C27.6983 4.86366 26.7254 6.59581 24.7777 9.02862C26.4522 8.971 26.6473 8.971 28.3209 8.87343C27.9316 7.86053 27.6398 7.43214 27.2895 7.00468L27.5617 6.67293C28.1258 7.10132 29.6842 8.28892 29.6842 9.96345C29.6842 10.626 29.3534 10.8202 29.1582 10.8202C28.8859 10.8202 28.7112 10.5284 28.6527 10.2357C28.6332 10.061 28.5356 9.65215 28.4771 9.39939C27.8935 9.51555 27.6407 9.55551 26.7254 9.67167V18.9002H25.7906V9.80827C24.8371 9.92535 24.603 9.94394 23.3959 10.062C23.2992 10.2952 23.1821 10.548 23.0455 10.548C22.9879 10.548 22.8894 10.4699 22.8318 10.2562L22.501 8.99145C22.6376 9.01096 22.8318 9.02955 23.065 9.02955H24.1746C26.5507 5.64238 27.7569 2.60555 27.8545 2.06008L28.964 2.83787ZM22.7732 3.24675C23.4739 3.57756 23.7072 3.75226 24.0974 4.06449C24.9728 2.29332 25.3436 0.773977 25.3817 0.423645L26.5897 1.06577C26.8416 1.20144 26.9586 1.31853 26.9586 1.43562C26.9586 1.66886 26.7059 1.66886 26.6278 1.66886C26.5507 1.66886 26.3165 1.64935 26.1613 1.62983C25.2655 3.24582 24.9152 3.73275 24.4087 4.37487C24.72 4.70569 25.1289 5.15359 25.1289 5.89329C25.1289 6.45735 24.8557 6.65249 24.642 6.65249C24.3697 6.65249 24.3307 6.55585 23.9999 5.67862C23.7081 4.8999 23.1635 4.19924 22.5205 3.63518L22.7732 3.24675ZM25.0509 11.7346C25.1865 11.7746 25.2841 11.8907 25.2841 12.0264C25.2841 12.2606 25.0899 12.2792 24.7386 12.3182C24.4087 13.5253 23.9989 15.1218 22.9675 17.2238L22.5595 17.0491C23.552 14.2845 23.8447 11.6175 23.8057 11.3258L25.0518 11.7337L25.0509 11.7346ZM27.6008 11.3657C29.1582 13.0402 29.3534 14.4416 29.3534 15.1617C29.3534 15.7648 29.1006 16.1932 28.7688 16.1932C28.3795 16.1932 28.3219 15.6682 28.2438 14.8309C28.0691 13.0588 27.5822 12.1435 27.309 11.6371L27.6008 11.3657ZM38.9508 2.44851L39.6524 1.5146C40.0213 1.84449 40.9952 2.85739 40.9952 3.09063C40.9952 3.22723 40.4107 3.26533 40.2555 3.26533V18.8983H39.3206V17.458H31.2416V18.8788H30.3068V1.53226L31.3968 2.44665H38.9508V2.44851ZM31.2416 9.20518H34.784V3.11014H31.2416V9.20518ZM31.2416 16.7973H34.784V9.86681H31.2416V16.7973ZM39.3206 9.20518V3.11014H35.7002V9.20518H39.3206ZM39.3206 16.7973V9.86681H35.7002V16.7973H39.3206Z" fill="#B97850" stroke="#B97850" stroke-width="0.426531" stroke-miterlimit="10"/>
<path d="M45.274 2.7598C46.1113 3.59706 47.3574 3.69464 48.1947 3.69464C48.9344 3.69464 50.7446 3.50042 51.1349 3.44281C51.2705 3.13057 51.8355 1.78779 51.8355 1.5341C51.8355 1.2228 51.3495 1.2228 51.2901 1.2228C50.687 1.2228 50.4333 1.35847 50.2391 1.45604C50.3162 0.599262 50.9788 0.482178 51.6404 0.482178C52.5752 0.482178 53.3344 0.716347 53.3344 1.12429C53.3344 1.25997 52.9646 1.68836 52.9061 1.80637C52.7109 2.21432 52.4191 2.89547 52.2045 3.30434C53.0417 3.16867 56.4094 2.6232 57.2866 2.21432C57.4027 2.15671 57.8507 1.7469 57.9677 1.7469C58.3571 1.7469 59.4471 1.86399 59.4471 2.40854C59.4471 2.9345 58.4547 3.12872 58.2595 3.16775C54.8529 3.88792 52.2045 4.17971 51.7185 4.23826C50.8226 5.91279 48.9734 8.22944 48.7011 8.46268C48.9929 8.26847 50.2 7.27601 50.4537 7.1199C51.5047 6.43875 52.2639 6.28356 52.9256 6.28356C53.6457 6.28356 55.2422 6.41923 55.691 9.00909C56.3917 8.7173 59.5651 7.60683 60.2073 7.355C60.8884 7.10131 60.9655 7.08179 60.9655 6.86806C60.9655 6.73239 60.5966 5.69998 59.6228 5.75852C59.7194 5.40819 59.9536 5.2335 60.3234 5.2335C61.1607 5.2335 62.4849 7.02418 62.4849 7.84286C62.4849 8.15417 62.3492 8.44596 62.115 8.44596C62.0184 8.44596 61.5696 8.34931 61.4729 8.34931C61.2787 8.34931 58.9026 8.93289 55.7886 9.8287C55.8081 10.14 55.8277 10.5098 55.8277 11.2495C55.8277 12.4762 55.7106 13.9556 55.5935 14.462C55.5359 14.6562 55.4188 14.8514 55.1651 14.8514C54.7962 14.8514 54.5815 14.3059 54.5815 13.9946C54.5815 13.7418 54.7367 12.6908 54.7562 12.4762C54.8529 11.4057 54.8529 10.8007 54.8343 10.1586C54.3669 10.3147 51.8355 11.2105 50.2586 12.6128C49.4613 13.3134 48.9939 14.1117 48.9939 15.2212C48.9939 17.2656 50.765 17.6549 54.6977 17.6549C55.7682 17.6549 57.9696 17.6159 59.7984 17.1885C60.0511 17.1299 60.4991 16.9924 60.6747 16.9924C61.0046 16.9924 61.4144 17.4793 61.4144 17.9077C61.4144 18.1809 61.3177 18.2971 61.0445 18.3751C60.5195 18.5498 57.6564 18.705 54.6596 18.705C50.8236 18.705 48.2923 18.258 48.2923 15.3374C48.2923 13.0597 49.8506 11.4057 54.7757 9.36035C54.6977 8.71823 54.4644 6.90709 52.6152 6.90709C50.3171 6.90709 47.008 10.6836 46.4821 11.3267C45.4311 12.5533 45.3725 12.6304 45.0807 12.6304C44.906 12.6304 44.6523 12.4353 44.6523 11.9112C44.6523 11.4633 44.749 11.3471 45.1969 11.0144C45.5863 10.7422 46.6382 9.82776 47.3388 9.08807C48.0395 8.34838 49.3052 6.92754 50.7074 4.31817C50.4547 4.33769 48.546 4.43526 48.4094 4.43526C48.0014 4.43526 45.9375 4.43526 45.0807 3.1696L45.2749 2.76073L45.274 2.7598Z" fill="#B97850" stroke="#B97850" stroke-width="0.426531" stroke-miterlimit="10"/>
<path d="M77.529 16.6606C77.529 16.8353 77.529 17.0305 77.7817 17.089C78.2677 17.1866 79.7676 17.1866 80.3316 17.1866C81.4021 17.1866 82.415 17.1866 82.6873 16.7582C83.0571 16.1737 83.3685 12.6304 83.388 12.4548L83.8359 12.4938C83.8164 13.0774 83.7392 16.3484 83.7392 16.8353C83.9334 16.8549 84.3618 16.9134 84.3618 17.3808C84.3618 17.7888 83.9334 17.9254 83.6612 17.9839C83.0376 18.1196 80.7795 18.1976 80.5844 18.1976C76.8664 18.1976 76.5932 18.1976 76.5932 16.406V12.3377H73.2051C73.4003 12.4929 73.5564 12.6481 73.5564 12.7457C73.5564 12.8618 73.2832 12.8813 73.2256 12.8813H73.0304C71.8233 16.8521 70.3439 18.0796 66.1195 18.8202L65.9058 18.2553C68.5923 17.7497 71.2007 16.6978 72.0965 12.3377H69.2539V12.9798H68.3191V0.558384L69.6433 1.45419H80.6039L81.2655 0.539795C81.5183 0.753525 82.6288 1.96064 82.6288 2.11582C82.6288 2.2134 82.5321 2.25149 81.811 2.35V12.9798H80.8957V12.3377H77.5281V16.6588L77.529 16.6606ZM69.2557 4.649H80.8966V2.1372H69.2557V4.649ZM69.2557 8.13373H80.8966V5.31063H69.2557V8.13373ZM69.2557 11.6761H80.8966V8.79444H69.2557V11.6761Z" fill="#B97850" stroke="#B97850" stroke-width="0.426531" stroke-miterlimit="10"/>
<path d="M91.5813 2.35187C91.717 2.35187 98.4542 1.45606 98.8426 1.1652C98.9392 1.10666 99.3286 0.717293 99.4067 0.678264C99.4643 0.639235 99.5423 0.600206 99.6009 0.600206C100.049 0.600206 101.236 1.80825 101.236 2.21619C101.236 2.46802 101.14 2.48847 100.789 2.50798C100.381 2.54608 100.03 2.75981 99.6408 3.07204C96.1756 5.7 94.4035 7.25744 93.1964 8.30844C94.0727 7.78433 96.2342 6.49916 99.0368 6.49916C101.451 6.49916 104.119 8.25082 104.119 11.9892C104.119 13.5848 103.554 15.6877 101.86 17.1095C100.614 18.18 98.7831 18.4904 96.9729 18.4904C93.0412 18.4904 91.6966 16.7973 91.6966 15.2974C91.6966 13.818 92.9046 12.4548 94.909 12.4548C97.4403 12.4548 99.3091 14.6358 99.3091 16.407C99.3091 17.1467 98.9783 17.4589 98.6465 17.4589C98.3743 17.4589 98.3352 17.4589 98.1605 16.407C97.9263 15.0642 96.8949 13.175 94.6368 13.175C94.0727 13.175 92.3777 13.3692 92.3777 15.0242C92.3777 16.3094 93.5263 17.7107 96.7192 17.7107C102.716 17.7107 103.027 12.9408 103.027 11.9103C103.027 9.12619 101.256 7.25652 98.6279 7.25652C97.7712 7.25652 94.3645 7.49068 91.5024 10.3519C90.5285 11.3053 89.7498 12.1045 89.1662 12.9613C88.9134 13.3311 88.7573 13.4092 88.5631 13.4092C88.2323 13.4092 88.0566 12.9808 88.0566 12.7466C88.0566 12.1621 88.446 11.7151 89.0881 11.1696C89.2433 11.034 91.1706 9.26186 91.599 8.8725C91.8908 8.5993 99.0164 2.38903 99.2496 2.15579C99.2886 2.11583 99.3853 2.03777 99.3853 1.96064C99.3853 1.9021 99.3277 1.864 99.2691 1.864C99.1335 1.864 92.4744 3.26533 91.7932 3.61566C91.7152 3.65562 91.4038 3.88887 91.3258 3.88887C90.8584 3.88887 89.8845 2.58511 89.8845 1.59173C89.8845 0.929166 90.1763 0.694993 90.43 0.481262C90.43 0.793494 90.5266 2.35093 91.5786 2.35093L91.5813 2.35187Z" fill="#B97850" stroke="#B97850" stroke-width="0.426531" stroke-miterlimit="10"/>
<path d="M126.967 6.63293L119.392 15.0669L111.818 6.63293" stroke="#B97850" stroke-width="1.01011" stroke-linecap="round" stroke-linejoin="round"/>
</svg>
