<svg width="333" height="77" viewBox="0 0 333 77" fill="none" xmlns="http://www.w3.org/2000/svg">
<path d="M31.1966 44.8392H36.5649V32.2142C36.5649 25.8599 31.8693 20.6031 25.7585 19.7212C25.7585 19.7212 25.5773 19.698 25.4853 19.6868C25.3868 19.6748 25.2892 19.6608 25.1907 19.6515C21.614 19.1999 19.1477 18.3524 17.2009 17.1407C14.9819 15.7616 14.4447 14.8286 14.4447 14.8286C14.4447 14.8286 13.0323 15.718 12.8613 17.6768C12.7089 19.4201 13.3315 21.3837 15.4353 22.8844C12.904 25.1927 11.3159 28.5176 11.3159 32.2133C11.3159 39.1865 16.9677 44.8382 23.9409 44.8382C26.6432 44.8382 29.1438 43.987 31.1975 42.5411V44.8382L31.1966 44.8392ZM23.9399 39.8295C19.7341 39.8295 16.3256 36.4201 16.3256 32.2142C16.3256 28.0084 19.735 24.5989 23.9399 24.5989C28.1449 24.5989 31.5543 28.0084 31.5543 32.2142C31.5543 36.4201 28.1449 39.8295 23.9399 39.8295ZM102.712 44.8392H108.08V32.2142C108.08 25.8599 103.384 20.6031 97.2736 19.7212C97.2736 19.7212 97.0924 19.698 97.0004 19.6868C96.9019 19.6748 96.8043 19.6608 96.7058 19.6515C93.13 19.1999 90.6629 18.3524 88.716 17.1407C86.497 15.7616 85.9599 14.8286 85.9599 14.8286C85.9599 14.8286 84.5474 15.718 84.3755 17.6768C84.2231 19.4201 84.8457 21.3837 86.9495 22.8844C84.4191 25.1927 82.831 28.5176 82.831 32.2133C82.831 39.1865 88.4828 44.8382 95.4551 44.8382C98.1574 44.8382 100.659 43.987 102.713 42.5411V44.8382L102.712 44.8392ZM95.4541 39.8295C91.2492 39.8295 87.8397 36.4201 87.8397 32.2142C87.8397 28.0084 91.2492 24.5989 95.4541 24.5989C99.659 24.5989 103.069 28.0084 103.069 32.2142C103.069 36.4201 99.66 39.8295 95.4541 39.8295ZM86.7163 52.6599C82.4045 60.1655 72.5301 65.4279 61.064 65.4279C49.5978 65.4279 39.7225 60.1664 35.4108 52.6599H41.4733C45.4598 57.4855 52.7471 60.7249 61.064 60.7249C69.3809 60.7249 76.6691 57.4855 80.6547 52.6599H86.7163ZM175.889 19.5883C168.916 19.5883 163.264 25.2401 163.264 32.2133C163.264 39.1865 168.916 44.8382 175.889 44.8382C182.862 44.8382 188.514 39.1865 188.514 32.2133C188.514 25.2401 182.861 19.5883 175.889 19.5883ZM175.889 39.8286C171.684 39.8286 168.275 36.4191 168.275 32.2133C168.275 28.0074 171.684 24.598 175.889 24.598C180.094 24.598 183.505 28.0074 183.505 32.2133C183.505 36.4191 180.095 39.8286 175.889 39.8286ZM152.029 28.7741V44.8382H146.565V28.775C146.565 26.7195 144.9 25.0533 142.844 25.0533C140.787 25.0533 139.122 26.7186 139.122 28.775V44.8392H133.658V28.775C133.658 26.7195 131.991 25.0533 129.935 25.0533C127.88 25.0533 126.213 26.7186 126.213 28.775V44.8392H120.749V28.775C120.749 27.4155 121.053 26.1294 121.582 24.9688C119.924 23.4643 119.42 21.6448 119.563 20.0084C119.745 17.9222 121.25 16.9734 121.25 16.9734C121.25 16.9734 121.979 17.7939 124.185 19.4378C124.731 19.8439 125.35 20.1784 126.034 20.4674C127.22 19.9099 128.538 19.5883 129.935 19.5883C132.452 19.5883 134.729 20.6031 136.389 22.2414C138.048 20.6022 140.326 19.5883 142.843 19.5883C147.917 19.5883 152.029 23.7012 152.029 28.7741M54.6985 44.8392H49.3302V11.7416H54.6985V21.1411C56.3461 20.1561 58.2734 19.5893 60.3326 19.5893C66.4091 19.5893 71.3361 24.5162 71.3361 30.5927V44.8401H65.9677V30.5927C65.9677 27.4815 63.4438 24.9585 60.3326 24.9585C57.2215 24.9585 54.6985 27.4806 54.6985 30.5927V44.8392Z" fill="black"/>
<path d="M54.6994 44.8392H49.3311V11.7416H54.6994V21.1411C56.347 20.1561 58.2743 19.5893 60.3335 19.5893C66.41 19.5893 71.336 24.5162 71.336 30.5917V44.8392H65.9676V30.5917C65.9676 27.4806 63.4447 24.9576 60.3326 24.9576C57.2205 24.9576 54.6985 27.4796 54.6985 30.5917L54.6994 44.8392Z" fill="black"/>
<path d="M206.79 36.3094C206.918 36.158 207.037 35.9777 207.133 35.7695C207.46 35.0605 207.41 34.3385 207.023 34.1601C206.635 33.9816 206.055 34.4128 205.727 35.1218C205.716 35.1469 205.709 35.172 205.698 35.1971C205.698 35.1841 205.7 35.1339 205.7 35.1218C205.689 34.358 205.346 33.7419 204.925 33.7419C204.505 33.7419 204.163 34.3561 204.151 35.1181C204.151 35.1311 204.153 35.1832 204.153 35.1962C204.143 35.1711 204.135 35.146 204.124 35.1209C203.796 34.4119 203.216 33.9807 202.828 34.1591C202.441 34.3375 202.39 35.0596 202.718 35.7686C202.813 35.9768 202.932 36.157 203.061 36.3085C200.997 36.9209 199.519 38.5127 199.519 40.3815C199.519 42.7771 201.944 44.7267 204.925 44.7267C207.907 44.7267 210.332 42.7771 210.332 40.3815C210.332 38.5127 208.853 36.9218 206.79 36.3094Z" fill="black"/>
<path d="M234.016 36.1562C234.103 36.0344 234.185 35.9006 234.254 35.7519C234.58 35.0429 234.53 34.3209 234.143 34.1424C233.755 33.964 233.175 34.3952 232.848 35.1042C232.781 35.2492 232.733 35.3932 232.698 35.5345C232.663 35.3932 232.615 35.2492 232.548 35.1042C232.222 34.3952 231.64 33.964 231.253 34.1424C230.865 34.3209 230.816 35.0429 231.142 35.7519C231.211 35.9015 231.293 36.0344 231.38 36.1562C229.035 36.631 227.292 38.3353 227.292 40.3648C227.292 42.7604 229.717 44.71 232.698 44.71C235.679 44.71 238.104 42.7604 238.104 40.3648C238.104 38.3344 236.361 36.6301 234.016 36.1562Z" fill="black"/>
<path d="M245.738 33.1082C249.265 32.6166 252.762 31.9977 256.228 31.271V44.8392H266.719V28.6812C269.746 27.8207 272.747 26.8803 275.71 25.8376V13.8622C266.085 17.5551 256.048 20.2045 245.739 21.7563V33.1091L245.738 33.1082Z" fill="black"/>
<path d="M236.293 8.35077C232.261 8.35077 228.981 11.6311 228.981 15.6631C228.981 17.1091 229.409 18.4537 230.136 19.5902H224.056V13.8065H213.566V19.5902H204.635V30.0806H213.566V44.8401H224.056V30.0806H232.988V22.1773C233.983 22.6837 235.103 22.9755 236.293 22.9755C240.325 22.9755 243.604 19.6952 243.604 15.6631C243.604 11.6311 240.324 8.35077 236.293 8.35077ZM236.293 18.7734C234.577 18.7734 233.182 17.3776 233.182 15.6631C233.182 13.9486 234.577 12.552 236.293 12.552C238.008 12.552 239.404 13.9477 239.404 15.6631C239.404 17.3786 238.008 18.7734 236.293 18.7734Z" fill="black"/>
<path d="M283.524 26.2418L293.974 28.0195V22.2088L283.524 20.4302V26.2418Z" fill="black"/>
<path d="M283.524 16.5348L293.974 18.3134V12.5018L283.524 10.7241V16.5348Z" fill="black"/>
<path d="M283.524 46.2489L293.974 42.727V32.2012L283.524 35.8625V46.2489Z" fill="black"/>
<path d="M315.048 17.6916C317.13 17.3906 319.058 17.0653 320.667 16.7447V11.0521C315.035 12.1662 305.675 13.3306 298.937 13.3613V19.0623C300.672 19.0549 302.583 18.9703 304.557 18.8318V22.337H297.77V28.0315H304.557V31.6427H298.937V44.8382H320.667V31.6427H315.048V28.0315H321.835V22.337H315.048V17.6916ZM313.647 40.4H305.958V36.0817H313.647V40.4Z" fill="black"/>
</svg>
