<svg width="316" height="56" viewBox="0 0 316 56" fill="none" xmlns="http://www.w3.org/2000/svg">
<path d="M24.2976 17.8257C17.172 17.8257 10.958 22.8215 10.958 30.9841C10.958 39.1467 17.172 44.1425 24.2976 44.1425C29.0628 44.1425 33.4183 41.9039 35.7823 37.9814L33.5196 36.0281C32.6284 36.9611 31.2094 37.8225 29.9447 38.3727C28.3185 39.0798 26.5501 39.4181 24.2242 39.236C20.5238 38.946 17.8977 36.7307 17.2761 32.6707H37.5414C37.6018 32.1243 37.6371 31.5621 37.6371 30.9841C37.6371 22.8215 31.4222 17.8257 24.2976 17.8257ZM17.5418 28.0792C18.5036 24.7422 21.1344 22.7323 24.2976 22.7323C27.4608 22.7323 30.0915 24.7422 31.0533 28.0792H17.5418Z" fill="#B97850"/>
<path d="M69.9429 40.418C69.1354 40.0091 68.4347 39.4246 67.5631 38.2807L61.4095 30.2648L67.4218 22.6625C68.1411 21.8457 68.7609 21.3746 69.4504 21.0317C70.2152 20.6516 70.822 20.4639 71.7875 20.4639H72.1174V18.6695H61.2719V20.4639H61.4262C61.9856 20.4639 62.2012 20.6609 62.3025 20.9453C62.4595 21.3885 62.2923 21.8754 61.586 22.7768C61.508 22.8772 58.5836 26.584 58.5836 26.584C58.5836 26.584 55.9872 23.1904 55.6778 22.7768C55.0031 21.8754 54.8535 21.3876 55.0254 20.9453C55.136 20.6609 55.3581 20.4639 55.9185 20.4639H56.0727V18.6695H43.0816V20.4639H43.4385C44.404 20.4639 45.0043 20.6516 45.7561 21.0317C46.4641 21.3904 47.0923 21.8847 47.8246 22.775L53.9075 30.7945L47.8785 38.2807C46.9678 39.4246 46.2458 40.0091 45.4243 40.418C44.6595 40.798 44.0527 40.9857 43.0872 40.9857H42.7573V42.7801H53.5619V40.9857H53.4076C52.8482 40.9857 52.6326 40.7887 52.5313 40.5044C52.3743 40.0611 52.5415 39.5742 53.2478 38.6728C53.3258 38.5743 56.6303 34.3833 56.6303 34.3833C56.6303 34.3833 59.5686 38.2593 59.8781 38.6728C60.5527 39.5742 60.7023 40.062 60.5304 40.5044C60.4198 40.7887 60.1968 40.9857 59.6374 40.9857H59.4831V42.7801H72.5281V40.9857H72.2605C71.295 40.9857 70.6947 40.798 69.9429 40.418Z" fill="#B97850"/>
<path d="M158.025 17.8257C150.9 17.8257 144.686 22.8215 144.686 30.9841C144.686 39.1467 150.9 44.1425 158.025 44.1425C165.15 44.1425 171.365 39.1458 171.365 30.9841C171.365 22.8224 165.15 17.8257 158.025 17.8257ZM158.025 39.2369C154.026 39.2369 150.876 36.0281 150.876 30.985C150.876 25.9419 154.026 22.7332 158.025 22.7332C162.024 22.7332 165.174 25.9419 165.174 30.985C165.174 36.0281 162.024 39.2369 158.025 39.2369Z" fill="#B97850"/>
<path d="M88.9027 40.4179C88.4064 40.0091 88.1509 39.4246 88.1509 38.2806V23.7163H78.8555V25.5107H79.0794C80.0449 25.5107 80.5012 25.6984 80.964 26.0785C81.4602 26.4874 81.7167 27.0719 81.7167 28.2158V38.2797C81.7167 39.4236 81.4611 40.0081 80.964 40.417C80.5021 40.7971 80.0449 40.9848 79.0794 40.9848H78.8555V42.7792H91.0112V40.9848H90.7872C89.8217 40.9848 89.3654 40.798 88.9027 40.4179Z" fill="#B97850"/>
<path d="M84.7867 20.6637C86.846 20.6637 88.5159 18.9938 88.5159 16.9336C88.5159 14.8734 86.846 13.2045 84.7867 13.2045C82.7275 13.2045 81.0576 14.8744 81.0576 16.9336C81.0576 18.9928 82.7275 20.6637 84.7867 20.6637Z" fill="#B97850"/>
<path d="M137.474 40.4179C136.978 40.0091 136.723 39.4245 136.723 38.2806V28.0169C136.723 24.9587 136.426 22.3252 134.318 20.2185C132.597 18.4985 130.329 17.8257 127.673 17.8257C124.4 17.8257 122.041 19.3367 120.369 20.9824C120.168 20.7213 119.948 20.4648 119.699 20.2176C117.978 18.4976 115.71 17.8248 113.054 17.8248C110.784 17.8248 108.955 18.6797 107.488 19.8283V18.6676H98.437V20.462H98.661C99.6265 20.462 100.083 20.6497 100.546 21.0298C101.042 21.4377 101.298 22.0232 101.298 23.1671L101.296 38.3271C101.289 39.4376 101.034 40.0128 100.546 40.4151C100.084 40.7952 99.6265 40.9829 98.661 40.9829H98.437V42.7773H110.347V40.9829H110.123C109.158 40.9829 108.702 40.7952 108.239 40.4151C107.743 40.0063 107.487 39.4218 107.487 38.2778V26.6834C107.503 24.2562 109.229 22.564 111.699 22.564C114.169 22.564 115.914 24.272 115.914 26.716V38.3429C115.903 39.4413 115.649 40.0146 115.163 40.4142C114.701 40.7943 114.244 40.982 113.278 40.982H113.054V42.7764H124.964V40.982H124.74C123.774 40.982 123.318 40.7943 122.855 40.4142C122.359 40.0053 122.103 39.4208 122.103 38.2769V26.715C122.103 24.2701 123.836 22.5631 126.318 22.5631C128.8 22.5631 130.532 24.2711 130.532 26.715V38.2769C130.532 39.4208 130.276 40.0053 129.779 40.4142C129.317 40.7943 128.86 40.982 127.895 40.982H127.671V42.7764H139.581V40.982H139.357C138.392 40.982 137.935 40.7943 137.473 40.4142" fill="#B97850"/>
<path d="M189.82 34.2848C189.949 34.1333 190.067 33.954 190.162 33.7468C190.488 33.0405 190.438 32.3213 190.052 32.1438C189.666 31.9663 189.087 32.3956 188.762 33.1019C188.751 33.1269 188.743 33.152 188.732 33.1762C188.732 33.1632 188.734 33.113 188.734 33.1019C188.724 32.3408 188.382 31.7275 187.964 31.7275C187.546 31.7275 187.204 32.3389 187.193 33.0981C187.193 33.1112 187.195 33.1632 187.195 33.1762C187.185 33.1511 187.178 33.126 187.165 33.1019C186.84 32.3956 186.261 31.9663 185.876 32.1438C185.489 32.3213 185.44 33.0405 185.765 33.7468C185.861 33.954 185.98 34.1333 186.107 34.2848C184.051 34.8944 182.579 36.4807 182.579 38.341C182.579 40.7274 184.994 42.6686 187.964 42.6686C190.934 42.6686 193.349 40.7274 193.349 38.341C193.349 36.4797 191.876 34.8944 189.82 34.2848Z" fill="#B97850"/>
<path d="M216.935 34.1324C217.022 34.0116 217.104 33.8778 217.172 33.7291C217.498 33.0228 217.448 32.3036 217.062 32.1261C216.676 31.9486 216.097 32.3779 215.772 33.0842C215.705 33.2282 215.659 33.3722 215.623 33.5126C215.588 33.3722 215.541 33.2282 215.475 33.0842C215.149 32.3779 214.57 31.9486 214.185 32.1261C213.799 32.3036 213.749 33.0228 214.074 33.7291C214.143 33.8778 214.224 34.0106 214.311 34.1324C211.975 34.6054 210.238 36.3022 210.238 38.3243C210.238 40.7106 212.653 42.6518 215.623 42.6518C218.593 42.6518 221.008 40.7106 221.008 38.3243C221.008 36.3022 219.272 34.6054 216.935 34.1324Z" fill="#B97850"/>
<path d="M228.611 31.0975C232.124 30.6077 235.606 29.9916 239.059 29.2677V42.7811H249.506V26.6881C252.522 25.8313 255.51 24.8946 258.462 23.8557V11.9296C248.875 15.6076 238.879 18.2458 228.612 19.7911V31.0975H228.611Z" fill="#B97850"/>
<path d="M219.204 6.44037C215.188 6.44037 211.922 9.70765 211.922 13.723C211.922 15.1624 212.348 16.5024 213.072 17.6343H207.017V11.8747H196.57V17.6343H187.675V28.082H196.57V42.781H207.017V28.082H215.912V20.2111C216.902 20.7157 218.019 21.0066 219.204 21.0066C223.219 21.0066 226.485 17.7393 226.485 13.7239C226.485 9.70858 223.219 6.44037 219.204 6.44037ZM219.204 16.8202C217.496 16.8202 216.106 15.4301 216.106 13.7221C216.106 12.0141 217.496 10.6239 219.204 10.6239C220.912 10.6239 222.302 12.0141 222.302 13.7221C222.302 15.4301 220.912 16.8202 219.204 16.8202Z" fill="#B97850"/>
<path d="M266.243 24.2581L276.651 26.0293V20.2418L266.243 18.4706V24.2581Z" fill="#B97850"/>
<path d="M266.243 14.591L276.651 16.3621V10.5747L266.243 8.80353V14.591Z" fill="#B97850"/>
<path d="M266.243 44.1843L276.651 40.6763V30.1942L266.243 33.8406V44.1843Z" fill="#B97850"/>
<path d="M297.639 15.7432C299.713 15.4431 301.633 15.1197 303.236 14.8V9.13062C297.627 10.2411 288.305 11.3999 281.594 11.4305V17.1083C283.322 17.1009 285.225 17.0163 287.191 16.8788V20.37H280.431V26.0413H287.191V29.6385H281.594V42.7801H303.236V29.6385H297.639V26.0413H304.398V20.37H297.639V15.7432ZM296.244 38.3596H288.586V34.059H296.244V38.3596Z" fill="#B97850"/>
</svg>
