<svg width="128" height="20" viewBox="0 0 128 20" fill="none" xmlns="http://www.w3.org/2000/svg">
<path d="M6.04934 4.52083L6.76952 3.39178C7.23694 3.82017 7.78241 4.54035 8.01565 4.83214L7.82051 5.18339H1.04526L0.812012 4.52083H6.04934ZM5.87463 12.5413L6.55578 11.5684C6.92563 11.8797 7.68484 12.7755 7.68484 12.8721C7.68484 12.9892 7.41256 13.0673 7.08175 13.1054V18.9458H6.14784V17.7201H2.42893V19.3361H1.49409V11.6464L2.75882 12.5413H5.87463ZM5.3496 7.01311L6.02982 5.9426C6.51675 6.39051 6.96466 6.97409 7.23786 7.30583L7.04272 7.67568H1.61118V7.01311H5.3496ZM5.3496 9.69961L6.01124 8.64862C6.38108 9.01847 6.94607 9.69962 7.19883 10.0118L7.02414 10.3622H1.61211V9.69961H5.3496ZM5.07733 2.1856L5.73896 1.21173C6.08929 1.52304 6.16735 1.62061 6.92656 2.51549L6.71283 2.8463H1.88438V2.18467H5.07826L5.07733 2.1856ZM2.42893 17.0594H6.14784V13.2048H2.42893V17.0594ZM13.7789 9.0194H16.2898L17.0685 7.77232C17.3603 8.04553 17.9253 8.6291 18.4708 9.34928L18.2756 9.6801H13.7789V13.5542H16.9728L17.8296 12.2114C18.0814 12.4251 18.7245 13.1063 19.2885 13.8265L19.0748 14.2168H13.7799V19.2785H12.8645V14.2168H8.11509L7.84281 13.5542H12.8645V9.6801H8.91332L8.66056 9.01847H12.8645V5.33858H8.66056L8.38736 4.67695H11.4056C11.2699 4.50132 10.8796 3.60644 10.7821 3.42988C10.2961 2.49504 9.84816 1.95049 9.08896 1.30837L9.3222 0.99707C10.4132 1.5221 12.0868 2.72921 12.0868 4.19001C12.0868 4.42326 12.0672 4.4818 11.9706 4.67695H14.3644C15.0846 3.42988 15.7081 1.83434 15.9413 1.0361L17.1484 1.67822C17.3826 1.81389 17.6549 1.97001 17.6549 2.16423C17.6549 2.35844 17.4412 2.37795 17.3046 2.37795C17.0128 2.37795 16.9152 2.35844 16.7015 2.33893C15.8837 3.64268 15.4163 4.20767 15.0074 4.67602H16.9747L17.811 3.50701C18.0443 3.72074 18.5897 4.24763 19.1928 4.98639L18.9791 5.33765H13.7808V9.01754L13.7789 9.0194Z" fill="black" stroke="black" stroke-width="0.426531" stroke-miterlimit="10"/>
<path d="M28.8615 3.29423C29.0957 3.46986 29.2518 3.58602 29.2518 3.76165C29.2518 3.87873 29.1347 3.99489 28.9015 3.99489C28.7658 3.99489 28.6283 3.97538 28.395 3.91776C27.5968 5.32002 26.6239 7.05217 24.6761 9.48498C26.3506 9.42736 26.5458 9.42736 28.2185 9.32979C27.83 8.31689 27.5382 7.8885 27.1879 7.46104L27.4602 7.12929C28.0242 7.55768 29.5817 8.74528 29.5817 10.4198C29.5817 11.0824 29.2518 11.2766 29.0567 11.2766C28.7834 11.2766 28.6097 10.9848 28.5511 10.6921C28.5316 10.5174 28.4331 10.1085 28.3755 9.85575C27.791 9.97191 27.5392 10.0119 26.6238 10.128V19.3565H25.689V10.2646C24.7347 10.3817 24.5014 10.4003 23.2943 10.5183C23.1977 10.7516 23.0806 11.0043 22.944 11.0043C22.8854 11.0043 22.7878 10.9263 22.7302 10.7125L22.3994 9.44781C22.5351 9.46732 22.7302 9.48591 22.9635 9.48591H24.073C26.4482 6.09874 27.6544 3.06191 27.7529 2.51644L28.8615 3.29423ZM22.6708 3.70311C23.3724 4.03392 23.6056 4.20862 23.9959 4.52085C24.8703 2.74968 25.2411 1.23034 25.2801 0.880005L26.4882 1.52213C26.74 1.6578 26.8571 1.77488 26.8571 1.89197C26.8571 2.12521 26.6043 2.12521 26.5263 2.12521C26.4482 2.12521 26.215 2.1057 26.0598 2.08618C25.1631 3.70217 24.8127 4.18911 24.3063 4.83123C24.6185 5.16205 25.0264 5.60995 25.0264 6.34965C25.0264 6.91371 24.7542 7.10885 24.5404 7.10885C24.2682 7.10885 24.2282 7.01221 23.8983 6.13498C23.6065 5.35626 23.062 4.6556 22.4189 4.09154L22.6708 3.70311ZM24.9484 12.191C25.0841 12.2309 25.1826 12.3471 25.1826 12.4828C25.1826 12.717 24.9883 12.7355 24.6371 12.7746C24.3063 13.9817 23.8974 15.5782 22.8659 17.6801L22.457 17.5054C23.4495 14.7409 23.7422 12.0739 23.7041 11.7821L24.9493 12.1901L24.9484 12.191ZM27.4992 11.8221C29.0567 13.4966 29.2518 14.8979 29.2518 15.6181C29.2518 16.2212 28.9981 16.6496 28.6673 16.6496C28.2779 16.6496 28.2194 16.1246 28.1423 15.2873C27.9676 13.5152 27.4806 12.5999 27.2074 12.0934L27.4992 11.8221ZM38.8492 2.90487L39.5499 1.97096C39.9197 2.30085 40.8927 3.31375 40.8927 3.54699C40.8927 3.68359 40.3091 3.72169 40.1539 3.72169V19.3547H39.2191V17.9143H31.1391V19.3352H30.2052V1.98862L31.2953 2.90301H38.8492V2.90487ZM31.1391 9.66153H34.6824V3.5665H31.1391V9.66153ZM31.1391 17.2536H34.6824V10.3232H31.1391V17.2536ZM39.2191 9.66153V3.5665H35.5987V9.66153H39.2191ZM39.2191 17.2536V10.3232H35.5987V17.2536H39.2191Z" fill="black" stroke="black" stroke-width="0.426531" stroke-miterlimit="10"/>
<path d="M45.172 3.21616C46.0083 4.05342 47.2554 4.15099 48.0926 4.15099C48.8323 4.15099 50.6425 3.95678 51.0328 3.89916C51.1685 3.58693 51.7335 2.24415 51.7335 1.99046C51.7335 1.67916 51.2475 1.67916 51.188 1.67916C50.5849 1.67916 50.3312 1.81483 50.1361 1.9124C50.2141 1.05562 50.8767 0.938538 51.5384 0.938538C52.4732 0.938538 53.2324 1.17271 53.2324 1.58065C53.2324 1.71632 52.8625 2.14472 52.804 2.26273C52.6089 2.67068 52.3171 3.35183 52.1024 3.7607C52.9397 3.62503 56.3073 3.07956 57.1836 2.67068C57.3007 2.61307 57.7477 2.20326 57.8657 2.20326C58.2541 2.20326 59.3451 2.32035 59.3451 2.8649C59.3451 3.39086 58.3526 3.58508 58.1575 3.62411C54.7508 4.34428 52.1024 4.63607 51.6164 4.69462C50.7206 6.36915 48.8714 8.6858 48.5991 8.91904C48.8909 8.72483 50.098 7.73237 50.3508 7.57626C51.4027 6.89511 52.1619 6.73992 52.8235 6.73992C53.5428 6.73992 55.1402 6.87559 55.589 9.46545C56.2897 9.17366 59.4622 8.06319 60.1043 7.81136C60.7864 7.55767 60.8635 7.53815 60.8635 7.32442C60.8635 7.18875 60.4946 6.15634 59.5207 6.21488C59.6174 5.86455 59.8515 5.68986 60.2214 5.68986C61.0586 5.68986 62.3819 7.48054 62.3819 8.29922C62.3819 8.61053 62.2462 8.90232 62.013 8.90232C61.9164 8.90232 61.4675 8.80567 61.3709 8.80567C61.1757 8.80567 58.8005 9.38925 55.6856 10.2851C55.7052 10.5964 55.7256 10.9662 55.7256 11.7059C55.7256 12.9325 55.6085 14.4119 55.4914 14.9184C55.4338 15.1126 55.3167 15.3077 55.063 15.3077C54.6932 15.3077 54.4785 14.7622 54.4785 14.4509C54.4785 14.1982 54.6346 13.1472 54.6542 12.9325C54.7508 11.862 54.7508 11.2571 54.7322 10.6149C54.2639 10.7711 51.7335 11.6669 50.1565 13.0691C49.3583 13.7698 48.8918 14.568 48.8918 15.6776C48.8918 17.7219 50.663 18.1113 54.5956 18.1113C55.6661 18.1113 57.8675 18.0723 59.6963 17.6448C59.9491 17.5863 60.397 17.4487 60.5726 17.4487C60.9025 17.4487 61.3114 17.9357 61.3114 18.3641C61.3114 18.6373 61.2148 18.7534 60.9425 18.8315C60.4174 19.0062 57.5544 19.1614 54.5566 19.1614C50.7215 19.1614 48.1902 18.7144 48.1902 15.7937C48.1902 13.5161 49.7486 11.862 54.6737 9.8167C54.5956 9.17458 54.3624 7.36345 52.5131 7.36345C50.2151 7.36345 46.906 11.14 46.38 11.783C45.329 13.0097 45.2705 13.0868 44.9787 13.0868C44.8031 13.0868 44.5503 12.8916 44.5503 12.3675C44.5503 11.9196 44.6469 11.8035 45.0948 11.4708C45.4842 11.1985 46.5361 10.2841 47.2368 9.54443C47.9375 8.80474 49.2022 7.3839 50.6054 4.77453C50.3517 4.79405 48.4439 4.89162 48.3073 4.89162C47.8994 4.89162 45.8355 4.89162 44.9787 3.62596L45.1729 3.21709L45.172 3.21616Z" fill="black" stroke="black" stroke-width="0.426531" stroke-miterlimit="10"/>
<path d="M77.4269 17.117C77.4269 17.2917 77.4269 17.4868 77.6797 17.5454C78.1657 17.643 79.6655 17.643 80.2296 17.643C81.3001 17.643 82.313 17.643 82.5853 17.2146C82.9551 16.6301 83.2664 13.0868 83.2859 12.9112L83.7338 12.9502C83.7143 13.5338 83.6363 16.8048 83.6363 17.2917C83.8314 17.3112 84.2598 17.3698 84.2598 17.8372C84.2598 18.2451 83.8314 18.3817 83.5582 18.4403C82.9356 18.5759 80.6775 18.654 80.4823 18.654C76.7644 18.654 76.4911 18.654 76.4911 16.8624V12.7941H73.1031C73.2982 12.9493 73.4534 13.1044 73.4534 13.202C73.4534 13.3182 73.1811 13.3377 73.1235 13.3377H72.9284C71.7212 17.3084 70.2409 18.536 66.0174 19.2766L65.8037 18.7116C68.4902 18.2061 71.0977 17.1542 71.9945 12.7941H69.1518V13.4362H68.217V1.01474L69.5403 1.91055H80.5009L81.1635 0.996155C81.4153 1.20989 82.5267 2.417 82.5267 2.57218C82.5267 2.66976 82.4291 2.70785 81.708 2.80636V13.4362H80.7936V12.7941H77.426V17.1151L77.4269 17.117ZM69.1537 5.10535H80.7946V2.59356H69.1537V5.10535ZM69.1537 8.59008H80.7946V5.76699H69.1537V8.59008ZM69.1537 12.1324H80.7946V9.2508H69.1537V12.1324Z" fill="black" stroke="black" stroke-width="0.426531" stroke-miterlimit="10"/>
<path d="M91.4792 2.80725C91.6149 2.80725 98.3511 1.91144 98.7405 1.62058C98.8371 1.56204 99.2265 1.17268 99.3046 1.13365C99.3622 1.09463 99.4402 1.0556 99.4988 1.0556C99.9467 1.0556 101.134 2.26364 101.134 2.67158C101.134 2.92341 101.038 2.94385 100.687 2.96337C100.278 3.00147 99.9281 3.2152 99.5387 3.52743C96.0735 6.15539 94.3014 7.71283 93.0943 8.76383C93.9706 8.23972 96.1321 6.95455 98.9347 6.95455C101.349 6.95455 104.017 8.70621 104.017 12.4446C104.017 14.0402 103.452 16.1431 101.758 17.5649C100.512 18.6354 98.681 18.9458 96.8708 18.9458C92.9382 18.9458 91.5945 17.2526 91.5945 15.7528C91.5945 14.2734 92.8016 12.9102 94.8069 12.9102C97.3382 12.9102 99.206 15.0912 99.206 16.8623C99.206 17.602 98.8762 17.9143 98.5444 17.9143C98.2712 17.9143 98.2331 17.9143 98.0575 16.8623C97.8242 15.5196 96.7928 13.6304 94.5347 13.6304C93.9706 13.6304 92.2756 13.8246 92.2756 15.4796C92.2756 16.7648 93.4242 18.1661 96.6171 18.1661C102.613 18.1661 102.925 13.3962 102.925 12.3656C102.925 9.58158 101.154 7.7119 98.5258 7.7119C97.6691 7.7119 94.2624 7.94607 91.4002 10.8073C90.4264 11.7607 89.6477 12.5599 89.0641 13.4166C88.8104 13.7865 88.6552 13.8645 88.4601 13.8645C88.1302 13.8645 87.9536 13.4362 87.9536 13.202C87.9536 12.6175 88.3439 12.1705 88.986 11.625C89.1412 11.4894 91.0685 9.71725 91.4969 9.32789C91.7887 9.05469 98.9133 2.84442 99.1475 2.61118C99.1865 2.57122 99.2832 2.49316 99.2832 2.41603C99.2832 2.35749 99.2256 2.31939 99.167 2.31939C99.0314 2.31939 92.3723 3.72072 91.6911 4.07105C91.6131 4.11101 91.3008 4.34425 91.2228 4.34425C90.7563 4.34425 89.7824 3.0405 89.7824 2.04711C89.7824 1.38455 90.0742 1.15038 90.3279 0.936646C90.3279 1.24888 90.4245 2.80632 91.4764 2.80632L91.4792 2.80725Z" fill="black" stroke="black" stroke-width="0.426531" stroke-miterlimit="10"/>
<path d="M126.865 7.08838L119.29 15.5224L111.715 7.08838" stroke="black" stroke-width="1.01011" stroke-linecap="round" stroke-linejoin="round"/>
</svg>
