<svg width="315" height="54" viewBox="0 0 315 54" fill="none" xmlns="http://www.w3.org/2000/svg">
<path d="M287.915 0H26.8854C12.037 0 0 12.037 0 26.8854V26.8864C0 41.7348 12.037 53.7718 26.8854 53.7718H287.915C302.764 53.7718 314.801 41.7348 314.801 26.8864V26.8854C314.801 12.037 302.764 0 287.915 0Z" fill="#B97850"/>
<path d="M26.5889 30.8882C26.7673 36.1571 29.5049 36.1571 30.042 36.1571C32.6514 36.1571 33.7005 33.701 34.0843 32.7801L34.5694 33.1388C33.3428 36.7202 31.1423 37.2834 29.6332 37.2834C25.9245 37.2834 24.6709 33.7271 24.6709 31.0164C24.6709 27.435 26.5889 24.493 29.7865 24.493C33.0352 24.493 34.391 27.1274 34.4681 30.8882H26.5889ZM32.4971 30.0946C32.4971 27.6134 31.8318 25.3618 29.7856 25.3618C28.0209 25.3618 26.666 27.2036 26.6391 30.0946H32.4971Z" fill="white" stroke="white" stroke-width="1.06679" stroke-linecap="round" stroke-linejoin="round"/>
<path d="M45.8534 26.4621C45.9817 26.2837 46.0579 26.0272 46.0579 25.8228C46.0579 25.4901 45.7001 25.4901 45.4185 25.4901H44.8554V24.6965H48.6933V25.4901C47.7975 25.4901 47.5419 25.4901 46.6981 26.6675L44.217 30.1717L47.9768 35.62C48.4377 36.2854 48.8977 36.2854 49.3326 36.2854V37.079H44.7541V36.2854H45.189C45.649 36.2854 45.9557 36.2854 45.9557 35.9536C45.9557 35.7232 45.8274 35.5187 45.701 35.3143L43.219 31.5796L40.4823 35.5949C40.3541 35.7733 40.3039 35.8505 40.3039 36.0038C40.3039 36.2854 40.7388 36.2854 40.8661 36.2854H41.9663V37.079H37.8228V36.2854C38.4881 36.2854 39.0503 36.2854 39.7919 35.2111L42.7088 30.8891L39.9201 26.7195C39.1265 25.5171 38.897 25.492 38.0532 25.492V24.6984H42.299V25.492H41.8632C41.7099 25.492 41.3521 25.492 41.3521 25.7986C41.3521 26.004 41.4283 26.1573 41.5054 26.2595L43.7561 29.5333L45.8544 26.463L45.8534 26.4621Z" fill="white" stroke="white" stroke-width="1.06679" stroke-linecap="round" stroke-linejoin="round"/>
<path d="M53.1721 25.005C54.605 25.005 55.5259 24.9279 56.5741 24.493V35.3133C56.5741 35.7222 56.6261 36.2854 57.3677 36.2854H58.3648V37.079H53.147V36.2854H54.2212C54.9888 36.2854 54.9888 35.5438 54.9888 35.3133V25.8237H53.1721V25.005ZM57.061 19.2752C57.061 20.1701 56.4728 20.8605 55.8075 20.8605C55.091 20.8605 54.5279 20.1441 54.5279 19.2752C54.5279 18.3543 55.117 17.689 55.8075 17.689C56.4468 17.689 57.061 18.3283 57.061 19.2752Z" fill="white" stroke="white" stroke-width="1.06679" stroke-linecap="round" stroke-linejoin="round"/>
<path d="M77.5499 35.3133C77.5499 35.7733 77.575 36.2853 78.3425 36.2853H79.1612V37.0789H74.3523V36.2853H75.196C75.8614 36.2853 75.9636 35.8764 75.9636 35.3133V28.4061C75.9636 27.8439 75.9636 25.465 74.224 25.465C72.3572 25.465 71.5645 28.5344 71.5645 29.2768V35.3133C71.5645 35.672 71.5645 36.2853 72.3311 36.2853H73.1498V37.0789H68.3669V36.2853H69.1856C69.9532 36.2853 69.9531 35.6971 69.9531 35.3133V28.4061C69.9531 27.7668 69.9531 25.465 68.2387 25.465C66.4229 25.465 65.476 28.5083 65.476 29.6857V35.3133C65.476 35.7482 65.476 36.2853 66.2696 36.2853H67.0882V37.0789H62.2793V36.2853H63.1231C63.6853 36.2853 63.8897 35.9276 63.8897 35.3133V25.8237H62.3295V25.0301C63.1482 25.005 63.9919 25.005 65.476 24.493V27.5112C66.0642 25.8488 67.0102 24.493 68.6736 24.493C69.5433 24.493 71.3591 25.005 71.5385 27.383C71.768 26.6665 72.5356 24.493 74.6329 24.493C77.5499 24.493 77.5499 27.6134 77.5499 28.3299V35.3133Z" fill="white" stroke="white" stroke-width="1.06679" stroke-linecap="round" stroke-linejoin="round"/>
<path d="M87.6999 24.519C90.3594 24.519 92.5599 27.3588 92.5599 30.8882C92.5599 34.3924 90.3855 37.2833 87.6999 37.2833C84.9121 37.2833 82.8398 34.2902 82.8398 30.8882C82.8398 27.5112 84.9121 24.519 87.6999 24.519ZM90.6419 30.8882C90.6419 27.3839 89.3874 25.3116 87.6999 25.3116C85.9352 25.3116 84.7578 27.5372 84.7578 30.8882C84.7578 34.3664 85.9854 36.4897 87.6999 36.4897C89.4646 36.4897 90.6419 34.2381 90.6419 30.8882Z" fill="white" stroke="white" stroke-width="1.06679" stroke-linecap="round" stroke-linejoin="round"/>
<path d="M109.013 27.6367C108.778 30.1308 108.522 31.3454 107.713 32.6027C107.01 33.6899 105.88 34.3506 104.943 34.3506C104.496 34.3506 104.091 34.1583 104.091 33.6685C104.091 33.1361 104.602 32.9651 105.177 32.7523C106.584 32.2626 107.97 31.3881 108.459 27.5094L109.014 27.6376L109.013 27.6367ZM110.164 32.5386C110.782 33.0496 112.401 34.3497 113.146 34.6907C113.146 34.5197 113.126 27.3375 113.126 24.887C112.571 24.9502 110.164 25.1853 109.674 25.2271C109.162 25.2912 106.562 25.6109 106.392 25.9306C106.263 26.1434 106.243 26.1657 106.157 26.1657C105.751 26.1657 104.495 24.5887 104.495 23.4801C104.495 22.9476 104.751 22.7553 104.963 22.6066C105.006 23.3305 105.411 24.44 106.157 24.44C107.095 24.44 111.933 24.0767 113.126 23.9921C113.126 23.3314 113.083 20.3912 113.083 19.7937C113.083 19.645 113.083 19.3672 113.02 19.239C112.913 19.0048 112.381 18.7492 111.826 18.7492C111.677 18.7492 111.549 18.7706 111.336 18.8133C111.529 18.1526 111.742 17.8543 112.232 17.8543C112.871 17.8543 114.768 18.4296 114.768 19.1758C114.768 19.304 114.619 19.4313 114.363 19.645C114.192 19.7723 114.086 23.5238 114.086 23.928C117.006 23.6938 118.902 23.5442 119.372 23.416C119.478 23.3955 119.841 23.1391 119.947 23.1391C120.053 23.1391 122.313 23.416 122.313 24.1408C122.313 24.375 122.1 24.6733 121.843 24.6733C121.695 24.6733 119.755 24.545 119.349 24.545C118.519 24.545 118.071 24.5655 114.064 24.8006C114.064 24.9716 114.021 27.6776 114.021 27.7203C114.021 30.2145 114.192 33.5384 114.234 33.9436C114.255 34.0718 114.341 34.647 114.341 34.7753C114.341 35.6479 113.723 37.0771 113.275 37.0771C113.083 37.0771 113.062 36.9916 112.892 36.2454C112.828 35.9685 111.933 35.0522 109.951 32.9846L110.164 32.5376V32.5386ZM117.473 27.0401C122.14 30.2358 122.822 32.4958 122.822 33.5821C122.822 34.4138 122.417 34.5411 122.289 34.5411C121.907 34.5411 121.821 34.3283 121.288 33.1342C120.478 31.2803 118.986 29.0427 117.154 27.4871L117.473 27.0401ZM123.44 19.6878C123.44 20.7741 122.801 22.3511 120.904 22.3511C119.05 22.3511 118.347 20.8382 118.347 19.751C118.347 19.0048 118.752 17.1082 120.904 17.1082C122.033 17.1082 123.44 17.8748 123.44 19.6869V19.6878ZM118.986 19.7082C118.986 20.8586 119.882 21.6048 120.947 21.6048C122.246 21.6048 122.801 20.5176 122.801 19.7082C122.801 18.9193 122.311 17.832 120.904 17.832C119.668 17.832 118.986 18.7278 118.986 19.7082Z" fill="white" stroke="white" stroke-width="1.06679" stroke-linecap="round" stroke-linejoin="round"/>
<path d="M127.151 31.2181C130.795 29.6412 135.101 26.2308 137.402 24.1204C139.319 22.3734 141.835 19.5605 141.835 19.028C141.835 18.516 141.323 18.1545 140.62 18.0895C140.726 17.7698 140.875 17.5143 141.259 17.5143C142.174 17.5143 143.816 19.1767 143.816 19.9229C143.816 20.0939 143.773 20.2426 143.432 20.2426C143.347 20.2426 143.198 20.2222 143.091 20.1999C142.644 20.7323 140.555 23.1205 138.446 24.8034C138.701 25.0162 139.127 25.4 139.127 25.8052C139.127 25.9111 138.914 26.2521 138.893 26.3376C138.786 26.7846 138.765 30.9198 138.765 30.9626C138.765 31.8574 138.913 36.0772 138.913 36.5669C138.913 37.5687 138.402 37.6319 138.274 37.6319C137.699 37.6319 137.635 35.7353 137.635 35.3301C137.635 35.2446 137.678 34.9891 137.763 34.6062C137.827 33.6045 137.87 32.7941 137.87 27.7222C137.87 25.8684 137.827 25.7401 137.699 25.3563C134.949 27.9146 130.006 30.8548 127.363 31.771L127.15 31.2172L127.151 31.2181Z" fill="white" stroke="white" stroke-width="1.06679" stroke-linecap="round" stroke-linejoin="round"/>
<path d="M164.864 28.6152L165.451 27.6636C166.119 28.21 166.868 29.0603 166.868 29.1616C166.868 29.4051 166.18 29.4655 166.079 29.4655V36.8354H165.107V35.7222H155.144V36.8354H154.172V27.764L155.508 28.6152H159.577V24.7067H152.754C152.43 25.6787 150.952 30.0927 150.79 30.7813C150.669 31.2264 150.649 31.6121 150.649 31.9159C150.649 32.401 150.669 32.5032 150.973 33.6165C151.054 33.9408 151.176 34.6889 151.176 35.1758C151.176 36.1069 150.831 36.6942 150.386 36.6942C150.041 36.6942 149.92 36.3504 149.92 36.0465C149.92 36.0065 150.001 35.4193 150.021 35.318C150.081 34.8524 150.102 34.4073 150.102 34.0421C150.102 31.4104 149.292 31.1261 148.523 31.0257L148.583 30.5601C148.927 30.6206 149.008 30.6206 149.171 30.6206C149.656 30.6206 149.777 30.3566 150.243 29.3856C150.77 28.2314 152.774 22.9866 153.2 21.9329L153.544 22.2581C153.241 23.2087 153.139 23.5331 152.978 24.02H159.578V20.0307C156.562 20.315 155.145 20.3745 153.443 20.4358L153.342 19.8485C161.502 19.1609 164.277 18.2084 164.985 17.885L165.957 18.9174C166.139 19.12 166.22 19.2008 166.22 19.4025C166.22 19.5038 166.179 19.5651 166.017 19.5651C165.815 19.5651 165.552 19.4434 165.186 19.2408C163.567 19.5846 162.756 19.6859 160.549 19.9498V24.02H165.612L166.483 22.7237C166.908 23.088 167.09 23.2701 167.961 24.3434L167.779 24.7076H160.55V28.6161L164.864 28.6152ZM148.665 22.1559C149.232 22.2971 151.317 22.8649 151.317 24.3824C151.317 24.7671 151.115 25.1119 150.831 25.1119C150.65 25.1119 150.589 25.0301 150.163 24.2607C149.596 23.2283 149.172 22.9644 148.543 22.5796L148.665 22.1559ZM149.678 18.1062C152.431 18.7947 152.634 19.9693 152.634 20.3736C152.634 20.5966 152.574 21.0213 152.209 21.0213C151.905 21.0213 151.784 20.7992 151.642 20.5557C150.914 19.2399 149.901 18.7539 149.536 18.5717L149.678 18.1062ZM155.145 29.3038V35.0345H165.107V29.3038H155.145Z" fill="white" stroke="white" stroke-width="1.06679" stroke-linecap="round" stroke-linejoin="round"/>
<path d="M178.849 25.6974C178.529 26.5932 177.143 30.4496 176.888 31.2385C176.675 31.8993 175.972 34.0737 175.972 34.5421C175.972 34.7131 176.014 34.819 176.249 35.3524C176.335 35.5652 176.378 35.7994 176.378 35.9917C176.378 36.5669 176.1 36.6952 175.908 36.6952C175.014 36.6952 174.032 33.6054 174.032 29.2146C174.032 26.359 174.353 24.7607 175.268 20.6691C175.354 20.3281 175.481 19.6674 175.481 19.5391C175.481 19.2836 175.119 18.6443 174.182 18.4742C174.31 18.1118 174.459 17.899 174.821 17.899C175.695 17.899 177.038 19.3691 177.038 20.0725C177.038 20.3708 176.953 20.4359 176.655 20.6477C176.378 20.8187 174.758 25.2299 174.758 29.577C174.758 31.4532 175.014 32.3695 175.142 32.8164C176.207 30.7702 176.441 30.195 178.466 25.5496L178.85 25.6983L178.849 25.6974ZM182.621 27.8495C182.215 28.6171 181.662 29.7461 181.662 31.2376C181.662 32.9633 182.791 34.0077 183.538 34.3702C184.476 34.8171 185.775 34.9454 187.054 34.9454C187.672 34.9454 189.399 34.8822 190.123 34.6684C190.252 34.6257 190.805 34.3274 190.933 34.3274C190.997 34.3274 192.532 34.3274 192.532 34.9881C192.532 36.1813 189.228 36.1813 188.098 36.1813C184.497 36.1813 183.218 35.6702 182.28 34.754C181.343 33.8591 180.959 32.6436 180.959 31.5145C180.959 29.7461 181.897 28.1478 182.238 27.593L182.621 27.8495ZM185.35 23.2673C185.669 22.8622 186.692 21.6049 188.545 20.4331C188.269 20.4749 187.416 20.8382 187.288 20.8801C186.222 21.3484 185.711 21.498 184.645 21.498C182.919 21.498 182.322 21.1356 181.661 20.7304L181.597 20.1125C182.258 20.368 182.856 20.5818 183.601 20.5818C184.56 20.5818 186.329 20.1552 187.223 19.8569C188.439 19.4313 189.312 19.1535 189.993 19.1535C190.867 19.1535 190.995 19.9424 190.995 20.1552C190.995 20.645 190.846 20.6673 190.397 20.71C188.97 20.881 186.967 22.1801 185.624 23.587L185.347 23.2673H185.35Z" fill="white" stroke="white" stroke-width="1.06679" stroke-linecap="round" stroke-linejoin="round"/>
<path d="M213.227 20.4758L213.93 19.4954C214.485 19.9006 215.464 20.9451 215.464 21.0947C215.464 21.2006 215.443 21.2006 214.548 21.4348V32.7514H213.525V31.6437H206.173V37.42H205.171V31.6437H197.755V33.0292H196.731V19.4109L198.16 20.4758H205.171V17.3219L206.748 17.4706C206.919 17.4706 207.28 17.5133 207.28 17.7902C207.28 18.1536 206.62 18.2809 206.173 18.3664V20.4758H213.227ZM205.171 21.2006H197.755V25.676H205.171V21.2006ZM205.171 26.4008H197.755V30.9189H205.171V26.4008ZM206.173 25.6769H213.525V21.2016H206.173V25.6769ZM206.173 30.9198H213.525V26.4017H206.173V30.9198Z" fill="white" stroke="white" stroke-width="1.06679" stroke-linecap="round" stroke-linejoin="round"/>
<path d="M239.784 35.6925C239.506 35.778 239.123 35.9276 239.016 36.7583C236.991 36.9284 233.71 37.013 231.643 37.013C228.169 37.013 224.439 36.8215 223.096 33.0487C222.5 34.1787 221.028 36.2881 220.859 36.5446C220.859 36.6506 220.902 36.8215 220.902 36.9916C220.902 37.2044 220.817 37.2899 220.731 37.2899C220.603 37.2899 220.453 37.1189 220.305 36.8633L219.644 35.7334C220.07 35.5206 221.157 34.6043 222.393 33.0701V25.9297H220.517L219.793 25.9938L219.622 25.1203L220.538 25.2057H222.222L222.925 24.0981C223.564 24.6305 224.352 25.6323 224.352 25.846C224.352 25.9733 224.352 26.0802 223.415 26.2289V32.5376C223.564 32.9846 223.67 33.2615 223.926 33.6239C227.549 30.7256 230.192 24.375 230.192 21.1774L231.385 21.6039C231.172 20.5594 231.108 20.0483 231.023 19.5159H226.419L226.228 18.7911H230.66L231.471 17.5124C232.11 18.0244 232.941 19.1962 232.941 19.3663C232.941 19.5363 232.344 19.6441 231.726 19.6869C232.28 23.5433 233.9 29.6597 239.611 32.9632L239.483 33.3898C239.036 33.4102 238.758 33.5812 238.481 34.1992C236.413 32.5804 233.175 29.682 231.491 22.1587C231.385 22.1792 231.363 22.1792 231.214 22.1792C230.702 24.7151 229.446 30.129 224.266 34.0291C225.843 35.6702 228.634 35.6702 230.937 35.6702C232.962 35.6702 237.011 35.6274 239.802 35.2232L239.782 35.6916L239.784 35.6925ZM220.411 17.3433C221.583 17.7902 223.884 18.6861 223.884 20.5186C223.884 20.9878 223.693 21.3075 223.394 21.3075C223.16 21.3075 223.117 21.2016 222.585 20.3067C221.753 18.857 220.774 18.2391 220.156 17.8339L220.411 17.3442V17.3433Z" fill="white" stroke="white" stroke-width="1.06679" stroke-linecap="round" stroke-linejoin="round"/>
<path d="M257.092 24.7383C257.326 25.7624 257.901 27.4452 258.583 28.7871C259.648 30.8975 259.99 31.7078 259.99 32.8582C259.99 33.5393 259.819 35.2018 258.199 36.0762C257.006 36.7369 254.386 36.9079 253.106 36.9079C248.269 36.9079 246.052 36.3755 246.052 34.201C246.052 32.9651 246.755 31.495 246.777 31.4309C246.564 31.6864 246.244 32.007 245.69 32.007C244.731 32.007 243.473 30.9625 243.473 28.7248C243.473 27.4248 244.07 24.0153 246.328 24.0153C247.565 24.0153 248.055 24.9743 248.226 25.3145C248.268 24.7606 248.289 24.4837 248.46 21.9264C246.968 22.076 246.265 22.076 246.137 22.076C244.581 22.076 243.642 21.3725 243.217 20.7759L243.323 20.3076C244.048 20.9683 244.751 21.3084 245.987 21.3084C247.116 21.3084 248.139 21.117 248.523 21.0315C248.587 20.0297 248.63 19.3477 248.63 18.6228C248.63 18.24 248.246 18.1545 247.862 18.1545C247.415 18.1545 247.308 18.24 247.116 18.3887C246.988 17.5151 247.691 17.3655 248.459 17.3655C249.866 17.3655 250.292 17.8766 250.292 18.1322C250.292 18.239 250.164 18.3673 249.929 18.5587C249.758 18.7074 249.566 20.4126 249.524 20.8177C252.102 20.1784 252.209 20.157 252.699 19.8587C253.168 19.5818 253.254 19.5391 253.381 19.5391C253.573 19.5391 254.404 19.8374 254.404 20.2639C254.404 20.604 253.999 20.775 253.68 20.8819C253.274 21.0305 251.613 21.4571 249.439 21.7981C249.396 22.2033 248.949 26.4435 248.949 26.4863C248.949 26.6145 249.035 27.147 249.035 27.2538C249.035 28.0205 248.545 29.2564 247.819 30.983C247.03 32.8591 246.967 33.0719 246.967 33.7754C246.967 34.9686 247.394 35.8002 252.232 35.8002C253.723 35.8002 256.706 35.672 257.879 34.884C258.582 34.4147 258.838 33.4985 258.838 32.966C258.838 31.9429 258.774 31.7728 257.516 28.0223C257.047 26.6368 256.791 25.4864 256.643 24.847L257.09 24.7402L257.092 24.7383ZM244.475 28.447C244.475 28.8094 244.475 31.153 245.989 31.153C247.139 31.153 248.099 27.6367 248.099 26.6136C248.099 25.6973 247.417 24.5032 246.223 24.6956C244.773 24.9307 244.475 27.4239 244.475 28.447ZM256.602 19.7723C256.793 19.7305 256.986 19.6878 257.305 19.6878C260.822 19.6878 262.782 23.2032 262.782 24.7801C262.782 25.5263 262.506 25.8246 262.229 25.8246C261.909 25.8246 261.845 25.6759 261.333 24.2477C259.991 20.6031 258.2 20.2834 256.687 20.2202L256.602 19.7723Z" fill="white" stroke="white" stroke-width="1.06679" stroke-linecap="round" stroke-linejoin="round"/>
<rect x="278.708" y="21" width="14.875" height="9.95312" stroke="white" stroke-width="2"/>
<path d="M275 23.0469V35H291.875" stroke="white" stroke-width="2"/>
</svg>
