<svg width="46" height="52" viewBox="0 0 46 52" fill="none" xmlns="http://www.w3.org/2000/svg">
<path d="M26 2.99679C26 1.33992 24.6568 -0.00179816 23 -2.59265e-05C21.3432 0.00174631 20 1.34634 20 3.00321L26 2.99679ZM20.8787 50.7702C22.0503 51.9405 23.9498 51.9385 25.1213 50.7657L44.213 31.6532C45.3846 30.4804 45.3846 28.5808 44.213 27.4105C43.0415 26.2402 41.142 26.2422 39.9704 27.4151L23 44.4039L6.0296 27.4514C4.85804 26.281 2.95856 26.2831 1.787 27.4559C0.615437 28.6287 0.615437 30.5282 1.787 31.6986L20.8787 50.7702ZM20 3.00321L20 25.8265L26 25.8201L26 2.99679L20 3.00321ZM20 25.8265L20 48.6498L26 48.6434L26 25.8201L20 25.8265Z" fill="#CC0033"/>
</svg>
