<svg width="14" height="18" viewBox="0 0 14 18" fill="none" xmlns="http://www.w3.org/2000/svg">
<path d="M7.84375 1.6875C7.84375 1.22151 7.46599 0.84375 7 0.84375C6.53401 0.84375 6.15625 1.22151 6.15625 1.6875L7.84375 1.6875ZM6.40338 16.9091C6.73288 17.2386 7.26712 17.2386 7.59662 16.9091L12.9662 11.5395C13.2957 11.21 13.2957 10.6758 12.9662 10.3463C12.6367 10.0168 12.1025 10.0168 11.773 10.3463L7 15.1193L2.22703 10.3463C1.89752 10.0168 1.36329 10.0168 1.03379 10.3463C0.704281 10.6758 0.704281 11.21 1.03379 11.5395L6.40338 16.9091ZM6.15625 1.6875L6.15625 16.3125L7.84375 16.3125L7.84375 1.6875L6.15625 1.6875Z" fill="white"/>
</svg>
