<svg viewBox="0 0 320 77" xmlns="http://www.w3.org/2000/svg"><g fill="#b97850"><path d="m24.45 19.36c-7.24 0-13.56 5.08-13.56 13.37s6.32 13.37 13.56 13.37c4.84 0 9.27-2.27 11.67-6.26l-2.3-1.99c-.91.95-2.35 1.82-3.63 2.38-1.65.72-3.45 1.06-5.81.88-3.76-.29-6.43-2.55-7.06-6.67h20.6c.06-.56.1-1.13.1-1.71 0-8.3-6.32-13.37-13.56-13.37m-6.88 10.42c.98-3.39 3.65-5.43 6.87-5.43s5.89 2.04 6.87 5.43h-13.73z"/><path d="m70.84 42.32c-.82-.42-1.53-1.01-2.42-2.17l-6.25-8.15 6.11-7.73c.73-.83 1.36-1.31 2.06-1.66.78-.39 1.39-.58 2.38-.58h.34v-1.82h-11.02v1.82h.16c.57 0 .79.2.89.49.16.45-.01.95-.73 1.86-.08.1-3.05 3.87-3.05 3.87s-2.64-3.45-2.95-3.87c-.69-.92-.84-1.41-.66-1.86.11-.29.34-.49.91-.49h.16v-1.82h-13.2v1.82h.36c.98 0 1.59.19 2.36.58.72.36 1.36.87 2.1 1.77l6.18 8.15-6.13 7.61c-.93 1.16-1.66 1.76-2.49 2.17-.78.39-1.39.58-2.38.58h-.34v1.82h10.98v-1.82h-.16c-.57 0-.79-.2-.89-.49-.16-.45.01-.95.73-1.86.08-.1 3.44-4.36 3.44-4.36s2.99 3.94 3.3 4.36c.69.92.84 1.41.66 1.86-.11.29-.34.49-.91.49h-.16v1.82h13.26v-1.82h-.27c-.98 0-1.59-.19-2.35-.58"/><path d="m160.35 19.36c-7.24 0-13.56 5.08-13.56 13.37s6.32 13.37 13.56 13.37 13.56-5.08 13.56-13.37-6.32-13.37-13.56-13.37m0 21.76c-4.06 0-7.26-3.26-7.26-8.39s3.2-8.39 7.26-8.39 7.27 3.26 7.27 8.39-3.2 8.39-7.27 8.39z"/><path d="m90.1 42.32c-.5-.42-.76-1.01-.76-2.17v-14.8h-9.45v1.82h.23c.98 0 1.45.19 1.92.58.5.42.76 1.01.76 2.17v10.23c0 1.16-.26 1.76-.76 2.17-.47.39-.93.58-1.92.58h-.23v1.82h12.35v-1.82h-.23c-.98 0-1.45-.19-1.92-.58"/><path d="m85.92 22.25c2.09 0 3.79-1.7 3.79-3.79s-1.7-3.79-3.79-3.79-3.79 1.7-3.79 3.79 1.7 3.79 3.79 3.79"/><path d="m139.47 42.32c-.5-.42-.76-1.01-.76-2.17v-10.43c0-3.11-.3-5.78-2.44-7.93-1.75-1.75-4.05-2.43-6.75-2.43-3.33 0-5.72 1.54-7.42 3.21-.2-.27-.43-.53-.68-.78-1.75-1.75-4.05-2.43-6.75-2.43-2.31 0-4.17.87-5.66 2.04v-1.18h-9.2v1.82h.23c.98 0 1.45.19 1.92.58.5.41.76 1.01.76 2.17v15.41c0 1.13-.27 1.71-.76 2.12-.47.39-.93.58-1.92.58h-.23v1.82h12.1v-1.82h-.23c-.98 0-1.45-.19-1.92-.58-.5-.42-.76-1.01-.76-2.17v-11.78c.02-2.47 1.77-4.19 4.28-4.19s4.28 1.74 4.28 4.22v11.82c-.01 1.12-.27 1.7-.76 2.11-.47.39-.93.58-1.92.58h-.23v1.82h12.1v-1.82h-.23c-.98 0-1.45-.19-1.92-.58-.5-.42-.76-1.01-.76-2.17v-11.75c0-2.48 1.76-4.22 4.28-4.22s4.28 1.74 4.28 4.22v11.75c0 1.16-.26 1.76-.76 2.17-.47.39-.93.58-1.92.58h-.23v1.82h12.1v-1.82h-.23c-.98 0-1.45-.19-1.92-.58"/><path d="m192.67 36.09c.13-.15.25-.34.35-.55.33-.72.28-1.45-.11-1.63s-.98.26-1.31.97c-.01.03-.02.05-.03.08 0-.01 0-.06 0-.08-.01-.77-.36-1.4-.78-1.4s-.77.62-.78 1.39v.08c-.01-.03-.02-.05-.03-.08-.33-.72-.92-1.15-1.31-.97s-.44.91-.11 1.63c.1.21.22.39.35.55-2.09.62-3.59 2.23-3.59 4.12 0 2.43 2.45 4.4 5.47 4.4s5.47-1.97 5.47-4.4c0-1.89-1.5-3.5-3.59-4.12z"/><path d="m220.22 35.93c.09-.12.17-.26.24-.41.33-.72.28-1.45-.11-1.63s-.98.26-1.31.97c-.07.15-.12.29-.15.44-.04-.14-.08-.29-.15-.44-.33-.72-.92-1.15-1.31-.97s-.44.91-.11 1.63c.07.15.15.29.24.41-2.37.48-4.14 2.21-4.14 4.26 0 2.43 2.45 4.4 5.47 4.4s5.47-1.97 5.47-4.4c0-2.05-1.76-3.78-4.14-4.26z"/><path d="m232.09 32.85c3.57-.5 7.11-1.12 10.62-1.86v13.73h10.62v-16.35c3.06-.87 6.1-1.82 9.1-2.88v-12.12c-9.74 3.74-19.9 6.42-30.34 7.99z"/><path d="m222.53 7.79c-4.08 0-7.4 3.32-7.4 7.4 0 1.46.43 2.82 1.17 3.97h-6.15v-5.85h-10.62v5.85h-9.04v10.62h9.04v14.94h10.62v-14.94h9.04v-8c1.01.51 2.14.81 3.35.81 4.08 0 7.4-3.32 7.4-7.4s-3.32-7.4-7.4-7.4zm0 10.55c-1.74 0-3.15-1.41-3.15-3.15s1.41-3.15 3.15-3.15 3.15 1.41 3.15 3.15-1.41 3.15-3.15 3.15z"/><path d="m270.33 25.9 10.58 1.8v-5.88l-10.58-1.8z"/><path d="m270.33 16.07 10.58 1.8v-5.88l-10.58-1.8z"/><path d="m270.33 46.15 10.58-3.57v-10.65l-10.58 3.71z"/><path d="m302.24 17.24c2.11-.31 4.06-.63 5.69-.96v-5.76c-5.7 1.13-15.17 2.31-21.99 2.34v5.77c1.76 0 3.69-.09 5.69-.23v3.55h-6.87v5.76h6.87v3.66h-5.69v13.36h21.99v-13.36h-5.69v-3.66h6.87v-5.76h-6.87v-4.7zm-1.42 22.99h-7.78v-4.37h7.78z"/></g><path d="m132.47-130.54h55.07v320.49h-55.07z" fill="none" transform="matrix(0 1 -1 0 189.71 -130.29)"/><path d="m0 0h320v80h-320z" fill="none"/></svg>