<svg viewBox="0 0 340 77" xmlns="http://www.w3.org/2000/svg"><path d="m31.36 44.82h5.46v-12.83c0-6.46-4.77-11.8-10.98-12.7 0 0-.18-.02-.28-.03s-.2-.03-.3-.04c-3.63-.46-6.14-1.32-8.12-2.55-2.26-1.4-2.8-2.35-2.8-2.35s-1.44.9-1.61 2.89c-.16 1.77.48 3.77 2.62 5.29-2.57 2.35-4.19 5.73-4.19 9.48 0 7.09 5.74 12.83 12.83 12.83 2.75 0 5.29-.87 7.37-2.33v2.33zm-7.38-5.09c-4.27 0-7.74-3.47-7.74-7.74s3.46-7.74 7.74-7.74 7.74 3.46 7.74 7.74-3.46 7.74-7.74 7.74m80.06 5.09h5.46v-12.83c0-6.46-4.77-11.8-10.98-12.7 0 0-.18-.02-.28-.03s-.2-.03-.3-.04c-3.63-.46-6.14-1.32-8.12-2.55-2.26-1.4-2.8-2.35-2.8-2.35s-1.44.9-1.61 2.89c-.16 1.77.48 3.77 2.62 5.29-2.57 2.35-4.19 5.73-4.19 9.48 0 7.09 5.74 12.83 12.83 12.83 2.75 0 5.29-.87 7.38-2.33v2.33zm-7.38-5.09c-4.27 0-7.74-3.47-7.74-7.74s3.47-7.74 7.74-7.74 7.74 3.46 7.74 7.74-3.47 7.74-7.74 7.74m-8.88 13.04c-4.38 7.63-14.42 12.98-26.07 12.98s-21.69-5.35-26.07-12.98h6.16c4.05 4.9 11.46 8.2 19.91 8.2s15.86-3.29 19.91-8.2zm90.63-33.61c-7.09 0-12.83 5.74-12.83 12.83s5.74 12.83 12.83 12.83 12.83-5.74 12.83-12.83-5.74-12.83-12.83-12.83m0 20.57c-4.27 0-7.74-3.47-7.74-7.74s3.46-7.74 7.74-7.74 7.74 3.46 7.74 7.74-3.47 7.74-7.74 7.74m-24.25-11.24v16.33h-5.55v-16.33c0-2.09-1.69-3.78-3.78-3.78s-3.78 1.69-3.78 3.78v16.33h-5.55v-16.33c0-2.09-1.69-3.78-3.78-3.78s-3.78 1.69-3.78 3.78v16.33h-5.55v-16.33c0-1.38.31-2.69.85-3.87-1.68-1.53-2.2-3.38-2.05-5.04.19-2.12 1.71-3.08 1.71-3.08s.74.83 2.98 2.5c.56.41 1.18.75 1.88 1.05 1.2-.57 2.54-.89 3.96-.89 2.56 0 4.87 1.03 6.56 2.7 1.69-1.67 4-2.7 6.56-2.7 5.16 0 9.34 4.18 9.34 9.34m-98.94 16.32h-5.46v-33.64h5.46v9.55c1.67-1 3.63-1.58 5.73-1.58 6.18 0 11.18 5.01 11.18 11.18v14.48h-5.46v-14.48c0-3.16-2.56-5.73-5.73-5.73s-5.73 2.56-5.73 5.73v14.48z"/><path d="m55.24 44.82h-5.46v-33.64h5.46v9.55c1.67-1 3.63-1.58 5.73-1.58 6.18 0 11.18 5.01 11.18 11.18v14.48h-5.46v-14.48c0-3.16-2.56-5.73-5.73-5.73s-5.73 2.56-5.73 5.73v14.48z"/><path d="m209.81 36.15c.13-.15.25-.34.35-.55.33-.72.28-1.45-.11-1.64-.39-.18-.98.26-1.32.98-.01.03-.02.05-.03.08 0-.01 0-.06 0-.08-.01-.78-.36-1.4-.79-1.4s-.77.62-.79 1.4v.08c-.01-.03-.02-.05-.03-.08-.33-.72-.92-1.16-1.32-.98-.39.18-.44.92-.11 1.64.1.21.22.39.35.55-2.1.62-3.6 2.24-3.6 4.14 0 2.43 2.46 4.42 5.49 4.42s5.49-1.98 5.49-4.42c0-1.9-1.5-3.52-3.6-4.14z"/><path d="m237.48 36c.09-.12.17-.26.24-.41.33-.72.28-1.45-.11-1.64-.39-.18-.98.26-1.32.98-.07.15-.12.29-.15.44-.04-.14-.08-.29-.15-.44-.33-.72-.92-1.16-1.32-.98-.39.18-.44.92-.11 1.64.07.15.15.29.24.41-2.38.48-4.16 2.21-4.16 4.28 0 2.43 2.46 4.42 5.49 4.42s5.49-1.98 5.49-4.42c0-2.06-1.77-3.8-4.16-4.28z"/><path d="m249.39 32.9c3.59-.5 7.14-1.13 10.66-1.87v13.79h10.66v-16.42c3.08-.87 6.13-1.83 9.14-2.89v-12.17c-9.78 3.75-19.98 6.45-30.46 8.02z"/><path d="m239.8 7.74c-4.1 0-7.43 3.33-7.43 7.43 0 1.47.43 2.84 1.17 3.99h-6.18v-5.88h-10.66v5.88h-9.08v10.66h9.08v15h10.66v-15h9.08v-8.03c1.01.51 2.15.81 3.36.81 4.1 0 7.43-3.33 7.43-7.43s-3.33-7.43-7.43-7.43zm0 10.59c-1.74 0-3.16-1.42-3.16-3.16s1.42-3.16 3.16-3.16 3.16 1.42 3.16 3.16-1.42 3.16-3.16 3.16z"/><path d="m287.8 25.92 10.62 1.81v-5.91l-10.62-1.81z"/><path d="m287.8 16.05 10.62 1.81v-5.9l-10.62-1.81z"/><path d="m287.8 46.25 10.62-3.58v-10.69l-10.62 3.72z"/><path d="m319.83 17.23c2.12-.31 4.08-.64 5.71-.96v-5.79c-5.72 1.13-15.24 2.32-22.08 2.35v5.79c1.76 0 3.7-.09 5.71-.23v3.56h-6.9v5.79h6.9v3.67h-5.71v13.41h22.08v-13.41h-5.71v-3.67h6.9v-5.79h-6.9zm-1.42 23.08h-7.81v-4.39h7.81z"/><g fill="none"><path d="m130.48-130.51h76.92v337.94h-76.92z" transform="matrix(0 1 -1 0 207.4 -130.48)"/><path d="m11.15 11.18h180.09v54.56h-180.09z"/><path d="m202.42 11.18h124.31v54.56h-124.31z"/><path d="m0 0h340v80h-340z"/></g></svg>