<svg width="610" height="353" viewBox="0 0 610 353" fill="none" xmlns="http://www.w3.org/2000/svg">
<rect width="610" height="353" rx="10" fill="#CC0033"/>
<path d="M65 216.2C64.18 216.2 63.5 215.52 63.5 214.7C63.5 213.88 64.18 213.2 65 213.2C65.82 213.2 66.5 213.88 66.5 214.7C66.5 215.52 65.82 216.2 65 216.2ZM65 219.82L71.6 213.22L72.18 213.8L65.58 220.4L72.18 227L71.6 227.58L65 220.98L58.38 227.6L57.8 227.02L64.42 220.4L57.82 213.8L58.4 213.22L65 219.82ZM60.8 220.4C60.8 221.22 60.12 221.9 59.3 221.9C58.48 221.9 57.8 221.22 57.8 220.4C57.8 219.58 58.48 218.9 59.3 218.9C60.12 218.9 60.8 219.58 60.8 220.4ZM69.2 220.4C69.2 219.58 69.88 218.9 70.7 218.9C71.52 218.9 72.2 219.58 72.2 220.4C72.2 221.22 71.52 221.9 70.7 221.9C69.88 221.9 69.2 221.22 69.2 220.4ZM65 224.6C65.82 224.6 66.5 225.28 66.5 226.1C66.5 226.92 65.82 227.6 65 227.6C64.18 227.6 63.5 226.92 63.5 226.1C63.5 225.28 64.18 224.6 65 224.6ZM83.4 217.4H91.66V219.3H83.4V217.4ZM74.94 226.82H93.06V228.72H74.94V226.82ZM82.32 211.4H84.34V227.86H82.32V211.4ZM103.56 218.7H110.34V220.5H103.56V218.7ZM102.78 218.7H104.68V226.74C104.68 227.56 104.88 227.7 105.92 227.7C106.4 227.7 108.68 227.7 109.3 227.7C110.3 227.7 110.46 227.2 110.58 224.54C111.02 224.86 111.82 225.18 112.36 225.3C112.1 228.56 111.54 229.5 109.42 229.5C108.9 229.5 106.2 229.5 105.72 229.5C103.46 229.5 102.78 228.94 102.78 226.74V218.7ZM102.62 212.2H111.28V221.56H109.38V214H102.62V212.2ZM94.64 217.22H100.98V218.68H94.64V217.22ZM94.76 211.8H101.04V213.26H94.76V211.8ZM94.64 219.92H100.98V221.38H94.64V219.92ZM93.68 214.44H101.76V215.98H93.68V214.44ZM95.52 222.64H100.92V228.6H95.52V227.06H99.24V224.18H95.52V222.64ZM94.6 222.64H96.26V229.46H94.6V222.64ZM121.02 211.84L122.6 211.16C123.34 212.2 124.12 213.6 124.4 214.54L122.74 215.3C122.48 214.38 121.74 212.92 121.02 211.84ZM128.42 211.1L130.34 211.78C129.66 213 128.9 214.32 128.26 215.2L126.66 214.58C127.28 213.64 128.02 212.18 128.42 211.1ZM122.8 221.46H124.68C124.36 225.04 123.54 228.08 119.86 229.72C119.64 229.26 119.12 228.6 118.72 228.24C121.96 226.9 122.56 224.38 122.8 221.46ZM126.06 221.22H127.9V227.1C127.9 227.66 127.96 227.74 128.3 227.74C128.46 227.74 129.16 227.74 129.34 227.74C129.72 227.74 129.8 227.42 129.84 225.28C130.2 225.58 130.98 225.9 131.46 226.02C131.3 228.72 130.84 229.44 129.56 229.44C129.24 229.44 128.3 229.44 128 229.44C126.42 229.44 126.06 228.88 126.06 227.12V221.22ZM122.72 216.82V220.2H128.44V216.82H122.72ZM120.92 215.14H130.32V221.86H120.92V215.14ZM116 212.88H117.84V229.66H116V212.88ZM112.9 216.76H120.18V218.52H112.9V216.76ZM116.1 217.46L117.24 217.94C116.46 220.78 114.94 224.32 113.4 226.22C113.22 225.68 112.8 224.9 112.48 224.44C113.9 222.84 115.42 219.82 116.1 217.46ZM119.02 211.38L120.32 212.84C118.4 213.6 115.6 214.14 113.28 214.46C113.18 214.04 112.94 213.42 112.72 213.02C114.96 212.64 117.52 212.06 119.02 211.38ZM117.78 219.42C118.28 219.84 120.1 221.72 120.5 222.18L119.4 223.68C118.92 222.8 117.54 220.92 116.92 220.18L117.78 219.42ZM138.56 214.4H150.14V216.16H138.56V214.4ZM141.78 218.56H147.6V220.26H141.44L141.78 218.56ZM147.14 218.56H147.46L147.78 218.5L148.92 218.84C147.98 224.62 145.28 227.96 141.48 229.68C141.24 229.22 140.78 228.52 140.4 228.16C143.82 226.84 146.36 223.64 147.14 218.88V218.56ZM142.48 220C143.74 223.86 146.42 226.92 150.46 228.12C150.06 228.5 149.52 229.24 149.24 229.74C145 228.26 142.38 224.9 140.94 220.38L142.48 220ZM131.56 221.64C133.32 221.2 135.96 220.42 138.46 219.68L138.72 221.4C136.42 222.16 133.96 222.96 132.06 223.58L131.56 221.64ZM131.88 214.96H138.32V216.72H131.88V214.96ZM134.42 211.1H136.28V227.54C136.28 228.54 136.08 229.02 135.5 229.32C134.9 229.6 134.02 229.66 132.66 229.64C132.6 229.18 132.34 228.4 132.12 227.92C132.96 227.94 133.8 227.94 134.04 227.94C134.32 227.92 134.42 227.84 134.42 227.56V211.1ZM141.12 211.14H142.96C142.92 217.94 142.8 225.56 137.92 229.6C137.62 229.18 137.04 228.6 136.56 228.3C141.16 224.64 141.08 217.52 141.12 211.14ZM161.5 214.34C161.24 216.4 160.84 218.74 160.18 220.96C158.96 225.04 157.32 227.32 155.32 227.32C153.34 227.32 151.54 225.1 151.54 221.76C151.54 217.3 155.46 213.44 160.48 213.44C165.28 213.44 168.32 216.8 168.32 221C168.32 225.2 165.64 228.08 160.76 228.76L159.58 226.9C160.28 226.82 160.86 226.72 161.36 226.62C163.92 226.02 166.22 224.14 166.22 220.92C166.22 217.74 164.12 215.28 160.44 215.28C156.1 215.28 153.54 218.82 153.54 221.58C153.54 223.88 154.54 224.94 155.38 224.94C156.28 224.94 157.22 223.62 158.16 220.54C158.74 218.64 159.18 216.36 159.38 214.28L161.5 214.34ZM170.78 212.88H187.28V214.44H170.78V212.88ZM171.46 227.58H186.68V229.14H171.46V227.58ZM174.82 215.56H183.12V216.94H174.82V215.56ZM174.82 218.1H183.12V219.48H174.82V218.1ZM169.78 220.68H188.2V222.24H169.78V220.68ZM174.14 224.28H183.88V225.8H174.14V224.28ZM173.7 211.12H175.6V221.54H173.7V211.12ZM182.46 211.14H184.38V221.54H182.46V211.14ZM177.98 222.78H179.92V228.46H177.98V222.78ZM174.84 221.12L176.42 221.7C175.18 223.78 173 225.68 170.82 226.68C170.54 226.24 170 225.58 169.6 225.24C171.64 224.44 173.76 222.82 174.84 221.12ZM183.24 221.12C184.3 222.74 186.36 224.26 188.44 225C188.02 225.34 187.46 226.02 187.18 226.46C185.06 225.54 182.94 223.66 181.74 221.68L183.24 221.12ZM189.24 215.2H206.78V217.12H189.24V215.2ZM193.28 224.18H202.58V226.1H193.28V224.18ZM196.98 211.14H198.98V229.68H196.98V211.14ZM196.4 215.86L198.12 216.42C196.36 220.72 193.34 224.54 189.88 226.64C189.56 226.16 188.94 225.44 188.5 225.06C191.82 223.3 194.88 219.62 196.4 215.86ZM199.58 215.92C201.1 219.62 204.14 223.18 207.56 224.88C207.08 225.28 206.42 226.04 206.1 226.58C202.58 224.54 199.62 220.72 197.88 216.5L199.58 215.92ZM211 211.2H212.74V229.66H211V211.2ZM207.86 217.82H215.88V219.58H207.86V217.82ZM210.7 218.76L211.78 219.26C211.1 221.96 209.76 225.42 208.42 227.3C208.24 226.72 207.82 225.9 207.52 225.38C208.76 223.86 210.08 220.94 210.7 218.76ZM212.72 219.78C213.28 220.36 215.28 222.9 215.72 223.52L214.52 225.02C214 223.92 212.5 221.46 211.82 220.54L212.72 219.78ZM207.92 212.72L209.28 212.36C209.82 213.78 210.26 215.66 210.38 216.88L208.92 217.26C208.86 216.04 208.42 214.14 207.92 212.72ZM214.44 212.28L216.06 212.66C215.56 214.22 214.94 216.12 214.42 217.26L213.22 216.9C213.64 215.66 214.18 213.66 214.44 212.28ZM222.12 211.12H223.9V229.68H222.12V211.12ZM215.84 223.76L226.12 221.92L226.42 223.66L216.14 225.52L215.84 223.76ZM217.18 213.7L218.14 212.4C219.28 213.08 220.68 214.1 221.34 214.84L220.34 216.28C219.72 215.5 218.34 214.42 217.18 213.7ZM216.22 218.74L217.1 217.38C218.28 218 219.78 218.96 220.5 219.68L219.54 221.18C218.86 220.46 217.4 219.4 216.22 218.74ZM235.92 212.94C234.26 215.3 231.1 218 227.78 219.78C227.54 219.32 227.02 218.64 226.6 218.24C230.04 216.54 233.32 213.56 234.84 211.08H236.8C238.94 214.04 242.3 216.66 245.46 218C245 218.48 244.54 219.12 244.2 219.7C241.12 218.1 237.72 215.36 235.92 212.94ZM230.94 217.18H240.98V218.86H230.94V217.18ZM228.44 221.22H243.48V222.88H228.44V221.22ZM227.48 227.44H244.54V229.08H227.48V227.44ZM234.9 217.84H236.9V228.28H234.9V217.84ZM229.92 223.78L231.44 223.16C232.24 224.22 233.06 225.68 233.34 226.64L231.72 227.36C231.46 226.4 230.68 224.88 229.92 223.78ZM240.26 223.14L242.06 223.84C241.26 225.08 240.36 226.46 239.62 227.36L238.2 226.76C238.9 225.78 239.78 224.26 240.26 223.14ZM254.04 214.3C256.34 214.66 260.36 214.56 262.42 214.28V216.32C260.14 216.56 256.38 216.56 254.04 216.32V214.3ZM255.18 222.62C255 223.32 254.9 223.84 254.9 224.38C254.9 225.28 255.6 226.02 258.04 226.02C259.82 226.02 261.34 225.86 263.02 225.5L263.06 227.62C261.78 227.86 260.14 228.02 257.98 228.02C254.6 228.02 253.02 226.86 253.02 224.9C253.02 224.18 253.14 223.44 253.36 222.44L255.18 222.62ZM250.54 212.84C250.42 213.22 250.2 214.02 250.12 214.38C249.8 216 249.14 219.76 249.14 221.9C249.14 222.62 249.18 223.32 249.28 224.04C249.6 223.24 250 222.26 250.32 221.5L251.34 222.3C250.8 223.82 250.1 225.96 249.9 226.96C249.84 227.26 249.8 227.66 249.8 227.88C249.82 228.1 249.84 228.4 249.86 228.64L248.04 228.76C247.64 227.36 247.28 225 247.28 222.28C247.28 219.32 247.92 215.92 248.16 214.3C248.22 213.8 248.3 213.18 248.32 212.66L250.54 212.84ZM279.26 213.14C279.26 213.8 279.8 214.32 280.46 214.32C281.12 214.32 281.66 213.8 281.66 213.14C281.66 212.48 281.12 211.94 280.46 211.94C279.8 211.94 279.26 212.48 279.26 213.14ZM278.22 213.14C278.22 211.9 279.22 210.88 280.46 210.88C281.7 210.88 282.7 211.9 282.7 213.14C282.7 214.38 281.7 215.38 280.46 215.38C279.22 215.38 278.22 214.38 278.22 213.14ZM275.12 212.44C275.08 212.72 274.98 213.54 274.98 214C274.98 215.12 274.98 216.8 274.98 217.86C274.98 219.48 274.98 225.74 274.98 227.28C274.98 228.38 274.4 229 273.1 229C272.16 229 270.98 228.94 270.08 228.84L269.9 226.86C270.76 227.02 271.66 227.1 272.16 227.1C272.7 227.1 272.92 226.88 272.92 226.36C272.94 225.42 272.94 218.8 272.94 217.86C272.94 217.18 272.94 215.12 272.94 214C272.94 213.52 272.86 212.76 272.78 212.44H275.12ZM265.78 215.72C266.36 215.8 266.94 215.86 267.58 215.86C268.78 215.86 278.7 215.86 280 215.86C280.5 215.86 281.26 215.8 281.78 215.74V217.82C281.2 217.78 280.52 217.76 280.02 217.76C278.72 217.76 268.86 217.76 267.58 217.76C266.98 217.76 266.32 217.78 265.78 217.84V215.72ZM270.6 220.74C269.72 222.48 267.86 225.06 266.74 226.26L265.02 225.1C266.36 223.84 268.02 221.54 268.82 219.9L270.6 220.74ZM279.06 219.88C280.1 221.16 281.7 223.66 282.5 225.12L280.64 226.14C279.82 224.5 278.36 222.04 277.34 220.8L279.06 219.88ZM284.5 220.54C288.02 219.62 291.02 218.26 293.24 216.88C295.32 215.58 297.44 213.74 298.78 212.1L300.48 213.7C298.72 215.5 296.46 217.28 294.12 218.72C291.9 220.08 288.68 221.56 285.5 222.52L284.5 220.54ZM292.88 217.9L295.08 217.32V226.4C295.08 227.2 295.12 228.3 295.24 228.74H292.74C292.82 228.32 292.88 227.2 292.88 226.4V217.9ZM306.66 213.12C308.06 214.06 310.64 216.14 311.78 217.3L310.18 218.92C309.16 217.84 306.66 215.68 305.18 214.68L306.66 213.12ZM304.6 226.48C307.92 226 310.52 224.86 312.44 223.7C315.68 221.72 318.18 218.72 319.38 216.14L320.6 218.34C319.18 220.92 316.7 223.66 313.6 225.58C311.58 226.82 309.04 228 305.92 228.56L304.6 226.48ZM327.52 226.18C327.52 224.88 327.52 216.28 327.52 214.6C327.52 213.98 327.48 213.04 327.36 212.38H329.82C329.74 213.04 329.66 213.9 329.66 214.6C329.66 217.32 329.68 225 329.68 226.18C329.68 226.78 329.74 228 329.82 228.74H327.36C327.48 228.02 327.52 226.94 327.52 226.18ZM329.2 217.6C331.86 218.36 336.02 219.9 338.12 220.94L337.24 223.1C334.96 221.9 331.38 220.54 329.2 219.84V217.6ZM348.74 212.42C348.64 212.86 348.54 213.38 348.46 213.82C348.3 214.62 348.04 216.08 347.78 217.22C347.12 220.04 345.62 225.34 343.42 228.86L341.36 228.04C343.68 224.94 345.24 219.62 345.8 217.14C346.16 215.46 346.42 213.7 346.4 212.18L348.74 212.42ZM355.62 214.6C356.86 216.28 358.58 219.94 359.22 221.82L357.24 222.74C356.68 220.62 355.18 217.12 353.76 215.42L355.62 214.6ZM341.14 216.68C341.82 216.72 342.4 216.7 343.08 216.68C344.62 216.64 348.58 216.2 349.98 216.2C351.92 216.2 353.4 217 353.4 219.78C353.4 222.16 353.08 225.36 352.24 227.06C351.6 228.42 350.56 228.8 349.16 228.8C348.4 228.8 347.44 228.66 346.8 228.52L346.46 226.42C347.26 226.66 348.36 226.84 348.9 226.84C349.62 226.84 350.18 226.66 350.54 225.88C351.14 224.62 351.44 222.1 351.44 220.02C351.44 218.28 350.66 218 349.4 218C348.12 218 344.5 218.44 343.34 218.56C342.82 218.64 341.9 218.76 341.34 218.84L341.14 216.68ZM355.6 211.76C356.1 212.48 356.82 213.72 357.22 214.5L355.9 215.08C355.5 214.26 354.84 213.06 354.3 212.3L355.6 211.76ZM357.88 210.9C358.4 211.66 359.16 212.92 359.52 213.64L358.22 214.2C357.8 213.36 357.14 212.2 356.58 211.44L357.88 210.9ZM370.6 221.1H372.5V227.04C372.5 227.68 372.64 227.78 373.36 227.78C373.7 227.78 375.18 227.78 375.62 227.78C376.36 227.78 376.48 227.34 376.56 224.42C376.96 224.76 377.8 225.08 378.3 225.2C378.1 228.68 377.6 229.58 375.78 229.58C375.36 229.58 373.52 229.58 373.12 229.58C371.12 229.58 370.6 228.98 370.6 227.04V221.1ZM365.36 221.2H367.36C367.04 225.48 366.08 228.24 360.84 229.7C360.64 229.2 360.14 228.44 359.72 228.06C364.44 226.9 365.1 224.72 365.36 221.2ZM370.84 216.4L372.4 215.46C374.26 216.96 376.56 219.1 377.62 220.62L375.92 221.72C374.96 220.2 372.74 217.96 370.84 216.4ZM365.96 214.46L368.02 215.06C367.16 216.8 366.08 218.8 365.22 220.06L363.64 219.5C364.44 218.14 365.44 216 365.96 214.46ZM360.9 218.8C364.48 218.72 370.12 218.54 375.36 218.36L375.28 220.1C370.14 220.38 364.6 220.62 360.98 220.74L360.9 218.8ZM360.28 213.42H377.74V215.2H360.28V213.42ZM367.98 211.12H369.92V214.42H367.98V211.12ZM386.94 211.12H389.02V219.14H386.94V211.12ZM380.28 212.64L382 211.96C383.08 213.36 384.12 215.24 384.58 216.5L382.76 217.3C382.34 216 381.3 214.06 380.28 212.64ZM393.74 211.78L395.82 212.44C394.96 214.18 393.86 216.12 392.98 217.4L391.32 216.78C392.16 215.44 393.2 213.34 393.74 211.78ZM380.64 218.14H395.52V229.7H393.52V220.04H380.64V218.14ZM381.32 222.48H394.26V224.3H381.32V222.48ZM380.22 226.96H394.54V228.84H380.22V226.96ZM407.32 213.82C407.18 213.38 406.98 212.72 406.76 212.14L408.9 211.88C409.14 213.2 409.64 214.86 410.12 216.16C410.74 217.86 411.72 219.66 412.48 220.72C412.78 221.16 413.12 221.54 413.44 221.9L412.44 223.32C411.42 223.1 408.94 222.86 407.4 222.74L407.56 221.06C408.62 221.16 410.02 221.28 410.7 221.34C409.9 220.12 408.9 218.26 408.26 216.52C407.82 215.38 407.54 214.48 407.32 213.82ZM400.02 215.12C403.52 215.52 406.62 215.52 408.96 215.28C410.64 215.08 412.52 214.72 414.08 214.22L414.32 216.2C412.94 216.6 411.12 216.9 409.6 217.08C407 217.38 403.84 217.44 400.06 217.12L400.02 215.12ZM403.5 221.68C402.88 222.64 402.54 223.5 402.54 224.42C402.54 226.24 404.18 227.02 407.04 227.04C409.14 227.04 410.88 226.84 412.28 226.54L412.18 228.54C410.98 228.76 409.24 229 406.92 229C403 228.98 400.52 227.52 400.52 224.72C400.52 223.56 400.92 222.48 401.54 221.22L403.5 221.68ZM435.48 226.7C434.48 227.68 433.24 228.28 431.76 228.28C430.36 228.28 429.42 227.32 429.42 225.54C429.42 223.34 430.16 220.22 430.16 218.32C430.16 217.24 429.6 216.74 428.66 216.74C426.8 216.74 423.86 219.42 422.1 221.6V219.14C423.34 217.82 426.66 214.88 429.2 214.88C431.2 214.88 432.14 216.04 432.14 217.68C432.14 219.72 431.44 222.94 431.44 224.98C431.44 225.58 431.74 226.06 432.36 226.06C433.22 226.06 434.22 225.5 435.2 224.5L435.48 226.7ZM421.88 217.14C421.12 217.24 419.06 217.5 417.66 217.72L417.44 215.66C417.94 215.68 418.36 215.68 418.94 215.64C420.1 215.58 422.62 215.24 423.54 214.94L424.22 215.78C423.86 216.28 423.3 217.2 422.96 217.74L422.1 220.92C421.2 222.28 419.38 224.96 418.22 226.58L416.96 224.86C418.22 223.3 420.78 219.86 421.66 218.42L421.72 217.62L421.88 217.14ZM421.66 213.6C421.66 213.1 421.68 212.54 421.58 211.98L423.92 212.06C423.6 213.48 422.98 219 422.98 222.54C422.98 224.28 422.98 225.7 423.08 227.52C423.1 227.88 423.16 228.48 423.2 228.88H421.02C421.06 228.48 421.08 227.9 421.08 227.58C421.1 225.64 421.12 224.48 421.16 222.16C421.2 220.38 421.66 214.38 421.66 213.6ZM440.495 229.24C439.235 227.7 437.515 225.98 436.115 224.8L437.755 223.38C439.195 224.54 441.055 226.42 442.195 227.78L440.495 229.24ZM465.795 221.1H467.695V227.04C467.695 227.68 467.835 227.78 468.555 227.78C468.895 227.78 470.375 227.78 470.815 227.78C471.555 227.78 471.675 227.34 471.755 224.42C472.155 224.76 472.995 225.08 473.495 225.2C473.295 228.68 472.795 229.58 470.975 229.58C470.555 229.58 468.715 229.58 468.315 229.58C466.315 229.58 465.795 228.98 465.795 227.04V221.1ZM460.555 221.2H462.555C462.235 225.48 461.275 228.24 456.035 229.7C455.835 229.2 455.335 228.44 454.915 228.06C459.635 226.9 460.295 224.72 460.555 221.2ZM466.035 216.4L467.595 215.46C469.455 216.96 471.755 219.1 472.815 220.62L471.115 221.72C470.155 220.2 467.935 217.96 466.035 216.4ZM461.155 214.46L463.215 215.06C462.355 216.8 461.275 218.8 460.415 220.06L458.835 219.5C459.635 218.14 460.635 216 461.155 214.46ZM456.095 218.8C459.675 218.72 465.315 218.54 470.555 218.36L470.475 220.1C465.335 220.38 459.795 220.62 456.175 220.74L456.095 218.8ZM455.475 213.42H472.935V215.2H455.475V213.42ZM463.175 211.12H465.115V214.42H463.175V211.12ZM482.135 211.12H484.215V219.14H482.135V211.12ZM475.475 212.64L477.195 211.96C478.275 213.36 479.315 215.24 479.775 216.5L477.955 217.3C477.535 216 476.495 214.06 475.475 212.64ZM488.935 211.78L491.015 212.44C490.155 214.18 489.055 216.12 488.175 217.4L486.515 216.78C487.355 215.44 488.395 213.34 488.935 211.78ZM475.835 218.14H490.715V229.7H488.715V220.04H475.835V218.14ZM476.515 222.48H489.455V224.3H476.515V222.48ZM475.415 226.96H489.735V228.84H475.415V226.96ZM503.295 219.34L504.995 219.88C503.675 222.24 501.455 224.34 499.255 225.66C499.015 225.3 498.395 224.58 498.015 224.24C500.135 223.14 502.175 221.34 503.295 219.34ZM503.475 211.08L505.135 211.94C504.095 213.18 502.875 214.54 501.895 215.42L500.575 214.66C501.535 213.72 502.775 212.2 503.475 211.08ZM507.275 212.6L508.975 213.52C506.915 215.74 504.135 218.32 501.915 219.94L500.635 219.12C502.835 217.44 505.635 214.7 507.275 212.6ZM498.815 214.54L499.955 213.32C501.455 214.28 503.335 215.68 504.195 216.7L502.995 218.06C502.155 217.04 500.335 215.54 498.815 214.54ZM507.055 216.86L508.515 216.06C509.755 217.36 511.135 219.18 511.735 220.42L510.135 221.34C509.595 220.12 508.275 218.22 507.055 216.86ZM498.255 218.6C501.135 218.56 505.675 218.48 509.955 218.38L509.895 219.92C505.755 220.06 501.395 220.2 498.415 220.28L498.255 218.6ZM502.255 222.54C503.935 225.36 507.435 227.36 511.735 228.12C511.335 228.52 510.835 229.24 510.595 229.74C506.155 228.76 502.695 226.48 500.735 223.04L502.255 222.54ZM502.735 221.52H508.455V222.98H501.455L502.735 221.52ZM507.835 221.52H508.195L508.515 221.44L509.715 222C507.875 226.38 503.575 228.7 498.895 229.76C498.735 229.3 498.315 228.54 497.975 228.16C502.295 227.36 506.375 225.24 507.835 221.8V221.52ZM497.295 215.3L498.975 215.92C497.635 218.34 495.555 220.82 493.595 222.42C493.415 222.02 492.875 221.1 492.555 220.7C494.335 219.38 496.175 217.36 497.295 215.3ZM496.875 211.12L498.555 211.8C497.355 213.5 495.475 215.4 493.795 216.62C493.555 216.24 493.075 215.58 492.775 215.24C494.275 214.2 496.015 212.5 496.875 211.12ZM495.555 219.28L497.135 217.7L497.335 217.8V229.74H495.555V219.28ZM522.695 214.34C522.435 216.4 522.035 218.74 521.375 220.96C520.155 225.04 518.515 227.32 516.515 227.32C514.535 227.32 512.735 225.1 512.735 221.76C512.735 217.3 516.655 213.44 521.675 213.44C526.475 213.44 529.515 216.8 529.515 221C529.515 225.2 526.835 228.08 521.955 228.76L520.775 226.9C521.475 226.82 522.055 226.72 522.555 226.62C525.115 226.02 527.415 224.14 527.415 220.92C527.415 217.74 525.315 215.28 521.635 215.28C517.295 215.28 514.735 218.82 514.735 221.58C514.735 223.88 515.735 224.94 516.575 224.94C517.475 224.94 518.415 223.62 519.355 220.54C519.935 218.64 520.375 216.36 520.575 214.28L522.695 214.34ZM540.115 212.94C538.455 215.3 535.295 218 531.975 219.78C531.735 219.32 531.215 218.64 530.795 218.24C534.235 216.54 537.515 213.56 539.035 211.08H540.995C543.135 214.04 546.495 216.66 549.655 218C549.195 218.48 548.735 219.12 548.395 219.7C545.315 218.1 541.915 215.36 540.115 212.94ZM535.135 217.18H545.175V218.86H535.135V217.18ZM532.635 221.22H547.675V222.88H532.635V221.22ZM531.675 227.44H548.735V229.08H531.675V227.44ZM539.095 217.84H541.095V228.28H539.095V217.84ZM534.115 223.78L535.635 223.16C536.435 224.22 537.255 225.68 537.535 226.64L535.915 227.36C535.655 226.4 534.875 224.88 534.115 223.78ZM544.455 223.14L546.255 223.84C545.455 225.08 544.555 226.46 543.815 227.36L542.395 226.76C543.095 225.78 543.975 224.26 544.455 223.14ZM77.5 252.2H81.46V253.52H77.5V252.2ZM78.34 247.16H80.1V250.08H78.34V247.16ZM77 259.06H82.3V264.44H77V262.96H80.66V260.54H77V259.06ZM75 248.88H83.46V251.92H81.86V250.38H76.54V251.92H75V248.88ZM76.12 259.06H77.72V265.34H76.12V259.06ZM81.14 252.2H81.44L81.72 252.12L82.8 252.62C81.5 256.36 78.56 258.92 75.4 260.26C75.18 259.86 74.74 259.22 74.4 258.9C77.3 257.84 80.1 255.44 81.14 252.48V252.2ZM78.14 250.74L79.7 251.14C78.82 253.18 77.28 255.02 75.7 256.22C75.44 255.92 74.82 255.34 74.46 255.1C76.02 254.08 77.4 252.48 78.14 250.74ZM76.32 254.96L77.34 253.82C79.4 255.18 82.28 257.2 83.7 258.46L82.6 259.8C81.24 258.48 78.42 256.4 76.32 254.96ZM83.62 248H92.98V249.62H83.62V248ZM86.02 255.72V257.34H90.7V255.72H86.02ZM86.02 258.7V260.36H90.7V258.7H86.02ZM86.02 252.74V254.36H90.7V252.74H86.02ZM84.32 251.3H92.5V261.8H84.32V251.3ZM87.38 248.82L89.44 249.08C89.08 250.26 88.64 251.54 88.3 252.38L86.72 252.06C86.96 251.14 87.24 249.78 87.38 248.82ZM85.98 262.06L87.56 263.02C86.52 264.04 84.8 265.08 83.34 265.66C83.04 265.32 82.5 264.78 82.1 264.44C83.56 263.9 85.2 262.9 85.98 262.06ZM88.86 263.04L90.24 262.14C91.38 262.88 92.86 263.98 93.6 264.74L92.12 265.72C91.44 264.98 90 263.82 88.86 263.04ZM102.04 250.3C104.34 250.66 108.36 250.56 110.42 250.28V252.32C108.14 252.56 104.38 252.56 102.04 252.32V250.3ZM103.18 258.62C103 259.32 102.9 259.84 102.9 260.38C102.9 261.28 103.6 262.02 106.04 262.02C107.82 262.02 109.34 261.86 111.02 261.5L111.06 263.62C109.78 263.86 108.14 264.02 105.98 264.02C102.6 264.02 101.02 262.86 101.02 260.9C101.02 260.18 101.14 259.44 101.36 258.44L103.18 258.62ZM98.54 248.84C98.42 249.22 98.2 250.02 98.12 250.38C97.8 252 97.14 255.76 97.14 257.9C97.14 258.62 97.18 259.32 97.28 260.04C97.6 259.24 98 258.26 98.32 257.5L99.34 258.3C98.8 259.82 98.1 261.96 97.9 262.96C97.84 263.26 97.8 263.66 97.8 263.88C97.82 264.1 97.84 264.4 97.86 264.64L96.04 264.76C95.64 263.36 95.28 261 95.28 258.28C95.28 255.32 95.92 251.92 96.16 250.3C96.22 249.8 96.3 249.18 96.32 248.66L98.54 248.84ZM120.78 256.4H129.06V258.02H120.78V256.4ZM120.74 259.9H129.06V261.5H120.74V259.9ZM129.06 247.64L130.88 248.32C130.2 249.68 129.4 251.12 128.72 252.1L127.1 251.46C127.76 250.44 128.6 248.84 129.06 247.64ZM118.94 248.48L120.54 247.76C121.38 248.88 122.26 250.38 122.58 251.4L120.88 252.22C120.58 251.2 119.76 249.64 118.94 248.48ZM119.54 252.78H129.12V254.54H121.4V265.68H119.54V252.78ZM128.22 252.78H130.06V263.5C130.06 264.46 129.86 265 129.2 265.3C128.52 265.6 127.5 265.6 125.98 265.6C125.9 265.1 125.64 264.32 125.38 263.82C126.44 263.86 127.5 263.86 127.8 263.86C128.12 263.84 128.22 263.74 128.22 263.48V252.78ZM123.92 247.1H125.82V253.92H123.92V247.1ZM113.6 248.64L114.72 247.32C115.94 247.92 117.48 248.88 118.24 249.62L117.08 251.08C116.36 250.34 114.84 249.3 113.6 248.64ZM112.68 253.96L113.74 252.62C115 253.22 116.58 254.18 117.38 254.92L116.24 256.4C115.5 255.66 113.94 254.62 112.68 253.96ZM113.26 264.32C114.24 262.78 115.62 260.18 116.68 257.86L118.08 259C117.16 261.14 115.98 263.58 114.92 265.54L113.26 264.32ZM134.52 250.3H146.8V249.32H133.12V248.14H148.52V251.48H134.52V250.3ZM133.96 250.3H135.74C135.34 251.5 134.86 252.9 134.48 253.84L132.74 253.72C133.16 252.78 133.62 251.42 133.96 250.3ZM134 252.42H148.64V253.6H133.64L134 252.42ZM148.02 252.42H149.8C149.8 252.42 149.78 252.78 149.78 252.98C149.66 254.24 149.52 254.88 149.2 255.22C148.92 255.5 148.54 255.62 148.14 255.64C147.76 255.66 147.06 255.66 146.32 255.62C146.3 255.28 146.14 254.76 145.98 254.42C146.54 254.48 147.02 254.5 147.24 254.5C147.46 254.5 147.58 254.48 147.68 254.36C147.84 254.2 147.92 253.74 148.02 252.64V252.42ZM137.9 247.12H139.62V250.96C139.62 253.7 138.74 255.82 132.88 256.84C132.72 256.42 132.3 255.72 131.98 255.38C137.2 254.52 137.9 252.94 137.9 250.92V247.12ZM142.34 247.12H144.14V255.06H142.34V247.12ZM136.38 258.32V259.38H145.82V258.32H136.38ZM136.38 260.46V261.54H145.82V260.46H136.38ZM136.38 256.2V257.24H145.82V256.2H136.38ZM134.54 255.06H147.74V262.68H134.54V255.06ZM142.4 263.66L143.9 262.68C146.1 263.32 148.56 264.16 150.02 264.76L147.94 265.72C146.72 265.12 144.56 264.32 142.4 263.66ZM137.88 262.68L139.56 263.44C137.92 264.38 135.36 265.26 133.34 265.76C133.04 265.38 132.38 264.7 131.96 264.38C134.06 264 136.46 263.38 137.88 262.68ZM159.02 247.84L160.6 247.16C161.34 248.2 162.12 249.6 162.4 250.54L160.74 251.3C160.48 250.38 159.74 248.92 159.02 247.84ZM166.42 247.1L168.34 247.78C167.66 249 166.9 250.32 166.26 251.2L164.66 250.58C165.28 249.64 166.02 248.18 166.42 247.1ZM160.8 257.46H162.68C162.36 261.04 161.54 264.08 157.86 265.72C157.64 265.26 157.12 264.6 156.72 264.24C159.96 262.9 160.56 260.38 160.8 257.46ZM164.06 257.22H165.9V263.1C165.9 263.66 165.96 263.74 166.3 263.74C166.46 263.74 167.16 263.74 167.34 263.74C167.72 263.74 167.8 263.42 167.84 261.28C168.2 261.58 168.98 261.9 169.46 262.02C169.3 264.72 168.84 265.44 167.56 265.44C167.24 265.44 166.3 265.44 166 265.44C164.42 265.44 164.06 264.88 164.06 263.12V257.22ZM160.72 252.82V256.2H166.44V252.82H160.72ZM158.92 251.14H168.32V257.86H158.92V251.14ZM154 248.88H155.84V265.66H154V248.88ZM150.9 252.76H158.18V254.52H150.9V252.76ZM154.1 253.46L155.24 253.94C154.46 256.78 152.94 260.32 151.4 262.22C151.22 261.68 150.8 260.9 150.48 260.44C151.9 258.84 153.42 255.82 154.1 253.46ZM157.02 247.38L158.32 248.84C156.4 249.6 153.6 250.14 151.28 250.46C151.18 250.04 150.94 249.42 150.72 249.02C152.96 248.64 155.52 248.06 157.02 247.38ZM155.78 255.42C156.28 255.84 158.1 257.72 158.5 258.18L157.4 259.68C156.92 258.8 155.54 256.92 154.92 256.18L155.78 255.42ZM177.74 248.42C177.64 248.86 177.54 249.38 177.46 249.82C177.3 250.62 177.04 252.08 176.78 253.22C176.12 256.04 174.62 261.34 172.42 264.86L170.36 264.04C172.68 260.94 174.24 255.62 174.8 253.14C175.16 251.46 175.42 249.7 175.4 248.18L177.74 248.42ZM184.62 250.6C185.86 252.28 187.58 255.94 188.22 257.82L186.24 258.74C185.68 256.62 184.18 253.12 182.76 251.42L184.62 250.6ZM170.14 252.68C170.82 252.72 171.4 252.7 172.08 252.68C173.62 252.64 177.58 252.2 178.98 252.2C180.92 252.2 182.4 253 182.4 255.78C182.4 258.16 182.08 261.36 181.24 263.06C180.6 264.42 179.56 264.8 178.16 264.8C177.4 264.8 176.44 264.66 175.8 264.52L175.46 262.42C176.26 262.66 177.36 262.84 177.9 262.84C178.62 262.84 179.18 262.66 179.54 261.88C180.14 260.62 180.44 258.1 180.44 256.02C180.44 254.28 179.66 254 178.4 254C177.12 254 173.5 254.44 172.34 254.56C171.82 254.64 170.9 254.76 170.34 254.84L170.14 252.68ZM184.6 247.76C185.1 248.48 185.82 249.72 186.22 250.5L184.9 251.08C184.5 250.26 183.84 249.06 183.3 248.3L184.6 247.76ZM186.88 246.9C187.4 247.66 188.16 248.92 188.52 249.64L187.22 250.2C186.8 249.36 186.14 248.2 185.58 247.44L186.88 246.9ZM196.12 257.36H206.96V259.04H196.12V257.36ZM202.92 258.34C203.92 260.22 205.82 262.26 207.52 263.3C207.1 263.64 206.5 264.28 206.22 264.74C204.5 263.44 202.62 261.06 201.56 258.86L202.92 258.34ZM198.48 252.64V254.38H204.66V252.64H198.48ZM198.48 249.44V251.16H204.66V249.44H198.48ZM196.8 247.92H206.42V255.9H196.8V247.92ZM200.24 258.22L201.66 258.72C200.58 261.18 198.64 263.6 196.64 264.86C196.36 264.42 195.78 263.74 195.38 263.4C197.3 262.38 199.24 260.28 200.24 258.22ZM200.72 248.7H202.36V255.18H202.46V265.68H200.62V255.18H200.72V248.7ZM189.58 253.22H195.34V254.68H189.58V253.22ZM189.66 247.8H195.28V249.26H189.66V247.8ZM189.58 255.92H195.34V257.38H189.58V255.92ZM188.68 250.44H195.86V251.98H188.68V250.44ZM190.42 258.64H195.36V264.6H190.42V263.06H193.76V260.18H190.42V258.64ZM189.56 258.64H191.14V265.46H189.56V258.64ZM217.32 249.82C217.18 249.38 216.98 248.72 216.76 248.14L218.9 247.88C219.14 249.2 219.64 250.86 220.12 252.16C220.74 253.86 221.72 255.66 222.48 256.72C222.78 257.16 223.12 257.54 223.44 257.9L222.44 259.32C221.42 259.1 218.94 258.86 217.4 258.74L217.56 257.06C218.62 257.16 220.02 257.28 220.7 257.34C219.9 256.12 218.9 254.26 218.26 252.52C217.82 251.38 217.54 250.48 217.32 249.82ZM210.02 251.12C213.52 251.52 216.62 251.52 218.96 251.28C220.64 251.08 222.52 250.72 224.08 250.22L224.32 252.2C222.94 252.6 221.12 252.9 219.6 253.08C217 253.38 213.84 253.44 210.06 253.12L210.02 251.12ZM213.5 257.68C212.88 258.64 212.54 259.5 212.54 260.42C212.54 262.24 214.18 263.02 217.04 263.04C219.14 263.04 220.88 262.84 222.28 262.54L222.18 264.54C220.98 264.76 219.24 265 216.92 265C213 264.98 210.52 263.52 210.52 260.72C210.52 259.56 210.92 258.48 211.54 257.22L213.5 257.68ZM245.48 262.7C244.48 263.68 243.24 264.28 241.76 264.28C240.36 264.28 239.42 263.32 239.42 261.54C239.42 259.34 240.16 256.22 240.16 254.32C240.16 253.24 239.6 252.74 238.66 252.74C236.8 252.74 233.86 255.42 232.1 257.6V255.14C233.34 253.82 236.66 250.88 239.2 250.88C241.2 250.88 242.14 252.04 242.14 253.68C242.14 255.72 241.44 258.94 241.44 260.98C241.44 261.58 241.74 262.06 242.36 262.06C243.22 262.06 244.22 261.5 245.2 260.5L245.48 262.7ZM231.88 253.14C231.12 253.24 229.06 253.5 227.66 253.72L227.44 251.66C227.94 251.68 228.36 251.68 228.94 251.64C230.1 251.58 232.62 251.24 233.54 250.94L234.22 251.78C233.86 252.28 233.3 253.2 232.96 253.74L232.1 256.92C231.2 258.28 229.38 260.96 228.22 262.58L226.96 260.86C228.22 259.3 230.78 255.86 231.66 254.42L231.72 253.62L231.88 253.14ZM231.66 249.6C231.66 249.1 231.68 248.54 231.58 247.98L233.92 248.06C233.6 249.48 232.98 255 232.98 258.54C232.98 260.28 232.98 261.7 233.08 263.52C233.1 263.88 233.16 264.48 233.2 264.88H231.02C231.06 264.48 231.08 263.9 231.08 263.58C231.1 261.64 231.12 260.48 231.16 258.16C231.2 256.38 231.66 250.38 231.66 249.6ZM256.66 248C256.6 248.38 256.56 248.82 256.54 249.38C256.5 250.28 256.5 253.02 256.5 254.7C256.5 257.16 256.8 260.72 256.8 262.16C256.8 263.68 255.72 265.06 253.1 265.06C250.08 265.06 248.46 263.96 248.46 261.94C248.46 260.04 250.26 258.72 253.22 258.72C257.52 258.72 260.8 260.96 262.4 262.28L261.26 264.06C259.4 262.34 256.48 260.36 252.98 260.36C251.28 260.36 250.36 261.02 250.36 261.84C250.36 262.7 251.12 263.28 252.84 263.28C253.94 263.28 254.8 262.96 254.8 261.66C254.8 260.28 254.6 256.56 254.6 254.7C254.6 252.86 254.62 250.56 254.62 249.28C254.62 248.92 254.58 248.32 254.52 248H256.66ZM248.72 250.04C250.08 250.28 252.48 250.48 253.76 250.48C256.38 250.48 259.04 250.32 261.78 249.88L261.76 251.7C259.6 251.96 256.6 252.22 253.78 252.22C252.44 252.22 250.04 252.04 248.76 251.88L248.72 250.04ZM248.62 254.32C250 254.56 252.36 254.7 253.56 254.7C256.8 254.7 259.44 254.48 261.98 254.12L261.96 256C259.22 256.34 256.9 256.46 253.54 256.46C252.26 256.46 250.02 256.36 248.64 256.2L248.62 254.32ZM276.76 248.04C276.72 248.32 276.66 249.22 276.64 249.5C276.6 250.8 276.64 254.76 276.66 256.36L274.7 255.56C274.7 254.52 274.7 250.6 274.62 249.52C274.58 248.86 274.5 248.24 274.46 248.04H276.76ZM265.84 250.7C268.66 250.68 273.78 250.52 276.62 250.52C278.88 250.52 281.6 250.5 282.62 250.52L282.6 252.38C281.42 252.32 279.52 252.28 276.58 252.28C273.06 252.28 268.9 252.42 265.88 252.62L265.84 250.7ZM276.48 256.56C276.48 259.5 275.26 260.96 273.22 260.96C271.6 260.96 269.86 259.76 269.86 257.46C269.86 255.36 271.58 253.88 273.6 253.88C276.06 253.88 277.32 255.7 277.32 258.08C277.32 260.74 275.92 263.88 271.16 265.26L269.48 263.6C273.02 262.8 275.38 261.2 275.38 257.82C275.38 256.24 274.58 255.54 273.58 255.54C272.64 255.54 271.76 256.24 271.76 257.44C271.76 258.54 272.6 259.2 273.58 259.2C274.7 259.2 275.5 258.26 275.04 256.02L276.48 256.56ZM284.868 259.1C286.608 259.1 288.008 260.5 288.008 262.22C288.008 263.96 286.608 265.36 284.868 265.36C283.168 265.36 281.748 263.96 281.748 262.22C281.748 260.5 283.168 259.1 284.868 259.1ZM284.868 264.16C285.948 264.16 286.808 263.3 286.808 262.22C286.808 261.16 285.948 260.3 284.868 260.3C283.828 260.3 282.948 261.16 282.948 262.22C282.948 263.3 283.828 264.16 284.868 264.16ZM73.6044 292.4C73.6044 288.34 75.2644 285.16 77.5644 282.86L79.0644 283.58C76.8844 285.86 75.4044 288.72 75.4044 292.4C75.4044 296.1 76.8844 298.96 79.0644 301.24L77.5644 301.96C75.2644 299.66 73.6044 296.48 73.6044 292.4ZM89.5844 293.1H91.4844V299.04C91.4844 299.68 91.6244 299.78 92.3444 299.78C92.6844 299.78 94.1644 299.78 94.6044 299.78C95.3444 299.78 95.4644 299.34 95.5444 296.42C95.9444 296.76 96.7844 297.08 97.2844 297.2C97.0844 300.68 96.5844 301.58 94.7644 301.58C94.3444 301.58 92.5044 301.58 92.1044 301.58C90.1044 301.58 89.5844 300.98 89.5844 299.04V293.1ZM84.3444 293.2H86.3444C86.0244 297.48 85.0644 300.24 79.8244 301.7C79.6244 301.2 79.1244 300.44 78.7044 300.06C83.4244 298.9 84.0844 296.72 84.3444 293.2ZM89.8244 288.4L91.3844 287.46C93.2444 288.96 95.5444 291.1 96.6044 292.62L94.9044 293.72C93.9444 292.2 91.7244 289.96 89.8244 288.4ZM84.9444 286.46L87.0044 287.06C86.1444 288.8 85.0644 290.8 84.2044 292.06L82.6244 291.5C83.4244 290.14 84.4244 288 84.9444 286.46ZM79.8844 290.8C83.4644 290.72 89.1044 290.54 94.3444 290.36L94.2644 292.1C89.1244 292.38 83.5844 292.62 79.9644 292.74L79.8844 290.8ZM79.2644 285.42H96.7244V287.2H79.2644V285.42ZM86.9644 283.12H88.9044V286.42H86.9644V283.12ZM104.924 283.12H107.004V291.14H104.924V283.12ZM98.2644 284.64L99.9844 283.96C101.064 285.36 102.104 287.24 102.564 288.5L100.744 289.3C100.324 288 99.2844 286.06 98.2644 284.64ZM111.724 283.78L113.804 284.44C112.944 286.18 111.844 288.12 110.964 289.4L109.304 288.78C110.144 287.44 111.184 285.34 111.724 283.78ZM98.6244 290.14H113.504V301.7H111.504V292.04H98.6244V290.14ZM99.3044 294.48H112.244V296.3H99.3044V294.48ZM98.2044 298.96H112.524V300.84H98.2044V298.96ZM129.244 285.14C129.244 285.8 129.784 286.32 130.444 286.32C131.104 286.32 131.644 285.8 131.644 285.14C131.644 284.48 131.104 283.94 130.444 283.94C129.784 283.94 129.244 284.48 129.244 285.14ZM128.204 285.14C128.204 283.9 129.204 282.88 130.444 282.88C131.684 282.88 132.684 283.9 132.684 285.14C132.684 286.38 131.684 287.38 130.444 287.38C129.204 287.38 128.204 286.38 128.204 285.14ZM125.104 284.44C125.064 284.72 124.964 285.54 124.964 286C124.964 287.12 124.964 288.8 124.964 289.86C124.964 291.48 124.964 297.74 124.964 299.28C124.964 300.38 124.384 301 123.084 301C122.144 301 120.964 300.94 120.064 300.84L119.884 298.86C120.744 299.02 121.644 299.1 122.144 299.1C122.684 299.1 122.904 298.88 122.904 298.36C122.924 297.42 122.924 290.8 122.924 289.86C122.924 289.18 122.924 287.12 122.924 286C122.924 285.52 122.844 284.76 122.764 284.44H125.104ZM115.764 287.72C116.344 287.8 116.924 287.86 117.564 287.86C118.764 287.86 128.684 287.86 129.984 287.86C130.484 287.86 131.244 287.8 131.764 287.74V289.82C131.184 289.78 130.504 289.76 130.004 289.76C128.704 289.76 118.844 289.76 117.564 289.76C116.964 289.76 116.304 289.78 115.764 289.84V287.72ZM120.584 292.74C119.704 294.48 117.844 297.06 116.724 298.26L115.004 297.1C116.344 295.84 118.004 293.54 118.804 291.9L120.584 292.74ZM129.044 291.88C130.084 293.16 131.684 295.66 132.484 297.12L130.624 298.14C129.804 296.5 128.344 294.04 127.324 292.8L129.044 291.88ZM133.484 292.54C137.004 291.62 140.004 290.26 142.224 288.88C144.304 287.58 146.424 285.74 147.764 284.1L149.464 285.7C147.704 287.5 145.444 289.28 143.104 290.72C140.884 292.08 137.664 293.56 134.484 294.52L133.484 292.54ZM141.864 289.9L144.064 289.32V298.4C144.064 299.2 144.104 300.3 144.224 300.74H141.724C141.804 300.32 141.864 299.2 141.864 298.4V289.9ZM154.644 285.12C156.044 286.06 158.624 288.14 159.764 289.3L158.164 290.92C157.144 289.84 154.644 287.68 153.164 286.68L154.644 285.12ZM152.584 298.48C155.904 298 158.504 296.86 160.424 295.7C163.664 293.72 166.164 290.72 167.364 288.14L168.584 290.34C167.164 292.92 164.684 295.66 161.584 297.58C159.564 298.82 157.024 300 153.904 300.56L152.584 298.48ZM174.504 298.18C174.504 296.88 174.504 288.28 174.504 286.6C174.504 285.98 174.464 285.04 174.344 284.38H176.804C176.724 285.04 176.644 285.9 176.644 286.6C176.644 289.32 176.664 297 176.664 298.18C176.664 298.78 176.724 300 176.804 300.74H174.344C174.464 300.02 174.504 298.94 174.504 298.18ZM176.184 289.6C178.844 290.36 183.004 291.9 185.104 292.94L184.224 295.1C181.944 293.9 178.364 292.54 176.184 291.84V289.6ZM195.404 284.1C195.244 284.86 195.004 285.98 194.464 287.38C194.004 288.48 193.324 289.74 192.644 290.68C193.304 290.32 194.424 290.1 195.204 290.1C196.804 290.1 198.024 291.04 198.024 292.78C198.024 293.82 198.084 296.08 198.104 297.32H196.184C196.264 296.32 196.284 294.4 196.264 293.36C196.264 292.14 195.464 291.66 194.504 291.66C193.304 291.66 192.044 292.3 191.204 293.08C190.604 293.66 190.044 294.38 189.364 295.22L187.664 293.96C190.424 291.36 191.844 289.12 192.584 287.2C193.004 286.1 193.264 284.9 193.324 283.92L195.404 284.1ZM188.264 286.12C189.304 286.26 190.744 286.34 191.704 286.34C194.364 286.34 197.904 286.18 200.764 285.68L200.744 287.52C197.944 287.94 194.084 288.1 191.584 288.1C190.744 288.1 189.364 288.06 188.264 287.98V286.12ZM203.784 291.32C203.224 291.48 202.344 291.82 201.744 292.04C200.384 292.58 198.524 293.32 196.604 294.3C194.704 295.3 193.484 296.28 193.484 297.54C193.484 298.9 194.764 299.16 196.784 299.16C198.404 299.16 200.584 298.96 202.344 298.64L202.284 300.68C200.844 300.86 198.524 301.02 196.724 301.02C193.744 301.02 191.444 300.34 191.444 297.84C191.444 295.26 194.084 293.7 196.484 292.48C198.344 291.5 199.804 290.94 201.084 290.36C201.764 290.06 202.344 289.8 202.984 289.46L203.784 291.32ZM213.824 283.92H221.824V285.52H213.824V283.92ZM216.464 284.54L218.244 284.64C217.944 287.94 216.744 290.02 214.524 291.34C214.224 291.04 213.484 290.46 213.084 290.22C215.264 289.16 216.264 287.32 216.464 284.54ZM220.844 283.92H222.644C222.644 283.92 222.644 284.4 222.624 284.62C222.484 288.12 222.284 289.54 221.824 290.08C221.484 290.46 221.104 290.6 220.584 290.66C220.104 290.7 219.264 290.7 218.364 290.68C218.344 290.18 218.164 289.5 217.904 289.06C218.684 289.14 219.384 289.14 219.684 289.14C219.944 289.14 220.144 289.12 220.284 288.96C220.564 288.62 220.724 287.42 220.844 284.18V283.92ZM205.384 285.38H213.224V287.02H205.384V285.38ZM204.944 289.24H213.604V290.92H204.944V289.24ZM209.544 293.48H213.384V295.12H209.544V293.48ZM208.464 283.14H210.204V290.12H208.464V283.14ZM208.764 290.26H210.464V299.26H208.764V290.26ZM207.124 294.42C208.184 298.62 210.444 299.36 214.944 299.36C216.164 299.38 221.964 299.38 223.464 299.32C223.164 299.74 222.844 300.62 222.724 301.18H214.964C209.564 301.18 207.084 300.14 205.744 294.86L207.124 294.42ZM205.724 292.18L207.404 292.28C207.344 296.1 207.084 299.46 205.944 301.7C205.624 301.46 204.844 301.02 204.424 300.84C205.524 298.84 205.704 295.66 205.724 292.18ZM216.204 293.2V296.36H220.304V293.2H216.204ZM214.424 291.64H222.204V297.9H214.424V291.64ZM228.224 284.04C230.424 284.5 234.244 284.94 236.224 285.06L235.964 286.92C233.924 286.74 230.324 286.3 227.904 285.88L228.224 284.04ZM236.764 290.04C236.324 290.34 235.864 290.74 235.564 290.98C234.744 291.72 232.664 293.66 232.024 294.32C232.224 294.3 232.584 294.34 232.804 294.4C233.484 294.52 233.904 295.02 234.184 295.8C234.364 296.36 234.624 297.26 234.804 297.86C235.024 298.56 235.484 298.88 236.404 298.88C237.804 298.88 239.264 298.72 240.244 298.5L240.104 300.58C239.284 300.74 237.344 300.88 236.284 300.88C234.544 300.88 233.544 300.48 233.084 299.18C232.884 298.58 232.624 297.5 232.444 296.96C232.224 296.26 231.784 295.94 231.304 295.94C230.804 295.94 230.364 296.24 229.884 296.7C229.164 297.4 227.284 299.42 226.044 301L224.164 299.68C224.464 299.42 224.864 299.06 225.324 298.62C226.224 297.72 231.084 292.86 232.984 290.92C231.484 290.98 228.544 291.24 227.364 291.34C226.684 291.4 226.124 291.48 225.704 291.54L225.524 289.36C225.984 289.4 226.624 289.42 227.304 289.4C228.364 289.38 232.964 289.12 234.544 288.92C234.904 288.88 235.384 288.78 235.584 288.7L236.764 290.04ZM243.979 285.06C244.479 285.12 245.099 285.14 245.559 285.14C246.619 285.14 251.159 285.02 252.259 284.92C252.959 284.86 253.319 284.8 253.539 284.72L254.619 286.16C254.219 286.44 253.779 286.7 253.379 287.02C252.339 287.78 249.899 289.86 248.459 291.02C249.279 290.78 250.079 290.7 250.859 290.7C254.219 290.7 256.679 292.74 256.679 295.54C256.679 298.74 254.139 301 249.639 301C246.899 301 245.039 299.78 245.039 297.96C245.039 296.48 246.379 295.14 248.339 295.14C251.039 295.14 252.459 297 252.559 299.1L250.719 299.38C250.639 297.78 249.759 296.66 248.339 296.66C247.499 296.66 246.899 297.18 246.899 297.8C246.899 298.66 247.879 299.22 249.279 299.22C252.679 299.22 254.639 297.86 254.639 295.52C254.639 293.62 252.799 292.26 250.299 292.26C247.079 292.26 245.199 293.76 242.839 296.28L241.399 294.8C242.959 293.54 245.459 291.44 246.619 290.46C247.739 289.54 250.059 287.62 251.059 286.74C250.019 286.78 246.559 286.92 245.499 286.98C245.019 287.02 244.479 287.06 244.039 287.12L243.979 285.06ZM261.519 285.96C262.979 286.14 264.839 286.22 266.879 286.22C268.819 286.22 270.959 286.08 272.459 285.94V288.02C271.079 288.12 268.759 288.26 266.899 288.26C264.839 288.26 263.119 288.16 261.519 288.04V285.96ZM262.719 294.2C262.479 294.96 262.339 295.66 262.339 296.36C262.339 297.8 263.739 298.78 266.799 298.78C269.539 298.78 272.099 298.48 273.719 298L273.739 300.18C272.179 300.58 269.699 300.88 266.859 300.88C262.579 300.88 260.239 299.46 260.239 296.84C260.239 295.74 260.479 294.8 260.639 294.02L262.719 294.2ZM272.999 283.8C273.499 284.52 274.219 285.78 274.619 286.56L273.299 287.14C272.899 286.32 272.239 285.1 271.699 284.34L272.999 283.8ZM275.279 282.96C275.799 283.7 276.559 284.96 276.939 285.68L275.619 286.26C275.199 285.4 274.539 284.26 273.979 283.5L275.279 282.96ZM276.999 289.22H282.939V290.68H276.999V289.22ZM277.079 283.8H282.879V285.26H277.079V283.8ZM276.999 291.92H282.939V293.38H276.999V291.92ZM276.059 286.44H283.599V287.98H276.059V286.44ZM277.839 294.64H282.959V300.6H277.839V299.06H281.319V296.18H277.839V294.64ZM276.979 294.64H278.599V301.46H276.979V294.64ZM284.059 284.36H294.179V285.76H284.059V284.36ZM284.579 286.76H293.879V288.08H284.579V286.76ZM283.579 289.16H294.599V290.56H283.579V289.16ZM288.159 283.12H289.959V290.34H288.159V283.12ZM285.019 291.56H292.699V292.94H286.779V301.66H285.019V291.56ZM291.659 291.56H293.439V299.82C293.439 300.68 293.259 301.12 292.679 301.38C292.079 301.62 291.199 301.62 289.939 301.62C289.879 301.18 289.639 300.52 289.419 300.1C290.259 300.12 291.079 300.12 291.339 300.1C291.599 300.1 291.659 300.02 291.659 299.8V291.56ZM285.799 294.14H292.559V295.44H285.799V294.14ZM285.799 296.66H292.559V297.94H285.799V296.66ZM294.599 286.34H312.219V288.18H294.599V286.34ZM304.159 287.96C305.639 292.58 308.679 296.76 312.819 298.58C312.359 298.98 311.739 299.72 311.419 300.26C307.179 298.12 304.319 293.62 302.659 288.4L304.159 287.96ZM309.799 288.8L311.459 289.98C310.119 291.5 308.339 293.24 306.979 294.36L305.619 293.32C306.959 292.18 308.759 290.28 309.799 288.8ZM305.919 284.32L307.059 283.12C308.279 283.72 309.919 284.64 310.779 285.3L309.579 286.64C308.799 285.96 307.179 284.96 305.919 284.32ZM295.559 290.12L296.999 289.14C298.179 290.18 299.599 291.66 300.219 292.7L298.679 293.82C298.099 292.78 296.739 291.22 295.559 290.12ZM302.359 283.16H304.299V299.26C304.299 300.48 304.019 301.02 303.279 301.34C302.539 301.68 301.299 301.72 299.519 301.72C299.419 301.18 299.139 300.3 298.839 299.72C300.159 299.78 301.439 299.76 301.839 299.76C302.219 299.74 302.359 299.64 302.359 299.26V283.16ZM294.019 298.06C295.699 297.22 298.299 295.76 300.739 294.36L301.359 296.06C299.259 297.38 296.959 298.76 295.199 299.78L294.019 298.06ZM321.299 284.94C319.639 287.3 316.479 290 313.159 291.78C312.919 291.32 312.399 290.64 311.979 290.24C315.419 288.54 318.699 285.56 320.219 283.08H322.179C324.319 286.04 327.679 288.66 330.839 290C330.379 290.48 329.919 291.12 329.579 291.7C326.499 290.1 323.099 287.36 321.299 284.94ZM316.319 289.18H326.359V290.86H316.319V289.18ZM313.819 293.22H328.859V294.88H313.819V293.22ZM312.859 299.44H329.919V301.08H312.859V299.44ZM320.279 289.84H322.279V300.28H320.279V289.84ZM315.299 295.78L316.819 295.16C317.619 296.22 318.439 297.68 318.719 298.64L317.099 299.36C316.839 298.4 316.059 296.88 315.299 295.78ZM325.639 295.14L327.439 295.84C326.639 297.08 325.739 298.46 324.999 299.36L323.579 298.76C324.279 297.78 325.159 296.26 325.639 295.14ZM332.879 288.2H336.839V289.52H332.879V288.2ZM333.719 283.16H335.479V286.08H333.719V283.16ZM332.379 295.06H337.679V300.44H332.379V298.96H336.039V296.54H332.379V295.06ZM330.379 284.88H338.839V287.92H337.239V286.38H331.919V287.92H330.379V284.88ZM331.499 295.06H333.099V301.34H331.499V295.06ZM336.519 288.2H336.819L337.099 288.12L338.179 288.62C336.879 292.36 333.939 294.92 330.779 296.26C330.559 295.86 330.119 295.22 329.779 294.9C332.679 293.84 335.479 291.44 336.519 288.48V288.2ZM333.519 286.74L335.079 287.14C334.199 289.18 332.659 291.02 331.079 292.22C330.819 291.92 330.199 291.34 329.839 291.1C331.399 290.08 332.779 288.48 333.519 286.74ZM331.699 290.96L332.719 289.82C334.779 291.18 337.659 293.2 339.079 294.46L337.979 295.8C336.619 294.48 333.799 292.4 331.699 290.96ZM338.999 284H348.359V285.62H338.999V284ZM341.399 291.72V293.34H346.079V291.72H341.399ZM341.399 294.7V296.36H346.079V294.7H341.399ZM341.399 288.74V290.36H346.079V288.74H341.399ZM339.699 287.3H347.879V297.8H339.699V287.3ZM342.759 284.82L344.819 285.08C344.459 286.26 344.019 287.54 343.679 288.38L342.099 288.06C342.339 287.14 342.619 285.78 342.759 284.82ZM341.359 298.06L342.939 299.02C341.899 300.04 340.179 301.08 338.719 301.66C338.419 301.32 337.879 300.78 337.479 300.44C338.939 299.9 340.579 298.9 341.359 298.06ZM344.239 299.04L345.619 298.14C346.759 298.88 348.239 299.98 348.979 300.74L347.499 301.72C346.819 300.98 345.379 299.82 344.239 299.04ZM356.419 286.3C358.719 286.66 362.739 286.56 364.799 286.28V288.32C362.519 288.56 358.759 288.56 356.419 288.32V286.3ZM357.559 294.62C357.379 295.32 357.279 295.84 357.279 296.38C357.279 297.28 357.979 298.02 360.419 298.02C362.199 298.02 363.719 297.86 365.399 297.5L365.439 299.62C364.159 299.86 362.519 300.02 360.359 300.02C356.979 300.02 355.399 298.86 355.399 296.9C355.399 296.18 355.519 295.44 355.739 294.44L357.559 294.62ZM352.919 284.84C352.799 285.22 352.579 286.02 352.499 286.38C352.179 288 351.519 291.76 351.519 293.9C351.519 294.62 351.559 295.32 351.659 296.04C351.979 295.24 352.379 294.26 352.699 293.5L353.719 294.3C353.179 295.82 352.479 297.96 352.279 298.96C352.219 299.26 352.179 299.66 352.179 299.88C352.199 300.1 352.219 300.4 352.239 300.64L350.419 300.76C350.019 299.36 349.659 297 349.659 294.28C349.659 291.32 350.299 287.92 350.539 286.3C350.599 285.8 350.679 285.18 350.699 284.66L352.919 284.84ZM375.159 287.78H384.619V289.6H375.159V287.78ZM366.399 286.34H375.799V288.1H366.399V286.34ZM380.459 283.12H382.339V299.24C382.339 300.4 382.079 300.96 381.399 301.28C380.739 301.62 379.639 301.68 377.939 301.68C377.879 301.14 377.599 300.24 377.339 299.66C378.539 299.72 379.639 299.7 379.979 299.7C380.319 299.68 380.459 299.58 380.459 299.24V283.12ZM375.199 292.2L376.739 291.48C377.699 292.82 378.659 294.62 378.979 295.84L377.319 296.66C377.019 295.46 376.139 293.6 375.199 292.2ZM366.919 290.94L368.259 289.86C370.679 292.42 373.479 295.9 374.639 298.22L373.139 299.52C372.039 297.14 369.299 293.54 366.919 290.94ZM370.079 283.14H371.899V287.4H370.079V283.14ZM372.319 288.54L374.159 288.8C373.139 294.72 371.119 298.92 367.179 301.54C366.959 301.16 366.279 300.4 365.879 300.06C369.639 297.84 371.479 293.9 372.319 288.54ZM390.439 284.3C390.339 285.04 390.259 285.88 390.219 286.6C390.139 288.82 389.979 293.44 389.979 296.2C389.979 298.32 391.279 299.04 393.039 299.04C396.539 299.04 398.619 297.06 400.059 294.94L401.499 296.66C400.159 298.58 397.459 301.16 392.999 301.16C389.939 301.16 387.899 299.86 387.899 296.52C387.899 293.68 388.099 288.54 388.099 286.6C388.099 285.78 388.039 284.96 387.899 284.28L390.439 284.3ZM402.333 286.52C403.113 286.5 403.813 286.46 404.213 286.42C405.673 286.28 409.233 285.94 412.913 285.62C415.033 285.44 417.053 285.32 418.413 285.28L418.433 287.3C417.313 287.3 415.573 287.32 414.533 287.58C411.873 288.38 410.113 291.24 410.113 293.6C410.113 297.24 413.513 298.46 416.813 298.62L416.093 300.74C412.173 300.54 408.073 298.44 408.073 294.04C408.073 291.02 409.853 288.6 411.473 287.54C409.433 287.76 404.793 288.22 402.553 288.7L402.333 286.52ZM427.553 292.4H435.833V294.02H427.553V292.4ZM427.513 295.9H435.833V297.5H427.513V295.9ZM435.833 283.64L437.653 284.32C436.973 285.68 436.173 287.12 435.493 288.1L433.873 287.46C434.533 286.44 435.373 284.84 435.833 283.64ZM425.713 284.48L427.313 283.76C428.153 284.88 429.033 286.38 429.353 287.4L427.653 288.22C427.353 287.2 426.533 285.64 425.713 284.48ZM426.313 288.78H435.893V290.54H428.173V301.68H426.313V288.78ZM434.993 288.78H436.833V299.5C436.833 300.46 436.633 301 435.973 301.3C435.293 301.6 434.273 301.6 432.753 301.6C432.673 301.1 432.413 300.32 432.153 299.82C433.213 299.86 434.273 299.86 434.573 299.86C434.893 299.84 434.993 299.74 434.993 299.48V288.78ZM430.693 283.1H432.593V289.92H430.693V283.1ZM420.373 284.64L421.493 283.32C422.713 283.92 424.253 284.88 425.013 285.62L423.853 287.08C423.133 286.34 421.613 285.3 420.373 284.64ZM419.453 289.96L420.513 288.62C421.773 289.22 423.353 290.18 424.153 290.92L423.013 292.4C422.273 291.66 420.713 290.62 419.453 289.96ZM420.033 300.32C421.013 298.78 422.393 296.18 423.453 293.86L424.853 295C423.933 297.14 422.753 299.58 421.693 301.54L420.033 300.32ZM440.293 286.3H452.573V285.32H438.893V284.14H454.293V287.48H440.293V286.3ZM439.733 286.3H441.513C441.113 287.5 440.633 288.9 440.253 289.84L438.513 289.72C438.933 288.78 439.393 287.42 439.733 286.3ZM439.773 288.42H454.413V289.6H439.413L439.773 288.42ZM453.793 288.42H455.573C455.573 288.42 455.553 288.78 455.553 288.98C455.433 290.24 455.293 290.88 454.973 291.22C454.693 291.5 454.313 291.62 453.913 291.64C453.533 291.66 452.833 291.66 452.093 291.62C452.073 291.28 451.913 290.76 451.753 290.42C452.313 290.48 452.793 290.5 453.013 290.5C453.233 290.5 453.353 290.48 453.453 290.36C453.613 290.2 453.693 289.74 453.793 288.64V288.42ZM443.673 283.12H445.393V286.96C445.393 289.7 444.513 291.82 438.653 292.84C438.493 292.42 438.073 291.72 437.753 291.38C442.973 290.52 443.673 288.94 443.673 286.92V283.12ZM448.113 283.12H449.913V291.06H448.113V283.12ZM442.153 294.32V295.38H451.593V294.32H442.153ZM442.153 296.46V297.54H451.593V296.46H442.153ZM442.153 292.2V293.24H451.593V292.2H442.153ZM440.313 291.06H453.513V298.68H440.313V291.06ZM448.173 299.66L449.673 298.68C451.873 299.32 454.333 300.16 455.793 300.76L453.713 301.72C452.493 301.12 450.333 300.32 448.173 299.66ZM443.653 298.68L445.333 299.44C443.693 300.38 441.133 301.26 439.113 301.76C438.813 301.38 438.153 300.7 437.733 300.38C439.833 300 442.233 299.38 443.653 298.68ZM463.793 283.84L465.373 283.16C466.113 284.2 466.893 285.6 467.173 286.54L465.513 287.3C465.253 286.38 464.513 284.92 463.793 283.84ZM471.193 283.1L473.113 283.78C472.433 285 471.673 286.32 471.033 287.2L469.433 286.58C470.053 285.64 470.793 284.18 471.193 283.1ZM465.573 293.46H467.453C467.133 297.04 466.313 300.08 462.633 301.72C462.413 301.26 461.893 300.6 461.493 300.24C464.733 298.9 465.333 296.38 465.573 293.46ZM468.833 293.22H470.673V299.1C470.673 299.66 470.733 299.74 471.073 299.74C471.233 299.74 471.933 299.74 472.113 299.74C472.493 299.74 472.573 299.42 472.613 297.28C472.973 297.58 473.753 297.9 474.233 298.02C474.073 300.72 473.613 301.44 472.333 301.44C472.013 301.44 471.073 301.44 470.773 301.44C469.193 301.44 468.833 300.88 468.833 299.12V293.22ZM465.493 288.82V292.2H471.213V288.82H465.493ZM463.693 287.14H473.093V293.86H463.693V287.14ZM458.773 284.88H460.613V301.66H458.773V284.88ZM455.673 288.76H462.953V290.52H455.673V288.76ZM458.873 289.46L460.013 289.94C459.233 292.78 457.713 296.32 456.173 298.22C455.993 297.68 455.573 296.9 455.253 296.44C456.673 294.84 458.193 291.82 458.873 289.46ZM461.793 283.38L463.093 284.84C461.173 285.6 458.373 286.14 456.053 286.46C455.953 286.04 455.713 285.42 455.493 285.02C457.733 284.64 460.293 284.06 461.793 283.38ZM460.553 291.42C461.053 291.84 462.873 293.72 463.273 294.18L462.173 295.68C461.693 294.8 460.313 292.92 459.693 292.18L460.553 291.42ZM482.193 284.1C482.033 284.86 481.793 285.98 481.253 287.38C480.793 288.48 480.113 289.74 479.433 290.68C480.093 290.32 481.213 290.1 481.993 290.1C483.593 290.1 484.813 291.04 484.813 292.78C484.813 293.82 484.873 296.08 484.893 297.32H482.973C483.053 296.32 483.073 294.4 483.053 293.36C483.053 292.14 482.253 291.66 481.293 291.66C480.093 291.66 478.833 292.3 477.993 293.08C477.393 293.66 476.833 294.38 476.153 295.22L474.453 293.96C477.213 291.36 478.633 289.12 479.373 287.2C479.793 286.1 480.053 284.9 480.113 283.92L482.193 284.1ZM475.053 286.12C476.093 286.26 477.533 286.34 478.493 286.34C481.153 286.34 484.693 286.18 487.553 285.68L487.533 287.52C484.733 287.94 480.873 288.1 478.373 288.1C477.533 288.1 476.153 288.06 475.053 287.98V286.12ZM490.573 291.32C490.013 291.48 489.133 291.82 488.533 292.04C487.173 292.58 485.313 293.32 483.393 294.3C481.493 295.3 480.273 296.28 480.273 297.54C480.273 298.9 481.553 299.16 483.573 299.16C485.193 299.16 487.373 298.96 489.133 298.64L489.073 300.68C487.633 300.86 485.313 301.02 483.513 301.02C480.533 301.02 478.233 300.34 478.233 297.84C478.233 295.26 480.873 293.7 483.273 292.48C485.133 291.5 486.593 290.94 487.873 290.36C488.553 290.06 489.133 289.8 489.773 289.46L490.573 291.32ZM491.813 296.82H509.773V298.36H491.813V296.82ZM496.093 291V291.98H505.753V291H496.093ZM496.093 293.12V294.12H505.753V293.12H496.093ZM496.093 288.92V289.88H505.753V288.92H496.093ZM494.193 287.72H507.733V295.32H494.193V287.72ZM503.393 295H505.353V301.66H503.393V295ZM494.093 284.54H500.493V286.06H494.093V284.54ZM501.913 284.54H509.653V286.06H501.913V284.54ZM494.353 283L496.113 283.48C495.333 285.24 494.073 287 492.873 288.12C492.513 287.82 491.773 287.32 491.333 287.08C492.573 286.08 493.713 284.54 494.353 283ZM502.333 283L504.133 283.44C503.473 285.16 502.293 286.82 501.153 287.86C500.773 287.58 499.953 287.14 499.493 286.94C500.733 286 501.773 284.52 502.333 283ZM495.173 285.72L496.733 285.2C497.233 285.82 497.793 286.7 498.013 287.28L496.373 287.88C496.153 287.3 495.653 286.38 495.173 285.72ZM503.753 285.68L505.273 285.04C505.913 285.66 506.673 286.54 507.033 287.18L505.433 287.9C505.133 287.28 504.393 286.34 503.753 285.68ZM496.773 294.98H498.693V296.74C498.693 298.52 497.833 300.46 493.293 301.7C493.033 301.3 492.513 300.66 492.113 300.3C496.193 299.38 496.773 297.84 496.773 296.7V294.98ZM511.853 298.62H525.773V300.48H511.853V298.62ZM517.673 283.28H519.633V299.72H517.673V283.28ZM510.913 293.3H512.833V301.7H510.913V293.3ZM524.753 293.3H526.713V301.66H524.753V293.3ZM511.693 285.02H513.573V290.26H523.933V285.02H525.913V292.1H511.693V285.02ZM533.133 292.4C533.133 296.48 531.473 299.66 529.173 301.96L527.673 301.24C529.853 298.96 531.333 296.1 531.333 292.4C531.333 288.72 529.853 285.86 527.673 283.58L529.173 282.86C531.473 285.16 533.133 288.34 533.133 292.4Z" fill="white"/>
<path d="M419.564 117.36C419.564 111.396 422.056 106.916 425.08 103.92L427.74 105.124C424.912 108.12 422.728 112.012 422.728 117.36C422.728 122.736 424.912 126.628 427.74 129.624L425.08 130.828C422.056 127.832 419.564 123.352 419.564 117.36ZM441.348 105.488L444.148 104.284C445.184 105.74 446.276 107.672 446.696 109.016L443.728 110.36C443.392 109.044 442.356 107 441.348 105.488ZM451.624 104.2L455.068 105.348C454.088 107.084 453.024 108.876 452.156 110.08L449.3 109.016C450.14 107.7 451.12 105.712 451.624 104.2ZM443.7 118.844H447.004C446.64 123.968 445.632 128.168 440.34 130.576C439.976 129.736 439.052 128.532 438.352 127.916C442.804 126.068 443.42 122.792 443.7 118.844ZM448.488 118.452H451.736V126.208C451.736 127.048 451.792 127.16 452.128 127.16C452.296 127.16 452.884 127.16 453.052 127.16C453.472 127.16 453.584 126.712 453.64 123.8C454.256 124.304 455.628 124.864 456.496 125.088C456.216 129.064 455.404 130.156 453.416 130.156C452.94 130.156 452.016 130.156 451.54 130.156C449.02 130.156 448.488 129.176 448.488 126.236V118.452ZM444.596 112.768V116.576H451.54V112.768H444.596ZM441.404 109.828H454.9V119.488H441.404V109.828ZM434.152 106.832H437.428V130.492H434.152V106.832ZM430.12 112.096H440.396V115.232H430.12V112.096ZM434.348 113.356L436.308 114.224C435.244 118.228 433.256 123.212 431.1 125.984C430.792 125.004 430.064 123.604 429.532 122.764C431.492 120.524 433.452 116.464 434.348 113.356ZM438.52 104.508L440.76 107.112C437.904 108.204 434.012 108.96 430.736 109.38C430.596 108.652 430.176 107.532 429.784 106.832C432.892 106.3 436.364 105.488 438.52 104.508ZM437.344 115.988C438.044 116.576 440.48 119.096 441.012 119.74L439.108 122.372C438.436 121.028 436.756 118.48 435.888 117.304L437.344 115.988ZM468.312 105.404H474.22V108.568H468.312V105.404ZM472.54 105.404H476.068C476.488 113.384 478.168 120.132 484.02 123.1C483.236 123.632 482.004 124.864 481.388 125.648C475.424 122.092 473.576 115.036 473.072 106.888H472.54V105.404ZM472.428 111.228L475.9 111.732C474.668 118.032 472.176 122.792 468.032 125.676C467.528 125.032 466.212 123.716 465.456 123.156C469.376 120.804 471.532 116.632 472.428 111.228ZM464.756 115.148V125.452H461.48V118.256H458.204V115.148H464.756ZM464.756 123.996C465.876 125.844 468.004 126.656 470.916 126.768C474.192 126.908 480.548 126.824 484.328 126.516C483.964 127.3 483.404 128.924 483.264 129.932C479.876 130.1 474.22 130.156 470.86 130.016C467.416 129.876 465.092 129.064 463.272 126.88C462.04 127.972 460.78 129.036 459.268 130.268L457.616 126.768C458.876 125.984 460.388 125.004 461.676 123.996H464.756ZM458.26 106.888L460.752 104.872C462.432 106.048 464.476 107.812 465.456 109.128L462.768 111.34C461.928 110.024 459.912 108.148 458.26 106.888ZM494.408 117.36C494.408 123.352 491.916 127.832 488.892 130.828L486.232 129.624C489.06 126.628 491.244 122.736 491.244 117.36C491.244 112.012 489.06 108.12 486.232 105.124L488.892 103.92C491.916 106.916 494.408 111.396 494.408 117.36Z" fill="white"/>
<path d="M102.102 154.467L132.043 111.605L136.35 105.18C137.398 103.63 138.378 101.967 139.289 100.189C140.246 98.4121 141.066 96.612 141.75 94.7891C142.434 92.9661 142.958 91.1432 143.322 89.3203C143.732 87.4974 143.938 85.7428 143.938 84.0566C143.938 82.735 143.755 81.2995 143.391 79.75C143.072 78.2005 142.548 76.7878 141.818 75.5117C141.135 74.1901 140.223 73.0964 139.084 72.2305C137.945 71.3646 136.555 70.9316 134.914 70.9316C133.319 70.9316 131.997 71.3418 130.949 72.1621C129.901 72.9368 129.035 73.985 128.352 75.3066C127.668 76.6283 127.144 78.1322 126.779 79.8184C126.415 81.5046 126.164 83.2135 126.027 84.9453C125.891 86.6771 125.799 88.3861 125.754 90.0723C125.754 91.7129 125.754 93.1712 125.754 94.4473V96.0879H102.17V88.3633C102.17 82.8945 102.74 77.8359 103.879 73.1875C105.064 68.4935 106.955 64.4375 109.553 61.0195C112.15 57.6016 115.523 54.9355 119.67 53.0215C123.863 51.1074 128.944 50.1504 134.914 50.1504C140.109 50.1504 144.735 50.9479 148.791 52.543C152.847 54.138 156.265 56.4167 159.045 59.3789C161.825 62.2956 163.944 65.8503 165.402 70.043C166.861 74.1901 167.59 78.8613 167.59 84.0566C167.59 88.2493 167.066 92.3737 166.018 96.4297C164.969 100.44 163.352 104.587 161.164 108.871C158.977 113.155 156.174 117.667 152.756 122.406C149.383 127.1 145.35 132.25 140.656 137.855C137.876 141.182 135.552 144.031 133.684 146.4C131.815 148.725 130.357 150.57 129.309 151.938H167.59V175.59H102.102V154.467ZM174.943 180.922C175.17 180.922 175.512 180.922 175.968 180.922C177.198 180.922 178.019 180.899 178.429 180.854C178.839 180.854 179.249 180.648 179.659 180.238C180.07 179.874 180.297 179.372 180.343 178.734C180.434 178.096 180.48 177.071 180.48 175.658H172.96V153.92H195.04C195.04 155.287 195.04 157.292 195.04 159.936C195.086 163.308 195.109 165.792 195.109 167.387C195.017 176.501 194.083 182.836 192.306 186.391C189.799 191.404 184.923 193.363 177.677 192.27L174.943 180.922ZM228.164 73.3242H198.223V52.6113H251.202L251.612 64.7109L230.01 175.59H206.836L228.164 73.3242ZM284.424 136.557C284.379 137.149 284.356 137.696 284.356 138.197C284.356 138.699 284.356 139.177 284.356 139.633C284.356 141.638 284.401 143.712 284.493 145.854C284.629 147.995 284.948 149.955 285.45 151.732C285.996 153.51 286.771 154.968 287.774 156.107C288.822 157.247 290.258 157.816 292.08 157.816C297.732 157.816 301.149 153.464 302.334 144.76C302.517 143.575 302.631 141.889 302.676 139.701C302.722 137.514 302.745 134.779 302.745 131.498C302.745 129.994 302.676 128.217 302.539 126.166C302.448 124.115 302.107 122.156 301.514 120.287C300.922 118.419 299.987 116.846 298.711 115.57C297.481 114.249 295.749 113.588 293.516 113.588C292.422 113.588 291.374 113.861 290.371 114.408C289.369 114.955 288.435 115.684 287.569 116.596C286.748 117.462 285.996 118.464 285.313 119.604C284.629 120.743 284.037 121.928 283.536 123.158H263.37V52.4746H321.954V75.8535H285.518L284.629 98.0703C289.095 95.3815 293.379 94.0371 297.481 94.0371C301.309 94.0371 304.659 94.5384 307.53 95.541C310.446 96.5436 312.953 97.9336 315.049 99.7109C317.191 101.443 318.946 103.516 320.313 105.932C321.726 108.301 322.842 110.899 323.663 113.725C324.528 116.505 325.121 119.444 325.44 122.543C325.804 125.596 325.987 128.695 325.987 131.84C325.987 135.349 325.827 138.926 325.508 142.572C325.235 146.173 324.665 149.682 323.799 153.1C322.933 156.518 321.748 159.73 320.245 162.738C318.741 165.746 316.758 168.389 314.297 170.668C311.882 172.947 308.942 174.724 305.479 176C302.015 177.322 297.914 177.982 293.174 177.982C286.703 177.982 281.371 176.889 277.178 174.701C272.985 172.514 269.681 169.551 267.266 165.814C264.851 162.032 263.164 157.634 262.207 152.621C261.25 147.608 260.772 142.253 260.772 136.557H284.424ZM337.129 88.8418C337.129 83.5098 337.767 78.4967 339.043 73.8027C340.319 69.1087 342.302 65.0299 344.991 61.5664C347.679 58.0573 351.097 55.3001 355.245 53.2949C359.437 51.2441 364.45 50.2188 370.284 50.2188C375.98 50.2188 380.902 51.2214 385.049 53.2266C389.242 55.1862 392.683 57.9206 395.371 61.4297C398.106 64.8932 400.111 68.972 401.387 73.666C402.709 78.36 403.37 83.4186 403.37 88.8418V139.496C403.37 144.691 402.686 149.613 401.319 154.262C399.952 158.91 397.901 163.012 395.166 166.566C392.432 170.076 388.991 172.855 384.844 174.906C380.697 176.957 375.843 177.982 370.284 177.982C364.678 177.982 359.779 176.98 355.586 174.975C351.439 172.924 347.998 170.167 345.264 166.703C342.53 163.194 340.479 159.115 339.112 154.467C337.79 149.773 337.129 144.783 337.129 139.496V88.8418ZM379.512 88.8418C379.512 77.0384 376.436 71.1367 370.284 71.1367C368.825 71.1367 367.572 71.4329 366.524 72.0254C365.521 72.6178 364.678 73.3926 363.995 74.3496C363.311 75.3066 362.764 76.4004 362.354 77.6309C361.989 78.8613 361.716 80.1374 361.534 81.459C361.351 82.7806 361.237 84.0794 361.192 85.3555C361.146 86.6315 361.123 87.7936 361.123 88.8418V139.496C361.123 140.954 361.215 142.709 361.397 144.76C361.579 146.765 361.989 148.702 362.627 150.57C363.265 152.393 364.177 153.943 365.362 155.219C366.592 156.495 368.233 157.133 370.284 157.133C372.243 157.133 373.838 156.54 375.069 155.355C376.299 154.125 377.233 152.621 377.871 150.844C378.51 149.066 378.942 147.152 379.17 145.102C379.398 143.051 379.512 141.182 379.512 139.496V88.8418Z" fill="white"/>
<path d="M414.96 140.24H446.36V146H420.8V175.76H414.96V140.24ZM443.52 140.24H449.4V169.24C449.4 172.2 448.8 173.76 446.96 174.72C445.12 175.68 442.64 175.8 439.08 175.8C438.84 174.16 437.84 171.48 437 170C439.08 170.16 441.72 170.12 442.48 170.12C443.24 170.12 443.52 169.88 443.52 169.16V140.24ZM418.12 155.16H446.4V160.92H418.12V155.16ZM428.96 143.44H434.76V158.04H428.96V143.44ZM452.6 179.32L461.44 139.48H466.04L457.24 179.32H452.6ZM478.551 139.56H498.031V145.24H478.551V139.56ZM478.591 149.08H498.231V154.6H478.591V149.08ZM478.431 158.44H497.911V164.08H478.431V158.44ZM474.431 139.56H480.431V153.32C480.431 160.28 479.311 170.28 472.591 175.8C471.711 174.6 469.351 172.4 468.071 171.6C473.951 166.72 474.431 159.24 474.431 153.28V139.56ZM495.271 139.56H501.471V168.76C501.471 172.04 500.711 173.68 498.671 174.64C496.551 175.64 493.631 175.76 489.551 175.76C489.231 174.04 488.071 171.2 487.151 169.64C489.711 169.84 493.071 169.8 494.031 169.8C494.951 169.8 495.271 169.48 495.271 168.68V139.56Z" fill="white"/>
</svg>
