<svg width="784" height="264" viewBox="0 0 784 264" fill="none" xmlns="http://www.w3.org/2000/svg">
<rect width="784" height="264" rx="10" fill="#EFEFEF"/>
<path d="M328.358 185.936C324.302 185.936 321.104 185.312 318.764 184.064C316.424 182.816 314.76 180.996 313.772 178.604C312.784 176.16 312.29 173.17 312.29 169.634C312.29 169.478 312.29 169.322 312.29 169.166C312.29 168.958 312.29 168.776 312.29 168.62H324.458C324.458 171.168 324.666 173.066 325.082 174.314C325.55 175.51 326.668 176.108 328.436 176.108C329.632 176.108 330.516 175.744 331.088 175.016C331.66 174.288 332.024 173.014 332.18 171.194C332.388 169.322 332.492 166.774 332.492 163.55V157.934C331.816 159.026 330.776 159.858 329.372 160.43C328.02 161.002 326.486 161.34 324.77 161.444C321.442 161.496 318.764 160.664 316.736 158.948C314.708 157.232 313.252 154.918 312.368 152.006C311.484 149.094 311.042 145.922 311.042 142.49C311.042 138.07 311.588 134.274 312.68 131.102C313.824 127.878 315.67 125.382 318.218 123.614C320.766 121.846 324.146 120.962 328.358 120.962C332.518 120.962 335.872 121.794 338.42 123.458C340.968 125.122 342.814 127.462 343.958 130.478C345.154 133.442 345.752 136.952 345.752 141.008V164.564C345.752 168.672 345.258 172.338 344.27 175.562C343.334 178.786 341.618 181.334 339.122 183.206C336.626 185.026 333.038 185.936 328.358 185.936ZM328.514 151.46C329.554 151.46 330.386 151.174 331.01 150.602C331.634 150.03 332.128 149.484 332.492 148.964V138.668C332.492 137.212 332.388 135.886 332.18 134.69C331.972 133.442 331.582 132.454 331.01 131.726C330.438 130.946 329.554 130.556 328.358 130.556C327.214 130.556 326.356 130.972 325.784 131.804C325.212 132.584 324.822 133.78 324.614 135.392C324.458 136.952 324.38 138.902 324.38 141.242C324.38 143.27 324.432 145.064 324.536 146.624C324.692 148.132 325.056 149.328 325.628 150.212C326.2 151.044 327.162 151.46 328.514 151.46ZM355.275 195.92L354.495 191.786C355.847 191.422 357.095 190.746 358.239 189.758C359.435 188.822 360.033 187.236 360.033 185H353.325V172.988H365.415V183.362C365.363 187.21 364.505 190.2 362.841 192.332C361.177 194.464 358.655 195.66 355.275 195.92ZM390.085 185.936C385.977 185.936 382.623 185.052 380.023 183.284C377.475 181.464 375.603 178.994 374.407 175.874C373.211 172.754 372.613 169.192 372.613 165.188V142.334C372.613 138.226 373.081 134.56 374.017 131.336C375.005 128.112 376.747 125.59 379.243 123.77C381.739 121.898 385.327 120.962 390.007 120.962C394.063 120.962 397.261 121.586 399.601 122.834C401.941 124.082 403.605 125.902 404.593 128.294C405.581 130.686 406.075 133.65 406.075 137.186C406.075 137.394 406.075 137.602 406.075 137.81C406.127 137.966 406.153 138.122 406.153 138.278H393.907C393.907 135.73 393.699 133.858 393.283 132.662C392.919 131.414 391.853 130.79 390.085 130.79C388.889 130.79 387.979 131.154 387.355 131.882C386.783 132.61 386.393 133.884 386.185 135.704C385.977 137.524 385.873 140.072 385.873 143.348V148.964C386.497 147.872 387.511 147.04 388.915 146.468C390.319 145.844 391.905 145.506 393.673 145.454C397.001 145.35 399.653 146.104 401.629 147.716C403.657 149.328 405.113 151.538 405.997 154.346C406.881 157.102 407.323 160.196 407.323 163.628C407.323 168.048 406.803 171.948 405.763 175.328C404.723 178.656 402.955 181.256 400.459 183.128C397.963 185 394.505 185.936 390.085 185.936ZM390.241 176.342C391.437 176.342 392.295 175.952 392.815 175.172C393.387 174.34 393.751 173.144 393.907 171.584C394.115 169.972 394.219 167.996 394.219 165.656C394.219 163.576 394.141 161.782 393.985 160.274C393.881 158.766 393.543 157.596 392.971 156.764C392.399 155.88 391.437 155.438 390.085 155.438C389.461 155.438 388.863 155.568 388.291 155.828C387.719 156.088 387.225 156.426 386.809 156.842C386.393 157.206 386.081 157.57 385.873 157.934V168.23C385.873 169.634 385.977 170.96 386.185 172.208C386.445 173.456 386.887 174.47 387.511 175.25C388.187 175.978 389.097 176.342 390.241 176.342ZM430.417 186.17C425.789 186.17 422.279 185.364 419.887 183.752C417.547 182.088 415.961 179.774 415.129 176.81C414.297 173.846 413.881 170.414 413.881 166.514H426.439C426.439 168.906 426.569 170.856 426.829 172.364C427.089 173.872 427.557 174.964 428.233 175.64C428.961 176.264 429.975 176.55 431.275 176.498C432.627 176.446 433.589 175.9 434.161 174.86C434.733 173.82 435.071 172.338 435.175 170.414C435.331 168.438 435.409 166.072 435.409 163.316C435.409 161.236 435.279 159.39 435.019 157.778C434.811 156.166 434.343 154.892 433.615 153.956C432.939 152.968 431.899 152.474 430.495 152.474C429.195 152.474 428.129 152.942 427.297 153.878C426.465 154.814 425.867 156.27 425.503 158.246H414.271L415.441 121.82H444.925V132.74H425.893L425.191 145.766C425.711 145.038 426.699 144.414 428.155 143.894C429.611 143.322 431.171 142.958 432.835 142.802C436.059 142.438 438.763 143.036 440.947 144.596C443.183 146.104 444.847 148.418 445.939 151.538C447.083 154.658 447.655 158.48 447.655 163.004C447.655 166.384 447.447 169.504 447.031 172.364C446.615 175.172 445.809 177.616 444.613 179.696C443.417 181.724 441.675 183.31 439.387 184.454C437.099 185.598 434.109 186.17 430.417 186.17ZM471.663 186.17C467.867 186.17 464.695 185.416 462.147 183.908C459.599 182.348 457.675 180.216 456.375 177.512C455.075 174.808 454.425 171.662 454.425 168.074V139.448C454.425 135.756 455.023 132.532 456.219 129.776C457.467 126.968 459.365 124.784 461.913 123.224C464.461 121.664 467.711 120.884 471.663 120.884C475.615 120.884 478.839 121.664 481.335 123.224C483.883 124.784 485.755 126.968 486.951 129.776C488.199 132.532 488.823 135.756 488.823 139.448V168.074C488.823 171.61 488.173 174.756 486.873 177.512C485.573 180.216 483.649 182.348 481.101 183.908C478.553 185.416 475.407 186.17 471.663 186.17ZM471.663 174.548C472.911 174.548 473.795 174.158 474.315 173.378C474.887 172.546 475.225 171.61 475.329 170.57C475.485 169.478 475.563 168.542 475.563 167.762V139.76C475.563 138.876 475.511 137.888 475.407 136.796C475.303 135.652 474.965 134.664 474.393 133.832C473.873 132.948 472.963 132.506 471.663 132.506C470.363 132.506 469.427 132.948 468.855 133.832C468.335 134.664 468.023 135.652 467.919 136.796C467.815 137.888 467.763 138.876 467.763 139.76V167.762C467.763 168.542 467.841 169.478 467.997 170.57C468.153 171.61 468.491 172.546 469.011 173.378C469.583 174.158 470.467 174.548 471.663 174.548Z" fill="black"/>
<path d="M515.345 160.564H535.755V163.658H518.491V183.34H515.345V160.564ZM534.247 160.564H537.419V179.674C537.419 181.364 537.055 182.248 535.963 182.768C534.897 183.262 533.337 183.34 530.997 183.34C530.867 182.456 530.321 181.026 529.879 180.22C531.387 180.298 533.077 180.272 533.597 180.272C534.091 180.272 534.247 180.116 534.247 179.648V160.564ZM517.061 170.236H535.781V173.33H517.061V170.236ZM524.627 162.254H527.747V171.77H524.627V162.254ZM539.629 185.732L546.129 160.044H548.651L542.177 185.732H539.629ZM556.34 160.148H569.34V163.19H556.34V160.148ZM556.366 166.362H569.47V169.326H556.366V166.362ZM556.236 172.524H569.288V175.54H556.236V172.524ZM554.208 160.148H557.406V168.754C557.406 173.278 556.704 179.648 552.31 183.34C551.842 182.69 550.568 181.52 549.892 181.104C553.844 177.75 554.208 172.732 554.208 168.754V160.148ZM567.884 160.148H571.186V179.388C571.186 181.234 570.744 182.17 569.548 182.69C568.3 183.236 566.454 183.288 563.75 183.288C563.568 182.352 562.97 180.844 562.45 180.012C564.296 180.116 566.454 180.09 567.078 180.09C567.676 180.064 567.884 179.882 567.884 179.336V160.148Z" fill="black"/>
<path d="M192.21 160.902H213.894V163.424H192.21V160.902ZM193.172 180.064H213.062V182.612H193.172V180.064ZM197.644 164.542H208.252V166.726H197.644V164.542ZM197.644 167.87H208.252V170.054H197.644V167.87ZM190.832 171.198H215.142V173.746H190.832V171.198ZM196.734 175.93H209.292V178.374H196.734V175.93ZM195.798 158.926H198.944V172.602H195.798V158.926ZM207.134 158.952H210.306V172.602H207.134V158.952ZM201.336 174.292H204.534V181.546H201.336V174.292ZM197.41 171.926L200.01 172.888C198.346 175.644 195.538 178.088 192.574 179.414C192.132 178.686 191.248 177.594 190.598 177.022C193.302 176.034 196.032 174.032 197.41 171.926ZM208.694 171.926C210.072 173.928 212.75 175.8 215.428 176.762C214.752 177.334 213.842 178.452 213.374 179.18C210.566 177.932 207.862 175.462 206.224 172.862L208.694 171.926ZM217.508 163.97H240.518V167.142H217.508V163.97ZM222.864 175.774H234.928V178.946H222.864V175.774ZM227.31 158.926H230.638V183.34H227.31V158.926ZM226.374 165.114L229.234 166.024C226.998 171.692 223.306 176.658 218.756 179.518C218.236 178.738 217.196 177.542 216.494 176.918C220.758 174.578 224.528 169.898 226.374 165.114ZM231.574 165.192C233.472 169.82 237.268 174.344 241.636 176.606C240.856 177.256 239.738 178.556 239.218 179.44C234.642 176.632 231.002 171.666 228.74 166.128L231.574 165.192ZM246.914 159.056H249.8V183.288H246.914V159.056ZM242.988 167.584H253.648V170.496H242.988V167.584ZM246.368 169.144L248.084 169.976C247.252 173.46 245.64 177.984 243.924 180.48C243.638 179.518 242.962 178.14 242.494 177.256C244.054 175.332 245.64 171.718 246.368 169.144ZM249.748 170.652C250.502 171.328 253.024 174.344 253.596 175.072L251.672 177.516C250.996 176.034 249.254 173.148 248.318 171.874L249.748 170.652ZM242.936 161.058L245.12 160.486C245.796 162.384 246.316 164.854 246.446 166.492L244.106 167.116C244.054 165.478 243.56 162.956 242.936 161.058ZM251.516 160.356L254.142 160.928C253.466 163.034 252.686 165.504 252.036 167.038L250.086 166.492C250.606 164.828 251.23 162.202 251.516 160.356ZM261.344 158.9H264.282V183.314H261.344V158.9ZM253.57 175.176L266.934 172.784L267.402 175.67L254.064 178.088L253.57 175.176ZM255.052 162.462L256.586 160.33C258.042 161.214 259.888 162.514 260.746 163.476L259.108 165.842C258.328 164.828 256.508 163.398 255.052 162.462ZM253.882 169.014L255.338 166.778C256.846 167.584 258.796 168.832 259.732 169.794L258.172 172.264C257.288 171.302 255.39 169.898 253.882 169.014ZM280.896 161.89C278.738 164.932 274.76 168.338 270.496 170.6C270.106 169.872 269.222 168.728 268.546 168.078C273.018 165.894 277.204 161.994 279.128 158.848H282.378C285.186 162.8 289.372 166.076 293.506 167.766C292.752 168.546 292.024 169.612 291.452 170.574C287.474 168.468 283.132 164.958 280.896 161.89ZM274.37 166.726H287.474V169.456H274.37V166.726ZM271.276 172.03H290.542V174.708H271.276V172.03ZM269.95 179.934H292.05V182.612H269.95V179.934ZM279.18 167.818H282.508V181.26H279.18V167.818ZM272.888 175.696L275.41 174.656C276.398 175.982 277.438 177.776 277.828 178.998L275.124 180.168C274.786 178.972 273.824 177.074 272.888 175.696ZM286.122 174.682L289.086 175.8C288.02 177.386 286.876 179.076 285.966 180.168L283.626 179.206C284.458 177.984 285.55 176.086 286.122 174.682Z" fill="black"/>
<path d="M378.824 230.588V206.078C378.546 206.23 378.229 206.382 377.874 206.534C377.52 206.686 377.14 206.851 376.734 207.028C376.354 207.18 375.974 207.332 375.594 207.484C375.24 207.636 374.91 207.788 374.606 207.94V203.228C374.885 203.076 375.278 202.873 375.784 202.62C376.291 202.341 376.836 202.037 377.418 201.708C378.001 201.379 378.546 201.049 379.052 200.72C379.559 200.365 379.939 200.061 380.192 199.808H385.17V230.588H378.824ZM398.99 231.158C397.14 231.158 395.595 230.791 394.354 230.056C393.112 229.296 392.175 228.257 391.542 226.94C390.908 225.623 390.592 224.09 390.592 222.342V208.396C390.592 206.597 390.883 205.027 391.466 203.684C392.074 202.316 392.998 201.252 394.24 200.492C395.481 199.732 397.064 199.352 398.99 199.352C400.915 199.352 402.486 199.732 403.702 200.492C404.943 201.252 405.855 202.316 406.438 203.684C407.046 205.027 407.35 206.597 407.35 208.396V222.342C407.35 224.065 407.033 225.597 406.4 226.94C405.766 228.257 404.829 229.296 403.588 230.056C402.346 230.791 400.814 231.158 398.99 231.158ZM398.99 225.496C399.598 225.496 400.028 225.306 400.282 224.926C400.56 224.521 400.725 224.065 400.776 223.558C400.852 223.026 400.89 222.57 400.89 222.19V208.548C400.89 208.117 400.864 207.636 400.814 207.104C400.763 206.547 400.598 206.065 400.32 205.66C400.066 205.229 399.623 205.014 398.99 205.014C398.356 205.014 397.9 205.229 397.622 205.66C397.368 206.065 397.216 206.547 397.166 207.104C397.115 207.636 397.09 208.117 397.09 208.548V222.19C397.09 222.57 397.128 223.026 397.204 223.558C397.28 224.065 397.444 224.521 397.698 224.926C397.976 225.306 398.407 225.496 398.99 225.496ZM412.016 235.908L411.636 233.894C412.295 233.717 412.903 233.387 413.46 232.906C414.043 232.45 414.334 231.677 414.334 230.588H411.066V224.736H416.956V229.79C416.931 231.665 416.513 233.121 415.702 234.16C414.892 235.199 413.663 235.781 412.016 235.908ZM428.975 231.044C426.974 231.044 425.34 230.613 424.073 229.752C422.832 228.865 421.92 227.662 421.337 226.142C420.754 224.622 420.463 222.887 420.463 220.936V209.802C420.463 207.801 420.691 206.015 421.147 204.444C421.628 202.873 422.477 201.645 423.693 200.758C424.909 199.846 426.657 199.39 428.937 199.39C430.913 199.39 432.471 199.694 433.611 200.302C434.751 200.91 435.562 201.797 436.043 202.962C436.524 204.127 436.765 205.571 436.765 207.294C436.765 207.395 436.765 207.497 436.765 207.598C436.79 207.674 436.803 207.75 436.803 207.826H430.837C430.837 206.585 430.736 205.673 430.533 205.09C430.356 204.482 429.836 204.178 428.975 204.178C428.392 204.178 427.949 204.355 427.645 204.71C427.366 205.065 427.176 205.685 427.075 206.572C426.974 207.459 426.923 208.7 426.923 210.296V213.032C427.227 212.5 427.721 212.095 428.405 211.816C429.089 211.512 429.862 211.347 430.723 211.322C432.344 211.271 433.636 211.639 434.599 212.424C435.587 213.209 436.296 214.286 436.727 215.654C437.158 216.997 437.373 218.504 437.373 220.176C437.373 222.329 437.12 224.229 436.613 225.876C436.106 227.497 435.245 228.764 434.029 229.676C432.813 230.588 431.128 231.044 428.975 231.044ZM429.051 226.37C429.634 226.37 430.052 226.18 430.305 225.8C430.584 225.395 430.761 224.812 430.837 224.052C430.938 223.267 430.989 222.304 430.989 221.164C430.989 220.151 430.951 219.277 430.875 218.542C430.824 217.807 430.66 217.237 430.381 216.832C430.102 216.401 429.634 216.186 428.975 216.186C428.671 216.186 428.38 216.249 428.101 216.376C427.822 216.503 427.582 216.667 427.379 216.87C427.176 217.047 427.024 217.225 426.923 217.402V222.418C426.923 223.102 426.974 223.748 427.075 224.356C427.202 224.964 427.417 225.458 427.721 225.838C428.05 226.193 428.494 226.37 429.051 226.37ZM443.691 230.588V206.078C443.413 206.23 443.096 206.382 442.741 206.534C442.387 206.686 442.007 206.851 441.601 207.028C441.221 207.18 440.841 207.332 440.461 207.484C440.107 207.636 439.777 207.788 439.473 207.94V203.228C439.752 203.076 440.145 202.873 440.651 202.62C441.158 202.341 441.703 202.037 442.285 201.708C442.868 201.379 443.413 201.049 443.919 200.72C444.426 200.365 444.806 200.061 445.059 199.808H450.037V230.588H443.691ZM463.097 231.158C460.842 231.158 459.132 230.765 457.967 229.98C456.827 229.169 456.054 228.042 455.649 226.598C455.244 225.154 455.041 223.482 455.041 221.582H461.159C461.159 222.747 461.222 223.697 461.349 224.432C461.476 225.167 461.704 225.699 462.033 226.028C462.388 226.332 462.882 226.471 463.515 226.446C464.174 226.421 464.642 226.155 464.921 225.648C465.2 225.141 465.364 224.419 465.415 223.482C465.491 222.519 465.529 221.367 465.529 220.024C465.529 219.011 465.466 218.111 465.339 217.326C465.238 216.541 465.01 215.92 464.655 215.464C464.326 214.983 463.819 214.742 463.135 214.742C462.502 214.742 461.982 214.97 461.577 215.426C461.172 215.882 460.88 216.591 460.703 217.554H455.231L455.801 199.808H470.165V205.128H460.893L460.551 211.474C460.804 211.119 461.286 210.815 461.995 210.562C462.704 210.283 463.464 210.106 464.275 210.03C465.846 209.853 467.163 210.144 468.227 210.904C469.316 211.639 470.127 212.766 470.659 214.286C471.216 215.806 471.495 217.668 471.495 219.872C471.495 221.519 471.394 223.039 471.191 224.432C470.988 225.8 470.596 226.991 470.013 228.004C469.43 228.992 468.582 229.765 467.467 230.322C466.352 230.879 464.896 231.158 463.097 231.158ZM478.279 213.296H495.549V215.914H480.941V232.568H478.279V213.296ZM494.273 213.296H496.957V229.466C496.957 230.896 496.649 231.644 495.725 232.084C494.823 232.502 493.503 232.568 491.523 232.568C491.413 231.82 490.951 230.61 490.577 229.928C491.853 229.994 493.283 229.972 493.723 229.972C494.141 229.972 494.273 229.84 494.273 229.444V213.296ZM479.731 221.48H495.571V224.098H479.731V221.48ZM486.133 214.726H488.773V222.778H486.133V214.726ZM498.827 234.592L504.327 212.856H506.461L500.983 234.592H498.827ZM512.967 212.944H523.967V215.518H512.967V212.944ZM512.989 218.202H524.077V220.71H512.989V218.202ZM512.879 223.416H523.923V225.968H512.879V223.416ZM511.163 212.944H513.869V220.226C513.869 224.054 513.275 229.444 509.557 232.568C509.161 232.018 508.083 231.028 507.511 230.676C510.855 227.838 511.163 223.592 511.163 220.226V212.944ZM522.735 212.944H525.529V229.224C525.529 230.786 525.155 231.578 524.143 232.018C523.087 232.48 521.525 232.524 519.237 232.524C519.083 231.732 518.577 230.456 518.137 229.752C519.699 229.84 521.525 229.818 522.053 229.818C522.559 229.796 522.735 229.642 522.735 229.18V212.944ZM530.857 224.508C530.857 221.1 532.281 218.54 534.009 216.828L535.529 217.516C533.913 219.228 532.665 221.452 532.665 224.508C532.665 227.58 533.913 229.804 535.529 231.516L534.009 232.204C532.281 230.492 530.857 227.932 530.857 224.508ZM543.305 217.724L544.905 217.036C545.497 217.868 546.121 218.972 546.361 219.74L544.665 220.508C544.473 219.756 543.881 218.588 543.305 217.724ZM549.177 216.988L551.145 217.644C550.585 218.636 549.977 219.66 549.481 220.348L547.849 219.74C548.329 218.988 548.889 217.852 549.177 216.988ZM544.649 225.356H546.537C546.329 228.284 545.753 230.684 542.729 232.06C542.521 231.58 541.993 230.892 541.593 230.54C544.137 229.484 544.489 227.612 544.649 225.356ZM547.385 225.132H549.241V229.564C549.241 230.044 549.273 230.108 549.465 230.108C549.561 230.108 549.897 230.108 549.993 230.108C550.233 230.108 550.297 229.852 550.329 228.188C550.681 228.476 551.465 228.796 551.961 228.924C551.801 231.196 551.337 231.82 550.201 231.82C549.929 231.82 549.401 231.82 549.129 231.82C547.689 231.82 547.385 231.26 547.385 229.58V225.132ZM545.161 221.884V224.06H549.129V221.884H545.161ZM543.337 220.204H551.049V225.724H543.337V220.204ZM539.193 218.492H541.065V232.012H539.193V218.492ZM536.889 221.5H542.761V223.292H536.889V221.5ZM539.305 222.22L540.425 222.716C539.817 225.004 538.681 227.852 537.449 229.436C537.273 228.876 536.857 228.076 536.553 227.596C537.673 226.316 538.793 223.996 539.305 222.22ZM541.689 217.164L542.969 218.652C541.337 219.276 539.113 219.708 537.241 219.948C537.161 219.532 536.921 218.892 536.697 218.492C538.473 218.188 540.457 217.724 541.689 217.164ZM541.017 223.724C541.417 224.06 542.809 225.5 543.113 225.868L542.025 227.372C541.641 226.604 540.681 225.148 540.185 224.476L541.017 223.724ZM558.713 217.676H562.089V219.484H558.713V217.676ZM561.129 217.676H563.145C563.385 222.236 564.345 226.092 567.689 227.788C567.241 228.092 566.537 228.796 566.185 229.244C562.777 227.212 561.721 223.18 561.433 218.524H561.129V217.676ZM561.065 221.004L563.049 221.292C562.345 224.892 560.921 227.612 558.553 229.26C558.265 228.892 557.513 228.14 557.081 227.82C559.321 226.476 560.553 224.092 561.065 221.004ZM556.681 223.244V229.132H554.809V225.02H552.937V223.244H556.681ZM556.681 228.3C557.321 229.356 558.537 229.82 560.201 229.884C562.073 229.964 565.705 229.916 567.865 229.74C567.657 230.188 567.337 231.116 567.257 231.692C565.321 231.788 562.089 231.82 560.169 231.74C558.201 231.66 556.873 231.196 555.833 229.948C555.129 230.572 554.409 231.18 553.545 231.884L552.601 229.884C553.321 229.436 554.185 228.876 554.921 228.3H556.681ZM552.969 218.524L554.393 217.372C555.353 218.044 556.521 219.052 557.081 219.804L555.545 221.068C555.065 220.316 553.913 219.244 552.969 218.524ZM573.625 224.508C573.625 227.932 572.201 230.492 570.473 232.204L568.953 231.516C570.569 229.804 571.817 227.58 571.817 224.508C571.817 221.452 570.569 219.228 568.953 217.516L570.473 216.828C572.201 218.54 573.625 221.1 573.625 224.508Z" fill="black"/>
<path d="M321.395 36.664C322.195 37.816 323.315 39.864 323.923 41.048L321.363 42.136C320.691 40.824 319.731 38.936 318.867 37.688L321.395 36.664ZM325.171 35.224C326.003 36.408 327.187 38.456 327.763 39.576L325.203 40.664C324.563 39.32 323.507 37.464 322.643 36.248L325.171 35.224ZM308.211 40.728C308.019 39.832 307.795 39.064 307.539 38.296L312.083 37.592C312.147 38.2 312.275 39.288 312.403 40.056C312.723 42.168 315.891 58.36 316.563 61.624C316.787 62.552 317.075 63.704 317.363 64.76L312.755 65.56C312.595 64.376 312.531 63.288 312.307 62.328C311.827 59.448 308.723 43.32 308.211 40.728ZM299.475 44.824C300.467 44.76 301.427 44.696 302.451 44.568C305.171 44.248 316.371 42.52 319.251 41.944C320.243 41.752 321.459 41.496 322.227 41.272L323.027 45.464C322.323 45.528 321.011 45.72 320.051 45.848C316.659 46.392 305.651 48.152 303.251 48.568C302.259 48.76 301.427 48.952 300.339 49.208L299.475 44.824ZM299.507 54.2C300.339 54.168 301.811 54.008 302.803 53.848C306.227 53.368 317.907 51.48 321.587 50.776C322.835 50.52 324.019 50.264 324.883 50.008L325.715 54.232C324.851 54.296 323.539 54.552 322.355 54.744C318.291 55.352 306.771 57.24 303.603 57.848C302.227 58.072 301.139 58.296 300.403 58.488L299.507 54.2ZM353.619 37.4C354.419 38.584 355.571 40.6 356.179 41.784L353.619 42.872C352.947 41.56 351.955 39.672 351.091 38.424L353.619 37.4ZM357.427 35.96C358.259 37.144 359.443 39.192 359.987 40.312L357.459 41.4C356.787 40.056 355.763 38.2 354.899 36.984L357.427 35.96ZM345.427 37.688C345.331 38.424 345.235 39.768 345.203 40.536C344.851 53.272 341.843 59.736 334.771 64.792L331.027 61.784C332.371 61.048 333.971 59.96 335.251 58.648C339.443 54.488 340.915 49.048 340.947 40.632C340.947 39.896 340.819 38.456 340.691 37.688H345.427ZM356.275 44.536C356.179 45.048 356.083 45.88 356.083 46.232C355.955 49.688 355.539 58.616 354.163 61.88C353.491 63.512 352.243 64.344 350.067 64.344C348.211 64.344 346.323 64.216 344.755 64.088L344.243 59.8C345.843 60.088 347.475 60.248 348.755 60.248C349.779 60.248 350.227 59.896 350.547 59.128C351.475 57.112 351.923 50.712 351.923 47.256H336.307C335.219 47.256 333.427 47.256 332.083 47.384V43.192C333.427 43.32 335.059 43.416 336.275 43.416H351.091C351.923 43.416 352.755 43.32 353.523 43.192L356.275 44.536ZM368.563 35.832L372.339 36.92C370.579 40.472 367.731 43.928 365.043 46.04C364.339 45.336 362.803 44.12 361.907 43.544C364.595 41.752 367.155 38.808 368.563 35.832ZM368.307 39.192H390.355V42.584H367.379L368.307 39.192ZM362.579 46.648H391.507V50.072H362.579V46.648ZM363.123 54.168H391.059V57.592H363.123V54.168ZM372.595 40.408H375.827V55.96H372.595V40.408ZM366.931 40.408H370.323V55.992H366.931V40.408ZM378.163 40.408H381.363V55.992H378.163V40.408ZM383.795 40.408H387.315V55.992H383.795V40.408ZM371.635 59.384L375.187 58.968C375.603 60.92 375.987 63.448 376.019 65.016L372.243 65.56C372.243 63.992 372.019 61.368 371.635 59.384ZM378.003 59.448L381.619 58.84C382.419 60.728 383.219 63.256 383.507 64.824L379.667 65.592C379.443 64.024 378.739 61.432 378.003 59.448ZM384.371 59.288L388.051 58.136C389.491 60.088 391.315 62.808 392.115 64.6L388.211 65.912C387.507 64.152 385.811 61.336 384.371 59.288ZM365.875 58.264L369.619 59.16C368.883 61.624 367.507 64.248 365.971 65.912L362.259 64.44C363.731 63.096 365.139 60.6 365.875 58.264ZM413.587 38.488H417.171V56.568H413.587V38.488ZM419.347 36.376H423.059V61.336C423.059 63.416 422.643 64.44 421.459 65.112C420.275 65.72 418.419 65.848 415.955 65.848C415.795 64.76 415.251 63.064 414.771 61.944C416.435 62.008 418.099 62.008 418.675 62.008C419.187 62.008 419.347 61.848 419.347 61.336V36.376ZM401.491 36.024H405.139V65.848H401.491V36.024ZM407.955 51.736H411.411V59.928C411.411 61.432 411.219 62.328 410.259 62.904C409.331 63.448 408.115 63.512 406.515 63.48C406.419 62.52 406.003 61.144 405.587 60.216C406.451 60.248 407.283 60.248 407.571 60.248C407.859 60.248 407.955 60.184 407.955 59.864V51.736ZM395.443 51.736H409.331V55.16H398.867V63.32H395.443V51.736ZM394.195 45.976H412.179V49.432H394.195V45.976ZM397.555 40.088H410.931V43.576H396.851L397.555 40.088ZM396.659 36.44L400.179 37.144C399.475 40.504 398.259 43.992 397.043 46.2C396.275 45.752 394.611 45.112 393.715 44.792C395.027 42.712 396.083 39.48 396.659 36.44ZM441.203 43.128H452.243V46.264H441.203V43.128ZM435.699 61.656C438.611 61.24 443.091 60.44 447.379 59.672L447.667 63C443.955 63.864 440.019 64.728 436.979 65.4L435.699 61.656ZM439.027 37.272H442.771V62.552H439.027V37.272ZM441.203 37.272H453.971V52.216H441.203V48.92H450.195V40.568H441.203V37.272ZM447.891 50.04C449.043 55.736 451.507 60.472 456.211 62.552C455.379 63.288 454.259 64.792 453.715 65.784C448.563 63.064 446.067 57.624 444.691 50.552L447.891 50.04ZM452.499 52.44L455.507 54.552C453.747 56.216 451.699 58.008 450.099 59.16L447.699 57.304C449.235 56.056 451.315 54.04 452.499 52.44ZM427.379 37.208H435.379V40.632H430.963V65.912H427.379V37.208ZM434.323 37.208H434.995L435.539 37.08L438.131 38.584C437.267 41.368 436.115 44.92 435.123 47.416C437.235 49.912 437.651 52.12 437.651 53.976C437.651 56.12 437.171 57.464 436.115 58.2C435.603 58.584 434.963 58.808 434.227 58.904C433.619 59 432.787 59 432.019 58.968C431.987 58.008 431.699 56.504 431.155 55.544C431.763 55.608 432.211 55.608 432.627 55.608C432.979 55.576 433.299 55.512 433.587 55.32C434.003 55.032 434.163 54.392 434.163 53.496C434.163 51.992 433.683 50.008 431.795 47.832C432.723 44.952 433.811 40.408 434.323 38.36V37.208ZM466.643 40.672C465.856 40.672 465.203 40.0192 465.203 39.232C465.203 38.4448 465.856 37.792 466.643 37.792C467.43 37.792 468.083 38.4448 468.083 39.232C468.083 40.0192 467.43 40.672 466.643 40.672ZM466.643 44.1472L472.979 37.8112L473.536 38.368L467.2 44.704L473.536 51.04L472.979 51.5968L466.643 45.2608L460.288 51.616L459.731 51.0592L466.086 44.704L459.75 38.368L460.307 37.8112L466.643 44.1472ZM462.611 44.704C462.611 45.4912 461.958 46.144 461.171 46.144C460.384 46.144 459.731 45.4912 459.731 44.704C459.731 43.9168 460.384 43.264 461.171 43.264C461.958 43.264 462.611 43.9168 462.611 44.704ZM470.675 44.704C470.675 43.9168 471.328 43.264 472.115 43.264C472.902 43.264 473.555 43.9168 473.555 44.704C473.555 45.4912 472.902 46.144 472.115 46.144C471.328 46.144 470.675 45.4912 470.675 44.704ZM466.643 48.736C467.43 48.736 468.083 49.3888 468.083 50.176C468.083 50.9632 467.43 51.616 466.643 51.616C465.856 51.616 465.203 50.9632 465.203 50.176C465.203 49.3888 465.856 48.736 466.643 48.736ZM478.413 52V49.9456H481.504V40.5376H478.931V38.9632C480.314 38.7136 481.274 38.368 482.138 37.8304H484.019V49.9456H486.726V52H478.413Z" fill="black"/>
<rect width="784" height="1" rx="0.5" transform="matrix(1 0 0 -1 0 96)" fill="#BDBDBD"/>
</svg>
