<svg width="86" height="86" viewBox="0 0 86 86" fill="none" xmlns="http://www.w3.org/2000/svg">
<circle cx="42.9947" cy="42.9947" r="42.9947" fill="#CC0033"/>
<path d="M16.4716 25.8654C16.9833 25.9406 17.7056 25.9858 18.2172 25.9858C19.2104 25.9858 22.0846 25.9858 22.9875 25.9858C23.5442 25.9858 24.1763 25.9406 24.733 25.8654V28.1979C24.1763 28.1678 23.5593 28.1377 22.9875 28.1377C22.0846 28.1377 19.2104 28.1377 18.2172 28.1377C17.6905 28.1377 16.9682 28.1678 16.4716 28.1979V25.8654ZM14.7561 29.7478C15.2226 29.808 15.8095 29.8532 16.276 29.8532C17.2541 29.8532 25.1845 29.8532 26.1325 29.8532C26.4485 29.8532 27.2009 29.8231 27.6223 29.7478V32.1104C27.216 32.0803 26.584 32.0652 26.1325 32.0652C25.1845 32.0652 17.2541 32.0652 16.276 32.0652C15.8396 32.0652 15.1775 32.0953 14.7561 32.1254V29.7478ZM22.8069 31.042C22.8069 33.0584 22.3855 34.5331 21.7686 35.7821C21.2569 36.8505 20.0832 38.0694 18.7138 38.7616L16.577 37.2267C17.5852 36.8505 18.6386 35.9928 19.2405 35.1501C19.9929 34.0365 20.2487 32.6371 20.2487 31.057L22.8069 31.042ZM25.6961 24.9324C26.0723 25.4892 26.599 26.4673 26.8699 26.994L25.4403 27.5959C25.1243 26.979 24.6879 26.0911 24.2816 25.5042L25.6961 24.9324ZM27.547 24.2101C27.9383 24.7819 28.48 25.745 28.7359 26.2567L27.3213 26.8586C27.0204 26.2416 26.5388 25.3538 26.1325 24.7819L27.547 24.2101ZM30.1203 30.1993C30.7222 30.2444 31.9862 30.3046 32.7236 30.3046C34.8755 30.3046 39.2394 30.3046 40.7142 30.3046C41.3913 30.3046 42.1287 30.2294 42.5651 30.1993V33.0735C42.1738 33.0584 41.3311 32.9832 40.7142 32.9832C39.2244 32.9832 34.8604 32.9832 32.7236 32.9832C31.8659 32.9832 30.7373 33.0283 30.1203 33.0735V30.1993ZM50.4353 30.2895C52.241 31.3279 55.2055 33.3594 56.5448 34.4278L54.7992 36.5044C53.5201 35.2855 50.5105 33.0434 48.8101 31.9599L50.4353 30.2895ZM57.6283 27.8367C57.4326 28.1678 57.2069 28.6192 57.0414 29.0707C56.5749 30.3798 55.672 32.2609 54.3177 33.9613C52.873 35.7671 50.9619 37.4826 48.0727 38.5961L45.9509 36.7602C49.2916 35.7219 50.9469 34.1419 52.1959 32.6973C53.1289 31.6138 54.0468 29.9886 54.3026 28.9503H49.4872L50.2998 26.8887H54.3026C54.7992 26.8887 55.4011 26.8134 55.7924 26.693L57.6283 27.8367ZM52.7075 25.4441C52.2862 26.046 51.8347 26.8285 51.6391 27.1746C50.5556 29.0857 48.494 31.4031 46.4776 32.8026L44.5063 31.2827C47.1698 29.6425 48.479 27.6862 49.2765 26.4222C49.5474 26.0008 49.9086 25.2183 50.0741 24.6315L52.7075 25.4441ZM63.5873 27.3853V27.7163H69.1551V27.3853H63.5873ZM63.5873 26.061V26.3921H69.1551V26.061H63.5873ZM61.4806 25.0077H71.3672V28.7697H61.4806V25.0077ZM63.2563 33.4497V33.7958H69.5464V33.4497H63.2563ZM63.2563 32.0803V32.4264H69.5464V32.0803H63.2563ZM61.2097 30.9818H71.6983V34.8943H61.2097V30.9818ZM65.378 31.3279H67.4998V37.7685H65.378V31.3279ZM59.5544 29.1308H73.3836V30.6507H59.5544V29.1308ZM60.9689 35.2103H71.9541V36.5646H60.9689V35.2103ZM59.5544 36.9258H73.3836V38.4908H59.5544V36.9258ZM9.51777 43.4674L12.5208 44.3494C11.3868 46.6594 9.47577 48.9064 7.71177 50.2714C7.14477 49.7044 5.92677 48.7384 5.21277 48.2764C6.97677 47.1844 8.63577 45.3364 9.51777 43.4674ZM9.66477 45.5674H24.1338V48.2344H9.01377L9.66477 45.5674ZM5.77977 50.4184H24.8898V53.1274H5.77977V50.4184ZM6.13677 55.2904H24.5748V57.9994H6.13677V55.2904ZM12.2898 46.5334H14.8098V56.7394H12.2898V46.5334ZM8.57277 46.5334H11.2608V56.7394H8.57277V46.5334ZM15.8598 46.5334H18.3798V56.7394H15.8598V46.5334ZM19.4718 46.5334H22.2648V56.7394H19.4718V46.5334ZM11.6178 59.0284L14.4528 58.6924C14.7258 59.9944 14.9778 61.6954 14.9988 62.7454L11.9958 63.1864C11.9958 62.1364 11.8488 60.3724 11.6178 59.0284ZM15.7338 59.1124L18.6108 58.6294C19.1148 59.8894 19.6188 61.5484 19.7868 62.6194L16.7208 63.2074C16.6158 62.1574 16.1748 60.4354 15.7338 59.1124ZM19.8498 59.0074L22.7898 58.1044C23.6928 59.4064 24.8478 61.1914 25.3728 62.3884L22.2228 63.4174C21.8028 62.2624 20.7318 60.3934 19.8498 59.0074ZM7.77477 58.1884L10.7568 58.9024C10.3158 60.5404 9.45477 62.2834 8.48877 63.4384L5.52777 62.2624C6.40977 61.3804 7.31277 59.7214 7.77477 58.1884ZM38.2878 45.1054H41.1228V57.1174H38.2878V45.1054ZM42.0888 43.9084H45.0078V59.9944C45.0078 61.5274 44.7348 62.3254 43.8948 62.8294C43.0338 63.3124 41.7738 63.4174 40.1148 63.4174C40.0098 62.5774 39.5898 61.2334 39.2118 60.3724C40.2198 60.4144 41.2698 60.4144 41.6268 60.4144C41.9628 60.4144 42.0888 60.3094 42.0888 59.9734V43.9084ZM30.4548 43.6354H33.3528V63.3964H30.4548V43.6354ZM34.5918 54.0094H37.3218V59.1754C37.3218 60.2884 37.1748 61.0024 36.5028 61.4434C35.8308 61.8634 35.0328 61.9054 34.0458 61.8844C33.9828 61.1284 33.6468 60.0364 33.3318 59.3224C33.7308 59.3434 34.1928 59.3434 34.3608 59.3434C34.5288 59.3434 34.5918 59.3014 34.5918 59.1124V54.0094ZM26.5908 54.0094H35.6628V56.7184H29.2998V61.7584H26.5908V54.0094ZM25.8558 50.1034H37.6788V52.8544H25.8558V50.1034ZM28.1448 46.1344H36.8598V48.8854H27.5988L28.1448 46.1344ZM27.2208 43.8034L30.0138 44.3704C29.5728 46.5754 28.7958 48.9064 28.0188 50.3764C27.4098 49.9984 26.1078 49.4944 25.3938 49.2424C26.2128 47.9194 26.8848 45.7774 27.2208 43.8034ZM56.3898 48.1924H63.2988V50.6494H56.3898V48.1924ZM52.5888 60.1204C54.4788 59.8684 57.3768 59.4064 60.1068 58.9444L60.3378 61.5904C58.0278 62.1364 55.5708 62.6614 53.5968 63.0814L52.5888 60.1204ZM54.6678 44.4124H57.6288V60.9604H54.6678V44.4124ZM56.3898 44.4124H64.6638V54.5134H56.3898V51.9094H61.6398V47.0164H56.3898V44.4124ZM60.9468 52.7704C61.6398 56.4244 63.0888 59.4274 66.1548 60.7714C65.5038 61.3594 64.6008 62.5564 64.1808 63.3544C60.7368 61.5064 59.2878 57.9154 58.4268 53.1694L60.9468 52.7704ZM63.3408 54.4714L65.7348 56.1094C64.5798 57.2224 63.3198 58.3774 62.3328 59.1124L60.4428 57.6844C61.3668 56.8654 62.6268 55.5214 63.3408 54.4714ZM47.0028 44.3704H52.1688V47.0794H49.8378V63.4384H47.0028V44.3704ZM51.3498 44.3704H51.8748L52.2948 44.2654L54.3738 45.4414C53.8488 47.3314 53.1768 49.7464 52.6098 51.3844C53.8068 52.9594 53.9958 54.3874 53.9958 55.5634C53.9958 57.0964 53.6808 57.9784 52.9458 58.5034C52.5888 58.7764 52.1478 58.9234 51.6648 59.0074C51.2868 59.0704 50.7828 59.0704 50.2788 59.0704C50.2578 58.2934 50.0478 57.1174 49.6278 56.3614C49.9428 56.3824 50.1528 56.3824 50.3628 56.3824C50.5728 56.3824 50.7618 56.3404 50.9298 56.2144C51.1398 56.0464 51.2448 55.7104 51.2448 55.1434C51.2448 54.2614 51.0138 53.0014 49.9848 51.6994C50.4888 49.8304 51.1188 46.5964 51.3498 45.3154V44.3704ZM70.3338 46.9884C69.8172 46.9884 69.3888 46.56 69.3888 46.0434C69.3888 45.5268 69.8172 45.0984 70.3338 45.0984C70.8504 45.0984 71.2788 45.5268 71.2788 46.0434C71.2788 46.56 70.8504 46.9884 70.3338 46.9884ZM70.3338 49.269L74.4918 45.111L74.8572 45.4764L70.6992 49.6344L74.8572 53.7924L74.4918 54.1578L70.3338 49.9998L66.1632 54.1704L65.7978 53.805L69.9684 49.6344L65.8104 45.4764L66.1758 45.111L70.3338 49.269ZM67.6878 49.6344C67.6878 50.151 67.2594 50.5794 66.7428 50.5794C66.2262 50.5794 65.7978 50.151 65.7978 49.6344C65.7978 49.1178 66.2262 48.6894 66.7428 48.6894C67.2594 48.6894 67.6878 49.1178 67.6878 49.6344ZM72.9798 49.6344C72.9798 49.1178 73.4082 48.6894 73.9248 48.6894C74.4414 48.6894 74.8698 49.1178 74.8698 49.6344C74.8698 50.151 74.4414 50.5794 73.9248 50.5794C73.4082 50.5794 72.9798 50.151 72.9798 49.6344ZM70.3338 52.2804C70.8504 52.2804 71.2788 52.7088 71.2788 53.2254C71.2788 53.742 70.8504 54.1704 70.3338 54.1704C69.8172 54.1704 69.3888 53.742 69.3888 53.2254C69.3888 52.7088 69.8172 52.2804 70.3338 52.2804ZM76.6716 54.4224V53.0742H78.7002V46.9002H77.0118V45.867C77.919 45.7032 78.549 45.4764 79.116 45.1236H80.3508V53.0742H82.1274V54.4224H76.6716Z" fill="white"/>
</svg>
