<svg width="110" height="110" viewBox="0 0 110 110" fill="none" xmlns="http://www.w3.org/2000/svg">
<circle cx="55" cy="55" r="55" fill="#CC0033"/>
<path d="M29.5053 35.4772C29.7479 35.5146 30.0186 35.5426 30.3173 35.5612C30.6253 35.5799 30.8959 35.5892 31.1293 35.5892C31.3159 35.5892 31.5586 35.5892 31.8573 35.5892C32.1653 35.5892 32.4966 35.5892 32.8513 35.5892C33.2059 35.5892 33.5559 35.5892 33.9013 35.5892C34.2559 35.5892 34.5779 35.5892 34.8673 35.5892C35.166 35.5892 35.3993 35.5892 35.5673 35.5892C35.8286 35.5892 36.0993 35.5799 36.3793 35.5612C36.6593 35.5426 36.93 35.5146 37.1913 35.4772V37.6472C36.93 37.6286 36.6593 37.6146 36.3793 37.6052C36.1086 37.5959 35.838 37.5912 35.5673 37.5912C35.3993 37.5912 35.166 37.5912 34.8673 37.5912C34.5779 37.5912 34.2559 37.5912 33.9013 37.5912C33.5559 37.5912 33.2059 37.5912 32.8513 37.5912C32.4966 37.5912 32.1653 37.5912 31.8573 37.5912C31.5586 37.5912 31.3159 37.5912 31.1293 37.5912C30.8866 37.5912 30.6113 37.5959 30.3033 37.6052C30.0046 37.6146 29.7386 37.6286 29.5053 37.6472V35.4772ZM27.9093 39.0892C28.1239 39.1172 28.3573 39.1406 28.6093 39.1592C28.8706 39.1779 29.1086 39.1872 29.3233 39.1872C29.4539 39.1872 29.7013 39.1872 30.0653 39.1872C30.4293 39.1872 30.8679 39.1872 31.3813 39.1872C31.8946 39.1872 32.4453 39.1872 33.0333 39.1872C33.6213 39.1872 34.2093 39.1872 34.7973 39.1872C35.3853 39.1872 35.9359 39.1872 36.4493 39.1872C36.9626 39.1872 37.4013 39.1872 37.7653 39.1872C38.1293 39.1872 38.3719 39.1872 38.4933 39.1872C38.6426 39.1872 38.8619 39.1826 39.1513 39.1732C39.4406 39.1546 39.6833 39.1266 39.8793 39.0892V41.2872C39.6926 41.2686 39.4686 41.2592 39.2073 41.2592C38.946 41.2499 38.708 41.2452 38.4933 41.2452C38.3719 41.2452 38.1293 41.2452 37.7653 41.2452C37.4013 41.2452 36.9626 41.2452 36.4493 41.2452C35.9359 41.2452 35.3853 41.2452 34.7973 41.2452C34.2093 41.2452 33.6213 41.2452 33.0333 41.2452C32.4453 41.2452 31.8946 41.2452 31.3813 41.2452C30.8679 41.2452 30.4293 41.2452 30.0653 41.2452C29.7013 41.2452 29.4539 41.2452 29.3233 41.2452C29.1179 41.2452 28.8799 41.2499 28.6093 41.2592C28.3386 41.2686 28.1053 41.2826 27.9093 41.3012V39.0892ZM35.3993 40.2932C35.3993 41.2266 35.3106 42.0526 35.1333 42.7712C34.9559 43.4806 34.7226 44.1246 34.4333 44.7032C34.2746 45.0299 34.0506 45.3659 33.7613 45.7112C33.4813 46.0566 33.1546 46.3832 32.7813 46.6912C32.4173 46.9992 32.0206 47.2606 31.5913 47.4752L29.6033 46.0472C30.0699 45.8699 30.5273 45.6039 30.9753 45.2492C31.4326 44.8852 31.8013 44.5072 32.0813 44.1152C32.4359 43.5926 32.6786 43.0139 32.8093 42.3792C32.9493 41.7352 33.0193 41.0446 33.0193 40.3072L35.3993 40.2932ZM38.0873 34.6092C38.2086 34.7772 38.3346 34.9826 38.4653 35.2252C38.6053 35.4586 38.736 35.6919 38.8573 35.9252C38.988 36.1586 39.0953 36.3592 39.1793 36.5272L37.8493 37.0872C37.7 36.7979 37.5273 36.4712 37.3313 36.1072C37.1446 35.7339 36.958 35.4119 36.7713 35.1412L38.0873 34.6092ZM39.8093 33.9372C39.9306 34.1146 40.0613 34.3246 40.2013 34.5672C40.3413 34.8006 40.4766 35.0339 40.6073 35.2672C40.738 35.4912 40.8406 35.6826 40.9153 35.8412L39.5993 36.4012C39.4593 36.1119 39.2866 35.7852 39.0813 35.4212C38.8759 35.0479 38.6799 34.7306 38.4933 34.4692L39.8093 33.9372ZM42.2033 39.5092C42.3899 39.5186 42.6279 39.5326 42.9173 39.5512C43.2159 39.5699 43.5193 39.5839 43.8273 39.5932C44.1353 39.6026 44.4013 39.6072 44.6253 39.6072C44.9146 39.6072 45.2366 39.6072 45.5913 39.6072C45.9553 39.6072 46.3379 39.6072 46.7393 39.6072C47.1406 39.6072 47.5466 39.6072 47.9573 39.6072C48.3773 39.6072 48.788 39.6072 49.1893 39.6072C49.5906 39.6072 49.9733 39.6072 50.3373 39.6072C50.7013 39.6072 51.028 39.6072 51.3173 39.6072C51.616 39.6072 51.8633 39.6072 52.0593 39.6072C52.3766 39.6072 52.6893 39.5932 52.9973 39.5652C53.3146 39.5372 53.576 39.5186 53.7813 39.5092V42.1832C53.604 42.1739 53.3426 42.1599 52.9973 42.1412C52.6613 42.1132 52.3486 42.0992 52.0593 42.0992C51.8633 42.0992 51.616 42.0992 51.3173 42.0992C51.0186 42.0992 50.6873 42.0992 50.3233 42.0992C49.9593 42.0992 49.5766 42.0992 49.1753 42.0992C48.7739 42.0992 48.3633 42.0992 47.9433 42.0992C47.5326 42.0992 47.1266 42.0992 46.7253 42.0992C46.3239 42.0992 45.9413 42.0992 45.5773 42.0992C45.2226 42.0992 44.9053 42.0992 44.6253 42.0992C44.2239 42.0992 43.7899 42.1086 43.3233 42.1272C42.8659 42.1459 42.4926 42.1646 42.2033 42.1832V39.5092ZM61.1033 39.5932C61.5233 39.8359 61.9946 40.1252 62.5173 40.4612C63.04 40.7972 63.5673 41.1472 64.0993 41.5112C64.6406 41.8752 65.1446 42.2252 65.6113 42.5612C66.0873 42.8972 66.4793 43.1912 66.7873 43.4432L65.1633 45.3752C64.8646 45.0952 64.4819 44.7686 64.0153 44.3952C63.558 44.0126 63.0586 43.6206 62.5173 43.2192C61.9853 42.8179 61.4626 42.4352 60.9493 42.0712C60.4359 41.7072 59.9833 41.3992 59.5913 41.1472L61.1033 39.5932ZM67.7953 37.3112C67.702 37.4606 67.604 37.6379 67.5013 37.8432C67.4079 38.0392 67.3239 38.2446 67.2493 38.4592C67.1093 38.8606 66.9179 39.3179 66.6753 39.8312C66.4419 40.3352 66.1619 40.8579 65.8353 41.3992C65.5086 41.9406 65.1353 42.4772 64.7153 43.0092C64.0433 43.8492 63.2406 44.6472 62.3073 45.4032C61.3833 46.1592 60.2493 46.7986 58.9053 47.3212L56.9313 45.6132C57.9673 45.2866 58.8446 44.9179 59.5633 44.5072C60.2819 44.0872 60.8933 43.6486 61.3973 43.1912C61.9106 42.7339 62.3586 42.2812 62.7413 41.8332C63.0306 41.4972 63.3106 41.1192 63.5813 40.6992C63.8519 40.2792 64.0853 39.8639 64.2813 39.4532C64.4866 39.0332 64.6266 38.6646 64.7013 38.3472H60.2213L60.9773 36.4292H64.7013C64.9346 36.4292 65.1773 36.4152 65.4293 36.3872C65.6906 36.3499 65.91 36.3032 66.0873 36.2472L67.7953 37.3112ZM63.2173 35.0852C63.0213 35.3652 62.8299 35.6639 62.6433 35.9812C62.4566 36.2986 62.3166 36.5366 62.2233 36.6952C61.8873 37.2832 61.4626 37.8992 60.9493 38.5432C60.4359 39.1872 59.8759 39.8032 59.2693 40.3912C58.6626 40.9792 58.0466 41.4926 57.4213 41.9312L55.5873 40.5172C56.4179 40.0039 57.1133 39.4766 57.6733 38.9352C58.2426 38.3846 58.7139 37.8572 59.0873 37.3532C59.4699 36.8399 59.7826 36.3872 60.0253 35.9952C60.1559 35.7992 60.2913 35.5426 60.4313 35.2252C60.5806 34.8986 60.6926 34.5999 60.7673 34.3292L63.2173 35.0852ZM73.3393 36.8912V37.1992H78.5193V36.8912H73.3393ZM73.3393 35.6592V35.9672H78.5193V35.6592H73.3393ZM71.3793 34.6792H80.5773V38.1792H71.3793V34.6792ZM73.0313 42.5332V42.8552H78.8833V42.5332H73.0313ZM73.0313 41.2592V41.5812H78.8833V41.2592H73.0313ZM71.1273 40.2372H80.8853V43.8772H71.1273V40.2372ZM75.0053 40.5592H76.9793V46.5512H75.0053V40.5592ZM69.5873 38.5152H82.4533V39.9292H69.5873V38.5152ZM70.9033 44.1712H81.1233V45.4312H70.9033V44.1712ZM69.5873 45.7672H82.4533V47.2232H69.5873V45.7672ZM17.7893 72.2292V68.7732H21.5813V59.0772H18.2933V56.4372C19.2533 56.2452 20.0693 56.0212 20.7413 55.7652C21.4293 55.5092 22.0853 55.1892 22.7093 54.8052H25.8533V68.7732H29.0693V72.2292H17.7893ZM32.4143 72.2292V68.7732H36.2063V59.0772H32.9183V56.4372C33.8783 56.2452 34.6943 56.0212 35.3663 55.7652C36.0543 55.5092 36.7103 55.1892 37.3343 54.8052H40.4783V68.7732H43.6943V72.2292H32.4143ZM52.4873 72.5652C51.2233 72.5652 50.1113 72.2212 49.1513 71.5332C48.2073 70.8292 47.4713 69.8052 46.9433 68.4612C46.4153 67.1012 46.1513 65.4292 46.1513 63.4452C46.1513 61.4612 46.4153 59.8052 46.9433 58.4772C47.4713 57.1492 48.2073 56.1492 49.1513 55.4772C50.1113 54.8052 51.2233 54.4692 52.4873 54.4692C53.7513 54.4692 54.8553 54.8052 55.7993 55.4772C56.7433 56.1492 57.4793 57.1492 58.0073 58.4772C58.5353 59.8052 58.7993 61.4612 58.7993 63.4452C58.7993 65.4292 58.5353 67.1012 58.0073 68.4612C57.4793 69.8052 56.7433 70.8292 55.7993 71.5332C54.8553 72.2212 53.7513 72.5652 52.4873 72.5652ZM52.4873 69.2532C52.9193 69.2532 53.3033 69.1012 53.6393 68.7972C53.9913 68.4772 54.2633 67.9012 54.4553 67.0692C54.6633 66.2212 54.7673 65.0132 54.7673 63.4452C54.7673 61.8772 54.6633 60.6852 54.4553 59.8692C54.2633 59.0532 53.9913 58.5012 53.6393 58.2132C53.3033 57.9252 52.9193 57.7812 52.4873 57.7812C52.0713 57.7812 51.6873 57.9252 51.3353 58.2132C50.9833 58.5012 50.7033 59.0532 50.4953 59.8692C50.2873 60.6852 50.1833 61.8772 50.1833 63.4452C50.1833 65.0132 50.2873 66.2212 50.4953 67.0692C50.7033 67.9012 50.9833 68.4772 51.3353 68.7972C51.6873 69.1012 52.0713 69.2532 52.4873 69.2532ZM69.8963 72.5652C68.2483 72.5652 66.7523 72.2212 65.4083 71.5332C64.0803 70.8452 63.0163 69.8212 62.2163 68.4612C61.4323 67.1012 61.0403 65.4132 61.0403 63.3972C61.0403 61.9092 61.2723 60.5892 61.7363 59.4372C62.2003 58.2692 62.8323 57.2852 63.6323 56.4852C64.4483 55.6852 65.3843 55.0772 66.4403 54.6612C67.4963 54.2452 68.6243 54.0372 69.8243 54.0372C71.1363 54.0372 72.2643 54.2772 73.2083 54.7572C74.1523 55.2212 74.9283 55.7572 75.5363 56.3652L73.2803 59.1012C72.8323 58.7012 72.3523 58.3732 71.8403 58.1172C71.3443 57.8452 70.7203 57.7092 69.9683 57.7092C69.0883 57.7092 68.3043 57.9332 67.6163 58.3812C66.9443 58.8132 66.4083 59.4452 66.0083 60.2772C65.6243 61.0932 65.4323 62.0852 65.4323 63.2532C65.4323 64.4372 65.6083 65.4532 65.9603 66.3012C66.3283 67.1332 66.8723 67.7732 67.5923 68.2212C68.3283 68.6532 69.2483 68.8692 70.3523 68.8692C70.6723 68.8692 70.9843 68.8292 71.2883 68.7492C71.5923 68.6692 71.8403 68.5572 72.0323 68.4132V65.5332H69.2003V62.0292H75.8483V70.3812C75.2243 70.9732 74.3843 71.4852 73.3283 71.9172C72.2883 72.3492 71.1443 72.5652 69.8963 72.5652ZM79.4578 72.2292V54.3492H85.6978C86.9298 54.3492 88.0498 54.4852 89.0578 54.7572C90.0658 55.0132 90.8658 55.4612 91.4578 56.1012C92.0498 56.7412 92.3458 57.6372 92.3458 58.7892C92.3458 59.3172 92.2498 59.8452 92.0578 60.3732C91.8658 60.8852 91.5938 61.3492 91.2418 61.7652C90.9058 62.1652 90.4978 62.4612 90.0178 62.6532V62.7492C90.9138 62.9892 91.6658 63.4532 92.2738 64.1412C92.8818 64.8292 93.1858 65.7652 93.1858 66.9492C93.1858 68.1652 92.8738 69.1652 92.2498 69.9492C91.6258 70.7172 90.7858 71.2932 89.7298 71.6772C88.6738 72.0452 87.4978 72.2292 86.2018 72.2292H79.4578ZM83.7538 61.4532H85.5298C86.4418 61.4532 87.1058 61.2692 87.5218 60.9012C87.9538 60.5332 88.1698 60.0452 88.1698 59.4372C88.1698 58.7972 87.9538 58.3412 87.5218 58.0692C87.0898 57.7812 86.4258 57.6372 85.5298 57.6372H83.7538V61.4532ZM83.7538 68.9412H85.8898C86.9298 68.9412 87.7058 68.7572 88.2178 68.3892C88.7458 68.0052 89.0098 67.4292 89.0098 66.6612C89.0098 65.9252 88.7458 65.3972 88.2178 65.0772C87.7058 64.7572 86.9298 64.5972 85.8898 64.5972H83.7538V68.9412Z" fill="white"/>
</svg>
