<svg width="110" height="110" viewBox="0 0 110 110" fill="none" xmlns="http://www.w3.org/2000/svg">
<circle cx="55" cy="55" r="55" fill="#CC0033"/>
<path d="M27.0017 33.9415C27.5457 34.0215 28.3137 34.0695 28.8577 34.0695C29.9137 34.0695 32.9697 34.0695 33.9297 34.0695C34.5217 34.0695 35.1937 34.0215 35.7857 33.9415V36.4215C35.1937 36.3895 34.5377 36.3575 33.9297 36.3575C32.9697 36.3575 29.9137 36.3575 28.8577 36.3575C28.2977 36.3575 27.5297 36.3895 27.0017 36.4215V33.9415ZM25.1777 38.0695C25.6737 38.1335 26.2977 38.1815 26.7937 38.1815C27.8337 38.1815 36.2657 38.1815 37.2737 38.1815C37.6097 38.1815 38.4097 38.1495 38.8577 38.0695V40.5815C38.4257 40.5495 37.7537 40.5335 37.2737 40.5335C36.2657 40.5335 27.8337 40.5335 26.7937 40.5335C26.3297 40.5335 25.6257 40.5655 25.1777 40.5975V38.0695ZM33.7377 39.4455C33.7377 41.5895 33.2897 43.1575 32.6337 44.4855C32.0897 45.6215 30.8417 46.9175 29.3857 47.6535L27.1137 46.0215C28.1857 45.6215 29.3057 44.7095 29.9457 43.8135C30.7457 42.6295 31.0177 41.1415 31.0177 39.4615L33.7377 39.4455ZM36.8097 32.9495C37.2097 33.5415 37.7697 34.5815 38.0577 35.1415L36.5377 35.7815C36.2017 35.1255 35.7377 34.1815 35.3057 33.5575L36.8097 32.9495ZM38.7777 32.1815C39.1937 32.7895 39.7697 33.8135 40.0417 34.3575L38.5377 34.9975C38.2177 34.3415 37.7057 33.3975 37.2737 32.7895L38.7777 32.1815ZM41.5137 38.5495C42.1537 38.5975 43.4977 38.6615 44.2817 38.6615C46.5697 38.6615 51.2097 38.6615 52.7777 38.6615C53.4977 38.6615 54.2817 38.5815 54.7457 38.5495V41.6055C54.3297 41.5895 53.4337 41.5095 52.7777 41.5095C51.1937 41.5095 46.5537 41.5095 44.2817 41.5095C43.3697 41.5095 42.1697 41.5575 41.5137 41.6055V38.5495ZM63.1137 38.6455C65.0337 39.7495 68.1857 41.9095 69.6097 43.0455L67.7537 45.2535C66.3937 43.9575 63.1937 41.5735 61.3857 40.4215L63.1137 38.6455ZM70.7617 36.0375C70.5537 36.3895 70.3137 36.8695 70.1377 37.3495C69.6417 38.7415 68.6817 40.7415 67.2417 42.5495C65.7057 44.4695 63.6737 46.2935 60.6017 47.4775L58.3457 45.5255C61.8977 44.4215 63.6577 42.7415 64.9857 41.2055C65.9777 40.0535 66.9537 38.3255 67.2257 37.2215H62.1057L62.9697 35.0295H67.2257C67.7537 35.0295 68.3937 34.9495 68.8097 34.8215L70.7617 36.0375ZM65.5297 33.4935C65.0817 34.1335 64.6017 34.9655 64.3937 35.3335C63.2417 37.3655 61.0497 39.8295 58.9057 41.3175L56.8097 39.7015C59.6417 37.9575 61.0337 35.8775 61.8817 34.5335C62.1697 34.0855 62.5537 33.2535 62.7297 32.6295L65.5297 33.4935ZM77.0977 35.5575V35.9095H83.0177V35.5575H77.0977ZM77.0977 34.1495V34.5015H83.0177V34.1495H77.0977ZM74.8577 33.0295H85.3697V37.0295H74.8577V33.0295ZM76.7457 42.0055V42.3735H83.4337V42.0055H76.7457ZM76.7457 40.5495V40.9175H83.4337V40.5495H76.7457ZM74.5697 39.3815H85.7217V43.5415H74.5697V39.3815ZM79.0017 39.7495H81.2577V46.5975H79.0017V39.7495ZM72.8097 37.4135H87.5137V39.0295H72.8097V37.4135ZM74.3137 43.8775H85.9937V45.3175H74.3137V43.8775ZM72.8097 45.7015H87.5137V47.3655H72.8097V45.7015ZM12.0931 53.9995L15.8111 55.0915C14.4071 57.9515 12.0411 60.7335 9.85709 62.4235C9.15509 61.7215 7.64709 60.5255 6.76308 59.9535C8.94709 58.6015 11.0011 56.3135 12.0931 53.9995ZM12.2751 56.5995H30.1891V59.9015H11.4691L12.2751 56.5995ZM7.46509 62.6055H31.1251V65.9595H7.46509V62.6055ZM7.90708 68.6375H30.7351V71.9915H7.90708V68.6375ZM15.5251 57.7955H18.6451V70.4315H15.5251V57.7955ZM10.9231 57.7955H14.2511V70.4315H10.9231V57.7955ZM19.9451 57.7955H23.0651V70.4315H19.9451V57.7955ZM24.4171 57.7955H27.8751V70.4315H24.4171V57.7955ZM14.6931 73.2655L18.2031 72.8495C18.5411 74.4615 18.8531 76.5675 18.8791 77.8675L15.1611 78.4135C15.1611 77.1135 14.9791 74.9295 14.6931 73.2655ZM19.7891 73.3695L23.3511 72.7715C23.9751 74.3315 24.5991 76.3855 24.8071 77.7115L21.0111 78.4395C20.8811 77.1395 20.3351 75.0075 19.7891 73.3695ZM24.8851 73.2395L28.5251 72.1215C29.6431 73.7335 31.0731 75.9435 31.7231 77.4255L27.8231 78.6995C27.3031 77.2695 25.9771 74.9555 24.8851 73.2395ZM9.93508 72.2255L13.6271 73.1095C13.0811 75.1375 12.0151 77.2955 10.8191 78.7255L7.15308 77.2695C8.24509 76.1775 9.36309 74.1235 9.93508 72.2255ZM48.4931 56.0275H52.0031V70.8995H48.4931V56.0275ZM53.1991 54.5455H56.8131V74.4615C56.8131 76.3595 56.4751 77.3475 55.4351 77.9715C54.3691 78.5695 52.8091 78.6995 50.7551 78.6995C50.6251 77.6595 50.1051 75.9955 49.6371 74.9295C50.8851 74.9815 52.1851 74.9815 52.6271 74.9815C53.0431 74.9815 53.1991 74.8515 53.1991 74.4355V54.5455ZM38.7951 54.2075H42.3831V78.6735H38.7951V54.2075ZM43.9171 67.0515H47.2971V73.4475C47.2971 74.8255 47.1151 75.7095 46.2831 76.2555C45.4511 76.7755 44.4631 76.8275 43.2411 76.8015C43.1631 75.8655 42.7471 74.5135 42.3571 73.6295C42.8511 73.6555 43.4231 73.6555 43.6311 73.6555C43.8391 73.6555 43.9171 73.6035 43.9171 73.3695V67.0515ZM34.0111 67.0515H45.2431V70.4055H37.3651V76.6455H34.0111V67.0515ZM33.1011 62.2155H47.7391V65.6215H33.1011V62.2155ZM35.9351 57.3015H46.7251V60.7075H35.2591L35.9351 57.3015ZM34.7911 54.4155L38.2491 55.1175C37.7031 57.8475 36.7411 60.7335 35.7791 62.5535C35.0251 62.0855 33.4131 61.4615 32.5291 61.1495C33.5431 59.5115 34.3751 56.8595 34.7911 54.4155ZM71.6851 59.8495H80.2391V62.8915H71.6851V59.8495ZM66.9791 74.6175C69.3191 74.3055 72.9071 73.7335 76.2871 73.1615L76.5731 76.4375C73.7131 77.1135 70.6711 77.7635 68.2271 78.2835L66.9791 74.6175ZM69.5531 55.1695H73.2191V75.6575H69.5531V55.1695ZM71.6851 55.1695H81.9291V67.6755H71.6851V64.4515H78.1851V58.3935H71.6851V55.1695ZM77.3271 65.5175C78.1851 70.0415 79.9791 73.7595 83.7751 75.4235C82.9691 76.1515 81.8511 77.6335 81.3311 78.6215C77.0671 76.3335 75.2731 71.8875 74.2071 66.0115L77.3271 65.5175ZM80.2911 67.6235L83.2551 69.6515C81.8251 71.0295 80.2651 72.4595 79.0431 73.3695L76.7031 71.6015C77.8471 70.5875 79.4071 68.9235 80.2911 67.6235ZM60.0631 55.1175H66.4591V58.4715H63.5731V78.7255H60.0631V55.1175ZM65.4451 55.1175H66.0951L66.6151 54.9875L69.1891 56.4435C68.5391 58.7835 67.7071 61.7735 67.0051 63.8015C68.4871 65.7515 68.7211 67.5195 68.7211 68.9755C68.7211 70.8735 68.3311 71.9655 67.4211 72.6155C66.9791 72.9535 66.4331 73.1355 65.8351 73.2395C65.3671 73.3175 64.7431 73.3175 64.1191 73.3175C64.0931 72.3555 63.8331 70.8995 63.3131 69.9635C63.7031 69.9895 63.9631 69.9895 64.2231 69.9895C64.4831 69.9895 64.7171 69.9375 64.9251 69.7815C65.1851 69.5735 65.3151 69.1575 65.3151 68.4555C65.3151 67.3635 65.0291 65.8035 63.7551 64.1915C64.3791 61.8775 65.1591 57.8735 65.4451 56.2875V55.1175ZM90.2491 58.0255C89.6095 58.0255 89.0791 57.4951 89.0791 56.8555C89.0791 56.2159 89.6095 55.6855 90.2491 55.6855C90.8887 55.6855 91.4191 56.2159 91.4191 56.8555C91.4191 57.4951 90.8887 58.0255 90.2491 58.0255ZM90.2491 60.8491L95.3971 55.7011L95.8495 56.1535L90.7015 61.3015L95.8495 66.4495L95.3971 66.9019L90.2491 61.7539L85.0855 66.9175L84.6331 66.4651L89.7967 61.3015L84.6487 56.1535L85.1011 55.7011L90.2491 60.8491ZM86.9731 61.3015C86.9731 61.9411 86.4427 62.4715 85.8031 62.4715C85.1635 62.4715 84.6331 61.9411 84.6331 61.3015C84.6331 60.6619 85.1635 60.1315 85.8031 60.1315C86.4427 60.1315 86.9731 60.6619 86.9731 61.3015ZM93.5251 61.3015C93.5251 60.6619 94.0555 60.1315 94.6951 60.1315C95.3347 60.1315 95.8651 60.6619 95.8651 61.3015C95.8651 61.9411 95.3347 62.4715 94.6951 62.4715C94.0555 62.4715 93.5251 61.9411 93.5251 61.3015ZM90.2491 64.5775C90.8887 64.5775 91.4191 65.1079 91.4191 65.7475C91.4191 66.3871 90.8887 66.9175 90.2491 66.9175C89.6095 66.9175 89.0791 66.3871 89.0791 65.7475C89.0791 65.1079 89.6095 64.5775 90.2491 64.5775ZM98.2519 67.2295V65.5603H100.763V57.9163H98.6731V56.6371C99.7963 56.4343 100.576 56.1535 101.278 55.7167H102.807V65.5603H105.007V67.2295H98.2519Z" fill="white"/>
</svg>
