<svg width="610" height="302" viewBox="0 0 610 302" fill="none" xmlns="http://www.w3.org/2000/svg">
<rect width="610" height="302" rx="10" fill="#EFEFEF"/>
<path d="M224.607 197.459H238.76C238.76 198.345 238.774 199.382 238.801 200.572C238.857 201.734 239.036 202.855 239.341 203.934C239.673 204.986 240.185 205.885 240.876 206.632C241.596 207.379 242.606 207.752 243.906 207.752C244.93 207.752 245.802 207.462 246.521 206.881C247.268 206.3 247.863 205.359 248.306 204.059C248.776 202.758 249.108 201.056 249.302 198.954C249.523 196.823 249.634 194.236 249.634 191.192L249.592 189.325C247.047 190.708 244.294 191.4 241.333 191.4C235.384 191.4 230.971 189.518 228.093 185.755C225.216 181.992 223.777 176.265 223.777 168.573C223.777 166.47 223.929 164.381 224.233 162.306C224.565 160.203 225.063 158.197 225.728 156.288C226.419 154.378 227.291 152.608 228.342 150.975C229.421 149.315 230.708 147.89 232.202 146.7C233.696 145.483 235.412 144.542 237.349 143.878C239.285 143.186 241.471 142.84 243.906 142.84C246.286 142.84 248.43 143.186 250.339 143.878C252.249 144.57 253.95 145.524 255.444 146.742C256.938 147.959 258.225 149.398 259.304 151.058C260.383 152.718 261.269 154.503 261.96 156.412C262.68 158.321 263.206 160.327 263.538 162.43C263.87 164.505 264.036 166.594 264.036 168.697V191.939C264.036 194.125 263.911 196.339 263.662 198.58C263.441 200.794 263.026 202.952 262.417 205.055C261.836 207.158 261.047 209.136 260.051 210.99C259.083 212.816 257.852 214.421 256.357 215.804C254.863 217.16 253.092 218.225 251.045 219C248.997 219.802 246.618 220.204 243.906 220.204C240.669 220.204 237.861 219.664 235.481 218.585C233.101 217.478 231.123 215.97 229.546 214.061C227.969 212.152 226.765 209.883 225.935 207.254C225.133 204.626 224.69 201.776 224.607 198.705V197.459ZM249.551 166.249C249.551 165.28 249.482 164.173 249.343 162.928C249.205 161.683 248.928 160.521 248.513 159.442C248.126 158.335 247.559 157.408 246.812 156.661C246.064 155.886 245.096 155.499 243.906 155.499C242.938 155.582 242.122 155.845 241.458 156.288C240.821 156.73 240.282 157.325 239.839 158.072C239.424 158.819 239.106 159.691 238.884 160.687C238.663 161.655 238.525 162.721 238.469 163.883L238.345 166.083V169.942C238.345 170.883 238.4 171.907 238.511 173.014C238.621 174.12 238.857 175.158 239.216 176.126C239.604 177.067 240.171 177.856 240.918 178.492C241.665 179.129 242.661 179.447 243.906 179.447C245.013 179.447 246.064 179.129 247.061 178.492C248.084 177.856 248.914 177.053 249.551 176.085V166.249ZM272.253 222.237C272.392 222.237 272.599 222.237 272.876 222.237C273.623 222.237 274.121 222.223 274.37 222.196C274.619 222.196 274.868 222.071 275.117 221.822C275.366 221.601 275.505 221.297 275.532 220.909C275.588 220.522 275.615 219.899 275.615 219.042H271.05V205.843H284.456C284.456 206.673 284.456 207.891 284.456 209.496C284.483 211.543 284.497 213.051 284.497 214.02C284.442 219.553 283.875 223.399 282.795 225.558C281.274 228.601 278.313 229.791 273.914 229.127L272.253 222.237ZM290.681 169.693C290.681 167.618 290.806 165.515 291.055 163.385C291.331 161.227 291.774 159.165 292.383 157.201C292.992 155.208 293.794 153.341 294.79 151.598C295.786 149.854 297.031 148.333 298.525 147.032C300.02 145.732 301.777 144.708 303.796 143.961C305.816 143.214 308.154 142.84 310.811 142.84C313.965 142.84 316.718 143.394 319.07 144.5C321.422 145.607 323.386 147.143 324.963 149.107C326.541 151.044 327.716 153.327 328.491 155.956C329.294 158.584 329.695 161.42 329.695 164.464V165.792H315.625C315.625 164.575 315.583 163.371 315.5 162.181C315.417 160.964 315.21 159.885 314.878 158.944C314.546 157.975 314.062 157.187 313.425 156.578C312.789 155.942 311.917 155.582 310.811 155.499C306.965 155.499 305.083 160.369 305.166 170.108L305.208 174.383C307.753 172.668 310.603 171.81 313.757 171.81C317.188 171.81 320.011 172.433 322.224 173.678C324.465 174.923 326.222 176.597 327.495 178.7C328.796 180.803 329.695 183.224 330.193 185.963C330.691 188.674 330.94 191.524 330.94 194.513C330.94 196.643 330.788 198.76 330.483 200.863C330.179 202.938 329.695 204.93 329.031 206.839C328.367 208.721 327.509 210.478 326.458 212.11C325.406 213.743 324.133 215.168 322.639 216.385C321.145 217.575 319.416 218.502 317.451 219.166C315.514 219.858 313.301 220.204 310.811 220.204C308.403 220.204 306.231 219.872 304.294 219.208C302.385 218.571 300.684 217.686 299.189 216.551C297.695 215.417 296.409 214.089 295.33 212.567C294.278 211.017 293.407 209.357 292.715 207.586C292.023 205.816 291.511 203.962 291.179 202.025C290.847 200.06 290.681 198.11 290.681 196.173V169.693ZM305.249 197.044C305.249 197.93 305.304 198.995 305.415 200.24C305.526 201.458 305.775 202.634 306.162 203.768C306.549 204.875 307.103 205.816 307.822 206.59C308.569 207.365 309.565 207.752 310.811 207.752C312.222 207.752 313.301 207.296 314.048 206.383C314.823 205.442 315.39 204.308 315.75 202.979C316.109 201.651 316.317 200.282 316.372 198.871C316.427 197.432 316.455 196.214 316.455 195.218V194.928C316.455 193.738 316.414 192.493 316.331 191.192C316.248 189.892 316.026 188.702 315.667 187.623C315.307 186.544 314.767 185.659 314.048 184.967C313.328 184.247 312.346 183.888 311.101 183.888C309.856 183.888 308.763 184.164 307.822 184.718C306.882 185.243 306.024 186.129 305.249 187.374V197.044ZM352.646 195.301C352.619 195.661 352.605 195.993 352.605 196.297C352.605 196.602 352.605 196.892 352.605 197.169C352.605 198.386 352.633 199.645 352.688 200.946C352.771 202.246 352.965 203.436 353.269 204.515C353.601 205.594 354.071 206.48 354.68 207.171C355.317 207.863 356.188 208.209 357.295 208.209C360.726 208.209 362.801 205.567 363.521 200.282C363.631 199.562 363.7 198.539 363.728 197.21C363.756 195.882 363.77 194.222 363.77 192.23C363.77 191.317 363.728 190.238 363.645 188.993C363.59 187.748 363.382 186.558 363.022 185.423C362.663 184.289 362.096 183.334 361.321 182.56C360.574 181.757 359.522 181.356 358.167 181.356C357.502 181.356 356.866 181.522 356.257 181.854C355.649 182.186 355.081 182.629 354.556 183.182C354.058 183.708 353.601 184.317 353.186 185.008C352.771 185.7 352.411 186.419 352.107 187.167H339.863V144.251H375.432V158.446H353.311L352.771 171.935C355.483 170.302 358.083 169.486 360.574 169.486C362.898 169.486 364.932 169.79 366.675 170.399C368.446 171.008 369.967 171.852 371.24 172.931C372.541 173.982 373.606 175.241 374.436 176.708C375.294 178.146 375.972 179.723 376.47 181.439C376.995 183.127 377.355 184.911 377.549 186.793C377.77 188.647 377.881 190.528 377.881 192.438C377.881 194.568 377.784 196.74 377.59 198.954C377.424 201.139 377.078 203.27 376.553 205.345C376.027 207.42 375.308 209.371 374.395 211.197C373.481 213.023 372.278 214.628 370.784 216.012C369.317 217.395 367.533 218.474 365.43 219.249C363.327 220.051 360.837 220.453 357.959 220.453C354.03 220.453 350.793 219.789 348.247 218.46C345.701 217.132 343.695 215.334 342.229 213.065C340.763 210.768 339.739 208.098 339.158 205.055C338.577 202.011 338.286 198.76 338.286 195.301H352.646ZM384.646 166.332C384.646 163.094 385.033 160.051 385.808 157.201C386.583 154.351 387.786 151.874 389.419 149.771C391.051 147.641 393.127 145.967 395.645 144.75C398.19 143.504 401.234 142.882 404.775 142.882C408.234 142.882 411.222 143.491 413.74 144.708C416.286 145.898 418.375 147.558 420.007 149.688C421.667 151.791 422.885 154.268 423.66 157.118C424.462 159.968 424.863 163.039 424.863 166.332V197.086C424.863 200.24 424.448 203.229 423.618 206.051C422.788 208.873 421.543 211.363 419.883 213.521C418.223 215.652 416.134 217.34 413.616 218.585C411.098 219.83 408.151 220.453 404.775 220.453C401.372 220.453 398.398 219.844 395.852 218.626C393.334 217.381 391.245 215.707 389.585 213.604C387.925 211.474 386.68 208.998 385.85 206.175C385.047 203.325 384.646 200.296 384.646 197.086V166.332ZM410.378 166.332C410.378 159.165 408.511 155.582 404.775 155.582C403.89 155.582 403.129 155.762 402.493 156.122C401.884 156.481 401.372 156.952 400.957 157.533C400.542 158.114 400.21 158.778 399.961 159.525C399.74 160.272 399.574 161.047 399.463 161.849C399.352 162.652 399.283 163.44 399.255 164.215C399.228 164.99 399.214 165.695 399.214 166.332V197.086C399.214 197.971 399.269 199.037 399.38 200.282C399.491 201.499 399.74 202.675 400.127 203.81C400.514 204.916 401.068 205.857 401.787 206.632C402.534 207.407 403.53 207.794 404.775 207.794C405.965 207.794 406.934 207.434 407.681 206.715C408.428 205.968 408.995 205.055 409.382 203.976C409.77 202.896 410.033 201.734 410.171 200.489C410.309 199.244 410.378 198.11 410.378 197.086V166.332Z" fill="black"/>
<path d="M434.661 192.42H458.211V195.99H438.291V218.7H434.661V192.42ZM456.471 192.42H460.131V214.47C460.131 216.42 459.711 217.44 458.451 218.04C457.221 218.61 455.421 218.7 452.721 218.7C452.571 217.68 451.941 216.03 451.431 215.1C453.171 215.19 455.121 215.16 455.721 215.16C456.291 215.16 456.471 214.98 456.471 214.44V192.42ZM436.641 203.58H458.241V207.15H436.641V203.58ZM445.371 194.37H448.971V205.35H445.371V194.37ZM462.681 221.46L470.181 191.82H473.091L465.621 221.46H462.681ZM481.963 191.94H496.963V195.45H481.963V191.94ZM481.993 199.11H497.113V202.53H481.993V199.11ZM481.843 206.22H496.903V209.7H481.843V206.22ZM479.503 191.94H483.193V201.87C483.193 207.09 482.383 214.44 477.313 218.7C476.773 217.95 475.303 216.6 474.523 216.12C479.083 212.25 479.503 206.46 479.503 201.87V191.94ZM495.283 191.94H499.093V214.14C499.093 216.27 498.583 217.35 497.203 217.95C495.763 218.58 493.633 218.64 490.513 218.64C490.303 217.56 489.613 215.82 489.013 214.86C491.143 214.98 493.633 214.95 494.353 214.95C495.043 214.92 495.283 214.71 495.283 214.08V191.94Z" fill="black"/>
<path d="M97.55 192.81H122.57V195.72H97.55V192.81ZM98.66 214.92H121.61V217.86H98.66V214.92ZM103.82 197.01H116.06V199.53H103.82V197.01ZM103.82 200.85H116.06V203.37H103.82V200.85ZM95.96 204.69H124.01V207.63H95.96V204.69ZM102.77 210.15H117.26V212.97H102.77V210.15ZM101.69 190.53H105.32V206.31H101.69V190.53ZM114.77 190.56H118.43V206.31H114.77V190.56ZM108.08 208.26H111.77V216.63H108.08V208.26ZM103.55 205.53L106.55 206.64C104.63 209.82 101.39 212.64 97.97 214.17C97.46 213.33 96.44 212.07 95.69 211.41C98.81 210.27 101.96 207.96 103.55 205.53ZM116.57 205.53C118.16 207.84 121.25 210 124.34 211.11C123.56 211.77 122.51 213.06 121.97 213.9C118.73 212.46 115.61 209.61 113.72 206.61L116.57 205.53ZM126.74 196.35H153.29V200.01H126.74V196.35ZM132.92 209.97H146.84V213.63H132.92V209.97ZM138.05 190.53H141.89V218.7H138.05V190.53ZM136.97 197.67L140.27 198.72C137.69 205.26 133.43 210.99 128.18 214.29C127.58 213.39 126.38 212.01 125.57 211.29C130.49 208.59 134.84 203.19 136.97 197.67ZM142.97 197.76C145.16 203.1 149.54 208.32 154.58 210.93C153.68 211.68 152.39 213.18 151.79 214.2C146.51 210.96 142.31 205.23 139.7 198.84L142.97 197.76ZM160.67 190.68H164V218.64H160.67V190.68ZM156.14 200.52H168.44V203.88H156.14V200.52ZM160.04 202.32L162.02 203.28C161.06 207.3 159.2 212.52 157.22 215.4C156.89 214.29 156.11 212.7 155.57 211.68C157.37 209.46 159.2 205.29 160.04 202.32ZM163.94 204.06C164.81 204.84 167.72 208.32 168.38 209.16L166.16 211.98C165.38 210.27 163.37 206.94 162.29 205.47L163.94 204.06ZM156.08 192.99L158.6 192.33C159.38 194.52 159.98 197.37 160.13 199.26L157.43 199.98C157.37 198.09 156.8 195.18 156.08 192.99ZM165.98 192.18L169.01 192.84C168.23 195.27 167.33 198.12 166.58 199.89L164.33 199.26C164.93 197.34 165.65 194.31 165.98 192.18ZM177.32 190.5H180.71V218.67H177.32V190.5ZM168.35 209.28L183.77 206.52L184.31 209.85L168.92 212.64L168.35 209.28ZM170.06 194.61L171.83 192.15C173.51 193.17 175.64 194.67 176.63 195.78L174.74 198.51C173.84 197.34 171.74 195.69 170.06 194.61ZM168.71 202.17L170.39 199.59C172.13 200.52 174.38 201.96 175.46 203.07L173.66 205.92C172.64 204.81 170.45 203.19 168.71 202.17ZM199.88 193.95C197.39 197.46 192.8 201.39 187.88 204C187.43 203.16 186.41 201.84 185.63 201.09C190.79 198.57 195.62 194.07 197.84 190.44H201.59C204.83 195 209.66 198.78 214.43 200.73C213.56 201.63 212.72 202.86 212.06 203.97C207.47 201.54 202.46 197.49 199.88 193.95ZM192.35 199.53H207.47V202.68H192.35V199.53ZM188.78 205.65H211.01V208.74H188.78V205.65ZM187.25 214.77H212.75V217.86H187.25V214.77ZM197.9 200.79H201.74V216.3H197.9V200.79ZM190.64 209.88L193.55 208.68C194.69 210.21 195.89 212.28 196.34 213.69L193.22 215.04C192.83 213.66 191.72 211.47 190.64 209.88ZM205.91 208.71L209.33 210C208.1 211.83 206.78 213.78 205.73 215.04L203.03 213.93C203.99 212.52 205.25 210.33 205.91 208.71Z" fill="black"/>
<path d="M283.775 244.475H280.22V239.299C280.715 239.012 281.196 238.771 281.665 238.576C282.147 238.368 282.603 238.14 283.032 237.893C283.462 237.632 283.866 237.313 284.243 236.936C284.634 236.558 284.986 236.05 285.298 235.412H290.493V270.588H283.775V244.475ZM294.321 245.803C294.321 244.279 294.504 242.847 294.868 241.506C295.233 240.165 295.799 238.999 296.568 238.01C297.336 237.007 298.312 236.219 299.497 235.646C300.695 235.061 302.127 234.768 303.794 234.768C305.422 234.768 306.828 235.054 308.013 235.627C309.211 236.187 310.194 236.968 310.962 237.971C311.743 238.96 312.316 240.126 312.681 241.467C313.058 242.808 313.247 244.253 313.247 245.803V260.275C313.247 261.76 313.052 263.166 312.661 264.494C312.271 265.822 311.685 266.994 310.903 268.01C310.122 269.012 309.139 269.807 307.954 270.393C306.769 270.979 305.383 271.271 303.794 271.271C302.193 271.271 300.793 270.985 299.595 270.412C298.41 269.826 297.427 269.038 296.646 268.049C295.864 267.046 295.278 265.881 294.888 264.553C294.51 263.212 294.321 261.786 294.321 260.275V245.803ZM306.431 245.803C306.431 242.43 305.552 240.744 303.794 240.744C303.377 240.744 303.019 240.829 302.72 240.998C302.433 241.167 302.193 241.389 301.997 241.662C301.802 241.936 301.646 242.248 301.528 242.6C301.424 242.951 301.346 243.316 301.294 243.693C301.242 244.071 301.209 244.442 301.196 244.807C301.183 245.171 301.177 245.503 301.177 245.803V260.275C301.177 260.692 301.203 261.193 301.255 261.779C301.307 262.352 301.424 262.906 301.607 263.439C301.789 263.96 302.049 264.403 302.388 264.768C302.739 265.132 303.208 265.314 303.794 265.314C304.354 265.314 304.81 265.145 305.161 264.807C305.513 264.455 305.78 264.025 305.962 263.518C306.144 263.01 306.268 262.463 306.333 261.877C306.398 261.291 306.431 260.757 306.431 260.275V245.803ZM317.212 272.111C317.277 272.111 317.375 272.111 317.505 272.111C317.857 272.111 318.091 272.105 318.208 272.092C318.325 272.092 318.443 272.033 318.56 271.916C318.677 271.812 318.742 271.669 318.755 271.486C318.781 271.304 318.794 271.011 318.794 270.607H316.646V264.396H322.954C322.954 264.787 322.954 265.36 322.954 266.115C322.967 267.079 322.974 267.788 322.974 268.244C322.948 270.848 322.681 272.658 322.173 273.674C321.457 275.106 320.064 275.666 317.993 275.354L317.212 272.111ZM325.884 247.385C325.884 246.408 325.943 245.419 326.06 244.416C326.19 243.4 326.398 242.43 326.685 241.506C326.971 240.568 327.349 239.689 327.818 238.869C328.286 238.049 328.872 237.333 329.575 236.721C330.278 236.109 331.105 235.627 332.056 235.275C333.006 234.924 334.107 234.748 335.357 234.748C336.841 234.748 338.137 235.008 339.243 235.529C340.35 236.05 341.275 236.773 342.017 237.697C342.759 238.609 343.312 239.683 343.677 240.92C344.055 242.157 344.243 243.492 344.243 244.924V245.549H337.622C337.622 244.976 337.603 244.41 337.564 243.85C337.525 243.277 337.427 242.769 337.271 242.326C337.114 241.87 336.887 241.499 336.587 241.213C336.288 240.913 335.877 240.744 335.357 240.705C333.547 240.705 332.661 242.997 332.7 247.58L332.72 249.592C333.918 248.785 335.259 248.381 336.743 248.381C338.358 248.381 339.686 248.674 340.728 249.26C341.782 249.846 342.609 250.633 343.208 251.623C343.82 252.613 344.243 253.752 344.478 255.041C344.712 256.317 344.829 257.658 344.829 259.064C344.829 260.067 344.758 261.063 344.614 262.053C344.471 263.029 344.243 263.967 343.931 264.865C343.618 265.751 343.215 266.577 342.72 267.346C342.225 268.114 341.626 268.785 340.923 269.357C340.22 269.917 339.406 270.354 338.482 270.666C337.57 270.992 336.528 271.154 335.357 271.154C334.224 271.154 333.202 270.998 332.29 270.686C331.392 270.386 330.591 269.969 329.888 269.436C329.185 268.902 328.579 268.277 328.071 267.561C327.577 266.831 327.166 266.05 326.841 265.217C326.515 264.383 326.275 263.511 326.118 262.6C325.962 261.675 325.884 260.757 325.884 259.846V247.385ZM332.739 260.256C332.739 260.673 332.765 261.174 332.818 261.76C332.87 262.333 332.987 262.886 333.169 263.42C333.351 263.941 333.612 264.383 333.95 264.748C334.302 265.113 334.771 265.295 335.357 265.295C336.021 265.295 336.528 265.08 336.88 264.65C337.245 264.208 337.512 263.674 337.681 263.049C337.85 262.424 337.948 261.779 337.974 261.115C338 260.438 338.013 259.865 338.013 259.396V259.26C338.013 258.7 337.993 258.114 337.954 257.502C337.915 256.89 337.811 256.33 337.642 255.822C337.472 255.314 337.219 254.898 336.88 254.572C336.541 254.234 336.079 254.064 335.493 254.064C334.907 254.064 334.393 254.195 333.95 254.455C333.508 254.702 333.104 255.119 332.739 255.705V260.256ZM350.415 244.475H346.861V239.299C347.355 239.012 347.837 238.771 348.306 238.576C348.788 238.368 349.243 238.14 349.673 237.893C350.103 237.632 350.506 237.313 350.884 236.936C351.275 236.558 351.626 236.05 351.939 235.412H357.134V270.588H350.415V244.475ZM368.247 259.436C368.234 259.605 368.228 259.761 368.228 259.904C368.228 260.048 368.228 260.184 368.228 260.314C368.228 260.887 368.241 261.48 368.267 262.092C368.306 262.704 368.397 263.264 368.54 263.771C368.696 264.279 368.918 264.696 369.204 265.021C369.504 265.347 369.914 265.51 370.435 265.51C372.049 265.51 373.026 264.266 373.364 261.779C373.416 261.441 373.449 260.959 373.462 260.334C373.475 259.709 373.482 258.928 373.482 257.99C373.482 257.561 373.462 257.053 373.423 256.467C373.397 255.881 373.299 255.321 373.13 254.787C372.961 254.253 372.694 253.804 372.329 253.439C371.978 253.062 371.483 252.873 370.845 252.873C370.532 252.873 370.233 252.951 369.946 253.107C369.66 253.264 369.393 253.472 369.146 253.732C368.911 253.98 368.696 254.266 368.501 254.592C368.306 254.917 368.137 255.256 367.993 255.607H362.232V235.412H378.97V242.092H368.56L368.306 248.439C369.582 247.671 370.806 247.287 371.978 247.287C373.071 247.287 374.028 247.43 374.849 247.717C375.682 248.003 376.398 248.4 376.997 248.908C377.609 249.403 378.111 249.995 378.501 250.686C378.905 251.363 379.224 252.105 379.458 252.912C379.706 253.706 379.875 254.546 379.966 255.432C380.07 256.304 380.122 257.189 380.122 258.088C380.122 259.09 380.077 260.113 379.986 261.154C379.907 262.183 379.745 263.186 379.497 264.162C379.25 265.139 378.911 266.057 378.482 266.916C378.052 267.775 377.486 268.531 376.782 269.182C376.092 269.833 375.252 270.34 374.263 270.705C373.273 271.083 372.101 271.271 370.747 271.271C368.898 271.271 367.375 270.959 366.177 270.334C364.979 269.709 364.035 268.863 363.345 267.795C362.655 266.714 362.173 265.458 361.9 264.025C361.626 262.593 361.489 261.063 361.489 259.436H368.247ZM387.464 251.724H406.304V254.58H390.368V272.748H387.464V251.724ZM404.912 251.724H407.84V269.364C407.84 270.924 407.504 271.74 406.496 272.22C405.512 272.676 404.072 272.748 401.912 272.748C401.792 271.932 401.288 270.612 400.88 269.868C402.272 269.94 403.832 269.916 404.312 269.916C404.768 269.916 404.912 269.772 404.912 269.34V251.724ZM389.048 260.652H406.328V263.508H389.048V260.652ZM396.032 253.284H398.912V262.068H396.032V253.284ZM409.88 274.956L415.88 251.244H418.208L412.232 274.956H409.88ZM425.305 251.34H437.305V254.148H425.305V251.34ZM425.329 257.076H437.425V259.812H425.329V257.076ZM425.209 262.764H437.257V265.548H425.209V262.764ZM423.337 251.34H426.289V259.284C426.289 263.46 425.641 269.34 421.585 272.748C421.153 272.148 419.977 271.068 419.353 270.684C423.001 267.588 423.337 262.956 423.337 259.284V251.34ZM435.961 251.34H439.009V269.1C439.009 270.804 438.601 271.668 437.497 272.148C436.345 272.652 434.641 272.7 432.145 272.7C431.977 271.836 431.425 270.444 430.945 269.676C432.649 269.772 434.641 269.748 435.217 269.748C435.769 269.724 435.961 269.556 435.961 269.052V251.34ZM446.509 262.988C446.509 258.728 448.289 255.528 450.449 253.388L452.349 254.248C450.329 256.388 448.769 259.168 448.769 262.988C448.769 266.828 450.329 269.608 452.349 271.748L450.449 272.608C448.289 270.468 446.509 267.268 446.509 262.988ZM462.069 254.508L464.069 253.648C464.809 254.688 465.589 256.068 465.889 257.028L463.769 257.988C463.529 257.048 462.789 255.588 462.069 254.508ZM469.409 253.588L471.869 254.408C471.169 255.648 470.409 256.928 469.789 257.788L467.749 257.028C468.349 256.088 469.049 254.668 469.409 253.588ZM463.749 264.048H466.109C465.849 267.708 465.129 270.708 461.349 272.428C461.089 271.828 460.429 270.968 459.929 270.528C463.109 269.208 463.549 266.868 463.749 264.048ZM467.169 263.768H469.489V269.308C469.489 269.908 469.529 269.988 469.769 269.988C469.889 269.988 470.309 269.988 470.429 269.988C470.729 269.988 470.809 269.668 470.849 267.588C471.289 267.948 472.269 268.348 472.889 268.508C472.689 271.348 472.109 272.128 470.689 272.128C470.349 272.128 469.689 272.128 469.349 272.128C467.549 272.128 467.169 271.428 467.169 269.328V263.768ZM464.389 259.708V262.428H469.349V259.708H464.389ZM462.109 257.608H471.749V264.508H462.109V257.608ZM456.929 255.468H459.269V272.368H456.929V255.468ZM454.049 259.228H461.389V261.468H454.049V259.228ZM457.069 260.128L458.469 260.748C457.709 263.608 456.289 267.168 454.749 269.148C454.529 268.448 454.009 267.448 453.629 266.848C455.029 265.248 456.429 262.348 457.069 260.128ZM460.049 253.808L461.649 255.668C459.609 256.448 456.829 256.988 454.489 257.288C454.389 256.768 454.089 255.968 453.809 255.468C456.029 255.088 458.509 254.508 460.049 253.808ZM459.209 262.008C459.709 262.428 461.449 264.228 461.829 264.688L460.469 266.568C459.989 265.608 458.789 263.788 458.169 262.948L459.209 262.008ZM481.329 254.448H485.549V256.708H481.329V254.448ZM484.349 254.448H486.869C487.169 260.148 488.369 264.968 492.549 267.088C491.989 267.468 491.109 268.348 490.669 268.908C486.409 266.368 485.089 261.328 484.729 255.508H484.349V254.448ZM484.269 258.608L486.749 258.968C485.869 263.468 484.089 266.868 481.129 268.928C480.769 268.468 479.829 267.528 479.289 267.128C482.089 265.448 483.629 262.468 484.269 258.608ZM478.789 261.408V268.768H476.449V263.628H474.109V261.408H478.789ZM478.789 267.728C479.589 269.048 481.109 269.628 483.189 269.708C485.529 269.808 490.069 269.748 492.769 269.528C492.509 270.088 492.109 271.248 492.009 271.968C489.589 272.088 485.549 272.128 483.149 272.028C480.689 271.928 479.029 271.348 477.729 269.788C476.849 270.568 475.949 271.328 474.869 272.208L473.689 269.708C474.589 269.148 475.669 268.448 476.589 267.728H478.789ZM474.149 255.508L475.929 254.068C477.129 254.908 478.589 256.168 479.289 257.108L477.369 258.688C476.769 257.748 475.329 256.408 474.149 255.508ZM499.969 262.988C499.969 267.268 498.189 270.468 496.029 272.608L494.129 271.748C496.149 269.608 497.709 266.828 497.709 262.988C497.709 259.168 496.149 256.388 494.129 254.248L496.029 253.388C498.189 255.528 499.969 258.728 499.969 262.988Z" fill="black"/>
<path d="M233.489 42.664C234.289 43.816 235.409 45.864 236.017 47.048L233.457 48.136C232.785 46.824 231.825 44.936 230.961 43.688L233.489 42.664ZM237.265 41.224C238.097 42.408 239.281 44.456 239.857 45.576L237.297 46.664C236.657 45.32 235.601 43.464 234.737 42.248L237.265 41.224ZM220.305 46.728C220.113 45.832 219.889 45.064 219.633 44.296L224.177 43.592C224.241 44.2 224.369 45.288 224.497 46.056C224.817 48.168 227.985 64.36 228.657 67.624C228.881 68.552 229.169 69.704 229.457 70.76L224.849 71.56C224.689 70.376 224.625 69.288 224.401 68.328C223.921 65.448 220.817 49.32 220.305 46.728ZM211.569 50.824C212.561 50.76 213.521 50.696 214.545 50.568C217.265 50.248 228.465 48.52 231.345 47.944C232.337 47.752 233.553 47.496 234.321 47.272L235.121 51.464C234.417 51.528 233.105 51.72 232.145 51.848C228.753 52.392 217.745 54.152 215.345 54.568C214.353 54.76 213.521 54.952 212.433 55.208L211.569 50.824ZM211.601 60.2C212.433 60.168 213.905 60.008 214.897 59.848C218.321 59.368 230.001 57.48 233.681 56.776C234.929 56.52 236.113 56.264 236.977 56.008L237.809 60.232C236.945 60.296 235.633 60.552 234.449 60.744C230.385 61.352 218.865 63.24 215.697 63.848C214.321 64.072 213.233 64.296 212.497 64.488L211.601 60.2ZM265.713 43.4C266.513 44.584 267.665 46.6 268.273 47.784L265.713 48.872C265.041 47.56 264.049 45.672 263.185 44.424L265.713 43.4ZM269.521 41.96C270.353 43.144 271.537 45.192 272.081 46.312L269.553 47.4C268.881 46.056 267.857 44.2 266.993 42.984L269.521 41.96ZM257.521 43.688C257.425 44.424 257.329 45.768 257.297 46.536C256.945 59.272 253.937 65.736 246.865 70.792L243.121 67.784C244.465 67.048 246.065 65.96 247.345 64.648C251.537 60.488 253.009 55.048 253.041 46.632C253.041 45.896 252.913 44.456 252.785 43.688H257.521ZM268.369 50.536C268.273 51.048 268.177 51.88 268.177 52.232C268.049 55.688 267.633 64.616 266.257 67.88C265.585 69.512 264.337 70.344 262.161 70.344C260.305 70.344 258.417 70.216 256.849 70.088L256.337 65.8C257.937 66.088 259.569 66.248 260.849 66.248C261.873 66.248 262.321 65.896 262.641 65.128C263.569 63.112 264.017 56.712 264.017 53.256H248.401C247.313 53.256 245.521 53.256 244.177 53.384V49.192C245.521 49.32 247.153 49.416 248.369 49.416H263.185C264.017 49.416 264.849 49.32 265.617 49.192L268.369 50.536ZM280.657 41.832L284.433 42.92C282.673 46.472 279.825 49.928 277.137 52.04C276.433 51.336 274.897 50.12 274.001 49.544C276.689 47.752 279.249 44.808 280.657 41.832ZM280.401 45.192H302.449V48.584H279.473L280.401 45.192ZM274.673 52.648H303.601V56.072H274.673V52.648ZM275.217 60.168H303.153V63.592H275.217V60.168ZM284.689 46.408H287.921V61.96H284.689V46.408ZM279.025 46.408H282.417V61.992H279.025V46.408ZM290.257 46.408H293.457V61.992H290.257V46.408ZM295.889 46.408H299.409V61.992H295.889V46.408ZM283.729 65.384L287.281 64.968C287.697 66.92 288.081 69.448 288.113 71.016L284.337 71.56C284.337 69.992 284.113 67.368 283.729 65.384ZM290.097 65.448L293.713 64.84C294.513 66.728 295.313 69.256 295.601 70.824L291.761 71.592C291.537 70.024 290.833 67.432 290.097 65.448ZM296.465 65.288L300.145 64.136C301.585 66.088 303.409 68.808 304.209 70.6L300.305 71.912C299.601 70.152 297.905 67.336 296.465 65.288ZM277.969 64.264L281.713 65.16C280.977 67.624 279.601 70.248 278.065 71.912L274.353 70.44C275.825 69.096 277.233 66.6 277.969 64.264ZM325.681 44.488H329.265V62.568H325.681V44.488ZM331.441 42.376H335.153V67.336C335.153 69.416 334.737 70.44 333.553 71.112C332.369 71.72 330.513 71.848 328.049 71.848C327.889 70.76 327.345 69.064 326.865 67.944C328.529 68.008 330.193 68.008 330.769 68.008C331.281 68.008 331.441 67.848 331.441 67.336V42.376ZM313.585 42.024H317.233V71.848H313.585V42.024ZM320.049 57.736H323.505V65.928C323.505 67.432 323.313 68.328 322.353 68.904C321.425 69.448 320.209 69.512 318.609 69.48C318.513 68.52 318.097 67.144 317.681 66.216C318.545 66.248 319.377 66.248 319.665 66.248C319.953 66.248 320.049 66.184 320.049 65.864V57.736ZM307.537 57.736H321.425V61.16H310.961V69.32H307.537V57.736ZM306.289 51.976H324.273V55.432H306.289V51.976ZM309.649 46.088H323.025V49.576H308.945L309.649 46.088ZM308.753 42.44L312.273 43.144C311.569 46.504 310.353 49.992 309.137 52.2C308.369 51.752 306.705 51.112 305.809 50.792C307.121 48.712 308.177 45.48 308.753 42.44ZM353.297 49.128H364.337V52.264H353.297V49.128ZM347.793 67.656C350.705 67.24 355.185 66.44 359.473 65.672L359.761 69C356.049 69.864 352.113 70.728 349.073 71.4L347.793 67.656ZM351.121 43.272H354.865V68.552H351.121V43.272ZM353.297 43.272H366.065V58.216H353.297V54.92H362.289V46.568H353.297V43.272ZM359.985 56.04C361.137 61.736 363.601 66.472 368.305 68.552C367.473 69.288 366.353 70.792 365.809 71.784C360.657 69.064 358.161 63.624 356.785 56.552L359.985 56.04ZM364.593 58.44L367.601 60.552C365.841 62.216 363.793 64.008 362.193 65.16L359.793 63.304C361.329 62.056 363.409 60.04 364.593 58.44ZM339.473 43.208H347.473V46.632H343.057V71.912H339.473V43.208ZM346.417 43.208H347.089L347.633 43.08L350.225 44.584C349.361 47.368 348.209 50.92 347.217 53.416C349.329 55.912 349.745 58.12 349.745 59.976C349.745 62.12 349.265 63.464 348.209 64.2C347.697 64.584 347.057 64.808 346.321 64.904C345.713 65 344.881 65 344.113 64.968C344.081 64.008 343.793 62.504 343.249 61.544C343.857 61.608 344.305 61.608 344.721 61.608C345.073 61.576 345.393 61.512 345.681 61.32C346.097 61.032 346.257 60.392 346.257 59.496C346.257 57.992 345.777 56.008 343.889 53.832C344.817 50.952 345.905 46.408 346.417 44.36V43.208ZM378.737 46.672C377.95 46.672 377.297 46.0192 377.297 45.232C377.297 44.4448 377.95 43.792 378.737 43.792C379.524 43.792 380.177 44.4448 380.177 45.232C380.177 46.0192 379.524 46.672 378.737 46.672ZM378.737 50.1472L385.073 43.8112L385.63 44.368L379.294 50.704L385.63 57.04L385.073 57.5968L378.737 51.2608L372.382 57.616L371.825 57.0592L378.18 50.704L371.844 44.368L372.401 43.8112L378.737 50.1472ZM374.705 50.704C374.705 51.4912 374.052 52.144 373.265 52.144C372.478 52.144 371.825 51.4912 371.825 50.704C371.825 49.9168 372.478 49.264 373.265 49.264C374.052 49.264 374.705 49.9168 374.705 50.704ZM382.769 50.704C382.769 49.9168 383.422 49.264 384.209 49.264C384.996 49.264 385.649 49.9168 385.649 50.704C385.649 51.4912 384.996 52.144 384.209 52.144C383.422 52.144 382.769 51.4912 382.769 50.704ZM378.737 54.736C379.524 54.736 380.177 55.3888 380.177 56.176C380.177 56.9632 379.524 57.616 378.737 57.616C377.95 57.616 377.297 56.9632 377.297 56.176C377.297 55.3888 377.95 54.736 378.737 54.736ZM390.507 58V55.9456H393.598V46.5376H391.025V44.9632C392.407 44.7136 393.367 44.368 394.231 43.8304H396.113V55.9456H398.82V58H390.507Z" fill="black"/>
<rect width="610" height="1" rx="0.5" transform="matrix(1 0 0 -1 0 113)" fill="#BDBDBD"/>
</svg>
