<svg width="725" height="223" viewBox="0 0 725 223" fill="none" xmlns="http://www.w3.org/2000/svg">
<path d="M367 2.99679C367 1.33992 365.657 -0.00179816 364 -2.59265e-05C362.343 0.00174631 361 1.34634 361 3.00321L367 2.99679ZM361.879 50.7702C363.05 51.9405 364.95 51.9385 366.121 50.7657L385.213 31.6532C386.385 30.4804 386.385 28.5808 385.213 27.4105C384.041 26.2402 382.142 26.2422 380.97 27.4151L364 44.4039L347.03 27.4514C345.858 26.281 343.959 26.2831 342.787 27.4559C341.615 28.6287 341.615 30.5282 342.787 31.6986L361.879 50.7702ZM361 3.00321L361 25.8265L367 25.8201L367 2.99679L361 3.00321ZM361 25.8265L361 48.6498L367 48.6434L367 25.8201L361 25.8265Z" fill="#CC0033"/>
<path d="M329.814 217V146.05C329.007 146.49 328.09 146.93 327.064 147.37C326.037 147.81 324.937 148.287 323.764 148.8C322.664 149.24 321.564 149.68 320.464 150.12C319.437 150.56 318.484 151 317.604 151.44V137.8C318.41 137.36 319.547 136.773 321.014 136.04C322.48 135.233 324.057 134.353 325.744 133.4C327.43 132.447 329.007 131.493 330.474 130.54C331.94 129.513 333.04 128.633 333.774 127.9H348.184V217H329.814ZM372.138 217V146.05C371.331 146.49 370.414 146.93 369.388 147.37C368.361 147.81 367.261 148.287 366.088 148.8C364.988 149.24 363.888 149.68 362.788 150.12C361.761 150.56 360.808 151 359.928 151.44V137.8C360.734 137.36 361.871 136.773 363.338 136.04C364.804 135.233 366.381 134.353 368.068 133.4C369.754 132.447 371.331 131.493 372.798 130.54C374.264 129.513 375.364 128.633 376.098 127.9H390.508V217H372.138ZM412.852 198.16C410.672 198.16 408.812 197.64 407.272 196.6C405.752 195.54 404.592 194.1 403.792 192.28C402.992 190.44 402.592 188.34 402.592 185.98C402.592 182.4 403.532 179.54 405.412 177.4C407.292 175.24 409.772 174.16 412.852 174.16C415.952 174.16 418.432 175.24 420.292 177.4C422.172 179.54 423.112 182.4 423.112 185.98C423.112 188.34 422.702 190.44 421.882 192.28C421.082 194.1 419.912 195.54 418.372 196.6C416.852 197.64 415.012 198.16 412.852 198.16ZM412.852 192.94C414.172 192.94 415.192 192.34 415.912 191.14C416.632 189.92 416.992 188.2 416.992 185.98C416.992 183.76 416.612 182.11 415.852 181.03C415.112 179.93 414.112 179.38 412.852 179.38C411.592 179.38 410.582 179.93 409.822 181.03C409.082 182.11 408.712 183.76 408.712 185.98C408.712 188.2 409.052 189.92 409.732 191.14C410.412 192.34 411.452 192.94 412.852 192.94ZM412.072 217L436.852 175H442.792L418.072 217H412.072ZM441.952 217.84C439.772 217.84 437.912 217.32 436.372 216.28C434.852 215.22 433.692 213.78 432.892 211.96C432.092 210.12 431.692 208.02 431.692 205.66C431.692 202.08 432.632 199.22 434.512 197.08C436.392 194.92 438.872 193.84 441.952 193.84C445.052 193.84 447.532 194.92 449.392 197.08C451.272 199.22 452.212 202.08 452.212 205.66C452.212 208.02 451.802 210.12 450.982 211.96C450.182 213.78 449.012 215.22 447.472 216.28C445.952 217.32 444.112 217.84 441.952 217.84ZM441.952 212.62C443.272 212.62 444.292 212.02 445.012 210.82C445.732 209.6 446.092 207.88 446.092 205.66C446.092 203.44 445.712 201.79 444.952 200.71C444.212 199.61 443.212 199.06 441.952 199.06C440.692 199.06 439.682 199.61 438.922 200.71C438.182 201.79 437.812 203.44 437.812 205.66C437.812 207.88 438.152 209.6 438.832 210.82C439.512 212.02 440.552 212.62 441.952 212.62ZM471.589 188.92V211.54H463.249V196.96H457.009V188.92H471.589ZM471.589 208.12C472.589 209.96 474.009 211.32 475.849 212.2C477.729 213.04 480.069 213.52 482.869 213.64C484.749 213.72 486.989 213.78 489.589 213.82C492.189 213.82 494.909 213.8 497.749 213.76C500.629 213.72 503.449 213.64 506.209 213.52C509.009 213.4 511.529 213.24 513.769 213.04C513.449 213.68 513.109 214.52 512.749 215.56C512.389 216.56 512.049 217.58 511.729 218.62C511.449 219.7 511.229 220.66 511.069 221.5C509.109 221.62 506.889 221.7 504.409 221.74C501.969 221.82 499.449 221.86 496.849 221.86C494.249 221.9 491.729 221.9 489.289 221.86C486.849 221.82 484.669 221.76 482.749 221.68C479.349 221.52 476.469 220.98 474.109 220.06C471.749 219.14 469.689 217.54 467.929 215.26C466.809 216.38 465.629 217.48 464.389 218.56C463.149 219.68 461.769 220.88 460.249 222.16L456.229 213.46C457.469 212.7 458.769 211.88 460.129 211C461.489 210.08 462.789 209.12 464.029 208.12H471.589ZM457.009 172.18L463.669 167.26C464.789 168.14 465.949 169.14 467.149 170.26C468.349 171.34 469.469 172.44 470.509 173.56C471.549 174.64 472.389 175.66 473.029 176.62L465.829 182.14C465.309 181.18 464.549 180.12 463.549 178.96C462.589 177.76 461.529 176.58 460.369 175.42C459.209 174.22 458.089 173.14 457.009 172.18ZM471.949 181.06H512.509V186.94H471.949V181.06ZM484.549 192.88V194.92H499.549V192.88H484.549ZM476.509 188.26H508.189V199.54H476.509V188.26ZM489.109 195.46L496.369 197.98C494.889 199.98 493.089 201.86 490.969 203.62C488.849 205.38 486.569 206.96 484.129 208.36C481.729 209.72 479.309 210.88 476.869 211.84C476.549 211.28 476.089 210.6 475.489 209.8C474.889 209 474.269 208.2 473.629 207.4C473.029 206.6 472.469 205.96 471.949 205.48C474.229 204.8 476.449 203.96 478.609 202.96C480.809 201.96 482.809 200.82 484.609 199.54C486.449 198.26 487.949 196.9 489.109 195.46ZM505.789 196.36L511.849 200.56C510.249 201.56 508.689 202.52 507.169 203.44C505.689 204.32 504.349 205.06 503.149 205.66L498.649 202.18C499.409 201.7 500.229 201.12 501.109 200.44C501.989 199.76 502.849 199.06 503.689 198.34C504.529 197.62 505.229 196.96 505.789 196.36ZM495.109 198.04C496.189 199.44 497.589 200.7 499.309 201.82C501.029 202.9 503.029 203.82 505.309 204.58C507.589 205.3 510.049 205.84 512.689 206.2C511.889 206.96 511.029 207.98 510.109 209.26C509.189 210.54 508.469 211.68 507.949 212.68C505.069 212.04 502.429 211.14 500.029 209.98C497.629 208.78 495.509 207.32 493.669 205.6C491.829 203.88 490.249 201.94 488.929 199.78L495.109 198.04ZM499.849 171.82V175.12H502.309V171.82H499.849ZM490.969 171.82V175.12H493.369V171.82H490.969ZM482.089 171.82V175.12H484.489V171.82H482.089ZM474.829 167.14H509.989V179.8H474.829V167.14ZM487.369 196.96H495.649V212.92H487.369V196.96ZM547.849 191.38H556.909V210.82C556.909 212.02 557.009 212.78 557.209 213.1C557.449 213.38 558.009 213.52 558.889 213.52C559.089 213.52 559.369 213.52 559.729 213.52C560.089 213.52 560.469 213.52 560.869 213.52C561.309 213.52 561.709 213.52 562.069 213.52C562.469 213.52 562.789 213.52 563.029 213.52C563.629 213.52 564.069 213.28 564.349 212.8C564.669 212.32 564.909 211.38 565.069 209.98C565.229 208.58 565.349 206.48 565.429 203.68C566.069 204.16 566.869 204.64 567.829 205.12C568.789 205.6 569.769 206.04 570.769 206.44C571.809 206.8 572.709 207.08 573.469 207.28C573.189 210.96 572.709 213.86 572.029 215.98C571.389 218.06 570.409 219.52 569.089 220.36C567.809 221.24 566.069 221.68 563.869 221.68C563.509 221.68 563.029 221.68 562.429 221.68C561.869 221.68 561.269 221.68 560.629 221.68C559.989 221.68 559.369 221.68 558.769 221.68C558.209 221.68 557.749 221.68 557.389 221.68C554.869 221.68 552.909 221.34 551.509 220.66C550.149 219.98 549.189 218.84 548.629 217.24C548.109 215.68 547.849 213.56 547.849 210.88V191.38ZM517.909 185.68H572.209V194.14H517.909V185.68ZM523.489 169.66H566.449V178.06H523.489V169.66ZM530.749 192.4H540.169C539.929 195.68 539.529 198.8 538.969 201.76C538.449 204.68 537.569 207.42 536.329 209.98C535.089 212.54 533.289 214.88 530.929 217C528.569 219.12 525.449 220.96 521.569 222.52C521.089 221.4 520.329 220.14 519.289 218.74C518.249 217.34 517.229 216.22 516.229 215.38C519.509 214.18 522.089 212.78 523.969 211.18C525.849 209.54 527.249 207.76 528.169 205.84C529.089 203.88 529.709 201.78 530.029 199.54C530.349 197.26 530.589 194.88 530.749 192.4ZM583.429 200.8L581.869 180.52L581.509 170.98H592.249L591.889 180.52L590.329 200.8H583.429ZM586.849 217.84C585.009 217.84 583.489 217.2 582.289 215.92C581.129 214.6 580.549 213.02 580.549 211.18C580.549 209.3 581.129 207.74 582.289 206.5C583.489 205.22 585.009 204.58 586.849 204.58C588.729 204.58 590.249 205.22 591.409 206.5C592.609 207.74 593.209 209.3 593.209 211.18C593.209 213.02 592.609 214.6 591.409 215.92C590.249 217.2 588.729 217.84 586.849 217.84Z" fill="#CC0033"/>
<path d="M140.64 182.096V183.296H158.976V182.096H140.64ZM140.64 176.864V178.016H158.976V176.864H140.64ZM133.968 172.496H165.984V187.664H133.968V172.496ZM128.352 188.864H171.6V194.336H128.352V188.864ZM150.72 195.44H165.648V200.672H150.72V195.44ZM136.32 195.488H146.736V200.192H136.32V195.488ZM136.32 201.488H146.736V206.192H136.32V201.488ZM157.104 200.144C158.416 202.768 160.4 205.04 163.056 206.96C165.712 208.88 168.896 210.256 172.608 211.088C172.16 211.504 171.664 212.032 171.12 212.672C170.608 213.312 170.112 213.968 169.632 214.64C169.184 215.344 168.816 215.968 168.528 216.512C164.432 215.296 160.992 213.44 158.208 210.944C155.456 208.416 153.232 205.328 151.536 201.68L157.104 200.144ZM163.632 195.44H164.832L165.984 195.248L170.304 196.832C169.408 200.224 168.128 203.2 166.464 205.76C164.832 208.288 162.864 210.448 160.56 212.24C158.256 214.032 155.648 215.504 152.736 216.656C152.352 215.824 151.792 214.864 151.056 213.776C150.32 212.72 149.632 211.872 148.992 211.232C150.816 210.656 152.512 209.888 154.08 208.928C155.68 207.968 157.104 206.848 158.352 205.568C159.632 204.288 160.72 202.88 161.616 201.344C162.512 199.808 163.184 198.16 163.632 196.4V195.44ZM127.92 208.256C129.552 208.192 131.376 208.112 133.392 208.016C135.44 207.888 137.584 207.76 139.824 207.632C142.096 207.472 144.352 207.328 146.592 207.2V212.816C143.392 213.072 140.192 213.312 136.992 213.536C133.792 213.792 130.912 214.016 128.352 214.208L127.92 208.256ZM143.184 190.64H149.856V216.56H143.184V190.64ZM131.904 190.784H138.24V210.464H131.904V190.784ZM176.544 183.392H219.552V190.64H176.544V183.392ZM201.888 186.32C202.816 189.872 204.096 193.184 205.728 196.256C207.36 199.296 209.408 201.968 211.872 204.272C214.368 206.576 217.328 208.4 220.752 209.744C220.176 210.256 219.552 210.912 218.88 211.712C218.24 212.48 217.616 213.28 217.008 214.112C216.432 214.944 215.952 215.696 215.568 216.368C211.792 214.608 208.576 212.368 205.92 209.648C203.296 206.896 201.104 203.712 199.344 200.096C197.584 196.448 196.08 192.4 194.832 187.952L201.888 186.32ZM193.92 170.96H201.6C201.568 173.584 201.488 176.304 201.36 179.12C201.264 181.904 201.024 184.704 200.64 187.52C200.256 190.304 199.632 193.056 198.768 195.776C197.936 198.496 196.768 201.104 195.264 203.6C193.76 206.096 191.824 208.432 189.456 210.608C187.12 212.752 184.256 214.672 180.864 216.368C180.32 215.408 179.552 214.368 178.56 213.248C177.6 212.128 176.608 211.184 175.584 210.416C178.784 208.944 181.456 207.28 183.6 205.424C185.776 203.568 187.52 201.552 188.832 199.376C190.176 197.2 191.2 194.944 191.904 192.608C192.608 190.24 193.088 187.84 193.344 185.408C193.6 182.944 193.744 180.496 193.776 178.064C193.84 175.632 193.888 173.264 193.92 170.96ZM234.096 186.368H258.096V192.464H234.096V186.368ZM233.664 208.88H257.904V214.976H233.664V208.88ZM230.592 196.544H261.888V216.656H254.688V202.64H237.456V216.656H230.592V196.544ZM245.808 177.824C244.496 179.648 242.864 181.504 240.912 183.392C238.96 185.28 236.8 187.088 234.432 188.816C232.064 190.544 229.584 192.096 226.992 193.472C226.704 192.928 226.304 192.304 225.792 191.6C225.312 190.896 224.784 190.208 224.208 189.536C223.664 188.864 223.136 188.288 222.624 187.808C225.376 186.496 228 184.896 230.496 183.008C232.992 181.12 235.216 179.12 237.168 177.008C239.152 174.896 240.72 172.896 241.872 171.008H249.168C250.48 172.864 251.904 174.624 253.44 176.288C255.008 177.92 256.656 179.44 258.384 180.848C260.144 182.224 261.952 183.456 263.808 184.544C265.696 185.6 267.6 186.496 269.52 187.232C268.656 188.128 267.84 189.136 267.072 190.256C266.304 191.344 265.6 192.432 264.96 193.52C263.136 192.56 261.296 191.472 259.44 190.256C257.584 189.008 255.808 187.696 254.112 186.32C252.416 184.912 250.848 183.488 249.408 182.048C248 180.608 246.8 179.2 245.808 177.824ZM291.024 186.944H317.184V193.856H291.024V186.944ZM300.48 171.2H307.584V216.56H300.48V171.2ZM273.6 185.792H289.392V190.976H273.6V185.792ZM273.888 172.352H289.488V177.536H273.888V172.352ZM273.6 192.416H289.392V197.6H273.6V192.416ZM271.2 178.928H291.312V184.352H271.2V178.928ZM276.768 199.184H289.248V214.112H276.768V208.688H283.152V204.608H276.768V199.184ZM273.408 199.184H279.408V215.84H273.408V199.184Z" fill="#CC0033"/>
<path d="M545.5 151.386C545.211 151.386 544.963 151.284 544.758 151.078C544.553 150.873 544.45 150.626 544.45 150.336C544.45 150.047 544.553 149.8 544.758 149.594C544.963 149.389 545.211 149.286 545.5 149.286C545.789 149.286 546.037 149.389 546.242 149.594C546.447 149.8 546.55 150.047 546.55 150.336C546.55 150.626 546.447 150.873 546.242 151.078C546.037 151.284 545.789 151.386 545.5 151.386ZM545.5 153.92L550.12 149.3L550.526 149.706L545.906 154.326L550.526 158.946L550.12 159.352L545.5 154.732L540.866 159.366L540.46 158.96L545.094 154.326L540.474 149.706L540.88 149.3L545.5 153.92ZM542.56 154.326C542.56 154.616 542.457 154.863 542.252 155.068C542.047 155.274 541.799 155.376 541.51 155.376C541.221 155.376 540.973 155.274 540.768 155.068C540.563 154.863 540.46 154.616 540.46 154.326C540.46 154.037 540.563 153.79 540.768 153.584C540.973 153.379 541.221 153.276 541.51 153.276C541.799 153.276 542.047 153.379 542.252 153.584C542.457 153.79 542.56 154.037 542.56 154.326ZM548.44 154.326C548.44 154.037 548.543 153.79 548.748 153.584C548.953 153.379 549.201 153.276 549.49 153.276C549.779 153.276 550.027 153.379 550.232 153.584C550.437 153.79 550.54 154.037 550.54 154.326C550.54 154.616 550.437 154.863 550.232 155.068C550.027 155.274 549.779 155.376 549.49 155.376C549.201 155.376 548.953 155.274 548.748 155.068C548.543 154.863 548.44 154.616 548.44 154.326ZM545.5 157.266C545.789 157.266 546.037 157.369 546.242 157.574C546.447 157.78 546.55 158.027 546.55 158.316C546.55 158.606 546.447 158.853 546.242 159.058C546.037 159.264 545.789 159.366 545.5 159.366C545.211 159.366 544.963 159.264 544.758 159.058C544.553 158.853 544.45 158.606 544.45 158.316C544.45 158.027 544.553 157.78 544.758 157.574C544.963 157.369 545.211 157.266 545.5 157.266ZM553.69 159.646V158.316H555.958V151.148H554.11V150.126C554.595 150.042 555.015 149.935 555.37 149.804C555.734 149.674 556.065 149.515 556.364 149.328H557.582V158.316H559.584V159.646H553.69ZM561.59 162.446L561.226 161.536C561.712 161.331 562.09 161.056 562.36 160.71C562.631 160.374 562.762 159.996 562.752 159.576L562.64 158.288L563.312 159.352C563.219 159.455 563.112 159.53 562.99 159.576C562.869 159.614 562.738 159.632 562.598 159.632C562.318 159.632 562.066 159.544 561.842 159.366C561.628 159.18 561.52 158.923 561.52 158.596C561.52 158.279 561.628 158.027 561.842 157.84C562.066 157.654 562.332 157.56 562.64 157.56C563.042 157.56 563.35 157.714 563.564 158.022C563.779 158.33 563.886 158.755 563.886 159.296C563.886 160.034 563.681 160.673 563.27 161.214C562.869 161.765 562.309 162.176 561.59 162.446ZM565.27 159.646V158.708C566.288 157.803 567.137 156.977 567.818 156.23C568.5 155.474 569.008 154.774 569.344 154.13C569.69 153.486 569.862 152.884 569.862 152.324C569.862 151.951 569.797 151.624 569.666 151.344C569.545 151.055 569.354 150.836 569.092 150.686C568.84 150.528 568.518 150.448 568.126 150.448C567.725 150.448 567.356 150.56 567.02 150.784C566.684 150.999 566.376 151.265 566.096 151.582L565.186 150.686C565.625 150.201 566.087 149.823 566.572 149.552C567.067 149.282 567.655 149.146 568.336 149.146C568.962 149.146 569.508 149.277 569.974 149.538C570.441 149.79 570.8 150.15 571.052 150.616C571.314 151.074 571.444 151.615 571.444 152.24C571.444 152.903 571.281 153.575 570.954 154.256C570.628 154.928 570.18 155.61 569.61 156.3C569.041 156.982 568.392 157.672 567.664 158.372C567.935 158.344 568.22 158.321 568.518 158.302C568.826 158.274 569.102 158.26 569.344 158.26H571.934V159.646H565.27Z" fill="#CC0033"/>
<path d="M12.8338 84.2345C12.7204 83.7131 12.5958 83.2371 12.4598 82.8065C12.3464 82.3758 12.2218 81.9451 12.0858 81.5145L17.8998 80.5965C17.9451 80.9365 17.9904 81.3785 18.0358 81.9225C18.1038 82.4665 18.1831 82.9538 18.2738 83.3845C18.3418 83.7698 18.4438 84.4045 18.5798 85.2885C18.7384 86.1498 18.9311 87.1925 19.1578 88.4165C19.3844 89.6178 19.6338 90.9211 19.9058 92.3265C20.1778 93.7092 20.4498 95.1145 20.7218 96.5425C20.9938 97.9705 21.2544 99.3418 21.5038 100.656C21.7531 101.948 21.9798 103.116 22.1838 104.158C22.3878 105.178 22.5464 105.983 22.6598 106.572C22.7731 107.071 22.9091 107.626 23.0678 108.238C23.2264 108.85 23.3851 109.451 23.5438 110.04L17.6278 111.06C17.5371 110.403 17.4691 109.768 17.4238 109.156C17.3784 108.544 17.2991 107.989 17.1858 107.49C17.0951 106.969 16.9591 106.221 16.7778 105.246C16.6191 104.272 16.4151 103.15 16.1658 101.88C15.9391 100.611 15.6898 99.2738 15.4178 97.8685C15.1458 96.4632 14.8738 95.0578 14.6018 93.6525C14.3524 92.2245 14.1031 90.8872 13.8538 89.6405C13.6271 88.3938 13.4231 87.3058 13.2418 86.3765C13.0604 85.4245 12.9244 84.7105 12.8338 84.2345ZM3.72177 88.2465C4.31111 88.2011 4.87777 88.1671 5.42177 88.1445C5.98844 88.0992 6.53244 88.0425 7.05377 87.9745C7.52977 87.9065 8.22111 87.8158 9.12777 87.7025C10.0344 87.5665 11.0658 87.4192 12.2218 87.2605C13.4004 87.0792 14.6131 86.8978 15.8598 86.7165C17.1291 86.5125 18.3531 86.3198 19.5318 86.1385C20.7104 85.9345 21.7531 85.7532 22.6598 85.5945C23.5891 85.4358 24.3031 85.3111 24.8018 85.2205C25.3684 85.1072 25.9918 84.9825 26.6718 84.8465C27.3518 84.6878 27.9298 84.5405 28.4058 84.4045L29.3918 89.7765C28.9611 89.7992 28.3944 89.8672 27.6918 89.9805C27.0118 90.0712 26.3998 90.1505 25.8558 90.2185C25.2438 90.3091 24.4391 90.4338 23.4418 90.5925C22.4444 90.7511 21.3451 90.9325 20.1438 91.1365C18.9424 91.3178 17.7184 91.5105 16.4718 91.7145C15.2251 91.9185 14.0351 92.1112 12.9018 92.2925C11.7911 92.4738 10.8164 92.6325 9.97777 92.7685C9.13911 92.9045 8.52711 93.0065 8.14177 93.0745C7.57511 93.1878 7.03111 93.3012 6.50977 93.4145C6.01111 93.5278 5.44444 93.6752 4.80977 93.8565L3.72177 88.2465ZM3.82377 98.3105C4.29977 98.2878 4.91177 98.2425 5.65977 98.1745C6.40777 98.0838 7.06511 97.9932 7.63177 97.9025C8.24377 97.8118 9.05977 97.6872 10.0798 97.5285C11.0998 97.3698 12.2444 97.1885 13.5138 96.9845C14.7831 96.7805 16.0864 96.5765 17.4238 96.3725C18.7838 96.1458 20.0984 95.9305 21.3678 95.7265C22.6371 95.4998 23.7931 95.2958 24.8358 95.1145C25.9011 94.9332 26.7511 94.7858 27.3858 94.6725C28.0431 94.5365 28.7004 94.3892 29.3578 94.2305C30.0378 94.0718 30.6271 93.9245 31.1258 93.7885L32.2138 99.1945C31.7151 99.2172 31.1031 99.2852 30.3778 99.3985C29.6751 99.5118 28.9951 99.6252 28.3378 99.7385C27.6351 99.8518 26.7398 99.9992 25.6518 100.18C24.5864 100.339 23.4078 100.532 22.1158 100.758C20.8238 100.962 19.4978 101.178 18.1378 101.404C16.8004 101.608 15.5084 101.824 14.2618 102.05C13.0151 102.254 11.8931 102.447 10.8958 102.628C9.92111 102.787 9.15044 102.923 8.58377 103.036C7.81311 103.172 7.11044 103.297 6.47577 103.41C5.86377 103.524 5.36511 103.637 4.97977 103.75L3.82377 98.3105ZM48.8738 86.6145C48.9418 87.0678 49.0324 87.5325 49.1458 88.0085C49.2591 88.4845 49.3611 88.9491 49.4518 89.4025C49.6784 90.1958 49.9391 91.1365 50.2338 92.2245C50.5284 93.2898 50.8458 94.4345 51.1858 95.6585C51.5258 96.8825 51.8658 98.1178 52.2058 99.3645C52.5458 100.588 52.8744 101.767 53.1918 102.9C53.5091 104.011 53.7924 105.008 54.0418 105.892C54.2911 106.776 54.4951 107.479 54.6538 108C54.7218 108.182 54.8124 108.465 54.9258 108.85C55.0391 109.258 55.1638 109.666 55.2998 110.074C55.4358 110.482 55.5491 110.811 55.6398 111.06L50.0638 112.42C49.9958 111.922 49.9051 111.378 49.7918 110.788C49.6784 110.199 49.5424 109.655 49.3838 109.156C49.2251 108.612 49.0211 107.876 48.7718 106.946C48.5451 106.017 48.2731 104.974 47.9558 103.818C47.6611 102.64 47.3438 101.427 47.0038 100.18C46.6864 98.9112 46.3691 97.6758 46.0518 96.4745C45.7344 95.2505 45.4284 94.1285 45.1338 93.1085C44.8618 92.0658 44.6238 91.2045 44.4198 90.5245C44.3064 90.0711 44.1478 89.6291 43.9438 89.1985C43.7624 88.7452 43.5698 88.3145 43.3658 87.9065L48.8738 86.6145ZM65.1938 92.1905C64.8311 92.9385 64.3664 93.8112 63.7998 94.8085C63.2331 95.7832 62.6098 96.7918 61.9298 97.8345C61.2498 98.8545 60.5698 99.8405 59.8898 100.792C59.2098 101.722 58.5638 102.526 57.9518 103.206L53.4298 100.962C53.9511 100.486 54.5064 99.9085 55.0958 99.2285C55.7078 98.5258 56.2744 97.8232 56.7958 97.1205C57.3398 96.4178 57.7364 95.8285 57.9858 95.3525C57.7138 95.3978 57.2378 95.4885 56.5578 95.6245C55.9004 95.7605 55.1071 95.9305 54.1778 96.1345C53.2711 96.3158 52.2738 96.5198 51.1858 96.7465C50.1204 96.9732 49.0438 97.2112 47.9558 97.4605C46.8678 97.6872 45.8251 97.9138 44.8278 98.1405C43.8304 98.3445 42.9464 98.5372 42.1758 98.7185C41.4051 98.8772 40.8044 99.0018 40.3738 99.0925L39.1158 94.1965C39.6824 94.1512 40.2264 94.0945 40.7478 94.0265C41.2691 93.9585 41.8244 93.8792 42.4138 93.7885C42.6858 93.7432 43.1618 93.6638 43.8418 93.5505C44.5218 93.4371 45.3264 93.2898 46.2558 93.1085C47.1851 92.9272 48.1824 92.7345 49.2478 92.5305C50.3358 92.3265 51.4238 92.1225 52.5118 91.9185C53.5998 91.7145 54.6311 91.5218 55.6058 91.3405C56.6031 91.1365 57.4758 90.9665 58.2238 90.8305C58.9718 90.6718 59.5384 90.5472 59.9238 90.4565C60.2638 90.3885 60.6038 90.2978 60.9438 90.1845C61.3064 90.0711 61.6124 89.9578 61.8618 89.8445L65.1938 92.1905ZM77.4338 82.2625C78.0231 82.6705 78.7144 83.1805 79.5078 83.7925C80.3011 84.3818 81.1171 85.0278 81.9558 85.7305C82.8171 86.4105 83.6218 87.0905 84.3698 87.7705C85.1404 88.4278 85.7751 89.0285 86.2738 89.5725L82.0578 93.8905C81.6044 93.3918 81.0264 92.8138 80.3238 92.1565C79.6211 91.4765 78.8618 90.7851 78.0458 90.0825C77.2298 89.3572 76.4251 88.6772 75.6318 88.0425C74.8384 87.4078 74.1358 86.8752 73.5238 86.4445L77.4338 82.2625ZM72.4018 104.838C74.0791 104.612 75.6658 104.294 77.1618 103.886C78.6804 103.478 80.1084 103.002 81.4458 102.458C82.7831 101.914 84.0071 101.325 85.1178 100.69C87.1578 99.5118 89.0164 98.1745 90.6938 96.6785C92.3711 95.1598 93.8331 93.5845 95.0798 91.9525C96.3491 90.2978 97.3578 88.6772 98.1058 87.0905L101.302 92.9045C100.395 94.5138 99.2731 96.1005 97.9358 97.6645C96.5984 99.2058 95.0911 100.668 93.4138 102.05C91.7591 103.433 89.9798 104.68 88.0758 105.79C86.9198 106.47 85.6731 107.116 84.3358 107.728C82.9984 108.318 81.6158 108.828 80.1878 109.258C78.7598 109.712 77.3318 110.052 75.9038 110.278L72.4018 104.838ZM127.89 87.6005C127.89 88.1445 128.082 88.6092 128.468 88.9945C128.853 89.3798 129.318 89.5725 129.862 89.5725C130.406 89.5725 130.87 89.3798 131.256 88.9945C131.641 88.6092 131.834 88.1445 131.834 87.6005C131.834 87.0565 131.641 86.5918 131.256 86.2065C130.87 85.8211 130.406 85.6285 129.862 85.6285C129.318 85.6285 128.853 85.8211 128.468 86.2065C128.082 86.5918 127.89 87.0565 127.89 87.6005ZM125.306 87.6005C125.306 86.7392 125.51 85.9685 125.918 85.2885C126.326 84.5858 126.87 84.0305 127.55 83.6225C128.252 83.2145 129.023 83.0105 129.862 83.0105C130.723 83.0105 131.494 83.2145 132.174 83.6225C132.876 84.0305 133.432 84.5858 133.84 85.2885C134.248 85.9685 134.452 86.7392 134.452 87.6005C134.452 88.4392 134.248 89.2098 133.84 89.9125C133.432 90.5925 132.876 91.1365 132.174 91.5445C131.494 91.9525 130.723 92.1565 129.862 92.1565C129.023 92.1565 128.252 91.9525 127.55 91.5445C126.87 91.1365 126.326 90.5925 125.918 89.9125C125.51 89.2098 125.306 88.4392 125.306 87.6005ZM103.818 98.5485C104.362 98.0952 104.86 97.6645 105.314 97.2565C105.767 96.8258 106.277 96.3272 106.844 95.7605C107.229 95.3752 107.66 94.9105 108.136 94.3665C108.612 93.8225 109.133 93.2218 109.7 92.5645C110.266 91.8845 110.844 91.1818 111.434 90.4565C112.046 89.7085 112.658 88.9718 113.27 88.2465C114.335 86.9772 115.446 86.2858 116.602 86.1725C117.78 86.0365 119.072 86.6371 120.478 87.9745C121.294 88.7225 122.098 89.5045 122.892 90.3205C123.685 91.1138 124.456 91.9072 125.204 92.7005C125.974 93.4938 126.7 94.2645 127.38 95.0125C128.15 95.8285 129.023 96.7578 129.998 97.8005C130.972 98.8432 131.97 99.9085 132.99 100.996C134.01 102.084 134.95 103.093 135.812 104.022L131.256 108.918C130.53 107.989 129.748 107.014 128.91 105.994C128.094 104.952 127.289 103.943 126.496 102.968C125.702 101.971 124.988 101.098 124.354 100.35C123.855 99.7385 123.311 99.1038 122.722 98.4465C122.132 97.7665 121.554 97.1092 120.988 96.4745C120.421 95.8172 119.9 95.2392 119.424 94.7405C118.948 94.2192 118.574 93.8112 118.302 93.5165C117.803 93.0178 117.35 92.7798 116.942 92.8025C116.556 92.8252 116.148 93.1198 115.718 93.6865C115.423 94.0718 115.072 94.5478 114.664 95.1145C114.278 95.6585 113.87 96.2365 113.44 96.8485C113.009 97.4605 112.59 98.0612 112.182 98.6505C111.774 99.2398 111.411 99.7612 111.094 100.214C110.686 100.804 110.278 101.404 109.87 102.016C109.462 102.628 109.099 103.184 108.782 103.682L103.818 98.5485ZM139.892 92.3265C140.345 92.3492 140.923 92.3832 141.626 92.4285C142.351 92.4738 143.088 92.5078 143.836 92.5305C144.584 92.5532 145.23 92.5645 145.774 92.5645C146.476 92.5645 147.258 92.5645 148.12 92.5645C149.004 92.5645 149.933 92.5645 150.908 92.5645C151.882 92.5645 152.868 92.5645 153.866 92.5645C154.886 92.5645 155.883 92.5645 156.858 92.5645C157.832 92.5645 158.762 92.5645 159.646 92.5645C160.53 92.5645 161.323 92.5645 162.026 92.5645C162.751 92.5645 163.352 92.5645 163.828 92.5645C164.598 92.5645 165.358 92.5305 166.106 92.4625C166.876 92.3945 167.511 92.3492 168.01 92.3265V98.8205C167.579 98.7978 166.944 98.7638 166.106 98.7185C165.29 98.6505 164.53 98.6165 163.828 98.6165C163.352 98.6165 162.751 98.6165 162.026 98.6165C161.3 98.6165 160.496 98.6165 159.612 98.6165C158.728 98.6165 157.798 98.6165 156.824 98.6165C155.849 98.6165 154.852 98.6165 153.832 98.6165C152.834 98.6165 151.848 98.6165 150.874 98.6165C149.899 98.6165 148.97 98.6165 148.086 98.6165C147.224 98.6165 146.454 98.6165 145.774 98.6165C144.799 98.6165 143.745 98.6392 142.612 98.6845C141.501 98.7298 140.594 98.7752 139.892 98.8205V92.3265ZM177.74 82.2625C178.33 82.6705 179.021 83.1805 179.814 83.7925C180.608 84.3818 181.424 85.0278 182.262 85.7305C183.124 86.4105 183.928 87.0905 184.676 87.7705C185.447 88.4278 186.082 89.0285 186.58 89.5725L182.364 93.8905C181.911 93.3918 181.333 92.8138 180.63 92.1565C179.928 91.4765 179.168 90.7851 178.352 90.0825C177.536 89.3572 176.732 88.6772 175.938 88.0425C175.145 87.4078 174.442 86.8752 173.83 86.4445L177.74 82.2625ZM172.708 104.838C174.386 104.612 175.972 104.294 177.468 103.886C178.987 103.478 180.415 103.002 181.752 102.458C183.09 101.914 184.314 101.325 185.424 100.69C187.464 99.5118 189.323 98.1745 191 96.6785C192.678 95.1598 194.14 93.5845 195.386 91.9525C196.656 90.2978 197.664 88.6772 198.412 87.0905L201.608 92.9045C200.702 94.5138 199.58 96.1005 198.242 97.6645C196.905 99.2058 195.398 100.668 193.72 102.05C192.066 103.433 190.286 104.68 188.382 105.79C187.226 106.47 185.98 107.116 184.642 107.728C183.305 108.318 181.922 108.828 180.494 109.258C179.066 109.712 177.638 110.052 176.21 110.278L172.708 104.838ZM206.096 85.3905H234.588V103.07H229.386V90.2525H211.06V103.24H206.096V85.3905ZM208.646 96.6105H232.242V101.472H208.646V96.6105ZM217.588 79.5765H222.824V111.876H217.588V79.5765ZM250.398 87.3285C251.396 87.4192 252.393 87.4985 253.39 87.5665C254.41 87.6118 255.442 87.6345 256.484 87.6345C258.57 87.6345 260.655 87.5438 262.74 87.3625C264.826 87.1585 266.764 86.8638 268.554 86.4785V91.6125C266.786 91.8618 264.86 92.0545 262.774 92.1905C260.689 92.3265 258.604 92.4058 256.518 92.4285C255.498 92.4285 254.478 92.4172 253.458 92.3945C252.438 92.3492 251.43 92.2925 250.432 92.2245L250.398 87.3285ZM263.93 81.7865C263.885 82.1038 263.84 82.4665 263.794 82.8745C263.772 83.2825 263.749 83.6792 263.726 84.0645C263.704 84.4045 263.681 84.8805 263.658 85.4925C263.636 86.1045 263.613 86.8071 263.59 87.6005C263.59 88.3711 263.59 89.2098 263.59 90.1165C263.59 91.8165 263.613 93.3578 263.658 94.7405C263.726 96.1005 263.794 97.3358 263.862 98.4465C263.93 99.5345 263.987 100.532 264.032 101.438C264.1 102.322 264.134 103.15 264.134 103.92C264.134 104.918 263.998 105.824 263.726 106.64C263.454 107.434 263.035 108.114 262.468 108.68C261.902 109.27 261.165 109.712 260.258 110.006C259.374 110.324 258.298 110.482 257.028 110.482C254.626 110.482 252.699 109.984 251.248 108.986C249.798 107.989 249.072 106.527 249.072 104.6C249.072 103.331 249.401 102.232 250.058 101.302C250.716 100.35 251.634 99.6252 252.812 99.1265C253.991 98.6052 255.374 98.3445 256.96 98.3445C258.66 98.3445 260.19 98.5258 261.55 98.8885C262.933 99.2512 264.18 99.7272 265.29 100.316C266.401 100.906 267.376 101.54 268.214 102.22C269.076 102.878 269.824 103.501 270.458 104.09L267.67 108.408C266.31 107.116 265.007 106.017 263.76 105.11C262.514 104.204 261.301 103.512 260.122 103.036C258.944 102.56 257.754 102.322 256.552 102.322C255.759 102.322 255.113 102.47 254.614 102.764C254.138 103.059 253.9 103.478 253.9 104.022C253.9 104.612 254.161 105.031 254.682 105.28C255.204 105.507 255.827 105.62 256.552 105.62C257.096 105.62 257.538 105.518 257.878 105.314C258.218 105.11 258.456 104.804 258.592 104.396C258.751 103.988 258.83 103.478 258.83 102.866C258.83 102.3 258.808 101.563 258.762 100.656C258.717 99.7272 258.66 98.6958 258.592 97.5625C258.547 96.4292 258.502 95.2278 258.456 93.9585C258.411 92.6892 258.388 91.4085 258.388 90.1165C258.388 88.7565 258.377 87.5325 258.354 86.4445C258.354 85.3565 258.343 84.5858 258.32 84.1325C258.32 83.8831 258.286 83.5205 258.218 83.0445C258.173 82.5685 258.116 82.1491 258.048 81.7865H263.93ZM247.44 82.2285C247.35 82.4778 247.236 82.8405 247.1 83.3165C246.964 83.7925 246.84 84.2571 246.726 84.7105C246.636 85.1638 246.568 85.4925 246.522 85.6965C246.432 86.0592 246.318 86.6258 246.182 87.3965C246.069 88.1672 245.933 89.0625 245.774 90.0825C245.638 91.0798 245.502 92.1112 245.366 93.1765C245.23 94.2418 245.117 95.2505 245.026 96.2025C244.958 97.1318 244.924 97.9138 244.924 98.5485C244.924 98.5938 244.924 98.7185 244.924 98.9225C244.924 99.1265 244.936 99.2625 244.958 99.3305C245.094 98.9905 245.23 98.6845 245.366 98.4125C245.525 98.1405 245.672 97.8685 245.808 97.5965C245.967 97.3245 246.114 97.0185 246.25 96.6785L248.732 98.6845C248.392 99.7045 248.052 100.747 247.712 101.812C247.395 102.855 247.112 103.841 246.862 104.77C246.613 105.7 246.42 106.493 246.284 107.15C246.239 107.377 246.194 107.66 246.148 108C246.103 108.318 246.08 108.567 246.08 108.748C246.08 108.93 246.08 109.156 246.08 109.428C246.08 109.723 246.092 110.006 246.114 110.278L241.456 110.618C241.094 109.462 240.765 107.932 240.47 106.028C240.198 104.124 240.062 102.016 240.062 99.7045C240.062 98.4125 240.108 97.0752 240.198 95.6925C240.312 94.2872 240.436 92.9385 240.572 91.6465C240.731 90.3545 240.878 89.1871 241.014 88.1445C241.173 87.0791 241.298 86.2291 241.388 85.5945C241.456 85.0731 241.524 84.4611 241.592 83.7585C241.683 83.0558 241.74 82.3872 241.762 81.7525L247.44 82.2285ZM279.604 111.23C278.947 110.414 278.199 109.564 277.36 108.68C276.544 107.796 275.706 106.935 274.844 106.096C274.006 105.235 273.19 104.464 272.396 103.784L276.714 100.078C277.508 100.736 278.369 101.518 279.298 102.424C280.25 103.331 281.146 104.238 281.984 105.144C282.823 106.051 283.492 106.822 283.99 107.456L279.604 111.23ZM314.658 109.122C313.049 109.122 311.644 108.714 310.442 107.898C309.264 107.082 308.346 105.915 307.688 104.396C307.054 102.878 306.736 101.064 306.736 98.9565C306.736 96.8485 307.122 95.0465 307.892 93.5505C308.663 92.0318 309.66 90.8645 310.884 90.0485C312.108 89.2325 313.389 88.8245 314.726 88.8245C315.792 88.8245 316.676 89.0058 317.378 89.3685C318.081 89.7312 318.75 90.2185 319.384 90.8305L319.18 87.9405V81.4805H325.232V108.646H320.302L319.86 106.776H319.724C319.044 107.456 318.262 108.023 317.378 108.476C316.494 108.907 315.588 109.122 314.658 109.122ZM316.256 104.158C316.846 104.158 317.367 104.045 317.82 103.818C318.296 103.592 318.75 103.161 319.18 102.526V94.9105C318.727 94.4798 318.24 94.1852 317.718 94.0265C317.197 93.8452 316.676 93.7545 316.154 93.7545C315.61 93.7545 315.089 93.9358 314.59 94.2985C314.114 94.6612 313.718 95.2165 313.4 95.9645C313.106 96.7125 312.958 97.6872 312.958 98.8885C312.958 100.112 313.083 101.121 313.332 101.914C313.604 102.685 313.99 103.252 314.488 103.614C314.987 103.977 315.576 104.158 316.256 104.158ZM346.217 81.0725C346.172 81.4805 346.127 82.0131 346.081 82.6705C346.036 83.3278 346.002 83.8605 345.979 84.2685C345.889 87.6005 345.617 90.5811 345.163 93.2105C344.733 95.8172 344.087 98.1632 343.225 100.248C342.364 102.311 341.231 104.181 339.825 105.858C338.443 107.536 336.754 109.088 334.759 110.516L329.965 106.64C330.759 106.187 331.597 105.654 332.481 105.042C333.388 104.408 334.227 103.682 334.997 102.866C336.131 101.688 337.049 100.43 337.751 99.0925C338.477 97.7552 339.032 96.3385 339.417 94.8425C339.803 93.3238 340.063 91.7032 340.199 89.9805C340.358 88.2351 340.437 86.3651 340.437 84.3705C340.437 84.1211 340.426 83.7925 340.403 83.3845C340.381 82.9538 340.347 82.5345 340.301 82.1265C340.256 81.6958 340.211 81.3445 340.165 81.0725H346.217ZM357.607 88.4845C357.562 88.7565 357.505 89.0965 357.437 89.5045C357.392 89.8898 357.369 90.1732 357.369 90.3545C357.347 91.1252 357.301 92.0885 357.233 93.2445C357.188 94.3778 357.109 95.6018 356.995 96.9165C356.905 98.2085 356.78 99.5005 356.621 100.792C356.485 102.084 356.315 103.286 356.111 104.396C355.907 105.484 355.658 106.391 355.363 107.116C355.001 108.046 354.434 108.76 353.663 109.258C352.915 109.78 351.895 110.04 350.603 110.04C349.561 110.04 348.541 110.006 347.543 109.938C346.546 109.87 345.651 109.802 344.857 109.734L344.211 104.226C345.005 104.385 345.809 104.51 346.625 104.6C347.464 104.691 348.201 104.736 348.835 104.736C349.425 104.736 349.844 104.634 350.093 104.43C350.343 104.226 350.547 103.909 350.705 103.478C350.864 103.093 351.011 102.572 351.147 101.914C351.283 101.257 351.397 100.52 351.487 99.7045C351.601 98.8658 351.691 97.9932 351.759 97.0865C351.85 96.1798 351.907 95.2958 351.929 94.4345C351.975 93.5505 351.997 92.7345 351.997 91.9865H336.153C335.632 91.9865 334.895 91.9978 333.943 92.0205C333.014 92.0431 332.153 92.0885 331.359 92.1565V86.7845C332.153 86.8751 332.991 86.9431 333.875 86.9885C334.759 87.0338 335.519 87.0565 336.153 87.0565H351.283C351.714 87.0565 352.167 87.0338 352.643 86.9885C353.142 86.9431 353.629 86.8751 354.105 86.7845L357.607 88.4845ZM364.577 92.3265C365.031 92.3492 365.609 92.3832 366.311 92.4285C367.037 92.4738 367.773 92.5078 368.521 92.5305C369.269 92.5532 369.915 92.5645 370.459 92.5645C371.162 92.5645 371.944 92.5645 372.805 92.5645C373.689 92.5645 374.619 92.5645 375.593 92.5645C376.568 92.5645 377.554 92.5645 378.551 92.5645C379.571 92.5645 380.569 92.5645 381.543 92.5645C382.518 92.5645 383.447 92.5645 384.331 92.5645C385.215 92.5645 386.009 92.5645 386.711 92.5645C387.437 92.5645 388.037 92.5645 388.513 92.5645C389.284 92.5645 390.043 92.5305 390.791 92.4625C391.562 92.3945 392.197 92.3492 392.695 92.3265V98.8205C392.265 98.7978 391.63 98.7638 390.791 98.7185C389.975 98.6505 389.216 98.6165 388.513 98.6165C388.037 98.6165 387.437 98.6165 386.711 98.6165C385.986 98.6165 385.181 98.6165 384.297 98.6165C383.413 98.6165 382.484 98.6165 381.509 98.6165C380.535 98.6165 379.537 98.6165 378.517 98.6165C377.52 98.6165 376.534 98.6165 375.559 98.6165C374.585 98.6165 373.655 98.6165 372.771 98.6165C371.91 98.6165 371.139 98.6165 370.459 98.6165C369.485 98.6165 368.431 98.6392 367.297 98.6845C366.187 98.7298 365.28 98.7752 364.577 98.8205V92.3265ZM419.317 82.8745C419.657 83.3731 420.02 83.9285 420.405 84.5405C420.791 85.1525 421.153 85.7645 421.493 86.3765C421.856 86.9658 422.162 87.5212 422.411 88.0425L418.909 89.5725C418.547 88.7792 418.218 88.1105 417.923 87.5665C417.651 87.0225 417.357 86.5011 417.039 86.0025C416.745 85.4812 416.371 84.9145 415.917 84.3025L419.317 82.8745ZM423.975 80.9365C424.338 81.4125 424.712 81.9452 425.097 82.5345C425.505 83.1238 425.891 83.7131 426.253 84.3025C426.616 84.8918 426.922 85.4358 427.171 85.9345L423.771 87.6005C423.386 86.8071 423.035 86.1498 422.717 85.6285C422.4 85.0845 422.083 84.5745 421.765 84.0985C421.448 83.6225 421.063 83.0898 420.609 82.5005L423.975 80.9365ZM404.867 105.756C404.867 105.258 404.867 104.51 404.867 103.512C404.867 102.492 404.867 101.336 404.867 100.044C404.867 98.7525 404.867 97.4152 404.867 96.0325C404.867 94.6272 404.867 93.2785 404.867 91.9865C404.867 90.6945 404.867 89.5498 404.867 88.5525C404.867 87.5551 404.867 86.8185 404.867 86.3425C404.867 85.6625 404.833 84.9145 404.765 84.0985C404.697 83.2825 404.595 82.5572 404.459 81.9225H410.885C410.817 82.5572 410.738 83.2485 410.647 83.9965C410.579 84.7445 410.545 85.5265 410.545 86.3425C410.545 86.8185 410.545 87.5551 410.545 88.5525C410.545 89.5498 410.545 90.6945 410.545 91.9865C410.545 93.2785 410.545 94.6158 410.545 95.9985C410.545 97.3812 410.545 98.7298 410.545 100.044C410.545 101.336 410.545 102.492 410.545 103.512C410.545 104.51 410.545 105.258 410.545 105.756C410.545 106.051 410.557 106.516 410.579 107.15C410.625 107.762 410.681 108.408 410.749 109.088C410.817 109.768 410.874 110.369 410.919 110.89H404.459C404.573 110.165 404.663 109.304 404.731 108.306C404.822 107.309 404.867 106.459 404.867 105.756ZM409.321 90.6605C410.455 90.9551 411.735 91.3405 413.163 91.8165C414.591 92.2698 416.031 92.7572 417.481 93.2785C418.932 93.7998 420.281 94.3098 421.527 94.8085C422.797 95.3072 423.817 95.7492 424.587 96.1345L422.241 101.88C421.289 101.382 420.247 100.894 419.113 100.418C418.003 99.9198 416.869 99.4438 415.713 98.9905C414.58 98.5145 413.458 98.0838 412.347 97.6985C411.259 97.2905 410.251 96.9278 409.321 96.6105V90.6605ZM446.653 90.9665C447.537 90.9665 448.331 91.1818 449.033 91.6125C449.759 92.0431 450.337 92.6212 450.767 93.3465C451.198 94.0492 451.413 94.8425 451.413 95.7265C451.413 96.5878 451.198 97.3812 450.767 98.1065C450.337 98.8318 449.759 99.4098 449.033 99.8405C448.331 100.271 447.537 100.486 446.653 100.486C445.792 100.486 444.999 100.271 444.273 99.8405C443.548 99.4098 442.97 98.8318 442.539 98.1065C442.109 97.3812 441.893 96.5878 441.893 95.7265C441.893 94.8425 442.109 94.0492 442.539 93.3465C442.97 92.6212 443.548 92.0431 444.273 91.6125C444.999 91.1818 445.792 90.9665 446.653 90.9665ZM473.037 109.122C471.428 109.122 470.023 108.714 468.821 107.898C467.643 107.082 466.725 105.915 466.067 104.396C465.433 102.878 465.115 101.064 465.115 98.9565C465.115 96.8485 465.501 95.0465 466.271 93.5505C467.042 92.0318 468.039 90.8645 469.263 90.0485C470.487 89.2325 471.768 88.8245 473.105 88.8245C474.171 88.8245 475.055 89.0058 475.757 89.3685C476.46 89.7312 477.129 90.2185 477.763 90.8305L477.559 87.9405V81.4805H483.611V108.646H478.681L478.239 106.776H478.103C477.423 107.456 476.641 108.023 475.757 108.476C474.873 108.907 473.967 109.122 473.037 109.122ZM474.635 104.158C475.225 104.158 475.746 104.045 476.199 103.818C476.675 103.592 477.129 103.161 477.559 102.526V94.9105C477.106 94.4798 476.619 94.1852 476.097 94.0265C475.576 93.8452 475.055 93.7545 474.533 93.7545C473.989 93.7545 473.468 93.9358 472.969 94.2985C472.493 94.6612 472.097 95.2165 471.779 95.9645C471.485 96.7125 471.337 97.6872 471.337 98.8885C471.337 100.112 471.462 101.121 471.711 101.914C471.983 102.685 472.369 103.252 472.867 103.614C473.366 103.977 473.955 104.158 474.635 104.158ZM505.174 80.4265L510.58 81.2765C510.263 83.6338 509.889 86.0251 509.458 88.4505C509.05 90.8531 508.597 93.2218 508.098 95.5565C507.622 97.8912 507.124 100.112 506.602 102.22C506.081 104.306 505.56 106.21 505.038 107.932L500.346 106.98C500.868 105.235 501.366 103.286 501.842 101.132C502.341 98.9792 502.806 96.7238 503.236 94.3665C503.667 92.0091 504.041 89.6518 504.358 87.2945C504.698 84.9145 504.97 82.6251 505.174 80.4265ZM497.082 105.96C498.578 105.824 500.312 105.654 502.284 105.45C504.279 105.246 506.387 105.02 508.608 104.77C510.83 104.521 513.017 104.272 515.17 104.022L515.34 108.646C513.346 108.964 511.328 109.27 509.288 109.564C507.271 109.859 505.31 110.142 503.406 110.414C501.502 110.686 499.757 110.936 498.17 111.162L497.082 105.96ZM509.152 96.1345L513.572 94.6385C514.388 96.2478 515.193 97.9818 515.986 99.8405C516.802 101.676 517.528 103.478 518.162 105.246C518.82 107.014 519.296 108.601 519.59 110.006L514.66 111.842C514.479 110.822 514.196 109.666 513.81 108.374C513.448 107.082 513.017 105.745 512.518 104.362C512.02 102.957 511.476 101.552 510.886 100.146C510.32 98.7412 509.742 97.4038 509.152 96.1345ZM487.256 85.7985H500.584V90.3885H487.256V85.7985ZM491.744 79.5425H496.572V106.64C496.572 107.819 496.448 108.737 496.198 109.394C495.949 110.052 495.496 110.573 494.838 110.958C494.158 111.321 493.342 111.559 492.39 111.672C491.438 111.808 490.305 111.876 488.99 111.876C488.9 111.219 488.718 110.437 488.446 109.53C488.197 108.646 487.914 107.887 487.596 107.252C488.276 107.275 488.956 107.298 489.636 107.32C490.339 107.32 490.815 107.32 491.064 107.32C491.314 107.298 491.484 107.241 491.574 107.15C491.688 107.037 491.744 106.856 491.744 106.606V79.5425ZM486.712 96.2705C487.891 96.1118 489.24 95.9192 490.758 95.6925C492.3 95.4658 493.909 95.2165 495.586 94.9445C497.286 94.6498 498.964 94.3665 500.618 94.0945L500.958 98.4465C499.44 98.7638 497.898 99.0812 496.334 99.3985C494.793 99.6932 493.286 99.9878 491.812 100.282C490.339 100.577 488.968 100.849 487.698 101.098L486.712 96.2705ZM529.552 84.0305C529.462 84.5065 529.382 85.0392 529.314 85.6285C529.246 86.2178 529.19 86.7845 529.144 87.3285C529.099 87.8725 529.076 88.3145 529.076 88.6545C529.076 89.4025 529.076 90.1505 529.076 90.8985C529.099 91.6465 529.122 92.3945 529.144 93.1425C529.167 93.8678 529.212 94.6158 529.28 95.3865C529.416 96.8598 529.598 98.1745 529.824 99.3305C530.051 100.464 530.357 101.359 530.742 102.016C531.15 102.651 531.683 102.968 532.34 102.968C532.726 102.968 533.088 102.742 533.428 102.288C533.768 101.835 534.074 101.257 534.346 100.554C534.641 99.8518 534.89 99.1265 535.094 98.3785C535.298 97.6305 535.468 96.9732 535.604 96.4065L539.752 101.506C538.959 103.501 538.177 105.099 537.406 106.3C536.636 107.479 535.831 108.329 534.992 108.85C534.154 109.372 533.236 109.632 532.238 109.632C530.901 109.632 529.654 109.224 528.498 108.408C527.365 107.57 526.39 106.221 525.574 104.362C524.781 102.481 524.226 99.9992 523.908 96.9165C523.795 95.8285 523.704 94.7065 523.636 93.5505C523.591 92.3945 523.557 91.2952 523.534 90.2525C523.534 89.2098 523.534 88.3372 523.534 87.6345C523.534 87.1131 523.512 86.5238 523.466 85.8665C523.421 85.1865 523.342 84.5518 523.228 83.9625L529.552 84.0305ZM546.178 84.6765C546.836 85.4472 547.47 86.4105 548.082 87.5665C548.694 88.7225 549.25 89.9692 549.748 91.3065C550.27 92.6438 550.723 94.0038 551.108 95.3865C551.494 96.7465 551.8 98.0612 552.026 99.3305C552.276 100.6 552.434 101.722 552.502 102.696L547.028 104.804C546.915 103.512 546.711 102.039 546.416 100.384C546.144 98.7298 545.759 97.0412 545.26 95.3185C544.784 93.5732 544.184 91.9185 543.458 90.3545C542.756 88.7905 541.906 87.4645 540.908 86.3765L546.178 84.6765ZM574.67 85.2885C574.421 87.0112 574.115 88.8472 573.752 90.7965C573.39 92.7458 572.88 94.7858 572.222 96.9165C571.565 99.1832 570.783 101.166 569.876 102.866C568.97 104.566 567.95 105.892 566.816 106.844C565.706 107.796 564.482 108.272 563.144 108.272C561.739 108.272 560.47 107.819 559.336 106.912C558.226 105.983 557.342 104.736 556.684 103.172C556.05 101.586 555.732 99.8292 555.732 97.9025C555.732 95.8852 556.14 93.9812 556.956 92.1905C557.772 90.3772 558.906 88.7792 560.356 87.3965C561.807 86.0138 563.507 84.9258 565.456 84.1325C567.406 83.3391 569.514 82.9425 571.78 82.9425C573.956 82.9425 575.906 83.2938 577.628 83.9965C579.374 84.6765 580.858 85.6398 582.082 86.8865C583.329 88.1331 584.281 89.5951 584.938 91.2725C585.596 92.9272 585.924 94.7178 585.924 96.6445C585.924 99.0245 585.448 101.178 584.496 103.104C583.544 105.008 582.105 106.606 580.178 107.898C578.252 109.168 575.815 110.052 572.868 110.55L569.74 105.654C570.466 105.564 571.078 105.473 571.576 105.382C572.075 105.269 572.574 105.156 573.072 105.042C574.16 104.77 575.146 104.385 576.03 103.886C576.914 103.388 577.674 102.776 578.308 102.05C578.943 101.325 579.43 100.498 579.77 99.5685C580.11 98.6165 580.28 97.5852 580.28 96.4745C580.28 95.1598 580.088 93.9698 579.702 92.9045C579.34 91.8391 578.784 90.9211 578.036 90.1505C577.311 89.3798 576.416 88.7905 575.35 88.3825C574.285 87.9745 573.061 87.7705 571.678 87.7705C569.91 87.7705 568.358 88.0878 567.02 88.7225C565.706 89.3345 564.606 90.1392 563.722 91.1365C562.838 92.1111 562.17 93.1538 561.716 94.2645C561.286 95.3752 561.07 96.4065 561.07 97.3585C561.07 98.3332 561.172 99.1605 561.376 99.8405C561.58 100.498 561.841 100.996 562.158 101.336C562.498 101.676 562.872 101.846 563.28 101.846C563.734 101.846 564.153 101.62 564.538 101.166C564.946 100.713 565.332 100.044 565.694 99.1605C566.08 98.2538 566.476 97.1432 566.884 95.8285C567.406 94.2192 567.848 92.4852 568.21 90.6265C568.573 88.7451 568.834 86.9091 568.992 85.1185L574.67 85.2885ZM603.366 80.7665C603.321 80.9705 603.276 81.2878 603.23 81.7185C603.185 82.1265 603.14 82.5458 603.094 82.9765C603.049 83.4071 603.015 83.7698 602.992 84.0645C602.947 84.8352 602.902 85.5945 602.856 86.3425C602.834 87.0678 602.811 87.7932 602.788 88.5185C602.766 89.2438 602.743 89.9692 602.72 90.6945C602.72 91.4198 602.72 92.1565 602.72 92.9045C602.72 93.8565 602.732 94.9218 602.754 96.1005C602.777 97.2565 602.8 98.4125 602.822 99.5685C602.868 100.702 602.902 101.733 602.924 102.662C602.947 103.592 602.958 104.294 602.958 104.77C602.958 106.357 602.777 107.592 602.414 108.476C602.074 109.338 601.587 109.927 600.952 110.244C600.34 110.584 599.626 110.754 598.81 110.754C597.904 110.754 596.952 110.573 595.954 110.21C594.957 109.87 594.028 109.383 593.166 108.748C592.328 108.136 591.636 107.411 591.092 106.572C590.571 105.734 590.31 104.827 590.31 103.852C590.31 102.696 590.741 101.552 591.602 100.418C592.464 99.2852 593.608 98.2538 595.036 97.3245C596.464 96.3725 598.017 95.6132 599.694 95.0465C601.213 94.5252 602.777 94.1398 604.386 93.8905C606.018 93.6412 607.458 93.5165 608.704 93.5165C610.495 93.5165 612.127 93.8225 613.6 94.4345C615.096 95.0238 616.286 95.8965 617.17 97.0525C618.077 98.2085 618.53 99.6252 618.53 101.302C618.53 102.617 618.292 103.852 617.816 105.008C617.363 106.142 616.581 107.139 615.47 108C614.36 108.839 612.83 109.508 610.88 110.006C610.087 110.165 609.305 110.29 608.534 110.38C607.764 110.471 607.004 110.55 606.256 110.618L604.386 105.28C605.202 105.28 605.973 105.269 606.698 105.246C607.424 105.201 608.07 105.133 608.636 105.042C609.52 104.884 610.302 104.646 610.982 104.328C611.662 103.988 612.195 103.569 612.58 103.07C612.966 102.549 613.158 101.948 613.158 101.268C613.158 100.588 612.977 100.01 612.614 99.5345C612.252 99.0585 611.73 98.6958 611.05 98.4465C610.393 98.1745 609.588 98.0385 608.636 98.0385C607.254 98.0385 605.814 98.1858 604.318 98.4805C602.845 98.7525 601.474 99.1265 600.204 99.6025C599.252 99.9652 598.414 100.373 597.688 100.826C596.963 101.28 596.396 101.744 595.988 102.22C595.58 102.696 595.376 103.161 595.376 103.614C595.376 103.818 595.433 104.011 595.546 104.192C595.682 104.374 595.841 104.532 596.022 104.668C596.226 104.804 596.43 104.918 596.634 105.008C596.838 105.076 597.02 105.11 597.178 105.11C597.428 105.11 597.654 105.042 597.858 104.906C598.062 104.748 598.164 104.374 598.164 103.784C598.164 103.218 598.142 102.368 598.096 101.234C598.074 100.101 598.04 98.8205 597.994 97.3925C597.972 95.9418 597.96 94.5025 597.96 93.0745C597.96 92.1225 597.96 91.1932 597.96 90.2865C597.96 89.3798 597.96 88.5411 597.96 87.7705C597.96 86.9771 597.96 86.2745 597.96 85.6625C597.96 85.0278 597.96 84.5065 597.96 84.0985C597.96 83.8491 597.949 83.5091 597.926 83.0785C597.904 82.6252 597.87 82.1832 597.824 81.7525C597.802 81.2991 597.768 80.9705 597.722 80.7665H603.366ZM612.546 84.4045C613.453 84.8125 614.462 85.3111 615.572 85.9005C616.683 86.4671 617.748 87.0338 618.768 87.6005C619.788 88.1671 620.616 88.6658 621.25 89.0965L618.802 93.2785C618.394 92.9612 617.828 92.5758 617.102 92.1225C616.377 91.6691 615.584 91.2045 614.722 90.7285C613.884 90.2525 613.068 89.8105 612.274 89.4025C611.504 88.9718 610.858 88.6431 610.336 88.4165L612.546 84.4045ZM591.432 86.0365C592.475 86.1498 593.393 86.2178 594.186 86.2405C595.002 86.2631 595.716 86.2745 596.328 86.2745C597.235 86.2745 598.221 86.2405 599.286 86.1725C600.374 86.0818 601.474 85.9685 602.584 85.8325C603.695 85.6965 604.783 85.5265 605.848 85.3225C606.914 85.1185 607.888 84.8918 608.772 84.6425L608.874 89.7425C607.877 89.9692 606.812 90.1732 605.678 90.3545C604.545 90.5132 603.412 90.6605 602.278 90.7965C601.168 90.9098 600.114 91.0005 599.116 91.0685C598.119 91.1365 597.246 91.1705 596.498 91.1705C595.274 91.1705 594.288 91.1592 593.54 91.1365C592.792 91.1138 592.124 91.0685 591.534 91.0005L591.432 86.0365ZM644.642 84.5065V86.1725H648.042V84.5065H644.642ZM637.298 84.5065V86.1725H640.562V84.5065H637.298ZM629.988 84.5065V86.1725H633.218V84.5065H629.988ZM625.432 80.9025H652.836V89.7765H625.432V80.9025ZM632.164 97.8685V99.0245H645.832V97.8685H632.164ZM632.164 101.846V103.036H645.832V101.846H632.164ZM632.164 93.8905V95.0465H645.832V93.8905H632.164ZM627.2 90.8645H651.034V106.028H627.2V90.8645ZM640.426 107.864L644.37 105.382C645.64 105.79 646.943 106.244 648.28 106.742C649.618 107.241 650.898 107.728 652.122 108.204C653.346 108.68 654.389 109.111 655.25 109.496L649.81 111.91C649.153 111.525 648.314 111.094 647.294 110.618C646.297 110.165 645.209 109.689 644.03 109.19C642.852 108.714 641.65 108.272 640.426 107.864ZM633.15 105.348L637.672 107.388C636.72 108.023 635.61 108.635 634.34 109.224C633.071 109.814 631.756 110.346 630.396 110.822C629.059 111.298 627.79 111.706 626.588 112.046C626.316 111.706 625.954 111.31 625.5 110.856C625.07 110.403 624.616 109.95 624.14 109.496C623.687 109.066 623.279 108.714 622.916 108.442C624.186 108.238 625.455 107.978 626.724 107.66C627.994 107.343 629.184 106.992 630.294 106.606C631.428 106.198 632.38 105.779 633.15 105.348ZM673.236 79.5765L677.69 80.4265C677.282 82.3305 676.772 84.1891 676.16 86.0025C675.548 87.7932 674.846 89.4705 674.052 91.0345C673.282 92.5758 672.443 93.9245 671.536 95.0805C671.287 94.8312 670.924 94.5365 670.448 94.1965C669.995 93.8338 669.53 93.4825 669.054 93.1425C668.578 92.8025 668.17 92.5305 667.83 92.3265C668.714 91.3518 669.496 90.1845 670.176 88.8245C670.879 87.4645 671.48 86.0025 671.978 84.4385C672.5 82.8518 672.919 81.2311 673.236 79.5765ZM684.49 84.6425H689.148C689.148 84.6425 689.137 84.7785 689.114 85.0505C689.114 85.3225 689.114 85.6285 689.114 85.9685C689.114 86.3085 689.103 86.5805 689.08 86.7845C688.944 90.5698 688.797 93.7998 688.638 96.4745C688.48 99.1492 688.31 101.359 688.128 103.104C687.97 104.85 687.766 106.221 687.516 107.218C687.29 108.216 687.018 108.93 686.7 109.36C686.27 109.995 685.839 110.448 685.408 110.72C684.978 111.015 684.468 111.23 683.878 111.366C683.38 111.48 682.79 111.548 682.11 111.57C681.453 111.593 680.75 111.593 680.002 111.57C679.957 110.868 679.81 110.052 679.56 109.122C679.334 108.216 679.028 107.422 678.642 106.742C679.209 106.81 679.73 106.856 680.206 106.878C680.705 106.878 681.113 106.878 681.43 106.878C681.68 106.878 681.884 106.833 682.042 106.742C682.224 106.629 682.416 106.448 682.62 106.198C682.824 105.926 683.017 105.371 683.198 104.532C683.38 103.671 683.55 102.447 683.708 100.86C683.867 99.2512 684.003 97.2112 684.116 94.7405C684.252 92.2471 684.377 89.2325 684.49 85.6965V84.6425ZM674.97 84.6425H686.632V89.1985H672.692L674.97 84.6425ZM676.772 86.1385L680.308 87.8725C679.878 89.7765 679.277 91.7372 678.506 93.7545C677.758 95.7718 676.874 97.6645 675.854 99.4325C674.834 101.2 673.724 102.674 672.522 103.852C672.069 103.399 671.491 102.912 670.788 102.39C670.086 101.869 669.406 101.438 668.748 101.098C669.746 100.328 670.664 99.3872 671.502 98.2765C672.341 97.1432 673.1 95.9078 673.78 94.5705C674.46 93.2105 675.05 91.8165 675.548 90.3885C676.047 88.9378 676.455 87.5212 676.772 86.1385ZM681.43 86.6485L685.204 88.3825C684.796 90.5585 684.275 92.7345 683.64 94.9105C683.006 97.0638 682.246 99.1492 681.362 101.166C680.501 103.161 679.504 104.997 678.37 106.674C677.237 108.352 675.968 109.78 674.562 110.958C674.109 110.482 673.497 109.972 672.726 109.428C671.978 108.884 671.264 108.442 670.584 108.102C672.08 107.037 673.406 105.734 674.562 104.192C675.741 102.628 676.772 100.894 677.656 98.9905C678.54 97.0865 679.288 95.0918 679.9 93.0065C680.535 90.8985 681.045 88.7792 681.43 86.6485ZM656.78 97.9365C657.914 97.6872 659.194 97.3925 660.622 97.0525C662.073 96.6898 663.592 96.2932 665.178 95.8625C666.788 95.4318 668.374 95.0012 669.938 94.5705L670.584 98.9225C668.454 99.5798 666.266 100.237 664.022 100.894C661.801 101.552 659.772 102.141 657.936 102.662L656.78 97.9365ZM662.73 79.5765H667.252V111.876H662.73V79.5765ZM658.106 81.5145L662.186 82.1945C662.05 83.6905 661.869 85.1978 661.642 86.7165C661.438 88.2352 661.178 89.6745 660.86 91.0345C660.566 92.3718 660.214 93.5505 659.806 94.5705C659.557 94.3665 659.217 94.1285 658.786 93.8565C658.378 93.5618 657.948 93.2785 657.494 93.0065C657.064 92.7118 656.69 92.4852 656.372 92.3265C656.712 91.4425 656.996 90.4111 657.222 89.2325C657.449 88.0538 657.63 86.8071 657.766 85.4925C657.925 84.1552 658.038 82.8292 658.106 81.5145ZM659.432 85.9345H669.7V90.6265H658.48L659.432 85.9345ZM692.208 84.8125C692.888 84.7898 693.557 84.7672 694.214 84.7445C694.894 84.6991 695.393 84.6651 695.71 84.6425C696.504 84.5745 697.41 84.4951 698.43 84.4045C699.473 84.3138 700.606 84.2232 701.83 84.1325C703.077 84.0192 704.403 83.9058 705.808 83.7925C707.214 83.6791 708.698 83.5545 710.262 83.4185C711.396 83.3278 712.563 83.2485 713.764 83.1805C714.988 83.0898 716.156 83.0105 717.266 82.9425C718.377 82.8745 719.34 82.8291 720.156 82.8065L720.19 88.1105C719.601 88.1105 718.91 88.1218 718.116 88.1445C717.346 88.1671 716.564 88.2011 715.77 88.2465C715 88.2918 714.297 88.3825 713.662 88.5185C712.756 88.7225 711.883 89.1078 711.044 89.6745C710.228 90.2411 709.503 90.9325 708.868 91.7485C708.234 92.5418 707.735 93.4258 707.372 94.4005C707.01 95.3525 706.828 96.3385 706.828 97.3585C706.828 98.3558 706.998 99.2398 707.338 100.01C707.701 100.781 708.2 101.45 708.834 102.016C709.492 102.56 710.262 103.025 711.146 103.41C712.03 103.773 712.994 104.056 714.036 104.26C715.102 104.464 716.224 104.6 717.402 104.668L715.464 110.38C713.946 110.267 712.484 110.006 711.078 109.598C709.696 109.213 708.415 108.692 707.236 108.034C706.058 107.354 705.026 106.55 704.142 105.62C703.281 104.668 702.601 103.603 702.102 102.424C701.626 101.223 701.388 99.8972 701.388 98.4465C701.388 96.8825 701.615 95.4545 702.068 94.1625C702.544 92.8705 703.111 91.7485 703.768 90.7965C704.448 89.8218 705.094 89.0625 705.706 88.5185C705.117 88.5865 704.426 88.6658 703.632 88.7565C702.839 88.8471 701.978 88.9491 701.048 89.0625C700.119 89.1758 699.167 89.3005 698.192 89.4365C697.24 89.5725 696.288 89.7312 695.336 89.9125C694.407 90.0712 693.534 90.2412 692.718 90.4225L692.208 84.8125ZM715.362 90.9665C715.657 91.3745 715.963 91.8618 716.28 92.4285C716.62 92.9725 716.938 93.5165 717.232 94.0605C717.55 94.6045 717.81 95.0918 718.014 95.5225L714.988 96.8485C714.535 95.8512 714.127 95.0238 713.764 94.3665C713.402 93.6865 712.948 92.9612 712.404 92.1905L715.362 90.9665ZM719.204 89.3345C719.499 89.7425 719.816 90.2185 720.156 90.7625C720.519 91.2838 720.859 91.8165 721.176 92.3605C721.516 92.8818 721.8 93.3465 722.026 93.7545L719.034 95.1825C718.536 94.2078 718.094 93.4032 717.708 92.7685C717.323 92.1338 716.847 91.4311 716.28 90.6605L719.204 89.3345Z" fill="#CC0033"/>
</svg>
