<svg width="636" height="355" viewBox="0 0 636 355" fill="none" xmlns="http://www.w3.org/2000/svg">
<path fill-rule="evenodd" clip-rule="evenodd" d="M319.121 51.7656C317.95 52.9384 316.05 52.9405 314.879 51.7701L295.787 32.6985C294.616 31.5282 294.616 29.6287 295.787 28.4558C296.959 27.283 298.858 27.2809 300.03 28.4513L314 42.407L314 4.00313C314 2.34626 315.343 1.00167 317 0.999895C318.657 0.998123 320 2.33984 320 3.99671L320 42.4006L333.97 28.415C335.142 27.2421 337.042 27.2401 338.213 28.4104C339.385 29.5808 339.385 31.4803 338.213 32.6531L319.121 51.7656Z" fill="#CC0033"/>
<path d="M589.111 320.843L586.719 289.747L586.167 275.119H602.635L602.083 289.747L599.691 320.843H589.111ZM594.355 346.971C591.534 346.971 589.203 345.989 587.363 344.027C585.585 342.003 584.695 339.58 584.695 336.759C584.695 333.876 585.585 331.484 587.363 329.583C589.203 327.62 591.534 326.639 594.355 326.639C597.238 326.639 599.569 327.62 601.347 329.583C603.187 331.484 604.107 333.876 604.107 336.759C604.107 339.58 603.187 342.003 601.347 344.027C599.569 345.989 597.238 346.971 594.355 346.971Z" fill="#CC0033"/>
<path d="M534.554 306.399H548.446V336.207C548.446 338.047 548.6 339.212 548.906 339.703C549.274 340.132 550.133 340.347 551.482 340.347C551.789 340.347 552.218 340.347 552.77 340.347C553.322 340.347 553.905 340.347 554.518 340.347C555.193 340.347 555.806 340.347 556.358 340.347C556.972 340.347 557.462 340.347 557.83 340.347C558.75 340.347 559.425 339.979 559.854 339.243C560.345 338.507 560.713 337.065 560.958 334.919C561.204 332.772 561.388 329.552 561.51 325.259C562.492 325.995 563.718 326.731 565.19 327.467C566.662 328.203 568.165 328.877 569.698 329.491C571.293 330.043 572.673 330.472 573.838 330.779C573.409 336.421 572.673 340.868 571.63 344.119C570.649 347.308 569.146 349.547 567.122 350.835C565.16 352.184 562.492 352.859 559.118 352.859C558.566 352.859 557.83 352.859 556.91 352.859C556.052 352.859 555.132 352.859 554.15 352.859C553.169 352.859 552.218 352.859 551.298 352.859C550.44 352.859 549.734 352.859 549.182 352.859C545.318 352.859 542.313 352.337 540.166 351.295C538.081 350.252 536.609 348.504 535.75 346.051C534.953 343.659 534.554 340.408 534.554 336.299V306.399ZM488.646 297.659H571.906V310.631H488.646V297.659ZM497.202 273.095H563.074V285.975H497.202V273.095ZM508.334 307.963H522.778C522.41 312.992 521.797 317.776 520.938 322.315C520.141 326.792 518.792 330.993 516.89 334.919C514.989 338.844 512.229 342.432 508.61 345.683C504.992 348.933 500.208 351.755 494.258 354.147C493.522 352.429 492.357 350.497 490.762 348.351C489.168 346.204 487.604 344.487 486.07 343.199C491.1 341.359 495.056 339.212 497.938 336.759C500.821 334.244 502.968 331.515 504.378 328.571C505.789 325.565 506.74 322.345 507.23 318.911C507.721 315.415 508.089 311.765 508.334 307.963Z" fill="#CC0033"/>
<path d="M417.622 302.626V337.31H404.834V314.954H395.266V302.626H417.622ZM417.622 332.066C419.156 334.888 421.333 336.973 424.154 338.322C427.037 339.61 430.625 340.346 434.918 340.53C437.801 340.653 441.236 340.745 445.222 340.806C449.209 340.806 453.38 340.776 457.734 340.714C462.15 340.653 466.474 340.53 470.706 340.346C475 340.162 478.864 339.917 482.298 339.61C481.808 340.592 481.286 341.88 480.734 343.474C480.182 345.008 479.661 346.572 479.17 348.166C478.741 349.822 478.404 351.294 478.158 352.582C475.153 352.766 471.749 352.889 467.946 352.95C464.205 353.073 460.341 353.134 456.354 353.134C452.368 353.196 448.504 353.196 444.762 353.134C441.021 353.073 437.678 352.981 434.734 352.858C429.521 352.613 425.105 351.785 421.486 350.374C417.868 348.964 414.709 346.51 412.01 343.014C410.293 344.732 408.484 346.418 406.582 348.074C404.681 349.792 402.565 351.632 400.234 353.594L394.07 340.254C395.972 339.089 397.965 337.832 400.05 336.482C402.136 335.072 404.129 333.6 406.03 332.066H417.622ZM395.266 276.958L405.478 269.414C407.196 270.764 408.974 272.297 410.814 274.014C412.654 275.67 414.372 277.357 415.966 279.074C417.561 280.73 418.849 282.294 419.83 283.766L408.79 292.23C407.993 290.758 406.828 289.133 405.294 287.354C403.822 285.514 402.197 283.705 400.418 281.926C398.64 280.086 396.922 278.43 395.266 276.958ZM418.174 290.574H480.366V299.59H418.174V290.574ZM437.494 308.698V311.826H460.494V308.698H437.494ZM425.166 301.614H473.742V318.91H425.166V301.614ZM444.486 312.654L455.618 316.518C453.349 319.585 450.589 322.468 447.338 325.166C444.088 327.865 440.592 330.288 436.85 332.434C433.17 334.52 429.46 336.298 425.718 337.77C425.228 336.912 424.522 335.869 423.602 334.642C422.682 333.416 421.732 332.189 420.75 330.962C419.83 329.736 418.972 328.754 418.174 328.018C421.67 326.976 425.074 325.688 428.386 324.154C431.76 322.621 434.826 320.873 437.586 318.91C440.408 316.948 442.708 314.862 444.486 312.654ZM470.062 314.034L479.354 320.474C476.901 322.008 474.509 323.48 472.178 324.89C469.909 326.24 467.854 327.374 466.014 328.294L459.114 322.958C460.28 322.222 461.537 321.333 462.886 320.29C464.236 319.248 465.554 318.174 466.842 317.07C468.13 315.966 469.204 314.954 470.062 314.034ZM453.686 316.61C455.342 318.757 457.489 320.689 460.126 322.406C462.764 324.062 465.83 325.473 469.326 326.638C472.822 327.742 476.594 328.57 480.642 329.122C479.416 330.288 478.097 331.852 476.686 333.814C475.276 335.777 474.172 337.525 473.374 339.058C468.958 338.077 464.91 336.697 461.23 334.918C457.55 333.078 454.3 330.84 451.478 328.202C448.657 325.565 446.234 322.59 444.21 319.278L453.686 316.61ZM460.954 276.406V281.466H464.726V276.406H460.954ZM447.338 276.406V281.466H451.018V276.406H447.338ZM433.722 276.406V281.466H437.402V276.406H433.722ZM422.59 269.23H476.502V288.642H422.59V269.23ZM441.818 314.954H454.514V339.426H441.818V314.954Z" fill="#CC0033"/>
<path d="M311.256 315.758C307.476 315.758 304.081 314.778 301.071 312.818C298.131 310.788 295.786 307.918 294.036 304.208C292.356 300.428 291.516 295.948 291.516 290.768C291.516 285.518 292.356 281.073 294.036 277.433C295.786 273.723 298.131 270.923 301.071 269.033C304.081 267.073 307.476 266.093 311.256 266.093C315.106 266.093 318.501 267.073 321.441 269.033C324.451 270.923 326.796 273.723 328.476 277.433C330.226 281.073 331.101 285.518 331.101 290.768C331.101 295.948 330.226 300.428 328.476 304.208C326.796 307.918 324.451 310.788 321.441 312.818C318.501 314.778 315.106 315.758 311.256 315.758ZM311.256 305.468C313.076 305.468 314.651 304.383 315.981 302.213C317.381 300.043 318.081 296.228 318.081 290.768C318.081 285.308 317.381 281.563 315.981 279.533C314.651 277.433 313.076 276.383 311.256 276.383C309.436 276.383 307.826 277.433 306.426 279.533C305.096 281.563 304.431 285.308 304.431 290.768C304.431 296.228 305.096 300.043 306.426 302.213C307.826 304.383 309.436 305.468 311.256 305.468ZM313.986 347.153L356.091 266.093H366.801L324.696 347.153H313.986ZM369.426 347.153C365.646 347.153 362.251 346.173 359.241 344.213C356.301 342.183 353.956 339.313 352.206 335.603C350.526 331.823 349.686 327.343 349.686 322.163C349.686 316.913 350.526 312.468 352.206 308.828C353.956 305.118 356.301 302.283 359.241 300.323C362.251 298.363 365.646 297.383 369.426 297.383C373.206 297.383 376.566 298.363 379.506 300.323C382.516 302.283 384.861 305.118 386.541 308.828C388.291 312.468 389.166 316.913 389.166 322.163C389.166 327.343 388.291 331.823 386.541 335.603C384.861 339.313 382.516 342.183 379.506 344.213C376.566 346.173 373.206 347.153 369.426 347.153ZM369.426 336.758C371.246 336.758 372.821 335.708 374.151 333.608C375.551 331.438 376.251 327.623 376.251 322.163C376.251 316.633 375.551 312.853 374.151 310.823C372.821 308.793 371.246 307.778 369.426 307.778C367.606 307.778 365.996 308.793 364.596 310.823C363.266 312.853 362.601 316.633 362.601 322.163C362.601 327.623 363.266 331.438 364.596 333.608C365.996 335.708 367.606 336.758 369.426 336.758Z" fill="#CC0033"/>
<path d="M246.281 345.683V237.323C245.049 237.995 243.649 238.667 242.081 239.339C240.513 240.011 238.833 240.739 237.041 241.523C235.361 242.195 233.681 242.867 232.001 243.539C230.433 244.211 228.977 244.883 227.633 245.555V224.723C228.865 224.051 230.601 223.155 232.841 222.035C235.081 220.803 237.489 219.459 240.065 218.003C242.641 216.547 245.049 215.091 247.289 213.635C249.529 212.067 251.209 210.723 252.329 209.603H274.337V345.683H246.281Z" fill="#CC0033"/>
<path d="M181.64 345.683V237.323C180.408 237.995 179.008 238.667 177.44 239.339C175.872 240.011 174.192 240.739 172.4 241.523C170.72 242.195 169.04 242.867 167.36 243.539C165.792 244.211 164.336 244.883 162.992 245.555V224.723C164.224 224.051 165.96 223.155 168.2 222.035C170.44 220.803 172.848 219.459 175.424 218.003C178 216.547 180.408 215.091 182.648 213.635C184.888 212.067 186.568 210.723 187.688 209.603H209.696V345.683H181.64Z" fill="#CC0033"/>
<path d="M118.28 314.68H150.98V323.32H118.28V314.68ZM130.1 295H138.98V351.7H130.1V295ZM96.5 313.24H116.24V319.72H96.5V313.24ZM96.86 296.44H116.36V302.92H96.86V296.44ZM96.5 321.52H116.24V328H96.5V321.52ZM93.5 304.66H118.64V311.44H93.5V304.66ZM100.46 329.98H116.06V348.64H100.46V341.86H108.44V336.76H100.46V329.98ZM96.26 329.98H103.76V350.8H96.26V329.98Z" fill="#CC0033"/>
<path d="M47.1213 313.96H77.1213V321.58H47.1213V313.96ZM46.5813 342.1H76.8813V349.72H46.5813V342.1ZM42.7413 326.68H81.8613V351.82H72.8613V334.3H51.3213V351.82H42.7413V326.68ZM61.7613 303.28C60.1213 305.56 58.0813 307.88 55.6413 310.24C53.2012 312.6 50.5013 314.86 47.5413 317.02C44.5813 319.18 41.4813 321.12 38.2413 322.84C37.8813 322.16 37.3813 321.38 36.7413 320.5C36.1413 319.62 35.4813 318.76 34.7613 317.92C34.0813 317.08 33.4213 316.36 32.7812 315.76C36.2213 314.12 39.5013 312.12 42.6213 309.76C45.7413 307.4 48.5213 304.9 50.9613 302.26C53.4413 299.62 55.4013 297.12 56.8413 294.76H65.9613C67.6013 297.08 69.3813 299.28 71.3013 301.36C73.2613 303.4 75.3213 305.3 77.4813 307.06C79.6813 308.78 81.9413 310.32 84.2613 311.68C86.6213 313 89.0013 314.12 91.4013 315.04C90.3213 316.16 89.3013 317.42 88.3413 318.82C87.3813 320.18 86.5013 321.54 85.7013 322.9C83.4213 321.7 81.1213 320.34 78.8013 318.82C76.4813 317.26 74.2613 315.62 72.1413 313.9C70.0213 312.14 68.0613 310.36 66.2613 308.56C64.5013 306.76 63.0013 305 61.7613 303.28Z" fill="#CC0033"/>
<path d="M95.1844 245.24H148.944V254.3H95.1844V245.24ZM126.864 248.9C128.024 253.34 129.624 257.48 131.664 261.32C133.704 265.12 136.264 268.46 139.344 271.34C142.464 274.22 146.164 276.5 150.444 278.18C149.724 278.82 148.944 279.64 148.104 280.64C147.304 281.6 146.524 282.6 145.764 283.64C145.044 284.68 144.444 285.62 143.964 286.46C139.244 284.26 135.224 281.46 131.904 278.06C128.624 274.62 125.884 270.64 123.684 266.12C121.484 261.56 119.604 256.5 118.044 250.94L126.864 248.9ZM116.904 229.7H126.504C126.464 232.98 126.364 236.38 126.204 239.9C126.084 243.38 125.784 246.88 125.304 250.4C124.824 253.88 124.044 257.32 122.964 260.72C121.924 264.12 120.464 267.38 118.584 270.5C116.704 273.62 114.284 276.54 111.324 279.26C108.404 281.94 104.824 284.34 100.584 286.46C99.9044 285.26 98.9444 283.96 97.7044 282.56C96.5044 281.16 95.2644 279.98 93.9844 279.02C97.9844 277.18 101.324 275.1 104.004 272.78C106.724 270.46 108.904 267.94 110.544 265.22C112.224 262.5 113.504 259.68 114.384 256.76C115.264 253.8 115.864 250.8 116.184 247.76C116.504 244.68 116.684 241.62 116.724 238.58C116.804 235.54 116.864 232.58 116.904 229.7Z" fill="#CC0033"/>
<path d="M50.2984 243.62V245.12H73.2184V243.62H50.2984ZM50.2984 237.08V238.52H73.2184V237.08H50.2984ZM41.9584 231.62H81.9784V250.58H41.9584V231.62ZM34.9384 252.08H88.9984V258.92H34.9384V252.08ZM62.8984 260.3H81.5584V266.84H62.8984V260.3ZM44.8984 260.36H57.9184V266.24H44.8984V260.36ZM44.8984 267.86H57.9184V273.74H44.8984V267.86ZM70.8784 266.18C72.5184 269.46 74.9984 272.3 78.3184 274.7C81.6384 277.1 85.6184 278.82 90.2584 279.86C89.6984 280.38 89.0784 281.04 88.3984 281.84C87.7584 282.64 87.1384 283.46 86.5384 284.3C85.9784 285.18 85.5184 285.96 85.1584 286.64C80.0384 285.12 75.7384 282.8 72.2584 279.68C68.8184 276.52 66.0384 272.66 63.9184 268.1L70.8784 266.18ZM79.0384 260.3H80.5384L81.9784 260.06L87.3784 262.04C86.2584 266.28 84.6584 270 82.5784 273.2C80.5384 276.36 78.0784 279.06 75.1984 281.3C72.3184 283.54 69.0584 285.38 65.4184 286.82C64.9384 285.78 64.2384 284.58 63.3184 283.22C62.3984 281.9 61.5384 280.84 60.7384 280.04C63.0184 279.32 65.1384 278.36 67.0984 277.16C69.0984 275.96 70.8784 274.56 72.4384 272.96C74.0384 271.36 75.3984 269.6 76.5184 267.68C77.6384 265.76 78.4784 263.7 79.0384 261.5V260.3ZM34.3984 276.32C36.4384 276.24 38.7184 276.14 41.2384 276.02C43.7984 275.86 46.4784 275.7 49.2784 275.54C52.1184 275.34 54.9384 275.16 57.7384 275V282.02C53.7384 282.34 49.7384 282.64 45.7384 282.92C41.7384 283.24 38.1384 283.52 34.9384 283.76L34.3984 276.32ZM53.4784 254.3H61.8184V286.7H53.4784V254.3ZM39.3784 254.48H47.2984V279.08H39.3784V254.48Z" fill="#CC0033"/>
<path d="M589.789 139.548C590.829 139.513 591.852 139.479 592.857 139.444C593.897 139.375 594.66 139.323 595.145 139.288C596.358 139.184 597.745 139.063 599.305 138.924C600.9 138.785 602.633 138.647 604.505 138.508C606.412 138.335 608.44 138.161 610.589 137.988C612.738 137.815 615.009 137.624 617.401 137.416C619.134 137.277 620.92 137.156 622.757 137.052C624.629 136.913 626.414 136.792 628.113 136.688C629.812 136.584 631.285 136.515 632.533 136.48L632.585 144.592C631.684 144.592 630.626 144.609 629.413 144.644C628.234 144.679 627.038 144.731 625.825 144.8C624.646 144.869 623.572 145.008 622.601 145.216C621.214 145.528 619.88 146.117 618.597 146.984C617.349 147.851 616.24 148.908 615.269 150.156C614.298 151.369 613.536 152.721 612.981 154.212C612.426 155.668 612.149 157.176 612.149 158.736C612.149 160.261 612.409 161.613 612.929 162.792C613.484 163.971 614.246 164.993 615.217 165.86C616.222 166.692 617.401 167.403 618.753 167.992C620.105 168.547 621.578 168.98 623.173 169.292C624.802 169.604 626.518 169.812 628.321 169.916L625.357 178.652C623.034 178.479 620.798 178.08 618.649 177.456C616.534 176.867 614.576 176.069 612.773 175.064C610.97 174.024 609.393 172.793 608.041 171.372C606.724 169.916 605.684 168.287 604.921 166.484C604.193 164.647 603.829 162.619 603.829 160.4C603.829 158.008 604.176 155.824 604.869 153.848C605.597 151.872 606.464 150.156 607.469 148.7C608.509 147.209 609.497 146.048 610.433 145.216C609.532 145.32 608.474 145.441 607.261 145.58C606.048 145.719 604.73 145.875 603.309 146.048C601.888 146.221 600.432 146.412 598.941 146.62C597.485 146.828 596.029 147.071 594.573 147.348C593.152 147.591 591.817 147.851 590.569 148.128L589.789 139.548ZM625.201 148.96C625.652 149.584 626.12 150.329 626.605 151.196C627.125 152.028 627.61 152.86 628.061 153.692C628.546 154.524 628.945 155.269 629.257 155.928L624.629 157.956C623.936 156.431 623.312 155.165 622.757 154.16C622.202 153.12 621.509 152.011 620.677 150.832L625.201 148.96ZM631.077 146.464C631.528 147.088 632.013 147.816 632.533 148.648C633.088 149.445 633.608 150.26 634.093 151.092C634.613 151.889 635.046 152.6 635.393 153.224L630.817 155.408C630.054 153.917 629.378 152.687 628.789 151.716C628.2 150.745 627.472 149.671 626.605 148.492L631.077 146.464Z" fill="#CC0033"/>
<path d="M560.769 131.54L567.581 132.84C566.957 135.752 566.177 138.595 565.241 141.368C564.305 144.107 563.23 146.672 562.017 149.064C560.838 151.421 559.555 153.484 558.169 155.252C557.787 154.871 557.233 154.42 556.505 153.9C555.811 153.345 555.101 152.808 554.373 152.288C553.645 151.768 553.021 151.352 552.501 151.04C553.853 149.549 555.049 147.764 556.089 145.684C557.163 143.604 558.082 141.368 558.845 138.976C559.642 136.549 560.283 134.071 560.769 131.54ZM577.981 139.288H585.105C585.105 139.288 585.087 139.496 585.053 139.912C585.053 140.328 585.053 140.796 585.053 141.316C585.053 141.836 585.035 142.252 585.001 142.564C584.793 148.353 584.567 153.293 584.325 157.384C584.082 161.475 583.822 164.855 583.545 167.524C583.302 170.193 582.99 172.291 582.609 173.816C582.262 175.341 581.846 176.433 581.361 177.092C580.702 178.063 580.043 178.756 579.385 179.172C578.726 179.623 577.946 179.952 577.045 180.16C576.282 180.333 575.381 180.437 574.341 180.472C573.335 180.507 572.261 180.507 571.117 180.472C571.047 179.397 570.822 178.149 570.441 176.728C570.094 175.341 569.626 174.128 569.037 173.088C569.903 173.192 570.701 173.261 571.429 173.296C572.191 173.296 572.815 173.296 573.301 173.296C573.682 173.296 573.994 173.227 574.237 173.088C574.514 172.915 574.809 172.637 575.121 172.256C575.433 171.84 575.727 170.991 576.005 169.708C576.282 168.391 576.542 166.519 576.785 164.092C577.027 161.631 577.235 158.511 577.409 154.732C577.617 150.919 577.807 146.308 577.981 140.9V139.288ZM563.421 139.288H581.257V146.256H559.937L563.421 139.288ZM566.177 141.576L571.585 144.228C570.926 147.14 570.007 150.139 568.829 153.224C567.685 156.309 566.333 159.204 564.773 161.908C563.213 164.612 561.514 166.865 559.677 168.668C558.983 167.975 558.099 167.229 557.025 166.432C555.95 165.635 554.91 164.976 553.905 164.456C555.43 163.277 556.834 161.839 558.117 160.14C559.399 158.407 560.561 156.517 561.601 154.472C562.641 152.392 563.542 150.26 564.305 148.076C565.067 145.857 565.691 143.691 566.177 141.576ZM573.301 142.356L579.073 145.008C578.449 148.336 577.651 151.664 576.681 154.992C575.71 158.285 574.549 161.475 573.197 164.56C571.879 167.611 570.354 170.419 568.621 172.984C566.887 175.549 564.946 177.733 562.797 179.536C562.103 178.808 561.167 178.028 559.989 177.196C558.845 176.364 557.753 175.688 556.713 175.168C559.001 173.539 561.029 171.545 562.797 169.188C564.599 166.796 566.177 164.144 567.529 161.232C568.881 158.32 570.025 155.269 570.961 152.08C571.931 148.856 572.711 145.615 573.301 142.356ZM535.601 159.62C537.334 159.239 539.293 158.788 541.477 158.268C543.695 157.713 546.018 157.107 548.445 156.448C550.906 155.789 553.333 155.131 555.725 154.472L556.713 161.128C553.454 162.133 550.109 163.139 546.677 164.144C543.279 165.149 540.177 166.051 537.369 166.848L535.601 159.62ZM544.701 131.54H551.617V180.94H544.701V131.54ZM537.629 134.504L543.869 135.544C543.661 137.832 543.383 140.137 543.037 142.46C542.725 144.783 542.326 146.984 541.841 149.064C541.39 151.109 540.853 152.912 540.229 154.472C539.847 154.16 539.327 153.796 538.669 153.38C538.045 152.929 537.386 152.496 536.693 152.08C536.034 151.629 535.462 151.283 534.977 151.04C535.497 149.688 535.93 148.111 536.277 146.308C536.623 144.505 536.901 142.599 537.109 140.588C537.351 138.543 537.525 136.515 537.629 134.504ZM539.657 141.264H555.361V148.44H538.201L539.657 141.264Z" fill="#CC0033"/>
<path d="M517.041 139.08V141.628H522.241V139.08H517.041ZM505.809 139.08V141.628H510.801V139.08H505.809ZM494.629 139.08V141.628H499.569V139.08H494.629ZM487.661 133.568H529.573V147.14H487.661V133.568ZM497.957 159.516V161.284H518.861V159.516H497.957ZM497.957 165.6V167.42H518.861V165.6H497.957ZM497.957 153.432V155.2H518.861V153.432H497.957ZM490.365 148.804H526.817V171.996H490.365V148.804ZM510.593 174.804L516.625 171.008C518.566 171.632 520.559 172.325 522.604 173.088C524.65 173.851 526.609 174.596 528.481 175.324C530.353 176.052 531.947 176.711 533.265 177.3L524.945 180.992C523.939 180.403 522.656 179.744 521.096 179.016C519.571 178.323 517.907 177.595 516.104 176.832C514.302 176.104 512.465 175.428 510.593 174.804ZM499.465 170.956L506.381 174.076C504.925 175.047 503.226 175.983 501.285 176.884C499.343 177.785 497.333 178.6 495.253 179.328C493.207 180.056 491.266 180.68 489.428 181.2C489.012 180.68 488.458 180.073 487.764 179.38C487.106 178.687 486.413 177.993 485.685 177.3C484.991 176.641 484.367 176.104 483.812 175.688C485.754 175.376 487.695 174.977 489.637 174.492C491.578 174.007 493.398 173.469 495.096 172.88C496.83 172.256 498.286 171.615 499.465 170.956Z" fill="#CC0033"/>
<path d="M453.913 133.36C453.844 133.672 453.775 134.157 453.705 134.816C453.636 135.44 453.567 136.081 453.497 136.74C453.428 137.399 453.376 137.953 453.341 138.404C453.272 139.583 453.203 140.744 453.133 141.888C453.099 142.997 453.064 144.107 453.029 145.216C452.995 146.325 452.96 147.435 452.925 148.544C452.925 149.653 452.925 150.78 452.925 151.924C452.925 153.38 452.943 155.009 452.977 156.812C453.012 158.58 453.047 160.348 453.081 162.116C453.151 163.849 453.203 165.427 453.237 166.848C453.272 168.269 453.289 169.344 453.289 170.072C453.289 172.499 453.012 174.388 452.457 175.74C451.937 177.057 451.192 177.959 450.221 178.444C449.285 178.964 448.193 179.224 446.945 179.224C445.559 179.224 444.103 178.947 442.577 178.392C441.052 177.872 439.631 177.127 438.313 176.156C437.031 175.22 435.973 174.111 435.141 172.828C434.344 171.545 433.945 170.159 433.945 168.668C433.945 166.9 434.604 165.149 435.921 163.416C437.239 161.683 438.989 160.105 441.173 158.684C443.357 157.228 445.732 156.067 448.297 155.2C450.62 154.403 453.012 153.813 455.473 153.432C457.969 153.051 460.171 152.86 462.077 152.86C464.816 152.86 467.312 153.328 469.565 154.264C471.853 155.165 473.673 156.5 475.025 158.268C476.412 160.036 477.105 162.203 477.105 164.768C477.105 166.779 476.741 168.668 476.013 170.436C475.32 172.169 474.124 173.695 472.425 175.012C470.727 176.295 468.387 177.317 465.405 178.08C464.192 178.323 462.996 178.513 461.817 178.652C460.639 178.791 459.477 178.912 458.333 179.016L455.473 170.852C456.721 170.852 457.9 170.835 459.009 170.8C460.119 170.731 461.107 170.627 461.973 170.488C463.325 170.245 464.521 169.881 465.561 169.396C466.601 168.876 467.416 168.235 468.005 167.472C468.595 166.675 468.889 165.756 468.889 164.716C468.889 163.676 468.612 162.792 468.057 162.064C467.503 161.336 466.705 160.781 465.665 160.4C464.66 159.984 463.429 159.776 461.973 159.776C459.859 159.776 457.657 160.001 455.369 160.452C453.116 160.868 451.019 161.44 449.077 162.168C447.621 162.723 446.339 163.347 445.229 164.04C444.12 164.733 443.253 165.444 442.629 166.172C442.005 166.9 441.693 167.611 441.693 168.304C441.693 168.616 441.78 168.911 441.953 169.188C442.161 169.465 442.404 169.708 442.681 169.916C442.993 170.124 443.305 170.297 443.617 170.436C443.929 170.54 444.207 170.592 444.449 170.592C444.831 170.592 445.177 170.488 445.489 170.28C445.801 170.037 445.957 169.465 445.957 168.564C445.957 167.697 445.923 166.397 445.853 164.664C445.819 162.931 445.767 160.972 445.697 158.788C445.663 156.569 445.645 154.368 445.645 152.184C445.645 150.728 445.645 149.307 445.645 147.92C445.645 146.533 445.645 145.251 445.645 144.072C445.645 142.859 445.645 141.784 445.645 140.848C445.645 139.877 445.645 139.08 445.645 138.456C445.645 138.075 445.628 137.555 445.593 136.896C445.559 136.203 445.507 135.527 445.437 134.868C445.403 134.175 445.351 133.672 445.281 133.36H453.913ZM467.953 138.924C469.34 139.548 470.883 140.311 472.581 141.212C474.28 142.079 475.909 142.945 477.469 143.812C479.029 144.679 480.295 145.441 481.265 146.1L477.521 152.496C476.897 152.011 476.031 151.421 474.921 150.728C473.812 150.035 472.599 149.324 471.281 148.596C469.999 147.868 468.751 147.192 467.537 146.568C466.359 145.909 465.371 145.407 464.573 145.06L467.953 138.924ZM435.661 141.42C437.256 141.593 438.66 141.697 439.873 141.732C441.121 141.767 442.213 141.784 443.149 141.784C444.536 141.784 446.044 141.732 447.673 141.628C449.337 141.489 451.019 141.316 452.717 141.108C454.416 140.9 456.08 140.64 457.709 140.328C459.339 140.016 460.829 139.669 462.181 139.288L462.337 147.088C460.812 147.435 459.183 147.747 457.449 148.024C455.716 148.267 453.983 148.492 452.249 148.7C450.551 148.873 448.939 149.012 447.413 149.116C445.888 149.22 444.553 149.272 443.409 149.272C441.537 149.272 440.029 149.255 438.885 149.22C437.741 149.185 436.719 149.116 435.817 149.012L435.661 141.42Z" fill="#CC0033"/>
<path d="M410.026 140.276C409.645 142.911 409.177 145.719 408.622 148.7C408.068 151.681 407.288 154.801 406.283 158.06C405.277 161.527 404.081 164.56 402.694 167.16C401.308 169.76 399.748 171.788 398.014 173.244C396.316 174.7 394.444 175.428 392.398 175.428C390.249 175.428 388.308 174.735 386.574 173.348C384.876 171.927 383.524 170.02 382.518 167.628C381.548 165.201 381.062 162.515 381.062 159.568C381.062 156.483 381.687 153.571 382.935 150.832C384.183 148.059 385.916 145.615 388.134 143.5C390.353 141.385 392.953 139.721 395.935 138.508C398.916 137.295 402.14 136.688 405.607 136.688C408.935 136.688 411.916 137.225 414.551 138.3C417.22 139.34 419.49 140.813 421.362 142.72C423.269 144.627 424.725 146.863 425.73 149.428C426.736 151.959 427.238 154.697 427.238 157.644C427.238 161.284 426.511 164.577 425.055 167.524C423.599 170.436 421.397 172.88 418.451 174.856C415.504 176.797 411.777 178.149 407.271 178.912L402.486 171.424C403.596 171.285 404.532 171.147 405.294 171.008C406.057 170.835 406.82 170.661 407.582 170.488C409.246 170.072 410.755 169.483 412.107 168.72C413.459 167.957 414.62 167.021 415.59 165.912C416.561 164.803 417.307 163.537 417.827 162.116C418.347 160.66 418.607 159.083 418.607 157.384C418.607 155.373 418.312 153.553 417.723 151.924C417.168 150.295 416.318 148.891 415.174 147.712C414.065 146.533 412.696 145.632 411.066 145.008C409.437 144.384 407.565 144.072 405.451 144.072C402.746 144.072 400.372 144.557 398.327 145.528C396.316 146.464 394.635 147.695 393.283 149.22C391.931 150.711 390.908 152.305 390.215 154.004C389.556 155.703 389.227 157.28 389.227 158.736C389.227 160.227 389.382 161.492 389.694 162.532C390.006 163.537 390.405 164.3 390.891 164.82C391.411 165.34 391.983 165.6 392.607 165.6C393.3 165.6 393.941 165.253 394.53 164.56C395.154 163.867 395.744 162.844 396.298 161.492C396.888 160.105 397.494 158.407 398.118 156.396C398.916 153.935 399.592 151.283 400.146 148.44C400.701 145.563 401.1 142.755 401.342 140.016L410.026 140.276Z" fill="#CC0033"/>
<path d="M341.016 138.352C340.877 139.08 340.756 139.895 340.652 140.796C340.548 141.697 340.461 142.564 340.392 143.396C340.322 144.228 340.288 144.904 340.288 145.424C340.288 146.568 340.288 147.712 340.288 148.856C340.322 150 340.357 151.144 340.392 152.288C340.426 153.397 340.496 154.541 340.6 155.72C340.808 157.973 341.085 159.984 341.432 161.752C341.778 163.485 342.246 164.855 342.836 165.86C343.46 166.831 344.274 167.316 345.28 167.316C345.869 167.316 346.424 166.969 346.944 166.276C347.464 165.583 347.932 164.699 348.348 163.624C348.798 162.549 349.18 161.44 349.492 160.296C349.804 159.152 350.064 158.147 350.272 157.28L356.616 165.08C355.402 168.131 354.206 170.575 353.028 172.412C351.849 174.215 350.618 175.515 349.336 176.312C348.053 177.109 346.649 177.508 345.124 177.508C343.078 177.508 341.172 176.884 339.404 175.636C337.67 174.353 336.18 172.291 334.932 169.448C333.718 166.571 332.869 162.775 332.384 158.06C332.21 156.396 332.072 154.68 331.968 152.912C331.898 151.144 331.846 149.463 331.812 147.868C331.812 146.273 331.812 144.939 331.812 143.864C331.812 143.067 331.777 142.165 331.708 141.16C331.638 140.12 331.517 139.149 331.344 138.248L341.016 138.352ZM366.444 139.34C367.449 140.519 368.42 141.992 369.356 143.76C370.292 145.528 371.141 147.435 371.904 149.48C372.701 151.525 373.394 153.605 373.984 155.72C374.573 157.8 375.041 159.811 375.388 161.752C375.769 163.693 376.012 165.409 376.116 166.9L367.744 170.124C367.57 168.148 367.258 165.895 366.808 163.364C366.392 160.833 365.802 158.251 365.04 155.616C364.312 152.947 363.393 150.416 362.284 148.024C361.209 145.632 359.909 143.604 358.384 141.94L366.444 139.34Z" fill="#CC0033"/>
<path d="M303.736 132.84L312.004 134.14C311.519 137.746 310.947 141.403 310.288 145.112C309.664 148.787 308.971 152.41 308.208 155.98C307.48 159.551 306.717 162.948 305.92 166.172C305.123 169.362 304.325 172.274 303.528 174.908L296.352 173.452C297.149 170.783 297.912 167.802 298.64 164.508C299.403 161.215 300.113 157.766 300.772 154.16C301.431 150.555 302.003 146.95 302.488 143.344C303.008 139.704 303.424 136.203 303.736 132.84ZM291.36 171.892C293.648 171.684 296.3 171.424 299.316 171.112C302.367 170.8 305.591 170.454 308.988 170.072C312.385 169.691 315.731 169.31 319.024 168.928L319.284 176C316.233 176.486 313.148 176.954 310.028 177.404C306.943 177.855 303.944 178.288 301.032 178.704C298.12 179.12 295.451 179.502 293.024 179.848L291.36 171.892ZM309.82 156.864L316.58 154.576C317.828 157.038 319.059 159.69 320.272 162.532C321.52 165.34 322.629 168.096 323.6 170.8C324.605 173.504 325.333 175.931 325.784 178.08L318.244 180.888C317.967 179.328 317.533 177.56 316.944 175.584C316.389 173.608 315.731 171.563 314.968 169.448C314.205 167.299 313.373 165.15 312.472 163C311.605 160.851 310.721 158.806 309.82 156.864ZM276.332 141.056H296.716V148.076H276.332V141.056ZM283.196 131.488H290.58V172.932C290.58 174.735 290.389 176.139 290.008 177.144C289.627 178.15 288.933 178.947 287.928 179.536C286.888 180.091 285.64 180.455 284.184 180.628C282.728 180.836 280.995 180.94 278.984 180.94C278.845 179.935 278.568 178.739 278.152 177.352C277.771 176 277.337 174.839 276.852 173.868C277.892 173.903 278.932 173.938 279.972 173.972C281.047 173.972 281.775 173.972 282.156 173.972C282.537 173.938 282.797 173.851 282.936 173.712C283.109 173.539 283.196 173.262 283.196 172.88V131.488ZM275.5 157.072C277.303 156.83 279.365 156.535 281.688 156.188C284.045 155.842 286.507 155.46 289.072 155.044C291.672 154.594 294.237 154.16 296.768 153.744L297.288 160.4C294.965 160.886 292.608 161.371 290.216 161.856C287.859 162.307 285.553 162.758 283.3 163.208C281.047 163.659 278.949 164.075 277.008 164.456L275.5 157.072Z" fill="#CC0033"/>
<path d="M254.585 176.728C252.123 176.728 249.974 176.104 248.137 174.856C246.334 173.608 244.93 171.823 243.925 169.5C242.954 167.177 242.469 164.404 242.469 161.18C242.469 157.956 243.058 155.2 244.237 152.912C245.415 150.589 246.941 148.804 248.813 147.556C250.685 146.308 252.643 145.684 254.689 145.684C256.318 145.684 257.67 145.961 258.745 146.516C259.819 147.071 260.842 147.816 261.813 148.752L261.501 144.332V134.452H270.757V176H263.217L262.541 173.14H262.333C261.293 174.18 260.097 175.047 258.745 175.74C257.393 176.399 256.006 176.728 254.585 176.728ZM257.029 169.136C257.93 169.136 258.727 168.963 259.421 168.616C260.149 168.269 260.842 167.611 261.501 166.64V154.992C260.807 154.333 260.062 153.883 259.265 153.64C258.467 153.363 257.67 153.224 256.873 153.224C256.041 153.224 255.243 153.501 254.481 154.056C253.753 154.611 253.146 155.46 252.661 156.604C252.21 157.748 251.985 159.239 251.985 161.076C251.985 162.948 252.175 164.491 252.557 165.704C252.973 166.883 253.562 167.749 254.325 168.304C255.087 168.859 255.989 169.136 257.029 169.136Z" fill="#CC0033"/>
<path d="M214.233 148.96C215.585 148.96 216.798 149.289 217.873 149.948C218.982 150.607 219.866 151.491 220.525 152.6C221.184 153.675 221.513 154.888 221.513 156.24C221.513 157.557 221.184 158.771 220.525 159.88C219.866 160.989 218.982 161.873 217.873 162.532C216.798 163.191 215.585 163.52 214.233 163.52C212.916 163.52 211.702 163.191 210.593 162.532C209.484 161.873 208.6 160.989 207.941 159.88C207.282 158.771 206.953 157.557 206.953 156.24C206.953 154.888 207.282 153.675 207.941 152.6C208.6 151.491 209.484 150.607 210.593 149.948C211.702 149.289 212.916 148.96 214.233 148.96Z" fill="#CC0033"/>
<path d="M172.427 136.584C172.947 137.347 173.502 138.196 174.091 139.132C174.68 140.068 175.235 141.004 175.755 141.94C176.31 142.841 176.778 143.691 177.159 144.488L171.803 146.828C171.248 145.615 170.746 144.592 170.295 143.76C169.879 142.928 169.428 142.131 168.943 141.368C168.492 140.571 167.92 139.704 167.227 138.768L172.427 136.584ZM179.551 133.62C180.106 134.348 180.678 135.163 181.267 136.064C181.891 136.965 182.48 137.867 183.035 138.768C183.59 139.669 184.058 140.501 184.439 141.264L179.239 143.812C178.65 142.599 178.112 141.593 177.627 140.796C177.142 139.964 176.656 139.184 176.171 138.456C175.686 137.728 175.096 136.913 174.403 136.012L179.551 133.62ZM150.327 171.58C150.327 170.817 150.327 169.673 150.327 168.148C150.327 166.588 150.327 164.82 150.327 162.844C150.327 160.868 150.327 158.823 150.327 156.708C150.327 154.559 150.327 152.496 150.327 150.52C150.327 148.544 150.327 146.793 150.327 145.268C150.327 143.743 150.327 142.616 150.327 141.888C150.327 140.848 150.275 139.704 150.171 138.456C150.067 137.208 149.911 136.099 149.703 135.128H159.531C159.427 136.099 159.306 137.156 159.167 138.3C159.063 139.444 159.011 140.64 159.011 141.888C159.011 142.616 159.011 143.743 159.011 145.268C159.011 146.793 159.011 148.544 159.011 150.52C159.011 152.496 159.011 154.541 159.011 156.656C159.011 158.771 159.011 160.833 159.011 162.844C159.011 164.82 159.011 166.588 159.011 168.148C159.011 169.673 159.011 170.817 159.011 171.58C159.011 172.031 159.028 172.741 159.063 173.712C159.132 174.648 159.219 175.636 159.323 176.676C159.427 177.716 159.514 178.635 159.583 179.432H149.703C149.876 178.323 150.015 177.005 150.119 175.48C150.258 173.955 150.327 172.655 150.327 171.58ZM157.139 148.492C158.872 148.943 160.831 149.532 163.015 150.26C165.199 150.953 167.4 151.699 169.619 152.496C171.838 153.293 173.9 154.073 175.807 154.836C177.748 155.599 179.308 156.275 180.487 156.864L176.899 165.652C175.443 164.889 173.848 164.144 172.115 163.416C170.416 162.653 168.683 161.925 166.915 161.232C165.182 160.504 163.466 159.845 161.767 159.256C160.103 158.632 158.56 158.077 157.139 157.592V148.492Z" fill="#CC0033"/>
<path d="M88.7031 151.04C89.3965 151.075 90.2805 151.127 91.3551 151.196C92.4645 151.265 93.5911 151.317 94.7351 151.352C95.8791 151.387 96.8671 151.404 97.6991 151.404C98.7738 151.404 99.9698 151.404 101.287 151.404C102.639 151.404 104.06 151.404 105.551 151.404C107.042 151.404 108.55 151.404 110.075 151.404C111.635 151.404 113.16 151.404 114.651 151.404C116.142 151.404 117.563 151.404 118.915 151.404C120.267 151.404 121.48 151.404 122.555 151.404C123.664 151.404 124.583 151.404 125.311 151.404C126.49 151.404 127.651 151.352 128.795 151.248C129.974 151.144 130.944 151.075 131.707 151.04V160.972C131.048 160.937 130.078 160.885 128.795 160.816C127.547 160.712 126.386 160.66 125.311 160.66C124.583 160.66 123.664 160.66 122.555 160.66C121.446 160.66 120.215 160.66 118.863 160.66C117.511 160.66 116.09 160.66 114.599 160.66C113.108 160.66 111.583 160.66 110.023 160.66C108.498 160.66 106.99 160.66 105.499 160.66C104.008 160.66 102.587 160.66 101.235 160.66C99.9178 160.66 98.7391 160.66 97.6991 160.66C96.2085 160.66 94.5965 160.695 92.8631 160.764C91.1645 160.833 89.7778 160.903 88.7031 160.972V151.04Z" fill="#CC0033"/>
<path d="M60.6216 133.828C60.5523 134.452 60.483 135.267 60.4136 136.272C60.3443 137.277 60.2923 138.092 60.2576 138.716C60.119 143.812 59.703 148.371 59.0096 152.392C58.351 156.379 57.363 159.967 56.0456 163.156C54.7283 166.311 52.995 169.171 50.8456 171.736C48.731 174.301 46.1483 176.676 43.0976 178.86L35.7656 172.932C36.979 172.239 38.2616 171.424 39.6136 170.488C41.0003 169.517 42.283 168.408 43.4616 167.16C45.195 165.357 46.599 163.433 47.6736 161.388C48.783 159.343 49.6323 157.176 50.2216 154.888C50.811 152.565 51.2096 150.087 51.4176 147.452C51.6603 144.783 51.7816 141.923 51.7816 138.872C51.7816 138.491 51.7643 137.988 51.7296 137.364C51.695 136.705 51.643 136.064 51.5736 135.44C51.5043 134.781 51.435 134.244 51.3656 133.828H60.6216ZM78.0416 145.164C77.9723 145.58 77.8856 146.1 77.7816 146.724C77.7123 147.313 77.6776 147.747 77.6776 148.024C77.643 149.203 77.5736 150.676 77.4696 152.444C77.4003 154.177 77.279 156.049 77.1056 158.06C76.967 160.036 76.7763 162.012 76.5336 163.988C76.3256 165.964 76.0656 167.801 75.7536 169.5C75.4416 171.164 75.0603 172.551 74.6096 173.66C74.055 175.081 73.1883 176.173 72.0096 176.936C70.8656 177.733 69.3056 178.132 67.3296 178.132C65.735 178.132 64.175 178.08 62.6496 177.976C61.1243 177.872 59.755 177.768 58.5416 177.664L57.5536 169.24C58.767 169.483 59.9976 169.673 61.2456 169.812C62.5283 169.951 63.655 170.02 64.6256 170.02C65.527 170.02 66.1683 169.864 66.5496 169.552C66.931 169.24 67.243 168.755 67.4856 168.096C67.7283 167.507 67.9536 166.709 68.1616 165.704C68.3696 164.699 68.543 163.572 68.6816 162.324C68.855 161.041 68.9936 159.707 69.0976 158.32C69.2363 156.933 69.323 155.581 69.3576 154.264C69.427 152.912 69.4616 151.664 69.4616 150.52H45.2296C44.4323 150.52 43.3056 150.537 41.8496 150.572C40.4283 150.607 39.111 150.676 37.8976 150.78V142.564C39.111 142.703 40.3936 142.807 41.7456 142.876C43.0976 142.945 44.259 142.98 45.2296 142.98H68.3696C69.0283 142.98 69.7216 142.945 70.4496 142.876C71.2123 142.807 71.9576 142.703 72.6856 142.564L78.0416 145.164Z" fill="#CC0033"/>
<path d="M12.3582 176.728C9.89685 176.728 7.74752 176.104 5.91019 174.856C4.10752 173.608 2.70352 171.823 1.69819 169.5C0.727521 167.177 0.242188 164.404 0.242188 161.18C0.242188 157.956 0.831521 155.2 2.01019 152.912C3.18885 150.589 4.71419 148.804 6.58619 147.556C8.45819 146.308 10.4169 145.684 12.4622 145.684C14.0915 145.684 15.4435 145.961 16.5182 146.516C17.5929 147.071 18.6155 147.816 19.5862 148.752L19.2742 144.332V134.452H28.5302V176H20.9902L20.3142 173.14H20.1062C19.0662 174.18 17.8702 175.047 16.5182 175.74C15.1662 176.399 13.7795 176.728 12.3582 176.728ZM14.8022 169.136C15.7035 169.136 16.5009 168.963 17.1942 168.616C17.9222 168.269 18.6155 167.611 19.2742 166.64V154.992C18.5809 154.333 17.8355 153.883 17.0382 153.64C16.2409 153.363 15.4435 153.224 14.6462 153.224C13.8142 153.224 13.0169 153.501 12.2542 154.056C11.5262 154.611 10.9195 155.46 10.4342 156.604C9.98352 157.748 9.75819 159.239 9.75819 161.076C9.75819 162.948 9.94886 164.491 10.3302 165.704C10.7462 166.883 11.3355 167.749 12.0982 168.304C12.8609 168.859 13.7622 169.136 14.8022 169.136Z" fill="#CC0033"/>
<path d="M511.68 119.952C510.675 118.704 509.531 117.404 508.248 116.052C507 114.7 505.718 113.383 504.4 112.1C503.118 110.783 501.87 109.604 500.656 108.564L507.26 102.896C508.474 103.901 509.791 105.097 511.212 106.484C512.668 107.871 514.038 109.257 515.32 110.644C516.603 112.031 517.626 113.209 518.388 114.18L511.68 119.952Z" fill="#CC0033"/>
<path d="M467.011 83.3962C468.536 83.5348 470.062 83.6562 471.587 83.7602C473.147 83.8295 474.724 83.8642 476.319 83.8642C479.508 83.8642 482.698 83.7255 485.887 83.4482C489.076 83.1362 492.04 82.6855 494.779 82.0962V89.9482C492.075 90.3295 489.128 90.6242 485.939 90.8322C482.75 91.0402 479.56 91.1615 476.371 91.1962C474.811 91.1962 473.251 91.1788 471.691 91.1442C470.131 91.0748 468.588 90.9882 467.063 90.8842L467.011 83.3962ZM487.707 74.9202C487.638 75.4055 487.568 75.9602 487.499 76.5842C487.464 77.2082 487.43 77.8148 487.395 78.4042C487.36 78.9242 487.326 79.6522 487.291 80.5882C487.256 81.5242 487.222 82.5988 487.187 83.8122C487.187 84.9908 487.187 86.2735 487.187 87.6602C487.187 90.2602 487.222 92.6175 487.291 94.7322C487.395 96.8122 487.499 98.7015 487.603 100.4C487.707 102.064 487.794 103.589 487.863 104.976C487.967 106.328 488.019 107.593 488.019 108.772C488.019 110.297 487.811 111.684 487.395 112.932C486.979 114.145 486.338 115.185 485.471 116.052C484.604 116.953 483.478 117.629 482.091 118.08C480.739 118.565 479.092 118.808 477.151 118.808C473.476 118.808 470.53 118.045 468.311 116.52C466.092 114.995 464.983 112.759 464.983 109.812C464.983 107.871 465.486 106.189 466.491 104.768C467.496 103.312 468.9 102.203 470.703 101.44C472.506 100.643 474.62 100.244 477.047 100.244C479.647 100.244 481.987 100.521 484.067 101.076C486.182 101.631 488.088 102.359 489.787 103.26C491.486 104.161 492.976 105.132 494.259 106.172C495.576 107.177 496.72 108.131 497.691 109.032L493.427 115.636C491.347 113.66 489.354 111.979 487.447 110.592C485.54 109.205 483.686 108.148 481.883 107.42C480.08 106.692 478.26 106.328 476.423 106.328C475.21 106.328 474.222 106.553 473.459 107.004C472.731 107.455 472.367 108.096 472.367 108.928C472.367 109.829 472.766 110.471 473.563 110.852C474.36 111.199 475.314 111.372 476.423 111.372C477.255 111.372 477.931 111.216 478.451 110.904C478.971 110.592 479.335 110.124 479.543 109.5C479.786 108.876 479.907 108.096 479.907 107.16C479.907 106.293 479.872 105.167 479.803 103.78C479.734 102.359 479.647 100.781 479.543 99.0482C479.474 97.3148 479.404 95.4775 479.335 93.5362C479.266 91.5948 479.231 89.6362 479.231 87.6602C479.231 85.5802 479.214 83.7082 479.179 82.0442C479.179 80.3802 479.162 79.2015 479.127 78.5082C479.127 78.1268 479.075 77.5722 478.971 76.8442C478.902 76.1162 478.815 75.4748 478.711 74.9202H487.707ZM462.487 75.5962C462.348 75.9775 462.175 76.5322 461.967 77.2602C461.759 77.9882 461.568 78.6988 461.395 79.3922C461.256 80.0855 461.152 80.5882 461.083 80.9002C460.944 81.4548 460.771 82.3215 460.563 83.5002C460.39 84.6788 460.182 86.0482 459.939 87.6082C459.731 89.1335 459.523 90.7108 459.315 92.3402C459.107 93.9695 458.934 95.5122 458.795 96.9682C458.691 98.3895 458.639 99.5855 458.639 100.556C458.639 100.625 458.639 100.816 458.639 101.128C458.639 101.44 458.656 101.648 458.691 101.752C458.899 101.232 459.107 100.764 459.315 100.348C459.558 99.9322 459.783 99.5162 459.991 99.1002C460.234 98.6842 460.459 98.2162 460.667 97.6962L464.463 100.764C463.943 102.324 463.423 103.919 462.903 105.548C462.418 107.143 461.984 108.651 461.603 110.072C461.222 111.493 460.927 112.707 460.719 113.712C460.65 114.059 460.58 114.492 460.511 115.012C460.442 115.497 460.407 115.879 460.407 116.156C460.407 116.433 460.407 116.78 460.407 117.196C460.407 117.647 460.424 118.08 460.459 118.496L453.335 119.016C452.78 117.248 452.278 114.908 451.827 111.996C451.411 109.084 451.203 105.86 451.203 102.324C451.203 100.348 451.272 98.3028 451.411 96.1882C451.584 94.0388 451.775 91.9762 451.983 90.0002C452.226 88.0242 452.451 86.2388 452.659 84.6442C452.902 83.0148 453.092 81.7148 453.231 80.7442C453.335 79.9468 453.439 79.0108 453.543 77.9362C453.682 76.8615 453.768 75.8388 453.803 74.8682L462.487 75.5962Z" fill="#CC0033"/>
<path d="M399.25 80.432H442.826V107.472H434.87V87.868H406.842V107.732H399.25V80.432ZM403.15 97.592H439.238V105.028H403.15V97.592ZM416.826 71.54H424.834V120.94H416.826V71.54Z" fill="#CC0033"/>
<path d="M355.883 75.6479C356.785 76.2719 357.842 77.0519 359.055 77.988C360.269 78.8893 361.517 79.8773 362.799 80.952C364.117 81.9919 365.347 83.0319 366.491 84.0719C367.67 85.0773 368.641 85.9959 369.403 86.8279L362.955 93.4319C362.262 92.6693 361.378 91.7853 360.303 90.7799C359.229 89.7399 358.067 88.6826 356.819 87.608C355.571 86.4986 354.341 85.4586 353.127 84.4879C351.914 83.5173 350.839 82.7026 349.903 82.0439L355.883 75.6479ZM348.188 110.176C350.753 109.829 353.179 109.344 355.467 108.72C357.79 108.096 359.974 107.368 362.02 106.536C364.065 105.704 365.937 104.803 367.635 103.832C370.755 102.029 373.598 99.984 376.163 97.6959C378.729 95.3733 380.965 92.9639 382.871 90.4679C384.813 87.9373 386.355 85.4586 387.499 83.0319L392.387 91.9239C391.001 94.3853 389.285 96.8119 387.24 99.2039C385.194 101.561 382.889 103.797 380.323 105.912C377.793 108.027 375.071 109.933 372.159 111.632C370.391 112.672 368.485 113.66 366.439 114.596C364.394 115.497 362.279 116.277 360.095 116.936C357.911 117.629 355.727 118.149 353.543 118.496L348.188 110.176Z" fill="#CC0033"/>
<path d="M298 91.04C298.693 91.0747 299.577 91.1267 300.652 91.196C301.761 91.2654 302.888 91.3174 304.032 91.352C305.176 91.3867 306.164 91.404 306.996 91.404C308.071 91.404 309.267 91.404 310.584 91.404C311.936 91.404 313.357 91.404 314.848 91.404C316.339 91.404 317.847 91.404 319.372 91.404C320.932 91.404 322.457 91.404 323.948 91.404C325.439 91.404 326.86 91.404 328.212 91.404C329.564 91.404 330.777 91.404 331.852 91.404C332.961 91.404 333.88 91.404 334.608 91.404C335.787 91.404 336.948 91.352 338.092 91.248C339.271 91.144 340.241 91.0747 341.004 91.04V100.972C340.345 100.937 339.375 100.885 338.092 100.816C336.844 100.712 335.683 100.66 334.608 100.66C333.88 100.66 332.961 100.66 331.852 100.66C330.743 100.66 329.512 100.66 328.16 100.66C326.808 100.66 325.387 100.66 323.896 100.66C322.405 100.66 320.88 100.66 319.32 100.66C317.795 100.66 316.287 100.66 314.796 100.66C313.305 100.66 311.884 100.66 310.532 100.66C309.215 100.66 308.036 100.66 306.996 100.66C305.505 100.66 303.893 100.695 302.16 100.764C300.461 100.833 299.075 100.903 298 100.972V91.04Z" fill="#CC0033"/>
<path d="M279.644 83.812C279.644 84.644 279.939 85.3547 280.528 85.944C281.117 86.5333 281.828 86.828 282.66 86.828C283.492 86.828 284.203 86.5333 284.792 85.944C285.381 85.3547 285.676 84.644 285.676 83.812C285.676 82.98 285.381 82.2693 284.792 81.68C284.203 81.0907 283.492 80.796 282.66 80.796C281.828 80.796 281.117 81.0907 280.528 81.68C279.939 82.2693 279.644 82.98 279.644 83.812ZM275.692 83.812C275.692 82.4947 276.004 81.316 276.628 80.276C277.252 79.2013 278.084 78.352 279.124 77.728C280.199 77.104 281.377 76.792 282.66 76.792C283.977 76.792 285.156 77.104 286.196 77.728C287.271 78.352 288.12 79.2013 288.744 80.276C289.368 81.316 289.68 82.4947 289.68 83.812C289.68 85.0947 289.368 86.2733 288.744 87.348C288.12 88.388 287.271 89.22 286.196 89.844C285.156 90.468 283.977 90.78 282.66 90.78C281.377 90.78 280.199 90.468 279.124 89.844C278.084 89.22 277.252 88.388 276.628 87.348C276.004 86.2733 275.692 85.0947 275.692 83.812ZM242.828 100.556C243.66 99.8627 244.423 99.204 245.116 98.58C245.809 97.9213 246.589 97.1587 247.456 96.292C248.045 95.7027 248.704 94.992 249.432 94.16C250.16 93.328 250.957 92.4093 251.824 91.404C252.691 90.364 253.575 89.2893 254.476 88.18C255.412 87.036 256.348 85.9093 257.284 84.8C258.913 82.8587 260.612 81.8013 262.38 81.628C264.183 81.42 266.159 82.3387 268.308 84.384C269.556 85.528 270.787 86.724 272 87.972C273.213 89.1853 274.392 90.3987 275.536 91.612C276.715 92.8253 277.824 94.004 278.864 95.148C280.043 96.396 281.377 97.8173 282.868 99.412C284.359 101.007 285.884 102.636 287.444 104.3C289.004 105.964 290.443 107.507 291.76 108.928L284.792 116.416C283.683 114.995 282.487 113.504 281.204 111.944C279.956 110.349 278.725 108.807 277.512 107.316C276.299 105.791 275.207 104.456 274.236 103.312C273.473 102.376 272.641 101.405 271.74 100.4C270.839 99.36 269.955 98.3547 269.088 97.384C268.221 96.3787 267.424 95.4947 266.696 94.732C265.968 93.9347 265.396 93.3107 264.98 92.86C264.217 92.0973 263.524 91.7333 262.9 91.768C262.311 91.8027 261.687 92.2533 261.028 93.12C260.577 93.7093 260.04 94.4373 259.416 95.304C258.827 96.136 258.203 97.02 257.544 97.956C256.885 98.892 256.244 99.8107 255.62 100.712C254.996 101.613 254.441 102.411 253.956 103.104C253.332 104.005 252.708 104.924 252.084 105.86C251.46 106.796 250.905 107.645 250.42 108.408L242.828 100.556Z" fill="#CC0033"/>
<path d="M202.477 75.6479C203.379 76.2719 204.436 77.0519 205.649 77.988C206.863 78.8893 208.111 79.8773 209.393 80.952C210.711 81.9919 211.941 83.0319 213.085 84.0719C214.264 85.0773 215.235 85.9959 215.997 86.8279L209.549 93.4319C208.856 92.6693 207.972 91.7853 206.897 90.7799C205.823 89.7399 204.661 88.6826 203.413 87.608C202.165 86.4986 200.935 85.4586 199.721 84.4879C198.508 83.5173 197.433 82.7026 196.497 82.0439L202.477 75.6479ZM194.781 110.176C197.347 109.829 199.773 109.344 202.061 108.72C204.384 108.096 206.568 107.368 208.613 106.536C210.659 105.704 212.531 104.803 214.229 103.832C217.349 102.029 220.192 99.984 222.757 97.6959C225.323 95.3733 227.559 92.9639 229.465 90.4679C231.407 87.9373 232.949 85.4586 234.093 83.0319L238.981 91.9239C237.595 94.3853 235.879 96.8119 233.833 99.2039C231.788 101.561 229.483 103.797 226.917 105.912C224.387 108.027 221.665 109.933 218.753 111.632C216.985 112.672 215.079 113.66 213.033 114.596C210.988 115.497 208.873 116.277 206.689 116.936C204.505 117.629 202.321 118.149 200.137 118.496L194.781 110.176Z" fill="#CC0033"/>
<path d="M158.799 82.3042C158.903 82.9975 159.042 83.7082 159.215 84.4362C159.388 85.1642 159.544 85.8749 159.683 86.5682C160.03 87.7815 160.428 89.2202 160.879 90.8842C161.33 92.5135 161.815 94.2642 162.335 96.1362C162.855 98.0082 163.375 99.8975 163.895 101.804C164.415 103.676 164.918 105.479 165.403 107.212C165.888 108.911 166.322 110.436 166.703 111.788C167.084 113.14 167.396 114.215 167.639 115.012C167.743 115.29 167.882 115.723 168.055 116.312C168.228 116.936 168.419 117.56 168.627 118.184C168.835 118.808 169.008 119.311 169.147 119.692L160.619 121.772C160.515 121.01 160.376 120.178 160.203 119.276C160.03 118.375 159.822 117.543 159.579 116.78C159.336 115.948 159.024 114.822 158.643 113.4C158.296 111.979 157.88 110.384 157.395 108.616C156.944 106.814 156.459 104.959 155.939 103.052C155.454 101.111 154.968 99.2215 154.483 97.3842C153.998 95.5122 153.53 93.7962 153.079 92.2362C152.663 90.6415 152.299 89.3242 151.987 88.2842C151.814 87.5909 151.571 86.9149 151.259 86.2562C150.982 85.5629 150.687 84.9042 150.375 84.2802L158.799 82.3042ZM183.759 90.8322C183.204 91.9762 182.494 93.3109 181.627 94.8362C180.76 96.3269 179.807 97.8695 178.767 99.4642C177.727 101.024 176.687 102.532 175.647 103.988C174.607 105.41 173.619 106.64 172.683 107.68L165.767 104.248C166.564 103.52 167.414 102.636 168.315 101.596C169.251 100.522 170.118 99.4469 170.915 98.3722C171.747 97.2975 172.354 96.3962 172.735 95.6682C172.319 95.7375 171.591 95.8762 170.551 96.0842C169.546 96.2922 168.332 96.5522 166.911 96.8642C165.524 97.1415 163.999 97.4535 162.335 97.8002C160.706 98.1469 159.059 98.5109 157.395 98.8922C155.731 99.2389 154.136 99.5855 152.611 99.9322C151.086 100.244 149.734 100.539 148.555 100.816C147.376 101.059 146.458 101.25 145.799 101.388L143.875 93.9002C144.742 93.8309 145.574 93.7442 146.371 93.6402C147.168 93.5362 148.018 93.4149 148.919 93.2762C149.335 93.2069 150.063 93.0855 151.103 92.9122C152.143 92.7389 153.374 92.5135 154.795 92.2362C156.216 91.9589 157.742 91.6642 159.371 91.3522C161.035 91.0402 162.699 90.7282 164.363 90.4162C166.027 90.1042 167.604 89.8095 169.095 89.5322C170.62 89.2202 171.955 88.9602 173.099 88.7522C174.243 88.5095 175.11 88.3189 175.699 88.1802C176.219 88.0762 176.739 87.9375 177.259 87.7642C177.814 87.5909 178.282 87.4175 178.663 87.2442L183.759 90.8322Z" fill="#CC0033"/>
<path d="M103.678 78.6641C103.505 77.8668 103.314 77.1388 103.106 76.4801C102.933 75.8214 102.742 75.1628 102.534 74.5041L111.426 73.1001C111.496 73.6201 111.565 74.2961 111.634 75.1281C111.738 75.9601 111.86 76.7054 111.998 77.3641C112.102 77.9534 112.258 78.9241 112.466 80.2761C112.709 81.5934 113.004 83.1881 113.35 85.0601C113.697 86.8974 114.078 88.8908 114.494 91.0401C114.91 93.1548 115.326 95.3041 115.742 97.4881C116.158 99.6721 116.557 101.769 116.938 103.78C117.32 105.756 117.666 107.541 117.978 109.136C118.29 110.696 118.533 111.927 118.706 112.828C118.88 113.591 119.088 114.44 119.33 115.376C119.573 116.312 119.816 117.231 120.058 118.132L111.01 119.692C110.872 118.687 110.768 117.716 110.698 116.78C110.629 115.844 110.508 114.995 110.334 114.232C110.196 113.435 109.988 112.291 109.71 110.8C109.468 109.309 109.156 107.593 108.774 105.652C108.428 103.711 108.046 101.665 107.63 99.5161C107.214 97.3668 106.798 95.2174 106.382 93.0681C106.001 90.8841 105.62 88.8388 105.238 86.9321C104.892 85.0254 104.58 83.3614 104.302 81.9401C104.025 80.4841 103.817 79.3921 103.678 78.6641ZM89.7422 84.8001C90.6435 84.7308 91.5102 84.6788 92.3422 84.6441C93.2089 84.5748 94.0409 84.4881 94.8382 84.3841C95.5662 84.2801 96.6235 84.1414 98.0102 83.9681C99.3969 83.7601 100.974 83.5348 102.742 83.2921C104.545 83.0148 106.4 82.7374 108.306 82.4601C110.248 82.1481 112.12 81.8534 113.922 81.5761C115.725 81.2641 117.32 80.9868 118.706 80.7441C120.128 80.5014 121.22 80.3108 121.982 80.1721C122.849 79.9988 123.802 79.8081 124.842 79.6001C125.882 79.3574 126.766 79.1321 127.494 78.9241L129.002 87.1401C128.344 87.1748 127.477 87.2788 126.402 87.4521C125.362 87.5908 124.426 87.7121 123.594 87.8161C122.658 87.9548 121.428 88.1454 119.902 88.3881C118.377 88.6308 116.696 88.9081 114.858 89.2201C113.021 89.4974 111.149 89.7921 109.242 90.1041C107.336 90.4161 105.516 90.7108 103.782 90.9881C102.084 91.2654 100.593 91.5081 99.3102 91.7161C98.0275 91.9241 97.0915 92.0801 96.5022 92.1841C95.6355 92.3574 94.8035 92.5308 94.0062 92.7041C93.2435 92.8774 92.3769 93.1028 91.4062 93.3801L89.7422 84.8001ZM89.8982 100.192C90.6262 100.157 91.5622 100.088 92.7062 99.9841C93.8502 99.8454 94.8555 99.7068 95.7222 99.5681C96.6582 99.4294 97.9062 99.2388 99.4662 98.9961C101.026 98.7534 102.777 98.4761 104.718 98.1641C106.66 97.8521 108.653 97.5401 110.698 97.2281C112.778 96.8814 114.789 96.5521 116.73 96.2401C118.672 95.8934 120.44 95.5814 122.034 95.3041C123.664 95.0268 124.964 94.8014 125.934 94.6281C126.94 94.4201 127.945 94.1948 128.95 93.9521C129.99 93.7094 130.892 93.4841 131.654 93.2761L133.318 101.544C132.556 101.579 131.62 101.683 130.51 101.856C129.436 102.029 128.396 102.203 127.39 102.376C126.316 102.549 124.946 102.775 123.282 103.052C121.653 103.295 119.85 103.589 117.874 103.936C115.898 104.248 113.87 104.577 111.79 104.924C109.745 105.236 107.769 105.565 105.862 105.912C103.956 106.224 102.24 106.519 100.714 106.796C99.2235 107.039 98.0449 107.247 97.1782 107.42C95.9995 107.628 94.9249 107.819 93.9542 107.992C93.0182 108.165 92.2555 108.339 91.6662 108.512L89.8982 100.192Z" fill="#CC0033"/>
</svg>
