<svg width="73" height="60" viewBox="0 0 73 60" fill="none" xmlns="http://www.w3.org/2000/svg">
<circle cx="36.875" cy="30" r="30" fill="#CC0033"/>
<path d="M17.3795 18.436C17.5615 18.464 17.7645 18.485 17.9885 18.499C18.2195 18.513 18.4225 18.52 18.5975 18.52C18.7375 18.52 18.9195 18.52 19.1435 18.52C19.3745 18.52 19.623 18.52 19.889 18.52C20.155 18.52 20.4175 18.52 20.6765 18.52C20.9425 18.52 21.184 18.52 21.401 18.52C21.625 18.52 21.8 18.52 21.926 18.52C22.122 18.52 22.325 18.513 22.535 18.499C22.745 18.485 22.948 18.464 23.144 18.436V20.0635C22.948 20.0495 22.745 20.039 22.535 20.032C22.332 20.025 22.129 20.0215 21.926 20.0215C21.8 20.0215 21.625 20.0215 21.401 20.0215C21.184 20.0215 20.9425 20.0215 20.6765 20.0215C20.4175 20.0215 20.155 20.0215 19.889 20.0215C19.623 20.0215 19.3745 20.0215 19.1435 20.0215C18.9195 20.0215 18.7375 20.0215 18.5975 20.0215C18.4155 20.0215 18.209 20.025 17.978 20.032C17.754 20.039 17.5545 20.0495 17.3795 20.0635V18.436ZM16.1825 21.145C16.3435 21.166 16.5185 21.1835 16.7075 21.1975C16.9035 21.2115 17.082 21.2185 17.243 21.2185C17.341 21.2185 17.5265 21.2185 17.7995 21.2185C18.0725 21.2185 18.4015 21.2185 18.7865 21.2185C19.1715 21.2185 19.5845 21.2185 20.0255 21.2185C20.4665 21.2185 20.9075 21.2185 21.3485 21.2185C21.7895 21.2185 22.2025 21.2185 22.5875 21.2185C22.9725 21.2185 23.3015 21.2185 23.5745 21.2185C23.8475 21.2185 24.0295 21.2185 24.1205 21.2185C24.2325 21.2185 24.397 21.215 24.614 21.208C24.831 21.194 25.013 21.173 25.16 21.145V22.7935C25.02 22.7795 24.852 22.7725 24.656 22.7725C24.46 22.7655 24.2815 22.762 24.1205 22.762C24.0295 22.762 23.8475 22.762 23.5745 22.762C23.3015 22.762 22.9725 22.762 22.5875 22.762C22.2025 22.762 21.7895 22.762 21.3485 22.762C20.9075 22.762 20.4665 22.762 20.0255 22.762C19.5845 22.762 19.1715 22.762 18.7865 22.762C18.4015 22.762 18.0725 22.762 17.7995 22.762C17.5265 22.762 17.341 22.762 17.243 22.762C17.089 22.762 16.9105 22.7655 16.7075 22.7725C16.5045 22.7795 16.3295 22.79 16.1825 22.804V21.145ZM21.8 22.048C21.8 22.748 21.7335 23.3675 21.6005 23.9065C21.4675 24.4385 21.2925 24.9215 21.0755 25.3555C20.9565 25.6005 20.7885 25.8525 20.5715 26.1115C20.3615 26.3705 20.1165 26.6155 19.8365 26.8465C19.5635 27.0775 19.266 27.2735 18.944 27.4345L17.453 26.3635C17.803 26.2305 18.146 26.031 18.482 25.765C18.825 25.492 19.1015 25.2085 19.3115 24.9145C19.5775 24.5225 19.7595 24.0885 19.8575 23.6125C19.9625 23.1295 20.015 22.6115 20.015 22.0585L21.8 22.048ZM23.816 17.785C23.907 17.911 24.0015 18.065 24.0995 18.247C24.2045 18.422 24.3025 18.597 24.3935 18.772C24.4915 18.947 24.572 19.0975 24.635 19.2235L23.6375 19.6435C23.5255 19.4265 23.396 19.1815 23.249 18.9085C23.109 18.6285 22.969 18.387 22.829 18.184L23.816 17.785ZM25.1075 17.281C25.1985 17.414 25.2965 17.5715 25.4015 17.7535C25.5065 17.9285 25.608 18.1035 25.706 18.2785C25.804 18.4465 25.881 18.59 25.937 18.709L24.95 19.129C24.845 18.912 24.7155 18.667 24.5615 18.394C24.4075 18.114 24.2605 17.876 24.1205 17.68L25.1075 17.281ZM26.903 21.46C27.043 21.467 27.2215 21.4775 27.4385 21.4915C27.6625 21.5055 27.89 21.516 28.121 21.523C28.352 21.53 28.5515 21.5335 28.7195 21.5335C28.9365 21.5335 29.178 21.5335 29.444 21.5335C29.717 21.5335 30.004 21.5335 30.305 21.5335C30.606 21.5335 30.9105 21.5335 31.2185 21.5335C31.5335 21.5335 31.8415 21.5335 32.1425 21.5335C32.4435 21.5335 32.7305 21.5335 33.0035 21.5335C33.2765 21.5335 33.5215 21.5335 33.7385 21.5335C33.9625 21.5335 34.148 21.5335 34.295 21.5335C34.533 21.5335 34.7675 21.523 34.9985 21.502C35.2365 21.481 35.4325 21.467 35.5865 21.46V23.4655C35.4535 23.4585 35.2575 23.448 34.9985 23.434C34.7465 23.413 34.512 23.4025 34.295 23.4025C34.148 23.4025 33.9625 23.4025 33.7385 23.4025C33.5145 23.4025 33.266 23.4025 32.993 23.4025C32.72 23.4025 32.433 23.4025 32.132 23.4025C31.831 23.4025 31.523 23.4025 31.208 23.4025C30.9 23.4025 30.5955 23.4025 30.2945 23.4025C29.9935 23.4025 29.7065 23.4025 29.4335 23.4025C29.1675 23.4025 28.9295 23.4025 28.7195 23.4025C28.4185 23.4025 28.093 23.4095 27.743 23.4235C27.4 23.4375 27.12 23.4515 26.903 23.4655V21.46ZM41.078 21.523C41.393 21.705 41.7465 21.922 42.1385 22.174C42.5305 22.426 42.926 22.6885 43.325 22.9615C43.731 23.2345 44.109 23.497 44.459 23.749C44.816 24.001 45.11 24.2215 45.341 24.4105L44.123 25.8595C43.899 25.6495 43.612 25.4045 43.262 25.1245C42.919 24.8375 42.5445 24.5435 42.1385 24.2425C41.7395 23.9415 41.3475 23.6545 40.9625 23.3815C40.5775 23.1085 40.238 22.8775 39.944 22.6885L41.078 21.523ZM46.097 19.8115C46.027 19.9235 45.9535 20.0565 45.8765 20.2105C45.8065 20.3575 45.7435 20.5115 45.6875 20.6725C45.5825 20.9735 45.439 21.3165 45.257 21.7015C45.082 22.0795 44.872 22.4715 44.627 22.8775C44.382 23.2835 44.102 23.686 43.787 24.085C43.283 24.715 42.681 25.3135 41.981 25.8805C41.288 26.4475 40.4375 26.927 39.4295 27.319L37.949 26.038C38.726 25.793 39.384 25.5165 39.923 25.2085C40.462 24.8935 40.9205 24.5645 41.2985 24.2215C41.6835 23.8785 42.0195 23.539 42.3065 23.203C42.5235 22.951 42.7335 22.6675 42.9365 22.3525C43.1395 22.0375 43.3145 21.726 43.4615 21.418C43.6155 21.103 43.7205 20.8265 43.7765 20.5885H40.4165L40.9835 19.15H43.7765C43.9515 19.15 44.1335 19.1395 44.3225 19.1185C44.5185 19.0905 44.683 19.0555 44.816 19.0135L46.097 19.8115ZM42.6635 18.142C42.5165 18.352 42.373 18.576 42.233 18.814C42.093 19.052 41.988 19.2305 41.918 19.3495C41.666 19.7905 41.3475 20.2525 40.9625 20.7355C40.5775 21.2185 40.1575 21.6805 39.7025 22.1215C39.2475 22.5625 38.7855 22.9475 38.3165 23.2765L36.941 22.216C37.564 21.831 38.0855 21.4355 38.5055 21.0295C38.9325 20.6165 39.286 20.221 39.566 19.843C39.853 19.458 40.0875 19.1185 40.2695 18.8245C40.3675 18.6775 40.469 18.485 40.574 18.247C40.686 18.002 40.77 17.778 40.826 17.575L42.6635 18.142ZM50.255 19.4965V19.7275H54.14V19.4965H50.255ZM50.255 18.5725V18.8035H54.14V18.5725H50.255ZM48.785 17.8375H55.6835V20.4625H48.785V17.8375ZM50.024 23.728V23.9695H54.413V23.728H50.024ZM50.024 22.7725V23.014H54.413V22.7725H50.024ZM48.596 22.006H55.9145V24.736H48.596V22.006ZM51.5045 22.2475H52.985V26.7415H51.5045V22.2475ZM47.441 20.7145H57.0905V21.775H47.441V20.7145ZM48.428 24.9565H56.093V25.9015H48.428V24.9565ZM47.441 26.1535H57.0905V27.2455H47.441V26.1535ZM13.2437 42.5V40.34H15.6137V34.28H13.5587V32.63C14.1587 32.51 14.6687 32.37 15.0887 32.21C15.5187 32.05 15.9287 31.85 16.3187 31.61H18.2837V40.34H20.2937V42.5H13.2437ZM22.3844 42.5V40.34H24.7544V34.28H22.6994V32.63C23.2994 32.51 23.8094 32.37 24.2294 32.21C24.6594 32.05 25.0694 31.85 25.4594 31.61H27.4244V40.34H29.4344V42.5H22.3844ZM34.93 42.71C34.14 42.71 33.445 42.495 32.845 42.065C32.255 41.625 31.795 40.985 31.465 40.145C31.135 39.295 30.97 38.25 30.97 37.01C30.97 35.77 31.135 34.735 31.465 33.905C31.795 33.075 32.255 32.45 32.845 32.03C33.445 31.61 34.14 31.4 34.93 31.4C35.72 31.4 36.41 31.61 37 32.03C37.59 32.45 38.05 33.075 38.38 33.905C38.71 34.735 38.875 35.77 38.875 37.01C38.875 38.25 38.71 39.295 38.38 40.145C38.05 40.985 37.59 41.625 37 42.065C36.41 42.495 35.72 42.71 34.93 42.71ZM34.93 40.64C35.2 40.64 35.44 40.545 35.65 40.355C35.87 40.155 36.04 39.795 36.16 39.275C36.29 38.745 36.355 37.99 36.355 37.01C36.355 36.03 36.29 35.285 36.16 34.775C36.04 34.265 35.87 33.92 35.65 33.74C35.44 33.56 35.2 33.47 34.93 33.47C34.67 33.47 34.43 33.56 34.21 33.74C33.99 33.92 33.815 34.265 33.685 34.775C33.555 35.285 33.49 36.03 33.49 37.01C33.49 37.99 33.555 38.745 33.685 39.275C33.815 39.795 33.99 40.155 34.21 40.355C34.43 40.545 34.67 40.64 34.93 40.64ZM45.8106 42.71C44.7806 42.71 43.8456 42.495 43.0056 42.065C42.1756 41.635 41.5106 40.995 41.0106 40.145C40.5206 39.295 40.2756 38.24 40.2756 36.98C40.2756 36.05 40.4206 35.225 40.7106 34.505C41.0006 33.775 41.3956 33.16 41.8956 32.66C42.4056 32.16 42.9906 31.78 43.6506 31.52C44.3106 31.26 45.0156 31.13 45.7656 31.13C46.5856 31.13 47.2906 31.28 47.8806 31.58C48.4706 31.87 48.9556 32.205 49.3356 32.585L47.9256 34.295C47.6456 34.045 47.3456 33.84 47.0256 33.68C46.7156 33.51 46.3256 33.425 45.8556 33.425C45.3056 33.425 44.8156 33.565 44.3856 33.845C43.9656 34.115 43.6306 34.51 43.3806 35.03C43.1406 35.54 43.0206 36.16 43.0206 36.89C43.0206 37.63 43.1306 38.265 43.3506 38.795C43.5806 39.315 43.9206 39.715 44.3706 39.995C44.8306 40.265 45.4056 40.4 46.0956 40.4C46.2956 40.4 46.4906 40.375 46.6806 40.325C46.8706 40.275 47.0256 40.205 47.1456 40.115V38.315H45.3756V36.125H49.5306V41.345C49.1406 41.715 48.6156 42.035 47.9556 42.305C47.3056 42.575 46.5906 42.71 45.8106 42.71ZM51.7866 42.5V31.325H55.6866C56.4566 31.325 57.1566 31.41 57.7866 31.58C58.4166 31.74 58.9166 32.02 59.2866 32.42C59.6566 32.82 59.8416 33.38 59.8416 34.1C59.8416 34.43 59.7816 34.76 59.6616 35.09C59.5416 35.41 59.3716 35.7 59.1516 35.96C58.9416 36.21 58.6866 36.395 58.3866 36.515V36.575C58.9466 36.725 59.4166 37.015 59.7966 37.445C60.1766 37.875 60.3666 38.46 60.3666 39.2C60.3666 39.96 60.1716 40.585 59.7816 41.075C59.3916 41.555 58.8666 41.915 58.2066 42.155C57.5466 42.385 56.8116 42.5 56.0016 42.5H51.7866ZM54.4716 35.765H55.5816C56.1516 35.765 56.5666 35.65 56.8266 35.42C57.0966 35.19 57.2316 34.885 57.2316 34.505C57.2316 34.105 57.0966 33.82 56.8266 33.65C56.5566 33.47 56.1416 33.38 55.5816 33.38H54.4716V35.765ZM54.4716 40.445H55.8066C56.4566 40.445 56.9416 40.33 57.2616 40.1C57.5916 39.86 57.7566 39.5 57.7566 39.02C57.7566 38.56 57.5916 38.23 57.2616 38.03C56.9416 37.83 56.4566 37.73 55.8066 37.73H54.4716V40.445Z" fill="white"/>
</svg>
