<svg width="1100" height="280" viewBox="0 0 1100 280" fill="none" xmlns="http://www.w3.org/2000/svg">
<metadata><?xpacket begin="﻿" id="W5M0MpCehiHzreSzNTczkc9d"?>
<x:xmpmeta xmlns:x="adobe:ns:meta/" x:xmptk="Adobe XMP Core 9.1-c002 79.2c0288b, 2024/01/23-06:33:24        ">
   <rdf:RDF xmlns:rdf="http://www.w3.org/1999/02/22-rdf-syntax-ns#">
      <rdf:Description rdf:about=""
            xmlns:xmp="http://ns.adobe.com/xap/1.0/"
            xmlns:xmpMM="http://ns.adobe.com/xap/1.0/mm/"
            xmlns:stEvt="http://ns.adobe.com/xap/1.0/sType/ResourceEvent#">
         <xmp:Rating>4</xmp:Rating>
         <xmp:MetadataDate>2024-07-20T13:43:17+09:00</xmp:MetadataDate>
         <xmpMM:InstanceID>xmp.iid:4e894d13-13ae-d142-a72b-712c1956e13f</xmpMM:InstanceID>
         <xmpMM:DocumentID>xmp.did:4e894d13-13ae-d142-a72b-712c1956e13f</xmpMM:DocumentID>
         <xmpMM:OriginalDocumentID>xmp.did:4e894d13-13ae-d142-a72b-712c1956e13f</xmpMM:OriginalDocumentID>
         <xmpMM:History>
            <rdf:Seq>
               <rdf:li>
                  <rdf:Description>
                     <stEvt:action>saved</stEvt:action>
                     <stEvt:instanceID>xmp.iid:4e894d13-13ae-d142-a72b-712c1956e13f</stEvt:instanceID>
                     <stEvt:when>2024-07-20T13:43:17+09:00</stEvt:when>
                     <stEvt:softwareAgent>Adobe Bridge 2024</stEvt:softwareAgent>
                     <stEvt:changed>/metadata</stEvt:changed>
                  </rdf:Description>
               </rdf:li>
            </rdf:Seq>
         </xmpMM:History>
      </rdf:Description>
   </rdf:RDF>
</x:xmpmeta>
                                                                                                    
                                                                                                    
                                                                                                    
                                                                                                    
                                                                                                    
                                                                                                    
                                                                                                    
                                                                                                    
                                                                                                    
                                                                                                    
                                                                                                    
                                                                                                    
                                                                                                    
                                                                                                    
                                                                                                    
                                                                                                    
                                                                                                    
                                                                                                    
                                                                                                    
                                                                                                    
                           
<?xpacket end="w"?></metadata>
<rect width="1100" height="280" rx="10" fill="#CC0033"/>
<path d="M305 197.74C304.426 197.74 303.95 197.264 303.95 196.69C303.95 196.116 304.426 195.64 305 195.64C305.574 195.64 306.05 196.116 306.05 196.69C306.05 197.264 305.574 197.74 305 197.74ZM305 200.274L309.62 195.654L310.026 196.06L305.406 200.68L310.026 205.3L309.62 205.706L305 201.086L300.366 205.72L299.96 205.314L304.594 200.68L299.974 196.06L300.38 195.654L305 200.274ZM302.06 200.68C302.06 201.254 301.584 201.73 301.01 201.73C300.436 201.73 299.96 201.254 299.96 200.68C299.96 200.106 300.436 199.63 301.01 199.63C301.584 199.63 302.06 200.106 302.06 200.68ZM307.94 200.68C307.94 200.106 308.416 199.63 308.99 199.63C309.564 199.63 310.04 200.106 310.04 200.68C310.04 201.254 309.564 201.73 308.99 201.73C308.416 201.73 307.94 201.254 307.94 200.68ZM305 203.62C305.574 203.62 306.05 204.096 306.05 204.67C306.05 205.244 305.574 205.72 305 205.72C304.426 205.72 303.95 205.244 303.95 204.67C303.95 204.096 304.426 203.62 305 203.62ZM317.88 198.58H323.662V199.91H317.88V198.58ZM311.958 205.174H324.642V206.504H311.958V205.174ZM317.124 194.38H318.538V205.902H317.124V194.38ZM331.992 199.49H336.738V200.75H331.992V199.49ZM331.446 199.49H332.776V205.118C332.776 205.692 332.916 205.79 333.644 205.79C333.98 205.79 335.576 205.79 336.01 205.79C336.71 205.79 336.822 205.44 336.906 203.578C337.214 203.802 337.774 204.026 338.152 204.11C337.97 206.392 337.578 207.05 336.094 207.05C335.73 207.05 333.84 207.05 333.504 207.05C331.922 207.05 331.446 206.658 331.446 205.118V199.49ZM331.334 194.94H337.396V201.492H336.066V196.2H331.334V194.94ZM325.748 198.454H330.186V199.476H325.748V198.454ZM325.832 194.66H330.228V195.682H325.832V194.66ZM325.748 200.344H330.186V201.366H325.748V200.344ZM325.076 196.508H330.732V197.586H325.076V196.508ZM326.364 202.248H330.144V206.42H326.364V205.342H328.968V203.326H326.364V202.248ZM325.72 202.248H326.882V207.022H325.72V202.248ZM344.214 194.688L345.32 194.212C345.838 194.94 346.384 195.92 346.58 196.578L345.418 197.11C345.236 196.466 344.718 195.444 344.214 194.688ZM349.394 194.17L350.738 194.646C350.262 195.5 349.73 196.424 349.282 197.04L348.162 196.606C348.596 195.948 349.114 194.926 349.394 194.17ZM345.46 201.422H346.776C346.552 203.928 345.978 206.056 343.402 207.204C343.248 206.882 342.884 206.42 342.604 206.168C344.872 205.23 345.292 203.466 345.46 201.422ZM347.742 201.254H349.03V205.37C349.03 205.762 349.072 205.818 349.31 205.818C349.422 205.818 349.912 205.818 350.038 205.818C350.304 205.818 350.36 205.594 350.388 204.096C350.64 204.306 351.186 204.53 351.522 204.614C351.41 206.504 351.088 207.008 350.192 207.008C349.968 207.008 349.31 207.008 349.1 207.008C347.994 207.008 347.742 206.616 347.742 205.384V201.254ZM345.404 198.174V200.54H349.408V198.174H345.404ZM344.144 196.998H350.724V201.702H344.144V196.998ZM340.7 195.416H341.988V207.162H340.7V195.416ZM338.53 198.132H343.626V199.364H338.53V198.132ZM340.77 198.622L341.568 198.958C341.022 200.946 339.958 203.424 338.88 204.754C338.754 204.376 338.46 203.83 338.236 203.508C339.23 202.388 340.294 200.274 340.77 198.622ZM342.814 194.366L343.724 195.388C342.38 195.92 340.42 196.298 338.796 196.522C338.726 196.228 338.558 195.794 338.404 195.514C339.972 195.248 341.764 194.842 342.814 194.366ZM341.946 199.994C342.296 200.288 343.57 201.604 343.85 201.926L343.08 202.976C342.744 202.36 341.778 201.044 341.344 200.526L341.946 199.994ZM356.492 196.48H364.598V197.712H356.492V196.48ZM358.746 199.392H362.82V200.582H358.508L358.746 199.392ZM362.498 199.392H362.722L362.946 199.35L363.744 199.588C363.086 203.634 361.196 205.972 358.536 207.176C358.368 206.854 358.046 206.364 357.78 206.112C360.174 205.188 361.952 202.948 362.498 199.616V199.392ZM359.236 200.4C360.118 203.102 361.994 205.244 364.822 206.084C364.542 206.35 364.164 206.868 363.968 207.218C361 206.182 359.166 203.83 358.158 200.666L359.236 200.4ZM351.592 201.548C352.824 201.24 354.672 200.694 356.422 200.176L356.604 201.38C354.994 201.912 353.272 202.472 351.942 202.906L351.592 201.548ZM351.816 196.872H356.324V198.104H351.816V196.872ZM353.594 194.17H354.896V205.678C354.896 206.378 354.756 206.714 354.35 206.924C353.93 207.12 353.314 207.162 352.362 207.148C352.32 206.826 352.138 206.28 351.984 205.944C352.572 205.958 353.16 205.958 353.328 205.958C353.524 205.944 353.594 205.888 353.594 205.692V194.17ZM358.284 194.198H359.572C359.544 198.958 359.46 204.292 356.044 207.12C355.834 206.826 355.428 206.42 355.092 206.21C358.312 203.648 358.256 198.664 358.284 194.198ZM372.55 196.438C372.368 197.88 372.088 199.518 371.626 201.072C370.772 203.928 369.624 205.524 368.224 205.524C366.838 205.524 365.578 203.97 365.578 201.632C365.578 198.51 368.322 195.808 371.836 195.808C375.196 195.808 377.324 198.16 377.324 201.1C377.324 204.04 375.448 206.056 372.032 206.532L371.206 205.23C371.696 205.174 372.102 205.104 372.452 205.034C374.244 204.614 375.854 203.298 375.854 201.044C375.854 198.818 374.384 197.096 371.808 197.096C368.77 197.096 366.978 199.574 366.978 201.506C366.978 203.116 367.678 203.858 368.266 203.858C368.896 203.858 369.554 202.934 370.212 200.778C370.618 199.448 370.926 197.852 371.066 196.396L372.55 196.438ZM379.046 195.416H390.596V196.508H379.046V195.416ZM379.522 205.706H390.176V206.798H379.522V205.706ZM381.874 197.292H387.684V198.258H381.874V197.292ZM381.874 199.07H387.684V200.036H381.874V199.07ZM378.346 200.876H391.24V201.968H378.346V200.876ZM381.398 203.396H388.216V204.46H381.398V203.396ZM381.09 194.184H382.42V201.478H381.09V194.184ZM387.222 194.198H388.566V201.478H387.222V194.198ZM384.086 202.346H385.444V206.322H384.086V202.346ZM381.888 201.184L382.994 201.59C382.126 203.046 380.6 204.376 379.074 205.076C378.878 204.768 378.5 204.306 378.22 204.068C379.648 203.508 381.132 202.374 381.888 201.184ZM387.768 201.184C388.51 202.318 389.952 203.382 391.408 203.9C391.114 204.138 390.722 204.614 390.526 204.922C389.042 204.278 387.558 202.962 386.718 201.576L387.768 201.184ZM391.968 197.04H404.246V198.384H391.968V197.04ZM394.796 203.326H401.306V204.67H394.796V203.326ZM397.386 194.198H398.786V207.176H397.386V194.198ZM396.98 197.502L398.184 197.894C396.952 200.904 394.838 203.578 392.416 205.048C392.192 204.712 391.758 204.208 391.45 203.942C393.774 202.71 395.916 200.134 396.98 197.502ZM399.206 197.544C400.27 200.134 402.398 202.626 404.792 203.816C404.456 204.096 403.994 204.628 403.77 205.006C401.306 203.578 399.234 200.904 398.016 197.95L399.206 197.544ZM407.2 194.24H408.418V207.162H407.2V194.24ZM405.002 198.874H410.616V200.106H405.002V198.874ZM406.99 199.532L407.746 199.882C407.27 201.772 406.332 204.194 405.394 205.51C405.268 205.104 404.974 204.53 404.764 204.166C405.632 203.102 406.556 201.058 406.99 199.532ZM408.404 200.246C408.796 200.652 410.196 202.43 410.504 202.864L409.664 203.914C409.3 203.144 408.25 201.422 407.774 200.778L408.404 200.246ZM405.044 195.304L405.996 195.052C406.374 196.046 406.682 197.362 406.766 198.216L405.744 198.482C405.702 197.628 405.394 196.298 405.044 195.304ZM409.608 194.996L410.742 195.262C410.392 196.354 409.958 197.684 409.594 198.482L408.754 198.23C409.048 197.362 409.426 195.962 409.608 194.996ZM414.984 194.184H416.23V207.176H414.984V194.184ZM410.588 203.032L417.784 201.744L417.994 202.962L410.798 204.264L410.588 203.032ZM411.526 195.99L412.198 195.08C412.996 195.556 413.976 196.27 414.438 196.788L413.738 197.796C413.304 197.25 412.338 196.494 411.526 195.99ZM410.854 199.518L411.47 198.566C412.296 199 413.346 199.672 413.85 200.176L413.178 201.226C412.702 200.722 411.68 199.98 410.854 199.518ZM424.644 195.458C423.482 197.11 421.27 199 418.946 200.246C418.778 199.924 418.414 199.448 418.12 199.168C420.528 197.978 422.824 195.892 423.888 194.156H425.26C426.758 196.228 429.11 198.062 431.322 199C431 199.336 430.678 199.784 430.44 200.19C428.284 199.07 425.904 197.152 424.644 195.458ZM421.158 198.426H428.186V199.602H421.158V198.426ZM419.408 201.254H429.936V202.416H419.408V201.254ZM418.736 205.608H430.678V206.756H418.736V205.608ZM423.93 198.888H425.33V206.196H423.93V198.888ZM420.444 203.046L421.508 202.612C422.068 203.354 422.642 204.376 422.838 205.048L421.704 205.552C421.522 204.88 420.976 203.816 420.444 203.046ZM427.682 202.598L428.942 203.088C428.382 203.956 427.752 204.922 427.234 205.552L426.24 205.132C426.73 204.446 427.346 203.382 427.682 202.598ZM437.328 196.41C438.938 196.662 441.752 196.592 443.194 196.396V197.824C441.598 197.992 438.966 197.992 437.328 197.824V196.41ZM438.126 202.234C438 202.724 437.93 203.088 437.93 203.466C437.93 204.096 438.42 204.614 440.128 204.614C441.374 204.614 442.438 204.502 443.614 204.25L443.642 205.734C442.746 205.902 441.598 206.014 440.086 206.014C437.72 206.014 436.614 205.202 436.614 203.83C436.614 203.326 436.698 202.808 436.852 202.108L438.126 202.234ZM434.878 195.388C434.794 195.654 434.64 196.214 434.584 196.466C434.36 197.6 433.898 200.232 433.898 201.73C433.898 202.234 433.926 202.724 433.996 203.228C434.22 202.668 434.5 201.982 434.724 201.45L435.438 202.01C435.06 203.074 434.57 204.572 434.43 205.272C434.388 205.482 434.36 205.762 434.36 205.916C434.374 206.07 434.388 206.28 434.402 206.448L433.128 206.532C432.848 205.552 432.596 203.9 432.596 201.996C432.596 199.924 433.044 197.544 433.212 196.41C433.254 196.06 433.31 195.626 433.324 195.262L434.878 195.388ZM454.982 195.598C454.982 196.06 455.36 196.424 455.822 196.424C456.284 196.424 456.662 196.06 456.662 195.598C456.662 195.136 456.284 194.758 455.822 194.758C455.36 194.758 454.982 195.136 454.982 195.598ZM454.254 195.598C454.254 194.73 454.954 194.016 455.822 194.016C456.69 194.016 457.39 194.73 457.39 195.598C457.39 196.466 456.69 197.166 455.822 197.166C454.954 197.166 454.254 196.466 454.254 195.598ZM452.084 195.108C452.056 195.304 451.986 195.878 451.986 196.2C451.986 196.984 451.986 198.16 451.986 198.902C451.986 200.036 451.986 204.418 451.986 205.496C451.986 206.266 451.58 206.7 450.67 206.7C450.012 206.7 449.186 206.658 448.556 206.588L448.43 205.202C449.032 205.314 449.662 205.37 450.012 205.37C450.39 205.37 450.544 205.216 450.544 204.852C450.558 204.194 450.558 199.56 450.558 198.902C450.558 198.426 450.558 196.984 450.558 196.2C450.558 195.864 450.502 195.332 450.446 195.108H452.084ZM445.546 197.404C445.952 197.46 446.358 197.502 446.806 197.502C447.646 197.502 454.59 197.502 455.5 197.502C455.85 197.502 456.382 197.46 456.746 197.418V198.874C456.34 198.846 455.864 198.832 455.514 198.832C454.604 198.832 447.702 198.832 446.806 198.832C446.386 198.832 445.924 198.846 445.546 198.888V197.404ZM448.92 200.918C448.304 202.136 447.002 203.942 446.218 204.782L445.014 203.97C445.952 203.088 447.114 201.478 447.674 200.33L448.92 200.918ZM454.842 200.316C455.57 201.212 456.69 202.962 457.25 203.984L455.948 204.698C455.374 203.55 454.352 201.828 453.638 200.96L454.842 200.316ZM458.65 200.778C461.114 200.134 463.214 199.182 464.768 198.216C466.224 197.306 467.708 196.018 468.646 194.87L469.836 195.99C468.604 197.25 467.022 198.496 465.384 199.504C463.83 200.456 461.576 201.492 459.35 202.164L458.65 200.778ZM464.516 198.93L466.056 198.524V204.88C466.056 205.44 466.084 206.21 466.168 206.518H464.418C464.474 206.224 464.516 205.44 464.516 204.88V198.93ZM474.162 195.584C475.142 196.242 476.948 197.698 477.746 198.51L476.626 199.644C475.912 198.888 474.162 197.376 473.126 196.676L474.162 195.584ZM472.72 204.936C475.044 204.6 476.864 203.802 478.208 202.99C480.476 201.604 482.226 199.504 483.066 197.698L483.92 199.238C482.926 201.044 481.19 202.962 479.02 204.306C477.606 205.174 475.828 206 473.644 206.392L472.72 204.936ZM488.764 204.726C488.764 203.816 488.764 197.796 488.764 196.62C488.764 196.186 488.736 195.528 488.652 195.066H490.374C490.318 195.528 490.262 196.13 490.262 196.62C490.262 198.524 490.276 203.9 490.276 204.726C490.276 205.146 490.318 206 490.374 206.518H488.652C488.736 206.014 488.764 205.258 488.764 204.726ZM489.94 198.72C491.802 199.252 494.714 200.33 496.184 201.058L495.568 202.57C493.972 201.73 491.466 200.778 489.94 200.288V198.72ZM503.618 195.094C503.548 195.402 503.478 195.766 503.422 196.074C503.31 196.634 503.128 197.656 502.946 198.454C502.484 200.428 501.434 204.138 499.894 206.602L498.452 206.028C500.076 203.858 501.168 200.134 501.56 198.398C501.812 197.222 501.994 195.99 501.98 194.926L503.618 195.094ZM508.434 196.62C509.302 197.796 510.506 200.358 510.954 201.674L509.568 202.318C509.176 200.834 508.126 198.384 507.132 197.194L508.434 196.62ZM498.298 198.076C498.774 198.104 499.18 198.09 499.656 198.076C500.734 198.048 503.506 197.74 504.486 197.74C505.844 197.74 506.88 198.3 506.88 200.246C506.88 201.912 506.656 204.152 506.068 205.342C505.62 206.294 504.892 206.56 503.912 206.56C503.38 206.56 502.708 206.462 502.26 206.364L502.022 204.894C502.582 205.062 503.352 205.188 503.73 205.188C504.234 205.188 504.626 205.062 504.878 204.516C505.298 203.634 505.508 201.87 505.508 200.414C505.508 199.196 504.962 199 504.08 199C503.184 199 500.65 199.308 499.838 199.392C499.474 199.448 498.83 199.532 498.438 199.588L498.298 198.076ZM508.42 194.632C508.77 195.136 509.274 196.004 509.554 196.55L508.63 196.956C508.35 196.382 507.888 195.542 507.51 195.01L508.42 194.632ZM510.016 194.03C510.38 194.562 510.912 195.444 511.164 195.948L510.254 196.34C509.96 195.752 509.498 194.94 509.106 194.408L510.016 194.03ZM518.92 201.17H520.25V205.328C520.25 205.776 520.348 205.846 520.852 205.846C521.09 205.846 522.126 205.846 522.434 205.846C522.952 205.846 523.036 205.538 523.092 203.494C523.372 203.732 523.96 203.956 524.31 204.04C524.17 206.476 523.82 207.106 522.546 207.106C522.252 207.106 520.964 207.106 520.684 207.106C519.284 207.106 518.92 206.686 518.92 205.328V201.17ZM515.252 201.24H516.652C516.428 204.236 515.756 206.168 512.088 207.19C511.948 206.84 511.598 206.308 511.304 206.042C514.608 205.23 515.07 203.704 515.252 201.24ZM519.088 197.88L520.18 197.222C521.482 198.272 523.092 199.77 523.834 200.834L522.644 201.604C521.972 200.54 520.418 198.972 519.088 197.88ZM515.672 196.522L517.114 196.942C516.512 198.16 515.756 199.56 515.154 200.442L514.048 200.05C514.608 199.098 515.308 197.6 515.672 196.522ZM512.13 199.56C514.636 199.504 518.584 199.378 522.252 199.252L522.196 200.47C518.598 200.666 514.72 200.834 512.186 200.918L512.13 199.56ZM511.696 195.794H523.918V197.04H511.696V195.794ZM517.086 194.184H518.444V196.494H517.086V194.184ZM530.358 194.184H531.814V199.798H530.358V194.184ZM525.696 195.248L526.9 194.772C527.656 195.752 528.384 197.068 528.706 197.95L527.432 198.51C527.138 197.6 526.41 196.242 525.696 195.248ZM535.118 194.646L536.574 195.108C535.972 196.326 535.202 197.684 534.586 198.58L533.424 198.146C534.012 197.208 534.74 195.738 535.118 194.646ZM525.948 199.098H536.364V207.19H534.964V200.428H525.948V199.098ZM526.424 202.136H535.482V203.41H526.424V202.136ZM525.654 205.272H535.678V206.588H525.654V205.272ZM544.624 196.074C544.526 195.766 544.386 195.304 544.232 194.898L545.73 194.716C545.898 195.64 546.248 196.802 546.584 197.712C547.018 198.902 547.704 200.162 548.236 200.904C548.446 201.212 548.684 201.478 548.908 201.73L548.208 202.724C547.494 202.57 545.758 202.402 544.68 202.318L544.792 201.142C545.534 201.212 546.514 201.296 546.99 201.338C546.43 200.484 545.73 199.182 545.282 197.964C544.974 197.166 544.778 196.536 544.624 196.074ZM539.514 196.984C541.964 197.264 544.134 197.264 545.772 197.096C546.948 196.956 548.264 196.704 549.356 196.354L549.524 197.74C548.558 198.02 547.284 198.23 546.22 198.356C544.4 198.566 542.188 198.608 539.542 198.384L539.514 196.984ZM541.95 201.576C541.516 202.248 541.278 202.85 541.278 203.494C541.278 204.768 542.426 205.314 544.428 205.328C545.898 205.328 547.116 205.188 548.096 204.978L548.026 206.378C547.186 206.532 545.968 206.7 544.344 206.7C541.6 206.686 539.864 205.664 539.864 203.704C539.864 202.892 540.144 202.136 540.578 201.254L541.95 201.576ZM564.336 205.09C563.636 205.776 562.768 206.196 561.732 206.196C560.752 206.196 560.094 205.524 560.094 204.278C560.094 202.738 560.612 200.554 560.612 199.224C560.612 198.468 560.22 198.118 559.562 198.118C558.26 198.118 556.202 199.994 554.97 201.52V199.798C555.838 198.874 558.162 196.816 559.94 196.816C561.34 196.816 561.998 197.628 561.998 198.776C561.998 200.204 561.508 202.458 561.508 203.886C561.508 204.306 561.718 204.642 562.152 204.642C562.754 204.642 563.454 204.25 564.14 203.55L564.336 205.09ZM554.816 198.398C554.284 198.468 552.842 198.65 551.862 198.804L551.708 197.362C552.058 197.376 552.352 197.376 552.758 197.348C553.57 197.306 555.334 197.068 555.978 196.858L556.454 197.446C556.202 197.796 555.81 198.44 555.572 198.818L554.97 201.044C554.34 201.996 553.066 203.872 552.254 205.006L551.372 203.802C552.254 202.71 554.046 200.302 554.662 199.294L554.704 198.734L554.816 198.398ZM554.662 195.92C554.662 195.57 554.676 195.178 554.606 194.786L556.244 194.842C556.02 195.836 555.586 199.7 555.586 202.178C555.586 203.396 555.586 204.39 555.656 205.664C555.67 205.916 555.712 206.336 555.74 206.616H554.214C554.242 206.336 554.256 205.93 554.256 205.706C554.27 204.348 554.284 203.536 554.312 201.912C554.34 200.666 554.662 196.466 554.662 195.92ZM567.847 206.868C566.965 205.79 565.761 204.586 564.781 203.76L565.929 202.766C566.937 203.578 568.239 204.894 569.037 205.846L567.847 206.868ZM585.557 201.17H586.887V205.328C586.887 205.776 586.985 205.846 587.489 205.846C587.727 205.846 588.763 205.846 589.071 205.846C589.589 205.846 589.673 205.538 589.729 203.494C590.009 203.732 590.597 203.956 590.947 204.04C590.807 206.476 590.457 207.106 589.183 207.106C588.889 207.106 587.601 207.106 587.321 207.106C585.921 207.106 585.557 206.686 585.557 205.328V201.17ZM581.889 201.24H583.289C583.065 204.236 582.393 206.168 578.725 207.19C578.585 206.84 578.235 206.308 577.941 206.042C581.245 205.23 581.707 203.704 581.889 201.24ZM585.725 197.88L586.817 197.222C588.119 198.272 589.729 199.77 590.471 200.834L589.281 201.604C588.609 200.54 587.055 198.972 585.725 197.88ZM582.309 196.522L583.751 196.942C583.149 198.16 582.393 199.56 581.791 200.442L580.685 200.05C581.245 199.098 581.945 197.6 582.309 196.522ZM578.767 199.56C581.273 199.504 585.221 199.378 588.889 199.252L588.833 200.47C585.235 200.666 581.357 200.834 578.823 200.918L578.767 199.56ZM578.333 195.794H590.555V197.04H578.333V195.794ZM583.723 194.184H585.081V196.494H583.723V194.184ZM596.995 194.184H598.451V199.798H596.995V194.184ZM592.333 195.248L593.537 194.772C594.293 195.752 595.021 197.068 595.343 197.95L594.069 198.51C593.775 197.6 593.047 196.242 592.333 195.248ZM601.755 194.646L603.211 195.108C602.609 196.326 601.839 197.684 601.223 198.58L600.061 198.146C600.649 197.208 601.377 195.738 601.755 194.646ZM592.585 199.098H603.001V207.19H601.601V200.428H592.585V199.098ZM593.061 202.136H602.119V203.41H593.061V202.136ZM592.291 205.272H602.315V206.588H592.291V205.272ZM611.807 199.938L612.997 200.316C612.073 201.968 610.519 203.438 608.979 204.362C608.811 204.11 608.377 203.606 608.111 203.368C609.595 202.598 611.023 201.338 611.807 199.938ZM611.933 194.156L613.095 194.758C612.367 195.626 611.513 196.578 610.827 197.194L609.903 196.662C610.575 196.004 611.443 194.94 611.933 194.156ZM614.593 195.22L615.783 195.864C614.341 197.418 612.395 199.224 610.841 200.358L609.945 199.784C611.485 198.608 613.445 196.69 614.593 195.22ZM608.671 196.578L609.469 195.724C610.519 196.396 611.835 197.376 612.437 198.09L611.597 199.042C611.009 198.328 609.735 197.278 608.671 196.578ZM614.439 198.202L615.461 197.642C616.329 198.552 617.295 199.826 617.715 200.694L616.595 201.338C616.217 200.484 615.293 199.154 614.439 198.202ZM608.279 199.42C610.295 199.392 613.473 199.336 616.469 199.266L616.427 200.344C613.529 200.442 610.477 200.54 608.391 200.596L608.279 199.42ZM611.079 202.178C612.255 204.152 614.705 205.552 617.715 206.084C617.435 206.364 617.085 206.868 616.917 207.218C613.809 206.532 611.387 204.936 610.015 202.528L611.079 202.178ZM611.415 201.464H615.419V202.486H610.519L611.415 201.464ZM614.985 201.464H615.237L615.461 201.408L616.301 201.8C615.013 204.866 612.003 206.49 608.727 207.232C608.615 206.91 608.321 206.378 608.083 206.112C611.107 205.552 613.963 204.068 614.985 201.66V201.464ZM607.607 197.11L608.783 197.544C607.845 199.238 606.389 200.974 605.017 202.094C604.891 201.814 604.513 201.17 604.289 200.89C605.535 199.966 606.823 198.552 607.607 197.11ZM607.313 194.184L608.489 194.66C607.649 195.85 606.333 197.18 605.157 198.034C604.989 197.768 604.653 197.306 604.443 197.068C605.493 196.34 606.711 195.15 607.313 194.184ZM606.389 199.896L607.495 198.79L607.635 198.86V207.218H606.389V199.896ZM625.387 196.438C625.205 197.88 624.925 199.518 624.463 201.072C623.609 203.928 622.461 205.524 621.061 205.524C619.675 205.524 618.415 203.97 618.415 201.632C618.415 198.51 621.159 195.808 624.673 195.808C628.033 195.808 630.161 198.16 630.161 201.1C630.161 204.04 628.285 206.056 624.869 206.532L624.043 205.23C624.533 205.174 624.939 205.104 625.289 205.034C627.081 204.614 628.691 203.298 628.691 201.044C628.691 198.818 627.221 197.096 624.645 197.096C621.607 197.096 619.815 199.574 619.815 201.506C619.815 203.116 620.515 203.858 621.103 203.858C621.733 203.858 622.391 202.934 623.049 200.778C623.455 199.448 623.763 197.852 623.903 196.396L625.387 196.438ZM637.581 195.458C636.419 197.11 634.207 199 631.883 200.246C631.715 199.924 631.351 199.448 631.057 199.168C633.465 197.978 635.761 195.892 636.825 194.156H638.197C639.695 196.228 642.047 198.062 644.259 199C643.937 199.336 643.615 199.784 643.377 200.19C641.221 199.07 638.841 197.152 637.581 195.458ZM634.095 198.426H641.123V199.602H634.095V198.426ZM632.345 201.254H642.873V202.416H632.345V201.254ZM631.673 205.608H643.615V206.756H631.673V205.608ZM636.867 198.888H638.267V206.196H636.867V198.888ZM633.381 203.046L634.445 202.612C635.005 203.354 635.579 204.376 635.775 205.048L634.641 205.552C634.459 204.88 633.913 203.816 633.381 203.046ZM640.619 202.598L641.879 203.088C641.319 203.956 640.689 204.922 640.171 205.552L639.177 205.132C639.667 204.446 640.283 203.382 640.619 202.598ZM646.387 197.74H649.159V198.664H646.387V197.74ZM646.975 194.212H648.207V196.256H646.975V194.212ZM646.037 202.542H649.747V206.308H646.037V205.272H648.599V203.578H646.037V202.542ZM644.637 195.416H650.559V197.544H649.439V196.466H645.715V197.544H644.637V195.416ZM645.421 202.542H646.541V206.938H645.421V202.542ZM648.935 197.74H649.145L649.341 197.684L650.097 198.034C649.187 200.652 647.129 202.444 644.917 203.382C644.763 203.102 644.455 202.654 644.217 202.43C646.247 201.688 648.207 200.008 648.935 197.936V197.74ZM646.835 196.718L647.927 196.998C647.311 198.426 646.233 199.714 645.127 200.554C644.945 200.344 644.511 199.938 644.259 199.77C645.351 199.056 646.317 197.936 646.835 196.718ZM645.561 199.672L646.275 198.874C647.717 199.826 649.733 201.24 650.727 202.122L649.957 203.06C649.005 202.136 647.031 200.68 645.561 199.672ZM650.671 194.8H657.223V195.934H650.671V194.8ZM652.351 200.204V201.338H655.627V200.204H652.351ZM652.351 202.29V203.452H655.627V202.29H652.351ZM652.351 198.118V199.252H655.627V198.118H652.351ZM651.161 197.11H656.887V204.46H651.161V197.11ZM653.303 195.374L654.745 195.556C654.493 196.382 654.185 197.278 653.947 197.866L652.841 197.642C653.009 196.998 653.205 196.046 653.303 195.374ZM652.323 204.642L653.429 205.314C652.701 206.028 651.497 206.756 650.475 207.162C650.265 206.924 649.887 206.546 649.607 206.308C650.629 205.93 651.777 205.23 652.323 204.642ZM654.339 205.328L655.305 204.698C656.103 205.216 657.139 205.986 657.657 206.518L656.621 207.204C656.145 206.686 655.137 205.874 654.339 205.328ZM663.565 196.41C665.175 196.662 667.989 196.592 669.431 196.396V197.824C667.835 197.992 665.203 197.992 663.565 197.824V196.41ZM664.363 202.234C664.237 202.724 664.167 203.088 664.167 203.466C664.167 204.096 664.657 204.614 666.365 204.614C667.611 204.614 668.675 204.502 669.851 204.25L669.879 205.734C668.983 205.902 667.835 206.014 666.323 206.014C663.957 206.014 662.851 205.202 662.851 203.83C662.851 203.326 662.935 202.808 663.089 202.108L664.363 202.234ZM661.115 195.388C661.031 195.654 660.877 196.214 660.821 196.466C660.597 197.6 660.135 200.232 660.135 201.73C660.135 202.234 660.163 202.724 660.233 203.228C660.457 202.668 660.737 201.982 660.961 201.45L661.675 202.01C661.297 203.074 660.807 204.572 660.667 205.272C660.625 205.482 660.597 205.762 660.597 205.916C660.611 206.07 660.625 206.28 660.639 206.448L659.365 206.532C659.085 205.552 658.833 203.9 658.833 201.996C658.833 199.924 659.281 197.544 659.449 196.41C659.491 196.06 659.547 195.626 659.561 195.262L661.115 195.388ZM676.683 200.68H682.479V201.814H676.683V200.68ZM676.655 203.13H682.479V204.25H676.655V203.13ZM682.479 194.548L683.753 195.024C683.277 195.976 682.717 196.984 682.241 197.67L681.107 197.222C681.569 196.508 682.157 195.388 682.479 194.548ZM675.395 195.136L676.515 194.632C677.103 195.416 677.719 196.466 677.943 197.18L676.753 197.754C676.543 197.04 675.969 195.948 675.395 195.136ZM675.815 198.146H682.521V199.378H677.117V207.176H675.815V198.146ZM681.891 198.146H683.179V205.65C683.179 206.322 683.039 206.7 682.577 206.91C682.101 207.12 681.387 207.12 680.323 207.12C680.267 206.77 680.085 206.224 679.903 205.874C680.645 205.902 681.387 205.902 681.597 205.902C681.821 205.888 681.891 205.818 681.891 205.636V198.146ZM678.881 194.17H680.211V198.944H678.881V194.17ZM671.657 195.248L672.441 194.324C673.295 194.744 674.373 195.416 674.905 195.934L674.093 196.956C673.589 196.438 672.525 195.71 671.657 195.248ZM671.013 198.972L671.755 198.034C672.637 198.454 673.743 199.126 674.303 199.644L673.505 200.68C672.987 200.162 671.895 199.434 671.013 198.972ZM671.419 206.224C672.105 205.146 673.071 203.326 673.813 201.702L674.793 202.5C674.149 203.998 673.323 205.706 672.581 207.078L671.419 206.224ZM686.301 196.41H694.897V195.724H685.321V194.898H696.101V197.236H686.301V196.41ZM685.909 196.41H687.155C686.875 197.25 686.539 198.23 686.273 198.888L685.055 198.804C685.349 198.146 685.671 197.194 685.909 196.41ZM685.937 197.894H696.185V198.72H685.685L685.937 197.894ZM695.751 197.894H696.997C696.997 197.894 696.983 198.146 696.983 198.286C696.899 199.168 696.801 199.616 696.577 199.854C696.381 200.05 696.115 200.134 695.835 200.148C695.569 200.162 695.079 200.162 694.561 200.134C694.547 199.896 694.435 199.532 694.323 199.294C694.715 199.336 695.051 199.35 695.205 199.35C695.359 199.35 695.443 199.336 695.513 199.252C695.625 199.14 695.681 198.818 695.751 198.048V197.894ZM688.667 194.184H689.871V196.872C689.871 198.79 689.255 200.274 685.153 200.988C685.041 200.694 684.747 200.204 684.523 199.966C688.177 199.364 688.667 198.258 688.667 196.844V194.184ZM691.775 194.184H693.035V199.742H691.775V194.184ZM687.603 202.024V202.766H694.211V202.024H687.603ZM687.603 203.522V204.278H694.211V203.522H687.603ZM687.603 200.54V201.268H694.211V200.54H687.603ZM686.315 199.742H695.555V205.076H686.315V199.742ZM691.817 205.762L692.867 205.076C694.407 205.524 696.129 206.112 697.151 206.532L695.695 207.204C694.841 206.784 693.329 206.224 691.817 205.762ZM688.653 205.076L689.829 205.608C688.681 206.266 686.889 206.882 685.475 207.232C685.265 206.966 684.803 206.49 684.509 206.266C685.979 206 687.659 205.566 688.653 205.076ZM703.451 194.688L704.557 194.212C705.075 194.94 705.621 195.92 705.817 196.578L704.655 197.11C704.473 196.466 703.955 195.444 703.451 194.688ZM708.631 194.17L709.975 194.646C709.499 195.5 708.967 196.424 708.519 197.04L707.399 196.606C707.833 195.948 708.351 194.926 708.631 194.17ZM704.697 201.422H706.013C705.789 203.928 705.215 206.056 702.639 207.204C702.485 206.882 702.121 206.42 701.841 206.168C704.109 205.23 704.529 203.466 704.697 201.422ZM706.979 201.254H708.267V205.37C708.267 205.762 708.309 205.818 708.547 205.818C708.659 205.818 709.149 205.818 709.275 205.818C709.541 205.818 709.597 205.594 709.625 204.096C709.877 204.306 710.423 204.53 710.759 204.614C710.647 206.504 710.325 207.008 709.429 207.008C709.205 207.008 708.547 207.008 708.337 207.008C707.231 207.008 706.979 206.616 706.979 205.384V201.254ZM704.641 198.174V200.54H708.645V198.174H704.641ZM703.381 196.998H709.961V201.702H703.381V196.998ZM699.937 195.416H701.225V207.162H699.937V195.416ZM697.767 198.132H702.863V199.364H697.767V198.132ZM700.007 198.622L700.805 198.958C700.259 200.946 699.195 203.424 698.117 204.754C697.991 204.376 697.697 203.83 697.473 203.508C698.467 202.388 699.531 200.274 700.007 198.622ZM702.051 194.366L702.961 195.388C701.617 195.92 699.657 196.298 698.033 196.522C697.963 196.228 697.795 195.794 697.641 195.514C699.209 195.248 701.001 194.842 702.051 194.366ZM701.183 199.994C701.533 200.288 702.807 201.604 703.087 201.926L702.317 202.976C701.981 202.36 701.015 201.044 700.581 200.526L701.183 199.994ZM716.555 195.094C716.485 195.402 716.415 195.766 716.359 196.074C716.247 196.634 716.065 197.656 715.883 198.454C715.421 200.428 714.371 204.138 712.831 206.602L711.389 206.028C713.013 203.858 714.105 200.134 714.497 198.398C714.749 197.222 714.931 195.99 714.917 194.926L716.555 195.094ZM721.371 196.62C722.239 197.796 723.443 200.358 723.891 201.674L722.505 202.318C722.113 200.834 721.063 198.384 720.069 197.194L721.371 196.62ZM711.235 198.076C711.711 198.104 712.117 198.09 712.593 198.076C713.671 198.048 716.443 197.74 717.423 197.74C718.781 197.74 719.817 198.3 719.817 200.246C719.817 201.912 719.593 204.152 719.005 205.342C718.557 206.294 717.829 206.56 716.849 206.56C716.317 206.56 715.645 206.462 715.197 206.364L714.959 204.894C715.519 205.062 716.289 205.188 716.667 205.188C717.171 205.188 717.563 205.062 717.815 204.516C718.235 203.634 718.445 201.87 718.445 200.414C718.445 199.196 717.899 199 717.017 199C716.121 199 713.587 199.308 712.775 199.392C712.411 199.448 711.767 199.532 711.375 199.588L711.235 198.076ZM721.357 194.632C721.707 195.136 722.211 196.004 722.491 196.55L721.567 196.956C721.287 196.382 720.825 195.542 720.447 195.01L721.357 194.632ZM722.953 194.03C723.317 194.562 723.849 195.444 724.101 195.948L723.191 196.34C722.897 195.752 722.435 194.94 722.043 194.408L722.953 194.03ZM729.421 201.352H737.009V202.528H729.421V201.352ZM734.181 202.038C734.881 203.354 736.211 204.782 737.401 205.51C737.107 205.748 736.687 206.196 736.491 206.518C735.287 205.608 733.971 203.942 733.229 202.402L734.181 202.038ZM731.073 198.048V199.266H735.399V198.048H731.073ZM731.073 195.808V197.012H735.399V195.808H731.073ZM729.897 194.744H736.631V200.33H729.897V194.744ZM732.305 201.954L733.299 202.304C732.543 204.026 731.185 205.72 729.785 206.602C729.589 206.294 729.183 205.818 728.903 205.58C730.247 204.866 731.605 203.396 732.305 201.954ZM732.641 195.29H733.789V199.826H733.859V207.176H732.571V199.826H732.641V195.29ZM724.843 198.454H728.875V199.476H724.843V198.454ZM724.899 194.66H728.833V195.682H724.899V194.66ZM724.843 200.344H728.875V201.366H724.843V200.344ZM724.213 196.508H729.239V197.586H724.213V196.508ZM725.431 202.248H728.889V206.42H725.431V205.342H727.769V203.326H725.431V202.248ZM724.829 202.248H725.935V207.022H724.829V202.248ZM744.261 196.074C744.163 195.766 744.023 195.304 743.869 194.898L745.367 194.716C745.535 195.64 745.885 196.802 746.221 197.712C746.655 198.902 747.341 200.162 747.873 200.904C748.083 201.212 748.321 201.478 748.545 201.73L747.845 202.724C747.131 202.57 745.395 202.402 744.317 202.318L744.429 201.142C745.171 201.212 746.151 201.296 746.627 201.338C746.067 200.484 745.367 199.182 744.919 197.964C744.611 197.166 744.415 196.536 744.261 196.074ZM739.151 196.984C741.601 197.264 743.771 197.264 745.409 197.096C746.585 196.956 747.901 196.704 748.993 196.354L749.161 197.74C748.195 198.02 746.921 198.23 745.857 198.356C744.037 198.566 741.825 198.608 739.179 198.384L739.151 196.984ZM741.587 201.576C741.153 202.248 740.915 202.85 740.915 203.494C740.915 204.768 742.063 205.314 744.065 205.328C745.535 205.328 746.753 205.188 747.733 204.978L747.663 206.378C746.823 206.532 745.605 206.7 743.981 206.7C741.237 206.686 739.501 205.664 739.501 203.704C739.501 202.892 739.781 202.136 740.215 201.254L741.587 201.576ZM763.973 205.09C763.273 205.776 762.405 206.196 761.369 206.196C760.389 206.196 759.731 205.524 759.731 204.278C759.731 202.738 760.249 200.554 760.249 199.224C760.249 198.468 759.857 198.118 759.199 198.118C757.897 198.118 755.839 199.994 754.607 201.52V199.798C755.475 198.874 757.799 196.816 759.577 196.816C760.977 196.816 761.635 197.628 761.635 198.776C761.635 200.204 761.145 202.458 761.145 203.886C761.145 204.306 761.355 204.642 761.789 204.642C762.391 204.642 763.091 204.25 763.777 203.55L763.973 205.09ZM754.453 198.398C753.921 198.468 752.479 198.65 751.499 198.804L751.345 197.362C751.695 197.376 751.989 197.376 752.395 197.348C753.207 197.306 754.971 197.068 755.615 196.858L756.091 197.446C755.839 197.796 755.447 198.44 755.209 198.818L754.607 201.044C753.977 201.996 752.703 203.872 751.891 205.006L751.009 203.802C751.891 202.71 753.683 200.302 754.299 199.294L754.341 198.734L754.453 198.398ZM754.299 195.92C754.299 195.57 754.313 195.178 754.243 194.786L755.881 194.842C755.657 195.836 755.223 199.7 755.223 202.178C755.223 203.396 755.223 204.39 755.293 205.664C755.307 205.916 755.349 206.336 755.377 206.616H753.851C753.879 206.336 753.893 205.93 753.893 205.706C753.907 204.348 753.921 203.536 753.949 201.912C753.977 200.666 754.299 196.466 754.299 195.92ZM771.799 194.8C771.757 195.066 771.729 195.374 771.715 195.766C771.687 196.396 771.687 198.314 771.687 199.49C771.687 201.212 771.897 203.704 771.897 204.712C771.897 205.776 771.141 206.742 769.307 206.742C767.193 206.742 766.059 205.972 766.059 204.558C766.059 203.228 767.319 202.304 769.391 202.304C772.401 202.304 774.697 203.872 775.817 204.796L775.019 206.042C773.717 204.838 771.673 203.452 769.223 203.452C768.033 203.452 767.389 203.914 767.389 204.488C767.389 205.09 767.921 205.496 769.125 205.496C769.895 205.496 770.497 205.272 770.497 204.362C770.497 203.396 770.357 200.792 770.357 199.49C770.357 198.202 770.371 196.592 770.371 195.696C770.371 195.444 770.343 195.024 770.301 194.8H771.799ZM766.241 196.228C767.193 196.396 768.873 196.536 769.769 196.536C771.603 196.536 773.465 196.424 775.383 196.116L775.369 197.39C773.857 197.572 771.757 197.754 769.783 197.754C768.845 197.754 767.165 197.628 766.269 197.516L766.241 196.228ZM766.171 199.224C767.137 199.392 768.789 199.49 769.629 199.49C771.897 199.49 773.745 199.336 775.523 199.084L775.509 200.4C773.591 200.638 771.967 200.722 769.615 200.722C768.719 200.722 767.151 200.652 766.185 200.54L766.171 199.224ZM785.869 194.828C785.841 195.024 785.799 195.654 785.785 195.85C785.757 196.76 785.785 199.532 785.799 200.652L784.427 200.092C784.427 199.364 784.427 196.62 784.371 195.864C784.343 195.402 784.287 194.968 784.259 194.828H785.869ZM778.225 196.69C780.199 196.676 783.783 196.564 785.771 196.564C787.353 196.564 789.257 196.55 789.971 196.564L789.957 197.866C789.131 197.824 787.801 197.796 785.743 197.796C783.279 197.796 780.367 197.894 778.253 198.034L778.225 196.69ZM785.673 200.792C785.673 202.85 784.819 203.872 783.391 203.872C782.257 203.872 781.039 203.032 781.039 201.422C781.039 199.952 782.243 198.916 783.657 198.916C785.379 198.916 786.261 200.19 786.261 201.856C786.261 203.718 785.281 205.916 781.949 206.882L780.773 205.72C783.251 205.16 784.903 204.04 784.903 201.674C784.903 200.568 784.343 200.078 783.643 200.078C782.985 200.078 782.369 200.568 782.369 201.408C782.369 202.178 782.957 202.64 783.643 202.64C784.427 202.64 784.987 201.982 784.665 200.414L785.673 200.792ZM791.544 202.57C792.762 202.57 793.742 203.55 793.742 204.754C793.742 205.972 792.762 206.952 791.544 206.952C790.354 206.952 789.36 205.972 789.36 204.754C789.36 203.55 790.354 202.57 791.544 202.57ZM791.544 206.112C792.3 206.112 792.902 205.51 792.902 204.754C792.902 204.012 792.3 203.41 791.544 203.41C790.816 203.41 790.2 204.012 790.2 204.754C790.2 205.51 790.816 206.112 791.544 206.112ZM307.534 222.68C307.534 219.838 308.696 217.612 310.306 216.002L311.356 216.506C309.83 218.102 308.794 220.104 308.794 222.68C308.794 225.27 309.83 227.272 311.356 228.868L310.306 229.372C308.696 227.762 307.534 225.536 307.534 222.68ZM319.42 223.17H320.75V227.328C320.75 227.776 320.848 227.846 321.352 227.846C321.59 227.846 322.626 227.846 322.934 227.846C323.452 227.846 323.536 227.538 323.592 225.494C323.872 225.732 324.46 225.956 324.81 226.04C324.67 228.476 324.32 229.106 323.046 229.106C322.752 229.106 321.464 229.106 321.184 229.106C319.784 229.106 319.42 228.686 319.42 227.328V223.17ZM315.752 223.24H317.152C316.928 226.236 316.256 228.168 312.588 229.19C312.448 228.84 312.098 228.308 311.804 228.042C315.108 227.23 315.57 225.704 315.752 223.24ZM319.588 219.88L320.68 219.222C321.982 220.272 323.592 221.77 324.334 222.834L323.144 223.604C322.472 222.54 320.918 220.972 319.588 219.88ZM316.172 218.522L317.614 218.942C317.012 220.16 316.256 221.56 315.654 222.442L314.548 222.05C315.108 221.098 315.808 219.6 316.172 218.522ZM312.63 221.56C315.136 221.504 319.084 221.378 322.752 221.252L322.696 222.47C319.098 222.666 315.22 222.834 312.686 222.918L312.63 221.56ZM312.196 217.794H324.418V219.04H312.196V217.794ZM317.586 216.184H318.944V218.494H317.586V216.184ZM330.858 216.184H332.314V221.798H330.858V216.184ZM326.196 217.248L327.4 216.772C328.156 217.752 328.884 219.068 329.206 219.95L327.932 220.51C327.638 219.6 326.91 218.242 326.196 217.248ZM335.618 216.646L337.074 217.108C336.472 218.326 335.702 219.684 335.086 220.58L333.924 220.146C334.512 219.208 335.24 217.738 335.618 216.646ZM326.448 221.098H336.864V229.19H335.464V222.428H326.448V221.098ZM326.924 224.136H335.982V225.41H326.924V224.136ZM326.154 227.272H336.178V228.588H326.154V227.272ZM348.582 217.598C348.582 218.06 348.96 218.424 349.422 218.424C349.884 218.424 350.262 218.06 350.262 217.598C350.262 217.136 349.884 216.758 349.422 216.758C348.96 216.758 348.582 217.136 348.582 217.598ZM347.854 217.598C347.854 216.73 348.554 216.016 349.422 216.016C350.29 216.016 350.99 216.73 350.99 217.598C350.99 218.466 350.29 219.166 349.422 219.166C348.554 219.166 347.854 218.466 347.854 217.598ZM345.684 217.108C345.656 217.304 345.586 217.878 345.586 218.2C345.586 218.984 345.586 220.16 345.586 220.902C345.586 222.036 345.586 226.418 345.586 227.496C345.586 228.266 345.18 228.7 344.27 228.7C343.612 228.7 342.786 228.658 342.156 228.588L342.03 227.202C342.632 227.314 343.262 227.37 343.612 227.37C343.99 227.37 344.144 227.216 344.144 226.852C344.158 226.194 344.158 221.56 344.158 220.902C344.158 220.426 344.158 218.984 344.158 218.2C344.158 217.864 344.102 217.332 344.046 217.108H345.684ZM339.146 219.404C339.552 219.46 339.958 219.502 340.406 219.502C341.246 219.502 348.19 219.502 349.1 219.502C349.45 219.502 349.982 219.46 350.346 219.418V220.874C349.94 220.846 349.464 220.832 349.114 220.832C348.204 220.832 341.302 220.832 340.406 220.832C339.986 220.832 339.524 220.846 339.146 220.888V219.404ZM342.52 222.918C341.904 224.136 340.602 225.942 339.818 226.782L338.614 225.97C339.552 225.088 340.714 223.478 341.274 222.33L342.52 222.918ZM348.442 222.316C349.17 223.212 350.29 224.962 350.85 225.984L349.548 226.698C348.974 225.55 347.952 223.828 347.238 222.96L348.442 222.316ZM352.25 222.778C354.714 222.134 356.814 221.182 358.368 220.216C359.824 219.306 361.308 218.018 362.246 216.87L363.436 217.99C362.204 219.25 360.622 220.496 358.984 221.504C357.43 222.456 355.176 223.492 352.95 224.164L352.25 222.778ZM358.116 220.93L359.656 220.524V226.88C359.656 227.44 359.684 228.21 359.768 228.518H358.018C358.074 228.224 358.116 227.44 358.116 226.88V220.93ZM367.762 217.584C368.742 218.242 370.548 219.698 371.346 220.51L370.226 221.644C369.512 220.888 367.762 219.376 366.726 218.676L367.762 217.584ZM366.32 226.936C368.644 226.6 370.464 225.802 371.808 224.99C374.076 223.604 375.826 221.504 376.666 219.698L377.52 221.238C376.526 223.044 374.79 224.962 372.62 226.306C371.206 227.174 369.428 228 367.244 228.392L366.32 226.936ZM382.364 226.726C382.364 225.816 382.364 219.796 382.364 218.62C382.364 218.186 382.336 217.528 382.252 217.066H383.974C383.918 217.528 383.862 218.13 383.862 218.62C383.862 220.524 383.876 225.9 383.876 226.726C383.876 227.146 383.918 228 383.974 228.518H382.252C382.336 228.014 382.364 227.258 382.364 226.726ZM383.54 220.72C385.402 221.252 388.314 222.33 389.784 223.058L389.168 224.57C387.572 223.73 385.066 222.778 383.54 222.288V220.72ZM397.694 216.87C397.582 217.402 397.414 218.186 397.036 219.166C396.714 219.936 396.238 220.818 395.762 221.476C396.224 221.224 397.008 221.07 397.554 221.07C398.674 221.07 399.528 221.728 399.528 222.946C399.528 223.674 399.57 225.256 399.584 226.124H398.24C398.296 225.424 398.31 224.08 398.296 223.352C398.296 222.498 397.736 222.162 397.064 222.162C396.224 222.162 395.342 222.61 394.754 223.156C394.334 223.562 393.942 224.066 393.466 224.654L392.276 223.772C394.208 221.952 395.202 220.384 395.72 219.04C396.014 218.27 396.196 217.43 396.238 216.744L397.694 216.87ZM392.696 218.284C393.424 218.382 394.432 218.438 395.104 218.438C396.966 218.438 399.444 218.326 401.446 217.976L401.432 219.264C399.472 219.558 396.77 219.67 395.02 219.67C394.432 219.67 393.466 219.642 392.696 219.586V218.284ZM403.56 221.924C403.168 222.036 402.552 222.274 402.132 222.428C401.18 222.806 399.878 223.324 398.534 224.01C397.204 224.71 396.35 225.396 396.35 226.278C396.35 227.23 397.246 227.412 398.66 227.412C399.794 227.412 401.32 227.272 402.552 227.048L402.51 228.476C401.502 228.602 399.878 228.714 398.618 228.714C396.532 228.714 394.922 228.238 394.922 226.488C394.922 224.682 396.77 223.59 398.45 222.736C399.752 222.05 400.774 221.658 401.67 221.252C402.146 221.042 402.552 220.86 403 220.622L403.56 221.924ZM411.288 216.744H416.888V217.864H411.288V216.744ZM413.136 217.178L414.382 217.248C414.172 219.558 413.332 221.014 411.778 221.938C411.568 221.728 411.05 221.322 410.77 221.154C412.296 220.412 412.996 219.124 413.136 217.178ZM416.202 216.744H417.462C417.462 216.744 417.462 217.08 417.448 217.234C417.35 219.684 417.21 220.678 416.888 221.056C416.65 221.322 416.384 221.42 416.02 221.462C415.684 221.49 415.096 221.49 414.466 221.476C414.452 221.126 414.326 220.65 414.144 220.342C414.69 220.398 415.18 220.398 415.39 220.398C415.572 220.398 415.712 220.384 415.81 220.272C416.006 220.034 416.118 219.194 416.202 216.926V216.744ZM405.38 217.766H410.868V218.914H405.38V217.766ZM405.072 220.468H411.134V221.644H405.072V220.468ZM408.292 223.436H410.98V224.584H408.292V223.436ZM407.536 216.198H408.754V221.084H407.536V216.198ZM407.746 221.182H408.936V227.482H407.746V221.182ZM406.598 224.094C407.34 227.034 408.922 227.552 412.072 227.552C412.926 227.566 416.986 227.566 418.036 227.524C417.826 227.818 417.602 228.434 417.518 228.826H412.086C408.306 228.826 406.57 228.098 405.632 224.402L406.598 224.094ZM405.618 222.526L406.794 222.596C406.752 225.27 406.57 227.622 405.772 229.19C405.548 229.022 405.002 228.714 404.708 228.588C405.478 227.188 405.604 224.962 405.618 222.526ZM412.954 223.24V225.452H415.824V223.24H412.954ZM411.708 222.148H417.154V226.53H411.708V222.148ZM422.068 216.828C423.608 217.15 426.282 217.458 427.668 217.542L427.486 218.844C426.058 218.718 423.538 218.41 421.844 218.116L422.068 216.828ZM428.046 221.028C427.738 221.238 427.416 221.518 427.206 221.686C426.632 222.204 425.176 223.562 424.728 224.024C424.868 224.01 425.12 224.038 425.274 224.08C425.75 224.164 426.044 224.514 426.24 225.06C426.366 225.452 426.548 226.082 426.674 226.502C426.828 226.992 427.15 227.216 427.794 227.216C428.774 227.216 429.796 227.104 430.482 226.95L430.384 228.406C429.81 228.518 428.452 228.616 427.71 228.616C426.492 228.616 425.792 228.336 425.47 227.426C425.33 227.006 425.148 226.25 425.022 225.872C424.868 225.382 424.56 225.158 424.224 225.158C423.874 225.158 423.566 225.368 423.23 225.69C422.726 226.18 421.41 227.594 420.542 228.7L419.226 227.776C419.436 227.594 419.716 227.342 420.038 227.034C420.668 226.404 424.07 223.002 425.4 221.644C424.35 221.686 422.292 221.868 421.466 221.938C420.99 221.98 420.598 222.036 420.304 222.078L420.178 220.552C420.5 220.58 420.948 220.594 421.424 220.58C422.166 220.566 425.386 220.384 426.492 220.244C426.744 220.216 427.08 220.146 427.22 220.09L428.046 221.028ZM433.796 217.542C434.146 217.584 434.58 217.598 434.902 217.598C435.644 217.598 438.822 217.514 439.592 217.444C440.082 217.402 440.334 217.36 440.488 217.304L441.244 218.312C440.964 218.508 440.656 218.69 440.376 218.914C439.648 219.446 437.94 220.902 436.932 221.714C437.506 221.546 438.066 221.49 438.612 221.49C440.964 221.49 442.686 222.918 442.686 224.878C442.686 227.118 440.908 228.7 437.758 228.7C435.84 228.7 434.538 227.846 434.538 226.572C434.538 225.536 435.476 224.598 436.848 224.598C438.738 224.598 439.732 225.9 439.802 227.37L438.514 227.566C438.458 226.446 437.842 225.662 436.848 225.662C436.26 225.662 435.84 226.026 435.84 226.46C435.84 227.062 436.526 227.454 437.506 227.454C439.886 227.454 441.258 226.502 441.258 224.864C441.258 223.534 439.97 222.582 438.22 222.582C435.966 222.582 434.65 223.632 432.998 225.396L431.99 224.36C433.082 223.478 434.832 222.008 435.644 221.322C436.428 220.678 438.052 219.334 438.752 218.718C438.024 218.746 435.602 218.844 434.86 218.886C434.524 218.914 434.146 218.942 433.838 218.984L433.796 217.542ZM446.774 218.172C447.796 218.298 449.098 218.354 450.526 218.354C451.884 218.354 453.382 218.256 454.432 218.158V219.614C453.466 219.684 451.842 219.782 450.54 219.782C449.098 219.782 447.894 219.712 446.774 219.628V218.172ZM447.614 223.94C447.446 224.472 447.348 224.962 447.348 225.452C447.348 226.46 448.328 227.146 450.47 227.146C452.388 227.146 454.18 226.936 455.314 226.6L455.328 228.126C454.236 228.406 452.5 228.616 450.512 228.616C447.516 228.616 445.878 227.622 445.878 225.788C445.878 225.018 446.046 224.36 446.158 223.814L447.614 223.94ZM454.81 216.66C455.16 217.164 455.664 218.046 455.944 218.592L455.02 218.998C454.74 218.424 454.278 217.57 453.9 217.038L454.81 216.66ZM456.406 216.072C456.77 216.59 457.302 217.472 457.568 217.976L456.644 218.382C456.35 217.78 455.888 216.982 455.496 216.45L456.406 216.072ZM458.31 220.454H462.468V221.476H458.31V220.454ZM458.366 216.66H462.426V217.682H458.366V216.66ZM458.31 222.344H462.468V223.366H458.31V222.344ZM457.652 218.508H462.93V219.586H457.652V218.508ZM458.898 224.248H462.482V228.42H458.898V227.342H461.334V225.326H458.898V224.248ZM458.296 224.248H459.43V229.022H458.296V224.248ZM463.252 217.052H470.336V218.032H463.252V217.052ZM463.616 218.732H470.126V219.656H463.616V218.732ZM462.916 220.412H470.63V221.392H462.916V220.412ZM466.122 216.184H467.382V221.238H466.122V216.184ZM463.924 222.092H469.3V223.058H465.156V229.162H463.924V222.092ZM468.572 222.092H469.818V227.874C469.818 228.476 469.692 228.784 469.286 228.966C468.866 229.134 468.25 229.134 467.368 229.134C467.326 228.826 467.158 228.364 467.004 228.07C467.592 228.084 468.166 228.084 468.348 228.07C468.53 228.07 468.572 228.014 468.572 227.86V222.092ZM464.47 223.898H469.202V224.808H464.47V223.898ZM464.47 225.662H469.202V226.558H464.47V225.662ZM471.33 218.438H483.664V219.726H471.33V218.438ZM478.022 219.572C479.058 222.806 481.186 225.732 484.084 227.006C483.762 227.286 483.328 227.804 483.104 228.182C480.136 226.684 478.134 223.534 476.972 219.88L478.022 219.572ZM481.97 220.16L483.132 220.986C482.194 222.05 480.948 223.268 479.996 224.052L479.044 223.324C479.982 222.526 481.242 221.196 481.97 220.16ZM479.254 217.024L480.052 216.184C480.906 216.604 482.054 217.248 482.656 217.71L481.816 218.648C481.27 218.172 480.136 217.472 479.254 217.024ZM472.002 221.084L473.01 220.398C473.836 221.126 474.83 222.162 475.264 222.89L474.186 223.674C473.78 222.946 472.828 221.854 472.002 221.084ZM476.762 216.212H478.12V227.482C478.12 228.336 477.924 228.714 477.406 228.938C476.888 229.176 476.02 229.204 474.774 229.204C474.704 228.826 474.508 228.21 474.298 227.804C475.222 227.846 476.118 227.832 476.398 227.832C476.664 227.818 476.762 227.748 476.762 227.482V216.212ZM470.924 226.642C472.1 226.054 473.92 225.032 475.628 224.052L476.062 225.242C474.592 226.166 472.982 227.132 471.75 227.846L470.924 226.642ZM490.72 217.458C489.558 219.11 487.346 221 485.022 222.246C484.854 221.924 484.49 221.448 484.196 221.168C486.604 219.978 488.9 217.892 489.964 216.156H491.336C492.834 218.228 495.186 220.062 497.398 221C497.076 221.336 496.754 221.784 496.516 222.19C494.36 221.07 491.98 219.152 490.72 217.458ZM487.234 220.426H494.262V221.602H487.234V220.426ZM485.484 223.254H496.012V224.416H485.484V223.254ZM484.812 227.608H496.754V228.756H484.812V227.608ZM490.006 220.888H491.406V228.196H490.006V220.888ZM486.52 225.046L487.584 224.612C488.144 225.354 488.718 226.376 488.914 227.048L487.78 227.552C487.598 226.88 487.052 225.816 486.52 225.046ZM493.758 224.598L495.018 225.088C494.458 225.956 493.828 226.922 493.31 227.552L492.316 227.132C492.806 226.446 493.422 225.382 493.758 224.598ZM499.526 219.74H502.298V220.664H499.526V219.74ZM500.114 216.212H501.346V218.256H500.114V216.212ZM499.176 224.542H502.886V228.308H499.176V227.272H501.738V225.578H499.176V224.542ZM497.776 217.416H503.698V219.544H502.578V218.466H498.854V219.544H497.776V217.416ZM498.56 224.542H499.68V228.938H498.56V224.542ZM502.074 219.74H502.284L502.48 219.684L503.236 220.034C502.326 222.652 500.268 224.444 498.056 225.382C497.902 225.102 497.594 224.654 497.356 224.43C499.386 223.688 501.346 222.008 502.074 219.936V219.74ZM499.974 218.718L501.066 218.998C500.45 220.426 499.372 221.714 498.266 222.554C498.084 222.344 497.65 221.938 497.398 221.77C498.49 221.056 499.456 219.936 499.974 218.718ZM498.7 221.672L499.414 220.874C500.856 221.826 502.872 223.24 503.866 224.122L503.096 225.06C502.144 224.136 500.17 222.68 498.7 221.672ZM503.81 216.8H510.362V217.934H503.81V216.8ZM505.49 222.204V223.338H508.766V222.204H505.49ZM505.49 224.29V225.452H508.766V224.29H505.49ZM505.49 220.118V221.252H508.766V220.118H505.49ZM504.3 219.11H510.026V226.46H504.3V219.11ZM506.442 217.374L507.884 217.556C507.632 218.382 507.324 219.278 507.086 219.866L505.98 219.642C506.148 218.998 506.344 218.046 506.442 217.374ZM505.462 226.642L506.568 227.314C505.84 228.028 504.636 228.756 503.614 229.162C503.404 228.924 503.026 228.546 502.746 228.308C503.768 227.93 504.916 227.23 505.462 226.642ZM507.478 227.328L508.444 226.698C509.242 227.216 510.278 227.986 510.796 228.518L509.76 229.204C509.284 228.686 508.276 227.874 507.478 227.328ZM516.704 218.41C518.314 218.662 521.128 218.592 522.57 218.396V219.824C520.974 219.992 518.342 219.992 516.704 219.824V218.41ZM517.502 224.234C517.376 224.724 517.306 225.088 517.306 225.466C517.306 226.096 517.796 226.614 519.504 226.614C520.75 226.614 521.814 226.502 522.99 226.25L523.018 227.734C522.122 227.902 520.974 228.014 519.462 228.014C517.096 228.014 515.99 227.202 515.99 225.83C515.99 225.326 516.074 224.808 516.228 224.108L517.502 224.234ZM514.254 217.388C514.17 217.654 514.016 218.214 513.96 218.466C513.736 219.6 513.274 222.232 513.274 223.73C513.274 224.234 513.302 224.724 513.372 225.228C513.596 224.668 513.876 223.982 514.1 223.45L514.814 224.01C514.436 225.074 513.946 226.572 513.806 227.272C513.764 227.482 513.736 227.762 513.736 227.916C513.75 228.07 513.764 228.28 513.778 228.448L512.504 228.532C512.224 227.552 511.972 225.9 511.972 223.996C511.972 221.924 512.42 219.544 512.588 218.41C512.63 218.06 512.686 217.626 512.7 217.262L514.254 217.388ZM530.522 219.446H537.144V220.72H530.522V219.446ZM524.39 218.438H530.97V219.67H524.39V218.438ZM534.232 216.184H535.548V227.468C535.548 228.28 535.366 228.672 534.89 228.896C534.428 229.134 533.658 229.176 532.468 229.176C532.426 228.798 532.23 228.168 532.048 227.762C532.888 227.804 533.658 227.79 533.896 227.79C534.134 227.776 534.232 227.706 534.232 227.468V216.184ZM530.55 222.54L531.628 222.036C532.3 222.974 532.972 224.234 533.196 225.088L532.034 225.662C531.824 224.822 531.208 223.52 530.55 222.54ZM524.754 221.658L525.692 220.902C527.386 222.694 529.346 225.13 530.158 226.754L529.108 227.664C528.338 225.998 526.42 223.478 524.754 221.658ZM526.966 216.198H528.24V219.18H526.966V216.198ZM528.534 219.978L529.822 220.16C529.108 224.304 527.694 227.244 524.936 229.078C524.782 228.812 524.306 228.28 524.026 228.042C526.658 226.488 527.946 223.73 528.534 219.978ZM541.918 217.01C541.848 217.528 541.792 218.116 541.764 218.62C541.708 220.174 541.596 223.408 541.596 225.34C541.596 226.824 542.506 227.328 543.738 227.328C546.188 227.328 547.644 225.942 548.652 224.458L549.66 225.662C548.722 227.006 546.832 228.812 543.71 228.812C541.568 228.812 540.14 227.902 540.14 225.564C540.14 223.576 540.28 219.978 540.28 218.62C540.28 218.046 540.238 217.472 540.14 216.996L541.918 217.01ZM550.944 218.564C551.49 218.55 551.98 218.522 552.26 218.494C553.282 218.396 555.774 218.158 558.35 217.934C559.834 217.808 561.248 217.724 562.2 217.696L562.214 219.11C561.43 219.11 560.212 219.124 559.484 219.306C557.622 219.866 556.39 221.868 556.39 223.52C556.39 226.068 558.77 226.922 561.08 227.034L560.576 228.518C557.832 228.378 554.962 226.908 554.962 223.828C554.962 221.714 556.208 220.02 557.342 219.278C555.914 219.432 552.666 219.754 551.098 220.09L550.944 218.564ZM569.298 222.68H575.094V223.814H569.298V222.68ZM569.27 225.13H575.094V226.25H569.27V225.13ZM575.094 216.548L576.368 217.024C575.892 217.976 575.332 218.984 574.856 219.67L573.722 219.222C574.184 218.508 574.772 217.388 575.094 216.548ZM568.01 217.136L569.13 216.632C569.718 217.416 570.334 218.466 570.558 219.18L569.368 219.754C569.158 219.04 568.584 217.948 568.01 217.136ZM568.43 220.146H575.136V221.378H569.732V229.176H568.43V220.146ZM574.506 220.146H575.794V227.65C575.794 228.322 575.654 228.7 575.192 228.91C574.716 229.12 574.002 229.12 572.938 229.12C572.882 228.77 572.7 228.224 572.518 227.874C573.26 227.902 574.002 227.902 574.212 227.902C574.436 227.888 574.506 227.818 574.506 227.636V220.146ZM571.496 216.17H572.826V220.944H571.496V216.17ZM564.272 217.248L565.056 216.324C565.91 216.744 566.988 217.416 567.52 217.934L566.708 218.956C566.204 218.438 565.14 217.71 564.272 217.248ZM563.628 220.972L564.37 220.034C565.252 220.454 566.358 221.126 566.918 221.644L566.12 222.68C565.602 222.162 564.51 221.434 563.628 220.972ZM564.034 228.224C564.72 227.146 565.686 225.326 566.428 223.702L567.408 224.5C566.764 225.998 565.938 227.706 565.196 229.078L564.034 228.224ZM578.916 218.41H587.512V217.724H577.936V216.898H588.716V219.236H578.916V218.41ZM578.524 218.41H579.77C579.49 219.25 579.154 220.23 578.888 220.888L577.67 220.804C577.964 220.146 578.286 219.194 578.524 218.41ZM578.552 219.894H588.8V220.72H578.3L578.552 219.894ZM588.366 219.894H589.612C589.612 219.894 589.598 220.146 589.598 220.286C589.514 221.168 589.416 221.616 589.192 221.854C588.996 222.05 588.73 222.134 588.45 222.148C588.184 222.162 587.694 222.162 587.176 222.134C587.162 221.896 587.05 221.532 586.938 221.294C587.33 221.336 587.666 221.35 587.82 221.35C587.974 221.35 588.058 221.336 588.128 221.252C588.24 221.14 588.296 220.818 588.366 220.048V219.894ZM581.282 216.184H582.486V218.872C582.486 220.79 581.87 222.274 577.768 222.988C577.656 222.694 577.362 222.204 577.138 221.966C580.792 221.364 581.282 220.258 581.282 218.844V216.184ZM584.39 216.184H585.65V221.742H584.39V216.184ZM580.218 224.024V224.766H586.826V224.024H580.218ZM580.218 225.522V226.278H586.826V225.522H580.218ZM580.218 222.54V223.268H586.826V222.54H580.218ZM578.93 221.742H588.17V227.076H578.93V221.742ZM584.432 227.762L585.482 227.076C587.022 227.524 588.744 228.112 589.766 228.532L588.31 229.204C587.456 228.784 585.944 228.224 584.432 227.762ZM581.268 227.076L582.444 227.608C581.296 228.266 579.504 228.882 578.09 229.232C577.88 228.966 577.418 228.49 577.124 228.266C578.594 228 580.274 227.566 581.268 227.076ZM596.066 216.688L597.172 216.212C597.69 216.94 598.236 217.92 598.432 218.578L597.27 219.11C597.088 218.466 596.57 217.444 596.066 216.688ZM601.246 216.17L602.59 216.646C602.114 217.5 601.582 218.424 601.134 219.04L600.014 218.606C600.448 217.948 600.966 216.926 601.246 216.17ZM597.312 223.422H598.628C598.404 225.928 597.83 228.056 595.254 229.204C595.1 228.882 594.736 228.42 594.456 228.168C596.724 227.23 597.144 225.466 597.312 223.422ZM599.594 223.254H600.882V227.37C600.882 227.762 600.924 227.818 601.162 227.818C601.274 227.818 601.764 227.818 601.89 227.818C602.156 227.818 602.212 227.594 602.24 226.096C602.492 226.306 603.038 226.53 603.374 226.614C603.262 228.504 602.94 229.008 602.044 229.008C601.82 229.008 601.162 229.008 600.952 229.008C599.846 229.008 599.594 228.616 599.594 227.384V223.254ZM597.256 220.174V222.54H601.26V220.174H597.256ZM595.996 218.998H602.576V223.702H595.996V218.998ZM592.552 217.416H593.84V229.162H592.552V217.416ZM590.382 220.132H595.478V221.364H590.382V220.132ZM592.622 220.622L593.42 220.958C592.874 222.946 591.81 225.424 590.732 226.754C590.606 226.376 590.312 225.83 590.088 225.508C591.082 224.388 592.146 222.274 592.622 220.622ZM594.666 216.366L595.576 217.388C594.232 217.92 592.272 218.298 590.648 218.522C590.578 218.228 590.41 217.794 590.256 217.514C591.824 217.248 593.616 216.842 594.666 216.366ZM593.798 221.994C594.148 222.288 595.422 223.604 595.702 223.926L594.932 224.976C594.596 224.36 593.63 223.044 593.196 222.526L593.798 221.994ZM609.646 216.87C609.534 217.402 609.366 218.186 608.988 219.166C608.666 219.936 608.19 220.818 607.714 221.476C608.176 221.224 608.96 221.07 609.506 221.07C610.626 221.07 611.48 221.728 611.48 222.946C611.48 223.674 611.522 225.256 611.536 226.124H610.192C610.248 225.424 610.262 224.08 610.248 223.352C610.248 222.498 609.688 222.162 609.016 222.162C608.176 222.162 607.294 222.61 606.706 223.156C606.286 223.562 605.894 224.066 605.418 224.654L604.228 223.772C606.16 221.952 607.154 220.384 607.672 219.04C607.966 218.27 608.148 217.43 608.19 216.744L609.646 216.87ZM604.648 218.284C605.376 218.382 606.384 218.438 607.056 218.438C608.918 218.438 611.396 218.326 613.398 217.976L613.384 219.264C611.424 219.558 608.722 219.67 606.972 219.67C606.384 219.67 605.418 219.642 604.648 219.586V218.284ZM615.512 221.924C615.12 222.036 614.504 222.274 614.084 222.428C613.132 222.806 611.83 223.324 610.486 224.01C609.156 224.71 608.302 225.396 608.302 226.278C608.302 227.23 609.198 227.412 610.612 227.412C611.746 227.412 613.272 227.272 614.504 227.048L614.462 228.476C613.454 228.602 611.83 228.714 610.57 228.714C608.484 228.714 606.874 228.238 606.874 226.488C606.874 224.682 608.722 223.59 610.402 222.736C611.704 222.05 612.726 221.658 613.622 221.252C614.098 221.042 614.504 220.86 614.952 220.622L615.512 221.924ZM617.08 225.774H629.652V226.852H617.08V225.774ZM620.076 221.7V222.386H626.838V221.7H620.076ZM620.076 223.184V223.884H626.838V223.184H620.076ZM620.076 220.244V220.916H626.838V220.244H620.076ZM618.746 219.404H628.224V224.724H618.746V219.404ZM625.186 224.5H626.558V229.162H625.186V224.5ZM618.676 217.178H623.156V218.242H618.676V217.178ZM624.15 217.178H629.568V218.242H624.15V217.178ZM618.858 216.1L620.09 216.436C619.544 217.668 618.662 218.9 617.822 219.684C617.57 219.474 617.052 219.124 616.744 218.956C617.612 218.256 618.41 217.178 618.858 216.1ZM624.444 216.1L625.704 216.408C625.242 217.612 624.416 218.774 623.618 219.502C623.352 219.306 622.778 218.998 622.456 218.858C623.324 218.2 624.052 217.164 624.444 216.1ZM619.432 218.004L620.524 217.64C620.874 218.074 621.266 218.69 621.42 219.096L620.272 219.516C620.118 219.11 619.768 218.466 619.432 218.004ZM625.438 217.976L626.502 217.528C626.95 217.962 627.482 218.578 627.734 219.026L626.614 219.53C626.404 219.096 625.886 218.438 625.438 217.976ZM620.552 224.486H621.896V225.718C621.896 226.964 621.294 228.322 618.116 229.19C617.934 228.91 617.57 228.462 617.29 228.21C620.146 227.566 620.552 226.488 620.552 225.69V224.486ZM631.808 227.034H641.552V228.336H631.808V227.034ZM635.882 216.296H637.254V227.804H635.882V216.296ZM631.15 223.31H632.494V229.19H631.15V223.31ZM640.838 223.31H642.21V229.162H640.838V223.31ZM631.696 217.514H633.012V221.182H640.264V217.514H641.65V222.47H631.696V217.514ZM647.404 222.68C647.404 225.536 646.242 227.762 644.632 229.372L643.582 228.868C645.108 227.272 646.144 225.27 646.144 222.68C646.144 220.104 645.108 218.102 643.582 216.506L644.632 216.002C646.242 217.612 647.404 219.838 647.404 222.68Z" fill="white"/>
<path d="M379.691 143.989L406.639 105.414L410.515 99.6309C411.458 98.2363 412.34 96.7393 413.16 95.1396C414.021 93.54 414.76 91.9199 415.375 90.2793C415.99 88.6387 416.462 86.998 416.79 85.3574C417.159 83.7168 417.344 82.1377 417.344 80.6201C417.344 79.4307 417.18 78.1387 416.852 76.7441C416.564 75.3496 416.093 74.0781 415.437 72.9297C414.821 71.7402 414.001 70.7559 412.976 69.9766C411.95 69.1973 410.699 68.8076 409.223 68.8076C407.787 68.8076 406.598 69.1768 405.654 69.915C404.711 70.6123 403.932 71.5557 403.316 72.7451C402.701 73.9346 402.229 75.2881 401.901 76.8057C401.573 78.3232 401.348 79.8613 401.225 81.4199C401.102 82.9785 401.02 84.5166 400.979 86.0342C400.979 87.5107 400.979 88.8232 400.979 89.9717V91.4482H379.753V84.4961C379.753 79.5742 380.266 75.0215 381.291 70.8379C382.357 66.6133 384.06 62.9629 386.397 59.8867C388.735 56.8105 391.771 54.4111 395.503 52.6885C399.276 50.9658 403.85 50.1045 409.223 50.1045C413.898 50.1045 418.062 50.8223 421.712 52.2578C425.362 53.6934 428.438 55.7441 430.94 58.4102C433.442 61.0352 435.35 64.2344 436.662 68.0078C437.975 71.7402 438.631 75.9443 438.631 80.6201C438.631 84.3936 438.159 88.1055 437.216 91.7559C436.272 95.3652 434.816 99.0977 432.848 102.953C430.879 106.809 428.356 110.869 425.28 115.135C422.245 119.359 418.615 123.994 414.391 129.039C411.889 132.033 409.797 134.597 408.115 136.729C406.434 138.821 405.121 140.482 404.178 141.713H438.631V163H379.691V143.989ZM445.248 167.799C445.453 167.799 445.761 167.799 446.171 167.799C447.279 167.799 448.017 167.778 448.386 167.737C448.755 167.737 449.124 167.553 449.493 167.184C449.863 166.855 450.068 166.404 450.109 165.83C450.191 165.256 450.232 164.333 450.232 163.062H443.464V143.497H463.336C463.336 144.728 463.336 146.532 463.336 148.911C463.377 151.946 463.398 154.182 463.398 155.617C463.316 163.82 462.475 169.521 460.875 172.721C458.619 177.232 454.231 178.996 447.709 178.012L445.248 167.799ZM493.148 70.9609H466.201V52.3193H513.881L514.251 63.209L494.809 163H473.953L493.148 70.9609ZM540.002 127.87C539.961 128.403 539.94 128.896 539.94 129.347C539.94 129.798 539.94 130.229 539.94 130.639C539.94 132.443 539.981 134.31 540.063 136.237C540.186 138.165 540.473 139.929 540.925 141.528C541.417 143.128 542.114 144.44 543.016 145.466C543.96 146.491 545.252 147.004 546.892 147.004C551.978 147.004 555.055 143.087 556.121 135.253C556.285 134.187 556.388 132.669 556.429 130.7C556.47 128.731 556.49 126.271 556.49 123.317C556.49 121.964 556.429 120.364 556.306 118.519C556.223 116.673 555.916 114.909 555.383 113.228C554.849 111.546 554.009 110.131 552.86 108.982C551.753 107.793 550.194 107.198 548.184 107.198C547.2 107.198 546.257 107.444 545.354 107.937C544.452 108.429 543.611 109.085 542.832 109.905C542.094 110.685 541.417 111.587 540.802 112.612C540.186 113.638 539.653 114.704 539.202 115.812H521.053V52.1963H573.778V73.2373H540.986L540.186 93.2324C544.206 90.8125 548.061 89.6025 551.753 89.6025C555.198 89.6025 558.213 90.0537 560.797 90.9561C563.422 91.8584 565.678 93.1094 567.564 94.709C569.492 96.2676 571.071 98.1338 572.302 100.308C573.573 102.44 574.578 104.778 575.316 107.321C576.096 109.823 576.629 112.469 576.916 115.258C577.244 118.006 577.408 120.795 577.408 123.625C577.408 126.783 577.264 130.003 576.977 133.284C576.731 136.524 576.219 139.683 575.439 142.759C574.66 145.835 573.594 148.727 572.24 151.434C570.887 154.141 569.102 156.52 566.888 158.57C564.714 160.621 562.068 162.221 558.951 163.369C555.834 164.559 552.142 165.153 547.877 165.153C542.053 165.153 537.254 164.169 533.48 162.2C529.707 160.231 526.733 157.565 524.559 154.202C522.386 150.798 520.868 146.84 520.007 142.328C519.145 137.816 518.715 132.997 518.715 127.87H540.002ZM583.656 84.9268C583.656 80.1279 584.231 75.6162 585.379 71.3916C586.527 67.167 588.312 63.4961 590.732 60.3789C593.151 57.2207 596.228 54.7393 599.96 52.9346C603.734 51.0889 608.245 50.166 613.495 50.166C618.622 50.166 623.052 51.0684 626.784 52.873C630.558 54.6367 633.654 57.0977 636.074 60.2559C638.535 63.373 640.34 67.0439 641.488 71.2686C642.678 75.4932 643.273 80.0459 643.273 84.9268V130.516C643.273 135.191 642.657 139.621 641.427 143.805C640.196 147.988 638.351 151.68 635.89 154.879C633.429 158.037 630.332 160.539 626.6 162.385C622.867 164.23 618.499 165.153 613.495 165.153C608.45 165.153 604.041 164.251 600.268 162.446C596.535 160.601 593.439 158.119 590.978 155.002C588.517 151.844 586.671 148.173 585.441 143.989C584.251 139.765 583.656 135.273 583.656 130.516V84.9268ZM621.801 84.9268C621.801 74.3037 619.032 68.9922 613.495 68.9922C612.183 68.9922 611.055 69.2588 610.111 69.792C609.209 70.3252 608.45 71.0225 607.835 71.8838C607.22 72.7451 606.728 73.7295 606.359 74.8369C606.03 75.9443 605.784 77.0928 605.62 78.2822C605.456 79.4717 605.354 80.6406 605.313 81.7891C605.272 82.9375 605.251 83.9834 605.251 84.9268V130.516C605.251 131.828 605.333 133.407 605.497 135.253C605.661 137.058 606.03 138.801 606.605 140.482C607.179 142.123 607.999 143.518 609.066 144.666C610.173 145.814 611.65 146.389 613.495 146.389C615.259 146.389 616.694 145.855 617.802 144.789C618.909 143.682 619.75 142.328 620.324 140.729C620.899 139.129 621.288 137.406 621.493 135.561C621.698 133.715 621.801 132.033 621.801 130.516V84.9268Z" fill="white"/>
<path d="M652.845 142.2H672.421V145.791H656.486V164.344H652.845V142.2ZM670.651 142.2H674.317V160.279C674.317 162.125 673.943 163.097 672.795 163.696C671.648 164.294 670.102 164.369 667.883 164.369C667.733 163.347 667.11 161.676 666.586 160.753C667.883 160.853 669.529 160.828 670.002 160.828C670.476 160.828 670.651 160.678 670.651 160.229V142.2ZM654.815 151.501H672.446V155.092H654.815V151.501ZM661.574 144.195H665.189V153.297H661.574V144.195ZM676.312 166.564L681.823 141.726H684.691L679.204 166.564H676.312ZM692.49 141.776H704.635V145.317H692.49V141.776ZM692.515 147.711H704.759V151.152H692.515V147.711ZM692.415 153.546H704.56V157.062H692.415V153.546ZM689.922 141.776H693.662V150.354C693.662 154.693 692.964 160.928 688.774 164.369C688.226 163.621 686.755 162.249 685.957 161.751C689.622 158.708 689.922 154.045 689.922 150.329V141.776ZM702.914 141.776H706.779V159.98C706.779 162.025 706.306 163.047 705.034 163.646C703.712 164.269 701.892 164.344 699.348 164.344C699.148 163.272 698.425 161.501 697.852 160.529C699.448 160.653 701.542 160.628 702.141 160.628C702.715 160.628 702.914 160.429 702.914 159.93V141.776Z" fill="white"/>
<path d="M651.19 123.64C651.19 118.712 653.28 115.17 655.502 113.014L658.032 114.092C656.008 116.314 654.182 119.262 654.182 123.64C654.182 128.018 656.008 130.966 658.032 133.188L655.502 134.266C653.28 132.11 651.19 128.568 651.19 123.64ZM668.504 114.378L671.144 113.234C671.958 114.378 672.838 115.896 673.168 116.974L670.352 118.228C670.088 117.194 669.274 115.588 668.504 114.378ZM676.512 113.168L679.812 114.224C678.998 115.632 678.162 116.996 677.502 117.92L674.796 116.93C675.412 115.896 676.138 114.356 676.512 113.168ZM670.242 124.806H673.366C673.124 128.898 672.442 132.176 668.174 134.134C667.844 133.342 666.986 132.176 666.304 131.582C669.758 130.152 670.066 127.798 670.242 124.806ZM674.158 124.432H677.238V130.152C677.238 130.878 677.26 130.944 677.436 130.944C677.502 130.944 677.656 130.944 677.722 130.944C677.964 130.944 678.052 130.614 678.096 128.37C678.668 128.854 679.988 129.382 680.802 129.58C680.538 132.88 679.79 133.804 678.074 133.804C677.656 133.804 677.26 133.804 676.842 133.804C674.62 133.804 674.158 132.858 674.158 130.174V124.432ZM671.738 120.34V122.606H676.358V120.34H671.738ZM668.702 117.568H679.548V125.378H668.702V117.568ZM662.718 115.368H665.82V134.09H662.718V115.368ZM659.792 119.372H667.932V122.342H659.792V119.372ZM662.894 120.582L664.72 121.396C663.906 124.564 662.476 128.524 660.782 130.768C660.496 129.844 659.814 128.502 659.33 127.688C660.826 125.928 662.256 122.848 662.894 120.582ZM666.238 113.366L668.35 115.83C665.974 116.732 662.938 117.304 660.342 117.634C660.21 116.93 659.814 115.852 659.462 115.192C661.882 114.796 664.5 114.136 666.238 113.366ZM665.776 122.562C666.326 123.002 668.152 124.916 668.548 125.4L666.744 127.908C666.238 126.764 665.094 124.806 664.412 123.794L665.776 122.562ZM689.888 114.004H694.552V117.018H689.888V114.004ZM693.056 114.004H696.356C696.576 120.01 697.698 125.356 702.384 127.688C701.636 128.216 700.47 129.382 699.898 130.152C695.08 127.226 693.804 121.55 693.518 115.39H693.056V114.004ZM692.88 118.778L696.18 119.24C695.256 124.168 693.342 127.93 690.108 130.174C689.646 129.558 688.392 128.304 687.666 127.754C690.658 126.016 692.264 122.848 692.88 118.778ZM687.292 121.704V129.998H684.168V124.652H681.902V121.704H687.292ZM687.292 128.612C688.106 129.976 689.602 130.526 691.758 130.614C694.442 130.724 699.458 130.658 702.626 130.372C702.274 131.142 701.768 132.682 701.614 133.628C698.82 133.782 694.442 133.826 691.692 133.694C689.074 133.584 687.336 133.034 685.884 131.34C684.982 132.132 684.058 132.924 682.87 133.87L681.33 130.526C682.298 129.976 683.398 129.316 684.366 128.612H687.292ZM681.814 115.61L684.19 113.696C685.444 114.598 687.05 115.962 687.798 116.974L685.246 119.086C684.608 118.074 683.068 116.6 681.814 115.61ZM710.81 123.64C710.81 128.568 708.72 132.11 706.498 134.266L703.968 133.188C705.992 130.966 707.818 128.018 707.818 123.64C707.818 119.262 705.992 116.314 703.968 114.092L706.498 113.014C708.72 115.17 710.81 118.712 710.81 123.64Z" fill="white"/>
</svg>
