<svg id="_レイヤー_1" data-name="レイヤー 1" xmlns="http://www.w3.org/2000/svg" viewBox="0 0 180 170"><defs><style>.cls-1{fill:none;stroke:#150301;stroke-linecap:round;stroke-linejoin:round;stroke-width:2.81px}.cls-2{fill:#150301}.cls-2,.cls-3,.cls-4,.cls-5{stroke-width:0}.cls-3{fill:#e50012}.cls-4{fill:#fff}.cls-5{fill:#fff000}</style></defs><path class="cls-5" d="M158.96 86.76s.38-8.33-9.24-8.11c0 0-.16-4.73-7.1-4.78-10.29-28.45-38.85-32.56-38.85-32.56S64.05 31.09 43.83 56.7c0 0-5.07-3.06-8.52 2.51 0 0-6.48-2.64-9.32 3.81 0 0-5.52-.29-6.02 5.38 0 0-6-.24-6.8 7.82 0 0-5.8 2.41-3.62 8.8 0 0-5.21 4.01-2.09 9.37 0 0-4.24 4.68.2 8.53 0 0-3.38 5.64 2.57 9.19 0 0-1.47 4.69 3.46 7.29 0 0-1.27 2 .53 4.55.04.07.1.13.14.2.02.03.04.05.06.08 1.85 2.48 5.2 2.82 5.2 2.82-1.51 3.88 1.22 5.12 3.69 4.88 0 0-.04-.1.27-.13-.35.9-.81 3.51 2.18 5.56 2.32 1.57 4.63 1.32 4.63 1.32s.16 3.12 2.99 4.6c2.68 1.39 5.57.18 5.57.18 2.1 7.34 9.04 4.13 9.04 4.13s1.26 5.66 6.92 2.86c.5 1.03 1.05 3.41 4.78 4.4 2.84.74 5.07-.3 5.72-.73.47 1.02 1.33 2.74 2.75 3.29 2.8 1.08 5.36-.59 5.36-.59s3.24 5.93 9.87 1.7c0 0 1.71 2.26 4.84 2.79 3.34.54 5.48-1.43 5.48-1.43s1.3 2.29 4.78 2.39c2.9.07 4.05-2.1 4.4-2.71 4.34 5.19 9.02.35 9.02.35s5.17 3.28 8.7-1.41c0 0 2.19 1.06 5.02.55 3.05-.57 4.28-3.3 4.28-3.3s1.55 1.28 4.18.65c2.96-.71 5.37-4.2 5.37-4.2s7.22 2.7 10.68-6.1l.22.06s5.66.38 6.7-6.88c0 0 4.78-1.09 4.73-6.8 0 0 5.73-2.95 3.73-9.37 0 0 3.8-3.22 1.45-7.67 0 0 4.6-4.84.46-9.64 0 0 2.99-5.36-2.83-9.21 0 0 2.23-7.09-5.66-9.79z"/><g><path class="cls-2" d="M76.48 39.68c.16-.8.81-1.41 1.9-1.84 1.75-.69 3.97 1.14 3.97 1.14.13-1.26 1.26-1.58 1.26-1.58-4.52-5.52-10.18-15.39-10.62-20.17-.44-4.73 4.75-9.6 10.46-6.46 5.72 3.14 9.93 13.1 9.93 13.1-.81-12.42 3.5-14.59 6.48-14.12 2.99.46 7.64 3.54 9.46 11.89 1.49 6.84-2.18 14.9-3.25 17.18 0 0 1.49-.82 2.81-.11 0 0 2 1 1.07 4.31 0 0-.47 1.51-1.72 2.63 0 0-1.2 1.16-1.72.86-.53-.31.06-.87.06-.87s1.53-1.7 1.32-3.81c-.22-2.11-2.87-1.6-3.86.55 0 0-.78 1.27-1.59.88-.88-.42.26-2.45.26-2.45 2.72-5.39 4.92-13.48 2.97-19.97-1.94-6.49-6.7-9.68-8.85-5.33-2.14 4.34-.65 16.31-.56 18.21.09 1.9-.64.73-.64.73-2.13-5.45-6.01-12.33-6.01-12.33-7-11.9-13.17-8.79-12.73-3.66.34 3.75 6.86 14.97 10.35 20.38v.03s1.42 1.07 1.83 2.9c0 0 .16.53-.41.43-.57-.1-.37-.84-2.16-1.85-1.8-1.02-2.69-.22-1.31 1.82 0 0-.09.71-.78.38-.7-.34-1.61-1.36-1.61-1.36s-2.12-1.93-3.59-1c-1.47.94.73 3.97.73 3.97s-1.4-.41-2.02-1.21c0 0-1.75-1.34-1.41-3.3z"/><g><path class="cls-3" d="M129.1 112.2c1.31-7.53 8.24-12.62 15.47-11.35 7.24 1.27 12.04 8.4 10.73 15.93-1.31 7.54-8.24 12.62-15.47 11.35-7.24-1.26-12.04-8.39-10.73-15.93zM22.4 95.93c1.45-8.32 9.57-13.85 18.14-12.35 8.58 1.5 14.35 9.46 12.9 17.78-1.45 8.32-9.57 13.85-18.14 12.35s-14.34-9.46-12.89-17.78z"/><g><path class="cls-2" d="M58.04 73.11c.48-10.2 9.15-18.09 19.36-17.62 10.21.48 18.1 9.14 17.62 19.35-.48 10.22-9.15 18.1-19.36 17.62-10.21-.48-18.1-9.15-17.62-19.36z"/><path class="cls-4" d="M60.49 73.23c.42-8.86 7.94-15.71 16.8-15.3 8.86.42 15.71 7.94 15.3 16.8-.42 8.87-7.94 15.72-16.8 15.3-8.86-.42-15.71-7.94-15.29-16.81z"/><path class="cls-2" d="M92.47 76.16c.46-9.89 8.87-17.54 18.76-17.08 9.9.47 17.55 8.87 17.08 18.77-.46 9.9-8.86 17.54-18.76 17.08-9.9-.46-17.54-8.86-17.08-18.77z"/><path class="cls-4" d="M94.83 76.27c.41-8.59 7.7-15.23 16.29-14.83 8.59.4 15.23 7.69 14.83 16.29-.41 8.6-7.69 15.23-16.29 14.83-8.6-.41-15.23-7.7-14.83-16.29z"/><g><path class="cls-2" d="M82.09 137.51c-18.86-2.7-24.92-21.67-20.86-35.38 4.05-13.71 21.88-15.51 39.26-13.36 17.38 2.15 26.57 7.14 25.68 15.18-.54 4.89-4.94 7.22-8.4 8.32l-.58.16s-5.11 29.38-35.1 25.07z"/><path d="M75.2 106.93s-2.06-.13-1.25-1.54c.79-1.41 2.61-1.83 3.85-1.81 1.23.03 1.83.91.77 1.67 0 0 6.5 3.25 20.29 5.09 13.9 1.84 23.44.21 24.47-6.13 0 0 2.64-8.42-17.69-12.19-20.34-3.77-39.14-.95-42.18 12.23-3.03 13.2 4.38 29.07 19.7 30.66 24.17 2.51 29.74-18.3 30.95-21.13 0 0 .35-.75-.3-.74-.65.02-4.94 1.15-14.16-.27 0 0-3.08 14.75-14.41 13.63-14.28-1.42-10.03-19.46-10.03-19.46z" fill="#ef8200" stroke-width="0"/></g></g><g><polyline class="cls-1" points="107.25 72.89 101.22 79.54 110.42 78.4"/><line class="cls-1" x1="109.67" y1="84.03" x2="101.22" y2="79.54"/></g><g><polyline class="cls-1" points="81.38 71.27 86.77 78.45 77.64 76.05"/><line class="cls-1" x1="77.94" y1="82.13" x2="86.77" y2="78.45"/></g><path class="cls-3" d="M84.62 124.02c5.1.9 7.76-1.84 7.76-1.84-.69-7.72-9.07-12.82-15.48-10.06 0 0-.47 10.45 7.72 11.9z"/></g><path class="cls-2" d="M158.96 86.75s.38-8.33-9.24-8.11c0 0-.16-4.73-7.1-4.78-10.29-28.45-38.85-32.56-38.85-32.56S64.05 31.08 43.83 56.69c0 0-5.07-3.06-8.52 2.51 0 0-6.48-2.64-9.32 3.81 0 0-5.52-.29-6.02 5.38 0 0-6-.24-6.8 7.82 0 0-5.8 2.41-3.62 8.8 0 0-5.22 4.01-2.09 9.37 0 0-4.24 4.68.2 8.53 0 0-3.38 5.63 2.57 9.19 0 0-1.47 4.69 3.46 7.29 0 0-1.27 2 .53 4.54.04.07.1.13.14.2.02.03.04.05.06.08 1.85 2.48 5.2 2.82 5.2 2.82-1.51 3.88 1.22 5.13 3.69 4.88 0 0-.04-.1.27-.13-.35.9-.81 3.52 2.18 5.56 2.32 1.57 4.63 1.32 4.63 1.32s.16 3.12 2.99 4.6c2.68 1.39 5.57.18 5.57.18 2.1 7.34 9.04 4.13 9.04 4.13s1.26 5.66 6.92 2.86c.5 1.03 1.05 3.41 4.78 4.4 2.85.74 5.07-.3 5.72-.73.47 1.02 1.33 2.74 2.75 3.29 2.8 1.08 5.36-.59 5.36-.59s3.23 5.93 9.87 1.7c0 0 1.71 2.26 4.84 2.79 3.34.54 5.48-1.43 5.48-1.43s1.3 2.29 4.78 2.38c2.9.07 4.06-2.1 4.4-2.71 4.34 5.19 9.02.35 9.02.35s5.17 3.28 8.7-1.41c0 0 2.19 1.06 5.02.56 3.05-.57 4.28-3.3 4.28-3.3s1.55 1.28 4.18.65c2.96-.71 5.37-4.2 5.37-4.2s7.22 2.7 10.68-6.1l.22.07s5.66.37 6.7-6.89c0 0 4.78-1.09 4.73-6.8 0 0 5.73-2.95 3.73-9.37 0 0 3.8-3.22 1.45-7.67 0 0 4.6-4.84.46-9.64 0 0 2.99-5.36-2.83-9.21 0 0 2.23-7.09-5.66-9.79zm2.43 9.87s-.48 1.15.81 1.59c1.3.45 2.17 1.22 2.69 2.86.51 1.64-.47 3.15-.78 3.69-.3.56-.9 1.17 0 1.67.91.5 1.92 1.75 1.83 3.67-.08 1.92-1.15 2.94-1.69 3.37-.55.44-.86.84-.42 1.54.43.69 1.12 2.34.77 3.95-.35 1.6-1.62 2.56-1.62 2.56s-.76.37-.23 1.32c.53.96.75 2.68 0 4.36-.75 1.67-1.97 2.49-2.73 2.85-.76.36-1.16.47-1.04 1.44.12.96-.11 2.28-.93 3.29-.81.99-2.41 1.37-2.41 1.37s-1.2 0-.98.91c.23.9.12 5.31-4.86 5.57l-.65.04s-1.12.01-1.49 1.11c-.08.22-.12.55-.14.91-.18.75-.76 1.57-.86 1.77-1.42 3.03-4.53 3.37-7.18 2.08 0 0-1.28-.45-1.73.6-.34.79-1.71 3.73-4.42 4.32-1.5.32-3.7-1.19-4.05-1.77-.35-.6-1.53-.41-1.58.39-.01.78-.63 3.36-2.04 3.77-1.86.55-3.93.3-4.97-1.38-.54-.88-1.63-.49-1.69.31-.06.91-.03 2.56-3.03 3.13-1.72.33-2.72-1.09-3.58-1.79-.51-.42-1.3-.23-1.59.36-.42.84-1.51 2.43-3.69 2.19-2.13-.23-2.68-1.17-3.31-1.55-.61-.52-1.18-1.08-1.18-1.08s-.83-.64-1.32.1c-.49.77-1.3 2.76-3.34 2.65-2.57-.14-3.43-2.4-3.51-3.09-.05-.71-.74-.94-1.17-.19-.4.75-2.3 3.04-3.92 2.96-1.86-.13-3.78-1.56-4.37-3.27 0 0-.78-1.32-2.07.16-.76.85-1.61 1.94-4.33 1.62-1.92-.24-2.1-1.45-2.6-2.04 0 0-.3-2.22-1.48-1.62 0 0-2.33 2.35-5.24 1.2-3.28-1.28-1.9-3.73-3.35-3.94-.36-.05-.62.2-.78.62-.12.13-1.34 1.45-4.25.7-2.35-.61-3-2.45-3.14-3.16-.14-.72-.52-.82-.52-.82-1.23-.69-1.6.98-4.58.39-2.22-.45-2.88-2.37-3.07-3.31-.1-.51-.56-.92-1.07-.89-1.28.08-2.43 2.03-4.4.72-2.2-1.47-2.29-3.14-2.14-4.22 0 0-.08-1.25-1.68-.59-1.62.68-3.76.74-5.17-.19-1.28-.84-1.3-3.06-1.12-3.83.16-.79-.98-1.08-1.53-.68-1.35 1-3.1.66-4.46-.19-2.21-1.37-1.01-3.8-.88-4.61 0-.06.05-.18.04-.23-.3-1.17-2.77-.99-2.77-.99-.57.01-1.06-.1-1.49-.39-1.63-1.13-.78-2.53-.09-3.17.92-.85.71-2.19-1.46-2.07h-.15c-.07 0-.15.01-.22.02-.51.04-1.61.04-2.42-.46-.83-.54-1.17-1.2-1.52-1.96-.54-1.16.07-3.44.07-3.44s.32-.75.08-1.35c-.24-.57-1.15-.63-1.15-.63s-2.06-.16-2.69-1.22c-.63-1.06-.05-3.13.48-4.25.52-1.13-.71-1.4-.71-1.4s-2.47-.58-3.09-2.06c-.62-1.48.53-3.46 1.08-4.08.55-.6.53-1.1-.1-1.52-.62-.43-1.8-1.64-1.8-3.11 0-1.46.97-2.82 1.68-3.59.72-.76.04-1.27.04-1.27-1.02-1.1-1.37-2.18-.96-4.17.4-1.98 1.88-2.99 2.54-3.59.67-.6.26-1.3.26-1.3-.37-1.01-.32-2.08.27-3.91.6-1.83 1.78-2.33 2.5-2.63.72-.29.68-1.27.68-1.27.58-6.56 5.11-5.79 5.85-5.74.72.05.91-.92.91-.92.98-4.3 4.17-4.58 5.14-4.33.96.23.91-.76.91-.76s.24-1.75 2.09-2.86c1.91-1.13 4.01-.31 4.77.03.75.35 1.08-.36 1.08-.36 2.52-4.45 6.93-1.77 7.98-1.27 1.06.49 1.38-.73 1.38-.73h.02c16.25-25.07 56.31-16.13 56.31-16.13s28.03 4.25 37.28 32.43v.06s.16 1.03 1.64 1.02c1.48-.01 2.71-.23 4.37.84 1.66 1.08 1.89 2.9 1.89 2.9s.14 1.2 1.7.94 3.6-.28 5.11 1.3c1.51 1.58 1.46 3.97 1.46 4.43 0 .47-.11 1.45.98 1.65 1.11.2 3.1.76 4.15 3.22 1.04 2.46.15 4.45.15 4.45z"/><path class="cls-5" d="M79.91 44.19s-2.2-3.03-.73-3.97c1.47-.94 3.59 1 3.59 1s.91 1.02 1.61 1.36c.7.33.78-.38.78-.38-1.37-2.03-.48-2.83 1.31-1.82s1.6 1.75 2.16 1.85c.57.09.41-.43.41-.43-.4-1.82-1.82-2.9-1.82-2.9v-.03c-3.49-5.41-10.02-16.63-10.35-20.38-.45-5.13 5.73-8.24 12.73 3.66 0 0 3.88 6.87 6.01 12.33 0 0 .73 1.17.64-.73-.1-1.91-1.58-13.87.56-18.21 2.15-4.35 6.91-1.16 8.85 5.33 1.95 6.49-.24 14.59-2.97 19.97 0 0-1.14 2.02-.26 2.45.81.39 1.59-.88 1.59-.88.98-2.14 3.64-2.65 3.86-.55.22 2.11-1.32 3.81-1.32 3.81s-.59.56-.06.87l-26.58-2.33z"/></g></svg>