<svg id="_レイヤー_1" data-name="レイヤー 1" xmlns="http://www.w3.org/2000/svg" viewBox="0 0 180 170"><defs><style>.cls-1{fill:none;stroke:#150301;stroke-linecap:round;stroke-linejoin:round;stroke-width:2.32px}.cls-2{fill:#150301}.cls-2,.cls-3,.cls-4{stroke-width:0}.cls-3{fill:#e50012}.cls-4{fill:#fff}</style></defs><path d="M166.92 101.09c-1.13-1.8-4.82-3.42-4.82-3.42 1.81-.86 1.64-2.16 1.64-2.16.18-2.43-4.18-3.75-4.18-3.75 2.45-4.86-5.15-5.88-5.15-5.88.96-1.31.13-2.55.13-2.55-.97-2-5.31-1.69-5.31-1.69 1.5-2.19-.77-4.51-2.91-4.39-2.07.11-3.49 1.35-3.57 1.42v.04l-.02-.03s.01 0 .02-.01c.16-2.25-1.76-3.35-3.32-2.81-1.85.64-2.34 1.46-2.34 1.46-4.76-21.07-19.77-28.17-31.63-30.4l.23-.23s2.29-2.46.46-4.46c-1.82-2-4.74-.3-5.19.17 0 0 .32-1.38-1.21-1.79 0 0 4.71-4.76 7.11-7.5 2.4-2.74 4.88-9.07.47-13.03 0 0-3.68-3.2-9.73 1.5 0 0 2.86-9.71-3.94-12.69-5.64-2.48-11.03 2.97-13.14 7.88 0 0-.95-3.43-4.92-4.1-5.5-.93-17.03 8.41-3.48 35.28 0 0-1.68-.91-3.18.12-1.35.94-1.41 2.97.38 4.59-10.55 6.1-21.42 17.98-22.34 41.12v.02c-.56-.3-1.36-.56-2.4-.54-1.66.03-3.13 1.71-2.23 3.82v-.02s-2.28-1.45-5.13-.02c-1.91.96-2.83 3.4-.7 5 0 0-4.21 1.1-4.49 3.31 0 0-.38 1.43.95 2.37 0 0-6.87 3.4-2.98 7.22 0 0-3.7 2.65-2.75 4.89 0 0 .26 1.28 2.26 1.51 0 0-2.98 2.72-3.47 4.79-.48 2.07.32 3.5 2.39 4.16 0 0-1.66 2.8-.73 4.4.93 1.61 3.36 1.42 3.36 1.42s-1.87 3.01-.83 4.91c1.05 1.91 4.06.93 4.06.93s-1.55 4.8.52 6.65c2.07 1.85 4.64.06 4.64.06s-.1 3.31 1.57 4.26c1.67.94 4.18-.38 4.18-.38s-.18 3.21 1.86 4.14c1.84.84 3.74-.25 3.74-.25s-.31 2.53 2.24 3.5c2.39.88 4.25-.31 4.25-.31 2.45 5.08 7.49 2.3 7.49 2.3s.34 1.99 3.74 2.1c1.75.05 3.06-.69 3.79-1.49.22.65 1.25 3.19 3.77 3.5 3.02.38 4.14-1.19 4.14-1.19s1.6 2.22 4.55 2.14c2.76-.1 4.54-2.09 4.54-2.09 4.62 4.03 8.75-.34 8.75-.34s1.08 1.48 4.63.56c1.29-.33 2.18-1.19 2.71-2.14.51.51 2.07 1.58 4.62 1.23 3.35-.46 4.37-2.48 4.93-3.42.67.29 1.48.48 2.44.42 3.5-.25 3.91-2.29 3.91-2.29s5.23 2.12 7.9-3.18c0 0 2.28 1.17 4.76.17 2.65-1.08 3.25-3.71 3.25-3.71s2.19.72 4.38-.51c2.85-1.61 2.56-4.4 2.38-5.34.26.08.44.14.44.14 2.1.57 5.01-.33 4.2-4.35 4.36-.19 3.98-3.42 3.98-3.42-.04-.82-.4-1.47-.4-1.47s2.32.63 4.05-.7c1.72-1.32 1.07-4.3 1.07-4.3s2.8.45 4.08-.98c1.28-1.43.12-4.54.12-4.54s3 .87 4.36-1.54c1.37-2.42-1.64-6.47-1.64-6.47s3.16-.05 3.54-2.19c.38-2.14-2.36-4.38-2.36-4.38s2.36-.61 2.72-2.43c.36-1.81-2.11-3.93-2.11-3.93 1.75-1.29 2.05-2.91.92-4.7z" fill="#fff000" stroke-width="0"/><g><path class="cls-2" d="M144.15 81.27v-.04l-.02.01.02.03z"/><path class="cls-3" d="M149.04 100.34c-2.11-6.54-9.01-10.05-15.4-7.83-6.39 2.21-9.86 9.33-7.75 15.88 2.11 6.55 9.01 10.05 15.4 7.83 6.39-2.22 9.86-9.33 7.75-15.87zM43.18 126.25c-2.73-6.13-.18-13.18 5.7-15.73 5.88-2.54 12.85.37 15.58 6.5 2.73 6.14.18 13.19-5.7 15.74-5.88 2.54-12.85-.36-15.57-6.51z"/><g><path class="cls-2" d="M123.13 77.6c-1.32-9.25-9.9-15.67-19.15-14.34-9.24 1.32-15.67 9.89-14.35 19.14 1.33 9.25 9.9 15.68 19.14 14.35 9.25-1.32 15.67-9.89 14.35-19.14z"/><path class="cls-4" d="M120.92 77.92c-1.15-8.03-8.59-13.6-16.62-12.46-8.03 1.15-13.6 8.59-12.45 16.62 1.15 8.03 8.59 13.61 16.61 12.45 8.03-1.15 13.6-8.59 12.46-16.61z"/><path class="cls-2" d="M91.86 82.74c-1.28-8.97-9.6-15.2-18.57-13.91-8.97 1.29-15.21 9.6-13.91 18.57 1.28 8.97 9.6 15.21 18.57 13.92 8.97-1.29 15.2-9.6 13.92-18.58z"/><path class="cls-4" d="M89.72 83.05c-1.11-7.79-8.33-13.2-16.12-12.08-7.79 1.12-13.19 8.33-12.07 16.12 1.11 7.79 8.33 13.2 16.12 12.08 7.78-1.11 13.19-8.33 12.07-16.11z"/><g><path class="cls-2" d="M82.73 119.44s-16.4.23-16.67-11c-.28-11.23 19.7-16.45 27.36-16.63 7.66-.19 20.58 2.92 23.72 14.73 3.15 11.8 1.68 36.64-13.6 39.17-15.28 2.53-19.79-17.25-20.81-26.26z"/><path d="M104.35 108.75s-1.67-.25-1.14-1.01 2.4-.68 3.48-.33c1.08.36 2.76 2 .22 2.79 0 0 6.51 22.21-4.57 24.66-9.37 2.07-11.09-16.44-11.09-16.44s-4.25.65-5.08.73c0 0-.77-.06-.86.64-.09.69 1.55 8.02 3.24 12.72 1.69 4.7 7.27 12.13 14.81 10.54 7.53-1.6 13.94-12.63 12.68-29.32-1.27-16.69-14.72-20.26-24.63-19.48-9.91.77-19.02 6.33-21.15 9.56-2.13 3.23-2.46 8.73 3.69 11.7 6.15 2.97 22.36 1.68 30.41-6.74z" fill="#ef8200" stroke-width="0"/><path class="cls-3" d="M106.29 119.11s2.05 10.62-3.19 13c-5.24 2.39-6.74-3.93-5.16-7.77 1.53-3.72 4.87-5.69 8.35-5.23z"/></g><polyline class="cls-1" points="76.99 80.34 84.85 84.78 75.85 84.71"/><line class="cls-1" x1="77.13" y1="89.5" x2="84.85" y2="84.78"/></g><path class="cls-2" d="M109.64 78.77c-.78-2.42-3.34-3.72-5.71-2.9-2.37.82-3.66 3.46-2.87 5.88.78 2.43 3.34 3.72 5.71 2.9 2.37-.82 3.65-3.46 2.87-5.88z"/><path class="cls-2" d="M166.92 101.09c-1.13-1.8-4.82-3.42-4.82-3.42 1.81-.86 1.64-2.16 1.64-2.16.18-2.43-4.18-3.75-4.18-3.75 2.45-4.86-5.15-5.88-5.15-5.88.96-1.31.13-2.55.13-2.55-.97-2-5.31-1.69-5.31-1.69 1.5-2.19-.77-4.51-2.91-4.39-2.07.11-3.49 1.35-3.57 1.42v.04l-.02-.03s.01 0 .02-.01c.16-2.25-1.76-3.35-3.32-2.81-1.85.64-2.34 1.46-2.34 1.46-4.76-21.07-19.77-28.17-31.63-30.4l.23-.23s2.29-2.46.46-4.46c-1.82-2-4.74-.3-5.19.17 0 0 .32-1.38-1.21-1.79 0 0 4.71-4.76 7.11-7.5 2.4-2.74 4.88-9.07.47-13.03 0 0-3.68-3.2-9.73 1.5 0 0 2.86-9.71-3.94-12.69-5.64-2.48-11.03 2.97-13.14 7.88 0 0-.95-3.43-4.92-4.1-5.5-.93-17.03 8.41-3.48 35.28 0 0-1.68-.91-3.18.12-1.35.94-1.41 2.97.38 4.59-10.55 6.1-21.42 17.98-22.34 41.12v.02c-.56-.3-1.36-.56-2.4-.54-1.66.03-3.13 1.71-2.23 3.82v-.02s-2.28-1.45-5.13-.02c-1.91.96-2.83 3.4-.7 5 0 0-4.21 1.1-4.49 3.31 0 0-.38 1.43.95 2.37 0 0-6.87 3.4-2.98 7.22 0 0-3.7 2.65-2.75 4.89 0 0 .26 1.28 2.26 1.51 0 0-2.98 2.72-3.47 4.79-.48 2.07.32 3.5 2.39 4.16 0 0-1.66 2.8-.73 4.4.93 1.61 3.36 1.42 3.36 1.42s-1.87 3.01-.83 4.91c1.05 1.91 4.06.93 4.06.93s-1.55 4.8.52 6.65c2.07 1.85 4.64.06 4.64.06s-.1 3.31 1.57 4.26c1.67.94 4.18-.38 4.18-.38s-.18 3.21 1.86 4.14c1.84.84 3.74-.25 3.74-.25s-.31 2.53 2.24 3.5c2.39.88 4.25-.31 4.25-.31 2.45 5.08 7.49 2.3 7.49 2.3s.34 1.99 3.74 2.1c1.75.05 3.06-.69 3.79-1.49.22.65 1.25 3.19 3.77 3.5 3.02.38 4.14-1.19 4.14-1.19s1.6 2.22 4.55 2.14c2.76-.1 4.54-2.09 4.54-2.09 4.62 4.03 8.75-.34 8.75-.34s1.08 1.48 4.63.56c1.29-.33 2.18-1.19 2.71-2.14.51.51 2.07 1.58 4.62 1.23 3.35-.46 4.37-2.48 4.93-3.42.67.29 1.48.48 2.44.42 3.5-.25 3.91-2.29 3.91-2.29s5.23 2.12 7.9-3.18c0 0 2.28 1.17 4.76.17 2.65-1.08 3.25-3.71 3.25-3.71s2.19.72 4.38-.51c2.85-1.61 2.56-4.4 2.38-5.34.26.08.44.14.44.14 2.1.57 5.01-.33 4.2-4.35 4.36-.19 3.98-3.42 3.98-3.42-.04-.82-.4-1.47-.4-1.47s2.32.63 4.05-.7c1.72-1.32 1.07-4.3 1.07-4.3s2.8.45 4.08-.98c1.28-1.43.12-4.54.12-4.54s3 .87 4.36-1.54c1.37-2.42-1.64-6.47-1.64-6.47s3.16-.05 3.54-2.19c.38-2.14-2.36-4.38-2.36-4.38s2.36-.61 2.72-2.43c.36-1.81-2.11-3.93-2.11-3.93 1.75-1.29 2.05-2.91.92-4.7zm-5.3 4.9s3.92 2.14 3.77 3.3c-.14 1.16-3.59.87-3.59.87s-1.09-.23-.82.78c.27 1.01 4.56 3.42 4.07 4.93 0 0 .52.81-3.35.67 0 0-2.06.3-1.12 1.53.31.41 3.87 3.8 2.97 5.67-.71 1.48-4.72-.46-4.72-.46s-.59-.31-1.4.21c-.81.51 2.98 4.44 1.73 5.75-1.25 1.31-4.71-.41-4.71-.41s-1.02-.47-1.21.29c-.19.76 2.71 4.55 1.51 5.57-1.52 1.31-4.73-1.19-4.73-1.19s-.44-.32-1.28.11c0 0-.66.39.08 1.29.54.66 1.85 2.29 1.24 3.58-.37.78-1.06 1.05-1.68 1.12-1.12.3-2.12-.57-2.12-.57-1.12-1.07-1.77-.44-.91.96.47.77 1.59 3.08.02 3.98-.39.23-.85.27-1.34.18 0 0-2.42-.29-2.52.61 0 .04.03.08.04.13 0 .04-.02.05-.02.09 0 .83.72 3.37-1.36 4.42-1.3.65-3.9-.05-4.37-.86-.33-.56-.96-.41-.92.39.06.77-.24 3.48-1.45 4.14-1.35.72-3.19.37-4.51-.51-1.3-.87-1.52.36-1.52.36-.01 1.07-.29 2.76-2.4 3.85-1.47.75-2.18-.2-2.8-.45 0 0-1.24-1.64-1.82-.62 0 0-.57 3.15-3.2 3.33-2.65.18-2.76-1.5-3.9-1 0 0-.35.07-.56.74-.21.67-.87 2.69-2.99 2.97-2.61.35-3.63-1.41-3.72-1.55-.08-.43-.28-.71-.59-.71-1.28 0-.4 2.6-3.4 3.43-2.66.74-4.37-1.89-4.37-1.89-.95-.75-1.49 1.39-1.49 1.39-.5.51-.8 1.68-2.51 1.65-2.4-.05-2.98-1.23-3.52-2.17-.93-1.62-1.78-.43-1.78-.43-.73 1.6-2.57 2.74-4.19 2.62-1.41-.13-2.76-2.64-3-3.42-.28-.8-.9-.67-1.04.02-.16.67-1.19 2.78-3.43 2.57-1.79-.17-2.22-2.24-2.55-3.05-.33-.8-1.12-.27-1.12-.27s-.57.46-1.16.89c-.61.29-1.2 1.14-3.07 1.08-2.57-.08-3.03-3.15-3.03-3.15-.53-.97-1.79.68-1.79.68-.61.26-1.34 1.22-2.75.53-2.44-1.19-2.25-3.34-2.18-4.24.05-.8-.15-1-.9-.37-2.56 2.15-4.11 1.69-4.11 1.69-1.47-.59.08-4.94-.18-5.68-.08-.21-.33-.41-.33-.41-.5-.24-1.03.46-1.03.46s-2.23 3.4-4.1 2.65c-1.47-.59.06-5.1-.36-5.76-.43-.66-1.25.11-1.25.11s-2.72 2.74-4.32 1.9c-1.61-.84.51-5.37-.21-6-.57-.5-1.4.25-1.4.25s-3.17 3.13-4.33 1.95c-1.44-1.47.83-5.83.99-6.32.49-1.47-1.56-1.09-1.56-1.09-3.61 1.38-3.39.45-3.39.45-.95-1.27 2.33-4.94 2.27-5.98-.07-1.04-1.03-.47-1.03-.47s-3.17 1.39-3.68.33c-.51-1.06 2.51-4.34 2.51-4.34 1.09-1.55-.31-1.1-.31-1.1s-4.34 1.01-3.47-1.69c.84-2.61 4.37-4.93 5.22-5.45.86-.52.73-1.17-.56-1.21-1.29-.04-3.52.04-3.44-1 .08-1.04 2.31-2.71 3.31-3.12 1.01-.42 1.56-.7 1.62-1.14.06-.44-1.18-.26-1.18-.26-2.1.06-3.7-.85-1.54-3.09 2.16-2.24 6.16-2.99 6.16-2.99.95-1.05-.41-.91-.41-.91s-3.39-.13-3.21-1.73c.14-1.3 3.64-1.87 5.08-2 1.79-.16.53-.78.53-.78s-2.9-1.36-1.96-2.76c.79-1.19 3.83-.65 5.51-.16 0 0 1.4.42.84-.68 0 0-1.52-2.22-.37-2.98.97-.65 2.87.97 3.86 2.02 0 0 .93.98 1.18-.73v-.05c.17-24.94 11.77-37.06 22.5-42.95.18-.1.37-.2.55-.3.36-.19.72-.38 1.08-.56-.76-.49-1.83-1.1-2.48-1.8-.28-.3-.49-.62-.55-.94-.24-1.27 1.76-1.2 3.42-.43.17.08.34.17.51.26 0 0 1.61.89 1.15-.2-.06-.13-.17-.35-.32-.63-1.11-2.1-4.47-8.16-6.04-13.65-3.47-12.24.92-20.94 5.16-20.61 4.25.34 4.4 5.53 4.4 5.53-.8 2.5-1.33 8.74-1.33 8.74.06 2.94.09 7.52.86 9.82.78 2.29 1.47 1.19 1.41-.25-.06-1.43-.13-18.48 5.27-24.48 5.39-6.01 13.7-3.8 9.14 9.93 0 0-4.86 7.03-5.63 13.26 0 0-.02 1.38.42 1.5.44.13.52-.55 1.06-1.7.55-1.14 4.13-11.62 10.38-14.89 6.25-3.27 8.79 2.9 4.19 9.04-4.6 6.13-7.32 8.31-7.32 8.31s-2.66.98-4.36 5.72c-.04.11-.08.21-.12.32 0 0-.3 1.18.47.7.19-.12.47-.53.82-1.05.81-1.22 2-3.07 3.32-3.48 1.56-.49 1.27 1.85.82 3.56-.1.38-.21.73-.31 1.01 0 0 .3.87.91.04.16-.21.44-.56.79-.95 1.01-1.13 2.66-2.65 3.94-2.64 1.27.01.76 1.64-.23 3.06-.36.52-.79 1.02-1.23 1.4 0 0-.49.42-.82.84.41.05.82.1 1.24.16.09.01.18.02.27.04 11.75 1.7 27.87 8.34 32.02 31.47 0 0 .4 2.29 1.28.93.79-1.2 2.51-3.43 3.67-3.38 1.95.07.87 3.51.87 3.51-.3 1.92.39 1.26.39 1.26 1.05-.78 4.22-3.63 5.57-2.6 1.35 1.03-.96 3.25-.96 3.25s-1 .99.75.57c1.41-.34 4.91-.92 5.45.26.68 1.45-2.49 2.67-2.49 2.67s-1.33.3-.09.99c0 0 4.02-.59 6.79.84 2.77 1.43 1.55 2.81-.46 3.43 0 0-1.24.22-1.04.62.2.4.82.49 1.9.56 1.08.07 3.73.93 4.14 1.89.41.96-1.73 1.6-2.93 2.05-1.21.45-1.12 1.11-.14 1.32.98.22 5.06 1.28 6.7 3.47 1.7 2.28-2.74 2.72-2.74 2.72s-1.48.02.06 1.14z"/></g></svg>