<svg id="グループ_20" data-name="グループ 20" xmlns="http://www.w3.org/2000/svg" width="1200.808" height="224.06" viewBox="0 0 1200.808 224.06"><defs><style>.cls-1,.cls-2{fill:#f7f7f7;stroke:#c03;stroke-width:3px;fill-rule:evenodd}.cls-1{stroke-linecap:round}.cls-2{stroke-linejoin:round}</style></defs><g id="l"><path id="シェイプ_519" data-name="シェイプ 519" class="cls-1" d="M304.425 1170.9l-179.114-137.76" transform="translate(-123.812 -967)"/><path id="シェイプ_520" data-name="シェイプ 520" class="cls-1" d="M295.714 1189.56l-142.855-64.13" transform="translate(-123.812 -967)"/></g><g id="r"><path id="シェイプ_521" data-name="シェイプ 521" class="cls-1" d="M1103.46 1157.38l167.26-135.2m16.96-13.71l35.45-28.648" transform="translate(-123.812 -967)"/><path id="シェイプ_522" data-name="シェイプ 522" class="cls-1" d="M1109.76 1175.55l139.77-53.29" transform="translate(-123.812 -967)"/></g><path id="シェイプ_549" data-name="シェイプ 549" class="cls-2" d="M1195.5 1013.61c-1.23-15.519-3.2-18.344-14.05-20.105 10.85-1.761 12.82-4.586 14.05-20.109 1.23 15.523 3.21 18.348 14.05 20.109-10.84 1.761-12.82 4.586-14.05 20.105zm0-36.367c1.2 11.4 3.4 14.55 11.37 16.262-7.97 1.712-10.17 4.862-11.37 16.265-1.2-11.4-3.4-14.553-11.36-16.265 7.96-1.712 10.16-4.862 11.36-16.262m0-8.751c-1.38 21.44-2.5 23.04-17.48 25.013 14.98 1.974 16.1 3.573 17.48 25.015 1.38-21.442 2.5-23.041 17.48-25.015-14.98-1.973-16.1-3.573-17.48-25.013z" transform="translate(-123.812 -967)"/><path id="シェイプ_549-2" data-name="シェイプ 549" class="cls-2" d="M1168.74 1057.9c-.79-9.99-2.06-11.8-9.04-12.94 6.98-1.13 8.25-2.95 9.04-12.94.79 9.99 2.06 11.81 9.04 12.94-6.98 1.14-8.25 2.95-9.04 12.94zm0-23.4c.77 7.33 2.18 9.36 7.31 10.46-5.13 1.1-6.54 3.13-7.31 10.47-.77-7.34-2.19-9.37-7.31-10.47 5.12-1.1 6.54-3.13 7.31-10.46m0-5.63c-.89 13.79-1.61 14.82-11.25 16.09 9.64 1.27 10.36 2.3 11.25 16.1.88-13.8 1.6-14.83 11.24-16.1-9.64-1.27-10.36-2.3-11.24-16.09z" transform="translate(-123.812 -967)"/><path id="シェイプ_549-3" data-name="シェイプ 549" class="cls-2" d="M255.5 1063.61c-1.231-15.52-3.205-18.34-14.053-20.11 10.848-1.76 12.822-4.58 14.053-20.1 1.231 15.52 3.205 18.34 14.053 20.1-10.847 1.77-12.821 4.59-14.053 20.11zm0-36.37c1.2 11.4 3.4 14.55 11.364 16.26-7.966 1.72-10.168 4.87-11.364 16.27-1.2-11.4-3.4-14.55-11.364-16.27 7.966-1.71 10.168-4.86 11.364-16.26m0-8.75c-1.379 21.44-2.5 23.04-17.479 25.01 14.982 1.98 16.1 3.58 17.479 25.02 1.379-21.44 2.5-23.04 17.479-25.02-14.982-1.97-16.1-3.57-17.479-25.01z" transform="translate(-123.812 -967)"/><path id="シェイプ_549-4" data-name="シェイプ 549" class="cls-2" d="M209.737 1005.9c-.792-9.986-2.062-11.8-9.042-12.937 6.98-1.133 8.25-2.951 9.042-12.939.792 9.988 2.062 11.806 9.042 12.939-6.979 1.137-8.25 2.951-9.042 12.937zm0-23.4c.77 7.335 2.187 9.362 7.313 10.464-5.126 1.1-6.543 3.128-7.313 10.467-.769-7.339-2.186-9.366-7.312-10.467 5.126-1.1 6.543-3.129 7.312-10.464m0-5.63c-.887 13.795-1.606 14.824-11.247 16.094 9.641 1.27 10.36 2.3 11.247 16.1.888-13.8 1.607-14.827 11.247-16.1-9.64-1.27-10.359-2.3-11.247-16.094z" transform="translate(-123.812 -967)"/></svg>