<svg id="_レイヤー_1" data-name="レイヤー 1" xmlns="http://www.w3.org/2000/svg" viewBox="0 0 600 600"><defs><clipPath id="clippath"><path class="cls-2" d="M20 318c0 154.64 125.36 280 280 280s280-125.36 280-280V10H20v308z"/></clipPath><style>.cls-2,.cls-3{fill:none}.cls-10,.cls-12,.cls-2,.cls-8,.cls-9{stroke-width:0}.cls-3{stroke:#000;stroke-linecap:round;stroke-linejoin:round;stroke-width:4px}.cls-9{fill:#fff}.cls-15{fill:#fdebe3;stroke:#fde5db;stroke-miterlimit:10}.cls-8{fill:#fce9dc}.cls-10{fill:#f0cba9}.cls-12{fill:#eee562}</style></defs><circle cx="300" cy="318" r="280" fill="#faf4e8" stroke-width="0"/><g clip-path="url(#clippath)"><g><g><g><path class="cls-15" d="M538.83 222.48c-1.3-.2-2.61-.65-3.57-1.56-5.69-5.43-2.01-12.18 2.95-16.49 1.43-1.26 2.97-2.29 4.43-3.05 1.12-.57 2.59-1.19 4.15-1.64 2.27-.64 4.73-.89 6.52.03 4.41 2.28 6.12 8.57 3.5 12.78-.84 1.33-2 2.42-3.17 3.47-4.08 3.63-9.08 7.1-14.45 6.5-.11-.01-.24-.03-.35-.04zm2.18 46.45c.52-.44 1.1-.81 1.74-1.1 2.93-1.37 6.9.17 9.25 2.28 2.11 1.88 2.61 5.13 1.73 7.81-.89 2.68-2.96 4.83-5.27 6.43-1.15.79-2.38 1.47-3.74 1.76-1.35.28-2.83.13-3.98-.67-.35-.24-.67-.54-.91-.86-1.18-1.47-1.42-3.64-1.42-5.6s.07-5.38.68-7.27c.35-1.1 1.03-2.04 1.91-2.78zm-.46-15.38c-1.64.18-3.29 0-4.67-.88-.86-.54-1.57-1.29-2.12-2.14-2.86-4.26-1.91-10.3 1.22-14.36 1.23-1.6 2.9-3.16 4.83-4.46 2.48-1.67 5.34-2.9 8.14-3.19 6.47-.65 12.31 5.48 10.26 12-1.16 3.68-4.42 6.26-7.62 8.43-2.25 1.53-4.59 2.99-7.17 3.91-.91.33-1.88.58-2.86.69zm-3.51-77.22c-.06-3.1 1.73-6.35 4.67-7.31 1.29-.42 2.71-.38 4.07-.24 1.78.18 3.65.61 5.01 1.8 3.88 3.39 4.02 10.85 1.8 15.21-2.48 4.9-8.95 6.28-13.7 8.26a5.5 5.5 0 00-1.67-.01c-.11-5.06-.23-11.26-.31-17.71h.13z"/><path d="M508.02 294.5h-40.26c-5.55-.37-5-10.37-5-10.37v-50.92l.17-.17a60.83 60.83 0 003.84-20.28c.04-3.02-.16-6.15-1.52-8.84-.33-.65-.88-1.32-1.56-1.95.03-.4.04-.78.09-1.18h-.06c0-19.24-1.61-37.5-1.61-56.73v-7.01s-.33-7.66 4.67-8h62.71s6.67-.99 7 6.67c0 0 .16 21.42.42 40.63.09 6.45.2 12.65.31 17.71.09 3.95.17 7.21.27 9.35l.71 1.05c-4.96 4.31-8.64 11.06-2.95 16.49.96.91 2.27 1.36 3.57 1.56.11.01.24.03.35.04l-.13 1.23v6.67l.75 1.27c-1.93 1.3-3.6 2.86-4.83 4.46-3.13 4.07-4.08 10.1-1.22 14.36.55.85 1.26 1.6 2.12 2.14 1.39.88 3.03 1.06 4.67.88-.01.27.01.52.07.78l.65.91v10.37l-.37.04c.16 1.09.18 2.2.1 3.29-.88.74-1.56 1.67-1.91 2.78-.61 1.88-.68 5.28-.68 7.27s.24 4.12 1.42 5.6v3.73l.41.04c-.88 7.62-8.05 6.16-8.05 6.16h-24.18z" stroke-width="0"/><path class="cls-9" d="M434.94 359.58a18.82 18.82 0 01-2.21-3.81c7.03 1.47 14.68.82 21.9-.38 3.87-.64 7.83-1.46 11.08-3.65 3.07-2.07 5.26-5.2 7.03-8.44 4.69-8.58 7.03-18.43 6.69-28.19l-1.91-.74c.17-.33.35-.67.51-.99l.2.1c2.46-.71 5.01-1.15 7.51-1.74l1.09.21v4.21l-1.44.2c1.1 8.7 1.9 17.51.41 26.12-1.6 9.35-6.25 18.57-14.25 23.66-7.38 4.69-19.46 3.3-28.73-1.25-3-1.46-5.69-3.26-7.85-5.28h-.01z"/><path class="cls-8" d="M432.73 355.77c-5.5-1.13-10.62-3.57-14.87-8.07-7.75-8.19-8.23-19.02-8.02-29.65h.33c.11-2.51.37-5.01.79-7.49l-1.57-.25c-.14-2.86 1.36-5.51 2.82-7.99 5.4-9.16 11.15-18.7 20.2-24.28h.03c.81-3.56 2.35-6.93 3.88-10.26 3-6.54 6.02-13.23 7.64-20.19.64-2.68 1.06-5.38 1.19-8.14.21-4.18-.24-8.4.57-12.49.68-3.44 2.21-6.66 2.97-10.07.81-3.56.76-7.3 1.9-10.77 1.12-3.47 1.54-7.55 5.2-7.69 2.29-.09 5.78 1.56 7.92 3.54.68.64 1.23 1.3 1.56 1.95 1.36 2.69 1.56 5.82 1.52 8.84a60.83 60.83 0 01-3.84 20.28l-.17.17v50.92s-.55 10 5 10.37h42.18v1.25c-5.65 7.64-13.97 13.27-23.16 15.71-.35.1-.71.18-1.06.27-2.49.59-5.04 1.03-7.51 1.74l-.2-.1c-.16.33-.34.67-.51.99l1.91.74c.34 9.76-2 19.6-6.69 28.19-1.77 3.24-3.95 6.37-7.03 8.44-3.24 2.2-7.21 3.02-11.08 3.65-7.22 1.2-14.87 1.86-21.9.38zm-99.64-220.6c.01-.55.11-2.11-.28-2.49-.75-.72-1.12-.07-1.25.37-.2.62-.14 2.11-.13 2.38.1 1.78 1.61 1.02 1.66-.25zm-52.72.04c.01-.57.06-2.22-.35-2.59-.74-.74-1.26-.3-1.37.31-.13.64-.09 2.22-.07 2.49.08 1.78 1.76 1.06 1.8-.21zm5.52 43.42c2.82 7.95 5.03 13.73 10.33 17.58 17.38 12.69 30.37-9.08 33.44-21.57.1-.44-4.65.75-4.99.82-6.59 1.42-13.78 1.93-20.53 1.76-4.82-.11-15.1-.98-19.69-2.65.45.71 1.16 3.27 1.43 4.07zm-31.39-12.42c-4.72-.57-8.46-6.53-10.31-10.4-2.41-5.01-2.79-10.86-1.83-16.21.69-3.8 2.9-6.94 6.23-6.94l1.74-1.56c-.3-1.77-.58-3.54-.88-5.33l-.4-.84c.13 0 .27-.01.4-.03.51-.06 1.02-.23 1.43-.5 1.46-.98 2.17-2.69 2.93-4.28 6.45-13.67 20.88-22.81 35.92-24.31 15.06-1.49 30.37 4.16 41.93 13.91.61.51 1.23 1.05 1.84 1.56 5.27 4.58 10.84 9.55 17.59 8.88 2.86-.27 5.34-1.52 7.51-3.31.48 1.93 1.26 3.78 2.31 5.47l1.4-.06a16.362 16.362 0 004.11 10.2c.51.92 1.3 1.64 2.32 1.56.82-.08 1.47-.68 2.07-1.25s1.2-1.13 1.8-1.71l-.28-.3c1.57-1.9 1.73-3.31 3.53-3.12.08.03.18.04.27.07.27.07.54.16.79.28 1.49.65 2.63 2.03 3.27 3.54.75 1.77.89 3.74.91 5.67.06 5.98-1.02 11.96-3.17 17.52-1.15 3.02-2.65 5.96-4.87 8.29-.18.2-.38.4-.59.59l-.14-.14c-2.61 1.67-5.5 2.89-8.51 3.58v.04c-.71 5.95-1.93 11.96-3.91 17.22a31.41 31.41 0 01-2.07 4.49c-1.66 3.05-3.73 5.89-5.95 8.57-.41.47-.81.95-1.22 1.42-5.88 6.83-15.43 13.8-23.59 17.73-20.57 9.9-39.97 1.23-54.64-13.87-1.2-1.25-2.38-2.52-3.51-3.84-.72-.84-1.43-1.69-2.12-2.56-.07-.07-.13-.16-.18-.23-2.85-3.58-5.35-7.44-6.94-11.7-1.44-3.88-2.11-8-2.68-12.11-.24-1.77-.4-3.03-.5-3.99-.07-.67-.11-1.18-.14-1.6-.51-.11-.99-.27-1.44-.5l-.1.16c-.1-.04-.21-.08-.33-.1z"/><path d="M368.76 134.04c-1.02.09-1.81-.64-2.32-1.56-.14-.16-.28-.33-.41-.48a16.401 16.401 0 01-3.7-9.72l-1.4.06a19.118 19.118 0 01-2.31-5.47c.45-.35.88-.74 1.3-1.15 2.65-2.55 4.83-5.84 6.73-8.97l2.27-1.39c2.63 2.27 5.09 4.73 7.22 7.47l.04-.03 1.78 2.05c.3.34.58.67.88 1.01l-1.66 3.07c-.09.33-.2.84-.23 1.03-.09.71-.23 2-.3 2.8l.41.04c-.23 1.71-.27 3.46-.14 5.2-.25-.13-.52-.21-.79-.28-.08-.03-.18-.04-.27-.07-1.8-.2-1.95 1.22-3.53 3.12l.28.3c-.59.58-1.2 1.15-1.8 1.71s-1.25 1.16-2.07 1.25z" fill="#463532" stroke-width="0"/><path class="cls-12" d="M248.62 107.43c-.47-1.81-1.05-3.58-1.74-5.33l1.67-2.1c.17-6.22.13-6.81.75-10.69 1.33-8.16 3.23-16.26 6.29-23.95 11.8-29.75 55.34-40.85 83.02-28.36 9.99 4.5 20.71 11.93 26.72 21.09 6.02 9.15 7.42 20.02 10.14 30.61 1.76 6.87 2.28 14.29 2.21 21.38 0 2.07.71 3.17.54 4.55l-.25.23-1.78-2.05-.04.03c-2.14-2.73-4.59-5.2-7.22-7.47l-2.27 1.39c-1.9 3.13-4.08 6.42-6.73 8.97-.42.41-.85.79-1.3 1.15-2.17 1.8-4.65 3.05-7.51 3.31-6.76.67-12.32-4.31-17.59-8.88-.61-.51-1.23-1.05-1.84-1.56-11.56-9.75-26.87-15.4-41.93-13.91-15.04 1.5-29.48 10.64-35.92 24.31-.76 1.59-1.47 3.3-2.93 4.28-.41.27-.92.44-1.43.5-.13.01-.27.03-.4.03-1.15 0-2.24-.55-2.51-1.63-.14-.55-.06-1.15.04-1.7-.01-3.37.82-9.89 2.03-14.18z"/><path d="M329.66 174.63c-3.07 12.49-16.06 34.27-33.44 21.57-5.3-3.85-7.51-9.63-10.33-17.58-.27-.79-.98-3.36-1.43-4.07 4.59 1.67 14.87 2.54 19.69 2.65 6.74.17 13.94-.34 20.53-1.76.34-.07 5.09-1.26 4.99-.82z" fill="#fa987f" stroke-width="0"/><path class="cls-15" d="M265.68 228.8c.2-1.26.37-2.54.52-3.8 1.19-9.6 1.33-19.32.42-28.95.06.07.11.16.18.23.69.88 1.4 1.73 2.12 2.56 1.13 1.32 2.31 2.59 3.51 3.84 14.66 15.1 34.07 23.77 54.64 13.87 8.16-3.94 17.71-10.91 23.59-17.73.41-.47.81-.95 1.22-1.42l.59.48c.01.17.03.35.03.52h.16c.59 7.98.98 20.77 2.72 28.64.01.06.03.13.04.18.23.98.48 2 1.02 2.8 0 0 .01.01.01.03.18.75.31 1.52.37 2.28l-1.08.1c-6.56 10.79-24.43 12.96-35.74 13.73-13.74.95-27.85-1.27-40.75-5.16-4.24-1.29-8.34-3.3-11.67-6.18-.64-2.01-1.27-4.02-1.91-6.03z"/><path d="M264.4 384.93v-.48l-2.14-1.6c-.17-.31-.31-.62-.45-.93-2.72-6.23-.57-13.95.5-17 .17-.5.31-.86.4-1.09 3.37 1.63 5.17 5.48 5.55 9.21.38 3.74-.95 7.13-1.18 10.88-.03.31-.03.65-.04 1.03h-2.63z" fill="#f1c8a4" stroke-width="0"/><path class="cls-8" d="M95.03 630.84c-13.64-6.57-23.61-20.1-26.15-34.99h-.03c-.99-3.24-1.97-6.49-2.95-9.73l1.73-.52c-3.46-12.79-6.9-25.58-10.35-38.36-2.01-7.44-4.04-15-3.84-22.71.23-8.23 2.97-16.18 5.84-23.91 5.5-14.79 20.3-55.06 26.96-71.28.64-.88 1.26-1.76 1.9-2.62-.61 5.18-1.08 9.67-1.25 12.64-2.73 48.23-4.22 98.22.54 147.09.11.33.23.67.34.99 3.46-1.35 6.69-3.41 10.17-4.75 10.69-4.09 22.59-1.03 34.02-.35 4.08.23 8.19.16 12.27-.06 2.24-.11 4.52-.25 6.67.34 2.14.61 4.18 2.12 4.75 4.29.93 3.64-2.49 6.9-5.82 8.63-1.8.93-3.67 1.71-5.6 2.32-2.04.67-4.14 1.13-6.26 1.39v.09c2.61.65 5.2 1.29 7.81 1.88 7.05 1.61 14.19 2.85 21.42 2.63 12.82-.38 25-5.27 37.11-9.48 2.51-.88 5.06-1.73 7.71-1.78 2.63-.06 5.43.79 7.13 2.82.48.57.88 1.25.93 2 .16 1.76-1.49 3.09-2.96 4.07-5.38 3.64-10.78 7.27-16.16 10.89-1.08.74-2.17 1.46-3.27 2.17.35.18.72.35 1.08.54 8.2-1.18 16.62-.33 24.79-1.7 3.13-.52 5.65-1.27 8.53-1.53l4.86.16c1.43.37 2.66 1.09 3.51 2 1.86 1.95 1.93 4.73-1.6 6.35-19.35 8.87-41.59 8.13-62.34 12.92-6.19 1.43-12.27 3.36-18.17 5.68-2.78 1.08-5.55 2.25-8.5 2.61-2.93.35-5.88-.11-8.8-.59l-4.42-.72c-.61-.09-1.22-.18-1.83-.3-4.49-.72-8.98-1.44-13.47-2.18-8.97-1.46-18.09-2.96-26.28-6.91z"/><path class="cls-9" d="M260.17 363.64l-158.89 3.16c6.43-39.82 10.86-73.56 44.1-99.74 14.8-11.64 45.31-17.18 63.5-21.05 13.71-2.92 27.71-5.94 39.75-13.13 4.93-2.96 9.63-6.64 15.24-7.89l.03-.17c.76.13 1.53.18 2.31.18-.16 1.26-.33 2.54-.52 3.8.64 2.01 1.27 4.02 1.91 6.03 3.33 2.88 7.44 4.89 11.67 6.18 12.9 3.88 27.01 6.11 40.75 5.16 11.3-.76 29.18-2.93 35.74-13.73l1.08-.1c-.06-.76-.18-1.53-.37-2.28 0-.01-.01-.03-.01-.03-.03-.17-.07-.33-.11-.48l.85-.23c3.3-.24 6.45 1.42 9.11 3.4 2.66 1.97 5.07 4.33 8.02 5.85 4.07 2.08 8.77 2.39 13.27 3.16 6.53 1.09 12.9 3.2 18.8 6.22l.07 1.15c5.31-1.42 10.94-1.64 16.45-1.84 5.54-.2 11.08-.41 16.6-.61v.06c1.49.3 2.96.58 4.45.88-1.61 6.96-4.63 13.64-7.64 20.19-1.53 3.33-3.07 6.7-3.88 10.26h-.03c-9.05 5.58-14.8 15.11-20.2 24.28-1.46 2.48-2.96 5.13-2.82 7.99l1.57.25c-.42 2.48-.68 4.99-.79 7.49h-.33c-.21 10.62.27 21.46 8.02 29.65 4.25 4.5 9.38 6.94 14.87 8.07a18.82 18.82 0 002.21 3.81h.01c2.15 2.04 4.84 3.84 7.85 5.3-.04.33-.1.65-.16.98l-.3-.04c-2.75 11.3-8 21.8-11.9 32.76-9.12 25.67-10.64 53.3-12.07 80.5h-.35c.16 2.52.27 5.03.33 7.54h-.27c-.48 25.02-.98 50-1.47 75-.18 9.5-.37 19.02-.04 28.51.65 18.75 5.38 44.85 7.39 70.02v2.01h-291.2v-1.66c.52-6.88.25-16.32 1.93-20l.09-.57c.61.11 1.22.21 1.83.3l4.42.72c2.92.48 5.86.95 8.8.59 2.95-.35 5.72-1.53 8.5-2.61 5.91-2.32 11.98-4.25 18.17-5.68 20.75-4.79 42.99-4.05 62.34-12.92 3.53-1.61 3.46-4.39 1.6-6.35 1.03-.59 2.08-1.19 3.1-1.78l24.41.81 11.46-11.96 4.66-7.41c-2.92-55.95-5.3-105.9-12.9-161.41-1.23-8.92-4.38-37.57-4.12-47.3.01-.38.01-.72.04-1.03.23-3.75 1.56-7.14 1.18-10.88-.38-3.73-2.18-7.58-5.55-9.21.06-.16.1-.24.1-.24l-2.63.06z"/><path class="cls-10" d="M93.49 384.93h-.23a36.741 36.741 0 01-1.5-15.45s-1.18-3.22 9.52-2.68l158.89-3.16c.72.42 1.43.85 2.14 1.27-1.06 3.05-3.22 10.77-.5 17l-1.19.4c-3.57 0-160.08 2.56-167.14 2.62z"/><path class="cls-10" d="M97.93 582.69c-3.48 1.33-6.71 3.4-10.17 4.75-.11-.33-.23-.67-.34-.99-4.76-48.87-3.27-98.86-.54-147.09.17-2.96.64-7.45 1.25-12.64 1.64-13.92 4.38-32.89 5.45-40.78h.04c-.06-.34-.1-.67-.14-1.01 7.05-.06 163.57-2.62 167.14-2.62l1.19-.4c.14.31.28.62.45.93l2.14 1.6v.48h2.63c-.25 9.75 2.89 38.39 4.12 47.31 7.61 55.51 9.99 105.46 12.9 161.41l-4.66 7.41-11.46 11.96-24.41-.81-6.62-.21c-.51-.13-1.03-.21-1.59-.24-1.16-.06-2.24-.03-3.27.08-2.88.25-5.4 1.01-8.53 1.53-8.17 1.37-16.59.52-24.79 1.7-.35-.18-.72-.35-1.08-.54 1.1-.71 2.2-1.43 3.27-2.17 5.38-3.63 10.78-7.25 16.16-10.89 1.47-.98 3.12-2.31 2.96-4.07-.06-.75-.45-1.43-.93-2-1.7-2.03-4.49-2.88-7.13-2.82-2.65.06-5.2.91-7.71 1.78-12.11 4.21-24.29 9.09-37.11 9.48-7.22.21-14.36-1.02-21.42-2.63-.52-1.12-1.03-2.24-1.54-3.36 1.93-.61 3.8-1.39 5.6-2.32 3.33-1.73 6.76-4.99 5.82-8.63-.57-2.17-2.61-3.68-4.75-4.29-2.15-.59-4.43-.45-6.67-.34-4.08.21-8.19.28-12.27.06-11.43-.68-23.33-3.74-34.02.35z"/></g><g><path class="cls-3" d="M463.72 200.78c0-19.24-.41-37.59-.41-56.83v-7.01s-.33-7.66 4.67-8l61.5.1s6.67-.99 7 6.67c0 0 .16 21.42.42 40.63.09 6.45.2 12.65.31 17.71.09 3.95.17 7.21.27 9.35"/><path class="cls-3" d="M542.4 185.94c-3.22-2.08-5.3-5.78-5.35-9.6-.06-3.1 1.73-6.35 4.67-7.31 1.29-.42 2.71-.38 4.07-.24 1.78.18 3.65.61 5.01 1.8 3.88 3.39 4.02 10.85 1.8 15.21-2.48 4.9-8.95 6.28-13.7 8.26-.03.01-.04.01-.07.03m-104.68 97.03c-2.29-3.4-2.69-7.79-1.98-11.81.07-.42.16-.85.27-1.27.81-3.56 2.35-6.93 3.88-10.26 3-6.54 6.02-13.23 7.64-20.19.64-2.68 1.06-5.38 1.19-8.14.21-4.18-.24-8.4.57-12.49.68-3.44 2.21-6.66 2.97-10.07.81-3.56.76-7.3 1.9-10.77 1.12-3.47 1.54-7.55 5.2-7.69 2.29-.09 5.78 1.56 7.92 3.54.68.64 1.23 1.3 1.56 1.95 1.36 2.69 1.56 5.82 1.52 8.84a60.83 60.83 0 01-3.84 20.28m76.23-10.51c5.37.59 10.37-2.88 14.45-6.5 1.18-1.05 2.34-2.14 3.17-3.47 2.62-4.21.91-10.5-3.5-12.78-1.78-.92-4.25-.67-6.52-.03-1.56.45-3.03 1.08-4.15 1.64-1.46.75-3 1.78-4.43 3.05-4.96 4.31-8.64 11.06-2.95 16.49.96.91 2.27 1.36 3.57 1.56.11.01.24.03.35.04zm-.13 1.23v6.67m1.5 23.12c.98-.11 1.95-.37 2.86-.69 2.58-.92 4.92-2.38 7.17-3.91 3.2-2.17 6.46-4.75 7.62-8.43 2.05-6.52-3.78-12.65-10.26-12-2.8.28-5.67 1.52-8.14 3.19-1.93 1.3-3.6 2.86-4.83 4.46-3.13 4.07-4.08 10.1-1.22 14.36.55.85 1.26 1.6 2.12 2.14 1.39.88 3.03 1.06 4.67.88z"/><path class="cls-3" d="M462.76 233.21v50.92s-.55 10 5 10.37h64.44s7.17 1.46 8.05-6.16c.07-.5.1-1.03.1-1.61m-.52-2.16c.24.33.55.62.91.86 1.15.79 2.63.95 3.98.67 1.36-.28 2.59-.96 3.74-1.76 2.31-1.6 4.38-3.75 5.27-6.43.88-2.68.38-5.92-1.73-7.81-2.35-2.11-6.32-3.65-9.25-2.28-.64.3-1.22.67-1.74 1.1-.88.74-1.56 1.67-1.91 2.78-.61 1.88-.68 5.28-.68 7.27s.24 4.12 1.42 5.6zm1.45-29.34v10.37m-63.07 47.87c2.46-.71 5.01-1.15 7.51-1.74.35-.08.71-.17 1.06-.27 9.19-2.44 17.51-8.07 23.16-15.71m-77.54-17.72c-9.05 5.58-14.8 15.11-20.2 24.28-1.46 2.48-2.96 5.13-2.82 7.99m.47 6.79c0 .31-.01.64-.01.95-.21 10.62.27 21.46 8.02 29.65 4.25 4.5 9.38 6.94 14.87 8.07 7.03 1.47 14.68.82 21.9-.38 3.87-.64 7.83-1.46 11.08-3.65 3.07-2.07 5.26-5.2 7.03-8.44 4.69-8.58 7.03-18.43 6.69-28.19m-44.49 44.48c-.62-.58-1.19-1.18-1.71-1.8"/><path class="cls-3" d="M485.07 314.13l.3 2.21c1.1 8.7 1.9 17.51.41 26.12-1.6 9.35-6.25 18.57-14.25 23.66-7.38 4.69-19.46 3.3-28.73-1.25-3-1.46-5.69-3.26-7.85-5.28m-77.76-130.26c3.3-.24 6.45 1.42 9.11 3.4 2.66 1.97 5.07 4.33 8.02 5.85 4.07 2.08 8.77 2.39 13.27 3.16 6.53 1.09 12.9 3.2 18.8 6.22m-2.2 1.84c.75-.25 1.5-.48 2.27-.69 5.31-1.42 10.94-1.64 16.45-1.84 5.54-.2 11.08-.41 16.6-.61.67-.03 1.32-.04 1.98-.07m-174.86-50.54c.91 9.63.76 19.35-.42 28.95-.16 1.26-.33 2.54-.52 3.8-.04.34-.1.68-.16 1.02m90.93.24c.18.27.4.52.64.74m-4.43-32.41c.59 7.99.98 20.78 2.72 28.66.01.06.03.13.04.18.23.98.48 2 1.02 2.8m-92.58-5.04c-5.61 1.25-10.31 4.93-15.24 7.89-12.04 7.2-26.04 10.21-39.75 13.13-18.19 3.87-48.7 9.41-63.5 21.05-33.23 26.18-37.67 59.92-44.1 99.74m162.47-136.21c1.09 1.59 2.39 3 3.84 4.25 3.33 2.88 7.44 4.89 11.67 6.18 12.9 3.88 27.01 6.11 40.75 5.16 11.3-.76 29.18-2.93 35.74-13.73m-77.11-99.52c.11-.61.64-1.05 1.37-.31.41.37.37 2.03.35 2.59-.04 1.27-1.71 2-1.8.21-.01-.27-.06-1.86.07-2.49zm52.92.12c.13-.44.5-1.09 1.25-.37.4.38.3 1.94.28 2.49-.04 1.27-1.56 2.04-1.66.25-.01-.27-.07-1.76.13-2.38zm-28.64-1.61c.75 3.43 1.46 7.21-.24 10.28-.78 1.4-2 2.55-2.59 4.02-1.46 3.67-.08 7.69 2.63 10.47m-16.83 22.42c2.82 7.95 5.03 13.73 10.33 17.58 17.38 12.69 30.37-9.08 33.44-21.57.1-.44-4.65.75-4.99.82-6.59 1.42-13.78 1.93-20.53 1.76-4.82-.11-15.1-.98-19.69-2.65.45.71 1.16 3.27 1.43 4.07zm-18.7-63.69c5.89-5.14 17.73-6.6 24.08-1.6m29.03.23c3.85-3.64 9.14-3.94 13.22-2.27.13.06.24.1.34.16"/><path class="cls-3" d="M248.96 106.32c-.11.35-.23.72-.34 1.12-1.2 4.29-2.04 10.81-2.03 14.18-.1.55-.18 1.15-.04 1.7.27 1.08 1.36 1.63 2.51 1.63.13 0 .27-.01.4-.03.51-.06 1.02-.23 1.43-.5 1.46-.98 2.17-2.69 2.93-4.28 6.45-13.67 20.88-22.81 35.92-24.31 15.06-1.49 30.37 4.16 41.93 13.91.61.51 1.23 1.05 1.84 1.56 5.27 4.58 10.84 9.55 17.59 8.88 2.86-.27 5.34-1.52 7.51-3.31.45-.35.88-.74 1.3-1.15 2.65-2.55 4.83-5.84 6.73-8.97m-2.06 50.06c-.1 3.29-.34 6.77-.76 10.26v.04c-.71 5.95-1.93 11.96-3.91 17.22a31.41 31.41 0 01-2.07 4.49c-1.66 3.05-3.73 5.89-5.95 8.57-.41.47-.81.95-1.22 1.42-5.88 6.83-15.43 13.8-23.59 17.73-20.57 9.9-39.97 1.23-54.64-13.87-1.2-1.25-2.38-2.52-3.51-3.84-.72-.84-1.43-1.69-2.12-2.56-.07-.07-.13-.16-.18-.23-2.85-3.58-5.35-7.44-6.94-11.7-1.44-3.88-2.11-8-2.68-12.11-.24-1.77-.4-3.03-.5-3.99-.07-.67-.11-1.18-.14-1.6-.13-2.2.23-2.25.03-8.5m-4.56-24.58c-1.18-.61-2.25-.89-3.24-.89-3.33 0-5.54 3.14-6.23 6.94-.96 5.34-.58 11.19 1.83 16.21 1.86 3.87 5.6 9.83 10.31 10.4.11.01.23.06.33.1.24.13.44.31.65.42m106.84-45.57c-.01.25-.01.54-.01.81 0 .1 0 .2.01.3a16.362 16.362 0 004.11 10.2c.01.03.04.06.07.08m5.83-1.78c1.57-1.9 1.73-3.31 3.53-3.12.08.03.18.04.27.07.27.07.54.16.79.28 1.49.65 2.63 2.03 3.27 3.54.75 1.77.89 3.74.91 5.67.06 5.98-1.02 11.96-3.17 17.52-1.15 3.02-2.65 5.96-4.87 8.29-.18.2-.38.4-.59.59-2.15 2.04-4.96 3.47-7.89 3.57m-114.24-22.53c1.3 1.22 2.28 2.79 2.8 4.5m112.79.03c.85-2.17 2.51-3.99 4.55-5.1m6.47-24.12c-.09.71-.23 2-.3 2.8-.04.35-.07.62-.09.68m.62-4.51c-.09.33-.2.84-.23 1.03"/><path class="cls-3" d="M248.55 100.01c.17-6.22.13-6.81.75-10.69 1.33-8.16 3.23-16.26 6.29-23.95 11.8-29.75 55.34-40.85 83.02-28.36 9.99 4.5 20.71 11.93 26.72 21.09 6.02 9.15 7.42 20.02 10.14 30.61 1.76 6.87 2.28 14.29 2.21 21.38 0 2.07.71 3.17.54 4.55"/><path class="cls-3" d="M254.59 97.58c10.98-15.67 30.5-24.93 49.56-23.53 17.2 1.26 32.71 10.35 47.43 19.35 5.98 3.67 12.04 7.42 17.34 11.97 2.63 2.27 5.09 4.73 7.22 7.47.44.55.86 1.1 1.27 1.69M86.89 427.8c-.2.48-.42 1.01-.65 1.54-6.66 16.22-21.46 56.49-26.96 71.28-2.86 7.73-5.61 15.68-5.84 23.91-.2 7.71 1.83 15.27 3.84 22.71 3.46 12.78 6.9 25.57 10.35 38.36m15.97 3.01c1.44-.23 2.82-.64 4.16-1.18 3.46-1.35 6.69-3.41 10.17-4.75 10.69-4.09 22.59-1.03 34.02-.35 4.08.23 8.19.16 12.27-.06 2.24-.11 4.52-.25 6.67.34 2.14.61 4.18 2.12 4.75 4.29.93 3.64-2.49 6.9-5.82 8.63-1.8.93-3.67 1.71-5.6 2.32-2.04.67-4.14 1.13-6.26 1.39-.48.07-.96.11-1.44.16-8.15.68-16.74-1.44-24.28 1.73m25.74-1.79c2.59.65 5.18 1.29 7.79 1.88 7.05 1.61 14.19 2.85 21.42 2.63 12.82-.38 25-5.27 37.11-9.48 2.51-.88 5.06-1.73 7.71-1.78 2.63-.06 5.43.79 7.13 2.82.48.57.88 1.25.93 2 .16 1.76-1.49 3.09-2.96 4.07-5.38 3.64-10.78 7.27-16.16 10.89-1.08.74-2.17 1.46-3.27 2.17-2.66 1.73-5.43 3.31-8.4 4.41-3.03 1.1-6.22 1.69-9.42 2.15-5.71.84-11.46 1.32-17.22 1.46"/><path class="cls-3" d="M197.77 615.22c.33-.06.65-.1.98-.14 8.2-1.18 16.62-.33 24.79-1.7 3.13-.52 5.65-1.27 8.53-1.53 1.03-.11 2.11-.14 3.27-.08.55.03 1.08.11 1.59.24 1.43.37 2.66 1.09 3.51 2 1.86 1.95 1.93 4.73-1.6 6.35-19.35 8.87-41.59 8.13-62.34 12.92-6.19 1.43-12.27 3.36-18.17 5.68-2.78 1.08-5.55 2.25-8.5 2.61-2.93.35-5.88-.11-8.8-.59l-4.42-.72c-.61-.09-1.22-.18-1.83-.3-4.49-.72-8.98-1.44-13.47-2.18-8.97-1.46-18.09-2.96-26.28-6.91-13.64-6.57-23.61-20.1-26.15-34.99a45.08 45.08 0 01-.57-4.93"/><path class="cls-3" d="M210.94 611.15l21.12.69 4.86.16 6.62.21 24.41.81 11.46-11.96 4.66-7.41c-2.92-55.95-5.3-105.9-12.9-161.41-1.23-8.92-4.38-37.57-4.12-47.3.01-.38.01-.72.04-1.03.23-3.75 1.56-7.14 1.18-10.88-.38-3.73-2.18-7.58-5.55-9.21-.01 0-.01-.01-.03-.01m-169.1 22.13c-1.08 7.89-3.81 26.86-5.45 40.78-.61 5.18-1.08 9.67-1.25 12.64-2.73 48.23-4.22 98.22.54 147.09.01.21.04.41.06.62"/><path class="cls-3" d="M260.66 382.31h-.04c-3.57 0-160.08 2.56-167.14 2.62h-.23a36.741 36.741 0 01-1.5-15.45s-1.18-3.22 9.52-2.68l158.89-3.16 2.63-.06s-.04.09-.1.24c-.08.23-.23.59-.4 1.09-1.06 3.05-3.22 10.77-.5 17 .14.31.28.62.45.93m2.16 1.61v.48c-.42 57.41 6.52 180.05 1.4 221.15M165.37 333.09c1.18 10.21 1.52 20.51 1.01 30.77m275.97 1.95c-2.75 11.3-8 21.8-11.9 32.76-9.12 25.67-10.64 53.3-12.07 80.5m-.3 7.55c-.48 25-.98 49.99-1.47 74.99-.18 9.5-.37 19.02-.04 28.51.65 18.75 5.38 44.85 7.39 70.02m-67.51-430.11s.01.01.01.03m78.48 129.52h.01c.11.16.23.31.34.45M82.04 435.16c1.4-1.94 2.8-3.88 4.19-5.82"/></g></g><path d="M526.43 133.1h-9.64v3.41c0 1.66-1.34 3-3 3h-26c-1.66 0-3-1.34-3-3v-3.41h-12.42c-2.77 0-5.01 2.25-5 5.01l.35 144.09c0 2.76 2.24 4.99 5 4.99h56.17c2.8 0 5.05-2.29 5-5.09l-2.46-144.09a4.996 4.996 0 00-5-4.91z" fill="#fff" stroke="#000" stroke-linecap="round" stroke-linejoin="round" stroke-width="4"/></g></g><g><g><path d="M487.31 187.5h25.38c5.41 0 9.81 4.4 9.81 9.81v25.38c0 5.41-4.4 9.81-9.81 9.81h-25.38c-5.41 0-9.81-4.39-9.81-9.81v-25.38c0-5.42 4.4-9.81 9.81-9.81z" fill="#c03" stroke-width="0"/><g><path class="cls-9" d="M489.41 197.86v4.85c-.66-.38-1.44-.61-2.36-.61-3.26 0-4.99 2.54-4.99 4.94s1.74 4.93 4.99 4.93c2.45 0 3.37-1.18 5.08-1.97v-12.15h-2.72m-4.63 9.19c0-1.2.81-2.39 2.33-2.39s2.31 1.13 2.34 2.33v.12c-.03 1.19-.82 2.32-2.34 2.32s-2.33-1.18-2.33-2.38"/><g><path class="cls-9" d="M495.35 209.95h.13c1.25 0 1.28-.01 1.28-.65v-1.67c-.47.14-1.03.27-1.56.4l-.34-1.53c.67-.12 1.33-.29 1.9-.46v-2.16h-1.59v-1.49h1.59v-1.91h1.47v1.91h1.37v1.49h-1.37v1.66c.67-.25 1.15-.47 1.37-.57v1.5c-.24.12-.72.36-1.37.62v2.29c0 1.7-.09 2.08-2.29 2.14l-.59-1.58zm9.25 1.65c-.14-.52-.27-1-.41-1.45-1.31.45-2.88.79-5.53 1.19l-.34-1.59c.29-.02.65-.09.84-.11.93-2.81 1.69-5.85 2.25-9.08l1.64.27c-.58 3.04-1.29 5.78-2.1 8.53 1.19-.21 2.04-.43 2.75-.68-.28-.85-.63-1.65-1-2.53l1.32-.7c.76 1.72 1.35 3.09 2.05 5.4l-1.47.76zm8.21-1.49c-.45.33-1.55 1.03-2.68 1.03-1.62 0-2.87-1.32-2.87-4.99 0-1.8.27-3.57.49-4.73h1.68c-.34 1.65-.53 3.28-.53 4.91 0 1.95.5 3.14 1.45 3.14.87 0 1.81-.76 2.47-1.3v1.93zm2.94-.06c0-3.16-.36-5.61-2.16-8.33h1.87c1.23 1.96 1.97 4.37 1.97 8.33h-1.68z"/></g></g><g><path class="cls-12" d="M492.93 220.35c0 1.72-1.39 3.11-3.11 3.11s-3.1-1.39-3.1-3.11 1.39-3.11 3.1-3.11 3.11 1.39 3.11 3.11zm10.18 0c0 1.72-1.39 3.11-3.11 3.11s-3.11-1.39-3.11-3.11 1.39-3.11 3.11-3.11 3.11 1.39 3.11 3.11zm10.19 0c0 1.72-1.39 3.11-3.11 3.11s-3.12-1.39-3.12-3.11 1.39-3.11 3.12-3.11 3.11 1.39 3.11 3.11z"/></g></g><rect class="cls-2" x="473" y="183" width="54" height="54"/></g></svg>