<svg id="_レイヤー_1" data-name="レイヤー 1" xmlns="http://www.w3.org/2000/svg" viewBox="0 0 600 600"><defs><clipPath id="clippath"><path class="cls-2" d="M20 318c0 154.64 125.36 280 280 280s280-125.36 280-280V10H20v308z"/></clipPath><style>.cls-2,.cls-3{fill:none}.cls-10,.cls-12,.cls-13,.cls-2,.cls-4,.cls-5,.cls-6,.cls-7,.cls-8,.cls-9{stroke-width:0}.cls-15{stroke:#ccc}.cls-15,.cls-3{stroke-linecap:round;stroke-linejoin:round;stroke-width:4px}.cls-10,.cls-15{fill:#fff}.cls-3{stroke:#000}.cls-5{fill:#6bd8d3}.cls-6{fill:#10c0b8}.cls-7{fill:#c03}.cls-8{fill:#90e9e5}.cls-9{fill:#fce9dc}.cls-12{fill:#ffd892}.cls-13{fill:#ffc67b}</style></defs><circle cx="300" cy="318" r="280" fill="#faf4e8" stroke-width="0"/><g clip-path="url(#clippath)"><g><g><g><path class="cls-9" d="M219.49 226.93s-26.61-52.09-28.3-62.82 5.65-32.75 18.07-20.33 16.94 19.76 16.94 19.76"/><path class="cls-3" d="M219.49 226.93s-26.61-52.09-28.3-62.82 5.65-32.75 18.07-20.33 16.94 19.76 16.94 19.76"/></g><path class="cls-4" d="M348.55 133.43c-3.41 11.51-10.67 11.19-10.67 11.19l-51.64-2.45c-8.61-1.62-10.34-13.23-10.51-14.53l74.23 2.87c-.42.95-.93 1.94-1.39 2.92z"/><path class="cls-9" d="M259.54 487.91l-.28.3c-1.77-1.1-3.3-2.58-4.47-4.3l-.03-.87 118.9-3.95c3.49-.64 6.37-1.76 8.75-3.17 12.53-7.47 11.18-23.4 11.18-23.4l-1.21-220.16h1.3c.51-.83 1.04-1.63 1.61-2.41l-.89-.32c2.11-4.23 4.52-8.47 8.17-11.49 3.64-3.03 8.77-4.65 13.23-3.03 4.31 1.57 7.12 5.75 8.81 10.02 2.85 7.24 3.26 15.16 4.48 22.85 2.59 16.31 5.28 33.78 10.1 49.49 6.89 22.4 8.04 42.62 12.11 65.24 1.6 8.89 4.66 17.43 7.53 25.99 4.95 14.8 8.07 30.83 9.77 46.6.96 8.88 2.96 17.61 3.93 26.48 1.88 17.18 1.33 27.57 8.6 43.82 8.05 18.02 16.02 36.08 23.86 54.2a4697.11 4697.11 0 0145.67 109.27l-1.31 1.15c.06.22.12.44.19.66l-149.32-6.57c-8.38-27.4-21.06-71.77-33.11-97.12-2.21-2.32-4.87-4.2-7.79-5.5l-.04.56c-16.94-1.36-31.31-12.72-44.24-23.82a1292.197 1292.197 0 01-55.47-50.49z"/><path class="cls-4" d="M219.2 324.99l-.75-4.14c.44-.41.86-.82 1.28-1.24 2.38-2.38 4.54-5.08 6.33-8.01l.32.19c-.07 8.36 0 23.4-.05 31.51l-.36 36.88c-.24 40.88-.39 70.03-.23 71.07l.51 7.52c.87 15.97 16.06 16.15 23 16.99 2.36.29 8.64-.14 8.64-.14L368.47 471c6.28-.04 11.27-2.52 13.88-6.04 5.47-7.33 3.73-18.73 3.73-18.73l.19-277.44c.33-15.15-.76-23.23-4.54-28.8-6.31-9.29-16.56-8.88-16.56-8.88l-15.22-.59-74.23-2.87c0-.07-.01-.12-.01-.12l-2-.08-18.46-.67c-10.2-.13-16.83 1.06-20.67 5.96-6.15 7.87-5.67 20.97-5.67 20.97-.82 3.96-1.22 64.77-1.83 127.88l-.15.13c-.94-1.12-2.05-2.09-3.33-2.81-1.71-.96-3.58-1.41-5.5-1.49.15-1.33.62-3.07.67-4.27h.35c.11-16.09.24-31.74.37-46.23.43-43.58.98-76.72 1.62-79.77 0 0-.36-28.5 28.5-28.05l119.35 4.87s13.13.95 18.82 12.78c2.89 6 4.29 10.72 4.2 26.66l.38 68.93 1.21 220.16s1.35 15.93-11.18 23.4c-2.38 1.41-5.27 2.53-8.75 3.17l-118.9 3.95-6.23.21s-23.54.95-28.66-17.28l1.09-.41a34.416 34.416 0 01-2.02-10.18h-.38c-.03-2.72-.04-7.44-.04-13.82 0-12.75.05-32.13.12-55.3-.25-.63-.51-1.26-.76-1.89 4.77-8.08 6.93-17.72 5.91-27.06-.46-4.31-2.05-8.98-4.92-12.03l.05-.05c.03-7.26.19-13.17.27-20.22z"/><path class="cls-10" d="M273.7 127.45l2 .08s0 .04.01.12c.17 1.3 1.9 12.91 10.51 14.53l51.64 2.45s7.26.32 10.67-11.19c.47-.99.98-1.98 1.39-2.93l15.22.59s10.24-.4 16.56 8.88c3.79 5.57 4.88 13.65 4.54 28.8l-.19 277.44s1.74 11.39-3.73 18.73c-2.62 3.52-7.6 6-13.88 6.04l-110.58 4.62s-6.28.43-8.64.14c-6.94-.84-22.12-1.02-23-16.99l-.51-7.52c-.16-1.04 0-30.19.23-71.07l.36-36.88c.06-8.1-.01-23.15.05-31.51l-.32-.19c4.6-7.51 6.75-16.4 3.85-24.53-.68-1.93-1.67-3.78-2.98-5.34l.15-.13c.61-63.12 1.01-123.92 1.83-127.88 0 0-.48-13.1 5.67-20.97 3.83-4.9 10.47-6.1 20.67-5.96l18.46.67z"/><path class="cls-9" d="M218.45 320.85c.25 1.39.5 2.76.75 4.14-.08 7.05-.24 12.95-.27 20.22l-.05.05c-1.5-1.59-3.36-2.74-5.58-3.17-5.2-.99-10.18 2.44-14.03 6.09a56.855 56.855 0 00-4.9 5.25 24.014 24.014 0 01-2.3-6.47l.58-.23c-1.94-4.89-3.63-9.89-5.06-14.95-1.17-4.15-2.18-8.37-2.49-12.67-1.09-14.83 6.92-29.88 19.61-37.53 1-.61 2.02-1.16 3.07-1.67 3.19-1.53 6.83-2.61 10.31-2.47 1.92.08 3.79.53 5.5 1.49 1.28.72 2.4 1.69 3.33 2.81 1.31 1.55 2.3 3.41 2.98 5.34 2.9 8.13.75 17.02-3.85 24.53-1.8 2.92-3.95 5.63-6.33 8.01-.42.42-.85.83-1.28 1.24z"/><path class="cls-9" d="M194.37 353.43c1.53-1.87 3.18-3.63 4.9-5.25 3.85-3.65 8.82-7.08 14.03-6.09 2.23.43 4.08 1.57 5.58 3.17 2.87 3.05 4.46 7.72 4.92 12.03 1.01 9.35-1.14 18.98-5.91 27.06.26.63.51 1.26.76 1.89-.07 23.17-.12 42.55-.12 55.3h-.17l-3.99-5.07-.15.09c-7.21-12.81-14.43-25.63-21.65-38.43-3.25-5.77-6.56-11.72-7.41-18.29-1.22-9.54 3-18.84 9.21-26.4zm24.4-80.27c-.05 1.2-.52 2.94-.67 4.27-3.48-.14-7.13.93-10.31 2.47-1.05.51-2.08 1.06-3.07 1.67l-.22-.37-1.61-1.73c-9.08-12.74-14.94-27.77-16.9-43.29-.65-5.2-.85-10.66 1.22-15.49 2.06-4.82 6.9-8.78 12.12-8.31 2.44.22 4.69 1.35 6.88 2.46 3.38 1.72 10.49 7.76 12.24 11.13l.52-.23c.18.4.35.79.53 1.19-.14 14.5-.27 30.15-.37 46.24h-.35z"/></g><g><path class="cls-3" d="M194.37 353.42c1.53-1.86 3.18-3.62 4.9-5.25 3.85-3.65 8.82-7.08 14.03-6.09 2.23.43 4.08 1.57 5.58 3.17 2.87 3.05 4.46 7.72 4.92 12.03 1.01 9.35-1.14 18.98-5.91 27.06-1.24 2.1-2.65 4.09-4.23 5.94m1.65 48.22c-.37-.65-.73-1.3-1.1-1.95-7.21-12.81-14.43-25.63-21.65-38.43-3.25-5.77-6.56-11.72-7.41-18.29-1.22-9.54 3-18.84 9.21-26.4m-.17-2.93c-.53-1.25-1.05-2.5-1.54-3.77-1.94-4.89-3.63-9.89-5.06-14.95-1.17-4.15-2.18-8.37-2.49-12.67-1.09-14.83 6.92-29.88 19.61-37.53 1-.61 2.02-1.16 3.07-1.67 3.19-1.53 6.83-2.61 10.31-2.47 1.92.08 3.79.53 5.5 1.49 1.28.72 2.4 1.69 3.33 2.81 1.31 1.55 2.3 3.41 2.98 5.34 2.9 8.13.75 17.02-3.85 24.53-1.8 2.92-3.95 5.63-6.33 8.01-.42.42-.85.83-1.28 1.24-4.16 3.9-8.91 7.16-14.01 9.72M203 279.66c-.04-.06-.09-.12-.12-.18-9.08-12.74-14.94-27.77-16.9-43.29-.65-5.2-.85-10.66 1.22-15.49 2.06-4.82 6.9-8.78 12.12-8.31 2.44.22 4.69 1.35 6.88 2.46 3.38 1.72 10.49 7.76 12.24 11.13m38.69 259.6c.81.78 1.61 1.56 2.42 2.33 18 17.37 36.5 34.2 55.47 50.49 12.93 11.1 27.3 22.46 44.24 23.82.22.02.44.03.66.05"/><path class="cls-3" d="M219.09 276.86l.03-3.69c.11-16.09.24-31.74.37-46.24.43-43.58.98-76.72 1.62-79.77 0 0-.36-28.5 28.5-28.05l119.35 4.87s13.13.95 18.82 12.78c2.89 6 4.29 10.72 4.2 26.66l.38 68.93 1.21 220.16s1.35 15.93-11.18 23.4c-2.38 1.41-5.27 2.53-8.75 3.17l-118.9 3.95-6.23.21s-23.54.95-28.66-17.28m-.92-120.75c.03-7.26.19-13.17.27-20.22l.03-3.6m-.6 136.6c-.03-.17-.05-1.07-.06-2.62-.03-2.72-.04-7.44-.04-13.82 0-12.75.05-32.13.12-55.3 0-.83.01-1.67.01-2.51m163.59 93.71c.69.87 1.4 1.72 2.15 2.54 8.13 9.1 19.18 15.57 31.12 18.14m-48.63 68.6c.07.14.14.28.2.43 12.05 25.35 24.73 69.72 33.11 97.12.19.6.37 1.18.55 1.76m-6.36-436.42c2.11-4.23 4.52-8.47 8.17-11.49 3.64-3.03 8.77-4.65 13.23-3.03 4.31 1.57 7.12 5.75 8.81 10.02 2.85 7.24 3.26 15.16 4.48 22.85 2.59 16.31 5.28 33.78 10.1 49.49 6.89 22.4 8.04 42.62 12.11 65.24 1.6 8.89 4.66 17.43 7.53 25.99 4.95 14.8 8.07 30.83 9.77 46.6.96 8.88 2.96 17.61 3.93 26.48 1.88 17.18 1.33 27.57 8.6 43.82 8.05 18.02 16.02 36.08 23.86 54.2a4697.11 4697.11 0 0145.67 109.27"/><line class="cls-3" x1="194.37" y1="353.42" x2="194.37" y2="353.43"/></g></g></g><g><path class="cls-12" d="M435.87 104.52c-.81-.7-1.53-1.52-2.15-2.46-6.69-10.12.74-29.79 16.59-43.96 15.85-14.16 34.13-17.44 40.82-7.33.14.22.28.43.4.65 3.56 6.13 2.35 15.4-2.48 24.82-3.04 5.93-7.52 11.93-13.16 17.23-.44.42-.89.84-1.35 1.24-5.78 5.17-11.9 8.89-17.65 11.04-8.55 3.19-16.3 2.91-21.03-1.24z"/><path class="cls-13" d="M491.54 51.43c2.36 3.24 5.13 8.08 6.08 10.3l.13.52c1.97 5.84 1.05 13.36-2.52 21.08l-.73-.44c-1.5-1.83-4.52-5-5.15-6.43l-.29-.2c4.84-9.43 6.04-18.69 2.48-24.82z"/><path class="cls-13" d="M489.05 76.25l.29.2c.63 1.44 3.66 4.6 5.15 6.43l.73.44c-2.68 5.8-6.86 11.71-12.45 17.07l-.37-.52c-1.5-1.84-5.55-4.48-6.18-5.92l-.33-.47c5.64-5.31 10.12-11.3 13.16-17.23z"/><path class="cls-13" d="M475.89 93.48l.33.47c.62 1.44 4.68 4.08 6.18 5.92l.37.52c-.58.56-1.18 1.12-1.8 1.67-1.9 1.7-5.16 3.72-7.2 5.16-3.2 2.26-6.45 4.17-9.87 5.54l-.02-.07c-1.5-1.84-6.16-4.81-6.78-6.25l-.2-.69c5.75-2.15 11.86-5.87 17.65-11.04.46-.41.91-.82 1.35-1.24z"/><path class="cls-13" d="M456.9 105.77l.2.69c.63 1.44 5.29 4.41 6.78 6.25l.02.07c-2.37.95-4.83 1.65-7.41 2.01-5.63.8-8.78.46-13.74-3.08-1.85-1.32-4.3-3.43-6.88-7.17 4.73 4.15 12.48 4.43 21.03 1.24z"/><path class="cls-3" d="M435.87 104.52c-.81-.7-1.53-1.52-2.15-2.46-6.69-10.12.74-29.79 16.59-43.96 15.85-14.16 34.13-17.44 40.82-7.33.14.22.28.43.4.65 3.56 6.13 2.35 15.4-2.48 24.82-3.04 5.93-7.52 11.93-13.16 17.23-.44.42-.89.84-1.35 1.24-5.78 5.17-11.9 8.89-17.65 11.04-8.55 3.19-16.3 2.91-21.03-1.24"/><path class="cls-3" d="M435.75 104.35c.04.06.08.11.12.17 2.58 3.74 5.02 5.86 6.88 7.18 4.96 3.54 8.11 3.88 13.74 3.08 2.59-.36 5.04-1.05 7.41-2.01 3.43-1.36 6.67-3.28 9.87-5.54 2.05-1.44 5.3-3.47 7.2-5.16.62-.55 1.22-1.11 1.8-1.67 5.59-5.37 9.77-11.27 12.45-17.07 3.57-7.71 4.49-15.24 2.52-21.08l-.13-.52c-.95-2.22-3.72-7.05-6.08-10.3m-34.44 55.02c.63 1.44 5.29 4.41 6.78 6.25m12.35-18.75c.62 1.44 4.68 4.08 6.18 5.92m6.95-23.42c.63 1.44 3.66 4.6 5.15 6.43"/><line class="cls-3" x1="461.41" y1="58.94" x2="446.1" y2="92.48"/><path class="cls-3" d="M461.64 60.48l12.43 2.37c4.9.93 6.7 6.44 4.03 12.3s-8.81 9.85-13.71 8.92l-11.85-2.26"/></g><g><g><g><path class="cls-12" d="M84.74 130.08c1.3-.37 2.66-.56 4.08-.58 15.31-.11 31.01 21.31 35.08 47.85 4.06 26.53-5.06 48.12-20.38 48.24-.33 0-.65 0-.97-.03-8.94-.46-17.91-8.12-24.55-19.73-4.18-7.3-7.44-16.17-9.16-25.8-.14-.76-.27-1.52-.38-2.29-1.48-9.68-1.21-18.71.48-26.28 2.52-11.24 8.15-19.25 15.8-21.39z"/><path class="cls-13" d="M102.55 225.56c-5.07.27-12.09-.13-15.09-.66l-.64-.22c-7.53-1.94-14.86-8.1-20.56-17.2l.97-.47c2.97-.32 8.4-1.34 10.36-1.02l.41-.18c6.64 11.62 15.62 19.27 24.55 19.73z"/><path class="cls-13" d="M78 205.83l-.41.18c-1.95-.33-7.39.7-10.36 1.02l-.97.47c-4.29-6.84-7.66-15.33-9.48-24.94l.81-.04c2.98-.32 8.57-2.79 10.52-2.45l.72-.02c1.73 9.63 4.98 18.5 9.16 25.8z"/><path class="cls-13" d="M68.83 180.04l-.72.02c-1.95-.33-7.54 2.14-10.52 2.45l-.81.04c-.19-1-.37-2.02-.53-3.06-.48-3.18-.38-8.02-.5-11.18-.19-4.94.02-9.7.94-14.26l.09.02c2.98-.32 9.33-3.2 11.28-2.87l.86.27c-1.69 7.56-1.96 16.6-.48 26.28.12.76.24 1.53.38 2.29z"/><path class="cls-13" d="M68.93 151.47l-.86-.27c-1.95-.33-8.31 2.56-11.28 2.87l-.09-.02c.63-3.17 1.59-6.24 2.99-9.23 3.04-6.51 5.56-9.61 12.73-12.41 2.67-1.05 6.59-2.18 12.32-2.34-7.65 2.14-13.28 10.15-15.8 21.39z"/></g><g><path class="cls-3" d="M84.74 130.08c1.3-.37 2.66-.56 4.08-.58 15.31-.11 31.01 21.31 35.08 47.85 4.06 26.53-5.06 48.12-20.38 48.24-.33 0-.65 0-.97-.03-8.94-.46-17.91-8.12-24.55-19.73-4.18-7.3-7.44-16.17-9.16-25.8-.14-.76-.27-1.52-.38-2.29-1.48-9.68-1.21-18.71.48-26.28 2.52-11.24 8.15-19.25 15.8-21.39"/><path class="cls-3" d="M85 130.07c-.09 0-.18 0-.26.01-5.73.15-9.65 1.28-12.32 2.33-7.16 2.81-9.69 5.91-12.73 12.41-1.4 2.99-2.36 6.06-2.99 9.23-.92 4.57-1.13 9.32-.94 14.26.12 3.16.02 8 .5 11.18.15 1.03.34 2.06.53 3.06 1.83 9.61 5.19 18.1 9.48 24.94 5.7 9.1 13.03 15.25 20.56 17.2l.64.22c3 .53 10.02.93 15.09.67m-34.49-74.37c-1.95-.33-8.31 2.56-11.28 2.87m11.32 25.98c-1.95-.33-7.54 2.14-10.52 2.45m20 23.5c-1.95-.33-7.39.7-10.36 1.02"/></g></g><g><line class="cls-3" x1="78.34" y1="167.34" x2="105.41" y2="206.14"/><path class="cls-3" d="M80.17 168.07l10.45-12.42c4.12-4.9 11.29-3.37 16.02 3.41s5.22 16.24 1.11 21.14l-9.97 11.85"/></g></g><g><g><g><path class="cls-12" d="M552.14 209.68c1.04.73 1.99 1.62 2.84 2.65 9.16 11.16 2.77 35.37-14.28 54.09-17.04 18.7-38.28 24.82-47.45 13.66-.19-.24-.38-.48-.56-.73-4.96-6.83-4.67-17.95-.09-29.7 2.87-7.39 7.45-15.04 13.48-22.01.47-.55.96-1.1 1.45-1.64 6.22-6.83 13.01-11.98 19.55-15.23 9.73-4.82 18.95-5.44 25.05-1.1z"/><path class="cls-13" d="M492.69 279.35c-3.19-3.55-7.07-8.94-8.46-11.45l-.22-.6c-3.04-6.67-2.87-15.7.42-25.27l.92.43c2 1.99 5.97 5.37 6.89 6.99l.37.2c-4.58 11.75-4.87 22.88.09 29.7z"/><path class="cls-13" d="M492.6 249.65l-.37-.2c-.92-1.63-4.89-5-6.89-6.99l-.92-.43c2.47-7.2 6.7-14.7 12.66-21.74l.51.57c2 2 7.13 4.63 8.04 6.26l.45.52c-6.03 6.97-10.61 14.62-13.48 22.01z"/><path class="cls-13" d="M506.08 227.64l-.45-.52c-.91-1.63-6.04-4.26-8.04-6.26l-.51-.57c.62-.73 1.26-1.47 1.93-2.2 2.05-2.24 5.65-5.03 7.9-6.99 3.51-3.07 7.12-5.73 11.02-7.76l.04.08c2 2 7.88 4.94 8.8 6.57l.32.79c-6.55 3.25-13.33 8.4-19.55 15.23-.49.54-.97 1.08-1.45 1.64z"/><path class="cls-13" d="M527.08 210.77l-.32-.79c-.92-1.63-6.8-4.57-8.8-6.57l-.04-.08c2.69-1.42 5.52-2.54 8.53-3.28 6.57-1.63 10.34-1.62 16.65 1.97 2.36 1.34 5.51 3.54 9.02 7.65-6.1-4.34-15.32-3.72-25.05 1.1z"/></g><g><path class="cls-3" d="M552.14 209.68c1.04.73 1.99 1.62 2.84 2.65 9.16 11.16 2.77 35.37-14.28 54.09-17.04 18.7-38.28 24.82-47.45 13.66-.19-.24-.38-.48-.56-.73-4.96-6.83-4.67-17.95-.09-29.7 2.87-7.39 7.45-15.04 13.48-22.01.47-.55.96-1.1 1.45-1.64 6.22-6.83 13.01-11.98 19.55-15.23 9.73-4.82 18.95-5.44 25.05-1.1"/><path class="cls-3" d="M552.3 209.86c-.06-.07-.11-.13-.16-.18-3.51-4.12-6.66-6.32-9.02-7.66-6.3-3.59-10.07-3.6-16.65-1.97-3.02.74-5.84 1.86-8.53 3.28-3.89 2.03-7.5 4.7-11.02 7.76-2.25 1.96-5.85 4.75-7.9 6.99-.67.73-1.31 1.47-1.93 2.2-5.96 7.04-10.19 14.54-12.66 21.74-3.29 9.57-3.46 18.6-.42 25.27l.22.6c1.39 2.51 5.26 7.9 8.46 11.46m34.07-69.37c-.92-1.63-6.8-4.57-8.8-6.57m-12.33 23.71c-.91-1.63-6.04-4.26-8.04-6.26m-5.36 28.6c-.92-1.63-4.89-5-6.89-6.99"/></g></g><g><line class="cls-3" x1="521.03" y1="227.08" x2="508.63" y2="269.94"/><path class="cls-3" d="M521.58 228.85l15.3.3c6.03.12 9.16 6.28 7 13.77-2.17 7.49-8.81 13.46-14.84 13.35l-14.6-.28"/></g></g><g><path class="cls-12" d="M88.42 436.75a13.37 13.37 0 01-2.51-2.58c-7.99-10.74-.99-32.88 15.63-49.45 16.61-16.56 36.55-21.29 44.54-10.54.17.23.33.46.48.7 4.29 6.54 3.53 16.83-1.24 27.51-2.99 6.72-7.56 13.6-13.46 19.79-.46.49-.94.97-1.41 1.45-6.06 6.05-12.58 10.52-18.78 13.23-9.23 4.03-17.79 4.19-23.25-.09z"/><path class="cls-13" d="M146.56 374.87c2.8 3.43 6.15 8.59 7.32 10.98l.18.57c2.52 6.32 1.96 14.66-1.51 23.38l-.83-.44c-1.76-1.93-5.29-5.23-6.07-6.78l-.34-.2c4.76-10.68 5.53-20.97 1.24-27.51z"/><path class="cls-13" d="M145.32 402.38l.34.2c.78 1.55 4.31 4.85 6.07 6.78l.83.44c-2.61 6.55-6.86 13.32-12.69 19.57l-.44-.55c-1.76-1.94-6.39-4.61-7.16-6.15l-.39-.5c5.9-6.19 10.47-13.07 13.46-19.79z"/><path class="cls-13" d="M131.86 422.17l.39.5c.77 1.55 5.4 4.22 7.16 6.15l.44.55c-.61.65-1.23 1.31-1.88 1.95-2 1.98-5.46 4.41-7.63 6.12-3.39 2.68-6.85 4.99-10.55 6.7l-.03-.07c-1.76-1.94-7.07-4.93-7.85-6.47l-.26-.74c6.21-2.72 12.72-7.19 18.78-13.23.48-.48.95-.96 1.41-1.45z"/><path class="cls-13" d="M111.67 436.85l.26.74c.78 1.55 6.09 4.54 7.85 6.47l.03.07c-2.56 1.19-5.22 2.1-8.05 2.66-6.16 1.22-9.65 1.04-15.33-2.56-2.12-1.34-4.94-3.52-8.01-7.48 5.46 4.29 14.02 4.13 23.25.09z"/><path class="cls-3" d="M88.42 436.75a13.37 13.37 0 01-2.51-2.58c-7.99-10.74-.99-32.88 15.63-49.45 16.61-16.56 36.55-21.29 44.54-10.54.17.23.33.46.48.7 4.29 6.54 3.53 16.83-1.24 27.51-2.99 6.72-7.56 13.6-13.46 19.79-.46.49-.94.97-1.41 1.45-6.06 6.05-12.58 10.52-18.78 13.23-9.23 4.03-17.79 4.19-23.25-.09"/><path class="cls-3" d="M88.27 436.57c.05.06.1.12.14.18 3.07 3.97 5.89 6.15 8.01 7.49 5.68 3.6 9.17 3.78 15.33 2.56 2.83-.55 5.49-1.47 8.05-2.66 3.69-1.71 7.16-4.02 10.55-6.7 2.17-1.72 5.63-4.14 7.63-6.12.65-.64 1.28-1.3 1.88-1.95 5.83-6.25 10.08-13.01 12.69-19.57 3.47-8.72 4.03-17.07 1.51-23.38l-.18-.57c-1.18-2.39-4.52-7.55-7.32-10.99m-34.64 62.74c.78 1.55 6.09 4.54 7.85 6.47m12.48-21.41c.77 1.55 5.4 4.22 7.16 6.15m6.24-26.23c.78 1.55 4.31 4.85 6.07 6.78"/><line class="cls-3" x1="113.81" y1="384.98" x2="98.97" y2="422.86"/><path class="cls-3" d="M114.16 386.65l13.84 1.86c5.45.73 7.77 6.69 5.18 13.31s-9.12 11.39-14.57 10.65l-13.2-1.78"/></g><g><rect class="cls-2" x="247.24" y="243.31" width="120" height="120"/><g><g><path class="cls-10" d="M276.08 253.83h62.33c10.11 0 18.32 8.21 18.32 18.32v62.33c0 10.11-8.21 18.32-18.32 18.32h-62.33c-10.11 0-18.32-8.21-18.32-18.32v-62.33c0-10.11 8.21-18.32 18.32-18.32z"/><g><path class="cls-7" d="M321.72 265.03v36.11c-5.08 2.34-7.81 5.85-15.09 5.85-9.7 0-14.85-7.55-14.85-14.67s5.15-14.67 14.85-14.67c2.71 0 5.06.67 7.01 1.79v-14.4h-6.83c-15.07 0-27.29 12.22-27.29 27.28s12.22 27.29 27.29 27.29 27.29-12.22 27.29-27.29v-27.28h-12.38z"/><path class="cls-7" d="M306.81 285.22c-4.5 0-6.95 3.51-6.95 7.08s2.45 7.09 6.95 7.09 6.86-3.36 6.94-6.9v-.37c-.08-3.55-2.43-6.91-6.94-6.91z"/><path class="cls-10" d="M306.63 277.63c-9.7 0-14.85 7.54-14.85 14.67s5.15 14.67 14.85 14.67c7.29 0 10.01-3.51 15.09-5.85v-36.11h-8.08v14.4c-1.95-1.13-4.3-1.79-7.01-1.79zm7.12 14.5v.37c-.08 3.54-2.43 6.9-6.94 6.9s-6.95-3.5-6.95-7.09 2.45-7.08 6.95-7.08 6.86 3.36 6.94 6.91z"/></g><path class="cls-4" d="M298.5 332.53c0 1.44-.47 2.54-1.4 3.27-.94.73-2.21 1.11-3.81 1.14l-1.68.02v4.24h-1.74v-12.82h3.54c.88 0 1.64.11 2.28.31.65.21 1.17.49 1.59.86.42.37.73.81.92 1.32.2.5.3 1.06.3 1.66m-1.77.09c0-1.74-1.14-2.6-3.4-2.6h-1.72v5.32l1.87-.05c1.08-.02 1.89-.27 2.44-.72.55-.46.82-1.11.82-1.94m16.3 2.12c0 .96-.16 1.85-.47 2.68-.32.83-.76 1.54-1.33 2.14-.57.6-1.26 1.08-2.04 1.43-.78.34-1.65.53-2.6.53s-1.8-.16-2.59-.47a5.78 5.78 0 01-2.03-1.35c-.57-.58-1.01-1.29-1.34-2.11-.32-.83-.48-1.75-.48-2.76 0-.95.16-1.84.47-2.67.31-.82.75-1.53 1.33-2.14a6.05 6.05 0 012.04-1.42c.79-.35 1.65-.51 2.59-.51s1.82.15 2.6.46c.78.32 1.46.77 2.03 1.35.56.58 1.01 1.28 1.33 2.1.32.82.48 1.74.48 2.75m-1.73.07c0-.79-.12-1.51-.35-2.14-.23-.63-.56-1.17-.97-1.62-.42-.45-.92-.79-1.5-1.04a5 5 0 00-1.91-.37c-.69 0-1.31.12-1.88.37-.56.25-1.06.59-1.46 1.03-.41.45-.73.98-.95 1.6-.23.63-.34 1.32-.34 2.08s.11 1.51.34 2.15c.22.64.55 1.18.96 1.64.42.44.92.79 1.5 1.04.58.24 1.22.37 1.92.37s1.31-.12 1.87-.37c.57-.24 1.06-.6 1.47-1.04.41-.45.74-.99.96-1.62.23-.63.35-1.32.35-2.08"/><rect class="cls-4" x="315.85" y="328.39" width="1.7" height="12.82"/><polygon class="cls-4" points="330.22 328.39 331.91 328.39 331.91 341.33 330.03 341.33 323.16 330.88 323.16 341.21 321.45 341.21 321.45 328.39 323.38 328.39 330.22 338.73 330.22 328.39"/><polygon class="cls-4" points="340.35 330.03 340.35 341.21 338.65 341.21 338.65 330.03 334.17 330.03 334.17 328.39 344.84 328.39 344.84 330.03 340.35 330.03"/><path class="cls-4" d="M279.85 322.56v6.59c-.9-.52-1.97-.82-3.21-.82-4.44 0-6.8 3.46-6.8 6.73s2.36 6.71 6.8 6.71c3.34 0 4.58-1.61 6.91-2.67v-16.53h-3.7m-6.31 12.48c0-1.64 1.12-3.24 3.18-3.24s3.14 1.54 3.18 3.16v.17c-.03 1.63-1.12 3.16-3.18 3.16s-3.18-1.6-3.18-3.25"/></g><path class="cls-4" d="M276.08 353.31v-1.03h62.33c9.78-.02 17.78-8.02 17.8-17.8v-62.33c-.02-9.79-8.02-17.79-17.8-17.8h-62.33c-9.79.02-17.78 8.02-17.8 17.8v62.33c.02 9.78 8.01 17.78 17.8 17.8v1.03c-10.36 0-18.83-8.47-18.84-18.83v-62.33c0-10.37 8.47-18.84 18.84-18.84h62.33c10.36 0 18.83 8.47 18.83 18.84v62.33c0 10.36-8.47 18.83-18.83 18.83h-62.33z"/></g></g><g><circle class="cls-15" cx="184" cy="65" r="53"/><g><rect x="149" y="40" width="70" height="50" rx="5" ry="5" fill="#f73e50" stroke-width="0"/><g><rect class="cls-10" x="154" y="59.5" width="8" height="11" rx="2" ry="2"/><rect class="cls-10" x="154" y="74.5" width="8" height="11" rx="2" ry="2"/><rect class="cls-10" x="154" y="44.5" width="8" height="11" rx="2" ry="2"/></g><g><rect class="cls-10" x="206" y="59.5" width="8" height="11" rx="2" ry="2"/><rect class="cls-10" x="206" y="74.5" width="8" height="11" rx="2" ry="2"/><rect class="cls-10" x="206" y="44.5" width="8" height="11" rx="2" ry="2"/></g><path class="cls-10" d="M176.5 73.55V56.46c0-1.64 1.86-2.58 3.18-1.61l11.62 8.55c1.09.8 1.09 2.42 0 3.22l-11.62 8.55c-1.32.97-3.18.03-3.18-1.61z"/></g></g><g><circle class="cls-15" cx="468" cy="441" r="53"/><g><polygon class="cls-8" points="468 412.5 455 433.5 481 433.5 468 412.5"/><polygon class="cls-5" points="468 475.5 455 433.5 481 433.5 468 475.5"/><polygon class="cls-8" points="445 412.5 433 433.5 455 433.5 445 412.5"/><polygon class="cls-6" points="468 475.5 433 433.5 455 433.5 468 475.5"/><polygon class="cls-8" points="491 412.5 481 433.5 503 433.5 491 412.5"/><polygon class="cls-6" points="468 475.5 481 433.5 503 433.5 468 475.5"/><polygon class="cls-5" points="455 433.5 468 412.5 445 412.5 455 433.5"/><polygon class="cls-5" points="481 433.5 491 412.5 468 412.5 481 433.5"/></g></g><g><circle class="cls-15" cx="178" cy="531" r="53"/><path class="cls-7" d="M189.27 520.26l10.6.53c4.59.23 6.47 6.01 2.88 8.89l-8.29 6.65c-.94.75-1.33 1.99-1.01 3.14l2.95 10.59c1.24 4.45-3.7 8.05-7.56 5.52l-9.19-6.02c-1-.65-2.29-.65-3.29 0l-9.2 6.03c-3.86 2.53-8.8-1.08-7.56-5.52l2.95-10.59c.32-1.16-.08-2.39-1.01-3.14l-8.28-6.65c-3.58-2.88-1.71-8.66 2.88-8.89l10.57-.53c1.19-.06 2.23-.82 2.65-1.93l3.89-10.23c1.62-4.27 7.66-4.31 9.33-.05l4.05 10.31a2.99 2.99 0 002.64 1.9z"/></g></svg>