<svg width="199" height="240" viewBox="0 0 199 240" fill="none" xmlns="http://www.w3.org/2000/svg">
<g clip-path="url(#clip0_81_4500)">
<path d="M195.935 52.0552L92.1595 2.23581C90.7088 1.5394 88.9683 2.15083 88.2719 3.60147L1.64103 184.057C0.944622 185.508 1.55605 187.248 3.00669 187.945L106.783 237.764C108.233 238.461 109.974 237.849 110.67 236.398L197.301 55.9428C197.997 54.4922 197.386 52.7516 195.935 52.0552Z" fill="#45A5D5"/>
<path d="M184.783 57.0218L95.2591 14.0445C94.5051 13.6826 93.6005 14.0004 93.2385 14.7543L13.4499 180.957C13.0879 181.711 13.4057 182.616 14.1597 182.978L103.683 225.955C104.437 226.317 105.342 225.999 105.704 225.245L185.492 59.0424C185.854 58.2884 185.536 57.3838 184.783 57.0218Z" fill="#E6ECFF"/>
<path d="M15.4316 176.829L107.685 221.117L179.63 71.2526L84.7578 32.4199L15.4316 176.829Z" fill="#DEE076"/>
<path d="M15.4316 176.829L107.685 221.117L179.63 71.2526L84.7578 32.4199L15.4316 176.829Z" fill="#60CA9C"/>
<path d="M132.52 166.237C132.022 153.11 131.524 139.983 131.025 126.857C130.785 120.472 130.384 114.071 130.373 107.683C130.365 101.806 130.966 95.5299 134.411 90.5653C134.681 90.1708 134.797 89.7626 134.796 89.3724C139.806 90.0776 144.797 90.122 149.404 87.8588C149.631 88.4919 150.116 88.9934 150.871 89.1276C151.842 89.3043 153.114 88.5984 153.189 87.5189C153.825 78.2023 153.055 68.9163 150.915 59.8393C150.472 59.7272 150.02 59.5638 149.561 59.3436C149.457 59.2938 149.364 59.2357 149.269 59.1831C148.461 59.1446 147.604 58.9416 146.725 58.5331C146.672 58.8103 146.669 59.1111 146.748 59.4376C148.806 67.4674 149.698 75.8113 149.395 84.0985C148.911 83.9464 148.356 83.9689 147.802 84.2677C143.757 86.4514 139.001 86.0022 134.633 85.3301C129.766 84.5793 124.942 83.4999 119.993 83.7176C113.877 83.9866 107.822 85.0241 101.692 85.2662C100.894 80.7843 99.9261 76.335 99.0067 71.8956C96.6891 60.6974 94.6877 49.1202 97.5787 37.8356C97.2259 37.8006 96.8644 37.7279 96.497 37.6254C96.4562 37.6125 96.4153 37.5996 96.3745 37.5867C96.0151 37.4814 95.6499 37.3464 95.2786 37.1682C95.0274 37.0476 94.7924 36.9213 94.5761 36.7839C94.5707 36.7813 94.5597 36.776 94.5543 36.7734C94.3409 36.6441 94.1408 36.501 93.9488 36.3551C93.8459 36.5274 93.7594 36.7076 93.7006 36.928C89.451 53.1844 94.7539 69.2493 97.6761 85.3606C93.0062 85.4167 88.3328 85.2561 83.6747 84.8677C76.7918 84.2847 69.9555 83.2269 63.2122 81.7233C60.7108 81.1674 59.9963 85.0912 62.5032 85.6496C74.2549 88.2676 86.2985 89.4936 98.3386 89.3272C98.7839 92.2488 99.1181 95.1776 99.2709 98.1066C99.5851 104.17 98.9124 110.19 98.1583 116.198C97.7909 119.133 97.4452 122.064 97.1429 125.004C96.9035 124.942 96.6377 124.922 96.3323 124.97C92.1355 125.637 87.9551 125.303 83.7734 124.72C79.2876 124.098 74.8216 123.352 70.3653 122.543C61.5316 120.943 52.7629 118.998 44.068 116.759C44.0325 118.092 43.5934 119.427 42.8611 120.56C51.9263 122.91 61.0727 124.922 70.2893 126.578C74.8161 127.394 79.3556 128.156 83.9195 128.754C88.1469 129.312 92.4323 129.609 96.6643 128.94C96.7076 128.934 96.7426 128.917 96.7803 128.908C96.6155 130.791 96.4617 132.679 96.3403 134.569C96.2555 135.866 96.2061 137.173 96.1322 138.474C95.9364 138.938 95.8934 139.461 96.0554 139.936C95.5717 149.621 95.3645 159.318 94.8347 169.002C94.4936 168.509 93.9169 168.198 93.1194 168.306C70.1134 171.426 47.5451 163.85 26.2122 156.109C26.0351 156.044 25.8695 156.025 25.7039 156.006C25.5267 156.781 25.2163 157.525 24.8047 158.215C24.6441 158.675 24.4453 159.117 24.1974 159.536C24.2904 159.594 24.3728 159.66 24.4872 159.702C46.4715 167.682 69.7318 175.496 93.4433 172.278C93.9894 172.204 94.3973 171.956 94.6845 171.624C93.8706 184.867 92.2383 198.106 88.1994 210.788C87.4204 213.223 91.3546 213.916 92.1258 211.497C99.2521 189.137 98.7991 165.503 99.8838 142.304C108.666 146.084 118.259 147.739 127.818 147.101C128.063 153.588 128.311 160.084 128.556 166.571C128.654 169.138 132.626 168.814 132.528 166.247L132.52 166.237ZM100.094 138.018C100.402 132.589 100.819 127.171 101.469 121.772C102.219 115.494 103.159 109.239 103.317 102.905C103.43 98.289 103.004 93.7171 102.33 89.1736C107.739 88.9079 113.082 88.2612 118.485 87.7977C122.716 87.4371 126.785 88.0734 130.901 88.7523C127.674 93.8218 126.627 99.6149 126.438 105.592C126.234 112.119 126.735 118.689 126.981 125.204C127.207 131.172 127.436 137.134 127.662 143.101C118.176 143.755 108.719 141.997 100.102 138.015L100.094 138.018Z" fill="#F4F5D7"/>
<path d="M125.255 28.4446L153.673 42.087C153.673 42.087 146.178 48.81 142.585 47.0851C138.992 45.3601 129.208 43.6127 126.285 39.2598C123.367 34.9095 125.255 28.4446 125.255 28.4446Z" fill="#45A5D5"/>
<path d="M139.518 41.1847C138.884 42.5062 136.757 42.8086 134.774 41.857C132.792 40.9054 131.695 39.0617 132.332 37.7348C132.969 36.4078 135.094 36.1109 137.076 37.0625C139.058 38.0141 140.155 39.8578 139.518 41.1847Z" fill="#314380"/>
<path d="M118.46 95.0293C112.011 91.9333 106.764 89.4546 101.741 99.9174C96.7182 110.38 100.272 132.916 100.272 132.916C100.272 132.916 118.921 124.009 123.943 113.546C128.966 103.083 124.912 98.1198 118.463 95.0238L118.46 95.0293ZM110.714 111.166C108.267 109.991 107.496 106.517 108.993 103.399C110.49 100.281 113.683 98.7094 116.13 99.8839C118.576 101.058 119.347 104.533 117.85 107.651C116.353 110.769 113.16 112.34 110.714 111.166Z" fill="#E06A3C"/>
</g>
<defs>
<clipPath id="clip0_81_4500">
<rect width="120.942" height="206" fill="white" transform="translate(89.5328 0.974854) rotate(25.6441)"/>
</clipPath>
</defs>
</svg>
