<svg width="144" height="31" viewBox="0 0 144 31" fill="none" xmlns="http://www.w3.org/2000/svg">
<g clip-path="url(#clip0_9_294)">
<path d="M68.2351 18.2702H70.7851C71.0251 18.2702 71.1951 18.0902 71.1951 17.8602V10.6702C71.1951 8.82022 71.8951 7.82022 73.1851 7.82022C74.3651 7.82022 75.0151 8.68021 75.0151 10.2302V17.8702C75.0151 18.1102 75.1951 18.2802 75.4251 18.2802H77.9751C78.2151 18.2802 78.3851 18.1002 78.3851 17.8702V9.98021C78.3851 6.74021 76.8851 4.74021 74.4451 4.74021C72.9251 4.74021 71.7851 5.55022 71.2051 7.00022H71.0751L70.7551 5.44022C70.7051 5.18022 70.5451 5.03022 70.3051 5.03022H68.1951C67.9551 5.03022 67.7851 5.21022 67.7851 5.44022V17.8702C67.7851 18.1102 67.965 18.2802 68.1951 18.2802L68.2351 18.2702ZM58.0851 11.6402C58.0851 8.93022 58.8851 7.43021 60.3151 7.43021C61.7451 7.43021 62.5851 8.93022 62.5851 11.6402C62.5851 14.3502 61.7751 15.8502 60.3151 15.8502C58.8551 15.8502 58.0851 14.3502 58.0851 11.6402ZM54.5751 11.6402C54.5751 15.5902 57.0451 18.5602 60.3151 18.5602C63.5851 18.5602 66.0951 15.5902 66.0951 11.6402C66.0951 7.69022 63.6051 4.72021 60.3151 4.72021C57.0251 4.72021 54.5751 7.69022 54.5751 11.6402ZM44.8251 18.2202C46.4851 17.6402 47.7751 17.4102 49.1951 17.4102C50.6151 17.4102 51.7151 17.6202 53.3151 18.2202C53.6351 18.3502 53.8751 18.2202 53.8751 17.8902V16.0602C53.8751 15.7902 53.7451 15.6302 53.5051 15.5202C52.1451 14.9302 50.9351 14.6802 49.3851 14.6802C49.0451 14.6802 48.7451 14.7102 48.4751 14.7602L53.4251 7.97021C53.5651 7.78021 53.6151 7.59022 53.6151 7.36022V5.43021C53.6151 5.19021 53.4351 5.02022 53.2051 5.02022H44.8151C44.5751 5.02022 44.4051 5.20021 44.4051 5.43021V7.28022C44.4051 7.52022 44.5851 7.69022 44.8151 7.69022H49.9251L44.4651 15.3302C44.3251 15.5202 44.2751 15.7102 44.2751 15.9402V17.9002C44.2751 18.2302 44.5151 18.3502 44.8351 18.2302L44.8251 18.2202ZM35.4951 14.1902C35.4951 12.6602 36.5751 11.6902 38.3151 11.6902C38.6051 11.6902 38.8851 11.7202 39.1651 11.7702V12.6102C39.1651 14.8302 38.4451 16.0402 37.1251 16.0402C36.1351 16.0402 35.4951 15.3202 35.4951 14.1902ZM35.8351 18.5602C37.4151 18.5602 38.5651 17.7502 39.1351 16.3602H39.2651L39.5851 17.8602C39.6351 18.1202 39.7951 18.2702 40.0351 18.2702H42.1451C42.3851 18.2702 42.5551 18.0902 42.5551 17.8602V9.84022C42.5551 6.51022 40.8351 4.72021 37.5951 4.72021C34.8651 4.72021 33.0151 5.96022 32.4251 8.21022C32.3451 8.51022 32.4851 8.74021 32.7651 8.78021L34.9851 9.16021C35.2551 9.21022 35.4151 9.06021 35.4951 8.78021C35.7851 7.76021 36.4251 7.23022 37.3751 7.23022C38.5851 7.23022 39.1751 8.01022 39.1751 9.64022V9.97022C38.8051 9.89022 38.3651 9.86021 37.8551 9.86021C34.2851 9.86021 32.0351 11.6902 32.0351 14.5602C32.0351 16.9402 33.5651 18.5502 35.8451 18.5502L35.8351 18.5602ZM44.5751 21.5702C44.7351 21.9402 45.1951 21.9402 45.9151 21.7902C47.8251 21.3802 50.2551 21.3402 50.6651 21.9202C51.0651 22.5102 50.1851 24.7702 49.1451 26.4302C48.7651 27.0702 48.6051 27.4702 48.9251 27.7702C49.0051 27.8702 49.1151 27.9002 49.2451 27.9102C49.6251 27.9102 50.1251 27.5302 50.5851 27.1002C51.5951 26.2202 52.3751 25.1102 52.8051 23.8502C53.2351 22.6402 53.4451 20.9302 52.9951 20.2802C52.5651 19.6602 50.8851 19.2402 49.5951 19.2602C48.2351 19.2602 46.9351 19.5902 45.7451 20.2202C45.0151 20.6202 44.3451 21.0602 44.5651 21.5802L44.5751 21.5702ZM9.16506 20.9002C9.27506 21.2402 9.53506 21.6502 9.91506 22.1302C14.8151 28.1702 22.6951 30.8202 30.3051 30.8202C36.9551 30.8202 43.3851 28.8102 47.4751 25.2702C48.1751 24.6502 48.5451 24.1502 48.5451 23.7702C48.5451 23.6102 48.4851 23.4802 48.3651 23.3602C48.0151 22.9902 47.4851 23.2602 46.8451 23.6002C43.0451 25.5902 37.2051 26.9602 31.0051 26.9602C24.0051 26.9602 16.5051 25.2202 10.8251 20.6502C10.2851 20.2202 9.69506 19.7902 9.29506 20.1102C9.15506 20.2202 9.02506 20.4602 9.16506 20.9102V20.9002ZM13.3451 18.2702H15.8951C16.1351 18.2702 16.3051 18.0902 16.3051 17.8602V10.6702C16.3051 8.82022 16.9551 7.82022 18.2051 7.82022C19.3351 7.82022 19.9451 8.68021 19.9451 10.2302V17.8702C19.9451 18.1102 20.1251 18.2802 20.3551 18.2802H22.9051C23.1451 18.2802 23.3151 18.1002 23.3151 17.8702V10.6802C23.3151 8.83022 23.9651 7.83021 25.2151 7.83021C26.3451 7.83021 26.9551 8.69021 26.9551 10.2402V17.8802C26.9551 18.1202 27.1351 18.2902 27.3651 18.2902H29.9151C30.1551 18.2902 30.3251 18.1102 30.3251 17.8802V9.99021C30.3251 6.75021 28.8751 4.75022 26.4751 4.75022C25.0251 4.75022 23.8751 5.53021 22.9351 7.14021H22.8051C22.1951 5.63021 21.0351 4.75022 19.4551 4.75022C17.9851 4.75022 16.8851 5.56022 16.3151 7.01022H16.1851L15.8651 5.45021C15.8151 5.19021 15.6551 5.04022 15.4151 5.04022H13.3051C13.0651 5.04022 12.8951 5.22021 12.8951 5.45021V17.8802C12.8951 18.1202 13.0751 18.2902 13.3051 18.2902L13.3451 18.2702ZM3.90506 14.1902C3.90506 12.6602 4.98506 11.6902 6.72506 11.6902C7.01506 11.6902 7.29506 11.7202 7.57506 11.7702V12.6102C7.57506 14.8302 6.85506 16.0402 5.53506 16.0402C4.54506 16.0402 3.90506 15.3202 3.90506 14.1902ZM4.23506 18.5602C5.81506 18.5602 6.96506 17.7502 7.53506 16.3602H7.66506L7.98506 17.8602C8.03506 18.1202 8.19506 18.2702 8.43506 18.2702H10.5451C10.7851 18.2702 10.9551 18.0902 10.9551 17.8602V9.84022C10.9551 6.51022 9.23506 4.72021 5.99506 4.72021C3.26506 4.72021 1.41506 5.96022 0.825059 8.21022C0.745059 8.51022 0.885059 8.74021 1.16506 8.78021L3.38506 9.16021C3.65506 9.21022 3.81506 9.06021 3.89506 8.78021C4.18506 7.76021 4.82506 7.23022 5.77506 7.23022C6.98506 7.23022 7.57506 8.01022 7.57506 9.64022V9.97022C7.20506 9.89022 6.76506 9.86021 6.25506 9.86021C2.68506 9.86021 0.435059 11.6902 0.435059 14.5602C0.435059 16.9402 1.96506 18.5502 4.24506 18.5502L4.23506 18.5602Z" fill="#3B82C5"/>
<path d="M84.7551 22V5.41996C84.7551 5.17996 84.9351 5.00996 85.1651 5.00996H87.2751C87.5151 5.00996 87.6651 5.13996 87.7251 5.41996L88.0451 6.97996H88.1751C88.7451 5.60996 90.0751 4.70996 91.5251 4.70996C94.2651 4.70996 96.0851 7.46996 96.0851 11.63C96.0851 15.79 94.2651 18.55 91.5251 18.55C90.1051 18.55 89.0551 17.86 88.2751 16.38H88.1451V22C88.1451 22.24 87.9651 22.41 87.7351 22.41H85.1851C84.9451 22.41 84.7751 22.23 84.7751 22H84.7551ZM90.3451 15.73C91.7851 15.73 92.5751 14.26 92.5751 11.63C92.5751 8.99996 91.7751 7.53996 90.3451 7.53996C88.9151 7.53996 88.0751 9.01996 88.0751 11.63C88.0751 14.24 88.8851 15.73 90.3451 15.73Z" fill="#3B82C5"/>
<path d="M105.055 8.3C104.485 8.04 103.975 7.82 103.335 7.82C102.025 7.82 101.325 8.81 101.325 10.64V17.84C101.325 18.08 101.145 18.25 100.915 18.25H98.3651C98.1251 18.25 97.9551 18.07 97.9551 17.84V5.42C97.9551 5.18 98.1351 5.01 98.3651 5.01H100.475C100.735 5.01 100.865 5.17 100.925 5.42L101.245 6.98H101.375C101.945 5.53 103.065 4.75 104.535 4.75C105.145 4.75 105.655 4.88 106.065 5.07C106.285 5.2 106.335 5.35 106.255 5.68L105.645 8.12C105.585 8.38 105.355 8.44 105.075 8.31L105.055 8.3Z" fill="#3B82C5"/>
<path d="M109.145 0C110.225 0 111.125 0.73 111.125 1.98C111.125 3.23 110.235 3.96 109.145 3.96C108.055 3.96 107.165 3.19 107.165 1.98C107.165 0.77 108.055 0 109.145 0ZM107.455 17.85V5.42C107.455 5.18 107.635 5.01 107.865 5.01H110.415C110.655 5.01 110.825 5.19 110.825 5.42V17.86C110.825 18.1 110.645 18.27 110.415 18.27H107.865C107.625 18.27 107.455 18.09 107.455 17.86V17.85Z" fill="#3B82C5"/>
<path d="M119.725 4.70996C121.305 4.70996 122.465 5.58996 123.075 7.09996H123.205C124.145 5.48996 125.295 4.70996 126.745 4.70996C129.135 4.70996 130.595 6.71996 130.595 9.95996V17.85C130.595 18.09 130.415 18.26 130.185 18.26H127.635C127.395 18.26 127.225 18.08 127.225 17.85V10.22C127.225 8.66996 126.615 7.80996 125.485 7.80996C124.245 7.80996 123.585 8.81996 123.585 10.67V17.86C123.585 18.1 123.405 18.27 123.175 18.27H120.625C120.385 18.27 120.215 18.09 120.215 17.86V10.23C120.215 8.67996 119.605 7.81996 118.475 7.81996C117.235 7.81996 116.575 8.82996 116.575 10.68V17.87C116.575 18.11 116.395 18.28 116.165 18.28H113.615C113.375 18.28 113.205 18.1 113.205 17.87V5.41996C113.205 5.17996 113.385 5.00996 113.615 5.00996H115.725C115.965 5.00996 116.125 5.16996 116.175 5.41996L116.495 6.97996H116.625C117.195 5.52996 118.305 4.70996 119.765 4.70996H119.725Z" fill="#3B82C5"/>
<path d="M138.075 4.70996C141.325 4.70996 143.575 7.52996 143.575 11.53V12.2C143.575 12.46 143.395 12.61 143.165 12.61H135.845C136.005 14.78 136.735 15.88 138.075 15.88C139.065 15.88 139.835 15.42 140.115 14.19C140.175 13.92 140.335 13.82 140.595 13.87L142.955 14.4C143.225 14.46 143.335 14.64 143.245 14.91C142.435 17.27 140.585 18.55 138.075 18.55C134.665 18.55 132.295 15.79 132.295 11.72C132.295 7.64996 134.685 4.70996 138.075 4.70996ZM140.125 10.39C139.925 8.41996 139.255 7.37996 138.065 7.37996C136.875 7.37996 136.105 8.44996 135.875 10.39H140.125Z" fill="#3B82C5"/>
</g>
<defs>
<clipPath id="clip0_9_294">
<rect width="143.15" height="30.82" fill="white" transform="translate(0.425049)"/>
</clipPath>
</defs>
</svg>
