<svg width="450" height="56" viewBox="0 0 450 56" fill="none" xmlns="http://www.w3.org/2000/svg">
<path d="M263.417 0.198975H0.726318V55.8125H263.417V0.198975Z" fill="#BC9500"/>
<path d="M212.688 25.9799L223.746 27.8607V21.8178L212.688 19.937V25.9799Z" fill="white"/>
<path d="M212.688 16.4978L223.746 18.3786V12.3531L212.688 10.4636V16.4978Z" fill="white"/>
<path d="M212.688 47.3477L223.746 43.8125V32.8674L212.688 36.5506V47.3477Z" fill="white"/>
<path d="M246.054 16.933C248.257 16.6109 250.295 16.2713 252.001 15.9317V9.90625C246.046 11.0817 236.137 12.3182 229.005 12.353V18.3872C230.843 18.3872 232.863 18.2914 234.953 18.1434V21.8527H227.769V27.8781H234.953V31.7006H229.005V45.6671H252.001V31.7006H246.054V27.8781H253.238V21.8527H246.054V16.933ZM244.565 40.9652H236.424V36.3938H244.565V40.9652Z" fill="white"/>
<path d="M130.334 45.2753C133.258 45.2753 135.628 42.9051 135.628 39.9813C135.628 37.0575 133.258 34.6873 130.334 34.6873C127.411 34.6873 125.04 37.0575 125.04 39.9813C125.04 42.9051 127.411 45.2753 130.334 45.2753Z" fill="white"/>
<path d="M160.401 45.3102C163.324 45.3102 165.695 42.94 165.695 40.0162C165.695 37.0924 163.324 34.7222 160.401 34.7222C157.477 34.7222 155.107 37.0924 155.107 40.0162C155.107 42.94 157.477 45.3102 160.401 45.3102Z" fill="white"/>
<path d="M23.2434 45.6584H12.1416V12.8755H23.2434V23.7161H38.3157V34.8092H23.2434V45.6584Z" fill="white"/>
<path d="M116.185 46.0503H104.448C95.8535 46.0503 93.668 41.8185 93.668 34.7395V32.345H85.8663V24.8132H93.668V20.982H85.8663V13.2673H116.185V20.982H104.77V24.8132H116.185V32.345H104.839C104.839 34.1039 104.839 35.0704 105.458 35.5928C105.902 35.9672 106.546 36.2198 107.46 36.2198H116.176V46.0503H116.185Z" fill="white"/>
<path d="M77.9252 44.5526H48.8951V33.4508H66.4403V25.0395H48.8951V13.9377H77.9252V44.5526Z" fill="white"/>
<path d="M31.167 19.6845C29.295 19.6845 27.7712 18.1607 27.7712 16.2887C27.7712 14.4166 29.295 12.8928 31.167 12.8928C33.0391 12.8928 34.5629 14.4166 34.5629 16.2887C34.5629 18.1607 33.0391 19.6845 31.167 19.6845Z" fill="white"/>
<path d="M40.1704 19.6845C38.2983 19.6845 36.7745 18.1607 36.7745 16.2887C36.7745 14.4166 38.2983 12.8928 40.1704 12.8928C42.0424 12.8928 43.5662 14.4166 43.5662 16.2887C43.5662 18.1607 42.0424 19.6845 40.1704 19.6845Z" fill="white"/>
<path d="M204.399 12.6665C195.395 16.0972 183.789 19.3276 172.434 20.7991V32.8152C175.926 32.3885 179.888 31.7355 183.91 30.9344V45.6759H195.152V28.27C198.6 27.3122 201.786 26.276 204.399 25.2137V12.6752V12.6665Z" fill="white"/>
<path d="M162.917 8.9397C159.164 8.9397 156.125 11.9785 156.125 15.7314C156.125 16.8895 156.421 17.9866 156.935 18.9444H150.831V12.8232H139.904V18.9444H130.178V30.0462H139.904V45.6671H150.831V30.0462H160.557V22.0964C161.297 22.3663 162.09 22.5318 162.917 22.5318C166.67 22.5318 169.709 19.4929 169.709 15.7401C169.709 11.9873 166.67 8.9484 162.917 8.9484V8.9397ZM162.917 18.4045C161.437 18.4045 160.235 17.2029 160.235 15.7227C160.235 14.2424 161.437 13.0408 162.917 13.0408C164.397 13.0408 165.599 14.2424 165.599 15.7227C165.599 17.2029 164.397 18.4045 162.917 18.4045Z" fill="white"/>
<path d="M431.546 26.2325L447.524 0.188965H422.812L417.719 11.4823H417.545L412.451 0.188965H387.739L403.717 26.2325L392.668 44.6658L375.915 0.188965H353.546L336.793 44.6658V0.197672H315.243L305.177 14.1816L294.885 0.197672H273.334V55.8112H294.885V28.6966H295.042L305.177 41.7576L315.086 28.6966H315.243V55.8112H356.306L358.065 48.5145H371.405L373.163 55.8112H410.683L417.553 42.5238H417.71L424.58 55.8112H449.274L431.546 26.2412V26.2325ZM361.435 34.5305L364.665 21.1126H364.822L368.052 34.5305H361.443H361.435Z" fill="#BC9500"/>
</svg>
