<svg width="219" height="205" viewBox="0 0 219 205" fill="none" xmlns="http://www.w3.org/2000/svg">
<g clip-path="url(#clip0_81_4220)">
<path fill-rule="evenodd" clip-rule="evenodd" d="M104.966 179.353C105.502 179.559 106.033 179.79 106.56 180.05C107.12 180.325 107.656 180.545 108.158 180.727C109.426 181.173 110.665 181.684 111.88 182.248C111.973 182.292 112.077 182.287 112.195 182.238C112.224 182.484 112.283 182.66 112.372 182.753C114.043 184.569 118.695 188.642 121.055 189.731C121.478 189.927 121.911 190.183 122.348 190.511C123.548 191.39 123.868 193.053 121.975 193.47C121.119 193.657 120.2 193.75 119.206 193.75C116.202 193.75 116.797 194.088 114.648 193.529C113.124 193.127 112.627 193.053 111.221 192.155C110.12 191.449 108.856 190.565 107.44 189.496C107.199 189.069 106.889 188.956 106.52 189.167C106.353 189.265 106.269 189.432 106.279 189.662L105.65 190.806C105.512 191.056 105.188 191.164 104.912 191.051L101.038 189.412C100.634 189.245 100.423 188.823 100.541 188.431C101.136 186.375 103.108 180.212 104.966 179.363V179.353Z" fill="#FC4A28"/>
<path fill-rule="evenodd" clip-rule="evenodd" d="M126.538 161.06C125.451 162.35 124.635 163.803 123.553 165.162C123.386 165.373 123.263 165.604 123.179 165.844C123.14 165.962 123.076 166.065 122.983 166.158C122.457 166.683 122.152 167.316 121.631 167.841C121.277 168.204 120.957 168.597 120.677 169.019C120.303 169.593 120.008 170 119.796 170.245C119.103 171.055 118.41 171.825 117.82 172.719C116.93 174.068 116.064 175.373 115.219 176.639C114.629 177.513 114.348 178.523 113.709 179.402C113.394 179.838 113.173 180.854 113.05 182.449C112.927 182.503 112.814 182.508 112.716 182.459C111.413 181.85 110.08 181.306 108.718 180.825C108.182 180.633 107.607 180.393 107.002 180.099C106.437 179.824 105.866 179.573 105.291 179.348L104.357 178.803C104.244 178.739 104.194 178.646 104.214 178.523C104.244 178.307 104.337 178.087 104.504 177.866C104.662 177.66 104.784 177.449 104.873 177.228C107.302 171.227 111.772 162.782 114.688 157.434C115.199 156.496 116.581 154.411 118.838 151.192C120.588 148.694 122.437 146.099 124.379 143.405C125.028 142.507 125.348 141.741 125.338 141.108C126.459 141.099 127.472 141.246 128.387 141.555L129.999 142.1C132.861 142.86 135.762 143.395 138.708 143.709C136.185 147.497 133.569 151.261 130.865 154.99C130.565 155.407 129.867 156.428 128.765 158.062C128.013 159.18 127.27 160.177 126.533 161.05L126.538 161.06Z" fill="#31A0C3"/>
<path fill-rule="evenodd" clip-rule="evenodd" d="M186.227 140.034C186.379 140.481 186.596 141.06 186.876 141.761L189.467 148.283C190.259 150.285 191.149 152.439 192.147 154.765C194.994 161.379 197.703 168.038 200.29 174.741L201.75 179.088C202.375 180.948 203.191 182.704 204.194 184.363C202.571 185.688 200.624 186.63 198.352 187.204C197.576 185.457 197.03 184.343 196.715 183.863C192.393 177.307 188.538 171.836 185.14 167.444C183.567 165.408 182.308 163.636 181.364 162.13C180.356 160.525 179.422 158.602 178.556 156.354C177.745 154.235 176.983 152.164 176.279 150.157C175.429 147.723 174.288 145.265 172.862 142.772C177.435 142.193 181.89 141.285 186.232 140.039L186.227 140.034Z" fill="#31A0C3"/>
<path fill-rule="evenodd" clip-rule="evenodd" d="M175.847 109.92C177.474 109.857 178.969 116.716 179.107 117.943C179.107 117.953 179.112 117.963 179.117 117.973C181.61 125.2 183.98 132.551 186.232 140.034C181.89 141.275 177.435 142.188 172.857 142.767C152.53 154.544 161.735 135.176 138.718 143.714C135.772 143.4 132.866 142.865 130.004 142.11L128.387 141.565C127.472 141.256 126.459 141.104 125.338 141.118C125.407 139.794 125.628 138.439 126.007 137.06L127.034 133.302C128.628 126.069 129.773 118.777 130.467 111.427L130.58 108.12C130.58 107.958 130.786 107.874 130.914 107.982C131.868 108.762 132.95 109.312 134.174 109.621C136.279 110.161 138.029 110.539 139.44 110.75C139.696 110.789 139.962 110.799 140.242 110.789C140.478 110.779 140.729 110.794 141.004 110.853C142.302 111.118 143.772 111.299 145.405 111.397C150.106 111.687 153.902 111.756 156.793 111.618C157.383 111.594 157.939 111.589 158.45 111.613C159.635 111.667 160.702 111.461 161.862 111.363C162.448 111.309 163.013 111.186 163.564 110.99C163.711 110.936 163.864 110.887 164.011 110.843C164.06 110.774 164.115 110.71 164.169 110.656C165.177 109.587 173.713 110.019 175.847 109.93V109.92Z" fill="#FC4A28"/>
<path fill-rule="evenodd" clip-rule="evenodd" d="M169.661 18.9369C168.948 21.3118 167.709 23.0734 165.939 24.2118C164.906 24.8742 163.785 25.2079 162.571 25.2128C162.443 25.2128 162.325 25.1735 162.221 25.0852C162.153 25.0165 162.064 24.9969 161.956 25.0214C161.926 25.0214 161.921 25.0361 161.941 25.0607C162.02 25.149 161.912 25.2128 161.612 25.2471C161.558 25.2569 161.499 25.2471 161.445 25.2226C159.232 24.2903 157.727 24.0548 156.085 25.939C154.782 27.4356 154.197 30.1049 154.01 31.9892C153.774 34.3838 152.308 36.2484 149.624 37.5683C149.388 37.583 149.014 37.7401 148.508 38.0345C148.183 38.2258 147.952 38.6037 147.509 38.7263C147.382 38.7607 147.264 38.8147 147.165 38.8883C146.683 39.2367 146.172 39.4526 145.616 39.5311C146.256 38.9717 146.728 38.4368 147.023 37.9118C147.145 37.691 147.101 37.6517 146.88 37.794L142.976 40.3603C142.932 40.3898 142.873 40.3751 142.848 40.3358L142.779 40.2279C142.71 40.1248 142.72 40.0218 142.804 39.9285L143.694 38.8883C143.846 38.7067 143.807 38.6626 143.581 38.746C141.078 39.7224 138.216 40.4241 135 40.8461C134.848 40.8658 134.71 40.7725 134.681 40.6302C134.651 40.4634 134.784 40.326 135.079 40.2131C136.859 39.5507 138.673 38.8883 140.522 38.2209C140.591 38.1964 140.616 38.1522 140.596 38.0885L140.561 37.9952C140.561 37.9952 140.552 37.9854 140.547 37.9903C138.221 38.6037 135.526 39.0895 132.458 39.4624C131.956 39.5213 131.602 39.3348 131.396 38.8981C131.224 38.535 131.607 38.1719 132.556 37.8039C132.832 37.6959 133.117 37.6076 133.407 37.534L138.949 36.2091C139.022 36.1895 139.057 36.1404 139.042 36.0668L139.017 35.9687C139.017 35.9687 139.003 35.949 138.988 35.949C136.038 36.4397 133.063 36.6704 130.063 36.6507C129.326 36.6458 128.962 36.3465 128.982 35.7626C128.987 35.4535 129.227 35.1885 129.557 35.1247L136.702 33.8146C136.82 33.79 136.893 33.6919 136.869 33.5839L136.839 33.4416C136.824 33.4024 136.8 33.3827 136.756 33.3877C133.727 33.8587 130.821 34.1041 128.023 34.1188C127.654 34.1188 127.452 33.7115 127.698 33.4514C128.264 32.843 130.363 32.3376 131.234 32.0186C131.298 31.9892 131.322 31.9499 131.312 31.8861L131.293 31.7635C131.273 31.6555 131.16 31.5868 131.052 31.6114C129.729 31.9303 128.426 32.0137 127.143 31.8714C126.144 31.7635 126.051 31.4298 126.867 30.8802C128.116 30.0362 129.282 29.3297 130.708 28.7408C132.974 27.8036 135.231 26.7683 137.478 25.6446C137.567 25.6053 137.582 25.5415 137.537 25.463L137.488 25.3747C137.488 25.3747 137.464 25.3747 137.434 25.3796L127.506 29.153C127.413 29.1874 127.334 29.1628 127.285 29.0843C127.256 29.0451 127.251 28.996 127.261 28.9518C127.266 28.9224 127.29 28.8929 127.329 28.8635C129.999 26.7879 133.083 25.1931 136.52 23.6622C137.316 23.6328 138.029 23.3678 138.663 22.882L142.317 21.3707C143.271 21.2529 144.107 20.8898 144.825 20.2863C146.26 19.5551 147.632 18.7357 148.955 17.8279C150.396 16.8367 151.836 15.3254 153.331 14.0349C157.063 10.8209 163.49 11.763 167.448 13.9711C168.083 14.3244 168.555 14.7955 168.864 15.3794C169.484 16.5521 169.75 17.7347 169.666 18.9271L169.661 18.9369ZM142.843 29.4278C142.72 29.467 142.666 29.5897 142.715 29.7026C142.774 29.84 142.917 29.8547 143.143 29.7418C143.286 29.678 143.29 29.4916 143.163 29.4131C143.094 29.3738 142.986 29.3738 142.848 29.4229L142.843 29.4278ZM138.432 33.0147C138.403 32.9362 138.226 32.9313 138.039 32.9951C137.852 33.0589 137.724 33.1816 137.759 33.2552C137.788 33.3337 137.965 33.3386 138.152 33.2748C138.339 33.211 138.467 33.0932 138.432 33.0147ZM139.667 35.8411C139.755 35.8411 139.824 35.6939 139.824 35.5123C139.824 35.3259 139.76 35.1787 139.671 35.1787C139.583 35.1787 139.514 35.3308 139.514 35.5074C139.514 35.6841 139.583 35.8411 139.667 35.8411ZM143.438 36.2925C143.399 36.2386 143.148 36.3318 142.882 36.4986C142.617 36.6704 142.43 36.847 142.469 36.9059C142.509 36.9599 142.754 36.8666 143.025 36.6998C143.29 36.5281 143.477 36.3514 143.438 36.2974V36.2925Z" fill="#1B3E6F"/>
<path fill-rule="evenodd" clip-rule="evenodd" d="M169.661 18.937C170.207 22.7448 170.246 26.4347 169.784 30.0119C169.494 32.2543 168.151 33.535 165.752 33.8687C164.439 34.0502 162.807 34.1582 161.848 35.0169C160.997 35.7824 160.495 36.8373 160.343 38.172C159.665 38.0003 158.996 37.8531 158.342 37.7255C157.722 37.6028 157.044 37.5439 156.306 37.5439C154.177 37.5488 151.95 37.5537 149.629 37.5685C152.313 36.2485 153.779 34.3888 154.015 31.9893C154.202 30.1051 154.787 27.4357 156.09 25.9391C157.732 24.05 159.237 24.2855 161.449 25.2227C161.504 25.2473 161.563 25.2522 161.617 25.2473C161.917 25.2129 162.025 25.1491 161.946 25.0608C161.926 25.0363 161.931 25.0265 161.961 25.0216C162.069 24.9921 162.153 25.0166 162.226 25.0853C162.33 25.1737 162.443 25.2178 162.575 25.2129C163.79 25.2129 164.911 24.8743 165.944 24.2119C167.714 23.0735 168.953 21.3169 169.666 18.937H169.661Z" fill="#FA8517"/>
<path fill-rule="evenodd" clip-rule="evenodd" d="M142.843 29.4278C142.986 29.3787 143.094 29.3738 143.158 29.418C143.29 29.4965 143.281 29.6829 143.138 29.7467C142.912 29.8596 142.774 29.8449 142.71 29.7075C142.661 29.5946 142.715 29.4719 142.838 29.4327L142.843 29.4278Z" fill="#1D5CA0"/>
<path fill-rule="evenodd" clip-rule="evenodd" d="M149.624 37.5685C151.945 37.5538 154.167 37.5489 156.301 37.5439C157.039 37.5439 157.717 37.6028 158.337 37.7255C158.996 37.8531 159.66 38.0003 160.338 38.172C160.722 38.437 161.14 38.7167 161.592 39.0062C162.069 39.3104 162.467 39.6048 162.792 39.8894C168.343 44.7522 170.994 50.9299 171.879 57.8683C172.026 59.0263 172.134 61.2589 172.193 64.576C172.247 67.3337 172.37 70.0079 172.577 72.5938C172.282 73.8991 172.149 75.0865 172.164 76.1415C172.233 79.542 172.316 82.9376 172.41 86.338C172.464 88.2517 172.803 90.504 173.432 93.0899C174.175 98.9978 175.281 104.734 176.742 110.293C176.811 110.578 176.722 110.922 176.791 111.147L175.793 111.231C175.807 111.108 175.748 111.039 175.616 111.03C173.629 110.877 171.107 112.315 168.501 111.133C166.927 110.411 165.285 110.357 163.574 110.971C163.028 111.172 162.457 111.294 161.872 111.344C160.712 111.442 159.64 111.648 158.46 111.594C157.944 111.574 157.393 111.579 156.803 111.604C153.907 111.741 150.111 111.672 145.41 111.383C143.777 111.285 142.312 111.103 141.009 110.838C140.734 110.784 140.483 110.765 140.247 110.774C139.966 110.784 139.701 110.774 139.445 110.735C138.039 110.524 136.284 110.146 134.179 109.607C132.96 109.297 131.873 108.753 130.919 107.968C130.791 107.865 130.59 107.948 130.585 108.105L130.472 111.417L130.511 108.983C130.511 108.861 130.462 108.758 130.363 108.679C130.024 108.409 129.916 108.017 130.039 107.506C130.344 106.221 130.649 105.073 130.958 104.057C134.577 92.1331 137.444 82.2653 139.558 74.4487C139.588 74.3456 139.48 74.2524 139.372 74.2867C139.234 74.3309 139.131 74.4143 139.047 74.5173C133.392 82.2261 127.757 90.7493 122.934 97.5307C122.024 98.8114 121.06 99.9988 120.032 101.093C119.782 101.27 119.551 101.378 119.344 101.412C119.167 101.441 118.956 101.363 118.71 101.167C117.033 99.8124 115.155 98.777 113.08 98.0459C112.962 98.0066 112.888 97.9281 112.858 97.8202L112.721 97.3589C114.466 92.9182 116.271 88.8945 118.139 85.2929C122.334 77.2309 128.087 66.3523 135.403 52.6424C137.08 49.4873 138.157 47.5687 138.619 46.8768C139.858 45.0269 141.329 43.3341 143.04 41.8031C143.969 40.964 144.83 40.2084 145.626 39.5214C146.182 39.438 146.693 39.227 147.175 38.8786C147.278 38.805 147.391 38.751 147.519 38.7167C147.962 38.594 148.193 38.2162 148.522 38.0248C149.029 37.7304 149.398 37.5734 149.638 37.5587L149.624 37.5685ZM141.088 72.6184C143.433 69.5761 145.528 66.264 147.367 62.6868C149.245 59.0214 150.912 55.351 152.367 51.6807C152.417 51.558 152.367 51.4206 152.249 51.347C152.072 51.244 151.915 51.2587 151.773 51.3814C151.679 51.4599 151.61 51.5531 151.561 51.6611C148.665 57.9124 145.97 64.1442 142.056 69.9196C141.299 71.0384 140.581 72.2062 139.937 73.3986C139.898 73.4673 139.903 73.5507 139.952 73.6145L140.05 73.747C140.085 73.8009 140.168 73.8009 140.207 73.747C140.483 73.3937 140.773 73.0158 141.083 72.6233L141.088 72.6184ZM140.257 105.303C140.109 105.171 139.937 105.102 139.74 105.107C139.499 105.107 139.46 105.195 139.627 105.362C139.76 105.495 139.834 105.666 139.858 105.867C139.868 105.99 139.942 106.054 140.075 106.054C140.144 106.054 140.207 106.039 140.271 106.015C140.399 105.975 140.517 105.975 140.635 106.015C141.088 106.167 141.545 106.245 142.022 106.25C142.184 106.25 142.287 106.083 142.204 105.951C141.973 105.573 141.707 105.445 141.417 105.583C141.093 105.74 140.62 105.622 140.257 105.293V105.303ZM173.432 105.195C173.418 105.141 173.359 105.112 173.305 105.127L170.059 105.902C170.005 105.912 169.971 105.97 169.986 106.02L170.01 106.108C170.02 106.162 170.079 106.191 170.133 106.177L173.383 105.401C173.437 105.391 173.472 105.333 173.457 105.284L173.432 105.195ZM142.75 106.177C142.656 106.25 142.666 106.329 142.779 106.427C142.804 106.451 142.838 106.466 142.877 106.466C143.369 106.466 143.846 106.466 144.303 106.466C144.495 106.466 144.972 106.505 145.729 106.584C146.58 106.672 147.382 106.496 148.242 106.603C148.788 106.672 149.299 106.584 149.771 106.339C149.825 106.314 149.835 106.275 149.811 106.226L149.761 106.137C149.712 106.034 149.584 105.995 149.481 106.044C148.945 106.294 148.409 106.329 147.873 106.152C147.755 106.113 147.622 106.098 147.495 106.108C146.634 106.182 145.779 106.147 144.913 106C144.78 105.98 144.657 105.99 144.534 106.039C144.067 106.226 143.64 106.162 143.256 105.843C143.153 105.76 143.05 105.76 142.941 105.843C142.873 105.902 142.833 105.961 142.823 106.039C142.823 106.098 142.794 106.142 142.745 106.177H142.75ZM150.027 106.235C149.997 106.25 149.968 106.275 149.948 106.299C149.904 106.353 149.914 106.402 149.963 106.442C150.214 106.643 150.445 106.633 150.642 106.427C150.755 106.309 150.686 106.128 150.528 106.088C150.371 106.054 150.243 106.074 150.15 106.152C150.12 106.172 150.081 106.196 150.032 106.231L150.027 106.235ZM152.264 106.52C152.825 106.751 153.346 106.731 153.833 106.466C153.985 106.383 153.975 106.324 153.813 106.27C153.169 106.088 152.628 106.358 151.954 106.128C151.836 106.088 151.728 106.074 151.63 106.088C151.468 106.118 151.364 106.147 151.325 106.196C150.971 106.599 151.06 106.721 151.586 106.559C151.64 106.545 151.743 106.515 151.891 106.481C152.018 106.456 152.141 106.466 152.264 106.515V106.52ZM155.224 106.613L155.726 106.451C155.982 106.368 155.982 106.285 155.726 106.196C155.48 106.118 155.151 106.142 154.738 106.275C154.629 106.309 154.595 106.378 154.629 106.481L154.836 107.045C154.87 107.138 154.905 107.138 154.949 107.045C154.978 106.972 155.003 106.903 155.023 106.834C155.042 106.716 155.116 106.643 155.229 106.608L155.224 106.613ZM161.469 106.285C161.469 106.211 161.4 106.152 161.322 106.152L156.591 106.235C156.508 106.235 156.449 106.294 156.449 106.373V106.412C156.449 106.486 156.518 106.55 156.596 106.545L161.326 106.461C161.41 106.461 161.469 106.397 161.469 106.324V106.285Z" fill="#DA5030"/>
<path fill-rule="evenodd" clip-rule="evenodd" d="M141.088 72.6181C140.778 73.0156 140.488 73.3885 140.212 73.7418C140.173 73.7908 140.085 73.7908 140.05 73.7418L139.952 73.6093C139.903 73.5504 139.893 73.4621 139.937 73.3934C140.586 72.2059 141.299 71.0332 142.056 69.9193C145.97 64.1439 148.665 57.9121 151.561 51.6608C151.61 51.5528 151.679 51.4596 151.773 51.3811C151.915 51.2584 152.077 51.2486 152.249 51.3467C152.372 51.4154 152.417 51.5577 152.367 51.6804C150.912 55.3508 149.24 59.0211 147.367 62.6866C145.533 66.2637 143.438 69.5758 141.088 72.6181Z" fill="#1B3E6F"/>
<path fill-rule="evenodd" clip-rule="evenodd" d="M172.577 72.5987C174.657 75.7587 176.634 78.8451 178.492 81.853C182.401 88.1829 187.2 94.027 191.641 100.033C191.714 100.136 191.739 100.254 191.714 100.377C191.66 100.602 191.518 100.843 191.291 101.103L185.789 104.042C185.46 104.248 185.091 104.395 184.693 104.469C184.57 104.498 184.442 104.454 184.358 104.366L173.428 93.0898C172.803 90.5039 172.464 88.2516 172.405 86.3379C172.311 82.9424 172.228 79.5419 172.159 76.1414C172.139 75.0864 172.277 73.899 172.572 72.5938L172.577 72.5987Z" fill="#FC4A28"/>
<path fill-rule="evenodd" clip-rule="evenodd" d="M112.716 97.3687L112.853 97.8299C112.883 97.9428 112.957 98.0164 113.075 98.0556C115.15 98.7867 117.028 99.8221 118.705 101.176C118.951 101.373 119.162 101.451 119.339 101.422C119.546 101.387 119.777 101.279 120.028 101.103C118.941 102.344 118.356 103.537 118.272 104.68C117.82 104.935 117.662 105.259 117.785 105.671C115.951 106.814 115.091 107.506 112.775 106.682C112.008 106.407 111.231 106.137 110.449 105.882C110.321 105.843 110.228 105.764 110.164 105.651L109.407 104.356C109.116 103.694 108.974 103.237 108.984 102.997C109.333 100.96 110.395 99.4639 112.175 98.5071C112.558 98.2961 112.735 97.9182 112.716 97.3687Z" fill="#FA8517"/>
<path fill-rule="evenodd" clip-rule="evenodd" d="M191.296 101.103C192.599 102.162 197.797 106.289 197.054 108.021C196.995 108.159 196.887 108.232 196.73 108.242C196.449 108.262 195.407 107.163 195.009 106.824C194.679 106.549 194.586 106.603 194.733 106.996C195.038 107.796 195.52 108.674 195.633 109.322C195.712 109.729 195.815 109.778 195.515 109.935C195.319 110.038 195.073 110.004 194.92 109.856C194.158 109.14 193.484 108.35 192.909 107.486C192.84 107.383 192.688 107.369 192.594 107.447L192.496 107.531C192.467 107.56 192.457 107.589 192.476 107.624C193.273 109.091 193.588 110.048 193.435 110.494C193.322 110.808 192.87 110.857 192.683 110.573C191.916 109.385 191.06 108.281 190.131 107.266C189.502 106.579 189.339 106.662 189.649 107.521C189.964 108.394 190.072 109.179 189.969 109.881C189.841 110.803 189.502 110.877 188.961 110.092C187.751 108.35 186.694 106.333 185.799 104.042L191.301 101.103H191.296Z" fill="#FA8517"/>
<path fill-rule="evenodd" clip-rule="evenodd" d="M108.984 102.997C108.974 103.237 109.116 103.693 109.407 104.356C108.187 104.68 107.096 105.141 106.132 105.735C103.713 107.231 101.628 109.047 99.8723 111.167C99.351 111.014 98.8495 110.995 98.3627 111.113C99.6756 109.312 101.072 107.796 102.542 106.574C104.44 104.994 106.589 103.796 108.984 102.992V102.997Z" fill="#2A69A4"/>
<path fill-rule="evenodd" clip-rule="evenodd" d="M118.277 104.685C119.821 105.99 120.814 106.942 121.257 107.545C122.791 109.645 123.912 111.927 124.605 114.4C124.743 114.896 124.999 116.005 125.363 117.712C125.392 117.84 125.471 117.923 125.604 117.963L127.777 118.605C128.003 118.674 128.146 118.88 128.116 119.096L127.885 121.005C127.433 122.384 127.197 123.812 127.162 125.289L125.874 130.976C125.333 132.384 124.989 133.817 124.832 135.289L124.271 136.79C123.548 136.614 122.324 136.378 120.588 136.084C115.789 135.264 110.852 134.195 105.773 132.86C99.946 131.334 95.4714 130.161 90.4658 128.38C90.4215 128.365 90.3871 128.341 90.3478 128.316C90.2642 128.247 90.2347 128.159 90.2544 128.051C91.169 123.507 92.236 118.807 94.0455 114.489C94.2077 114.582 94.2717 114.758 94.2372 115.014C94.2274 115.077 94.252 115.136 94.3061 115.18C94.3405 115.205 94.3847 115.22 94.4388 115.215C94.547 115.205 94.6159 115.161 94.6601 115.068L94.9945 114.317C95.0486 114.199 95.0092 114.135 94.8765 114.116C94.6503 114.076 94.4241 114.081 94.2077 114.135C94.1782 113.905 94.2717 113.733 94.4782 113.61C94.9797 113.743 95.2846 113.723 95.3829 113.556C95.4567 113.429 95.4173 113.36 95.2649 113.355L94.5569 113.335L95.8697 111.319C95.9386 111.211 96.0418 111.142 96.1746 111.113C96.8679 110.965 97.6055 110.965 98.3725 111.118C98.8593 111 99.3609 111.014 99.8821 111.171L99.7788 111.289C99.6903 111.392 99.7149 111.451 99.8477 111.476C105.33 112.506 109.918 113.527 113.601 114.543C116.979 115.475 120.382 116.407 123.809 117.33C123.942 117.364 123.996 117.32 123.976 117.197C123.371 112.658 121.311 108.821 117.8 105.686C117.677 105.273 117.835 104.95 118.287 104.694L118.277 104.685ZM96.5089 114.577L96.681 114.915C96.7105 114.979 96.7843 115.018 96.8581 115.009C96.9761 114.999 97.0449 114.95 97.0744 114.857C97.1531 114.577 97.0351 114.41 97.0302 114.145C97.0302 114.022 97.0892 113.939 97.2121 113.89C97.3989 113.821 97.5317 113.733 97.6055 113.63C97.8415 113.326 97.7677 113.208 97.3694 113.272C97.0793 113.321 96.7302 113.296 96.327 113.198C96.1992 113.169 96.1057 113.208 96.0418 113.316C95.7911 113.757 95.5206 114.184 95.2305 114.596C95.1715 114.685 95.142 114.763 95.142 114.832C95.142 114.925 95.1617 115.004 95.2108 115.072C95.2944 115.205 95.3928 115.21 95.5009 115.097C95.6042 114.999 95.6484 114.871 95.6288 114.719C95.6189 114.596 95.6681 114.508 95.7861 114.459C95.9435 114.39 96.1008 114.366 96.2582 114.39C96.3762 114.41 96.4598 114.464 96.5089 114.567V114.577ZM96.4303 115.063C96.4303 114.906 96.2926 114.778 96.1254 114.778C95.9582 114.778 95.8205 114.906 95.8205 115.063C95.8205 115.22 95.9533 115.347 96.1254 115.347C96.2975 115.347 96.4303 115.22 96.4303 115.063ZM97.1826 115.22C96.9318 115.269 96.7745 115.431 96.7155 115.686C96.686 115.804 96.8187 115.892 96.9318 115.838C97.2465 115.686 97.5317 115.49 97.7972 115.269C97.9202 115.166 97.9546 115.043 97.8907 114.915C97.8022 114.709 97.7087 114.704 97.6055 114.901C97.5415 115.018 97.4432 115.112 97.3104 115.176C97.2711 115.195 97.2268 115.21 97.1826 115.22ZM95.9681 116.334C95.9189 116.52 95.7763 116.603 95.5403 116.574C95.4714 116.554 95.4173 116.545 95.3731 116.549C95.2748 116.554 95.2157 116.652 95.26 116.731C95.4223 117.025 95.6337 117.148 95.8992 117.089C96.4008 116.589 96.5237 116.23 96.2631 116.015C96.0959 115.853 95.9435 115.774 95.8009 115.779C95.6485 115.779 95.5599 115.941 95.6435 116.059C95.7124 116.152 95.8205 116.245 95.9681 116.329V116.334ZM98.1759 116.216C98.0677 116.039 97.7333 116.034 97.4284 116.201C97.1285 116.368 96.9662 116.648 97.0793 116.824C97.1924 117.001 97.5268 117.006 97.8317 116.839C98.1365 116.667 98.2939 116.392 98.1808 116.216H98.1759ZM109.234 119.081C109.289 118.998 109.146 118.812 108.91 118.669C108.674 118.532 108.433 118.483 108.374 118.566C108.32 118.654 108.462 118.836 108.698 118.978C108.935 119.121 109.175 119.17 109.234 119.081ZM98.6331 119.93C98.584 120.112 98.6479 120.244 98.8347 120.323C98.9577 120.372 99.0904 120.284 99.0855 120.161C99.0855 120.043 99.0314 119.94 98.9478 119.852C98.8495 119.754 98.6725 119.793 98.6331 119.93ZM95.9238 120.436C95.9238 120.318 95.8255 120.225 95.6976 120.225C95.5698 120.225 95.4764 120.318 95.4764 120.436C95.4764 120.553 95.5796 120.642 95.6976 120.642C95.8156 120.642 95.9238 120.549 95.9238 120.436ZM96.9171 120.583C96.9662 120.509 96.8974 120.382 96.7499 120.293C96.6073 120.21 96.4499 120.2 96.4008 120.269C96.3516 120.342 96.4254 120.47 96.568 120.558C96.7105 120.642 96.8679 120.652 96.9171 120.583ZM94.2176 120.74C94.3159 120.848 94.4438 120.877 94.6011 120.828C94.7289 120.784 94.7486 120.72 94.6454 120.637C94.547 120.549 94.4241 120.519 94.2864 120.549C94.1487 120.578 94.1291 120.637 94.2176 120.74ZM109.161 122.639C109.131 122.57 109.053 122.531 108.979 122.551C108.733 122.605 108.664 122.766 108.777 123.031C108.831 123.149 108.979 123.188 109.092 123.115C109.23 123.017 109.254 122.86 109.161 122.639Z" fill="#1D5CA0"/>
<path fill-rule="evenodd" clip-rule="evenodd" d="M140.257 105.303C140.62 105.632 141.088 105.745 141.417 105.593C141.707 105.455 141.968 105.578 142.204 105.961C142.287 106.093 142.184 106.26 142.022 106.26C141.55 106.26 141.088 106.177 140.635 106.024C140.517 105.985 140.399 105.985 140.271 106.024C140.203 106.049 140.139 106.059 140.075 106.064C139.942 106.064 139.868 106 139.858 105.877C139.839 105.671 139.765 105.499 139.627 105.372C139.465 105.21 139.504 105.122 139.74 105.117C139.937 105.117 140.109 105.18 140.257 105.313V105.303Z" fill="#854844"/>
<path fill-rule="evenodd" clip-rule="evenodd" d="M173.457 105.283C173.472 105.332 173.437 105.391 173.383 105.401L170.133 106.176C170.079 106.191 170.02 106.162 170.01 106.108L169.986 106.019C169.971 105.97 170.005 105.911 170.059 105.902L173.305 105.126C173.359 105.112 173.418 105.141 173.432 105.195L173.457 105.283Z" fill="#854844"/>
<path fill-rule="evenodd" clip-rule="evenodd" d="M142.828 106.039C142.838 105.961 142.873 105.897 142.941 105.843C143.05 105.759 143.153 105.759 143.256 105.843C143.644 106.157 144.072 106.221 144.539 106.039C144.662 105.99 144.785 105.98 144.918 106C145.783 106.147 146.639 106.181 147.5 106.103C147.627 106.093 147.755 106.108 147.878 106.147C148.414 106.324 148.955 106.289 149.486 106.039C149.589 105.99 149.717 106.029 149.766 106.132L149.815 106.221C149.84 106.27 149.825 106.309 149.776 106.334C149.304 106.579 148.798 106.667 148.252 106.599C147.391 106.491 146.59 106.667 145.739 106.579C144.977 106.5 144.505 106.466 144.313 106.461C143.851 106.461 143.374 106.461 142.887 106.461C142.848 106.461 142.814 106.446 142.789 106.422C142.676 106.329 142.666 106.245 142.759 106.172C142.809 106.137 142.833 106.088 142.838 106.034L142.828 106.039Z" fill="#854844"/>
<path fill-rule="evenodd" clip-rule="evenodd" d="M150.15 106.157C150.243 106.078 150.371 106.059 150.528 106.093C150.686 106.127 150.755 106.314 150.642 106.431C150.445 106.638 150.219 106.642 149.968 106.446C149.914 106.407 149.909 106.358 149.953 106.304C149.973 106.279 150.002 106.255 150.032 106.24C150.086 106.206 150.125 106.176 150.15 106.162V106.157Z" fill="#854844"/>
<path fill-rule="evenodd" clip-rule="evenodd" d="M151.891 106.486C151.738 106.52 151.635 106.549 151.581 106.564C151.05 106.726 150.961 106.603 151.32 106.201C151.364 106.152 151.463 106.118 151.625 106.093C151.723 106.078 151.832 106.093 151.95 106.132C152.628 106.363 153.164 106.093 153.808 106.275C153.97 106.324 153.98 106.387 153.828 106.466C153.341 106.726 152.82 106.746 152.259 106.52C152.136 106.471 152.013 106.461 151.886 106.486H151.891Z" fill="#854844"/>
<path fill-rule="evenodd" clip-rule="evenodd" d="M155.018 106.839C155.003 106.907 154.978 106.976 154.944 107.05C154.905 107.138 154.865 107.138 154.831 107.05L154.624 106.485C154.59 106.387 154.624 106.314 154.733 106.279C155.146 106.147 155.48 106.122 155.721 106.201C155.977 106.289 155.977 106.373 155.721 106.456L155.219 106.618C155.101 106.657 155.033 106.731 155.013 106.844L155.018 106.839Z" fill="#854844"/>
<path fill-rule="evenodd" clip-rule="evenodd" d="M161.469 106.324C161.469 106.402 161.41 106.461 161.326 106.461L156.596 106.544C156.518 106.544 156.454 106.486 156.449 106.412V106.373C156.449 106.299 156.508 106.24 156.586 106.235L161.317 106.152C161.395 106.152 161.459 106.206 161.464 106.284V106.324H161.469Z" fill="#854844"/>
<path fill-rule="evenodd" clip-rule="evenodd" d="M90.4609 128.38C95.4665 130.166 99.9362 131.334 105.768 132.86C110.847 134.19 115.789 135.264 120.583 136.084C122.319 136.378 123.548 136.614 124.266 136.79C124.246 137.06 124.153 137.266 123.991 137.409C124.001 137.345 123.991 137.296 123.942 137.242C123.912 137.207 123.863 137.188 123.794 137.178C117.446 136.123 113.05 135.269 110.606 134.631C106.84 133.65 103.083 132.639 99.3363 131.604C97.0892 130.981 94.8666 130.313 92.6539 129.597C91.8623 129.337 91.0067 129.091 90.097 128.866C90.3085 128.768 90.4314 128.606 90.4609 128.385V128.38Z" fill="#C9DDEE"/>
<path fill-rule="evenodd" clip-rule="evenodd" d="M90.1019 128.861C91.0116 129.087 91.8623 129.337 92.6588 129.592C94.8715 130.308 97.099 130.976 99.3412 131.599C103.088 132.634 106.845 133.645 110.611 134.626C113.055 135.264 117.456 136.118 123.799 137.173C123.868 137.183 123.917 137.207 123.947 137.237C123.991 137.286 124.006 137.335 123.996 137.404C123.46 138.989 122.658 140.49 121.596 141.903C121.488 142.051 121.316 142.134 121.129 142.149C120.603 142.173 120.116 142.154 119.688 142.09C115.017 141.359 110.218 140.21 105.281 138.645C101.116 137.32 96.5089 135.902 91.4541 134.381C90.7412 134.16 89.8413 133.861 89.7971 133.027C89.7233 131.623 89.8266 130.235 90.1068 128.861H90.1019ZM93.9225 133.464C94.011 133.405 93.9717 133.213 93.8389 133.037C93.7062 132.86 93.5292 132.757 93.4407 132.811C93.3571 132.87 93.3915 133.061 93.5242 133.238C93.657 133.414 93.839 133.517 93.9225 133.464ZM120.406 141.099C120.278 141.138 120.234 141.29 120.323 141.388C120.48 141.56 120.672 141.599 120.893 141.516C121.021 141.472 121.06 141.319 120.977 141.221C120.839 141.059 120.652 141.025 120.406 141.099Z" fill="#1D5CA0"/>
<path fill-rule="evenodd" clip-rule="evenodd" d="M175.114 111C175.144 111.093 175.139 111.181 175.104 111.26C175.055 111.392 174.957 111.436 174.814 111.392C174.755 111.373 174.701 111.343 174.647 111.304C174.676 111.113 174.76 110.995 174.893 110.936C174.976 110.897 175.055 110.921 175.119 111H175.114Z" fill="#F0D6C6"/>
<path fill-rule="evenodd" clip-rule="evenodd" d="M132.62 111.063C132.704 111.088 132.763 111.137 132.792 111.206C132.832 111.309 132.753 111.422 132.63 111.426C132.453 111.436 132.301 111.397 132.183 111.299C132.075 111.211 132.114 111.044 132.252 111.004C132.32 110.99 132.399 110.99 132.492 111.024C132.522 111.039 132.566 111.049 132.62 111.063Z" fill="#F6731D"/>
<path fill-rule="evenodd" clip-rule="evenodd" d="M134.666 112.992C134.577 112.943 134.607 112.741 134.73 112.54C134.853 112.339 135.025 112.211 135.113 112.261C135.202 112.31 135.172 112.511 135.049 112.712C134.926 112.913 134.754 113.041 134.666 112.992Z" fill="#F6731D"/>
<path fill-rule="evenodd" clip-rule="evenodd" d="M175.67 114.429C175.665 114.478 175.655 114.518 175.64 114.542C175.606 114.606 175.562 114.611 175.517 114.552C175.473 114.493 175.444 114.42 175.429 114.341L175.38 113.924C175.37 113.865 175.404 113.831 175.473 113.821H175.581C175.65 113.811 175.684 113.836 175.694 113.899C175.724 114.086 175.714 114.267 175.68 114.434L175.67 114.429Z" fill="#F0D6C6"/>
<path fill-rule="evenodd" clip-rule="evenodd" d="M136.107 114.881C135.974 114.65 135.787 114.439 135.546 114.238C135.497 114.204 135.502 114.125 135.556 114.096L135.649 114.037C135.703 114.003 135.748 114.013 135.782 114.067C135.964 114.351 136.19 114.606 136.451 114.827C136.461 114.837 136.461 114.842 136.451 114.847L136.372 114.925C136.293 114.994 136.161 114.979 136.107 114.881Z" fill="#F6731D"/>
<path fill-rule="evenodd" clip-rule="evenodd" d="M176.294 116.868C176.722 116.775 176.948 116.849 176.983 117.099C176.343 117.173 176.117 117.099 176.294 116.868Z" fill="#F0D6C6"/>
<path fill-rule="evenodd" clip-rule="evenodd" d="M175.114 117.801L175.271 118.056C175.335 118.169 175.306 118.218 175.168 118.203C175.035 118.184 174.917 118.139 174.799 118.071C174.686 118.002 174.667 117.914 174.745 117.806C174.775 117.766 174.829 117.737 174.903 117.717C174.986 117.698 175.075 117.727 175.119 117.801H175.114Z" fill="#F0D6C6"/>
<path fill-rule="evenodd" clip-rule="evenodd" d="M177.941 119.022C177.823 119.057 177.696 118.963 177.651 118.826C177.612 118.689 177.671 118.551 177.789 118.517C177.907 118.483 178.035 118.576 178.079 118.713C178.118 118.851 178.059 118.988 177.941 119.022Z" fill="#C9DDEE"/>
<path fill-rule="evenodd" clip-rule="evenodd" d="M142.11 119.361L142.282 119.032C142.381 118.841 142.464 118.846 142.533 119.052C142.582 119.204 142.563 119.356 142.455 119.504C142.405 119.577 142.322 119.602 142.219 119.572C142.12 119.543 142.071 119.445 142.115 119.361H142.11Z" fill="#F6731D"/>
<path fill-rule="evenodd" clip-rule="evenodd" d="M136.854 120.235C136.736 120.279 136.598 120.2 136.539 120.063C136.485 119.925 136.534 119.778 136.647 119.739C136.765 119.7 136.908 119.773 136.962 119.911C137.016 120.048 136.967 120.195 136.854 120.24V120.235Z" fill="#F4901A"/>
<path fill-rule="evenodd" clip-rule="evenodd" d="M176.368 120.112C176.456 120.058 176.575 120.102 176.604 120.195C176.673 120.401 176.589 120.529 176.353 120.578C176.26 120.598 176.196 120.568 176.176 120.475C176.137 120.328 176.201 120.21 176.363 120.112H176.368Z" fill="#F0D6C6"/>
<path fill-rule="evenodd" clip-rule="evenodd" d="M135.679 120.568C135.684 120.671 135.531 120.76 135.339 120.765C135.153 120.765 134.995 120.691 134.99 120.588C134.99 120.485 135.138 120.397 135.33 120.392C135.517 120.392 135.674 120.465 135.679 120.573V120.568Z" fill="#F0D6C6"/>
<path fill-rule="evenodd" clip-rule="evenodd" d="M133.933 121.702C134.032 121.574 134.11 121.584 134.169 121.731C134.233 121.883 134.238 122.006 134.194 122.089C134.051 122.34 133.943 122.325 133.874 122.055C133.84 121.918 133.859 121.795 133.933 121.702Z" fill="#F0D6C6"/>
<path fill-rule="evenodd" clip-rule="evenodd" d="M136.515 121.711C136.588 121.814 136.515 121.981 136.347 122.089C136.18 122.197 135.984 122.202 135.915 122.099C135.841 121.996 135.915 121.829 136.077 121.721C136.244 121.613 136.441 121.608 136.51 121.716L136.515 121.711Z" fill="#F6731D"/>
<path fill-rule="evenodd" clip-rule="evenodd" d="M131.74 122.428C131.632 122.413 131.563 122.281 131.588 122.133C131.612 121.981 131.711 121.873 131.819 121.888C131.927 121.903 131.996 122.035 131.976 122.182C131.952 122.335 131.848 122.443 131.745 122.428H131.74Z" fill="#F0D6C6"/>
<path fill-rule="evenodd" clip-rule="evenodd" d="M171.539 122.815C171.613 122.84 171.662 122.899 171.672 122.967C171.682 123.036 171.662 123.095 171.613 123.149C171.569 123.188 171.515 123.213 171.446 123.213C171.313 123.213 171.2 123.169 171.102 123.09C171.018 123.016 171.033 122.894 171.121 122.835C171.22 122.771 171.362 122.761 171.539 122.815Z" fill="#F6731D"/>
<path fill-rule="evenodd" clip-rule="evenodd" d="M134.174 123.817C134.253 123.934 134.277 124.067 134.248 124.219C134.218 124.356 134.14 124.391 134.012 124.312C133.85 124.209 133.82 124.047 133.928 123.826C134.002 123.684 134.081 123.684 134.174 123.812V123.817Z" fill="#F6731D"/>
<path fill-rule="evenodd" clip-rule="evenodd" d="M172.552 123.924C172.621 123.841 172.749 123.836 172.823 123.91C172.995 124.076 173.014 124.238 172.867 124.4C172.793 124.479 172.66 124.474 172.597 124.391C172.459 124.209 172.444 124.052 172.552 123.924Z" fill="#F6731D"/>
<path fill-rule="evenodd" clip-rule="evenodd" d="M135.521 125.372C135.566 125.47 135.472 125.602 135.31 125.661C135.153 125.72 134.99 125.691 134.946 125.593C134.902 125.495 134.995 125.362 135.158 125.303C135.315 125.244 135.477 125.274 135.521 125.372Z" fill="#F6731D"/>
<path fill-rule="evenodd" clip-rule="evenodd" d="M174.893 128.596C174.765 128.547 174.711 128.39 174.77 128.243C174.829 128.09 174.986 128.017 175.114 128.061C175.242 128.11 175.296 128.267 175.237 128.414C175.173 128.566 175.021 128.645 174.893 128.596Z" fill="#F6731D"/>
<path fill-rule="evenodd" clip-rule="evenodd" d="M174.293 130.873C174.185 130.873 174.111 130.833 174.062 130.745C174.003 130.637 174.037 130.573 174.17 130.554C174.352 130.524 174.504 130.569 174.642 130.681C174.775 130.784 174.755 130.848 174.583 130.868C174.499 130.883 174.401 130.868 174.298 130.868L174.293 130.873Z" fill="#F6731D"/>
<path fill-rule="evenodd" clip-rule="evenodd" d="M184.506 143.611C184.348 143.552 184.285 143.356 184.363 143.184C184.442 143.012 184.634 142.924 184.791 142.983C184.948 143.047 185.012 143.238 184.934 143.41C184.855 143.587 184.663 143.675 184.506 143.611Z" fill="#52B3CA"/>
<path fill-rule="evenodd" clip-rule="evenodd" d="M185.588 144.799C185.548 144.867 185.356 144.852 185.16 144.754C184.963 144.661 184.835 144.529 184.875 144.455C184.914 144.381 185.106 144.401 185.302 144.494C185.499 144.588 185.632 144.725 185.592 144.799H185.588Z" fill="#2D78AB"/>
<path fill-rule="evenodd" clip-rule="evenodd" d="M187.894 145.324C187.879 145.441 187.682 145.52 187.441 145.495C187.205 145.476 187.023 145.358 187.038 145.24C187.053 145.127 187.25 145.049 187.49 145.068C187.727 145.088 187.908 145.206 187.899 145.324H187.894Z" fill="#52B3CA"/>
<path fill-rule="evenodd" clip-rule="evenodd" d="M185.932 145.348C186.074 145.594 186.094 145.829 186.01 146.055C185.961 146.187 185.868 146.236 185.725 146.212L185.524 146.178C185.381 146.158 185.307 146.075 185.312 145.937C185.327 145.677 185.455 145.461 185.686 145.294C185.789 145.221 185.873 145.24 185.932 145.348Z" fill="#52B3CA"/>
<path fill-rule="evenodd" clip-rule="evenodd" d="M187.589 147.851C187.25 148.017 186.979 147.978 186.773 147.733C186.684 147.625 186.679 147.512 186.773 147.399C186.92 147.213 187.166 147.203 187.495 147.37C187.638 147.438 187.751 147.536 187.849 147.654C188.046 147.89 187.958 147.958 187.594 147.851H187.589Z" fill="#C9DDEE"/>
<path fill-rule="evenodd" clip-rule="evenodd" d="M180.847 148.499C180.995 148.611 181.024 148.764 180.921 148.945C180.882 149.019 180.774 149.029 180.72 148.97C180.577 148.813 180.538 148.675 180.602 148.548C180.661 148.435 180.744 148.415 180.847 148.499Z" fill="#C9DDEE"/>
<path fill-rule="evenodd" clip-rule="evenodd" d="M188.194 149.102C188.263 149.063 188.346 149.068 188.41 149.122C188.518 149.205 188.558 149.298 188.523 149.401C188.494 149.49 188.43 149.544 188.322 149.573C188.213 149.607 188.12 149.602 188.041 149.563C187.899 149.499 187.874 149.406 187.972 149.288C188.036 149.21 188.11 149.146 188.194 149.097V149.102Z" fill="#FDFCF8"/>
<path fill-rule="evenodd" clip-rule="evenodd" d="M185.784 150.034C185.715 149.951 185.765 149.799 185.897 149.705C186.03 149.607 186.197 149.598 186.266 149.681C186.335 149.764 186.291 149.916 186.153 150.01C186.02 150.108 185.853 150.118 185.784 150.034Z" fill="#52B3CA"/>
<path fill-rule="evenodd" clip-rule="evenodd" d="M178.158 150.363C178.069 150.422 177.917 150.363 177.819 150.231C177.72 150.098 177.715 149.941 177.804 149.882C177.897 149.823 178.045 149.882 178.148 150.015C178.246 150.142 178.251 150.299 178.163 150.358L178.158 150.363Z" fill="#C9DDEE"/>
<path fill-rule="evenodd" clip-rule="evenodd" d="M186.896 150.878C186.792 150.844 186.719 150.79 186.674 150.711C186.61 150.594 186.65 150.54 186.787 150.549C187.082 150.569 187.309 150.682 187.481 150.908C187.618 151.084 187.574 151.163 187.338 151.153C187.136 151.143 186.989 151.05 186.896 150.878Z" fill="#52B3CA"/>
<path fill-rule="evenodd" clip-rule="evenodd" d="M189.143 151.472C188.98 151.531 188.794 151.418 188.725 151.231C188.651 151.045 188.72 150.849 188.877 150.79C189.034 150.736 189.221 150.844 189.295 151.03C189.369 151.217 189.305 151.413 189.148 151.467L189.143 151.472Z" fill="#C9DDEE"/>
<path fill-rule="evenodd" clip-rule="evenodd" d="M184.988 151.766C184.855 151.781 184.732 151.663 184.717 151.501C184.698 151.344 184.791 151.202 184.924 151.192C185.057 151.177 185.179 151.295 185.199 151.452C185.219 151.609 185.125 151.747 184.988 151.761V151.766Z" fill="#C9DDEE"/>
<path fill-rule="evenodd" clip-rule="evenodd" d="M189.743 153.557C189.62 153.69 189.354 153.67 189.162 153.513C188.966 153.351 188.907 153.116 189.034 152.978C189.157 152.846 189.423 152.866 189.615 153.018C189.811 153.18 189.87 153.42 189.743 153.552V153.557Z" fill="#C9DDEE"/>
<path fill-rule="evenodd" clip-rule="evenodd" d="M182.967 153.474C182.967 153.596 182.863 153.695 182.731 153.695C182.598 153.695 182.495 153.596 182.495 153.474C182.495 153.351 182.598 153.253 182.731 153.253C182.863 153.253 182.967 153.351 182.967 153.474Z" fill="#C9DDEE"/>
<path fill-rule="evenodd" clip-rule="evenodd" d="M179.303 154.357C179.279 154.489 179.112 154.573 178.925 154.543C178.738 154.514 178.61 154.382 178.635 154.254C178.659 154.121 178.827 154.033 179.013 154.068C179.2 154.097 179.333 154.229 179.308 154.362L179.303 154.357Z" fill="#C9DDEE"/>
<path fill-rule="evenodd" clip-rule="evenodd" d="M191.901 155.805C191.965 155.928 191.877 156.099 191.704 156.178C191.527 156.261 191.331 156.222 191.267 156.099C191.203 155.972 191.287 155.805 191.464 155.726C191.641 155.643 191.837 155.682 191.901 155.805Z" fill="#C9DDEE"/>
<path fill-rule="evenodd" clip-rule="evenodd" d="M180.71 158.008C180.607 158.042 180.479 157.949 180.43 157.802C180.375 157.654 180.42 157.507 180.523 157.478C180.621 157.443 180.754 157.537 180.803 157.684C180.857 157.836 180.813 157.978 180.715 158.008H180.71Z" fill="#52B3CA"/>
<path fill-rule="evenodd" clip-rule="evenodd" d="M181.634 160.486C181.634 160.628 181.511 160.746 181.359 160.746C181.206 160.746 181.083 160.628 181.083 160.486C181.083 160.344 181.206 160.231 181.359 160.231C181.511 160.231 181.634 160.349 181.634 160.486Z" fill="#52B3CA"/>
<path fill-rule="evenodd" clip-rule="evenodd" d="M125.972 160.775C125.904 160.908 125.697 160.947 125.505 160.864C125.313 160.775 125.215 160.604 125.284 160.461C125.353 160.329 125.559 160.289 125.751 160.373C125.943 160.456 126.041 160.633 125.972 160.77V160.775Z" fill="#52B3CA"/>
<path fill-rule="evenodd" clip-rule="evenodd" d="M124.394 161.335C124.507 161.32 124.62 161.374 124.679 161.467C124.723 161.536 124.738 161.615 124.728 161.693C124.714 161.762 124.674 161.826 124.605 161.88C124.458 161.983 124.315 161.997 124.173 161.929C124.04 161.86 123.986 161.757 124.02 161.62C124.06 161.453 124.183 161.359 124.394 161.34V161.335Z" fill="#52B3CA"/>
<path fill-rule="evenodd" clip-rule="evenodd" d="M122.466 163.376C122.486 163.46 122.466 163.533 122.417 163.597C122.383 163.641 122.324 163.666 122.255 163.666C122.196 163.666 122.147 163.641 122.103 163.602C122.024 163.533 121.975 163.455 121.955 163.371C121.926 163.244 122.019 163.126 122.162 163.121C122.319 163.121 122.417 163.205 122.466 163.381V163.376Z" fill="#52B3CA"/>
<path fill-rule="evenodd" clip-rule="evenodd" d="M189.949 164.181C190.234 164.048 190.382 164.107 190.406 164.357C190.416 164.475 190.318 164.568 190.195 164.568C190.003 164.568 189.885 164.514 189.846 164.416C189.816 164.328 189.856 164.225 189.944 164.181H189.949Z" fill="#52B3CA"/>
<path fill-rule="evenodd" clip-rule="evenodd" d="M115.646 169.014C115.587 169.137 115.415 169.181 115.263 169.112C115.115 169.048 115.042 168.896 115.101 168.774C115.16 168.656 115.332 168.612 115.484 168.67C115.632 168.734 115.705 168.886 115.646 169.009V169.014Z" fill="#52B3CA"/>
<path fill-rule="evenodd" clip-rule="evenodd" d="M187.55 169.068C187.461 169.156 187.284 169.142 187.151 169.034C187.014 168.921 186.979 168.759 187.063 168.666C187.151 168.577 187.328 168.587 187.461 168.7C187.599 168.813 187.633 168.975 187.55 169.068Z" fill="#52B3CA"/>
<path fill-rule="evenodd" clip-rule="evenodd" d="M119.01 169.794C118.921 169.946 118.666 169.981 118.434 169.863C118.203 169.75 118.09 169.534 118.174 169.377C118.262 169.225 118.518 169.191 118.744 169.308C118.975 169.421 119.088 169.637 119.005 169.794H119.01Z" fill="#C9DDEE"/>
<path fill-rule="evenodd" clip-rule="evenodd" d="M114.289 171.301C114.363 171.203 114.456 171.188 114.57 171.242C114.692 171.306 114.742 171.404 114.702 171.531C114.663 171.693 114.56 171.733 114.402 171.654C114.216 171.561 114.176 171.443 114.284 171.306L114.289 171.301Z" fill="#52B3CA"/>
<path fill-rule="evenodd" clip-rule="evenodd" d="M117.343 171.443C117.343 171.585 117.22 171.703 117.067 171.703C116.915 171.703 116.792 171.585 116.792 171.443C116.792 171.301 116.915 171.188 117.067 171.188C117.22 171.188 117.343 171.301 117.343 171.443Z" fill="#52B3CA"/>
<path fill-rule="evenodd" clip-rule="evenodd" d="M191.749 171.443C191.759 171.551 191.645 171.644 191.503 171.654C191.36 171.669 191.232 171.59 191.223 171.482C191.213 171.374 191.326 171.281 191.468 171.266C191.611 171.257 191.739 171.335 191.749 171.443Z" fill="#C9DDEE"/>
<path fill-rule="evenodd" clip-rule="evenodd" d="M112.013 173.293C112.086 173.2 112.209 173.18 112.377 173.224C112.583 173.273 112.622 173.528 112.445 173.631C112.293 173.72 112.15 173.685 112.008 173.519C111.949 173.45 111.949 173.362 112.008 173.293H112.013Z" fill="#52B3CA"/>
<path fill-rule="evenodd" clip-rule="evenodd" d="M192.25 173.646C192.25 173.754 192.122 173.833 191.975 173.833C191.823 173.833 191.704 173.739 191.709 173.636C191.709 173.528 191.837 173.45 191.985 173.455C192.137 173.455 192.255 173.548 192.25 173.651V173.646Z" fill="#52B3CA"/>
<path fill-rule="evenodd" clip-rule="evenodd" d="M114.093 175.015C113.955 175.025 113.832 174.878 113.822 174.686C113.812 174.495 113.916 174.333 114.048 174.328C114.186 174.318 114.309 174.465 114.324 174.657C114.334 174.848 114.23 175.005 114.093 175.015Z" fill="#C9DDEE"/>
<path fill-rule="evenodd" clip-rule="evenodd" d="M115.858 174.78C115.858 174.937 115.725 175.059 115.563 175.059C115.401 175.059 115.268 174.937 115.268 174.78C115.268 174.623 115.401 174.505 115.563 174.505C115.725 174.505 115.858 174.628 115.858 174.78Z" fill="#52B3CA"/>
<path fill-rule="evenodd" clip-rule="evenodd" d="M106.215 175.997C106.284 176.055 106.328 176.119 106.358 176.198C106.407 176.335 106.358 176.428 106.201 176.458C106.122 176.477 106.043 176.468 105.965 176.438C105.822 176.384 105.783 176.291 105.832 176.163C105.856 176.109 105.891 176.055 105.925 176.011C106.019 175.918 106.112 175.908 106.21 175.997H106.215Z" fill="#C9DDEE"/>
<path fill-rule="evenodd" clip-rule="evenodd" d="M108.305 176.247C108.408 176.129 108.605 176.168 108.664 176.31C108.703 176.413 108.694 176.521 108.635 176.634C108.58 176.737 108.438 176.767 108.34 176.693C108.167 176.556 108.158 176.404 108.305 176.247Z" fill="#C9DDEE"/>
<path fill-rule="evenodd" clip-rule="evenodd" d="M110.257 177.262C110.1 177.228 110.041 176.953 110.12 176.649C110.193 176.345 110.385 176.124 110.538 176.158C110.695 176.193 110.754 176.467 110.675 176.772C110.601 177.076 110.415 177.297 110.257 177.262Z" fill="#52B3CA"/>
<path fill-rule="evenodd" clip-rule="evenodd" d="M112.839 176.944C112.696 176.811 112.721 176.571 112.893 176.414C113.06 176.252 113.316 176.232 113.458 176.365C113.601 176.497 113.576 176.738 113.404 176.895C113.237 177.052 112.981 177.076 112.839 176.944Z" fill="#C9DDEE"/>
<path fill-rule="evenodd" clip-rule="evenodd" d="M111.649 177.635C111.767 177.572 111.855 177.591 111.924 177.699C111.983 177.792 111.949 177.93 111.811 178.126C111.727 178.244 111.541 178.259 111.442 178.146C111.285 177.974 111.354 177.802 111.644 177.635H111.649Z" fill="#52B3CA"/>
<path fill-rule="evenodd" clip-rule="evenodd" d="M111.3 178.465C111.29 178.607 111.142 178.71 110.955 178.705C110.774 178.695 110.636 178.573 110.646 178.435C110.656 178.298 110.808 178.19 110.985 178.2C111.167 178.21 111.305 178.332 111.3 178.47V178.465Z" fill="#C9DDEE"/>
<path fill-rule="evenodd" clip-rule="evenodd" d="M113.699 178.553L113.507 178.872C113.439 178.985 113.34 179.049 113.203 179.058C112.962 179.083 112.76 178.985 112.588 178.769C112.504 178.661 112.514 178.568 112.632 178.484C112.898 178.293 113.217 178.239 113.586 178.317C113.699 178.342 113.753 178.46 113.699 178.553Z" fill="#C9DDEE"/>
<path fill-rule="evenodd" clip-rule="evenodd" d="M108.654 178.99C108.517 178.936 108.507 178.759 108.644 178.69C108.856 178.597 109.038 178.583 109.185 178.646C109.564 178.818 109.549 178.955 109.146 179.063C109.028 179.093 108.866 179.063 108.654 178.99Z" fill="#C9DDEE"/>
<path fill-rule="evenodd" clip-rule="evenodd" d="M195.55 180.231C195.422 180.31 195.24 180.251 195.137 180.109C195.038 179.966 195.053 179.785 195.176 179.706C195.304 179.628 195.486 179.687 195.589 179.829C195.692 179.971 195.673 180.153 195.55 180.231Z" fill="#C9DDEE"/>
<path fill-rule="evenodd" clip-rule="evenodd" d="M198.348 182.326C198.47 182.43 198.485 182.582 198.402 182.778C198.348 182.886 198.19 182.901 198.116 182.802C197.998 182.641 197.969 182.498 198.048 182.376C198.126 182.238 198.225 182.223 198.348 182.326Z" fill="#52B3CA"/>
<path fill-rule="evenodd" clip-rule="evenodd" d="M105.625 188.612C105.615 188.72 105.468 188.799 105.301 188.784C105.134 188.769 105.006 188.661 105.016 188.558C105.025 188.445 105.173 188.367 105.34 188.382C105.507 188.396 105.635 188.499 105.625 188.612Z" fill="#F6731D"/>
<path fill-rule="evenodd" clip-rule="evenodd" d="M119.024 190.305C118.936 190.364 118.769 190.28 118.651 190.118C118.533 189.961 118.503 189.78 118.592 189.721C118.675 189.667 118.847 189.75 118.965 189.912C119.083 190.069 119.113 190.251 119.029 190.305H119.024Z" fill="#F6731D"/>
<path fill-rule="evenodd" clip-rule="evenodd" d="M115.11 190.536C115.091 190.678 114.904 190.771 114.692 190.747C114.481 190.717 114.334 190.58 114.348 190.442C114.368 190.3 114.555 190.207 114.766 190.231C114.973 190.261 115.125 190.398 115.106 190.541L115.11 190.536Z" fill="#F6731D"/>
<path fill-rule="evenodd" clip-rule="evenodd" d="M121.503 191.198C121.503 191.335 121.385 191.443 121.237 191.443C121.09 191.443 120.977 191.33 120.977 191.198C120.977 191.065 121.095 190.953 121.237 190.953C121.38 190.953 121.503 191.065 121.503 191.198Z" fill="#F0D6C6"/>
<path fill-rule="evenodd" clip-rule="evenodd" d="M121.871 192.95C121.803 192.896 121.876 192.719 122.029 192.557C122.181 192.4 122.363 192.317 122.427 192.371C122.496 192.43 122.427 192.602 122.27 192.763C122.117 192.92 121.94 193.004 121.871 192.945V192.95Z" fill="#F6731D"/>
<path fill-rule="evenodd" clip-rule="evenodd" d="M118.489 191.777C118.459 191.865 118.287 191.9 118.105 191.846C117.918 191.792 117.795 191.679 117.82 191.591C117.849 191.502 118.021 191.468 118.203 191.522C118.39 191.576 118.508 191.689 118.484 191.777H118.489Z" fill="#F0D6C6"/>
<path fill-rule="evenodd" clip-rule="evenodd" d="M197.32 185.29C197.826 185.114 198.352 184.961 198.888 184.824C199.459 184.682 199.98 184.515 200.442 184.343C201.617 183.902 202.812 183.519 204.032 183.185C204.125 183.161 204.194 183.097 204.238 182.994C204.425 183.146 204.587 183.234 204.71 183.244C207.085 183.504 213.035 183.553 215.395 182.901C215.818 182.788 216.29 182.709 216.811 182.67C218.232 182.562 219.575 183.519 218.552 184.927C218.09 185.565 217.514 186.173 216.831 186.762C214.761 188.539 215.4 188.426 213.546 189.314C212.224 189.942 211.835 190.182 210.262 190.398C209.028 190.565 207.562 190.702 205.866 190.806C205.413 190.653 205.123 190.756 205.015 191.12C204.966 191.286 205.02 191.448 205.182 191.605L205.522 192.763C205.6 193.019 205.448 193.284 205.177 193.367L201.401 194.535C201.008 194.653 200.585 194.491 200.393 194.152C199.419 192.381 196.617 186.973 197.325 185.285L197.32 185.29Z" fill="#FC4A28"/>
<path fill-rule="evenodd" clip-rule="evenodd" d="M54.1627 42.4359C54.5659 44.114 55.1264 45.7529 55.8345 47.3477C55.4362 47.1318 55.3182 47.3967 55.4657 48.1524C55.9427 50.5666 56.3901 52.9808 56.7983 55.4048C57.6883 60.6502 58.6274 65.8859 59.6207 71.1166C60.732 77 61.4154 84.4045 61.6662 93.3203C61.5334 96.0976 61.622 98.7964 61.9317 101.417C61.9612 101.691 61.7596 101.947 61.4695 101.996L55.446 103.041C53.7005 102.962 51.6254 103.198 50.2536 103.227C41.2405 103.438 32.2274 103.365 23.2192 103.011C23.0127 103.002 22.7816 103.056 22.5259 103.164C22.4374 103.021 22.2456 102.957 21.9555 102.972C20.7066 103.031 19.6002 102.997 18.6315 102.874C18.2283 102.825 18.0316 102.604 18.0562 102.221L18.4152 95.1506L19.2265 91.9562C19.2708 91.7943 19.4379 91.6912 19.61 91.7207C22.0489 92.1623 24.4632 92.5156 26.8431 92.7904C30.1819 93.1829 32.3356 93.6344 34.8531 95.1653C35.0203 95.2634 35.2317 95.2634 35.394 95.1653C37.5231 93.8503 39.7703 92.7266 42.1354 91.7943C42.2927 91.7354 42.3911 91.5882 42.3862 91.4312C42.2337 84.9639 42.1108 78.5015 42.0174 72.0539C41.8649 61.6414 40.2816 51.6118 35.8759 42.2298C35.1629 40.7185 34.3909 39.4721 33.5452 38.5055C30.9342 35.5024 27.9544 35.0019 24.6058 37.004C22.7078 35.7134 21.8473 34.1334 22.0194 32.259C22.1079 31.2187 23.3815 30.8213 24.4927 30.4189C24.6255 30.3698 24.6993 30.2815 24.714 30.149C24.8812 28.9419 24.2125 27.2392 26.022 26.8222C26.8382 26.6308 27.6397 26.5032 28.4264 26.4296C28.6428 26.41 28.8149 26.2481 28.8247 26.042C28.8788 25.2667 29.0509 24.5306 29.3607 23.824C29.4099 23.7014 29.4935 23.6081 29.6164 23.5394C31.0473 22.7396 33.1666 23.4462 34.5827 23.9909C34.681 24.0252 34.7646 24.0449 34.8335 24.0301C34.9761 24.0105 35.0449 23.9565 35.0547 23.8584C35.3694 24.1528 35.5514 24.3344 35.9988 24.4472C39.4998 25.3206 43.8318 26.9007 46.4625 29.0155C47.1804 29.5945 47.9819 30.5367 48.7588 30.2668C48.8473 30.4483 49.0095 30.5367 49.2308 30.5318C50.5093 30.4876 51.4927 30.8556 52.0581 31.9695C52.8105 33.4563 52.722 34.6879 52.3384 36.2238C52.1614 36.9353 52.6433 37.8087 52.9334 38.4711C53.1301 38.9225 53.3071 39.4917 53.4644 40.1591C53.6464 40.9393 53.9955 41.6949 54.1676 42.431L54.1627 42.4359Z" fill="#FAAB01"/>
<path fill-rule="evenodd" clip-rule="evenodd" d="M55.4411 103.041L57.0048 106.304C57.2211 107.305 57.6342 108.232 58.2537 109.091C61.9662 116.917 65.4327 124.891 68.4174 133.007C68.9681 134.504 69.5139 136.236 70.0548 138.213C72.0807 145.598 74.6523 153.729 77.7649 162.6C79.599 167.821 81.9543 172.787 84.8406 177.493C85.9716 179.343 87.3877 181.094 89.0841 182.738C92.5851 186.144 101.318 188.283 104.44 186.512C105.168 186.095 105.876 185.893 106.574 185.898C107.135 185.898 107.518 186.428 107.312 186.919C106.717 188.337 105.827 189.569 104.632 190.614C101.957 192.959 103.27 191.944 100.118 193.607C98.9577 193.916 97.8956 194.456 96.9417 195.202C93.5439 196.87 89.9741 198.234 86.2371 199.304C85.2832 199.579 84.2506 199.961 83.1393 200.467C83.0115 200.526 82.859 200.491 82.7754 200.378C81.2659 198.445 79.8989 196.026 78.704 194.318C75.0113 189.068 71.1514 183.499 67.1242 177.615C64.8378 174.274 62.7086 170.903 60.7516 167.507C57.231 161.403 54.0594 155.225 50.3273 149.185C48.6211 146.422 46.8706 143.67 45.0906 140.922C45.0414 140.848 44.9382 140.819 44.8546 140.858C44.7562 140.902 44.6923 140.995 44.6579 141.128C42.9516 147.183 40.198 152.806 36.402 157.988C36.1021 158.199 35.7628 158.238 35.3891 158.12C35.2662 158.086 35.1826 158.12 35.1285 158.228L35.0793 158.326C35.0646 158.366 35.0793 158.395 35.1137 158.415L35.5415 158.621C35.6399 158.665 35.6792 158.744 35.6546 158.842C35.6251 158.999 35.6251 159.136 35.6645 159.249C30.5654 166.246 25.8695 173.454 21.5671 180.888C20.2935 183.087 19.1724 185.329 18.2037 187.606C18.13 187.768 18.1595 187.954 18.2775 188.092C22.8062 193.455 28.0478 194.068 29.1198 195.398C29.3017 195.624 29.223 196.885 28.9575 197.012C27.8659 197.532 26.7055 197.959 25.4909 198.293C24.1682 198.656 23.4749 198.798 22.0539 198.548C13.9947 197.13 14.3045 197.807 6.30922 195.997C6.15187 195.957 6.05353 195.82 6.0732 195.678C6.54032 192.238 7.23855 188.695 8.16789 185.049C8.54651 183.563 9.26441 181.359 10.3167 178.435C11.0592 176.379 11.7967 174.19 12.5294 171.86C16.1533 160.338 19.0987 149.558 21.3605 139.533C23.4651 130.235 25.1467 123.046 26.4055 117.962C26.435 117.83 26.4301 117.702 26.3711 117.58C24.5911 113.541 23.352 109.366 22.6636 105.047C22.5652 104.434 22.5161 103.806 22.5161 103.158C22.7718 103.05 23.0029 102.996 23.2094 103.001C32.2176 103.355 41.2306 103.423 50.2437 103.217C51.6156 103.183 53.6906 102.947 55.4362 103.031L55.4411 103.041Z" fill="#1B3E6F"/>
<path fill-rule="evenodd" clip-rule="evenodd" d="M35.8611 42.2346C40.2669 51.6166 41.8551 61.6463 42.0026 72.0587C42.0961 78.5063 42.219 84.9736 42.3714 91.436C42.3714 91.593 42.2731 91.7402 42.1206 91.7991C39.7506 92.7265 37.5084 93.8551 35.3793 95.1701C35.217 95.2732 35.0056 95.2732 34.8384 95.1701C32.3208 93.6392 30.1671 93.1877 26.8284 92.7952C24.4485 92.5204 22.0342 92.1622 19.5953 91.7255C19.4232 91.696 19.256 91.7942 19.2118 91.961L18.4004 95.1554L16.7581 99.076L3.86541 96.3134C7.47458 86.5684 10.7641 76.7055 13.7242 66.7396C15.7255 59.9828 17.7022 53.2211 19.6543 46.4545C20.1804 44.6194 20.8541 42.8332 21.6703 41.0913C22.339 39.6634 23.3176 38.2993 24.596 37.0088C27.9397 35.0068 30.9194 35.5024 33.5353 38.5103C34.3811 39.4769 35.1531 40.7233 35.8661 42.2346H35.8611Z" fill="#1B3E6F"/>
<path fill-rule="evenodd" clip-rule="evenodd" d="M57.4178 10.5657L51.6648 9.34385C51.1288 9.231 50.5879 9.50087 50.3962 9.98175C49.7963 11.4636 49.2996 12.9308 48.9259 14.393C48.8128 14.8298 48.6653 15.1487 48.4785 15.3499C48.154 15.7032 47.5787 15.7228 47.2295 15.3891C46.5952 14.7709 45.9609 14.187 45.3364 13.6521C44.1367 12.6315 40.0309 12.2929 40.7488 14.9622C41.093 16.2429 41.4912 17.5433 41.9338 18.8681C42.0862 19.3294 42.0567 19.7366 41.8354 20.0899C40.3603 22.46 37.5231 21.9595 34.9859 21.9595C34.799 21.2725 34.7204 20.5119 34.74 19.6729C34.7695 18.5737 34.7745 17.8181 34.74 17.3961C34.5483 14.4814 34.5532 11.5667 34.7548 8.65198C34.8826 6.83153 35.5907 5.43797 36.879 4.4615C37.3117 4.13764 38.6885 3.49975 41.0192 2.55763C43.4581 1.56643 45.6757 0.746984 47.6721 0.0992746C48.1687 -0.0626527 48.7784 -0.0135838 49.5013 0.251388C53.9906 1.88538 58.3422 3.23968 63.2151 3.94628C63.8888 4.04441 64.5526 4.23578 65.2016 4.5302C65.5163 4.6725 65.595 4.8884 65.4229 5.17791C63.8593 7.86197 61.5384 9.33895 58.4701 9.61373C58.1701 9.64317 57.821 9.96212 57.4227 10.5755L57.4178 10.5657Z" fill="#1B3E6F"/>
<path fill-rule="evenodd" clip-rule="evenodd" d="M57.4178 10.5654C57.3883 12.7785 57.285 15.1043 57.113 17.543C56.9753 19.4322 56.7491 20.8945 56.4393 21.9396C55.5788 24.7856 53.2235 25.188 50.7453 26.1497C48.7588 26.925 48.7145 28.5099 48.7538 30.2715C47.9769 30.5463 47.1754 29.5993 46.4575 29.0203C43.8269 26.9054 39.4949 25.3254 35.9939 24.4519C35.5464 24.3391 35.3596 24.1526 35.0498 23.8631C35.2121 23.1418 35.1875 22.5039 34.981 21.9543C37.5182 21.9543 40.3603 22.4548 41.8305 20.0848C42.0518 19.7364 42.0813 19.3242 41.9289 18.863C41.4863 17.5381 41.088 16.2378 40.7438 14.9571C40.0259 12.2878 44.1268 12.6263 45.3315 13.647C45.9609 14.1818 46.5903 14.7608 47.2246 15.384C47.5737 15.7177 48.1539 15.703 48.4736 15.3448C48.6604 15.1436 48.8079 14.8197 48.921 14.3879C49.2996 12.9257 49.7914 11.4585 50.3912 9.97662C50.5879 9.50065 51.1239 9.22587 51.6599 9.33873L57.4178 10.5605V10.5654Z" fill="#FA8517"/>
<path fill-rule="evenodd" clip-rule="evenodd" d="M55.8345 47.3475L76.3586 94.8511C76.4815 95.6853 76.8159 96.49 77.3666 97.2702L78.3156 99.6206C78.4238 99.8806 78.2713 100.175 77.9861 100.258L75.9111 100.896L69.0763 102.624L67.67 103.036C67.3455 103.134 66.9865 102.992 66.8341 102.707C65.6442 100.474 64.5034 98.3252 63.4118 96.2397C63.1954 95.8276 62.9742 95.3761 62.7529 94.8903C62.4972 94.3261 62.1333 93.801 61.6613 93.3201C61.4105 84.4043 60.732 77.0047 59.6158 71.1165C58.6274 65.8857 57.6883 60.6452 56.7933 55.4046C56.3852 52.9806 55.9378 50.5615 55.4608 48.1522C55.3133 47.3966 55.4362 47.1316 55.8296 47.3475H55.8345Z" fill="#1B3E6F"/>
<path fill-rule="evenodd" clip-rule="evenodd" d="M18.1841 80.4249C18.1201 80.366 18.0808 80.2924 18.0661 80.2041C18.0415 80.0863 18.0857 80.0618 18.1841 80.1354C18.4152 80.3121 18.543 80.5525 18.5578 80.8469C18.5578 80.9696 18.5037 81.0187 18.3758 80.9794C18.3365 80.9696 18.3021 80.95 18.2726 80.9254C18.2185 80.8813 18.189 80.8126 18.1988 80.7488C18.2087 80.6359 18.2037 80.528 18.1841 80.42V80.4249Z" fill="#2D78AB"/>
<path fill-rule="evenodd" clip-rule="evenodd" d="M15.2436 81.8035C15.2436 81.7152 15.2781 81.6563 15.3321 81.6367C15.4305 81.5925 15.4846 81.622 15.4895 81.7201L15.519 82.0293C15.5288 82.1225 15.4846 82.1765 15.3862 82.1961C15.342 82.2059 15.2879 82.201 15.2436 82.1863C15.0961 82.1421 15.0568 82.0587 15.1207 81.9311C15.1453 81.8821 15.1846 81.8379 15.2387 81.7986L15.2436 81.8035Z" fill="#2D78AB"/>
<path fill-rule="evenodd" clip-rule="evenodd" d="M17.2449 82.1225C17.2892 82.0636 17.3334 82.0195 17.3727 81.9949C17.6039 81.833 17.6776 81.8772 17.6088 82.1421C17.5203 82.4709 17.2793 82.6132 16.886 82.5838C16.6253 82.5641 16.5958 82.4758 16.7925 82.3188C16.8319 82.2893 16.8909 82.2697 16.9745 82.2648C17.0876 82.2648 17.181 82.2157 17.2449 82.1225Z" fill="#2D78AB"/>
<path fill-rule="evenodd" clip-rule="evenodd" d="M15.6026 84.4535C15.6124 84.6547 15.5534 84.8117 15.4256 84.9295C15.3174 85.0325 15.2584 85.0129 15.2289 84.8755C15.1895 84.6792 15.2633 84.5124 15.4403 84.3848C15.5436 84.3112 15.5977 84.3308 15.6026 84.4535Z" fill="#2D78AB"/>
<path fill-rule="evenodd" clip-rule="evenodd" d="M15.0224 85.6604C14.8994 85.5622 14.9093 85.469 15.0469 85.3954C15.1699 85.3267 15.3174 85.3758 15.4895 85.5377C15.5977 85.6408 15.5337 85.8125 15.3813 85.8321C15.2928 85.8419 15.1748 85.7831 15.0224 85.6604Z" fill="#2D78AB"/>
<path fill-rule="evenodd" clip-rule="evenodd" d="M3.8654 96.3184L16.7581 99.081C16.2172 100.416 15.873 101.422 15.7403 102.089C15.4256 103.708 14.2455 104.631 12.195 104.881C11.5312 104.861 10.6953 104.685 9.67745 104.366C7.74993 103.762 5.89618 103.168 4.11618 102.589L3.22126 101.898C3.13275 101.834 3.06391 101.74 3.02458 101.647C2.84264 101.225 2.77872 100.813 2.82297 100.396C2.96557 99.1104 3.31469 97.7512 3.86049 96.3135L3.8654 96.3184Z" fill="#FAAB01"/>
<path fill-rule="evenodd" clip-rule="evenodd" d="M75.9062 100.897L79.2744 107.251C79.4023 107.486 79.1958 107.761 78.9155 107.732C77.755 105.867 77.701 106.373 78.4484 108.35C78.8073 109.106 79.0581 109.856 79.2007 110.622C79.24 110.823 79.0925 111.01 78.8761 111.034C78.6844 111.054 78.5319 110.97 78.4188 110.784C78.3648 110.686 78.3008 110.597 78.232 110.504C77.2879 109.238 76.3881 107.918 75.5423 106.549C75.2866 106.132 75.1342 106.167 75.085 106.642C75.0752 106.77 75.1096 106.996 75.2031 107.334C75.6554 108.924 76.0291 110.529 76.3389 112.148C76.3881 112.413 76.3733 112.565 76.2897 112.604C76.0685 112.712 75.7931 112.629 75.6849 112.418C74.7507 110.651 73.6591 108.875 73.0641 107.084C73.0002 106.898 72.9215 106.775 72.8232 106.716C72.7002 106.647 72.5429 106.721 72.5232 106.853C72.3659 107.997 72.415 109.13 71.9971 110.259C71.8397 110.686 71.2399 110.774 70.9497 110.411C70.7432 110.156 70.635 109.812 70.6203 109.381C70.5613 107.521 70.3744 106.216 70.0647 105.465C69.7057 104.582 69.3763 103.635 69.0714 102.619L75.9062 100.892V100.897Z" fill="#FA8517"/>
<path fill-rule="evenodd" clip-rule="evenodd" d="M4.1211 102.584C5.90601 103.168 7.75977 103.757 9.68237 104.361C10.6953 104.68 11.5361 104.856 12.1999 104.876C11.8607 107.114 12.0672 109.41 12.8244 111.755C12.8932 111.966 12.7113 112.168 12.4802 112.148C12.3327 112.133 12.1163 112.016 12.0229 111.883C11.482 111.147 11.0149 110.386 10.6166 109.611C10.5527 109.488 10.3708 109.493 10.3068 109.611C9.75612 110.72 9.35784 111.888 9.289 113.11C9.25949 113.63 9.21032 114.013 9.15132 114.248C8.80712 115.475 8.33507 115.519 7.73518 114.386C7.67126 114.263 7.60242 113.934 7.54342 113.404C7.40082 112.246 7.34673 111.172 7.37624 110.171C7.39099 109.675 7.29264 109.655 7.07137 110.107C6.44198 111.387 6.05353 112.86 5.91093 114.503C5.88635 114.803 5.50773 114.955 5.26187 114.763L5.08485 114.626C4.81441 114.425 4.64231 114.13 4.60789 113.802C4.39646 111.996 4.44563 110.166 4.76032 108.316C4.77999 108.223 4.70132 108.139 4.59806 108.134H4.46038C4.40137 108.134 4.36204 108.159 4.34729 108.213L2.70988 113.394C2.67546 113.502 2.58204 113.586 2.46403 113.615C2.23784 113.664 2.09033 113.581 2.02149 113.36C1.43143 111.427 2.03624 109.503 2.4837 107.594C2.50336 107.506 2.46894 107.437 2.37552 107.413C2.33126 107.398 2.28701 107.393 2.24276 107.403C2.20342 107.408 2.17392 107.432 2.14441 107.467C1.53961 108.38 1.06265 109.346 0.718448 110.367C0.669276 110.504 0.575851 110.563 0.428337 110.543C0.280823 110.529 0.187398 110.44 0.152978 110.283C0.0792214 109.915 0.0939727 109.557 0.197232 109.199C0.900381 106.716 2.21325 104.508 4.13585 102.58L4.1211 102.584Z" fill="#FA8517"/>
<path fill-rule="evenodd" clip-rule="evenodd" d="M37.6903 153.704C37.5723 153.645 37.5428 153.488 37.6166 153.356C37.6903 153.224 37.8477 153.165 37.9657 153.224C38.0837 153.282 38.1132 153.439 38.0394 153.572C37.9608 153.704 37.8083 153.763 37.6903 153.704Z" fill="#52B3CA"/>
<path fill-rule="evenodd" clip-rule="evenodd" d="M36.3971 157.993L35.6595 159.254C35.6202 159.141 35.6202 159.004 35.6497 158.847C35.6743 158.749 35.635 158.67 35.5366 158.626L35.1088 158.42C35.0695 158.4 35.0596 158.376 35.0744 158.332L35.1236 158.234C35.1777 158.126 35.2612 158.091 35.3842 158.126C35.7579 158.243 36.0972 158.204 36.3971 157.993Z" fill="#2D78AB"/>
<path fill-rule="evenodd" clip-rule="evenodd" d="M33.496 159.799C33.7566 159.936 33.8894 160.01 33.8943 160.019C34.1647 160.353 34.091 160.461 33.6632 160.338C33.3878 160.265 33.2649 160.118 33.2944 159.897C33.3091 159.769 33.378 159.74 33.496 159.804V159.799Z" fill="#C9DDEE"/>
<path fill-rule="evenodd" clip-rule="evenodd" d="M91.0657 189.137C90.9329 189.181 90.7805 189.098 90.7215 188.941C90.6625 188.789 90.7215 188.632 90.8494 188.587C90.9821 188.543 91.1346 188.627 91.1936 188.779C91.2526 188.931 91.1936 189.088 91.0608 189.137H91.0657Z" fill="#1D5CA0"/>
<path fill-rule="evenodd" clip-rule="evenodd" d="M79.7956 190.001C79.653 190.045 79.4908 189.942 79.4269 189.775C79.3679 189.603 79.4269 189.431 79.5744 189.387C79.717 189.343 79.8792 189.446 79.9432 189.613C80.0022 189.78 79.9432 189.956 79.8006 190.001H79.7956Z" fill="#1D5CA0"/>
<path fill-rule="evenodd" clip-rule="evenodd" d="M89.2513 190.305C89.1284 190.266 89.0743 190.099 89.1382 189.927C89.1972 189.755 89.3496 189.647 89.4775 189.682C89.6004 189.721 89.6496 189.893 89.5906 190.064C89.5316 190.236 89.3791 190.344 89.2562 190.305H89.2513Z" fill="#1D5CA0"/>
<path fill-rule="evenodd" clip-rule="evenodd" d="M77.4453 190.948L77.6174 190.717C77.7255 190.57 77.819 190.575 77.9075 190.727C77.9714 190.84 77.9911 190.963 77.9714 191.09C77.9468 191.232 77.8583 191.301 77.7009 191.306C77.6124 191.306 77.5338 191.272 77.4649 191.203C77.3961 191.134 77.3862 191.026 77.4453 190.948Z" fill="#2D78AB"/>
<path fill-rule="evenodd" clip-rule="evenodd" d="M91.5427 191.198C91.4148 191.144 91.3902 190.962 91.4738 190.781C91.5574 190.604 91.7246 190.501 91.8524 190.555C91.9754 190.609 92.0049 190.79 91.9213 190.972C91.8377 191.149 91.6705 191.252 91.5427 191.198Z" fill="#2D78AB"/>
<path fill-rule="evenodd" clip-rule="evenodd" d="M80.7053 191.556C80.6168 191.64 80.43 191.595 80.2874 191.463C80.1448 191.33 80.0956 191.154 80.189 191.07C80.2775 190.987 80.4644 191.026 80.6119 191.164C80.7545 191.296 80.7987 191.473 80.7102 191.556H80.7053Z" fill="#2D78AB"/>
<path fill-rule="evenodd" clip-rule="evenodd" d="M88.8186 191.482C88.9563 191.443 89.0939 191.482 89.2267 191.61C89.3496 191.718 89.325 191.904 89.1775 191.983C89.0005 192.071 88.8382 192.012 88.6907 191.801C88.6071 191.684 88.6711 191.522 88.8186 191.482Z" fill="#1D5CA0"/>
<path fill-rule="evenodd" clip-rule="evenodd" d="M90.6084 193.544C90.7559 193.46 90.8739 193.46 90.9674 193.539C91.0804 193.637 91.0706 193.809 90.9526 193.892C90.7707 194.015 90.633 194.02 90.5346 193.902C90.4363 193.784 90.4756 193.617 90.6084 193.544Z" fill="#1D5CA0"/>
<path fill-rule="evenodd" clip-rule="evenodd" d="M88.794 195.079C88.794 195.202 88.6907 195.3 88.558 195.3C88.4252 195.3 88.3219 195.202 88.3219 195.079C88.3219 194.957 88.4252 194.858 88.558 194.858C88.6907 194.858 88.794 194.957 88.794 195.079Z" fill="#2D78AB"/>
<path fill-rule="evenodd" clip-rule="evenodd" d="M92.5802 195.31C92.5802 195.472 92.4376 195.604 92.2655 195.604C92.0934 195.604 91.9508 195.472 91.9508 195.31C91.9508 195.148 92.0934 195.011 92.2655 195.011C92.4376 195.011 92.5802 195.143 92.5802 195.31Z" fill="#2D78AB"/>
<path fill-rule="evenodd" clip-rule="evenodd" d="M86.5026 196.929C86.5813 196.826 86.7534 196.851 86.8075 196.968C86.8714 197.106 86.8517 197.228 86.7485 197.322C86.6206 197.435 86.5174 197.42 86.4436 197.263C86.3895 197.155 86.4092 197.042 86.5026 196.929Z" fill="#F0D6C6"/>
<path fill-rule="evenodd" clip-rule="evenodd" d="M64.1395 154.003C64.6066 154.21 65.0443 154.435 65.4573 154.676C65.6147 154.769 65.6933 154.946 65.6491 155.117C65.4081 155.991 65.0885 156.815 64.7001 157.595C64.5624 157.865 64.405 157.944 64.2231 157.826C64.1739 157.797 64.1395 157.743 64.1395 157.693L64.0953 156.447C64.0658 155.741 63.9084 155.711 63.6281 156.369L63.0873 157.635C63.0184 157.792 62.866 157.904 62.689 157.929C62.3743 157.973 62.2071 157.895 62.1874 157.693C62.1579 157.33 62.566 156.138 62.5021 155.814C62.4726 155.672 62.2858 155.618 62.1825 155.726C61.8727 156.03 61.1302 157.203 60.8844 157.546C60.7713 157.698 60.6582 157.787 60.55 157.806C60.4173 157.831 60.2992 157.801 60.2058 157.713C60.1222 157.639 60.0927 157.522 60.1271 157.419C60.2796 156.948 60.5107 156.501 60.8205 156.094C61.322 155.422 61.1892 155.284 60.4222 155.672C60.0878 155.844 59.7682 156.064 59.4584 156.324C59.3847 156.388 59.2716 156.403 59.1781 156.354L59.0454 156.29C58.8979 156.212 58.8634 156.025 58.9815 155.907L60.8991 153.954C60.9581 153.896 60.9631 153.812 60.9188 153.748L60.8598 153.665C60.7762 153.547 60.5992 153.523 60.4861 153.621C59.9944 154.033 59.5273 154.308 59.0995 154.435C58.8438 154.514 58.5979 154.283 58.6766 154.043C58.8094 153.65 59.0601 153.321 59.4191 153.052C60.0534 152.58 60.6484 152.09 61.204 151.565C61.2827 151.496 61.4056 151.516 61.4548 151.604C62.0202 152.767 62.8857 153.434 64.1592 154.003H64.1395Z" fill="#FA8517"/>
<path fill-rule="evenodd" clip-rule="evenodd" d="M71.5742 156.222C75.1539 157.728 78.3254 158.763 81.0889 159.318C85.3815 160.186 88.3711 160.707 90.0675 160.888C91.046 160.996 92.7965 160.996 95.3239 160.888C95.4321 160.888 95.5403 160.898 95.6485 160.927C95.7566 160.957 95.8943 160.972 96.0615 160.972L100.403 173.131C100.472 173.317 100.359 173.518 100.157 173.572C98.1513 174.142 96.2188 174.176 93.839 174.176C92.6392 174.171 91.5476 174.127 90.5642 174.029C85.9421 173.582 81.4626 172.567 77.1748 170.874C76.393 170.565 75.5128 170.373 74.7998 170.054C71.1661 168.425 67.67 166.561 64.3215 164.455C63.5298 163.955 62.7529 163.391 62.0006 162.748C61.8039 162.581 61.4843 162.694 61.4597 162.939C61.4449 163.052 61.4843 163.18 61.5629 163.317C61.622 163.415 61.7203 163.494 61.8678 163.548C62.8807 163.975 63.579 164.637 64.4837 165.196C68.1371 167.444 71.6529 169.235 75.031 170.574C75.1293 170.614 75.2375 170.633 75.3456 170.633C75.503 170.633 75.6358 170.677 75.7489 170.78C75.8374 170.854 75.9357 170.913 76.0439 170.957C80.5381 172.748 84.9832 173.911 89.3791 174.441C92.8014 174.858 96.504 174.75 100.497 174.122C100.723 174.088 100.934 174.225 100.984 174.426C101.18 175.28 101.47 176.065 101.844 176.786C101.947 176.983 101.819 177.213 101.593 177.258L97.517 177.974C94.2028 178.165 90.8297 178.121 87.3975 177.827C83.4392 177.316 79.535 176.443 75.6948 175.202C75.5817 175.167 75.4637 175.157 75.3456 175.162C74.7949 175.206 74.672 175.182 74.9916 175.094C73.5509 174.608 72.2577 174.107 71.1071 173.582C70.2515 173.195 69.1402 173.018 68.2306 172.547C66.6276 171.723 65.0344 170.854 63.4413 169.941L57.4522 165.56C57.2359 165.402 57.2457 165.088 57.4768 164.946L71.5693 156.217L71.5742 156.222Z" fill="#2A69A4"/>
<path fill-rule="evenodd" clip-rule="evenodd" d="M89.0939 128.689C89.7577 128.748 90.3625 128.905 90.9231 129.155C91.0509 129.209 91.1788 129.229 91.3214 129.214C91.9557 129.14 92.4277 129.42 92.9834 129.42C94.2127 129.435 95.5698 128.969 96.686 129.764C96.804 129.847 96.8827 129.955 96.9318 130.083C97.694 132.305 98.284 134.42 98.7118 136.417C98.8643 137.134 98.6676 137.227 98.1169 136.712C97.7235 136.339 97.1973 136.035 96.7843 135.608C95.1076 133.895 93.2243 132.374 91.1198 131.044C91.0067 130.971 90.8493 131.059 90.869 131.187C90.9526 131.923 92.354 133.017 92.944 133.444C93.898 134.136 94.5273 134.631 94.847 134.926C95.855 135.873 96.8089 136.746 97.7235 137.536C98.2988 138.037 99.0708 138.846 100.025 139.975C100.713 140.78 101.524 141.56 102.469 142.311C103.004 142.737 103.481 143.567 104.312 143.802C105.237 144.067 106.255 144.254 107.361 144.381C108.418 144.494 109.259 144.852 110.228 145.157C110.38 145.206 110.483 145.299 110.538 145.436C111.482 147.821 111.472 150.117 110.498 152.335C111.024 153.886 106.073 155.358 105.566 153.179C105.542 152.914 105.448 152.89 105.291 153.115L105.212 153.223C105.134 153.336 104.991 153.405 104.843 153.385L103.939 153.312C103.536 153.292 103.078 153.017 102.562 153.15C102.429 153.184 102.296 153.189 102.159 153.165C101.018 152.973 99.9411 152.64 98.9183 152.159C98.8003 152.105 98.6922 152.021 98.6184 151.918C98.5446 151.81 98.4414 151.727 98.3135 151.658C97.4825 151.207 96.6368 150.77 95.7714 150.358C95.201 150.088 94.9306 149.612 94.3012 149.357C93.8193 149.165 93.839 148.881 93.4751 148.66C93.0227 148.38 92.6048 148.047 92.2212 147.664C91.8131 147.252 91.4345 146.894 91.0854 146.599C90.4314 146.045 89.8708 145.495 89.3988 144.95C88.9415 144.411 88.4793 143.881 88.0122 143.361C87.4024 142.664 86.8075 141.952 86.2322 141.226C85.8142 140.696 85.3766 140.176 84.9193 139.661C84.6931 139.401 84.4276 139.239 84.1178 139.155C83.8228 139.077 83.5523 139.067 83.3016 139.131C82.4558 139.342 81.6592 139.676 80.902 140.137C78.6549 141.516 76.6782 143.292 74.9621 145.466C74.1852 146.457 73.1723 147.35 71.9381 148.155C71.2841 148.577 70.9842 149.092 70.4039 149.583C69.1894 150.603 69.4549 152.188 67.5422 152.424C67.4192 152.438 66.9079 153.562 66.8095 153.641C63.397 154.779 60.609 152.07 60.137 150.186C60.0534 149.847 60.4713 149.857 60.5107 149.573C60.5303 149.391 60.6533 149.219 60.8696 149.062C62.2366 147.335 63.6675 146.118 65.1524 144.823C65.7523 143.94 66.6374 143.071 67.8126 142.212C69.745 140.888 71.5201 139.381 73.128 137.693L72.9068 138.336C72.8674 138.459 72.9953 138.567 73.1231 138.517L74.5294 137.983C74.613 137.953 74.7015 137.997 74.7113 138.081L74.731 138.203C74.7458 138.316 74.6966 138.434 74.5982 138.508L73.2116 139.548C73.0838 139.646 73.0395 139.769 73.069 139.911C73.1084 140.073 73.1723 140.23 73.2608 140.382C73.3739 140.569 73.3247 140.691 73.0985 140.75L72.6756 140.873C72.5429 140.907 72.42 140.956 72.3069 141.025L70.9104 141.82C70.8268 141.869 70.758 141.933 70.7137 142.016C70.6301 142.183 70.4875 142.301 70.2859 142.35C69.7057 142.502 69.686 142.698 70.2367 142.934C70.8661 143.208 71.3677 143.076 71.7316 142.546C71.8201 142.414 71.9479 142.36 72.1102 142.369C72.9805 142.423 73.723 142.198 74.3278 141.697L77.2043 140.838V140.735C78.6991 140.25 80.071 139.518 81.3052 138.537C81.9297 137.899 82.5591 137.271 83.1934 136.643C83.8474 136 84.4472 135.338 84.9881 134.661L86.9206 132.266C87.5893 131.442 88.3023 130.249 89.0644 128.684L89.0939 128.689Z" fill="#F3C857"/>
<path fill-rule="evenodd" clip-rule="evenodd" d="M102.08 111.662L101.18 113.728C100.826 114.538 100.448 115.185 100.039 115.666C98.4365 117.56 95.9386 118.91 93.8488 120.318C92.4376 121.275 91.7983 122.094 91.2575 123.566C90.6871 125.117 90.2642 126.417 89.979 127.453C89.5266 127.708 89.2316 128.12 89.0939 128.689C88.3318 130.254 87.6188 131.447 86.9501 132.271L85.0176 134.666C84.4768 135.343 83.8769 136.005 83.2229 136.648C82.5886 137.276 81.9543 137.909 81.3347 138.542C77.8435 141.314 75.8423 143.11 75.6702 143.115C75.09 143.135 74.5835 143.326 74.1557 143.685C73.4526 144.273 73.2411 144.146 73.5214 143.302C73.5706 143.15 73.8312 142.566 73.487 142.679C72.0905 143.12 70.8563 143.734 69.7844 144.514C69.6811 144.587 69.5287 144.504 69.5533 144.381L69.745 143.474C69.7745 143.341 69.7254 143.243 69.6024 143.179L65.236 142.595C67.5717 142.35 71.5398 139.386 73.1477 137.698C73.4034 137.669 73.5902 137.546 73.6984 137.32C73.7377 137.237 73.7427 137.163 73.7181 137.104C73.6492 136.972 73.5509 136.952 73.4427 137.05C71.1169 138.998 68.4076 141.005 65.6392 141.992C65.1279 142.173 64.587 142.266 64.0068 142.266C63.2348 142.262 62.5611 142.32 61.8481 142.075C60.5008 141.619 59.7977 140.745 59.7485 139.455C59.7387 139.254 59.9747 139.131 60.1517 139.229C60.7565 139.558 61.3564 139.666 62.0596 139.479C63.5888 139.072 64.9066 138.316 66.0129 137.222C69.1206 134.126 71.4808 130.411 73.8017 126.79C76.452 122.693 78.1484 119.763 78.9056 117.997C79.5154 116.559 80.1644 115.131 80.8479 113.723C82.9033 109.483 84.3145 106.996 89.448 106.269C94.729 105.524 100.059 106.446 102.095 111.667L102.08 111.662Z" fill="#F8601F"/>
<path fill-rule="evenodd" clip-rule="evenodd" d="M102.08 111.662C102.621 114.106 102.798 117.153 102.596 120.804C102.365 125.102 98.8741 125.519 95.3829 126.569C94.8224 126.736 94.3847 127.04 94.0602 127.462C93.8094 127.791 93.3767 127.963 92.9489 127.894L89.979 127.448C90.2593 126.407 90.6871 125.112 91.2525 123.561C91.7934 122.089 92.4326 121.27 93.8439 120.313C95.9336 118.905 98.4315 117.555 100.035 115.661C100.443 115.18 100.821 114.533 101.175 113.723C101.48 113.021 101.78 112.334 102.075 111.657L102.08 111.662Z" fill="#FA8517"/>
<path fill-rule="evenodd" clip-rule="evenodd" d="M75.5817 132.625L75.9455 131.432C75.9652 131.354 76.0193 131.324 76.1029 131.349C76.2455 131.393 76.2848 131.496 76.2209 131.658C76.1816 131.756 76.1816 131.864 76.2209 131.962C76.3782 132.369 76.2455 132.659 75.8128 132.821C75.5915 132.909 75.5128 132.84 75.5768 132.625H75.5817Z" fill="#F4901A"/>
<path fill-rule="evenodd" clip-rule="evenodd" d="M75.2227 133.684L74.0672 133.611C73.7968 133.596 73.7869 133.527 74.0279 133.414C74.554 133.164 74.9818 133.194 75.3161 133.493C75.4735 133.63 75.4391 133.694 75.2227 133.679V133.684Z" fill="#F4901A"/>
<path fill-rule="evenodd" clip-rule="evenodd" d="M78.3648 133.733C78.4385 133.729 78.5074 133.733 78.5713 133.758C78.7237 133.817 78.768 133.915 78.704 134.057C78.65 134.17 78.5614 134.258 78.4287 134.332C78.3598 134.366 78.2763 134.347 78.232 134.288C78.1582 134.18 78.1238 134.077 78.1238 133.964C78.1337 133.822 78.2123 133.743 78.3648 133.729V133.733Z" fill="#F4901A"/>
<path fill-rule="evenodd" clip-rule="evenodd" d="M75.9701 138.16C75.8718 138.243 75.6751 138.189 75.5276 138.037C75.3801 137.885 75.3456 137.693 75.444 137.615C75.5423 137.531 75.739 137.585 75.8865 137.738C76.034 137.89 76.0734 138.076 75.9701 138.16Z" fill="#F4901A"/>
<path fill-rule="evenodd" clip-rule="evenodd" d="M96.0664 160.976C95.8992 160.976 95.7615 160.962 95.6534 160.932C95.5452 160.903 95.437 160.888 95.3288 160.893C92.8014 160.996 91.046 160.996 90.0724 160.893C88.376 160.711 85.3864 160.191 81.0938 159.323C78.3254 158.768 75.1539 157.733 71.5791 156.227C72.5773 152.429 74.0131 148.753 75.8767 145.206C76.1914 144.602 76.6241 144.087 77.1748 143.65C79.0679 142.154 81.1823 140.839 83.5228 139.705C83.6507 139.641 83.7588 139.671 83.8375 139.784C84.2801 140.402 84.9144 140.927 85.352 141.491C86.8763 143.444 88.5039 145.309 90.2347 147.095C91.5574 148.454 92.8899 149.622 94.6159 150.574C95.737 151.192 96.8581 151.751 97.9792 152.242C98.2201 152.35 98.3332 152.532 98.3332 152.782C98.2594 155.039 98.0087 157.281 97.5711 159.504C97.4334 160.221 97.1187 160.721 96.3418 160.79C96.1598 160.805 96.0664 160.868 96.0664 160.976Z" fill="#F3C857"/>
<path fill-rule="evenodd" clip-rule="evenodd" d="M111.87 150.299C111.919 149.72 112.003 149.161 112.111 148.626C112.155 148.42 112.337 148.263 112.558 148.238C113.704 148.121 114.83 148.101 115.932 148.179C116.31 148.209 116.472 148.341 116.409 148.582C116.394 148.646 116.345 148.7 116.286 148.724L114.815 149.308C113.979 149.642 114.014 149.813 114.919 149.828L116.669 149.862C116.89 149.862 117.087 149.975 117.19 150.157C117.382 150.471 117.358 150.677 117.122 150.785C116.699 150.971 115.096 151.05 114.742 151.256C114.589 151.344 114.604 151.565 114.771 151.634C115.268 151.83 116.989 152.11 117.505 152.223C117.736 152.272 117.889 152.355 117.962 152.463C118.051 152.596 118.061 152.728 117.997 152.866C117.943 152.988 117.815 153.067 117.677 153.076C117.043 153.116 116.418 153.062 115.794 152.915C114.781 152.674 114.668 152.875 115.46 153.518C115.809 153.798 116.207 154.043 116.654 154.254C116.763 154.308 116.827 154.421 116.812 154.534L116.792 154.706C116.763 154.897 116.551 155.01 116.364 154.941L113.207 153.759C113.114 153.719 113.006 153.749 112.952 153.827L112.873 153.925C112.77 154.063 112.814 154.259 112.981 154.342C113.689 154.686 114.211 155.059 114.55 155.456C114.751 155.692 114.584 156.05 114.26 156.065C113.734 156.094 113.232 155.972 112.755 155.707C111.924 155.24 111.083 154.823 110.218 154.465C110.1 154.411 110.07 154.274 110.159 154.185C111.305 153.096 111.742 151.899 111.875 150.314L111.87 150.299Z" fill="#FA8517"/>
<path fill-rule="evenodd" clip-rule="evenodd" d="M70.6596 161.305C70.6105 161.379 70.4433 161.359 70.2859 161.261C70.1286 161.163 70.045 161.025 70.0991 160.957C70.1482 160.883 70.3154 160.903 70.4728 161.001C70.6252 161.099 70.7137 161.236 70.6596 161.305Z" fill="#2D78AB"/>
<path fill-rule="evenodd" clip-rule="evenodd" d="M68.0585 163.253C67.9798 163.317 67.7929 163.224 67.6503 163.052C67.5028 162.88 67.4537 162.694 67.5373 162.635C67.6208 162.571 67.8028 162.664 67.9454 162.836C68.0929 163.008 68.1421 163.194 68.0585 163.258V163.253Z" fill="#2D78AB"/>
<path fill-rule="evenodd" clip-rule="evenodd" d="M65.5065 164.068C65.3885 164.171 65.1672 164.112 65.0099 163.95C64.8525 163.788 64.823 163.572 64.941 163.474C65.059 163.376 65.2803 163.43 65.4327 163.592C65.5901 163.754 65.6196 163.969 65.5016 164.063L65.5065 164.068Z" fill="#31A0C3"/>
<path fill-rule="evenodd" clip-rule="evenodd" d="M69.8778 164.284C69.8434 164.441 69.7352 164.534 69.568 164.563C69.3566 164.608 69.2779 164.529 69.332 164.338C69.3713 164.186 69.4599 164.063 69.5975 163.97C69.7401 163.872 69.8778 163.847 70.0352 163.891C70.2761 163.955 70.5023 164.053 70.7137 164.186C70.817 164.254 70.8514 164.387 70.7826 164.485C70.5219 164.858 70.4826 165.265 70.6547 165.697C70.6744 165.746 70.6596 165.775 70.6105 165.785L70.5072 165.815C70.4629 165.825 70.4285 165.815 70.4089 165.771L70.0056 164.922C69.9516 164.809 69.9712 164.706 70.0647 164.622L70.1974 164.495C70.2417 164.451 70.2613 164.387 70.2417 164.328C70.2122 164.264 70.1679 164.215 70.1089 164.186C69.9958 164.132 69.9171 164.171 69.8876 164.284H69.8778Z" fill="#2D78AB"/>
<path fill-rule="evenodd" clip-rule="evenodd" d="M86.537 164.789C86.3453 164.794 86.183 164.583 86.183 164.313C86.1781 164.048 86.3256 163.827 86.5174 163.827C86.7091 163.827 86.8665 164.038 86.8714 164.303C86.8714 164.568 86.7288 164.789 86.537 164.789Z" fill="#2D78AB"/>
<path fill-rule="evenodd" clip-rule="evenodd" d="M61.3122 165.942L61.5187 165.854C61.7055 165.77 61.7793 165.824 61.74 166.021C61.7105 166.158 61.5974 166.256 61.3958 166.315C61.1745 166.384 61.0073 166.354 60.8942 166.237C60.8106 166.153 60.8205 166.079 60.9286 166.021C60.9926 165.981 61.0614 165.967 61.145 165.972C61.1991 165.972 61.2532 165.972 61.3073 165.947L61.3122 165.942Z" fill="#2D78AB"/>
<path fill-rule="evenodd" clip-rule="evenodd" d="M75.5423 168.072C75.4587 168.116 75.2375 167.9 75.0654 167.591C74.8933 167.282 74.8195 166.997 74.9129 166.953C75.0014 166.909 75.2129 167.125 75.3899 167.434C75.562 167.743 75.6308 168.028 75.5423 168.072Z" fill="#2D78AB"/>
<path fill-rule="evenodd" clip-rule="evenodd" d="M97.3547 168.577C97.5612 168.71 97.6301 168.876 97.5661 169.087C97.5268 169.23 97.4432 169.264 97.3105 169.181C97.1334 169.068 97.0597 168.901 97.0794 168.675C97.1187 168.327 96.9761 168.067 96.6516 167.89C96.4106 167.763 96.1992 167.596 96.0271 167.385C95.8648 167.193 95.914 167.125 96.1697 167.184C96.6565 167.301 96.9466 167.615 97.0498 168.135C97.0892 168.322 97.1875 168.469 97.3596 168.577H97.3547Z" fill="#C9DDEE"/>
<path fill-rule="evenodd" clip-rule="evenodd" d="M81.374 168.69C81.4871 168.621 81.5855 168.646 81.6691 168.749C81.7625 168.852 81.7723 168.965 81.7084 169.078C81.6297 169.23 81.5216 169.274 81.3839 169.2C81.1774 169.092 81.1724 168.813 81.374 168.695V168.69Z" fill="#2D78AB"/>
<path fill-rule="evenodd" clip-rule="evenodd" d="M94.3503 168.96C94.3749 168.926 94.3946 168.891 94.4143 168.857C94.4339 168.823 94.4536 168.823 94.488 168.852C94.5569 168.911 94.6011 168.98 94.6257 169.058C94.6699 169.196 94.6355 169.304 94.5028 169.377C94.3257 169.485 94.1389 169.529 93.9422 169.505C93.7799 169.49 93.7504 169.421 93.8635 169.304C93.9766 169.181 94.1192 169.088 94.2766 169.019C94.3061 169.009 94.3307 168.989 94.3503 168.96Z" fill="#2D78AB"/>
<path fill-rule="evenodd" clip-rule="evenodd" d="M76.0193 169.75C75.8914 169.774 75.7538 169.607 75.7095 169.382C75.6653 169.156 75.7292 168.955 75.857 168.935C75.9849 168.916 76.1225 169.078 76.1619 169.303C76.2061 169.529 76.1422 169.73 76.0144 169.75H76.0193Z" fill="#F0D6C6"/>
<path fill-rule="evenodd" clip-rule="evenodd" d="M63.4511 169.946C65.0394 170.859 66.6325 171.727 68.2404 172.552C69.1501 173.023 70.2613 173.2 71.1169 173.587C72.2675 174.112 73.5607 174.613 75.0014 175.099C72.8723 175.996 70.1974 176.899 66.9669 177.812C63.6773 178.739 60.3828 179.628 57.0687 180.481C56.9064 180.526 56.7048 180.638 56.4786 180.825C56.3754 180.8 56.282 180.761 56.2033 180.707C56.0902 180.624 56.0312 180.521 56.0312 180.383C56.0312 177.837 55.5936 175.295 54.6937 172.753C55.5149 172.625 56.1639 172.478 56.6507 172.302C58.9028 171.492 61.1745 170.707 63.4511 169.946Z" fill="#FA8517"/>
<path fill-rule="evenodd" clip-rule="evenodd" d="M94.5864 170.859L93.3718 170.422C93.2587 170.383 93.2341 170.241 93.3325 170.172C93.3767 170.138 93.4259 170.123 93.48 170.128C93.7406 170.157 94.2913 170.481 94.6404 170.565C94.7044 170.579 94.729 170.619 94.7093 170.677L94.6699 170.82C94.6552 170.859 94.6306 170.874 94.5864 170.859Z" fill="#2D78AB"/>
<path fill-rule="evenodd" clip-rule="evenodd" d="M92.2458 170.996L92.2901 170.864C92.3442 170.692 92.4179 170.687 92.5261 170.83C92.5556 170.874 92.5753 170.918 92.5851 170.962C92.6097 171.07 92.5753 171.158 92.4818 171.217C92.3441 171.31 92.1868 171.374 92.0196 171.409C91.9164 171.428 91.8869 171.394 91.936 171.301C91.9704 171.237 92.0245 171.188 92.0934 171.158C92.1721 171.119 92.2212 171.07 92.2458 170.996Z" fill="#2D78AB"/>
<path fill-rule="evenodd" clip-rule="evenodd" d="M91.7344 171.222C91.164 171.536 90.5691 171.757 89.9446 171.875C89.8807 171.889 89.8462 171.865 89.8462 171.801L89.8364 171.669C89.8364 171.634 89.8512 171.615 89.8856 171.605L91.6361 171.006C91.6803 170.991 91.7148 171.006 91.7295 171.045L91.7688 171.143C91.7836 171.178 91.7688 171.207 91.7393 171.227L91.7344 171.222Z" fill="#2D78AB"/>
<path fill-rule="evenodd" clip-rule="evenodd" d="M54.6937 172.753C55.5936 175.295 56.0361 177.832 56.0312 180.383C56.0312 180.521 56.0902 180.624 56.2033 180.707C56.282 180.761 56.3705 180.8 56.4786 180.825C56.3901 181.374 56.1738 181.718 55.5788 181.924C53.8873 182.503 52.4073 183.2 51.1337 184.009C50.4502 184.441 50.0815 185.079 49.8504 185.889C49.2751 187.945 48.7391 190.251 45.9855 190.344C44.412 190.393 44.5448 186.954 44.5743 186.051C44.7218 181.674 44.9332 177.277 45.1988 172.861C45.2086 172.694 45.3364 172.557 45.5085 172.527C48.8079 171.939 51.8713 172.012 54.6888 172.753H54.6937Z" fill="#FAAB01"/>
<path fill-rule="evenodd" clip-rule="evenodd" d="M90.4216 172.728C90.4117 172.679 90.4609 172.635 90.5101 172.65C90.7215 172.694 90.8789 172.812 90.9723 172.998C91.0165 173.096 90.9919 173.17 90.8936 173.234C90.8493 173.258 90.7903 173.278 90.7412 173.278C90.7018 173.278 90.6674 173.258 90.6477 173.234C90.5347 173.087 90.4609 172.92 90.4265 172.733L90.4216 172.728Z" fill="#C9DDEE"/>
<path fill-rule="evenodd" clip-rule="evenodd" d="M95.3682 173.081C95.5255 173.057 95.7026 173.106 95.8992 173.219C96.1156 173.346 96.1008 173.396 95.8402 173.376L94.8912 173.302C94.8224 173.302 94.783 173.263 94.7634 173.204C94.7535 173.15 94.7634 173.096 94.788 173.052C94.8027 173.023 94.8371 173.003 94.8716 172.998C94.965 172.988 95.0535 173.003 95.1322 173.042C95.201 173.077 95.2797 173.091 95.3584 173.081H95.3682Z" fill="#C9DDEE"/>
<path fill-rule="evenodd" clip-rule="evenodd" d="M77.2781 173.828C77.2633 173.931 77.0126 173.99 76.7224 173.96C76.4274 173.931 76.2012 173.818 76.2111 173.715C76.2258 173.612 76.4766 173.553 76.7667 173.582C77.0617 173.617 77.2879 173.725 77.2781 173.828Z" fill="#C9DDEE"/>
<path fill-rule="evenodd" clip-rule="evenodd" d="M78.7237 175.275C78.7434 175.304 78.763 175.324 78.7876 175.354C78.8171 175.383 78.8221 175.417 78.7975 175.452C78.7532 175.511 78.6991 175.545 78.6352 175.55C78.4877 175.565 78.3893 175.501 78.35 175.368C78.2959 175.197 78.3008 175.015 78.3648 174.814C78.4287 174.627 78.4975 174.627 78.5762 174.809C78.6205 174.917 78.6549 175.025 78.6696 175.133C78.6795 175.192 78.6942 175.246 78.7237 175.28V175.275Z" fill="#2D78AB"/>
<path fill-rule="evenodd" clip-rule="evenodd" d="M79.776 175.015L80.2333 175.059C80.4398 175.079 80.5086 175.182 80.4398 175.358C80.425 175.398 80.4005 175.437 80.366 175.461C80.2775 175.535 80.1841 175.54 80.0808 175.481C79.9137 175.378 79.7907 175.255 79.7121 175.113C79.6875 175.064 79.7219 175.01 79.776 175.015Z" fill="#C9DDEE"/>
<path fill-rule="evenodd" clip-rule="evenodd" d="M99.3265 176.124C99.174 176.183 98.9921 176.085 98.9085 175.903C98.8249 175.721 98.879 175.53 99.0314 175.471C99.1839 175.412 99.3707 175.51 99.4494 175.692C99.533 175.874 99.474 176.065 99.3265 176.129V176.124Z" fill="#2D78AB"/>
<path fill-rule="evenodd" clip-rule="evenodd" d="M87.4073 177.836C90.8395 178.131 94.2126 178.18 97.5268 177.984C98.5348 183.622 99.2724 189.485 99.7346 195.575C99.1199 196.036 98.0628 196.262 96.5778 196.252C93.952 196.242 92.1917 196.208 91.3017 196.159L87.4123 177.832L87.4073 177.836Z" fill="#FA8517"/>
<path fill-rule="evenodd" clip-rule="evenodd" d="M91.2968 196.164C92.1868 196.213 93.9471 196.247 96.5729 196.257C98.0628 196.267 99.115 196.041 99.7297 195.58C100.187 195.27 100.556 195.084 100.836 195.02C101.234 194.932 101.638 195.133 101.77 195.491C102.513 197.439 103.314 198.838 105.788 199.456C107.071 199.78 108.344 200.138 109.603 200.521C110.39 200.766 110.97 201.267 111.123 202.052C111.457 203.799 109.318 204.466 107.789 204.633C105.965 204.834 104.13 204.947 102.296 204.981C98.2594 205.05 94.6552 204.986 90.9182 204.25C90.5592 204.181 90.2937 203.897 90.2544 203.558C89.9839 201.095 90.333 198.632 91.2919 196.164H91.2968Z" fill="#FAAB01"/>
</g>
<defs>
<clipPath id="clip0_81_4220">
<rect width="218.812" height="205" fill="white" transform="translate(0.0939713 0.000976562)"/>
</clipPath>
</defs>
</svg>
