<svg width="304" height="54" viewBox="0 0 304 54" fill="none" xmlns="http://www.w3.org/2000/svg">
<path d="M123.51 0.0427246H0.492462V53.9659H123.51V0.0427246Z" fill="#D00F31"/>
<path d="M22.3252 43.269H11.5608V11.4824H22.3252V21.9935H36.9394V32.741H22.3252V43.269Z" fill="white"/>
<path d="M112.442 43.6406H101.061C92.7285 43.6406 90.6094 39.5375 90.6094 32.6736V30.3519H83.0447V23.049H90.6094V19.3342H83.0447V11.854H112.442V19.3342H101.374V23.049H112.442V30.3519H101.441C101.441 32.0573 101.441 32.9944 102.041 33.501C102.471 33.864 103.096 34.1088 103.983 34.1088H112.434V43.6406H112.442Z" fill="white"/>
<path d="M75.345 42.1968H47.1972V31.4324H64.2091V23.2768H47.1972V12.5125H75.345V42.1968Z" fill="white"/>
<path d="M30.7594 18.0003C28.3617 18.5321 26.2594 16.4384 26.7913 14.0406C27.0615 12.8334 28.0324 11.854 29.2481 11.5838C31.6459 11.0435 33.7481 13.1457 33.2162 15.5519C32.946 16.7592 31.9667 17.7385 30.7594 18.0087V18.0003Z" fill="white"/>
<path d="M39.4891 18.0003C37.0914 18.5321 34.9891 16.4384 35.521 14.0406C35.7912 12.8334 36.7621 11.854 37.9778 11.5838C40.3756 11.0435 42.4778 13.1457 41.9459 15.5519C41.6757 16.7592 40.6964 17.7385 39.4891 18.0087V18.0003Z" fill="white"/>
<path d="M286.318 25.2861L301.811 0.0341797H277.85L272.912 10.9843H272.743L267.804 0.0341797H243.843L259.336 25.2861L248.622 43.1592L232.378 0.0341797H210.689L194.446 43.1592V0.0426225H173.55L163.79 13.6015L153.811 0.0426225H132.915V53.9658H153.811V27.6754H153.963L163.79 40.3394L173.398 27.6754H173.55V53.9658H213.366L215.071 46.8909H228.005L229.71 53.9658H266.09L272.751 41.0823H272.903L279.564 53.9658H303.508L286.318 25.2946V25.2861ZM218.338 33.332L221.47 20.3219H221.622L224.755 33.332H218.347H218.338Z" fill="#D00F31"/>
</svg>
