<svg width="280" height="238" viewBox="0 0 280 238" fill="none" xmlns="http://www.w3.org/2000/svg">
<g clip-path="url(#clip0_81_4389)">
<path d="M81.5992 74.9219C64.1709 74.9219 52.5536 86.5393 46.7471 90.8964C40.9362 95.2534 39.4867 106.871 40.9362 105.417C42.39 103.963 43.8394 103.963 43.8394 103.963C43.8394 103.963 36.5791 117.034 38.0285 117.034H43.8394C43.8394 117.034 36.5791 127.198 38.0285 127.198C39.4779 127.198 40.9318 125.744 40.9318 125.744V135.908C40.9318 140.265 42.3856 147.525 42.3856 147.525C42.3856 147.525 46.7427 143.168 49.6459 137.362C52.5492 131.555 55.4524 134.458 55.4524 128.647V119.933L58.3556 122.836C58.3556 122.836 64.1621 112.673 62.7127 109.765L61.2589 106.862C61.2589 106.862 62.7127 109.765 64.1621 106.862C65.616 103.959 68.5192 95.2446 72.8763 90.8876C77.2334 86.5305 85.9475 76.3669 85.9475 76.3669L81.5904 74.9131L81.5992 74.9219Z" fill="#39CA8C"/>
<path d="M80.1455 67.6614C80.1455 67.6614 54.0075 47.3299 42.3901 45.8804C30.7727 44.4266 26.4156 48.7837 26.4156 48.7837L30.7727 50.2375C30.7727 50.2375 19.1553 53.1408 17.7014 56.0484C16.2476 58.9517 22.0585 58.9517 22.0585 58.9517C22.0585 58.9517 15.1859 62.388 12.6307 66.2076C12.3091 66.6878 12.0535 67.1768 11.8905 67.6658C10.4367 72.0229 8.9873 73.4767 7.53347 77.8294C6.07965 82.1865 1.72257 96.7071 0.273151 99.6103C-1.18068 102.514 3.1764 95.2533 11.8905 96.7071C17.8953 97.7071 24.5961 91.8081 28.1734 88.0458C29.7858 86.3497 30.7683 85.0897 30.7683 85.0897V90.9006C30.7683 90.9006 36.5792 83.6403 39.4824 82.1865C42.3857 80.7326 43.8395 77.8294 43.8395 77.8294L45.0422 75.424L46.7427 72.0185L48.1966 77.8294C48.1966 77.8294 55.4569 77.8294 59.8139 76.3755C64.171 74.9217 85.952 76.3755 85.952 76.3755L80.1411 67.6614H80.1455Z" fill="#39CA8C"/>
<path d="M90.309 77.8251C91.6086 78.4727 119.355 76.3713 125.161 83.636L130.972 90.8963H125.161L132.421 93.7996C132.421 93.7996 136.779 99.6105 136.779 103.963V115.581C136.779 115.581 132.421 118.484 132.421 117.034C132.421 115.585 135.325 118.488 135.325 118.488C135.325 118.488 138.228 125.749 138.228 128.652C138.228 131.555 129.514 150.433 129.514 150.433V156.244C129.514 156.244 129.514 170.764 126.611 167.861C123.707 164.958 117.896 148.983 117.896 144.626V135.912L119.35 130.101L116.447 133.004C116.447 133.004 114.993 124.29 112.09 118.484C109.187 112.673 106.283 106.866 106.283 106.866L107.737 101.055L103.38 103.959C103.38 103.959 106.283 101.056 100.477 98.1479C94.6661 95.2446 97.5737 90.8875 91.7628 87.9843C85.9563 85.081 78.5154 77.596 78.5154 77.596C78.5154 77.596 81.5993 73.4636 90.3134 77.8207L90.309 77.8251Z" fill="#39CA8C"/>
<path d="M20.6046 0.860352C20.6046 0.860352 38.0285 5.21742 40.9362 5.21742C43.8438 5.21742 46.7471 6.67125 46.7471 6.67125L49.6503 15.3854V8.12508C49.6503 8.12508 54.0074 9.5789 56.9106 11.0283C59.8139 12.4822 61.2677 13.9316 61.2677 13.9316L62.7964 16.989L65.6248 22.6457V15.3854C65.6248 15.3854 71.4357 21.1963 72.8851 22.6457C74.3389 24.0995 80.1454 31.3599 81.5992 35.7169C83.0531 40.074 88.8596 50.2376 85.9563 56.0485C83.0531 61.855 87.4101 66.2121 85.9563 69.1197C84.5025 72.0229 85.9563 76.38 85.9563 76.38L75.7927 70.5691C75.7927 70.5691 57.36 54.7621 53.5051 51.7751C49.6503 48.7882 48.2009 44.4311 48.2009 44.4311H55.4612L43.8438 41.5278L35.1297 32.8137H40.9406L32.2264 28.4566C32.2264 28.4566 30.7726 22.6501 27.8693 16.8392C24.9617 11.0239 20.6046 0.860352 20.6046 0.860352Z" fill="#39CA8C"/>
<path d="M158.564 42.9728C155.661 40.0695 126.615 21.1918 126.615 21.1918L122.258 24.0951V19.738C122.258 19.738 113.544 18.2842 112.094 19.738C110.641 21.1918 107.737 24.0951 107.737 24.0951V18.2842C107.737 18.2842 100.477 21.1874 97.5738 22.6413C94.6705 24.0951 96.12 26.9983 96.12 26.9983L91.7629 25.5445C91.7629 25.5445 90.3091 25.5445 88.8596 29.9016C87.4058 34.2586 84.5026 44.4222 84.5026 53.1364C84.5026 61.8505 85.9564 76.3711 85.9564 76.3711C85.9564 76.3711 96.12 74.9173 94.6705 74.9173C93.2211 74.9173 97.5738 67.657 101.931 63.2999C106.288 58.9429 113.548 56.0396 110.645 56.0396C107.742 56.0396 106.288 54.5858 104.834 54.5858C103.38 54.5858 110.645 53.132 112.094 54.5858C113.548 56.0396 117.901 51.6825 117.901 51.6825L120.804 47.3255L116.447 45.8716C116.447 45.8716 122.258 42.9684 122.258 44.4178C122.258 45.8672 128.064 45.8716 128.064 45.8716C128.064 45.8716 138.228 41.5146 136.779 42.9684C135.325 44.4222 132.422 40.0651 132.422 40.0651C132.422 40.0651 138.228 42.9684 142.585 42.9684H158.56L158.564 42.9728Z" fill="#39CA8C"/>
<path d="M88.8596 72.0188C96.1199 69.1155 106.288 60.4014 113.548 60.4014H135.329L130.972 63.3046C130.972 63.3046 135.329 61.8508 138.232 61.8508C141.136 61.8508 148.396 64.754 148.396 64.754C148.396 64.754 152.753 64.754 151.299 64.754C149.845 64.754 145.493 67.6573 145.493 67.6573L152.753 66.2035C152.753 66.2035 162.917 72.01 165.824 74.9176C168.728 77.8209 171.631 80.7285 173.085 83.6318C174.538 86.535 177.442 89.4426 177.442 93.7953V102.509C177.442 102.509 171.631 95.2491 165.824 93.7953C160.013 92.3415 157.11 89.4382 157.11 89.4382L154.207 85.0812V89.4382C154.207 89.4382 145.493 89.4382 141.136 86.535C136.779 83.6318 132.421 86.535 133.875 85.0812C135.329 83.6273 132.421 79.2747 132.421 79.2747L130.968 83.6318C130.968 83.6318 130.968 86.535 125.157 83.6318C119.35 80.7285 110.826 80.7417 102.014 78.5566C93.2078 76.3714 85.9475 79.2747 85.9475 76.3714C85.9475 73.4682 88.8508 72.0144 88.8508 72.0144L88.8596 72.0188Z" fill="#39CA8C"/>
<path d="M24.0146 4.71057C28.3364 9.36722 32.9886 13.7375 37.9537 17.7025C40.4252 19.6762 42.976 21.5705 45.6634 23.2491C48.408 24.9672 51.3729 26.2757 54.166 27.9101C57.0385 29.5886 59.3558 31.765 61.4308 34.3554C63.3119 36.7036 64.986 39.2103 66.9421 41.5012C69.0876 44.0123 71.6913 45.8627 74.2333 47.9333C76.9779 50.1669 78.7842 52.8278 80.2336 56.0306C81.5685 58.9735 82.2425 61.868 82.7492 65.0488C83.2161 67.9828 83.5289 71.0535 84.6612 73.8246C85.3044 75.3974 87.8948 74.7101 87.2428 73.1109C85.1942 68.093 85.7405 62.379 83.7008 57.3567C82.4452 54.2596 81.0442 51.1361 78.8326 48.5897C76.6431 46.0697 73.7134 44.3824 71.2639 42.1444C66.5236 37.8093 63.7701 31.7077 58.6685 27.7207C55.9635 25.606 52.8444 24.2095 49.8442 22.5926C47.1568 21.1432 44.6193 19.4295 42.1742 17.61C36.3016 13.2353 30.8872 8.18213 25.9134 2.8206C24.7371 1.55621 22.8471 3.45059 24.019 4.71498L24.0146 4.71057Z" fill="#206F4E"/>
<path d="M152.59 39.4259C142.268 33.6151 130.126 31.3154 118.385 32.8529C112.535 33.6195 106.543 35.2275 101.389 38.1616C96.371 41.0163 92.6351 45.5629 90.1548 50.7261C86.9784 57.3477 85.833 64.6388 84.7492 71.8375C84.4937 73.5248 87.0753 74.2517 87.3309 72.5512C89.0005 61.4756 91.0491 48.2723 101.111 41.4833C105.693 38.3906 111.315 36.7342 116.72 35.7958C122.236 34.8398 127.972 34.7957 133.505 35.6504C139.735 36.6108 145.744 38.6506 151.238 41.7433C152.74 42.5891 154.092 40.2762 152.59 39.4304V39.4259Z" fill="#206F4E"/>
<path d="M4.84168 97.861C10.0843 94.7815 13.3267 89.442 16.8864 84.6972C20.7324 79.5648 24.8869 74.5733 29.9092 70.5466C34.698 66.7094 40.3855 63.7886 46.5136 62.9515C53.1616 62.044 59.8668 63.4669 66.1799 65.4803C69.7616 66.6213 73.2772 67.9738 76.7752 69.3439C79.9693 70.5951 83.1897 71.9564 85.6304 74.4499C86.8375 75.6835 88.7319 73.7891 87.5247 72.5556C85.3396 70.3264 82.617 68.8858 79.7666 67.683C76.6166 66.357 73.4094 65.1499 70.189 64.0088C63.6468 61.6959 56.7521 59.8148 49.7517 60.0174C36.328 60.4095 25.7768 69.2294 17.7411 79.2344C15.4106 82.1376 13.2518 85.1642 11.027 88.1468C8.90358 90.9883 6.57746 93.7286 3.48477 95.548C2.00011 96.4203 3.34379 98.7377 4.83727 97.861H4.84168Z" fill="#206F4E"/>
<path d="M92.9215 81.0451C98.098 82.8117 103.358 84.6268 107.892 87.7679C112.57 91.006 115.61 95.7507 117.654 100.985C119.87 106.65 121.359 112.624 122.95 118.488C124.641 124.708 126.373 130.819 126.43 137.308C126.492 144.489 125.487 151.697 127.117 158.781C127.505 160.459 130.087 159.75 129.699 158.067C128.201 151.547 129.078 144.842 129.109 138.229C129.139 131.48 127.536 125.175 125.787 118.704C124.117 112.531 122.575 106.232 120.236 100.266C118.17 94.993 115.28 90.1161 110.768 86.5828C105.733 82.6399 99.6179 80.5032 93.6308 78.459C91.9964 77.8995 91.2915 80.49 92.9171 81.0407L92.9215 81.0451Z" fill="#206F4E"/>
<path d="M75.718 78.292C71.1274 79.3317 66.9686 81.768 63.8098 85.2616C60.2942 89.1517 57.4438 93.7202 54.3952 97.976C52.9942 99.932 51.6461 101.87 50.8135 104.144C49.9544 106.487 49.3553 108.809 48.2186 111.052C47.2274 113.008 46.1612 115.003 45.8308 117.202C45.659 118.343 45.7471 119.427 45.8396 120.568C45.963 122.03 45.7075 123.281 45.2801 124.669C43.5091 130.462 42.5487 136.427 42.5091 142.489C42.5002 144.212 45.1788 144.216 45.1876 142.489C45.2185 137.379 45.8969 132.308 47.267 127.383C47.9279 125.004 48.7253 122.845 48.4918 120.338C48.2671 117.92 48.7429 116.003 49.809 113.831C50.765 111.88 51.7871 109.985 52.4435 107.902C53.1793 105.584 53.8577 103.474 55.2234 101.434C58.0077 97.2667 60.9771 93.1299 64.0345 89.1605C67.2241 85.0193 71.2772 82.0411 76.4273 80.8781C78.1058 80.4992 77.3965 77.9132 75.7136 78.2964L75.718 78.292Z" fill="#206F4E"/>
<path d="M84.0003 75.2964C84.0003 75.2964 78.1894 88.3676 78.1894 107.245C78.1894 126.123 72.3785 126.123 73.8324 126.123H78.1894C78.1894 126.123 76.7356 159.521 78.1894 158.072C79.6433 156.618 82.5465 150.812 82.5465 150.812C82.5465 150.812 81.0927 174.046 84.0003 172.593L86.9036 171.139C86.9036 171.139 91.2607 198.731 92.7145 197.277L94.1683 195.823C94.1683 195.823 95.6221 205.987 95.6221 204.537C95.6221 204.537 97.076 224.869 99.9792 221.965L102.882 219.062C102.882 219.062 105.786 233.583 107.24 236.49C108.693 239.394 110.143 236.49 118.857 236.49C127.571 236.49 133.378 235.037 131.928 232.133C130.474 229.23 126.117 219.062 126.117 217.613C126.117 216.163 115.954 197.281 115.954 197.281C115.954 197.281 120.311 198.735 117.408 194.378C114.504 190.021 105.79 171.143 105.79 171.143C105.79 171.143 108.693 171.143 105.79 166.786C102.887 162.429 99.9792 149.358 99.9792 149.358C99.9792 149.358 105.79 152.261 102.882 147.904C99.9792 143.547 94.1683 126.123 94.1683 126.123C94.1683 126.123 97.0716 126.123 95.6221 123.22C94.1683 120.317 88.3618 97.0817 88.3618 88.3676C88.3618 79.6534 86.908 68.036 84.0047 75.2964H84.0003Z" fill="#A2712F"/>
<path d="M82.0972 92.7114C82.1632 92.8744 82.2293 93.0374 82.2954 93.2048C82.3262 93.2841 82.3615 93.3634 82.3923 93.4427C82.4011 93.4604 82.4099 93.4824 82.4144 93.5C82.476 93.7291 82.595 93.9229 82.758 94.0904C82.8505 94.1608 82.9386 94.2313 83.0311 94.3018C83.2602 94.4472 83.5201 94.4736 83.7801 94.4957C83.9563 94.5089 84.1589 94.4692 84.3219 94.4428C84.3836 94.434 84.4453 94.4164 84.507 94.3943C84.6391 94.3415 84.7757 94.293 84.8991 94.2269C84.9255 94.2137 84.9563 94.1961 84.9828 94.1785C85.1282 94.0816 85.2779 93.9758 85.4013 93.8437C85.5335 93.7203 85.626 93.5793 85.6788 93.4119C85.7626 93.2533 85.8022 93.0815 85.7934 92.8965C85.8022 92.7114 85.7626 92.5396 85.6788 92.381C85.626 92.2136 85.5335 92.0726 85.4013 91.9493C85.3088 91.8788 85.2207 91.8083 85.1282 91.7378C84.9211 91.6145 84.692 91.5572 84.4497 91.5528C84.3308 91.5704 84.2118 91.5836 84.0929 91.6012C83.8638 91.6629 83.6699 91.7819 83.5025 91.9449C83.4717 91.9801 83.4364 92.0109 83.3968 92.0418C83.4893 91.9713 83.5774 91.9008 83.6699 91.8303C83.6127 91.8744 83.5554 91.9052 83.4893 91.9361C83.595 91.892 83.7008 91.8479 83.8109 91.7995C83.7404 91.8303 83.6699 91.8479 83.595 91.8568C83.714 91.8391 83.8329 91.8259 83.9519 91.8083C83.8814 91.8171 83.8153 91.8171 83.7448 91.8083C83.8638 91.8259 83.9827 91.8391 84.1017 91.8568C84.0929 91.8568 84.0796 91.8568 84.0708 91.8523C84.3836 92.1651 84.6964 92.4779 85.0048 92.7863C84.8991 92.522 84.7889 92.2621 84.6832 91.9977C84.6435 91.8215 84.5598 91.6717 84.4453 91.544C84.3528 91.3986 84.225 91.284 84.0708 91.2003C83.9166 91.1034 83.7492 91.0505 83.573 91.0417C83.3968 91.0021 83.2162 91.0109 83.0399 91.0638C82.9342 91.1078 82.8285 91.1519 82.7183 91.2003C82.5157 91.3193 82.3571 91.4779 82.2381 91.6805C82.1941 91.7863 82.15 91.892 82.1016 92.0021C82.0399 92.24 82.0399 92.4779 82.1016 92.7158L82.0972 92.7114Z" fill="#B58D59"/>
<path d="M83.3043 99.1962C83.3263 99.5134 83.3748 99.769 83.5378 100.047C83.7008 100.324 83.877 100.465 84.1282 100.654C84.4145 100.866 84.8419 100.967 85.1943 100.967C85.3837 100.967 85.5864 100.945 85.7714 100.879C85.9565 100.813 86.1547 100.738 86.3221 100.624C86.5776 100.452 86.8023 100.258 87.0094 100.033C87.2517 99.7778 87.4015 99.4385 87.4015 99.0861C87.4103 98.9011 87.3706 98.7293 87.2869 98.5707C87.2341 98.4032 87.1415 98.2623 87.0094 98.1389C86.7539 97.9054 86.419 97.7292 86.0622 97.7468C85.9432 97.7644 85.8243 97.7777 85.7053 97.7953C85.4762 97.857 85.2824 97.9759 85.115 98.1389C85.0049 98.2579 84.8903 98.3724 84.7626 98.4737C84.8551 98.4032 84.9432 98.3328 85.0357 98.2623C84.9564 98.3195 84.8727 98.3724 84.7846 98.4121C84.8903 98.368 84.996 98.3239 85.1062 98.2755C85.0489 98.2975 84.9872 98.3151 84.9256 98.3284C85.0445 98.3107 85.1635 98.2975 85.2824 98.2799C85.2295 98.2843 85.1767 98.2843 85.1238 98.2799C85.2428 98.2975 85.3617 98.3107 85.4807 98.3284C85.419 98.3195 85.3617 98.3063 85.3088 98.2799C85.4146 98.3239 85.5203 98.368 85.6304 98.4165C85.582 98.3944 85.5379 98.368 85.4939 98.3372C85.5864 98.4076 85.6745 98.4781 85.767 98.5486C85.7362 98.5222 85.7097 98.4958 85.6833 98.4649C85.7538 98.5574 85.8243 98.6455 85.8948 98.7381C85.8728 98.7116 85.8595 98.6852 85.8463 98.6544C85.8904 98.7601 85.9344 98.8658 85.9829 98.976C85.9697 98.9451 85.9609 98.9143 85.9565 98.879C85.9741 98.998 85.9873 99.1169 86.0049 99.2359C86.0049 99.2227 86.0049 99.2139 86.0049 99.2006C86.0137 99.0156 85.9741 98.8438 85.8904 98.6852C85.8375 98.5178 85.745 98.3768 85.6128 98.2535C85.4895 98.1213 85.3485 98.0288 85.1811 97.9759C85.0225 97.8922 84.8507 97.8526 84.6656 97.8614C84.5467 97.879 84.4277 97.8922 84.3088 97.9098C84.0797 97.9715 83.8859 98.0905 83.7184 98.2535C83.4849 98.5046 83.3043 98.8482 83.3264 99.2006L83.3043 99.1962Z" fill="#B58D59"/>
<path d="M84.018 110.091C84.2911 109.994 84.5598 109.902 84.833 109.805C85.0092 109.765 85.159 109.681 85.2867 109.567C85.4321 109.474 85.5467 109.346 85.6304 109.192C85.7273 109.038 85.7802 108.871 85.789 108.694C85.8286 108.518 85.8198 108.338 85.7669 108.161C85.7229 108.056 85.6788 107.95 85.6304 107.84C85.5114 107.637 85.3528 107.479 85.1502 107.36C85.0444 107.316 84.9387 107.271 84.8286 107.223C84.5907 107.161 84.3528 107.161 84.1149 107.223C83.8417 107.32 83.573 107.412 83.2999 107.509C83.1236 107.549 82.9738 107.633 82.8461 107.747C82.7007 107.84 82.5862 107.968 82.5025 108.122C82.4055 108.276 82.3527 108.443 82.3439 108.62C82.3042 108.796 82.313 108.976 82.3659 109.153C82.4099 109.258 82.454 109.364 82.5025 109.474C82.6214 109.677 82.78 109.836 82.9827 109.954C83.0884 109.999 83.1941 110.043 83.3043 110.091C83.5422 110.153 83.7801 110.153 84.018 110.091Z" fill="#B58D59"/>
<path d="M86.6789 113.228C86.6921 113.272 86.7053 113.312 86.723 113.356C86.7802 113.501 86.8331 113.655 86.9168 113.792C86.9961 113.919 87.093 114.038 87.1855 114.153C87.2164 114.188 87.2472 114.223 87.2781 114.254C87.582 114.545 87.9213 114.73 88.3134 114.862C88.5072 114.928 88.7187 114.942 88.9169 114.968C89.0138 114.981 89.1108 114.986 89.2077 114.977C89.6394 114.95 89.9919 114.862 90.3751 114.66C90.4236 114.633 90.4677 114.607 90.5117 114.576C90.6395 114.488 90.7672 114.391 90.8818 114.285C90.9963 114.175 91.0932 114.038 91.1814 113.906C91.2122 113.862 91.243 113.814 91.2695 113.765C91.4325 113.444 91.503 113.087 91.406 112.734C91.3223 112.422 91.08 112.087 90.7893 111.933C90.4765 111.77 90.102 111.686 89.7584 111.796C89.4368 111.902 89.1152 112.1 88.9566 112.413C88.9301 112.466 88.8993 112.514 88.864 112.563C88.9345 112.47 89.005 112.382 89.0755 112.289C89.027 112.351 88.9698 112.408 88.9081 112.457C89.0006 112.386 89.0887 112.316 89.1812 112.245C89.1063 112.303 89.0271 112.347 88.9389 112.382C89.0447 112.338 89.1504 112.294 89.2605 112.245C89.1592 112.285 89.0535 112.311 88.9433 112.329C89.0623 112.311 89.1812 112.298 89.3002 112.281C89.1724 112.294 89.0491 112.294 88.9213 112.281C89.0403 112.298 89.1592 112.311 89.2782 112.329C89.1592 112.311 89.0447 112.281 88.9345 112.237C89.0403 112.281 89.146 112.325 89.2561 112.373C89.1636 112.333 89.0755 112.285 88.9918 112.223C89.0843 112.294 89.1724 112.364 89.2649 112.435C89.1989 112.382 89.1372 112.325 89.0843 112.254C89.1548 112.347 89.2253 112.435 89.2958 112.527C89.2473 112.466 89.2077 112.395 89.1768 112.325C89.2209 112.43 89.2649 112.536 89.3134 112.646C89.2958 112.607 89.2826 112.563 89.2694 112.519C89.1812 112.193 88.9433 111.889 88.6526 111.717C88.3662 111.549 87.9433 111.479 87.6217 111.58C87.2957 111.686 86.9829 111.884 86.8199 112.197C86.6525 112.514 86.5864 112.875 86.6833 113.228H86.6789Z" fill="#B58D59"/>
<path d="M81.0398 115.796C80.9209 116.091 80.9385 116.488 81.0178 116.788C81.1015 117.109 81.2733 117.365 81.4892 117.611C81.8593 118.03 82.4276 118.233 82.9739 118.263C83.203 118.277 83.4541 118.237 83.6699 118.153C83.8946 118.065 84.1061 117.981 84.2999 117.836C84.4938 117.691 84.6788 117.55 84.8418 117.373C84.9387 117.268 85.0268 117.153 85.115 117.043C85.2471 116.92 85.3396 116.779 85.3925 116.611C85.4762 116.453 85.5159 116.281 85.507 116.096C85.5159 115.911 85.4762 115.739 85.3925 115.58C85.3396 115.413 85.2471 115.272 85.115 115.149C84.8594 114.915 84.5246 114.739 84.1678 114.757C84.0488 114.774 83.9299 114.787 83.8109 114.805C83.5818 114.867 83.388 114.986 83.2206 115.149C83.0576 115.36 82.8858 115.567 82.6787 115.735C82.7712 115.664 82.8593 115.594 82.9518 115.523C82.8637 115.589 82.7712 115.651 82.6699 115.695C82.7756 115.651 82.8814 115.607 82.9915 115.558C82.9166 115.589 82.8373 115.616 82.758 115.629C82.8769 115.611 82.9959 115.598 83.1148 115.58C83.0488 115.589 82.9871 115.589 82.9254 115.58C83.0444 115.598 83.1633 115.611 83.2823 115.629C83.2162 115.62 83.1589 115.602 83.0972 115.576C83.203 115.62 83.3087 115.664 83.4188 115.713C83.3527 115.682 83.2911 115.647 83.2294 115.602C83.3219 115.673 83.41 115.743 83.5025 115.814C83.4541 115.774 83.41 115.73 83.3704 115.682C83.4409 115.774 83.5113 115.862 83.5818 115.955C83.551 115.911 83.5246 115.871 83.5025 115.823C83.5466 115.928 83.5906 116.034 83.6391 116.144C83.6215 116.105 83.6127 116.065 83.6083 116.021C83.6259 116.14 83.6391 116.259 83.6567 116.378C83.6567 116.343 83.6567 116.307 83.6567 116.268C83.6391 116.387 83.6259 116.506 83.6083 116.625C83.6127 116.585 83.6259 116.55 83.6391 116.514C83.6964 116.338 83.7008 116.158 83.6611 115.981C83.6523 115.805 83.5994 115.638 83.5025 115.483C83.4188 115.329 83.3043 115.202 83.1589 115.109C83.0311 114.99 82.8769 114.911 82.7051 114.871C82.3615 114.792 81.9782 114.809 81.6742 115.008C81.5817 115.078 81.4936 115.149 81.4011 115.219C81.2337 115.387 81.1191 115.585 81.0575 115.81L81.0398 115.796Z" fill="#B58D59"/>
<path d="M92.0536 133.022C91.9567 133.119 91.8774 133.233 91.7981 133.348C91.7497 133.414 91.7232 133.507 91.6924 133.577C91.6616 133.648 91.6219 133.727 91.6043 133.802C91.569 133.943 91.5558 134.093 91.5426 134.238C91.5426 134.264 91.5426 134.286 91.5426 134.313C91.5514 134.441 91.5734 134.573 91.5955 134.7C91.5955 134.714 91.5999 134.731 91.6043 134.745C91.6087 134.771 91.6175 134.797 91.6307 134.819C91.6748 134.934 91.7232 135.053 91.7761 135.163C91.7849 135.176 91.7893 135.189 91.7981 135.203C91.9788 135.485 92.1065 135.599 92.3752 135.789C92.3973 135.802 92.4193 135.815 92.4413 135.828C92.5603 135.886 92.6969 135.956 92.8334 135.987C92.9744 136.022 93.1154 136.035 93.2608 136.044C93.2872 136.044 93.3136 136.044 93.3401 136.044C93.4678 136.031 93.6044 136.013 93.7322 135.991C93.7454 135.991 93.7542 135.987 93.7674 135.982C93.8996 135.947 94.0582 135.868 94.1595 135.824C94.1859 135.811 94.2168 135.797 94.2388 135.78C94.2432 135.78 94.2476 135.771 94.252 135.771C94.3445 135.705 94.4503 135.621 94.5384 135.551C94.5516 135.542 94.5604 135.533 94.5692 135.52C94.6705 135.423 94.7542 135.3 94.8291 135.189C94.9084 135.075 94.9613 134.899 95.0054 134.793C95.0626 134.617 95.067 134.436 95.0274 134.26C95.0186 134.084 94.9657 133.916 94.8688 133.762C94.7851 133.608 94.6705 133.48 94.5252 133.388C94.3974 133.269 94.2432 133.189 94.0714 133.15C93.9524 133.132 93.8335 133.119 93.7145 133.101C93.4722 133.101 93.2475 133.163 93.0361 133.286C92.9436 133.357 92.8555 133.427 92.7629 133.498C92.5955 133.665 92.481 133.863 92.4193 134.088C92.4193 134.088 92.4193 134.092 92.4193 134.097C92.4634 133.991 92.5074 133.885 92.5559 133.775C92.5427 133.806 92.525 133.833 92.5074 133.859C92.5779 133.766 92.6484 133.678 92.7189 133.586C92.6969 133.617 92.6704 133.643 92.6396 133.665C92.7321 133.595 92.8202 133.524 92.9127 133.454C92.8775 133.48 92.8422 133.498 92.807 133.515C92.9127 133.471 93.0185 133.427 93.1286 133.379C93.0889 133.396 93.0493 133.405 93.0096 133.41C93.1286 133.392 93.2475 133.379 93.3665 133.361C93.3268 133.366 93.2828 133.366 93.2431 133.361C93.3621 133.379 93.481 133.392 93.6 133.41C93.5647 133.405 93.5295 133.396 93.4987 133.383C93.6044 133.427 93.7101 133.471 93.8203 133.52C93.7894 133.507 93.763 133.493 93.7366 133.471C93.8291 133.542 93.9172 133.612 94.0097 133.683C93.9833 133.661 93.9568 133.634 93.9348 133.608C94.0053 133.7 94.0758 133.789 94.1463 133.881C94.1242 133.855 94.1066 133.824 94.0934 133.789C94.1375 133.894 94.1815 134 94.23 134.11C94.2124 134.07 94.2035 134.026 94.1947 133.982C94.2124 134.101 94.2256 134.22 94.2432 134.339C94.2388 134.3 94.2388 134.256 94.2432 134.216C94.2256 134.335 94.2124 134.454 94.1947 134.573C94.1991 134.533 94.2124 134.493 94.2256 134.454C94.1815 134.559 94.1375 134.665 94.089 134.775C94.1022 134.745 94.1198 134.714 94.1419 134.687C94.0714 134.78 94.0009 134.868 93.9304 134.96C93.9392 134.947 93.948 134.938 93.9612 134.93C94.0934 134.806 94.1859 134.665 94.2388 134.498C94.3225 134.339 94.3621 134.167 94.3533 133.982C94.3621 133.797 94.3225 133.626 94.2388 133.467C94.1859 133.3 94.0934 133.159 93.9612 133.035C93.8687 132.965 93.7806 132.894 93.6881 132.824C93.481 132.7 93.252 132.643 93.0096 132.639C92.8907 132.656 92.7717 132.67 92.6528 132.687C92.4237 132.749 92.2299 132.868 92.0625 133.031L92.0536 133.022Z" fill="#B58D59"/>
<path d="M85.6744 136.679C86.159 136.361 86.6436 136.04 87.1327 135.723C87.2869 135.639 87.4146 135.524 87.5071 135.379C87.6261 135.251 87.7054 135.097 87.745 134.925C87.8023 134.749 87.8067 134.568 87.7671 134.392C87.7582 134.216 87.7054 134.048 87.6085 133.894C87.4234 133.608 87.1503 133.357 86.8066 133.277C86.6877 133.26 86.5687 133.247 86.4498 133.229C86.2075 133.229 85.9828 133.291 85.7713 133.414C85.2867 133.731 84.8021 134.053 84.3131 134.37C84.1589 134.454 84.0312 134.568 83.9386 134.714C83.8197 134.841 83.7404 134.996 83.7007 135.167C83.6435 135.344 83.6391 135.524 83.6787 135.701C83.6875 135.877 83.7404 136.044 83.8373 136.198C84.0224 136.485 84.2955 136.736 84.6391 136.815C84.7581 136.833 84.877 136.846 84.996 136.864C85.2383 136.864 85.463 136.802 85.6744 136.679Z" fill="#B58D59"/>
<path d="M87.1195 143.657C87.494 143.719 87.8729 143.767 88.2517 143.767C88.6218 143.767 88.9919 143.714 89.3575 143.653C89.9875 143.547 90.6043 143.305 91.1594 142.992C91.4501 142.829 91.6881 142.512 91.7762 142.19C91.8643 141.869 91.8246 141.441 91.6396 141.159C91.2387 140.538 90.4589 140.313 89.8069 140.679C89.6571 140.763 89.5029 140.842 89.3443 140.908C89.45 140.864 89.5558 140.82 89.6659 140.772C89.2826 140.93 88.8817 141.04 88.4676 141.098C88.5865 141.08 88.7055 141.067 88.8244 141.049C88.4279 141.098 88.0315 141.098 87.635 141.049C87.7539 141.067 87.8729 141.08 87.9918 141.098C87.9389 141.089 87.8905 141.084 87.8376 141.076C87.472 141.014 87.1371 141.018 86.8067 141.212C86.5292 141.375 86.2648 141.692 86.1899 142.014C86.1106 142.358 86.1283 142.741 86.3265 143.045C86.5027 143.318 86.7891 143.604 87.1283 143.662L87.1195 143.657Z" fill="#B58D59"/>
<path d="M94.7762 146.12C94.8247 146.133 94.8732 146.146 94.926 146.15C95.0846 146.172 95.252 146.208 95.4194 146.208C95.4723 146.208 95.5208 146.208 95.5736 146.203C95.741 146.186 95.9085 146.168 96.0715 146.133C96.1199 146.12 96.1684 146.106 96.2168 146.089C96.3666 146.031 96.5164 145.97 96.6618 145.899C96.7059 145.877 96.7499 145.851 96.794 145.82C96.9261 145.727 97.0583 145.631 97.1773 145.52C97.3094 145.397 97.4019 145.256 97.4548 145.089C97.5385 144.93 97.5782 144.758 97.5693 144.573C97.5782 144.388 97.5385 144.216 97.4548 144.058C97.4019 143.89 97.3094 143.749 97.1773 143.626C97.0847 143.555 96.9966 143.485 96.9041 143.415C96.6971 143.291 96.468 143.234 96.2257 143.229C96.1067 143.247 95.9878 143.26 95.8688 143.278C95.6397 143.34 95.4459 143.459 95.2785 143.622C95.2564 143.639 95.2344 143.657 95.2124 143.674C95.3049 143.604 95.393 143.533 95.4855 143.463C95.4106 143.52 95.3269 143.569 95.2388 143.608C95.3445 143.564 95.4503 143.52 95.5604 143.472C95.4591 143.516 95.3578 143.542 95.252 143.555C95.371 143.538 95.4899 143.525 95.6089 143.507C95.5076 143.52 95.4062 143.52 95.3049 143.507C95.4239 143.525 95.5428 143.538 95.6617 143.555C95.6045 143.547 95.5516 143.538 95.4943 143.52C95.3181 143.463 95.1375 143.459 94.9613 143.498C94.785 143.507 94.6176 143.56 94.4634 143.657C94.3092 143.741 94.1815 143.855 94.089 144C93.97 144.128 93.8907 144.282 93.8511 144.454C93.8335 144.573 93.8202 144.692 93.8026 144.811C93.8026 145.053 93.8643 145.278 93.9876 145.49C94.0581 145.582 94.1286 145.67 94.1991 145.763C94.3665 145.93 94.5648 146.045 94.7895 146.106L94.7762 146.12Z" fill="#B58D59"/>
<path d="M82.5509 146.455H83.0972C83.2823 146.463 83.4541 146.424 83.6127 146.34C83.7801 146.287 83.9211 146.195 84.0444 146.063C84.1766 145.939 84.2691 145.798 84.322 145.631C84.4057 145.472 84.4453 145.3 84.4365 145.115C84.4189 144.996 84.4057 144.877 84.3881 144.759C84.3264 144.529 84.2074 144.336 84.0444 144.168C83.9519 144.098 83.8638 144.027 83.7713 143.957C83.5642 143.833 83.3351 143.776 83.0928 143.772H82.5465C82.3615 143.763 82.1897 143.803 82.0311 143.886C81.8637 143.939 81.7227 144.032 81.5994 144.164C81.4672 144.287 81.3747 144.428 81.3218 144.596C81.2381 144.754 81.1984 144.926 81.2073 145.111C81.2249 145.23 81.2381 145.349 81.2557 145.468C81.3174 145.697 81.4363 145.891 81.5994 146.058C81.6919 146.129 81.78 146.199 81.8725 146.27C82.0796 146.393 82.3086 146.45 82.5509 146.455Z" fill="#B58D59"/>
<path d="M86.6613 158.781C86.6745 159.116 86.6877 159.451 86.7009 159.786C86.7009 160.028 86.7626 160.253 86.8859 160.464C87.0049 160.667 87.1635 160.826 87.3661 160.945C87.4807 161.002 87.6084 161.055 87.7274 161.099C87.745 161.103 87.7626 161.112 87.7759 161.116C87.9256 161.16 88.0886 161.174 88.2384 161.182C88.2781 161.182 88.3133 161.182 88.353 161.182C88.5072 161.169 88.6658 161.156 88.8156 161.116C88.8332 161.112 88.8508 161.108 88.8684 161.099C88.9918 161.055 89.1151 160.997 89.2341 160.945C89.2693 160.927 89.3002 160.909 89.331 160.887C89.4367 160.812 89.5425 160.733 89.6394 160.649C89.6526 160.636 89.6702 160.623 89.6835 160.61C89.6967 160.596 89.7055 160.583 89.7187 160.57C89.8024 160.469 89.8861 160.363 89.961 160.253C90.0579 160.099 90.1108 159.931 90.1196 159.755C90.1592 159.579 90.1504 159.398 90.0976 159.222C90.0579 159.046 89.9742 158.896 89.8597 158.768C89.7672 158.623 89.6394 158.508 89.4852 158.425C89.3795 158.381 89.2737 158.336 89.1636 158.288C88.9257 158.226 88.6878 158.226 88.4499 158.288C88.3442 158.332 88.2384 158.376 88.1283 158.425C87.9256 158.544 87.767 158.702 87.6481 158.905C87.6393 158.918 87.6261 158.936 87.6173 158.949C87.6877 158.856 87.7582 158.768 87.8287 158.676C87.8023 158.711 87.767 158.742 87.7362 158.768C87.8287 158.698 87.9168 158.627 88.0093 158.557C87.9653 158.588 87.9212 158.614 87.8684 158.636C87.9741 158.592 88.0798 158.548 88.19 158.499C88.1415 158.521 88.0886 158.535 88.0358 158.544C88.1547 158.526 88.2737 158.513 88.3926 158.495C88.3398 158.504 88.2869 158.504 88.234 158.495C88.353 158.513 88.4719 158.526 88.5909 158.544C88.5424 158.535 88.494 158.526 88.4499 158.504C88.5556 158.548 88.6614 158.592 88.7715 158.64C88.7583 158.636 88.7451 158.627 88.7363 158.623C88.9565 159.011 89.1768 159.394 89.4015 159.781C89.3883 159.447 89.3751 159.112 89.3618 158.777C89.3707 158.592 89.331 158.42 89.2473 158.262C89.1944 158.094 89.1019 157.953 88.9698 157.83C88.8464 157.698 88.7054 157.605 88.538 157.552C88.3794 157.469 88.2076 157.429 88.0226 157.438C87.9036 157.455 87.7847 157.469 87.6657 157.486C87.4366 157.548 87.2428 157.667 87.0754 157.83C87.0049 157.922 86.9344 158.01 86.8639 158.103C86.7406 158.31 86.6833 158.539 86.6789 158.781H86.6613Z" fill="#B58D59"/>
<path d="M96.1112 161.314C96.4813 161.376 96.8602 161.424 97.2346 161.424C97.6047 161.424 97.9704 161.376 98.3316 161.314C98.9616 161.213 99.5696 160.979 100.129 160.68C100.42 160.526 100.658 160.191 100.746 159.878C100.834 159.556 100.794 159.129 100.609 158.847C100.204 158.217 99.4374 158.015 98.7766 158.367C98.64 158.442 98.499 158.508 98.358 158.565C98.4638 158.521 98.5695 158.477 98.6797 158.429C98.2964 158.587 97.8999 158.693 97.4902 158.75C97.6091 158.733 97.7281 158.719 97.847 158.702C97.4373 158.755 97.0276 158.755 96.6179 158.702C96.7368 158.719 96.8558 158.733 96.9747 158.75C96.9218 158.741 96.8734 158.737 96.8205 158.728C96.4549 158.671 96.12 158.667 95.7896 158.865C95.5121 159.028 95.2477 159.345 95.1729 159.667C95.0936 160.01 95.1112 160.394 95.3094 160.698C95.4856 160.971 95.772 161.257 96.1112 161.314Z" fill="#B58D59"/>
<path d="M101.142 165.588H102.508C102.693 165.597 102.865 165.557 103.023 165.473C103.191 165.421 103.332 165.328 103.455 165.196C103.587 165.073 103.68 164.932 103.733 164.764C103.816 164.606 103.856 164.434 103.847 164.249C103.83 164.13 103.816 164.011 103.799 163.892C103.737 163.663 103.618 163.469 103.455 163.302C103.191 163.059 102.869 162.909 102.508 162.909H101.142C100.957 162.901 100.785 162.94 100.627 163.024C100.459 163.077 100.318 163.169 100.195 163.302C100.063 163.425 99.9704 163.566 99.9175 163.733C99.8338 163.892 99.7942 164.064 99.803 164.249C99.8206 164.368 99.8338 164.487 99.8514 164.606C99.9131 164.835 100.032 165.028 100.195 165.196C100.459 165.438 100.781 165.588 101.142 165.588Z" fill="#B58D59"/>
<path d="M90.6879 163.288C90.7981 163.438 90.9082 163.597 91.0404 163.724C91.1725 163.857 91.3311 163.967 91.4809 164.072C91.6968 164.227 91.9611 164.332 92.2122 164.416C92.4678 164.5 92.7453 164.535 93.014 164.539C93.2079 164.539 93.4017 164.509 93.5868 164.478C93.6705 164.465 93.7542 164.447 93.8335 164.421C94.1639 164.31 94.4546 164.112 94.6353 163.804C94.7322 163.65 94.7851 163.482 94.7939 163.306C94.8335 163.13 94.8247 162.949 94.7718 162.773C94.6661 162.447 94.4679 162.134 94.1551 161.971C93.8467 161.808 93.4678 161.724 93.1242 161.834C93.0449 161.861 92.9612 161.879 92.8775 161.892C92.9964 161.874 93.1154 161.861 93.2343 161.843C93.1022 161.861 92.9744 161.861 92.8422 161.843C92.9612 161.861 93.0801 161.874 93.1991 161.892C93.0625 161.874 92.9259 161.834 92.7982 161.782C92.9039 161.826 93.0096 161.87 93.1198 161.918C93.0052 161.87 92.8995 161.808 92.8026 161.733C92.8951 161.804 92.9832 161.874 93.0757 161.945C92.9788 161.87 92.8907 161.782 92.8158 161.685C92.8863 161.777 92.9568 161.865 93.0273 161.958C93.0229 161.953 93.0184 161.945 93.014 161.94C92.9303 161.786 92.8158 161.658 92.6704 161.566C92.5427 161.447 92.3885 161.367 92.2166 161.328C92.0404 161.271 91.8598 161.266 91.6836 161.306C91.5073 161.315 91.3399 161.367 91.1857 161.464C90.8994 161.649 90.6483 161.923 90.569 162.266C90.5513 162.385 90.5381 162.504 90.5205 162.623C90.5205 162.865 90.5822 163.09 90.7055 163.302L90.6879 163.288Z" fill="#B58D59"/>
<path d="M86.5247 167.861C86.7186 167.993 86.9388 168.072 87.1547 168.16C87.2693 168.209 87.3882 168.244 87.5116 168.266C87.679 168.297 87.8552 168.319 88.0226 168.337C88.0843 168.341 88.1416 168.346 88.2032 168.346C88.2693 168.346 88.331 168.346 88.3971 168.332C88.5733 168.31 88.7495 168.293 88.9213 168.257C89.0976 168.218 89.2473 168.134 89.3751 168.019C89.5205 167.927 89.635 167.799 89.7187 167.645C89.8157 167.491 89.8685 167.323 89.8773 167.147C89.917 166.971 89.9082 166.79 89.8553 166.614C89.8113 166.508 89.7672 166.403 89.7187 166.293C89.5998 166.09 89.4412 165.931 89.2385 165.812C89.1328 165.768 89.0271 165.724 88.9169 165.676C88.679 165.614 88.4411 165.614 88.2032 165.676C88.1592 165.685 88.1151 165.693 88.0711 165.698C88.19 165.68 88.309 165.667 88.4279 165.649C88.2693 165.671 88.1107 165.671 87.9521 165.649C88.0711 165.667 88.19 165.68 88.309 165.698C88.1504 165.676 88.0006 165.632 87.8508 165.574C87.9565 165.618 88.0623 165.663 88.1724 165.711C88.0667 165.667 87.9697 165.614 87.8728 165.548C87.7186 165.451 87.5512 165.398 87.375 165.389C87.1988 165.35 87.0181 165.359 86.8419 165.411C86.6657 165.451 86.5159 165.535 86.3882 165.649C86.2428 165.742 86.1282 165.87 86.0445 166.024C86.0005 166.13 85.9564 166.235 85.908 166.345C85.8463 166.583 85.8463 166.821 85.908 167.059C85.952 167.165 85.9961 167.271 86.0445 167.381C86.1635 167.583 86.3221 167.742 86.5247 167.861Z" fill="#B58D59"/>
<path d="M93.8995 179.399C93.7409 179.743 93.6837 179.919 93.6484 180.293C93.6308 180.487 93.6616 180.677 93.6969 180.866C93.7718 181.254 93.9832 181.562 94.2211 181.862C94.6705 182.417 95.3622 182.699 96.0582 182.761C96.675 182.818 97.3711 182.562 97.8645 182.201C98.3315 181.857 98.7148 181.474 99.0804 181.029C99.3139 180.747 99.4725 180.461 99.4725 180.082C99.4725 179.752 99.3271 179.36 99.0804 179.135C98.8249 178.901 98.4901 178.725 98.1333 178.743C97.7984 178.756 97.4107 178.866 97.1861 179.135C96.9173 179.456 96.6442 179.778 96.3182 180.038C96.4107 179.967 96.4988 179.897 96.5913 179.826C96.4283 179.95 96.2609 180.06 96.0715 180.139C96.1772 180.095 96.2829 180.051 96.3931 180.003C96.2609 180.056 96.1287 180.095 95.9878 180.117C96.1067 180.1 96.2257 180.086 96.3446 180.069C96.2389 180.082 96.1331 180.082 96.023 180.069C96.142 180.086 96.2609 180.1 96.3799 180.117C96.2697 180.1 96.1684 180.069 96.0671 180.029C96.1728 180.073 96.2785 180.117 96.3887 180.166C96.2741 180.117 96.1728 180.056 96.0759 179.976C96.1684 180.047 96.2565 180.117 96.349 180.188C96.2653 180.122 96.1948 180.047 96.1287 179.963C96.1992 180.056 96.2697 180.144 96.3402 180.236C96.2873 180.166 96.2433 180.091 96.208 180.007C96.2521 180.113 96.2961 180.219 96.3446 180.329C96.3182 180.258 96.3006 180.192 96.2917 180.117C96.3094 180.236 96.3226 180.355 96.3402 180.474C96.3358 180.412 96.3358 180.355 96.3402 180.293C96.3226 180.412 96.3094 180.531 96.2917 180.65C96.3006 180.589 96.3182 180.527 96.3446 180.47C96.3006 180.575 96.2565 180.681 96.208 180.791C96.2124 180.778 96.2212 180.769 96.2257 180.756C96.3798 180.421 96.4636 180.091 96.3622 179.725C96.2785 179.412 96.0362 179.078 95.7455 178.923C95.4327 178.76 95.0582 178.677 94.7146 178.787C94.4018 178.888 94.0581 179.091 93.9127 179.404L93.8995 179.399Z" fill="#B58D59"/>
<path d="M102.508 182.813C102.684 182.826 102.856 182.826 103.032 182.804C103.314 182.774 103.596 182.738 103.869 182.659C104.129 182.58 104.389 182.47 104.631 182.351C104.794 182.271 104.944 182.174 105.09 182.064C105.244 181.981 105.372 181.866 105.464 181.721C105.583 181.593 105.662 181.439 105.702 181.267C105.759 181.091 105.764 180.91 105.724 180.734C105.715 180.558 105.662 180.39 105.565 180.236C105.38 179.95 105.107 179.699 104.764 179.619C104.645 179.602 104.526 179.588 104.407 179.571C104.164 179.571 103.94 179.632 103.728 179.756C103.543 179.897 103.341 180.016 103.129 180.108C103.235 180.064 103.341 180.02 103.451 179.972C103.226 180.064 102.993 180.13 102.75 180.166C102.869 180.148 102.988 180.135 103.107 180.117C102.909 180.144 102.706 180.148 102.504 180.135C102.319 180.126 102.147 180.166 101.988 180.249C101.821 180.302 101.68 180.395 101.556 180.527C101.424 180.65 101.332 180.791 101.279 180.959C101.195 181.117 101.155 181.289 101.164 181.474C101.182 181.822 101.292 182.179 101.556 182.421C101.649 182.492 101.737 182.562 101.83 182.633C102.037 182.756 102.266 182.813 102.508 182.818V182.813Z" fill="#B58D59"/>
<path d="M99.2346 186.959C100.054 186.871 100.874 186.783 101.697 186.695C101.882 186.704 102.054 186.664 102.213 186.58C102.38 186.527 102.521 186.435 102.645 186.303C102.878 186.069 103.05 185.69 103.037 185.355C103.019 185.007 102.909 184.651 102.645 184.408C102.398 184.184 102.045 183.976 101.697 184.016C100.878 184.104 100.058 184.192 99.2346 184.28C99.0496 184.272 98.8778 184.311 98.7192 184.395C98.5518 184.448 98.4108 184.54 98.2875 184.673C98.054 184.906 97.8822 185.285 97.8954 185.62C97.913 185.968 98.0231 186.325 98.2875 186.567C98.5342 186.792 98.8866 186.999 99.2346 186.959Z" fill="#B58D59"/>
<path d="M107.521 190.188C107.975 190.087 108.429 189.981 108.878 189.88C109.055 189.84 109.204 189.757 109.332 189.642C109.478 189.549 109.592 189.422 109.676 189.267C109.773 189.113 109.826 188.946 109.834 188.77C109.874 188.593 109.865 188.413 109.812 188.237C109.768 188.131 109.724 188.025 109.676 187.915C109.557 187.712 109.398 187.554 109.196 187.435C109.09 187.391 108.984 187.347 108.874 187.298C108.636 187.237 108.398 187.237 108.16 187.298C107.707 187.4 107.253 187.505 106.803 187.607C106.627 187.646 106.477 187.73 106.35 187.844C106.204 187.937 106.09 188.065 106.006 188.219C105.909 188.373 105.856 188.541 105.847 188.717C105.808 188.893 105.817 189.074 105.869 189.25C105.913 189.356 105.958 189.461 106.006 189.571C106.125 189.774 106.284 189.933 106.486 190.052C106.592 190.096 106.698 190.14 106.808 190.188C107.046 190.25 107.284 190.25 107.521 190.188Z" fill="#B58D59"/>
<path d="M98.2347 191.109C98.3008 191.272 98.358 191.453 98.4682 191.598C98.5431 191.699 98.6356 191.836 98.7369 191.937C98.8338 192.034 98.9836 192.135 99.0761 192.206C99.1334 192.25 99.1907 192.281 99.2568 192.312C99.4066 192.382 99.5916 192.47 99.7634 192.505C100.147 192.58 100.482 192.594 100.865 192.497C100.9 192.488 100.931 192.475 100.962 192.461C101.094 192.409 101.235 192.36 101.363 192.285C101.438 192.241 101.504 192.184 101.574 192.131C101.649 192.074 101.724 192.021 101.79 191.955C101.922 191.831 102.015 191.69 102.068 191.523C102.151 191.364 102.191 191.193 102.182 191.008C102.191 190.823 102.151 190.651 102.068 190.492C102.015 190.325 101.922 190.184 101.79 190.06C101.697 189.99 101.609 189.919 101.517 189.849C101.31 189.726 101.081 189.668 100.838 189.664C100.719 189.681 100.6 189.695 100.482 189.712C100.252 189.774 100.059 189.893 99.8912 190.056C99.8647 190.082 99.8427 190.104 99.8119 190.126C99.9044 190.056 99.9925 189.985 100.085 189.915C100.037 189.95 99.9881 189.981 99.9308 190.003C100.037 189.959 100.142 189.915 100.252 189.867C100.186 189.893 100.12 189.911 100.054 189.919C100.173 189.902 100.292 189.889 100.411 189.871C100.332 189.88 100.252 189.88 100.173 189.871C100.292 189.889 100.411 189.902 100.53 189.919C100.451 189.906 100.371 189.884 100.296 189.853C100.402 189.897 100.508 189.941 100.618 189.99C100.552 189.963 100.495 189.928 100.437 189.884C100.53 189.955 100.618 190.025 100.711 190.096C100.662 190.06 100.622 190.016 100.583 189.972C100.653 190.065 100.724 190.153 100.794 190.245C100.759 190.197 100.728 190.148 100.702 190.091C100.746 190.197 100.79 190.303 100.838 190.413C100.838 190.408 100.838 190.404 100.834 190.4C100.794 190.223 100.711 190.074 100.596 189.946C100.504 189.8 100.376 189.686 100.222 189.602C100.067 189.505 99.9 189.452 99.7238 189.444C99.5475 189.404 99.3669 189.413 99.1907 189.466C99.085 189.51 98.9792 189.554 98.8691 189.602C98.6664 189.721 98.5078 189.88 98.3889 190.082C98.3448 190.188 98.3008 190.294 98.2523 190.404C98.1906 190.642 98.1906 190.88 98.2523 191.118L98.2347 191.109Z" fill="#B58D59"/>
<path d="M98.2523 203.96C98.2523 203.982 98.2611 204.008 98.2699 204.03C98.3096 204.141 98.3624 204.26 98.4109 204.365C98.4153 204.374 98.4197 204.387 98.4241 204.396C98.4329 204.414 98.4461 204.431 98.4549 204.449C98.5342 204.559 98.6135 204.669 98.7061 204.766C98.8118 204.876 98.9396 204.969 99.0673 205.053C99.1995 205.141 99.3581 205.194 99.5035 205.246C99.6488 205.299 99.8559 205.312 99.9837 205.326C100.028 205.33 100.067 205.33 100.111 205.326C100.244 205.312 100.442 205.304 100.587 205.246C100.653 205.22 100.847 205.149 100.957 205.088C101.072 205.022 101.178 204.925 101.279 204.841C101.411 204.718 101.504 204.577 101.556 204.409C101.64 204.251 101.68 204.079 101.671 203.894C101.68 203.709 101.64 203.537 101.556 203.378C101.504 203.211 101.411 203.07 101.279 202.947C101.186 202.876 101.098 202.806 101.006 202.735C100.799 202.612 100.57 202.555 100.327 202.55C100.208 202.568 100.089 202.581 99.9705 202.599C99.7414 202.66 99.5475 202.779 99.3801 202.942C99.3801 202.942 99.3757 202.942 99.3713 202.947C99.4638 202.876 99.5519 202.806 99.6444 202.735C99.6136 202.757 99.5828 202.775 99.5519 202.788C99.6577 202.744 99.7634 202.7 99.8735 202.652C99.8383 202.665 99.7986 202.678 99.7634 202.682C99.8823 202.665 100.001 202.652 100.12 202.634C100.076 202.638 100.032 202.638 99.9837 202.634C100.103 202.652 100.222 202.665 100.341 202.682C100.288 202.674 100.239 202.66 100.191 202.643C100.296 202.687 100.402 202.731 100.512 202.779C100.468 202.762 100.433 202.74 100.393 202.709C100.486 202.779 100.574 202.85 100.667 202.92C100.631 202.894 100.605 202.867 100.578 202.832C100.649 202.925 100.719 203.013 100.79 203.105C100.768 203.074 100.746 203.039 100.733 203.004C100.777 203.11 100.821 203.215 100.869 203.326C100.856 203.299 100.852 203.268 100.843 203.237C100.803 203.061 100.719 202.911 100.605 202.784C100.512 202.638 100.385 202.524 100.23 202.44C100.076 202.343 99.9088 202.29 99.7326 202.281C99.5563 202.242 99.3757 202.251 99.1995 202.304C99.0938 202.348 98.988 202.392 98.8779 202.44C98.6752 202.559 98.5166 202.718 98.3977 202.92C98.3536 203.026 98.3096 203.132 98.2611 203.242C98.1994 203.48 98.1994 203.718 98.2611 203.956L98.2523 203.96Z" fill="#B58D59"/>
<path d="M106.455 204.304C107.068 205.048 108.046 205.414 108.984 205.471C109.94 205.528 110.909 205.158 111.592 204.497C112.099 204.008 112.121 203.083 111.592 202.603C111.05 202.105 110.235 202.083 109.698 202.603C109.649 202.651 109.597 202.696 109.539 202.74C109.632 202.669 109.72 202.599 109.812 202.528C109.667 202.638 109.513 202.726 109.35 202.801C109.456 202.757 109.561 202.713 109.671 202.665C109.491 202.74 109.306 202.788 109.112 202.819C109.231 202.801 109.35 202.788 109.469 202.77C109.244 202.801 109.024 202.801 108.799 202.77C108.918 202.788 109.037 202.801 109.156 202.819C108.949 202.788 108.746 202.735 108.552 202.651C108.658 202.696 108.764 202.74 108.874 202.788C108.707 202.718 108.552 202.625 108.411 202.519C108.504 202.59 108.592 202.66 108.685 202.731C108.566 202.634 108.456 202.528 108.359 202.409C108.156 202.158 107.72 202.017 107.411 202.017C107.081 202.017 106.689 202.162 106.464 202.409C106.231 202.665 106.055 203 106.072 203.356C106.09 203.475 106.103 203.594 106.121 203.713C106.182 203.942 106.301 204.136 106.464 204.304H106.455Z" fill="#B58D59"/>
<path d="M116.579 207.797C116.795 207.925 117.037 208.022 117.275 208.11C117.421 208.163 117.566 208.194 117.716 208.216C117.971 208.251 118.227 208.295 118.487 208.282C118.672 208.273 118.853 208.242 119.033 208.216C119.112 208.203 119.187 208.19 119.262 208.167C119.439 208.128 119.588 208.044 119.716 207.93C119.861 207.837 119.976 207.709 120.06 207.555C120.157 207.401 120.209 207.234 120.218 207.057C120.258 206.881 120.249 206.7 120.196 206.524C120.091 206.198 119.892 205.885 119.579 205.722C119.258 205.551 118.905 205.493 118.549 205.586C118.469 205.608 118.386 205.621 118.306 205.634C118.425 205.617 118.544 205.603 118.663 205.586C118.469 205.612 118.28 205.612 118.086 205.586C118.205 205.603 118.324 205.617 118.443 205.634C118.249 205.608 118.064 205.559 117.883 205.485C117.989 205.529 118.095 205.573 118.205 205.621C118.112 205.581 118.02 205.537 117.936 205.485C117.782 205.388 117.615 205.335 117.438 205.326C117.262 205.286 117.082 205.295 116.905 205.348C116.729 205.388 116.579 205.471 116.452 205.586C116.306 205.678 116.192 205.806 116.108 205.96C115.945 206.273 115.861 206.648 115.971 206.991C116.077 207.326 116.28 207.612 116.588 207.793L116.579 207.797Z" fill="#B58D59"/>
<path d="M105.53 207.982C105.508 208.167 105.552 208.365 105.583 208.542C105.592 208.577 105.601 208.612 105.61 208.643C105.658 208.779 105.715 208.916 105.781 209.048C105.865 209.207 105.988 209.352 106.103 209.484C106.222 209.617 106.381 209.727 106.521 209.828C106.667 209.934 106.852 209.995 107.015 210.061C107.081 210.088 107.151 210.11 107.222 210.119C107.341 210.136 107.526 210.172 107.671 210.172C107.817 210.172 107.997 210.136 108.121 210.119C108.301 210.092 108.478 210 108.632 209.925C108.786 209.841 108.914 209.727 109.006 209.581C109.125 209.454 109.204 209.299 109.244 209.128C109.301 208.951 109.306 208.771 109.266 208.594C109.257 208.418 109.204 208.251 109.108 208.097C109.037 208.004 108.967 207.916 108.896 207.823C108.729 207.656 108.53 207.542 108.306 207.48C108.187 207.462 108.068 207.449 107.949 207.431C107.707 207.431 107.482 207.493 107.27 207.616C107.262 207.616 107.253 207.625 107.244 207.63C107.35 207.586 107.455 207.542 107.566 207.493C107.513 207.515 107.455 207.528 107.398 207.537C107.517 207.519 107.636 207.506 107.755 207.489C107.693 207.497 107.632 207.493 107.57 207.489C107.689 207.506 107.808 207.519 107.927 207.537C107.856 207.528 107.786 207.506 107.72 207.48C107.826 207.524 107.931 207.568 108.041 207.616C107.971 207.586 107.905 207.546 107.843 207.497C107.936 207.568 108.024 207.638 108.116 207.709C108.059 207.665 108.006 207.612 107.962 207.555C108.033 207.647 108.103 207.735 108.174 207.828C108.134 207.775 108.099 207.718 108.072 207.656C108.116 207.762 108.16 207.868 108.209 207.978C108.187 207.92 108.169 207.859 108.16 207.797C108.178 207.916 108.191 208.035 108.209 208.154C108.204 208.101 108.204 208.048 108.209 207.991C108.218 207.806 108.178 207.634 108.094 207.475C108.041 207.308 107.949 207.167 107.817 207.044C107.693 206.912 107.552 206.819 107.385 206.766C107.226 206.682 107.055 206.643 106.87 206.652C106.751 206.669 106.632 206.682 106.513 206.7C106.284 206.762 106.09 206.881 105.922 207.044C105.852 207.136 105.781 207.224 105.711 207.317C105.588 207.524 105.53 207.753 105.526 207.995L105.53 207.982Z" fill="#B58D59"/>
<path d="M113.447 212.916C114.54 212.806 115.628 212.696 116.72 212.586C117.086 212.551 117.399 212.463 117.667 212.194C117.901 211.96 118.077 211.581 118.06 211.247C118.042 210.899 117.932 210.542 117.667 210.299C117.421 210.075 117.068 209.872 116.72 209.907C115.628 210.017 114.54 210.128 113.447 210.238C113.081 210.273 112.768 210.361 112.5 210.63C112.266 210.863 112.09 211.242 112.108 211.577C112.125 211.925 112.235 212.282 112.5 212.524C112.746 212.749 113.099 212.952 113.447 212.916Z" fill="#B58D59"/>
<path d="M102.46 212.234C102.46 212.234 102.46 212.243 102.455 212.247C102.411 212.339 102.354 212.48 102.319 212.573C102.319 212.582 102.314 212.586 102.31 212.595C102.305 212.608 102.301 212.626 102.297 212.643C102.279 212.745 102.261 212.903 102.248 213.005C102.248 213.005 102.248 213.014 102.248 213.018C102.248 213.027 102.248 213.036 102.248 213.04C102.248 213.058 102.248 213.071 102.248 213.088C102.261 213.194 102.279 213.344 102.297 213.45C102.297 213.45 102.297 213.458 102.297 213.463C102.297 213.472 102.297 213.476 102.301 213.485C102.301 213.498 102.31 213.516 102.314 213.529C102.358 213.648 102.407 213.771 102.464 213.886C102.473 213.903 102.482 213.917 102.49 213.93C102.53 213.987 102.578 214.049 102.618 214.102C102.658 214.155 102.706 214.221 102.755 214.274C102.763 214.287 102.777 214.296 102.79 214.304C102.794 214.309 102.803 214.313 102.808 214.322C102.9 214.397 102.997 214.476 103.094 214.542C103.12 214.56 103.147 214.578 103.178 214.591C103.288 214.639 103.402 214.688 103.512 214.732C103.521 214.732 103.526 214.736 103.534 214.741C103.552 214.745 103.565 214.749 103.583 214.754C103.715 214.776 103.852 214.802 103.984 214.807C104.059 214.807 104.147 214.789 104.209 214.78C104.27 214.771 104.367 214.767 104.438 214.745C104.446 214.745 104.455 214.741 104.464 214.736C104.557 214.701 104.698 214.639 104.79 214.6C104.794 214.6 104.803 214.595 104.808 214.591C104.962 214.507 105.09 214.392 105.182 214.247C105.301 214.119 105.38 213.965 105.42 213.793C105.477 213.617 105.482 213.436 105.442 213.26C105.433 213.084 105.38 212.917 105.283 212.762C105.213 212.67 105.142 212.582 105.072 212.489C104.905 212.322 104.706 212.207 104.482 212.146C104.363 212.128 104.244 212.115 104.125 212.097C103.883 212.097 103.658 212.159 103.446 212.282C103.438 212.282 103.433 212.291 103.424 212.291C103.53 212.247 103.636 212.203 103.746 212.154C103.719 212.163 103.697 212.172 103.671 212.176C103.79 212.159 103.909 212.146 104.028 212.128C104.001 212.128 103.975 212.128 103.944 212.128C104.063 212.146 104.182 212.159 104.301 212.176C104.266 212.172 104.235 212.163 104.204 212.15C104.31 212.194 104.416 212.238 104.526 212.287C104.49 212.273 104.455 212.251 104.424 212.229C104.517 212.3 104.605 212.37 104.698 212.441C104.667 212.414 104.636 212.388 104.609 212.353C104.68 212.445 104.75 212.533 104.821 212.626C104.799 212.595 104.777 212.564 104.764 212.529C104.808 212.635 104.852 212.74 104.9 212.851C104.887 212.82 104.878 212.789 104.874 212.754C104.891 212.873 104.905 212.992 104.922 213.11C104.922 213.08 104.922 213.053 104.922 213.022C104.905 213.141 104.891 213.26 104.874 213.379C104.874 213.353 104.883 213.326 104.896 213.304C104.852 213.41 104.808 213.516 104.759 213.626C104.759 213.622 104.764 213.613 104.768 213.608C104.865 213.454 104.918 213.287 104.927 213.11C104.966 212.934 104.957 212.754 104.905 212.577C104.865 212.401 104.781 212.251 104.667 212.124C104.574 211.978 104.446 211.864 104.292 211.78C104.186 211.736 104.081 211.692 103.971 211.643C103.733 211.582 103.495 211.582 103.257 211.643C103.151 211.687 103.045 211.732 102.935 211.78C102.733 211.899 102.574 212.058 102.455 212.26L102.46 212.234Z" fill="#B58D59"/>
<path d="M107.081 227.799C107.178 227.979 107.31 228.138 107.438 228.301C107.499 228.38 107.57 228.451 107.645 228.517C107.795 228.649 107.953 228.777 108.125 228.882C108.301 228.992 108.499 229.067 108.689 229.142C108.971 229.257 109.288 229.301 109.588 229.318C109.685 229.323 109.777 229.318 109.874 229.31C110.085 229.288 110.306 229.266 110.508 229.2C110.839 229.094 111.13 228.887 111.31 228.583C111.407 228.429 111.46 228.261 111.469 228.085C111.508 227.909 111.5 227.728 111.447 227.552C111.341 227.226 111.143 226.913 110.83 226.75C110.517 226.587 110.143 226.503 109.799 226.613C109.715 226.64 109.632 226.658 109.544 226.671C109.663 226.653 109.781 226.64 109.9 226.622C109.764 226.64 109.623 226.64 109.486 226.622C109.605 226.64 109.724 226.653 109.843 226.671C109.689 226.649 109.535 226.609 109.389 226.547C109.495 226.591 109.601 226.636 109.711 226.684C109.583 226.627 109.464 226.556 109.35 226.472C109.442 226.543 109.53 226.613 109.623 226.684C109.513 226.6 109.416 226.503 109.328 226.393C109.398 226.486 109.469 226.574 109.539 226.666C109.486 226.596 109.442 226.525 109.398 226.446C109.248 226.155 108.905 225.917 108.596 225.829C108.42 225.772 108.24 225.768 108.063 225.807C107.887 225.816 107.72 225.869 107.566 225.966C107.279 226.151 107.028 226.424 106.949 226.768C106.865 227.129 106.913 227.468 107.085 227.799H107.081Z" fill="#B58D59"/>
<path d="M115.764 228.565C116.139 228.728 116.5 228.878 116.905 228.939C117.311 229.001 117.707 229.049 118.117 229.014C118.923 228.939 119.712 228.719 120.394 228.265C120.685 228.071 120.914 227.811 121.011 227.463C121.099 227.142 121.06 226.714 120.875 226.432C120.69 226.146 120.416 225.895 120.073 225.816C119.734 225.736 119.337 225.75 119.042 225.952C118.853 226.08 118.659 226.186 118.447 226.274C118.553 226.23 118.659 226.186 118.769 226.137C118.496 226.247 118.209 226.322 117.919 226.366C118.038 226.349 118.156 226.336 118.275 226.318C117.963 226.358 117.654 226.358 117.341 226.318C117.46 226.336 117.579 226.349 117.698 226.366C117.403 226.327 117.121 226.252 116.848 226.137C116.954 226.181 117.059 226.225 117.17 226.274C117.152 226.265 117.139 226.261 117.121 226.252C116.967 226.155 116.8 226.102 116.623 226.093C116.447 226.054 116.266 226.062 116.09 226.115C115.777 226.199 115.443 226.441 115.288 226.732C115.125 227.045 115.042 227.419 115.152 227.763C115.253 228.071 115.456 228.428 115.769 228.565H115.764Z" fill="#B58D59"/>
<path d="M112.169 231.662C112.429 231.979 112.773 232.248 113.134 232.437C113.628 232.697 114.099 232.821 114.65 232.887C115.46 232.984 116.394 232.772 117.059 232.283C117.35 232.067 117.575 231.843 117.676 231.481C117.764 231.16 117.725 230.732 117.54 230.45C117.355 230.164 117.081 229.913 116.738 229.834C116.407 229.759 115.989 229.759 115.707 229.97C115.566 230.072 115.421 230.16 115.262 230.226C115.368 230.182 115.473 230.138 115.584 230.089C115.385 230.173 115.178 230.226 114.962 230.257C115.081 230.239 115.2 230.226 115.319 230.208C115.09 230.235 114.861 230.235 114.632 230.204C114.751 230.221 114.87 230.235 114.989 230.252C114.773 230.221 114.566 230.164 114.368 230.08C114.473 230.124 114.579 230.168 114.689 230.217C114.504 230.138 114.332 230.041 114.169 229.917C114.262 229.988 114.35 230.058 114.443 230.129C114.306 230.023 114.183 229.904 114.072 229.768C113.87 229.516 113.434 229.375 113.125 229.375C112.795 229.375 112.403 229.521 112.178 229.768C111.945 230.023 111.768 230.358 111.786 230.715C111.804 230.834 111.817 230.953 111.834 231.072C111.896 231.301 112.015 231.495 112.178 231.662H112.169Z" fill="#B58D59"/>
<path d="M123.945 229.477C124.029 229.653 124.166 229.807 124.289 229.957C124.342 230.019 124.404 230.076 124.465 230.129C124.619 230.248 124.769 230.384 124.95 230.468C125.126 230.552 125.307 230.635 125.496 230.684C125.69 230.732 125.893 230.759 126.086 230.768C126.285 230.781 126.492 230.741 126.681 230.71C126.765 230.697 126.849 230.675 126.928 230.644C127.109 230.574 127.302 230.503 127.465 230.389C127.62 230.305 127.747 230.19 127.84 230.045C127.959 229.917 128.038 229.763 128.078 229.591C128.135 229.415 128.139 229.234 128.1 229.058C128.091 228.882 128.038 228.715 127.941 228.56C127.756 228.274 127.483 228.023 127.139 227.944C126.805 227.869 126.399 227.873 126.108 228.08C126.047 228.124 125.981 228.16 125.91 228.19C126.016 228.146 126.122 228.102 126.232 228.054C126.144 228.089 126.051 228.115 125.954 228.129C126.073 228.111 126.192 228.098 126.311 228.08C126.205 228.093 126.104 228.093 126.003 228.08C126.122 228.098 126.241 228.111 126.36 228.129C126.249 228.111 126.144 228.085 126.038 228.041C126.144 228.085 126.249 228.129 126.36 228.177C126.263 228.137 126.175 228.085 126.091 228.023C126.183 228.093 126.271 228.164 126.364 228.234C126.289 228.177 126.219 228.107 126.161 228.032C126.232 228.124 126.302 228.212 126.373 228.305C126.333 228.248 126.298 228.19 126.267 228.129C126.183 227.974 126.069 227.847 125.923 227.754C125.796 227.635 125.641 227.556 125.47 227.516C125.293 227.459 125.113 227.455 124.937 227.494C124.76 227.503 124.593 227.556 124.439 227.653C124.152 227.838 123.901 228.111 123.822 228.455C123.804 228.574 123.791 228.693 123.774 228.812C123.774 229.054 123.835 229.279 123.959 229.49L123.945 229.477Z" fill="#B58D59"/>
<path d="M119.857 234.314C120.676 234.772 121.628 234.896 122.54 234.675C122.716 234.636 122.866 234.552 122.994 234.438C123.139 234.345 123.254 234.217 123.337 234.063C123.434 233.909 123.487 233.742 123.496 233.565C123.536 233.389 123.527 233.208 123.474 233.032C123.368 232.706 123.17 232.393 122.857 232.23C122.531 232.059 122.188 232.006 121.826 232.094C121.743 232.111 121.663 232.129 121.58 232.142C121.699 232.125 121.817 232.111 121.936 232.094C121.743 232.116 121.544 232.116 121.351 232.094C121.469 232.111 121.588 232.125 121.707 232.142C121.505 232.116 121.306 232.063 121.117 231.984C121.223 232.028 121.328 232.072 121.439 232.12C121.359 232.085 121.284 232.05 121.214 232.01C120.906 231.838 120.522 231.781 120.183 231.874C120.007 231.913 119.857 231.997 119.729 232.111C119.584 232.204 119.469 232.332 119.386 232.486C119.223 232.799 119.139 233.173 119.249 233.517C119.355 233.847 119.557 234.147 119.866 234.319L119.857 234.314Z" fill="#B58D59"/>
<path d="M77.9427 128.947C79.4362 128.33 80.7931 127.528 81.9077 126.334C82.4408 125.762 82.8945 125.119 83.3175 124.466C83.3748 124.378 83.432 124.286 83.4937 124.198C83.4629 124.242 83.4276 124.286 83.3968 124.33C83.4452 124.281 83.4937 124.233 83.5422 124.185C83.3792 124.281 83.2206 124.383 83.0576 124.48C82.758 124.563 82.4232 124.348 82.8108 124.568C82.9915 124.669 83.2206 124.726 83.4144 124.801C86.7053 126.088 90.2386 126.321 93.7101 125.81C94.9305 125.63 95.6001 124.088 95.3049 123.004C94.9437 121.695 93.7234 121.228 92.4986 121.409C91.3223 121.581 89.4984 121.572 88.3266 121.405C87.5292 121.29 86.7406 121.101 85.9696 120.867C85.1986 120.634 84.4497 120.237 83.6611 120.074C82.4892 119.832 81.3967 120.061 80.4715 120.832C79.912 121.299 79.5375 121.92 79.1366 122.524C78.9031 122.872 79.0353 122.7 78.7533 123.013C78.511 123.281 78.2511 123.533 77.978 123.766C77.9251 123.81 77.6828 123.986 77.8678 123.854C77.7357 123.947 77.6035 124.035 77.4669 124.123C77.2951 124.229 77.1233 124.33 76.9427 124.422C76.8986 124.444 76.4492 124.66 76.7224 124.546C75.5858 125.017 74.7751 126.057 75.1276 127.352C75.4228 128.427 76.7885 129.418 77.9339 128.947H77.9427Z" fill="#462902"/>
<path d="M82.9738 153.517C82.8373 153.891 83.0928 153.305 83.1148 153.266C83.3042 152.926 83.0619 153.288 83.2073 153.116C83.3263 152.979 83.454 152.852 83.5906 152.733C84.0488 152.323 83.2954 152.882 83.8285 152.57C83.9871 152.477 84.1457 152.385 84.3131 152.31C84.6479 152.156 83.8549 152.433 84.4893 152.257C84.6656 152.208 84.8462 152.164 85.0268 152.12C85.2647 152.063 84.7713 152.103 85.1854 152.098C85.4057 152.098 85.6216 152.094 85.8418 152.098C86.2604 152.111 85.7537 152.059 85.9916 152.129C86.1634 152.182 86.3441 152.217 86.5115 152.279C86.1194 152.133 86.7097 152.402 86.7494 152.424C87.0886 152.627 86.7141 152.363 86.9124 152.548C87.0754 152.697 87.2296 152.852 87.3926 153.001C87.8155 153.402 88.2649 153.799 88.7583 154.116C89.9214 154.861 91.3488 154.913 92.5779 154.31C92.7717 154.213 93.0669 154.112 93.2079 153.949C93.4502 153.671 93.0625 153.962 93.0625 153.962C93.578 154.213 94.2432 154.297 94.8027 154.367C97.1905 154.684 99.5122 153.869 101.274 152.244C102.182 151.407 102.12 149.865 101.274 149.019C100.371 148.116 98.9571 148.182 98.0496 149.019C97.5606 149.468 96.7808 149.821 96.2081 149.873C95.1463 149.979 94.2344 149.354 93.0361 149.367C92.2695 149.376 91.4016 149.609 90.7848 150.08C90.5425 150.266 90.406 150.173 90.8025 150.213C91.3091 150.266 91.0624 150.274 90.9567 150.103C90.873 149.966 90.3267 149.477 90.0491 149.23C89.657 148.887 89.2341 148.565 88.7715 148.323C84.9299 146.305 80.053 148.287 78.5815 152.301C78.1586 153.46 79.0573 154.799 80.1763 155.107C81.4495 155.455 82.5553 154.675 82.9826 153.512L82.9738 153.517Z" fill="#462902"/>
<path d="M88.5689 174.698C89.6923 174.474 90.4677 173.606 91.0713 172.698C91.1858 172.526 91.296 172.354 91.3973 172.174C91.5383 171.936 91.785 171.896 91.4105 172.117C91.4413 172.081 91.4766 172.05 91.5074 172.015C90.8378 172.601 90.0888 172.61 89.2562 172.042C89.3443 172.218 89.5602 172.381 89.7012 172.504C91.5471 174.156 93.6529 173.143 95.4944 172.143C95.6618 172.051 95.8293 171.962 96.0055 171.879C96.1597 171.808 96.1156 171.821 95.8821 171.927C95.9658 171.896 96.0495 171.87 96.1332 171.848C96.6046 171.808 96.1817 171.817 95.9526 171.808C95.7544 171.769 95.7588 171.773 95.9614 171.821C95.816 171.786 95.6839 171.724 95.5737 171.628C95.5429 171.584 95.5077 171.535 95.4768 171.491C95.5561 171.61 95.631 171.729 95.7015 171.852C95.8116 172.033 95.913 172.218 96.0319 172.399C96.3932 172.945 96.8381 173.451 97.4064 173.791C98.6973 174.557 100.006 174.152 101.385 174.029C102.72 173.91 104.094 173.896 105.425 174.095C106.64 174.275 107.878 173.791 108.231 172.5C108.526 171.425 107.865 169.879 106.636 169.694C105.112 169.464 103.592 169.328 102.05 169.416C101.235 169.46 100.433 169.592 99.6224 169.694C99.433 169.716 99.4021 169.724 99.5255 169.716C99.1026 169.707 99.1642 169.751 99.7061 169.852C99.8515 169.94 100.067 170.31 99.8559 169.918C99.2568 168.812 98.4285 167.795 97.1774 167.425C96.0319 167.09 94.9173 167.389 93.8776 167.865C93.4987 168.037 93.1375 168.24 92.7762 168.442C92.6088 168.535 92.4414 168.627 92.274 168.716C92.1947 168.755 91.6616 169.068 92.1683 168.782C91.8423 168.962 91.8114 168.786 92.155 168.848C91.7409 168.777 92.6396 169.077 92.7013 169.09C92.8599 169.227 92.8423 169.196 92.6441 168.993C92.5471 168.865 92.437 168.755 92.3004 168.667C91.9656 168.376 91.5955 168.138 91.1638 168.019C89.7452 167.636 88.5513 168.337 87.7363 169.464C87.538 169.738 87.3618 170.028 87.1812 170.315C87.005 170.597 86.8728 170.575 87.1283 170.412C86.6437 170.711 87.8949 170.183 87.353 170.293C86.1459 170.535 85.4498 171.971 85.7582 173.099C86.1062 174.359 87.353 174.936 88.5645 174.694L88.5689 174.698Z" fill="#462902"/>
<path d="M96.4768 197.863C97.0759 197.246 96.6574 197.73 96.653 197.735C96.5825 197.788 96.164 197.607 96.816 197.823C96.2829 196.889 95.7543 195.951 95.2212 195.017C94.7983 197.087 95.7807 199.211 97.8381 199.964C98.2654 200.123 98.7192 200.215 99.1818 200.22C99.4902 200.22 99.825 200.158 100.129 200.105C100.411 200.057 100.547 200.132 100.248 200.057C101.411 200.343 102.27 200.563 103.482 200.268C104.327 200.061 105.116 199.792 105.993 199.735C106.971 199.673 107.953 199.713 108.927 199.779C111.063 199.916 113.2 200.092 115.337 200.25C116.566 200.343 117.619 199.136 117.619 197.968C117.619 196.66 116.57 195.779 115.337 195.686C112.152 195.453 108.821 194.911 105.627 195.202C104.759 195.281 103.891 195.409 103.05 195.638C102.486 195.792 102.27 195.898 101.755 195.761C101.332 195.647 100.997 195.537 100.534 195.515C100.393 195.506 99.2523 195.567 99.2479 195.647C99.2479 195.647 99.4329 195.757 99.6267 195.867C99.7016 195.911 99.6267 196.18 99.6135 196.233C99.869 194.981 99.2567 193.832 98.0187 193.426C96.3226 192.871 94.4767 193.373 93.2431 194.642C91.1901 196.744 94.415 199.973 96.468 197.867L96.4768 197.863Z" fill="#462902"/>
<path d="M104.737 221.304C105.107 221.018 106.442 220.009 106.914 220.26C106.975 220.296 107.16 220.622 107.24 220.736C107.689 221.357 108.151 221.943 108.808 222.362C109.949 223.084 111.271 223.119 112.57 223.027C113.932 222.93 115.222 222.97 116.544 223.335C116.896 223.432 117.121 223.463 117.302 223.675C117.672 224.115 117.826 224.697 118.249 225.128C119.337 226.239 121.02 226.503 122.395 225.776C123.562 225.159 124.381 224.023 124.699 222.749C124.87 222.058 124.813 221.313 124.981 220.626C125.197 219.749 125.034 220.714 124.5 220.503C125.646 220.956 127.003 220.005 127.307 218.908C127.664 217.613 126.866 216.555 125.712 216.101C124.196 215.502 122.531 216.247 121.549 217.441C120.553 218.652 120.522 220.053 120.298 221.533C120.236 221.93 120.13 221.767 120.253 221.789C120.359 221.648 120.509 221.6 120.707 221.639C121.483 222.19 121.751 222.274 121.509 221.89C121.381 221.357 120.839 220.661 120.474 220.304C119.359 219.212 117.654 218.824 116.161 218.599C114.645 218.37 113.227 218.489 111.707 218.511C111.561 218.511 111.006 218.401 111.24 218.52C111.495 218.652 111.165 218.41 111.081 218.295C110.601 217.621 110.138 216.978 109.447 216.502C106.768 214.652 103.72 216.344 101.504 218.071C100.53 218.828 100.706 220.503 101.504 221.296C102.464 222.256 103.755 222.058 104.728 221.296L104.737 221.304Z" fill="#462902"/>
<path d="M89.4631 76.4811C103.534 73.3708 118.086 72.6131 132.408 74.2255C139.171 74.9833 145.951 76.23 152.48 78.1597C157.7 79.7016 162.992 81.8471 167.168 85.4244C169.476 87.4025 171.38 89.7815 172.635 92.5613C174.014 95.6144 174.803 98.826 177.023 101.425C178.147 102.738 180.032 100.835 178.918 99.5309C176.895 97.1607 176.213 93.9887 174.948 91.2088C173.794 88.6713 172.098 86.3848 170.089 84.4596C165.961 80.5034 160.639 78.0055 155.264 76.2256C148.881 74.111 142.175 72.8334 135.519 71.9346C128.201 70.9478 120.813 70.5557 113.434 70.7892C105.129 71.0535 96.8556 72.1064 88.745 73.8995C87.0621 74.2696 87.7758 76.8556 89.4587 76.4811H89.4631Z" fill="#206F4E"/>
<path d="M53.6418 11.5967C55.6419 15.1387 54.7344 19.4253 53.8973 23.17C53.7079 24.0115 54.9987 24.3683 55.1881 23.5269C56.1089 19.4077 56.99 14.8039 54.8005 10.9226C54.3775 10.1737 53.2189 10.8477 53.6418 11.5967Z" fill="#069457"/>
<path d="M57.5054 12.4294C59.9813 16.5178 59.6949 21.8793 56.8578 25.7121C56.3467 26.4038 57.5054 27.0734 58.0164 26.3862C61.1223 22.1877 61.3646 16.2094 58.6641 11.751C58.2191 11.0153 57.0604 11.6849 57.5054 12.425V12.4294Z" fill="#069457"/>
<path d="M68.5457 22.7957C68.8497 27.7387 68.1888 32.6641 66.6028 37.356C66.3253 38.1754 67.6205 38.5234 67.8937 37.7128C69.5149 32.9196 70.1933 27.8444 69.885 22.7957C69.8321 21.941 68.4928 21.9322 68.5457 22.7957Z" fill="#069457"/>
<path d="M71.8498 24.9809C72.3388 29.7036 71.7926 34.4439 70.2374 38.9288C69.9554 39.7438 71.2463 40.0962 71.5282 39.2856C73.1186 34.7039 73.6869 29.8049 73.1891 24.9809C73.101 24.1306 71.7617 24.1218 71.8498 24.9809Z" fill="#069457"/>
<path d="M75.8809 30.4612C75.5681 35.3734 75.2598 40.2855 74.947 45.1977C74.8941 46.0568 76.2334 46.0568 76.2862 45.1977L77.2202 30.4612C77.2731 29.6021 75.9338 29.6021 75.8809 30.4612Z" fill="#069457"/>
<path d="M44.4298 18.1873C44.3681 13.4778 40.8084 9.84766 40.2313 5.27913C40.1256 4.43767 38.7819 4.42445 38.892 5.27913C39.1828 7.5656 40.13 9.62739 41.1036 11.6892C42.0772 13.7466 43.0597 15.8656 43.0905 18.1873C43.0993 19.0464 44.443 19.0508 44.4298 18.1873Z" fill="#069457"/>
<path d="M36.7421 7.07641C37.8435 10.9004 38.848 14.7509 39.7643 18.6277C39.9626 19.4648 41.2534 19.1123 41.0552 18.2709C40.1388 14.3984 39.1299 10.548 38.033 6.71956C37.7951 5.89132 36.5042 6.24377 36.7421 7.07641Z" fill="#069457"/>
<path d="M47.897 22.3019C42.5223 22.2843 37.1431 22.2667 31.7683 22.2446C30.9049 22.2446 30.9049 23.5795 31.7683 23.5839C37.1431 23.6015 42.5223 23.6192 47.897 23.6412C48.7605 23.6412 48.7605 22.3063 47.897 22.3019Z" fill="#069457"/>
<path d="M49.8926 24.2539C44.1698 25.1967 38.3413 25.3024 32.5877 24.6152C31.733 24.5138 31.7418 25.8531 32.5877 25.9544C38.469 26.6549 44.4033 26.5051 50.2494 25.5447C51.0997 25.4037 50.7385 24.1129 49.8926 24.2539Z" fill="#069457"/>
<path d="M59.7434 31.9764C52.7386 33.6814 45.5003 34.0735 38.3501 33.1703C37.4954 33.0602 37.5042 34.4039 38.3501 34.5096C45.6148 35.4304 52.9809 35.003 60.0958 33.2717C60.9329 33.069 60.5804 31.7738 59.739 31.9808L59.7434 31.9764Z" fill="#069457"/>
<path d="M62.519 34.8581C54.8754 36.8891 46.8793 37.29 39.0727 35.9991C38.2313 35.8582 37.8656 37.149 38.7159 37.29C46.7648 38.6204 54.9855 38.246 62.8714 36.1489C63.7041 35.9286 63.3516 34.6334 62.5146 34.8581H62.519Z" fill="#069457"/>
<path d="M51.8091 47.0083C59.1399 48.5811 66.6558 49.0877 74.1319 48.493C74.9866 48.4269 74.991 47.0832 74.1319 47.1537C66.7747 47.7396 59.3822 47.2682 52.166 45.7175C51.3245 45.5368 50.9676 46.8277 51.8091 47.0083Z" fill="#069457"/>
<path d="M54.0206 50.4444C61.9065 51.9952 69.929 52.7133 77.9647 52.5767C78.8238 52.5635 78.8282 51.2242 77.9647 51.2374C70.048 51.374 62.1444 50.6779 54.3731 49.1536C53.5316 48.9862 53.1703 50.277 54.0162 50.4444H54.0206Z" fill="#069457"/>
<path d="M32.9577 49.4269C38.8876 50.6561 44.2667 54.0616 47.8484 58.9561C48.3507 59.6434 49.5137 58.9781 49.0071 58.2821C45.2227 53.11 39.6013 49.4402 33.3146 48.1361C32.4731 47.9599 32.1119 49.2507 32.9577 49.4269Z" fill="#069457"/>
<path d="M37.8876 48.8232C44.6369 49.9863 50.646 54.1451 54.078 60.0793C54.5097 60.8239 55.6684 60.1498 55.2366 59.4053C51.6461 53.1979 45.3154 48.7571 38.2445 47.5368C37.403 47.3914 37.0374 48.6822 37.8876 48.8276V48.8232Z" fill="#069457"/>
<path d="M32.6054 51.6784C36.0593 53.8283 39.3238 56.2602 42.3636 58.9652C43.0068 59.5379 43.9584 58.5907 43.3108 58.018C40.1873 55.2425 36.8303 52.7314 33.2794 50.5242C32.5437 50.066 31.874 51.2247 32.6054 51.6828V51.6784Z" fill="#069457"/>
<path d="M21.1112 61.8022C24.6621 61.8286 28.1469 62.7582 31.2396 64.5116C31.9885 64.9389 32.667 63.7803 31.9136 63.3529C28.6227 61.485 24.8956 60.4849 21.1112 60.4585C20.2478 60.4541 20.2478 61.7934 21.1112 61.7978V61.8022Z" fill="#069457"/>
<path d="M13.0932 65.8377C17.3842 64.7715 21.9748 65.1856 25.9926 67.0492C26.768 67.4104 27.4509 66.2562 26.6667 65.8905C22.3096 63.8728 17.3974 63.3838 12.732 64.5468C11.8949 64.7539 12.2518 66.0447 13.0888 65.8377H13.0932Z" fill="#069457"/>
<path d="M12.5425 70.459C15.9921 69.8114 19.5473 70.0933 22.8647 71.2255C23.6841 71.5031 24.0322 70.2123 23.2215 69.9347C19.6707 68.7232 15.8687 68.4765 12.1857 69.1682C11.3398 69.3268 11.6967 70.6176 12.5425 70.459Z" fill="#069457"/>
<path d="M23.5608 77.0715C24.0938 78.9571 24.4375 80.8867 24.552 82.8472C24.6049 83.7988 24.6093 84.7548 24.5652 85.7064C24.5212 86.5831 24.4903 87.473 23.9396 88.1955C23.4154 88.8784 24.5784 89.548 25.0983 88.8696C25.6754 88.1162 25.8076 87.1734 25.8781 86.2527C25.953 85.1909 25.9618 84.1248 25.9089 83.0631C25.8032 80.9132 25.4463 78.7809 24.8604 76.7103C24.6269 75.882 23.3317 76.2345 23.5696 77.0671L23.5608 77.0715Z" fill="#069457"/>
<path d="M20.4681 81.2924C20.5651 84.0812 20.2038 86.8434 19.3932 89.5132C19.1421 90.3414 20.4329 90.6939 20.684 89.87C21.5255 87.0945 21.9043 84.1913 21.8074 81.2924C21.7766 80.4334 20.4373 80.429 20.4681 81.2924Z" fill="#069457"/>
<path d="M16.719 85.5436C17.2917 87.2662 17.3842 89.1033 16.9569 90.8655C16.7983 91.5263 17.5825 91.9713 18.0759 91.5175C18.2433 91.3633 18.4063 91.2135 18.5737 91.0593C18.8381 90.8126 18.8204 90.3589 18.5737 90.1121C18.3094 89.8478 17.8953 89.8654 17.6265 90.1121C17.4591 90.2663 17.2961 90.4161 17.1287 90.5703C17.5032 90.7862 17.8732 91.0065 18.2477 91.2223C18.7279 89.231 18.653 87.1296 18.0098 85.1868C17.8953 84.8431 17.5472 84.6184 17.186 84.7198C16.8512 84.8123 16.6044 85.2 16.719 85.5436Z" fill="#069457"/>
<path d="M40.9363 67.4765C43.2315 69.7718 43.8219 73.5253 42.302 76.4021C41.9011 77.1643 43.0553 77.8427 43.4606 77.0762C45.2581 73.6663 44.6149 69.2563 41.8834 66.5249C41.2711 65.917 40.3239 66.8597 40.9363 67.4721V67.4765Z" fill="#069457"/>
<path d="M36.7378 69.7587C39.2577 72.7016 39.8613 76.9617 38.4031 80.5258C38.0771 81.3232 39.3723 81.6712 39.6939 80.8826C41.3372 76.8648 40.4913 72.098 37.685 68.8159C37.1255 68.1595 36.1783 69.111 36.7378 69.7631V69.7587Z" fill="#069457"/>
<path d="M31.8608 72.1814C34.0592 74.186 34.4204 77.2698 34.1385 80.0806C34.0548 80.9308 33.9094 81.7723 33.7552 82.6137C33.645 83.1997 33.319 84.0147 33.6362 84.583C34.3235 85.8254 35.8258 84.2085 34.6936 83.5697C34.3764 83.3935 33.9622 83.4948 33.7772 83.812C33.7684 83.8297 33.7596 83.8429 33.7508 83.8605C33.3102 84.605 34.4689 85.2791 34.9094 84.5346C34.9182 84.5169 34.9271 84.5037 34.9359 84.4861C34.6319 84.5654 34.3235 84.6447 34.0195 84.7284C33.9358 84.5478 33.8521 84.3627 33.7684 84.1821L34.2354 83.7151C34.2354 83.7151 34.1913 83.7239 34.1693 83.7283C34.3411 83.7504 34.5129 83.7724 34.6847 83.7944C34.8125 84.116 34.8786 84.1292 34.883 83.8297C34.9138 83.6667 34.9447 83.5037 34.9755 83.3407C35.0372 83.0146 35.0989 82.6886 35.1561 82.3582C35.2663 81.7282 35.3632 81.0938 35.4381 80.455C35.5835 79.2083 35.6231 77.9483 35.4557 76.7015C35.1826 74.6485 34.3587 72.6528 32.808 71.2387C32.1736 70.6571 31.222 71.6043 31.8608 72.1858V72.1814Z" fill="#069457"/>
<path d="M58.294 66.1062C57.4437 69.3487 55.633 72.2564 53.1087 74.4635C52.4566 75.0319 53.4082 75.9746 54.0558 75.4107C56.7432 73.0626 58.6817 69.9126 59.5848 66.4631C59.8051 65.6304 58.5142 65.2736 58.294 66.1062Z" fill="#069457"/>
<path d="M60.7743 68.155C61.0254 70.6661 59.9901 73.1465 58.0252 74.7281C57.7433 74.9571 57.7874 75.4373 58.0252 75.6752C58.3028 75.9528 58.6905 75.9043 58.9724 75.6752C61.1796 73.8998 62.3999 70.9701 62.1136 68.155C62.0783 67.7937 61.8316 67.4854 61.4439 67.4854C61.1091 67.4854 60.7391 67.7937 60.7743 68.155Z" fill="#069457"/>
<path d="M65.4618 68.864C64.9508 70.5072 64.0168 71.9875 62.7568 73.1902C62.4925 73.4413 62.5057 73.8863 62.7568 74.1374C63.0167 74.3973 63.4397 74.3885 63.704 74.1374C65.1226 72.7893 66.1711 71.0888 66.757 69.2208C66.8628 68.8772 66.6293 68.4895 66.29 68.397C65.9288 68.3001 65.5763 68.5203 65.4662 68.864H65.4618Z" fill="#069457"/>
<path d="M98.2169 44.0257C105.178 44.6909 112.002 46.3342 118.518 48.8717C119.319 49.1845 119.667 47.8893 118.874 47.5809C112.244 44.9949 105.301 43.3648 98.2169 42.6864C97.3579 42.6027 97.3667 43.9464 98.2169 44.0257Z" fill="#069457"/>
<path d="M97.1023 47.2241C103.596 47.6162 110.028 48.6251 116.328 50.2375C117.165 50.4534 117.522 49.1581 116.685 48.9467C110.27 47.3034 103.715 46.2813 97.1023 45.8848C96.2432 45.832 96.2432 47.1712 97.1023 47.2241Z" fill="#069457"/>
<path d="M94.9172 49.6033C101.693 49.9029 108.403 50.969 114.94 52.7753C115.773 53.0044 116.125 51.7136 115.297 51.4845C108.649 49.6474 101.812 48.568 94.9216 48.264C94.0581 48.2244 94.0625 49.5637 94.9216 49.6033H94.9172Z" fill="#069457"/>
<path d="M103.107 22.6281C102.429 27.2671 101.75 31.9106 101.072 36.5496C100.948 37.391 102.239 37.7567 102.363 36.9064C103.041 32.2674 103.72 27.624 104.398 22.9849C104.521 22.1435 103.23 21.7778 103.107 22.6281Z" fill="#069457"/>
<path d="M101.539 21.5574C100.79 24.4386 99.1686 26.9894 98.4725 29.8927C97.7896 32.7475 97.728 35.686 98.217 38.5716C98.3624 39.4219 99.6532 39.0606 99.5078 38.2147C99.0276 35.3688 99.1598 32.4391 99.9175 29.6548C100.644 26.9762 102.133 24.5928 102.83 21.9099C103.045 21.0772 101.755 20.7204 101.539 21.553V21.5574Z" fill="#069457"/>
<path d="M95.1639 26.7473C93.1021 31.9106 93.851 38.0122 97.0891 42.5279C97.5869 43.224 98.75 42.5543 98.2478 41.8539C95.1903 37.5893 94.5119 31.9767 96.4591 27.1041C96.7807 26.3023 95.4855 25.9543 95.1683 26.7473H95.1639Z" fill="#069457"/>
<path d="M117.443 34.1309C119.068 32.0294 120.645 29.8751 122.342 27.831C123.108 26.9058 123.958 26.0996 125.038 25.5489C126.117 24.9982 127.302 24.6898 128.465 24.377C129.298 24.1523 128.946 22.8615 128.108 23.0862C126.923 23.4034 125.734 23.7382 124.619 24.2625C123.461 24.8088 122.487 25.615 121.65 26.5798C119.826 28.6812 118.2 30.9809 116.495 33.1793C115.976 33.8533 116.914 34.8093 117.443 34.1265V34.1309Z" fill="#069457"/>
<path d="M122.227 33.4439C125.487 30.849 129.302 29.0075 133.347 28.0251C134.184 27.8224 133.831 26.5272 132.99 26.7343C128.708 27.7784 124.725 29.7565 121.28 32.5011C120.606 33.0386 121.558 33.9814 122.227 33.4483V33.4439Z" fill="#069457"/>
<path d="M130.17 33.373C131.99 32.254 133.999 31.5227 136.109 31.1879C136.466 31.1306 136.664 30.6856 136.576 30.364C136.47 29.9807 136.109 29.8398 135.752 29.897C133.541 30.2451 131.404 31.0425 129.492 32.2144C128.761 32.6637 129.43 33.8224 130.166 33.373H130.17Z" fill="#069457"/>
<path d="M111.707 33.8489C114.544 29.4566 117.579 25.1964 120.809 21.0817C121.337 20.412 120.394 19.456 119.861 20.1345C116.562 24.3374 113.451 28.6856 110.548 33.1749C110.077 33.9018 111.24 34.5714 111.707 33.8489Z" fill="#069457"/>
<path d="M120.685 36.3428C125.461 37.9508 129.813 40.6337 133.404 44.167C134.021 44.7705 134.968 43.8278 134.351 43.2198C130.593 39.5235 126.034 36.7348 121.038 35.0519C120.218 34.7744 119.866 36.0696 120.681 36.3428H120.685Z" fill="#069457"/>
<path d="M117.289 37.5319C120.861 39.0782 124.258 40.999 127.426 43.2591C128.126 43.7613 128.796 42.5982 128.1 42.1004C124.932 39.836 121.536 37.9152 117.963 36.3732C117.178 36.034 116.496 37.1883 117.289 37.5319Z" fill="#069457"/>
<path d="M113.398 38.1928C115.958 39.911 118.518 41.6336 121.073 43.3561C121.791 43.8363 122.461 42.6777 121.747 42.1975C119.187 40.4793 116.628 38.7567 114.072 37.0342C113.354 36.554 112.685 37.7126 113.398 38.1928Z" fill="#069457"/>
<path d="M117.689 70.6927C121.853 67.5339 126.615 65.2959 131.712 64.1285C132.554 63.9346 132.197 62.6438 131.355 62.8376C126.161 64.0271 121.258 66.318 117.015 69.5385C116.337 70.0539 117.002 71.217 117.689 70.6971V70.6927Z" fill="#069457"/>
<path d="M114.332 70.9129C117.976 67.3048 122.302 64.4148 127.056 62.4719C127.844 62.1503 127.496 60.8551 126.699 61.1811C121.729 63.212 117.205 66.1814 113.385 69.9657C112.773 70.5737 113.72 71.5209 114.332 70.9129Z" fill="#069457"/>
<path d="M110.856 71.0051C114.42 67.7009 118.306 64.7757 122.461 62.2513C123.196 61.8063 122.522 60.6477 121.787 61.0926C117.54 63.6699 113.557 66.6789 109.909 70.0535C109.275 70.6394 110.226 71.5866 110.856 71.0007V71.0051Z" fill="#069457"/>
<path d="M135.651 71.2256C138.166 67.9303 142.175 65.8861 146.308 65.7319C147.167 65.7011 147.171 64.3618 146.308 64.3926C141.66 64.5644 137.312 66.8553 134.492 70.5471C133.968 71.23 135.131 71.8996 135.651 71.2212V71.2256Z" fill="#069457"/>
<path d="M138.298 72.1902C140.422 70.4368 142.819 68.9874 145.356 67.9213C145.691 67.7803 145.929 67.4763 145.823 67.0974C145.735 66.7846 145.334 66.4894 144.999 66.6304C142.228 67.7935 139.669 69.3354 137.347 71.2474C137.069 71.4765 137.109 71.9567 137.347 72.1946C137.624 72.4722 138.012 72.4237 138.294 72.1946L138.298 72.1902Z" fill="#069457"/>
<path d="M143.294 72.5431C145.739 70.1332 148.819 68.4768 152.167 67.7454C153.009 67.5604 152.652 66.2696 151.81 66.4546C148.242 67.2344 144.942 69.0319 142.343 71.5959C141.726 72.2038 142.673 73.151 143.29 72.5431H143.294Z" fill="#069457"/>
<path d="M130.937 73.6311C131.082 75.4594 131.417 77.2656 131.941 79.0234C132.188 79.8473 133.483 79.4948 133.232 78.6666C132.739 77.0233 132.413 75.3404 132.272 73.6311C132.241 73.2698 131.985 72.9614 131.602 72.9614C131.263 72.9614 130.902 73.2698 130.933 73.6311H130.937Z" fill="#069457"/>
<path d="M134.448 74.4593C134.237 78.0938 134.497 81.7372 135.21 85.3101C135.378 86.1559 136.668 85.7991 136.501 84.9532C135.814 81.4993 135.58 77.9749 135.787 74.4593C135.836 73.6002 134.497 73.6002 134.448 74.4593Z" fill="#069457"/>
<path d="M137.342 76.0406C138.351 77.1596 138.51 78.7368 138.545 80.1774C138.594 82.0057 138.55 83.8384 138.545 85.6667C138.545 86.5302 139.884 86.5302 139.884 85.6667C139.884 83.6842 139.964 81.6841 139.867 79.706C139.783 78.0363 139.44 76.371 138.285 75.0978C137.708 74.4546 136.761 75.4062 137.338 76.045L137.342 76.0406Z" fill="#069457"/>
<path d="M150.308 79.1335C151.467 79.8604 151.81 81.3539 151.885 82.6315C151.987 84.3761 151.757 86.1603 152.401 87.8344C152.709 88.6318 154.004 88.2838 153.691 87.4776C153.009 85.711 153.392 83.8166 153.163 81.9795C152.965 80.4067 152.383 78.8516 150.982 77.9793C150.251 77.5211 149.577 78.6797 150.308 79.1379V79.1335Z" fill="#069457"/>
<path d="M154.647 80.05C155.67 81.7418 156.322 83.6141 156.595 85.5702C156.643 85.927 157.101 86.1253 157.419 86.0372C157.806 85.9314 157.938 85.5746 157.886 85.2133C157.595 83.1515 156.877 81.1558 155.802 79.3716C155.357 78.6359 154.198 79.3055 154.643 80.0456L154.647 80.05Z" fill="#069457"/>
<path d="M159.062 82.4775C160.212 85.0591 161.097 87.7509 161.732 90.5043C161.925 91.3458 163.216 90.9889 163.022 90.1475C162.362 87.2795 161.414 84.4908 160.216 81.8034C160.071 81.473 159.586 81.3937 159.3 81.5611C158.96 81.7594 158.912 82.147 159.057 82.4775H159.062Z" fill="#069457"/>
<path d="M115.799 75.0585C118.002 75.7854 119.645 77.79 120.011 80.0941C120.068 80.4509 120.513 80.6492 120.835 80.561C121.214 80.4553 121.359 80.0941 121.302 79.7372C120.87 76.9837 118.786 74.6312 116.156 73.7633C115.813 73.6488 115.425 73.8955 115.332 74.2303C115.231 74.5959 115.456 74.9396 115.799 75.0541V75.0585Z" fill="#069457"/>
<path d="M114.456 74.336C115.535 75.7061 116.262 77.3185 116.628 79.0191C116.703 79.3715 117.117 79.5786 117.451 79.4861C117.817 79.3847 117.998 79.0191 117.918 78.6622C117.5 76.7282 116.623 74.9396 115.403 73.3888C115.178 73.1024 114.689 73.1553 114.456 73.3888C114.174 73.6708 114.231 74.0496 114.456 74.336Z" fill="#069457"/>
<path d="M112.412 75.3714C112.46 75.3714 112.513 75.3714 112.561 75.3802C112.72 75.3934 112.487 75.3669 112.553 75.3802C112.641 75.3978 112.733 75.4154 112.821 75.4374C112.901 75.4595 112.984 75.4859 113.064 75.5167C113.068 75.5432 113.209 75.5696 113.064 75.5167C113.064 75.53 113.156 75.5608 113.178 75.5696C113.262 75.6093 113.341 75.6577 113.416 75.7062C113.46 75.7326 113.5 75.759 113.539 75.7899C113.579 75.8163 113.676 75.9044 113.539 75.7899C113.672 75.9088 113.808 76.019 113.927 76.1511C113.954 76.182 113.984 76.2172 114.011 76.2481C114.117 76.3758 113.949 76.1555 114.024 76.2657C114.073 76.3362 114.121 76.4067 114.165 76.4771C114.209 76.5476 114.249 76.6225 114.288 76.7018C114.293 76.715 114.328 76.812 114.341 76.8164C114.302 76.7195 114.297 76.7062 114.324 76.7723C114.332 76.7899 114.337 76.812 114.346 76.8296C114.407 76.997 114.451 77.1644 114.482 77.3406C114.509 77.4904 114.469 77.182 114.482 77.3318C114.482 77.3759 114.491 77.4155 114.491 77.4596C114.495 77.5609 114.491 77.6578 114.487 77.7592C114.465 78.1116 114.813 78.4464 115.156 78.4288C115.54 78.4112 115.799 78.1336 115.826 77.7592C115.954 75.8516 114.297 74.1158 112.412 74.0497C112.059 74.0365 111.724 74.3669 111.742 74.7193C111.76 75.0938 112.037 75.3758 112.412 75.389V75.3714Z" fill="#069457"/>
<path d="M111.226 86.5966C114.768 85.2264 118.615 84.7418 122.377 85.2617C123.218 85.3806 123.584 84.0898 122.734 83.9709C118.725 83.4158 114.65 83.8431 110.87 85.3057C110.072 85.6141 110.42 86.9094 111.226 86.5966Z" fill="#069457"/>
<path d="M114.473 88.1514C118.685 86.7196 123.196 86.4112 127.558 87.31C128.399 87.4818 128.76 86.191 127.915 86.0191C123.324 85.0764 118.557 85.3495 114.116 86.8606C113.306 87.1381 113.654 88.429 114.473 88.1514Z" fill="#069457"/>
<path d="M116.681 89.8344C120.267 89.1383 123.967 89.0767 127.571 89.6626C128.413 89.7992 128.778 88.5083 127.928 88.3718C124.069 87.7462 120.165 87.7991 116.324 88.5436C115.478 88.7066 115.835 89.9974 116.681 89.8344Z" fill="#069457"/>
<path d="M118.421 98.126C123.972 98.4212 129.355 100.505 133.642 104.047C134.303 104.593 135.254 103.651 134.589 103.1C130.016 99.3199 124.351 97.0995 118.421 96.7867C117.557 96.7427 117.562 98.0819 118.421 98.126Z" fill="#069457"/>
<path d="M120.976 101.351C126.633 102.765 131.955 105.228 136.704 108.615C137.409 109.118 138.078 107.955 137.378 107.457C132.545 104.012 127.091 101.5 121.333 100.055C120.496 99.844 120.139 101.139 120.976 101.346V101.351Z" fill="#069457"/>
<path d="M121.099 104.818C125.906 107.051 130.65 109.413 135.334 111.889C136.096 112.289 136.774 111.135 136.008 110.73C131.325 108.25 126.58 105.893 121.773 103.659C120.998 103.298 120.315 104.452 121.099 104.818Z" fill="#069457"/>
<path d="M120.694 115.048C118.8 118.982 117.306 123.101 116.253 127.339C116.046 128.176 117.337 128.533 117.544 127.696C118.566 123.568 120.002 119.554 121.848 115.722C122.218 114.951 121.064 114.268 120.69 115.048H120.694Z" fill="#069457"/>
<path d="M119.372 111.637C118.086 114.642 116.531 117.519 114.725 120.237C114.244 120.955 115.407 121.629 115.883 120.911C117.694 118.193 119.249 115.312 120.531 112.311C120.676 111.977 120.628 111.598 120.289 111.395C120.007 111.228 119.513 111.303 119.372 111.637Z" fill="#069457"/>
<path d="M119.901 108.73C117.892 111.091 115.685 113.276 113.31 115.268C113.033 115.501 113.072 115.977 113.31 116.215C113.583 116.488 113.98 116.448 114.257 116.215C116.632 114.224 118.839 112.038 120.848 109.677C121.082 109.404 121.117 108.999 120.848 108.73C120.606 108.488 120.139 108.452 119.901 108.73Z" fill="#069457"/>
<path d="M128.62 126.277C131.681 126.916 134.413 128.775 136.091 131.423C136.55 132.15 137.713 131.476 137.25 130.749C135.395 127.823 132.378 125.695 128.981 124.991C128.139 124.814 127.778 126.105 128.624 126.281L128.62 126.277Z" fill="#069457"/>
<path d="M128.377 129.15C131.043 129.771 133.448 131.353 135.025 133.595C135.232 133.89 135.611 134.027 135.941 133.837C136.232 133.665 136.391 133.216 136.184 132.921C134.404 130.397 131.747 128.564 128.734 127.859C127.897 127.661 127.536 128.956 128.377 129.15Z" fill="#069457"/>
<path d="M129.461 132.758C131.435 133.546 133.179 134.996 134.338 136.789C134.536 137.093 134.933 137.216 135.254 137.031C135.558 136.855 135.69 136.419 135.497 136.115C134.131 134.004 132.148 132.401 129.818 131.471C129.483 131.339 129.082 131.617 128.994 131.938C128.888 132.321 129.126 132.625 129.461 132.762V132.758Z" fill="#069457"/>
<path d="M126.051 140.608C123.196 141.828 121.875 144.93 120.808 147.631C120.676 147.965 120.954 148.366 121.275 148.454C121.654 148.56 121.967 148.322 122.099 147.987C123.046 145.586 124.196 142.846 126.73 141.762C127.064 141.621 127.135 141.132 126.972 140.846C126.769 140.502 126.39 140.463 126.055 140.604L126.051 140.608Z" fill="#069457"/>
<path d="M124.13 145.737C122.707 147.856 121.919 150.358 121.839 152.909C121.813 153.772 123.152 153.768 123.179 152.909C123.254 150.587 123.994 148.34 125.285 146.415C125.765 145.697 124.606 145.027 124.126 145.741L124.13 145.737Z" fill="#069457"/>
<path d="M125.522 149.578C124.875 151.018 124.214 152.455 123.58 153.9C123.135 154.917 122.967 156.428 124.262 156.869C125.082 157.147 125.43 155.856 124.619 155.578C124.668 155.605 124.659 155.6 124.593 155.561C124.646 155.6 124.641 155.596 124.584 155.543C124.624 155.578 124.602 155.552 124.588 155.494C124.58 155.459 124.575 155.182 124.588 155.116C124.668 154.609 124.866 154.274 125.078 153.803C125.611 152.618 126.144 151.433 126.672 150.247C126.822 149.917 126.769 149.529 126.43 149.331C126.144 149.164 125.663 149.239 125.514 149.573L125.522 149.578Z" fill="#069457"/>
<path d="M104.217 99.496C104.812 95.6456 107.306 92.2754 110.826 90.5925C111.601 90.2224 110.923 89.0637 110.152 89.4338C106.363 91.2445 103.574 94.9848 102.931 99.1348C102.874 99.4961 103.023 99.8485 103.398 99.9586C103.715 100.051 104.164 99.8485 104.222 99.4916L104.217 99.496Z" fill="#069457"/>
<path d="M101.592 97.3329C102.64 94.5838 104.429 92.1652 106.702 90.3061C106.984 90.077 106.94 89.5968 106.702 89.3589C106.424 89.0813 106.037 89.1298 105.755 89.3589C103.297 91.3678 101.433 94.0111 100.301 96.976C100.173 97.3153 100.442 97.7118 100.768 97.7999C101.147 97.9056 101.464 97.6721 101.592 97.3329Z" fill="#069457"/>
<path d="M99.4813 95.8437C101.001 92.9097 102.865 89.394 106.301 88.4468C107.129 88.2178 106.777 86.9269 105.944 87.156C102.133 88.2045 100.019 91.892 98.3227 95.1653C97.9262 95.9319 99.0804 96.6059 99.4813 95.8393V95.8437Z" fill="#069457"/>
<path d="M93.5647 86.8167C93.7233 86.5171 93.904 86.2307 94.0978 85.9532C94.1463 85.8871 94.1903 85.821 94.2388 85.7594C94.1859 85.8254 94.3137 85.658 94.2388 85.7594C94.2652 85.7285 94.2872 85.6977 94.3137 85.6668C94.4194 85.5347 94.5295 85.4069 94.6485 85.2836C94.8732 85.0412 95.1111 84.8122 95.3622 84.6007C95.4239 84.5478 95.4855 84.4994 95.5472 84.4465C95.4723 84.5038 95.6706 84.3452 95.5472 84.4465C95.5781 84.4245 95.6133 84.398 95.6441 84.376C95.7851 84.2703 95.9349 84.169 96.0803 84.0764C96.3755 83.887 96.5208 83.4729 96.3226 83.1601C96.1332 82.8649 95.7234 82.7151 95.4062 82.9178C94.1551 83.7196 93.111 84.8298 92.4061 86.1426C92.2387 86.451 92.318 86.8872 92.6484 87.059C92.9612 87.222 93.3885 87.1471 93.5647 86.8167Z" fill="#069457"/>
<path d="M91.3928 85.7284C91.5514 85.4552 91.7188 85.1865 91.8995 84.9266C91.9876 84.7944 92.0801 84.6666 92.177 84.5389C92.2034 84.5036 92.2299 84.4684 92.2563 84.4331C92.318 84.3538 92.1594 84.5565 92.2651 84.4243C92.3136 84.3626 92.362 84.301 92.4149 84.2393C92.8202 83.7415 93.2652 83.2789 93.7454 82.8471C94.0053 82.6137 94.0009 82.1379 93.7454 81.9C93.4678 81.6444 93.0757 81.6488 92.7982 81.9C91.7893 82.8075 90.9214 83.878 90.2386 85.0499C90.0624 85.3539 90.1593 85.7988 90.4809 85.9663C90.8025 86.1337 91.2078 86.05 91.3972 85.724L91.3928 85.7284Z" fill="#069457"/>
<path d="M90.8289 83.5302C91.102 83.1645 91.3752 82.7989 91.6439 82.4332C91.6924 82.3583 91.7188 82.2746 91.7232 82.1821C91.7452 82.094 91.7408 82.0059 91.71 81.9134C91.6659 81.7592 91.547 81.5918 91.4016 81.5125C91.2474 81.4288 91.058 81.3891 90.8861 81.4464C90.8333 81.4684 90.7804 81.4904 90.7275 81.5125C90.6262 81.5741 90.5469 81.6534 90.4852 81.7548C90.2121 82.1204 89.9389 82.4861 89.6702 82.8517C89.6218 82.9266 89.5953 83.0103 89.5909 83.1029C89.5689 83.191 89.5733 83.2791 89.6041 83.3716C89.6482 83.5258 89.7671 83.6932 89.9125 83.7725C90.0667 83.8562 90.2561 83.8959 90.428 83.8386C90.4808 83.8166 90.5337 83.7945 90.5866 83.7725C90.6879 83.7108 90.7672 83.6315 90.8289 83.5302Z" fill="#069457"/>
<path d="M71.8322 85.2133C70.9335 87.7289 70.5766 90.4251 70.7881 93.0904C70.8586 93.9451 72.1978 93.9495 72.1274 93.0904C71.9203 90.5308 72.2595 87.9888 73.123 85.5702C73.4138 84.7551 72.1185 84.4071 71.8322 85.2133Z" fill="#069457"/>
<path d="M67.4002 87.6272C67.2108 89.8035 67.0258 91.9842 66.8363 94.1606C66.8055 94.5218 67.1667 94.8302 67.506 94.8302C67.8936 94.8302 68.1448 94.5218 68.1756 94.1606C68.365 91.9842 68.5501 89.8035 68.7395 87.6272C68.7703 87.2659 68.4091 86.9575 68.0699 86.9575C67.6822 86.9575 67.4311 87.2659 67.4002 87.6272Z" fill="#069457"/>
<path d="M63.0872 91.9934C63.3119 94.6411 63.9551 97.2051 64.9904 99.6502C65.1313 99.985 65.6248 100.055 65.9067 99.8925C66.2503 99.6898 66.29 99.311 66.149 98.9761C65.2106 96.7646 64.6291 94.39 64.4265 91.9934C64.3956 91.6321 64.1401 91.3237 63.7568 91.3237C63.4176 91.3237 63.0563 91.6321 63.0872 91.9934Z" fill="#069457"/>
<path d="M60.8272 90.6759C56.078 90.0812 51.2275 90.7068 46.7824 92.4822C45.9938 92.7994 46.3374 94.0946 47.1392 93.773C51.4875 92.0328 56.1794 91.4337 60.8272 92.0152C61.6819 92.121 61.6731 90.7817 60.8272 90.6759Z" fill="#069457"/>
<path d="M55.1308 94.8304C51.1262 94.1034 47.0247 94.2312 43.0773 95.2268C42.2402 95.4383 42.5971 96.7291 43.4341 96.5177C47.1392 95.5837 51.0161 95.4383 54.7784 96.1212C55.6199 96.2754 55.9811 94.9845 55.1352 94.8304H55.1308Z" fill="#069457"/>
<path d="M53.5228 97.9009H44.0157C43.1522 97.9009 43.1522 99.2402 44.0157 99.2402H53.5228C54.3863 99.2402 54.3863 97.9009 53.5228 97.9009Z" fill="#069457"/>
<path d="M51.0822 107.84C54.7344 109.096 57.479 112.62 57.7874 116.475C57.8579 117.33 59.1972 117.334 59.1267 116.475C58.7654 111.999 55.686 108.012 51.4346 106.549C50.6196 106.267 50.2671 107.562 51.0778 107.84H51.0822Z" fill="#069457"/>
<path d="M51.3773 111.184C53.677 112.563 55.3379 114.84 55.9723 117.444C56.175 118.281 57.4702 117.929 57.2631 117.087C56.5494 114.158 54.6374 111.58 52.0514 110.03C51.3112 109.585 50.6372 110.743 51.3773 111.188V111.184Z" fill="#069457"/>
<path d="M54.5978 105.073C57.7521 107.281 60.228 110.356 61.7656 113.88C61.911 114.215 62.3956 114.285 62.6819 114.122C63.0256 113.928 63.0652 113.536 62.9242 113.206C61.2898 109.466 58.6156 106.254 55.2762 103.919C54.5669 103.426 53.8973 104.584 54.6022 105.078L54.5978 105.073Z" fill="#069457"/>
<path d="M45.9894 118.982C43.6721 119.665 41.4341 120.634 39.3502 121.854C38.6057 122.29 39.2797 123.449 40.0243 123.013C42.0156 121.845 44.1302 120.929 46.3462 120.277C47.1701 120.035 46.8176 118.739 45.9894 118.986V118.982Z" fill="#069457"/>
<path d="M44.2139 121.343C42.6015 121.955 41.1345 122.863 39.8877 124.057C39.6322 124.299 39.6234 124.762 39.8877 125.004C40.1609 125.255 40.5662 125.264 40.8349 125.004C41.1169 124.735 41.4076 124.48 41.7116 124.237C41.7336 124.22 41.7953 124.176 41.738 124.215C41.7733 124.189 41.8129 124.162 41.8482 124.132C41.9319 124.07 42.0156 124.008 42.0993 123.951C42.2579 123.841 42.4209 123.731 42.5839 123.629C42.9011 123.427 43.2315 123.242 43.5663 123.074C43.7381 122.986 43.9144 122.902 44.0906 122.823C44.1302 122.806 44.1743 122.788 44.2139 122.77C44.1302 122.806 44.2448 122.757 44.2756 122.744C44.3725 122.704 44.4651 122.669 44.562 122.634C44.888 122.51 45.1479 122.176 45.029 121.81C44.9276 121.493 44.5576 121.211 44.2051 121.343H44.2139Z" fill="#069457"/>
<path d="M44.9937 123.673C44.1258 124.387 43.2579 125.101 42.39 125.814C42.1169 126.039 42.1433 126.533 42.39 126.762C42.6808 127.026 43.0464 127 43.3372 126.762C44.2051 126.048 45.073 125.334 45.9409 124.621C46.214 124.396 46.1876 123.902 45.9409 123.673C45.6501 123.409 45.2845 123.435 44.9937 123.673Z" fill="#069457"/>
<path d="M46.8 130.163C48.0908 131.361 48.8486 133.035 48.8882 134.767C48.9059 135.626 50.2451 135.63 50.2275 134.767C50.1791 132.678 49.2847 130.643 47.7472 129.216C47.4829 128.969 47.0643 128.951 46.8 129.216C46.5489 129.467 46.5357 129.916 46.8 130.163Z" fill="#069457"/>
<path d="M45.0246 133.397C45.6282 133.991 46.0511 134.546 46.4608 135.295C46.5577 135.476 46.6502 135.657 46.7383 135.842C46.8265 136.031 46.8485 136.088 46.9322 136.313C47.0776 136.71 47.1921 137.115 47.2802 137.525C47.3551 137.877 47.7692 138.084 48.1041 137.992C48.4697 137.89 48.6459 137.525 48.5711 137.168C48.1878 135.384 47.267 133.727 45.9718 132.445C45.7163 132.19 45.2801 132.19 45.0246 132.445C44.7691 132.701 44.7647 133.137 45.0246 133.392V133.397Z" fill="#069457"/>
<path d="M45.1787 138.058V139.154C45.1787 139.326 45.2536 139.507 45.377 139.626C45.4915 139.74 45.6853 139.829 45.8484 139.824C46.0202 139.815 46.2008 139.758 46.3197 139.626C46.4387 139.494 46.518 139.335 46.518 139.154V138.058C46.518 137.886 46.4431 137.705 46.3197 137.586C46.2052 137.472 46.0114 137.383 45.8484 137.388C45.6765 137.397 45.4959 137.454 45.377 137.586C45.258 137.718 45.1787 137.877 45.1787 138.058Z" fill="#069457"/>
<path d="M85.3837 45.5808C84.5246 52.6473 84.4981 59.7799 85.3132 66.8508C85.3792 67.4147 86.2736 67.4235 86.2075 66.8508C85.3969 59.7799 85.4189 52.6473 86.278 45.5808C86.3485 45.0125 85.4541 45.0169 85.3837 45.5808Z" fill="#206F4E"/>
<path d="M90.2209 71.4901C92.7981 68.415 96.6045 66.5162 100.618 66.3532C101.191 66.3312 101.195 65.4369 100.618 65.4589C96.3798 65.6351 92.3179 67.6044 89.5909 70.8601C89.2252 71.2962 89.8508 71.935 90.2209 71.4901Z" fill="#206F4E"/>
<path d="M75.057 75.1551C77.3611 74.6352 79.7004 74.318 82.0618 74.2123C82.6345 74.1858 82.6389 73.2915 82.0618 73.318C79.6255 73.4281 77.1981 73.7541 74.8191 74.2916C74.2596 74.4193 74.4975 75.2784 75.057 75.1551Z" fill="#206F4E"/>
<path d="M102.988 77.5077C109.429 78.3447 115.738 80.0761 121.707 82.6357C122.231 82.8604 122.685 82.0894 122.157 81.8647C116.028 79.2346 109.596 77.4724 102.988 76.6133C102.42 76.5384 102.424 77.4328 102.988 77.5077Z" fill="#206F4E"/>
<path d="M54.2321 53.0877C58.3909 55.7134 62.5894 58.3479 67.2064 60.0925C69.3871 60.9164 71.6295 61.3966 73.8896 61.9208C76.1849 62.4495 78.4537 63.1324 80.1763 64.8241C80.586 65.2294 81.2204 64.595 80.8063 64.1941C77.5946 61.0397 72.7221 61.0265 68.669 59.6696C63.6467 57.9867 59.131 55.1275 54.677 52.3168C54.188 52.0084 53.7387 52.7838 54.2277 53.0877H54.2321Z" fill="#206F4E"/>
<path d="M149.555 205.409C148.242 195.136 173.741 162.041 204.641 140.269C235.546 118.497 263.834 91.7731 278.099 110.426C285.919 120.647 248.34 149.085 222.528 176.95C194.086 207.652 152.039 224.904 149.555 205.409Z" fill="#F4D4AA"/>
<path d="M182.38 172.826C182.949 172.095 167.961 158.155 174.433 146.763C180.904 135.37 210.342 112.466 216.202 116.999C222.065 121.532 243.463 133.996 242.661 138.057C241.859 142.124 191.253 180.276 188.323 178.007C185.394 175.738 182.38 172.822 182.38 172.822V172.826Z" fill="#F4D4AA"/>
<path d="M210.016 151.389C217.664 144.111 226.748 132.811 232.264 125.661C234.427 127.925 235.811 129.833 235.74 130.943C235.604 133.229 223.365 148.42 210.488 160.755C200.073 170.729 188.685 178.65 187.248 177.822C185.125 176.593 182.931 175.091 181.689 174.214L210.016 151.389Z" fill="#428CC5"/>
<path d="M234.471 122.898C241.066 117.643 248.472 113.396 256.336 110.351C258.019 109.699 257.288 106.955 255.583 107.616C247.23 110.849 239.472 115.308 232.467 120.894C231.039 122.03 233.057 124.026 234.471 122.898Z" fill="#F8E5CC"/>
<path d="M230.603 126.299C233.445 122.727 245.873 134.749 251.336 134.842C256.799 134.934 263.698 132.075 263.698 132.075L260.794 140.371C260.794 140.371 249.181 142.512 242.67 138.062C238.771 135.397 228.916 128.59 228.916 128.59L230.608 126.304L230.603 126.299Z" fill="#45A5D5"/>
<path d="M230.528 125.74C238.353 135.309 241.172 144.005 244.476 147.076C248.481 150.794 254.539 152.292 254.539 152.292L247.406 157.429C247.406 157.429 237.507 154.57 233.872 145.151C232.172 140.745 227.859 130.705 227.859 130.705L230.528 125.74Z" fill="#45A5D5"/>
<path d="M199.531 130.326C202.972 126.396 207.853 123.81 213.078 123.347C213.84 123.281 214.497 122.744 214.497 121.929C214.497 121.215 213.845 120.444 213.078 120.51C207.117 121.039 201.478 123.806 197.526 128.321C196.328 129.691 198.328 131.705 199.531 130.326Z" fill="#F8E5CC"/>
<path d="M217.81 123.18C218.603 123.793 219.396 124.409 220.189 125.022C220.316 125.158 220.471 125.26 220.647 125.317C220.814 125.405 220.999 125.445 221.193 125.44C221.541 125.44 221.955 125.286 222.197 125.026C222.444 124.757 222.629 124.401 222.612 124.022C222.594 123.894 222.576 123.771 222.563 123.643C222.497 123.4 222.374 123.193 222.197 123.017C221.404 122.405 220.611 121.788 219.818 121.176C219.691 121.039 219.537 120.938 219.36 120.881C219.193 120.792 219.008 120.753 218.814 120.757C218.466 120.757 218.052 120.911 217.81 121.171C217.563 121.44 217.378 121.797 217.395 122.176C217.413 122.304 217.431 122.427 217.444 122.555C217.51 122.797 217.633 123.004 217.81 123.18Z" fill="#F8E5CC"/>
<path d="M182.394 172.227C181.01 170.227 179.631 168.222 178.248 166.222C177.992 165.848 177.512 165.68 177.098 165.922C176.728 166.138 176.539 166.698 176.799 167.072C178.182 169.072 179.561 171.077 180.944 173.077C181.2 173.452 181.68 173.619 182.094 173.377C182.464 173.161 182.653 172.601 182.394 172.227Z" fill="black"/>
<path d="M227.026 124.986C227.55 125.92 228.07 126.854 228.594 127.788C228.775 128.114 229.246 128.247 229.564 128.044C229.89 127.832 230.013 127.418 229.819 127.075C229.295 126.141 228.775 125.207 228.251 124.273C228.07 123.947 227.599 123.815 227.282 124.017C226.956 124.229 226.832 124.643 227.026 124.986Z" fill="black"/>
</g>
<defs>
<clipPath id="clip0_81_4389">
<rect width="279.152" height="236.921" fill="white" transform="translate(0 0.860352)"/>
</clipPath>
</defs>
</svg>
