<svg width="221" height="244" viewBox="0 0 221 244" fill="none" xmlns="http://www.w3.org/2000/svg">
<g clip-path="url(#clip0_81_4489)">
<path d="M61.0572 178.554L125.697 21.1888L131.762 23.3029L66.8496 181.688L61.0572 178.554Z" fill="#ECA443"/>
<path d="M35.4911 130.467C30.2411 119.22 28.2407 107.291 29.1049 95.7357C30.9256 71.3166 45.5321 48.5726 69.3003 37.4821C104.314 21.1416 145.944 36.277 162.285 71.2913C178.625 106.306 163.49 147.935 128.476 164.276C93.4613 180.616 51.8316 165.481 35.4911 130.467Z" fill="#B3D1E8"/>
<path d="M127.561 218.052C125.012 209.963 140.664 196.4 140.664 196.4L148.631 192.701C148.631 192.701 166.703 189.264 172.317 197.189C175.483 201.656 160.98 212.22 150.914 216.364C145.003 218.798 129.069 222.834 127.56 218.049L127.561 218.052Z" fill="#ECA443"/>
<path d="M141.637 197.752C140.276 191.586 133.24 173.927 133.24 173.927L140.255 171.178C140.255 171.178 148.371 191.207 149.961 193.859C151.182 195.899 142.014 199.448 141.64 197.751L141.637 197.752Z" fill="#ECA443"/>
<mask id="mask0_81_4489" style="mask-type:luminance" maskUnits="userSpaceOnUse" x="29" y="29" width="141" height="141">
<path d="M42.3331 139.119C35.2748 128.928 31.2979 117.519 30.2047 105.994C27.8927 81.6473 38.4526 56.7941 59.9881 41.8768C91.7146 19.9013 135.251 27.8034 157.227 59.5328C179.203 91.2592 171.301 134.795 139.571 156.772C107.845 178.747 64.3086 170.845 42.3322 139.116L42.3331 139.119Z" fill="white"/>
</mask>
<g mask="url(#mask0_81_4489)">
<path d="M82.3885 92.3578C77.1555 82.8202 85.4249 82.5824 88.6752 84.4474C91.9254 86.3125 98.0166 87.1827 100.882 90.6603C103.747 94.1351 96.8762 100.727 95.4492 102.63C94.0222 104.533 90.9306 92.8042 88.0645 93.9487C85.1984 95.0933 82.3894 92.3607 82.3894 92.3607L82.3885 92.3578Z" fill="#45A5D5"/>
<path d="M70.2711 69.1031C66.1688 67.7438 70.4425 63.5227 68.3375 62.3422C66.2326 61.1616 64.9637 56.5556 69.2038 54.6398C73.4439 52.7239 78.2648 55.5455 77.2698 58.3826C76.2749 61.2197 77.144 71.3821 70.2711 69.1031Z" fill="#45A5D5"/>
<path d="M111.809 116.614C112.139 110.313 123.674 111.971 127.692 109.188C131.71 106.406 127.796 106.119 135.223 102.891C142.956 99.5274 151.187 98.8615 161.605 103.996C167.188 106.747 155.33 114.749 155.33 114.749C156.685 120.669 158.179 123.296 151.003 132.842C143.826 142.389 141.21 141.913 140.639 145.051C140.07 148.192 139.329 157.394 132.756 158.288C126.183 159.183 126.249 142.765 126.903 133.801C127.556 124.837 110.923 133.614 111.809 116.614Z" fill="#45A5D5"/>
<path d="M79.7401 72.79C78.5991 64.5451 80.3857 60.1358 91.1297 60.5769C101.877 61.0171 100.731 58.6602 98.5998 55.5147C96.4682 52.3693 90.7821 45.3214 93.8647 39.1428C96.9482 32.967 92.2489 23.3532 109.761 19.6994C127.273 16.0484 185.136 54.5133 183.192 73.092C181.247 91.6707 168.156 102.52 160.708 101.582C153.259 100.643 152.652 93.0462 146.769 92.4083C140.885 91.7704 141.488 100.928 133.111 97.7258C126.375 95.1501 124.554 86.4367 119.3 84.7207C117.111 84.0044 124.203 98.5292 121.455 101.305C117.601 105.196 114.362 109.385 110.739 105.212C104.533 98.0624 109.872 86.8955 102.25 85.702C94.6274 84.5084 81.2221 83.4945 79.7409 72.7929L79.7401 72.79Z" fill="#45A5D5"/>
<path d="M75.3226 141.887C71.4781 132.841 60.752 145.948 55.1379 141.146C49.5238 136.343 56.4896 129.23 51.6378 126.187C46.7861 123.144 46.1377 125.508 39.1507 132.593C32.1637 139.677 34.5007 159.559 49.4853 169.304C64.4708 179.052 75.4669 184.454 80.7396 176.782C86.0115 169.106 88.3955 170.662 83.8991 163.511C79.4027 156.36 72.7196 155.956 74.1208 152.698C75.5219 149.44 78.9556 150.432 75.3226 141.887Z" fill="#45A5D5"/>
<path d="M57.3833 84.2899C64.2046 73.1954 44.4716 80.8375 39.6427 79.15C34.8139 77.4626 29.9514 68.46 23.6324 76.5064C17.3106 84.5537 16.0625 110.668 20.2463 110.011C24.4272 109.356 30.5162 105.595 33.2508 106.905C35.9874 108.211 33.9867 101.362 36.7924 100.792C39.5982 100.222 41.627 104.47 44.4536 101.285C47.2811 98.1033 45.4932 94.8591 47.8009 90.9274C50.1087 86.9957 52.4366 92.337 57.3833 84.2899Z" fill="#45A5D5"/>
</g>
<path d="M120.064 13.3381C120.064 13.3381 113.109 18.2189 116.222 18.9391C136.59 23.6439 144.042 28.4384 156.34 42.7999C184.439 75.6115 178.171 131.77 144.189 160.871C116.355 184.711 79.6184 181.484 50.3089 172.335C48.0092 171.617 44.1604 176.268 44.1604 176.268C82.5348 190.438 118.293 192.871 149.395 166.234C188.08 133.104 193.413 75.6292 161.286 38.1169C147.788 22.3537 139.262 16.9136 120.062 13.3419L120.064 13.3381Z" fill="#ECA443"/>
<path d="M62.1845 175.311C64.2599 175.71 66.3353 176.109 68.4098 176.505C68.7585 176.572 68.8925 176.033 68.5408 175.966C66.4655 175.567 64.391 175.171 62.3156 174.772C61.9669 174.705 61.8329 175.244 62.1845 175.311Z" fill="white"/>
<path d="M125.096 21.2849C126.998 22.3139 129.078 22.9518 131.23 23.1826C131.586 23.2194 131.57 22.6646 131.221 22.629C129.17 22.4092 127.175 21.7808 125.363 20.798C125.05 20.6284 124.784 21.1153 125.099 21.284L125.096 21.2849Z" fill="white"/>
<path d="M139.927 196.527C139.946 197.953 140.918 199.185 142.203 199.743C143.626 200.361 145.16 200.193 146.583 199.651C147.895 199.151 149.327 198.52 150.435 197.642C151.448 196.838 152.246 195.691 152.113 194.336C151.971 192.899 151.036 191.687 149.53 191.6C148.984 191.569 148.526 192.116 148.538 192.634C148.55 193.218 149.023 193.597 149.572 193.626C149.418 193.618 149.72 193.677 149.577 193.612C149.639 193.638 149.699 193.671 149.757 193.707C149.7 193.664 149.697 193.662 149.749 193.71C149.839 193.778 149.926 193.904 149.981 194.024C150.115 194.316 150.144 194.671 150.044 195.004C149.774 195.893 148.503 196.533 147.635 196.964C146.484 197.537 145.166 198.244 143.835 198.124C142.957 198.043 141.966 197.42 141.955 196.488C141.937 195.181 139.91 195.223 139.927 196.527Z" fill="black"/>
<path d="M43.372 118.106C40.7976 118.87 38.7148 119.501 39.8823 123.435C41.0498 127.369 47.5988 132.349 47.5988 132.349C47.5988 132.349 50.6401 125.51 49.4726 121.575C48.3051 117.641 45.9455 117.339 43.3711 118.103L43.372 118.106ZM45.1715 124.17C44.1952 124.46 43.1229 123.744 42.7755 122.573C42.428 121.402 42.9363 120.218 43.9126 119.928C44.8889 119.638 45.9612 120.354 46.3087 121.525C46.6562 122.696 46.1478 123.88 45.1715 124.17Z" fill="#E06A3C"/>
<path d="M83.1484 64.4597C80.574 65.2237 78.4921 65.8573 79.7303 70.0298C80.9685 74.2023 87.6347 79.5777 87.6347 79.5777C87.6347 79.5777 90.5769 72.4037 89.3378 68.2283C88.0987 64.0529 85.7228 63.6958 83.1484 64.4597ZM85.0591 70.8986C84.0829 71.1883 82.9933 70.4146 82.6251 69.1739C82.257 67.9332 82.7481 66.6904 83.7244 66.4007C84.7007 66.111 85.7902 66.8847 86.1584 68.1254C86.5266 69.3661 86.0354 70.6089 85.0591 70.8986Z" fill="#E06A3C"/>
<path d="M155.58 95.383C153.244 96.0762 151.353 96.65 152.51 100.549C153.667 104.449 159.77 109.501 159.77 109.501C159.77 109.501 162.396 102.839 161.239 98.9393C160.082 95.0399 157.916 94.6897 155.58 95.383ZM157.364 101.395C156.478 101.658 155.481 100.929 155.137 99.7699C154.793 98.6106 155.231 97.4562 156.117 97.1932C157.004 96.9302 158.001 97.6586 158.345 98.818C158.689 99.9773 158.251 101.132 157.364 101.395Z" fill="#E06A3C"/>
<path d="M133.974 205.391C135.177 211.648 147.757 208.306 151.536 206.999C156.998 205.109 165.005 201.004 164.453 194.149C164.367 193.068 162.677 193.095 162.763 194.182C163.217 199.827 156.599 203.242 152.145 204.981C149.544 205.996 136.527 209.774 135.593 204.913C135.387 203.846 133.771 204.335 133.972 205.394L133.974 205.391Z" fill="black"/>
</g>
<defs>
<clipPath id="clip0_81_4489">
<rect width="168.583" height="203.622" fill="white" transform="translate(0.906921 48.6984) rotate(-16.5285)"/>
</clipPath>
</defs>
</svg>
