<svg width="36" height="37" viewBox="0 0 36 37" fill="none" xmlns="http://www.w3.org/2000/svg">
<path d="M16.1851 8.67025C15.8451 7.98025 15.3851 7.48025 14.8051 7.15025C14.2251 6.82025 13.4851 6.66025 12.6051 6.66025H9.64508C9.39508 6.66025 9.22508 6.70025 9.14508 6.77025C9.06508 6.84025 9.02508 6.99025 9.02508 7.21025V16.4103C9.02508 16.6303 9.06508 16.7803 9.14508 16.8503C9.22508 16.9203 9.39508 16.9603 9.64508 16.9603H12.9651C14.5351 16.9603 15.6151 16.2903 16.1851 14.9503C16.3151 14.6403 16.4151 14.3303 16.4651 14.0203C16.5151 13.7103 16.5451 13.3103 16.5451 12.8303V10.8803C16.5451 10.3303 16.5151 9.90025 16.4651 9.58025C16.4151 9.26025 16.3151 8.96025 16.1851 8.68025V8.67025ZM14.1151 12.8503C14.1151 13.2503 14.0851 13.5803 14.0351 13.8403C13.9851 14.1003 13.8951 14.3203 13.7751 14.4803C13.6551 14.6403 13.4951 14.7603 13.2951 14.8303C13.0951 14.9003 12.8551 14.9303 12.5651 14.9303H11.3751V8.68025H12.5651C13.1151 8.68025 13.5051 8.84025 13.7551 9.17025C13.9951 9.49025 14.1151 10.0303 14.1151 10.7703V12.8503ZM16.0051 28.1903H11.9451L16.2251 22.1703C16.2951 22.0703 16.3351 22.0003 16.3551 21.9403C16.3751 21.8803 16.3851 21.8203 16.3851 21.7403V20.5803C16.3851 20.3603 16.3451 20.2103 16.2651 20.1403C16.1851 20.0703 16.0151 20.0303 15.7651 20.0303H9.58508C9.36508 20.0303 9.21508 20.0703 9.15508 20.1503C9.08508 20.2303 9.05508 20.4003 9.05508 20.6603V21.5303C9.05508 21.7903 9.08508 21.9603 9.15508 22.0403C9.22508 22.1203 9.36508 22.1603 9.58508 22.1603H13.3951L9.17508 28.1803C9.06508 28.3203 9.01508 28.4503 9.01508 28.5803V29.7703C9.01508 29.9903 9.05508 30.1403 9.13508 30.2103C9.21508 30.2803 9.38508 30.3203 9.63508 30.3203H16.0051C16.2251 30.3203 16.3751 30.2803 16.4451 30.2003C16.5151 30.1203 16.5451 29.9503 16.5451 29.6903V28.8203C16.5451 28.5603 16.5151 28.3903 16.4451 28.3103C16.3751 28.2303 16.2351 28.1903 16.0051 28.1903ZM35.9851 0.510254H0.0150757V16.4203L2.09508 18.5003L0.0150757 20.5803V36.4903H35.9851V20.5803L33.9051 18.5003L35.9851 16.4203V0.510254ZM31.2351 19.1603L33.7351 21.6603V34.2303H2.26508V21.6603L4.75508 19.1703C5.12508 18.8003 5.12508 18.2003 4.75508 17.8403L2.26508 15.3503V2.78025H33.7251V15.3503L31.2251 17.8503C30.8551 18.2203 30.8551 18.8203 31.2251 19.1803L31.2351 19.1603ZM26.4351 20.0403H25.4651C25.2151 20.0403 25.0451 20.0803 24.9651 20.1503C24.8851 20.2203 24.8451 20.3703 24.8451 20.5903V26.0403L21.9851 20.5703C21.8651 20.3403 21.7551 20.1903 21.6451 20.1303C21.5351 20.0703 21.3351 20.0403 21.0551 20.0403H20.1551C19.9051 20.0403 19.7351 20.0803 19.6551 20.1503C19.5751 20.2203 19.5351 20.3703 19.5351 20.5903V29.7903C19.5351 30.0103 19.5751 30.1603 19.6551 30.2303C19.7351 30.3003 19.8951 30.3403 20.1451 30.3403H21.1251C21.3751 30.3403 21.5451 30.3003 21.6251 30.2303C21.7051 30.1603 21.7451 30.0103 21.7451 29.7903V24.3203L24.6051 29.8003C24.7251 30.0303 24.8351 30.1803 24.9451 30.2403C25.0551 30.3003 25.2551 30.3303 25.5351 30.3303H26.4351C26.6851 30.3303 26.8551 30.2903 26.9351 30.2203C27.0151 30.1503 27.0551 30.0003 27.0551 29.7803V20.5803C27.0551 20.3603 27.0151 20.2103 26.9351 20.1403C26.8551 20.0703 26.6851 20.0303 26.4351 20.0303V20.0403ZM27.9251 16.3403L24.8851 7.15025C24.8151 6.95025 24.7451 6.81025 24.6551 6.75025C24.5651 6.69025 24.4251 6.66025 24.2351 6.66025H22.5551C22.3651 6.66025 22.2251 6.69025 22.1251 6.76025C22.0351 6.83025 21.9551 6.96025 21.9051 7.15025L18.8451 16.3403C18.8451 16.3403 18.7851 16.4803 18.7851 16.6303C18.7851 16.8503 18.9151 16.9603 19.1851 16.9603H20.4451C20.5651 16.9603 20.6551 16.9603 20.7251 16.9503C20.7951 16.9503 20.8551 16.9203 20.8951 16.8803C20.9351 16.8403 20.9751 16.7803 21.0151 16.7103C21.0451 16.6303 21.0851 16.5303 21.1251 16.4103L21.6051 14.8003H25.0551L25.5451 16.3803C25.5851 16.5203 25.6251 16.6203 25.6651 16.7003C25.7051 16.7803 25.7451 16.8403 25.7951 16.8803C25.8451 16.9203 25.9051 16.9503 25.9651 16.9603C26.0351 16.9603 26.1151 16.9703 26.2251 16.9703H27.5651C27.8351 16.9703 27.9651 16.8603 27.9651 16.6403C27.9651 16.5703 27.9651 16.5303 27.9651 16.5003C27.9651 16.4803 27.9451 16.4203 27.9151 16.3503L27.9251 16.3403ZM22.1551 12.9403L23.3151 9.05025L24.5051 12.9403H22.1651H22.1551Z" fill="#001224"/>
</svg>
