<svg width="50" height="39" viewBox="0 0 50 39" fill="none" xmlns="http://www.w3.org/2000/svg">
<g clip-path="url(#clip0_9_318)">
<path d="M38.66 26.0099C38.49 26.0099 38.33 25.9299 38.22 25.7899C38.04 25.5499 38.09 25.1999 38.33 25.0199L45.14 19.9099C45.38 19.7299 45.73 19.7799 45.91 20.0199C46.09 20.2599 46.04 20.6099 45.8 20.7899L38.99 25.8999C38.89 25.9699 38.78 26.0099 38.66 26.0099Z" fill="#D00F31"/>
<path d="M49.61 19.2101L39.41 5.30014C39.32 5.18014 39.19 5.10014 39.05 5.08014C38.91 5.06014 38.76 5.09014 38.64 5.18014L35.69 7.34014C35.44 7.52014 35.39 7.86014 35.57 8.11014L45.77 22.0201C45.86 22.1401 45.99 22.2201 46.13 22.2401C46.16 22.2401 46.19 22.2401 46.21 22.2401C46.33 22.2401 46.44 22.2001 46.54 22.1301L49.49 19.9701C49.74 19.7901 49.79 19.4501 49.61 19.2001V19.2101Z" fill="#D00F31"/>
<path d="M9.47003 25.29C9.35003 25.29 9.23003 25.25 9.13003 25.17L4.82003 21.79C4.58003 21.6 4.54003 21.26 4.73003 21.02C4.92003 20.78 5.26003 20.74 5.50003 20.93L9.81003 24.31C10.05 24.5 10.09 24.84 9.90003 25.08C9.79003 25.22 9.63003 25.29 9.47003 25.29Z" fill="#BC9500"/>
<path d="M29.91 35.72C29.02 35.72 28.11 35.36 27.51 34.76C27.29 34.55 27.29 34.2 27.51 33.98C27.72 33.76 28.07 33.76 28.29 33.98C28.97 34.66 30.36 34.9 31.07 34.18C31.42 33.83 31.61 33.38 31.59 32.9C31.57 32.4 31.32 31.93 30.92 31.59C30.69 31.4 30.65 31.05 30.85 30.82C31.04 30.59 31.39 30.55 31.62 30.75C32.26 31.28 32.65 32.05 32.69 32.85C32.73 33.64 32.43 34.38 31.85 34.95C31.33 35.47 30.63 35.7 29.92 35.7L29.91 35.72Z" fill="#BC9500"/>
<path d="M33.5401 32.87C32.8101 32.87 32.0701 32.6 31.4701 32.07L26.8001 28.28C26.5601 28.09 26.5301 27.74 26.7201 27.51C26.9101 27.27 27.2601 27.24 27.4901 27.43L32.1801 31.23C32.9801 31.95 34.0901 31.95 34.7801 31.26C35.1101 30.93 35.2901 30.49 35.2701 30.03C35.2601 29.55 35.0501 29.1 34.6801 28.77L28.1901 23.85C27.9501 23.67 27.9001 23.32 28.0801 23.08C28.2601 22.84 28.6101 22.79 28.8501 22.97L35.3801 27.92C36.0101 28.49 36.3501 29.21 36.3701 29.99C36.3901 30.76 36.1001 31.48 35.5601 32.03C35.0101 32.58 34.2801 32.86 33.5301 32.86L33.5401 32.87Z" fill="#BC9500"/>
<path d="M26.0701 38.52C25.3201 38.52 24.6201 38.23 24.1001 37.71C23.8801 37.5 23.8801 37.15 24.1001 36.93C24.3101 36.71 24.6601 36.71 24.8801 36.93C25.2001 37.25 25.6201 37.42 26.0801 37.42C26.5301 37.42 26.9601 37.24 27.2801 36.92C27.9601 36.23 28.0001 35.24 27.3701 34.61L25.0001 32.45C24.7801 32.25 24.7601 31.9 24.9601 31.67C25.1701 31.45 25.5101 31.43 25.7401 31.63L28.1301 33.81C29.2101 34.88 29.1701 36.58 28.0601 37.69C27.5401 38.22 26.8301 38.51 26.0901 38.51L26.0701 38.52Z" fill="#BC9500"/>
<path d="M37.64 29.9801C36.73 29.9801 35.71 29.5801 34.71 28.7901C34.47 28.6001 34.43 28.2601 34.62 28.0201C34.81 27.7801 35.15 27.7401 35.39 27.9301C36.8 29.0401 38.12 29.1901 38.84 28.3301C39.14 27.9801 39.27 27.5801 39.24 27.1901C39.2 26.7801 38.97 26.4101 38.58 26.1001L26.56 16.9701C26.32 16.7901 26.27 16.4401 26.45 16.2001C26.63 15.9601 26.98 15.9101 27.22 16.0901L39.25 25.2301C39.88 25.7301 40.26 26.3801 40.33 27.0801C40.4 27.7601 40.17 28.4601 39.68 29.0401C39.15 29.6701 38.44 29.9801 37.64 29.9801Z" fill="#BC9500"/>
<path d="M22.4001 14.1602C22.3001 14.1602 22.2001 14.1302 22.1001 14.0702L21.3301 13.5802C21.0701 13.4202 21.0001 13.0802 21.1601 12.8202C21.3201 12.5602 21.6601 12.4902 21.9201 12.6502L22.6901 13.1402C22.9501 13.3002 23.0201 13.6402 22.8601 13.9002C22.7601 14.0602 22.5801 14.1502 22.4001 14.1502V14.1602Z" fill="#BC9500"/>
<path d="M26.09 11.9702C25.98 11.9702 25.87 11.9402 25.77 11.8702L25.33 11.5502C24.11 10.6602 23.61 10.3002 22.32 10.2902C22.32 10.2902 22.31 10.2902 22.3 10.2902C21.12 10.2902 20.34 10.5902 19.58 10.8702C18.32 11.3502 17.14 11.7902 14.91 10.5402L12.55 9.07023C12.29 8.91023 12.21 8.57023 12.37 8.31023C12.53 8.05023 12.87 7.97023 13.13 8.13023L15.47 9.58023C17.23 10.5702 18.01 10.2702 19.19 9.83023C20.01 9.52023 20.94 9.20023 22.32 9.17023C23.97 9.17023 24.72 9.73023 25.98 10.6402L26.42 10.9602C26.67 11.1402 26.72 11.4802 26.55 11.7302C26.44 11.8802 26.27 11.9602 26.1 11.9602L26.09 11.9702Z" fill="#BC9500"/>
<path d="M20.3001 21.2598C19.4901 21.2598 18.7501 20.9198 18.2501 20.3798C17.3701 19.4398 17.0801 17.7498 18.5401 16.2498L18.6101 16.1898L25.7001 11.1098C27.5001 9.97978 29.4701 9.95978 32.5301 11.0198C33.8101 11.4598 34.9901 10.6698 35.8501 10.0798L39.7701 7.34978C40.0201 7.17978 40.3601 7.23978 40.5401 7.48978C40.7101 7.73978 40.6501 8.07978 40.4001 8.25978L36.4801 10.9898C35.5401 11.6298 33.9701 12.6798 32.1801 12.0598C29.4701 11.1298 27.7801 11.1198 26.3201 12.0298L19.3001 17.0698C18.3801 18.0398 18.5101 19.0598 19.0601 19.6498C19.6201 20.2398 20.7001 20.4798 21.7501 19.5798L28.0301 14.7598C28.2701 14.5798 28.6201 14.6198 28.8001 14.8598C28.9801 15.0998 28.9401 15.4498 28.7001 15.6298L22.4501 20.4298C21.7501 21.0198 21.0101 21.2698 20.3101 21.2698L20.3001 21.2598Z" fill="#D00F31"/>
<path d="M14.1401 33.0898C14.0201 33.0898 13.9001 33.0898 13.7801 33.0698C13.0101 32.9798 12.3201 32.5898 11.8401 31.9798C11.3601 31.3698 11.1501 30.6098 11.2501 29.8398C11.3501 29.0698 11.7301 28.3798 12.3401 27.8998L16.4301 24.6998C17.0401 24.2198 17.8001 24.0098 18.5701 24.1098C19.3401 24.1998 20.0301 24.5898 20.5101 25.1998C21.5001 26.4598 21.2701 28.2898 20.0101 29.2798L15.9201 32.4798C15.4101 32.8798 14.7801 33.0998 14.1401 33.0998V33.0898ZM18.2101 25.1798C17.8101 25.1798 17.4201 25.3098 17.1001 25.5598L13.0101 28.7598C12.6301 29.0598 12.3901 29.4798 12.3301 29.9598C12.2701 30.4398 12.4001 30.9098 12.7001 31.2898C13.0001 31.6698 13.4201 31.9098 13.9101 31.9698C14.3901 32.0298 14.8601 31.8998 15.2401 31.5998L19.3301 28.3998C20.1101 27.7898 20.2501 26.6498 19.6401 25.8598C19.3401 25.4798 18.9201 25.2398 18.4301 25.1798C18.3501 25.1798 18.2801 25.1698 18.2001 25.1698L18.2101 25.1798Z" fill="#D00F31"/>
<path d="M17.7701 36.2398C16.9101 36.2398 16.0501 35.8598 15.4801 35.1298C15.0001 34.5198 14.7901 33.7598 14.8901 32.9898C14.9801 32.2198 15.3701 31.5298 15.9801 31.0498L19.6201 28.1998C20.2301 27.7198 20.9901 27.5098 21.7601 27.6098C22.5301 27.6998 23.2201 28.0898 23.7001 28.6998C24.6901 29.9598 24.4601 31.7898 23.2001 32.7798L19.5601 35.6298C19.0301 36.0498 18.4001 36.2498 17.7701 36.2498V36.2398ZM16.6501 31.9098C16.2701 32.2098 16.0301 32.6298 15.9701 33.1198C15.9101 33.6098 16.0401 34.0698 16.3401 34.4498C16.9501 35.2298 18.0901 35.3698 18.8801 34.7598L22.5201 31.9098C23.3001 31.2998 23.4401 30.1598 22.8301 29.3698C22.5301 28.9898 22.1101 28.7498 21.6201 28.6898C21.1401 28.6298 20.6701 28.7598 20.2901 29.0598L16.6501 31.9098Z" fill="#D00F31"/>
<path d="M10.98 29.3201C10.15 29.3201 9.33004 28.9501 8.78004 28.2501C7.83004 27.0401 8.04003 25.2801 9.26003 24.3301L10.88 23.0601C12.09 22.1101 13.85 22.3201 14.8 23.5401C15.26 24.1301 15.46 24.8601 15.37 25.6001C15.28 26.3401 14.91 27.0001 14.32 27.4601L12.7 28.7301C12.19 29.1301 11.58 29.3201 10.98 29.3201ZM9.94004 25.1901C9.20004 25.7701 9.07004 26.8301 9.65004 27.5701C10.23 28.3101 11.29 28.4401 12.03 27.8601L13.65 26.5901C14 26.3101 14.23 25.9101 14.29 25.4601C14.35 25.0101 14.22 24.5601 13.95 24.2101C13.37 23.4701 12.31 23.3401 11.57 23.9201L9.95004 25.1901H9.94004Z" fill="#D00F31"/>
<path d="M21.74 38.9301C20.91 38.9301 20.09 38.5601 19.54 37.8601C18.59 36.6501 18.8 34.8901 20.02 33.9401L21.44 32.8301C22.65 31.8801 24.41 32.0901 25.36 33.3101C26.31 34.5201 26.1 36.2801 24.88 37.2301L23.46 38.3401C22.95 38.7401 22.34 38.9301 21.74 38.9301ZM20.7 34.8001C19.96 35.3801 19.83 36.4401 20.41 37.1801C20.99 37.9201 22.05 38.0501 22.79 37.4701L24.21 36.3601C24.95 35.7801 25.08 34.7201 24.5 33.9801C23.92 33.2401 22.86 33.1101 22.12 33.6901L20.7 34.8001Z" fill="#D00F31"/>
<path d="M26.1601 4.51C25.8601 4.51 25.6101 4.27 25.6101 3.97L25.5601 0.56C25.5601 0.26 25.8001 0.01 26.1001 0C26.4001 0.01 26.6501 0.24 26.6601 0.54L26.7101 3.95C26.7101 4.25 26.4701 4.5 26.1701 4.51H26.1601Z" fill="#D00F31"/>
<path d="M31.1701 5.43994C31.0801 5.43994 30.9901 5.41994 30.9001 5.36994C30.6301 5.21994 30.5401 4.88994 30.6901 4.61994L32.3501 1.64994C32.5001 1.37994 32.8301 1.28994 33.1001 1.43994C33.3701 1.58994 33.4601 1.91994 33.3101 2.18994L31.6501 5.15994C31.5501 5.33994 31.3601 5.43994 31.1701 5.43994Z" fill="#D00F31"/>
<path d="M21.17 5.58996C20.98 5.58996 20.8 5.48996 20.7 5.31996L18.95 2.39996C18.79 2.13996 18.88 1.79996 19.14 1.64996C19.4 1.48996 19.74 1.57996 19.89 1.83996L21.64 4.75996C21.8 5.01996 21.71 5.35996 21.45 5.50996C21.36 5.55996 21.26 5.58996 21.17 5.58996Z" fill="#D00F31"/>
<path d="M14.68 7.33979L11.73 5.17979C11.48 4.99979 11.14 5.04979 10.96 5.29979L0.38998 19.7098C0.29998 19.8298 0.26998 19.9698 0.28998 20.1198C0.30998 20.2598 0.38998 20.3898 0.50998 20.4798L3.45998 22.6398C3.55998 22.7098 3.66998 22.7498 3.77998 22.7498C3.94998 22.7498 4.11998 22.6698 4.21998 22.5198L14.79 8.09979C14.88 7.97979 14.91 7.83979 14.89 7.68979C14.87 7.54979 14.79 7.41979 14.67 7.32979L14.68 7.33979Z" fill="#BC9500"/>
</g>
<defs>
<clipPath id="clip0_9_318">
<rect width="49.44" height="38.93" fill="white" transform="translate(0.280029)"/>
</clipPath>
</defs>
</svg>
