<svg width="202" height="235" viewBox="0 0 202 235" fill="none" xmlns="http://www.w3.org/2000/svg">
<g clip-path="url(#clip0_81_4461)">
<path d="M0.000305176 109.056L88.8104 56.2578L151.919 183.502L64.6009 234.263L0.000305176 109.056Z" fill="#B15733"/>
<path d="M98.1609 58.4158L-0.00202942 109.06L64.5943 234.267L162.757 183.623L98.1609 58.4158Z" fill="#EC7444"/>
<path d="M90.8722 162.651C90.8322 162.631 86.5729 160.689 81.793 157.16C77.3685 153.892 71.5676 148.551 69.0801 141.664C67.033 135.999 67.4885 130.128 70.4315 124.222L71.3024 124.667C68.4795 130.328 68.039 135.934 69.991 141.339C72.3935 147.986 78.0342 153.181 82.3436 156.364C87.0383 159.838 91.2176 161.745 91.2626 161.765L90.8722 162.651Z" fill="#FBF1E3"/>
<path d="M91.1625 163.391L90.647 163.171C90.607 163.156 86.3276 161.214 81.4577 157.616C76.9681 154.297 71.0871 148.872 68.5496 141.855C66.4474 136.039 66.9079 130.023 69.926 123.971L70.1812 123.461L72.0531 124.422L71.8029 124.922C69.0551 130.438 68.6196 135.899 70.5166 141.154C72.869 147.671 78.4246 152.781 82.6739 155.919C87.1134 159.202 91.0524 161.059 91.4878 161.259L91.9884 161.49L91.1575 163.396L91.1625 163.391Z" fill="#FBF1E3"/>
<path d="M79.7609 134.592C77.5837 136.434 75.2313 137.741 72.7488 138.491C68.8799 139.658 64.7007 139.462 60.3162 137.911L60.6265 136.995C68.2242 139.688 74.9561 138.161 80.6368 132.455C84.9062 128.171 86.9382 123.026 86.9582 122.976L87.8642 123.341C87.7791 123.556 85.737 128.721 81.3275 133.151C80.817 133.666 80.2915 134.147 79.7559 134.597L79.7609 134.592Z" fill="#FBF1E3"/>
<path d="M75.857 137.856C74.901 138.331 73.915 138.726 72.914 139.027C68.9299 140.228 64.6306 140.033 60.131 138.436L59.6055 138.251L60.2812 136.264L60.8167 136.454C68.1892 139.072 74.7258 137.585 80.2364 132.045C84.3306 127.936 86.3526 122.965 86.4327 122.755L86.6429 122.23L88.5899 123.011L88.3897 123.526C88.3046 123.746 86.2375 128.997 81.7279 133.526C81.2124 134.047 80.6719 134.542 80.1213 135.008C78.7649 136.154 77.3385 137.105 75.852 137.846L75.857 137.856Z" fill="#FBF1E3"/>
<path d="M101.643 149.372C100.102 148.581 94.3207 148.346 88.2946 150.704C83.8201 152.45 77.889 156.199 75.0812 164.102L74.1653 163.762C77.0982 155.518 83.2695 151.615 87.9292 149.793C94.0154 147.415 100.152 147.525 102.074 148.506L101.643 149.372Z" fill="#FBF1E3"/>
<path d="M75.4165 164.828L73.4445 164.097L73.6297 163.572C76.6328 155.128 82.9492 151.129 87.724 149.267C94.0454 146.8 100.267 146.95 102.329 148.006L102.824 148.261L101.888 150.133L101.383 149.873C99.9614 149.142 94.2807 148.967 88.4998 151.224C84.1254 152.926 78.3495 156.585 75.6117 164.287L75.4215 164.828H75.4165Z" fill="#FBF1E3"/>
<path d="M91.5429 162.3L90.5869 162.125C90.5969 162.08 91.3427 157.576 91.0774 151.77C90.8322 146.444 89.661 138.897 85.4567 133.201C82.0383 128.566 77.1133 125.788 70.8069 124.933L70.922 123.967C77.5037 124.857 82.6539 127.77 86.2375 132.63C90.5919 138.536 91.7982 146.294 92.0484 151.765C92.3187 157.666 91.5529 162.255 91.5429 162.3Z" fill="#FBF1E3"/>
<path d="M92.0034 162.956L89.9413 162.576L90.0314 162.03C90.0614 161.845 90.7721 157.435 90.5169 151.795C90.2766 146.544 89.1254 139.117 85.0063 133.531C81.6829 129.027 76.883 126.319 70.7368 125.488L70.1862 125.413L70.4365 123.331L71.0021 123.406C77.7389 124.317 83.0193 127.305 86.693 132.295C91.1275 138.316 92.3587 146.189 92.614 151.735C92.8843 157.671 92.1085 162.35 92.1035 162.395L92.0084 162.956H92.0034Z" fill="#FBF1E3"/>
<path d="M95.1516 160.048C93.9804 161.039 92.6891 161.91 91.2977 162.641C80.762 168.191 67.5536 164.042 61.8578 153.391C56.162 142.74 60.101 129.562 70.6367 124.016C81.1724 118.466 94.3808 122.615 100.077 133.266C102.834 138.426 103.44 144.322 101.783 149.868C100.577 153.902 98.2797 157.405 95.1516 160.048ZM62.7136 152.946C65.3513 157.876 69.7258 161.505 75.0361 163.176C80.3465 164.843 85.9572 164.347 90.8322 161.78C95.7071 159.212 99.2657 154.878 100.847 149.577C102.429 144.277 101.853 138.641 99.2157 133.716C93.7752 123.541 81.1574 119.582 71.0921 124.882C61.0269 130.183 57.2631 142.775 62.7086 152.946H62.7136Z" fill="#FBF1E3"/>
<path d="M91.1225 163.366C80.3866 168.722 67.1281 164.438 61.3623 153.662C58.5094 148.326 57.9088 142.225 59.6655 136.484C61.3923 130.853 65.1962 126.249 70.3714 123.521C81.2024 117.85 94.7261 122.085 100.567 133.001C103.395 138.291 104.021 144.342 102.319 150.033C101.093 154.142 98.7352 157.756 95.5119 160.479C94.3057 161.5 92.9743 162.395 91.5579 163.141C91.4128 163.216 91.2676 163.291 91.1225 163.366ZM71.7578 125.173C71.6227 125.238 71.4926 125.308 71.3624 125.378C66.6777 127.845 63.2342 132.015 61.6726 137.11C60.076 142.315 60.6215 147.841 63.2091 152.681C65.7768 157.48 70.0361 161.014 75.2063 162.641C80.3766 164.267 85.8371 163.777 90.5719 161.284C95.3117 158.787 98.7702 154.573 100.312 149.422C101.853 144.267 101.288 138.787 98.7252 133.987C93.4999 124.217 81.4827 120.333 71.7578 125.183V125.173Z" fill="#FBF1E3"/>
<path d="M99.8764 133.921L62.5184 153.601L62.053 152.736L99.4159 133.061L99.8764 133.921Z" fill="#FBF1E3"/>
<path d="M62.2832 154.357L61.2922 152.5L99.6511 132.3L100.642 134.157L62.2832 154.357Z" fill="#FBF1E3"/>
<path d="M29.3448 116.644C45.6313 108.236 61.6025 99.2415 77.7439 90.5626C82.1233 88.2103 86.5128 85.8829 90.9323 83.6006C92.1235 82.985 91.0724 81.1931 89.8812 81.8038C73.94 90.0371 58.3242 98.8711 42.5131 107.355C37.7934 109.887 33.0535 112.39 28.2937 114.847C27.1025 115.463 28.1536 117.255 29.3448 116.644Z" fill="#FBF1E3"/>
<path d="M45.2559 120.543C57.5784 114.067 69.9009 107.585 82.2234 101.108C83.4096 100.488 82.3586 98.6909 81.1724 99.3116C68.8499 105.788 56.5274 112.27 44.2049 118.746C43.0187 119.367 44.0697 121.164 45.2559 120.543Z" fill="#FBF1E3"/>
<path d="M110.489 190.451L97.3969 197.865C96.9495 198.118 96.7921 198.686 97.0455 199.133L101.682 207.321C101.935 207.769 102.503 207.926 102.951 207.673L116.043 200.26C116.49 200.006 116.647 199.438 116.394 198.991L111.758 190.803C111.504 190.355 110.936 190.198 110.489 190.451Z" fill="#FBF1E3"/>
<path d="M114.251 192.846C114.076 192.671 113.831 192.701 113.655 192.846C112.434 193.827 111.078 194.633 109.646 195.269C109.536 195.319 109.471 195.429 109.446 195.549C109.361 195.594 109.276 195.644 109.186 195.689C108.68 195.194 108.02 194.944 107.324 194.879C106.793 194.828 106.288 194.949 105.822 195.179C105.627 195.224 105.437 195.289 105.257 195.384C104.686 195.684 104.286 196.265 104.101 196.871C104.081 196.931 104.086 196.991 104.071 197.051C103.83 197.566 103.645 198.112 103.66 198.692C103.66 198.732 103.67 198.772 103.67 198.813C102.134 199.738 100.617 200.694 99.1256 201.69C99.0455 201.745 99.0005 201.816 98.9654 201.891C98.9104 201.926 98.8553 201.961 98.8003 201.991C98.3398 202.276 98.7552 203.017 99.2157 202.726C99.9064 202.296 100.592 201.866 101.283 201.435C102.169 200.93 103.055 200.429 103.945 199.924C104.056 200.154 104.191 200.374 104.376 200.554C104.671 200.835 105.037 201.005 105.422 201.07C105.492 201.095 105.562 201.125 105.637 201.145C106.038 201.25 106.483 201.255 106.878 201.135C107.359 200.99 107.699 200.765 108.09 200.459C108.445 200.184 108.79 199.879 109.076 199.533C109.251 199.318 109.441 199.093 109.571 198.843C109.776 198.457 109.877 198.102 109.927 197.671C109.967 197.316 109.912 196.951 109.781 196.61C111.043 195.895 112.304 195.179 113.56 194.463C113.811 194.323 113.811 194.058 113.69 193.873C113.876 193.732 114.061 193.602 114.246 193.457C114.426 193.312 114.396 193.007 114.246 192.861L114.251 192.846Z" fill="#EC7444"/>
<path d="M72.894 188.492C73.3494 188.137 73.9701 187.716 74.8109 187.271C75.832 186.73 76.7129 186.565 77.4236 186.74C78.0642 186.895 78.6448 187.336 79.0252 188.051C79.4106 188.782 79.5007 189.468 79.3155 190.104C79.0753 190.984 78.3395 191.75 77.3235 192.291C77.0082 192.456 76.7179 192.596 76.4426 192.661L78.1543 195.889L77.1133 196.44L72.894 188.492ZM75.9921 191.815C76.2574 191.76 76.5627 191.63 76.903 191.45C78.1643 190.779 78.5948 189.758 78.0142 188.657C77.4486 187.591 76.4126 187.476 75.2714 188.081C74.8109 188.327 74.4956 188.547 74.3304 188.687L75.9921 191.82V191.815Z" fill="#FBF1E3"/>
<path d="M82.4287 190.379L82.9392 193.352L81.8631 193.922L80.3265 184.423L81.5778 183.757L88.5999 190.344L87.4888 190.934L85.2815 188.862L82.4287 190.379ZM84.6409 188.162L82.6138 186.27C82.1584 185.834 81.783 185.419 81.4176 185.018L81.3876 185.033C81.5227 185.564 81.6579 186.124 81.763 186.7L82.2084 189.453L84.6409 188.162Z" fill="#FBF1E3"/>
<path d="M88.9703 188.522C89.5909 188.567 90.3917 188.437 91.1025 188.057C92.1635 187.491 92.4939 186.605 92.0634 185.789C91.668 185.043 90.9974 184.833 89.696 185.003C88.1345 185.234 86.9532 184.978 86.3576 183.852C85.692 182.601 86.2375 181.114 87.8041 180.284C88.6199 179.848 89.3307 179.718 89.7861 179.733L89.9513 180.739C89.616 180.724 88.9553 180.779 88.2295 181.165C87.1234 181.75 87.0534 182.631 87.3487 183.177C87.7441 183.922 88.4298 184.032 89.7661 183.872C91.4178 183.682 92.4488 183.972 93.0795 185.154C93.7351 186.39 93.4048 187.956 91.4979 188.967C90.7171 189.378 89.7461 189.598 89.1605 189.533L88.9753 188.522H88.9703Z" fill="#FBF1E3"/>
<path d="M94.8613 185.394C95.4819 185.439 96.2827 185.309 96.9934 184.928C98.0545 184.363 98.3849 183.477 97.9544 182.661C97.559 181.915 96.8883 181.705 95.587 181.875C94.0254 182.105 92.8442 181.85 92.2486 180.724C91.583 179.473 92.1285 177.986 93.7001 177.155C94.5159 176.72 95.2267 176.59 95.6821 176.605L95.8473 177.611C95.5119 177.596 94.8513 177.651 94.1255 178.036C93.0194 178.622 92.9493 179.503 93.2396 180.048C93.635 180.794 94.3207 180.904 95.6621 180.744C97.3088 180.554 98.3448 180.844 98.9705 182.025C99.6261 183.262 99.2958 184.828 97.3888 185.839C96.6081 186.25 95.6371 186.47 95.0515 186.405L94.8663 185.394H94.8613Z" fill="#FBF1E3"/>
<path d="M97.3338 175.514C97.7892 175.158 98.4099 174.738 99.2507 174.292C100.272 173.752 101.153 173.587 101.863 173.762C102.504 173.917 103.085 174.352 103.465 175.073C103.85 175.804 103.94 176.495 103.755 177.125C103.515 178.006 102.779 178.772 101.763 179.312C101.448 179.478 101.158 179.618 100.882 179.683L102.594 182.911L101.558 183.462L97.3388 175.514H97.3338ZM100.432 178.837C100.697 178.782 101.003 178.652 101.343 178.472C102.604 177.801 103.035 176.78 102.454 175.679C101.888 174.613 100.852 174.498 99.7112 175.103C99.2507 175.348 98.9354 175.569 98.7702 175.709L100.432 178.842V178.837Z" fill="#FBF1E3"/>
<path d="M112.614 172.331C114.081 175.093 113.185 177.461 111.133 178.552C109.001 179.683 106.638 178.822 105.347 176.39C103.996 173.842 104.681 171.325 106.828 170.188C109.026 169.022 111.348 169.948 112.614 172.336V172.331ZM106.428 175.774C107.344 177.496 109.096 178.542 110.732 177.671C112.384 176.795 112.504 174.788 111.533 172.956C110.682 171.355 108.961 170.128 107.229 171.044C105.502 171.96 105.487 174.017 106.423 175.774H106.428Z" fill="#FBF1E3"/>
<path d="M111.929 167.781C112.399 167.395 113.12 166.925 113.836 166.545C114.937 165.959 115.777 165.784 116.518 165.969C117.104 166.109 117.624 166.535 117.96 167.165C118.52 168.221 118.22 169.282 117.534 170.018L117.549 170.048C118.275 169.938 118.956 170.318 119.596 171.049C120.457 172.035 121.058 172.701 121.388 172.931L120.312 173.502C120.062 173.336 119.516 172.746 118.761 171.855C117.935 170.879 117.274 170.684 116.318 171.149L115.332 171.67L117.184 175.158L116.148 175.709L111.934 167.771L111.929 167.781ZM114.912 170.894L115.973 170.328C117.084 169.738 117.469 168.757 116.979 167.836C116.423 166.79 115.427 166.735 114.331 167.315C113.826 167.581 113.5 167.816 113.35 167.951L114.912 170.889V170.894Z" fill="#FBF1E3"/>
<path d="M120.402 164.262L117.95 165.564L117.484 164.683L123.445 161.52L123.911 162.4L121.448 163.707L125.257 170.874L124.211 171.43L120.402 164.262Z" fill="#FBF1E3"/>
<path d="M128.565 31.9382C128.565 31.9382 39.435 -7.19654 32.3929 1.17696C22.1325 13.3743 16.5268 25.5667 51.9727 57.2689C62.053 66.288 73.1392 75.107 91.2076 83.8359C115.282 95.4677 130.022 102.26 145.152 106.969C175.343 116.364 194.127 113.941 201.149 100.538C204.192 94.7319 190.128 78.03 171.975 62.1038C157.945 49.7963 141.474 37.9443 128.565 31.9382Z" fill="#FDF0E0"/>
<path d="M44.365 51.6031C39.5301 47.5039 40.9666 45.7271 35.2558 41.4578C26.8322 35.1564 24.9603 26.5376 24.7601 19.6607C24.5199 11.4023 28.8443 5.62641 32.1877 1.65237C33.9144 -0.399708 39.9205 -0.0143165 50.5513 2.83858C58.8347 5.06083 69.8559 8.7696 83.3196 13.8698C106.228 22.5486 128.565 32.3786 128.786 32.4787H128.791C140.858 38.0944 157.119 49.3958 172.285 62.6993C181.579 70.8576 189.602 79.0459 194.868 85.7627C200.819 93.3504 203.061 98.6658 201.545 101.564C197.976 108.381 191.384 112.4 181.965 113.516C172.52 114.632 160.128 112.835 145.132 108.17C130.532 103.626 116.678 97.3545 91.1375 85.017C77.809 78.5754 68.6297 71.3831 60.5314 65.0417C57.5534 62.7093 54.7406 60.5021 51.8476 58.42C50.8566 57.7043 45.331 52.4139 44.37 51.6031H44.365ZM128.49 33.1293C128.1 32.9591 105.862 23.1742 83.0593 14.5354C69.6207 9.44528 58.6195 5.74152 50.3611 3.52427C37.6682 0.12082 33.7643 0.876588 32.7282 2.10784C29.515 5.92671 28.6341 8.44927 26.4619 13.8548C20.8061 27.929 32.488 35.8821 42.9286 44.7461C43.8645 45.5369 51.282 57.1487 52.253 57.8444C55.161 59.9365 57.9788 62.1438 60.9619 64.4811C69.0301 70.8026 78.1793 77.9698 91.4378 84.3763C116.944 96.6988 130.778 102.96 145.332 107.49C160.233 112.124 172.53 113.916 181.875 112.81C191.054 111.724 197.455 107.83 200.914 101.233C202.275 98.6408 199.988 93.4405 194.307 86.1932C189.067 79.5114 181.079 71.3531 171.814 63.2249C156.699 49.9614 140.503 38.705 128.49 33.1143V33.1293Z" fill="#ECB771"/>
<path d="M56.5124 52.0285L56.4823 51.9935C56.4173 51.9184 49.6754 44.5459 43.4141 36.6129C34.7953 25.6968 31.2918 19.2302 32.7032 16.8378C34.3499 14.045 39.385 11.6525 45.8415 10.5965C50.0458 9.91077 58.4093 9.23509 67.2182 12.4584C81.2775 17.5936 119.181 35.0012 135.963 44.0204C144.962 48.8553 156.899 56.428 166.379 63.31C174.742 69.3811 184.988 77.6445 186.304 82.5295C187.2 85.8478 190.173 89.0811 192.796 91.929C195.553 94.922 197.931 97.5097 197.385 99.6218C197.1 100.733 196.039 101.584 194.147 102.214C189.477 103.771 180.293 104.482 169.592 104.106C158.306 103.711 147.565 102.184 140.117 99.9121C133.415 97.87 117.319 89.1912 92.2686 74.1259C73.6247 62.9096 56.7226 52.1536 56.5574 52.0485L56.5174 52.0235L56.5124 52.0285ZM175.949 71.6534C173.161 69.291 169.822 66.6884 165.963 63.8855C156.504 57.0186 144.597 49.4659 135.628 44.646C118.866 35.6369 81.0072 18.2542 66.973 13.124C58.3142 9.96082 50.0858 10.6215 45.9516 11.2972C39.7904 12.3032 34.7953 14.6456 33.2738 17.2232C32.5831 18.3944 33.0836 22.3884 43.9646 36.1724C49.9957 43.8102 56.4623 50.9274 56.9728 51.483C58.9298 52.7292 124.621 94.4566 140.322 99.2414C156.309 104.116 184.527 104.682 193.922 101.549C195.568 100.998 196.474 100.313 196.7 99.4516C197.15 97.7149 194.778 95.1423 192.27 92.4145C189.592 89.5015 186.559 86.2032 185.618 82.7197C184.958 80.2672 181.604 76.4583 175.949 71.6534Z" fill="#ECB771"/>
<path d="M58.4944 44.4458L58.4593 44.4007C57.9939 43.7601 47.0578 28.5847 48.6544 22.3884C48.9247 21.3423 49.5303 20.5916 50.4562 20.1561C57.3282 16.9329 84.5808 24.1352 100.737 33.4446C106.188 36.5878 114.351 40.707 122.995 45.0714C139.737 53.525 158.716 63.1047 164.627 68.9156C177.26 81.3282 182.911 89.2463 181.915 93.1302C181.614 94.3014 180.728 95.1022 179.282 95.5076C171.149 97.7849 150.778 93.3755 142.4 91.3734C136.393 89.937 117.86 80.3923 104.326 73.4252C101.933 72.194 99.6762 71.0328 97.6591 70.0017C84.2905 63.1798 58.7897 44.661 58.5344 44.4758L58.4894 44.4408L58.4944 44.4458ZM163.055 68.4351C156.224 62.6342 138.461 53.6702 122.68 45.7021C114.026 41.3326 105.852 37.2084 100.387 34.0552C92.8943 29.7409 82.2935 25.5316 72.0281 22.8038C61.8127 20.0911 53.8597 19.3353 50.7565 20.7918C50.0208 21.1371 49.5553 21.7127 49.3401 22.5586C47.8636 28.2744 58.3292 43.0043 58.9999 43.9353C60.2311 44.8262 84.9312 62.7093 97.9844 69.3711C100.001 70.4021 102.259 71.5633 104.651 72.7946C118.155 79.7466 136.649 89.2663 142.565 90.6827C149.061 92.2343 170.893 97.1192 179.092 94.8219C180.293 94.4866 180.994 93.871 181.234 92.95C182.15 89.3814 176.399 81.4634 164.137 69.4161C163.816 69.1008 163.451 68.7705 163.055 68.4351Z" fill="#ECB771"/>
<path d="M70.2113 45.2115C68.2793 43.5699 66.5075 41.9032 65.1211 40.2165C62.048 36.4827 61.3072 33.1593 62.8588 30.0461C63.4444 28.8699 64.5005 28.0491 65.997 27.6037C70.4265 26.2823 78.0742 28.5046 83.715 30.6017C90.4017 33.0892 98.3498 36.9181 105.522 41.1074C109.716 43.5599 115.072 46.623 120.743 49.8663C136.353 58.8003 154.046 68.9256 157.665 71.9937C157.71 72.0338 157.755 72.0688 157.8 72.1088C158.075 72.3441 158.361 72.5843 158.661 72.8396C164.447 77.7295 169.187 81.9538 168.581 84.086C168.411 84.6816 167.87 85.052 166.974 85.1871C164.827 85.5124 161.234 86.058 155.993 85.7627C150.027 85.4273 143.085 84.056 135.372 81.6986C126.764 79.0659 115.928 74.6364 105.647 69.5512C95.1466 64.356 86.8782 59.2608 82.9592 55.5771C80.9021 53.6451 78.4046 51.7031 75.7569 49.646C73.88 48.1896 71.978 46.7081 70.2113 45.2065V45.2115ZM157.205 72.5293C153.636 69.5012 135.973 59.3959 120.387 50.4769C114.716 47.2336 109.356 44.1655 105.162 41.713C91.4828 33.7249 73.4595 26.1172 66.1972 28.2794C64.8959 28.6647 63.9849 29.3655 63.4894 30.3615C60.3062 36.7429 68.3794 43.0193 76.1923 49.0855C78.85 51.1526 81.3626 53.1045 83.4447 55.0615C91.4178 62.5541 117.239 75.4122 135.578 81.0229C153.531 86.5135 162.205 85.1971 166.869 84.4914C167.47 84.4013 167.815 84.2011 167.9 83.8958C168.051 83.3602 167.65 82.134 164.877 79.3462C162.885 77.3391 160.288 75.1469 158.201 73.3801C157.855 73.0848 157.52 72.8045 157.205 72.5393C157.205 72.5393 157.205 72.5393 157.2 72.5393L157.205 72.5293Z" fill="#ECB771"/>
<path d="M77.7339 32.8642C77.7339 32.8642 106.638 -0.629758 118.515 2.52845C130.387 5.68165 143.401 2.75368 147.995 13.1993C152.59 23.6499 161.824 29.646 158.636 41.2578C155.448 52.8645 155.498 71.4784 145.603 72.6496C135.708 73.8208 86.9532 57.0638 77.7389 32.8642H77.7339Z" fill="#FDF0E0"/>
<path d="M98.565 48.8653C94.3107 45.2567 90.9723 41.2276 88.645 37.9993C84.8111 32.6839 82.804 28.3245 82.784 28.2794L83.4297 27.9841C83.4497 28.0292 85.4367 32.3335 89.2306 37.5989C92.7291 42.4438 98.525 49.1156 106.278 53.3699C116.523 58.9906 129.096 62.319 138.275 64.7464C142.595 65.8876 146.329 66.8786 148.716 67.8146L148.456 68.4752C146.108 67.5493 142.395 66.5683 138.095 65.4321C128.881 62.9947 116.258 59.6563 105.938 53.9905C103.245 52.509 100.782 50.7472 98.565 48.8653Z" fill="#ECB771"/>
<path d="M101.303 38.9051C97.8043 35.9321 95.1165 32.6237 93.2747 29.986C90.2766 25.7017 88.7851 22.2031 88.7701 22.1681L89.4208 21.8928C89.4358 21.9279 90.9073 25.3714 93.8653 29.5956C96.588 33.4896 101.163 38.86 107.504 42.3586L108.545 42.9342C120.607 49.5959 143.055 61.9985 149.071 59.8463L149.312 60.512C142.995 62.7743 121.218 50.7421 108.205 43.5548L107.164 42.9792C105.012 41.793 103.06 40.3916 101.308 38.9051H101.303Z" fill="#ECB771"/>
<path d="M105.557 29.816C102.084 26.868 99.8513 23.8149 98.485 21.5076C96.4679 18.0991 95.8823 15.6066 95.8573 15.5015L96.548 15.3413C96.548 15.3413 97.1436 17.8539 99.1106 21.1722C100.927 24.2353 104.321 28.6548 110.187 32.3185C121.694 39.5058 145.327 49.2407 149.146 49.3208C152.935 49.4009 157.33 47.594 157.375 47.579L157.645 48.2347C157.46 48.3098 153.07 50.1166 149.131 50.0315C147.179 49.9915 140.563 47.6741 132.274 44.1355C123.35 40.3267 114.952 36.1324 109.811 32.9191C108.22 31.9231 106.808 30.8771 105.557 29.816Z" fill="#ECB771"/>
<path d="M112.609 27.749C106.588 22.6388 101.518 11.6576 101.273 11.1271L101.918 10.8318C101.984 10.9769 108.735 25.5968 115.642 28.9452C117.189 29.6959 119.201 30.757 121.528 31.9883C129.441 36.1725 141.394 42.4939 145.778 41.7081C151.534 40.6771 158.586 42.1185 158.656 42.1285L158.511 42.8193C158.441 42.8042 151.519 41.3928 145.903 42.3988C141.278 43.2297 129.672 37.0884 121.198 32.6089C118.876 31.3826 116.874 30.3216 115.337 29.5758C114.416 29.1304 113.505 28.4997 112.614 27.744L112.609 27.749Z" fill="#ECB771"/>
<path d="M118.085 24.5056C116.824 23.4345 115.848 22.4585 115.257 21.6477C111.413 16.3824 108.815 6.52737 108.705 6.10694L109.391 5.92676C109.416 6.02686 112.064 16.067 115.828 21.2273C117.684 23.7749 123.495 28.0292 129.952 31.5778C137.184 35.5518 143.16 37.5088 145.938 36.8131C152.33 35.2065 157.92 31.823 157.98 31.788L158.351 32.3936C158.296 32.4287 152.615 35.8671 146.113 37.4988C141.869 38.5649 133.16 34.1454 129.617 32.1984C125.107 29.7159 120.893 26.883 118.09 24.5006L118.085 24.5056Z" fill="#ECB771"/>
<path d="M122.034 16.6576C121.989 16.6226 121.949 16.5825 121.904 16.5475C117.594 12.8738 116.804 9.5454 116.894 7.39822C116.994 5.04584 118.135 3.58936 118.18 3.5293L118.736 3.96974C118.736 3.96974 117.679 5.33613 117.599 7.4733C117.494 10.3112 119.141 13.2642 122.359 16.012C122.399 16.047 122.444 16.082 122.484 16.1171C129.787 22.3134 138.145 26.8079 144.331 27.849C149.842 28.7799 155.067 26.2524 155.122 26.2273L155.433 26.863C155.213 26.9731 149.957 29.5157 144.211 28.5447C141.228 28.0392 137.68 26.7429 133.946 24.7909C129.952 22.6988 125.833 19.8909 122.024 16.6576H122.034Z" fill="#ECB771"/>
<path d="M128.315 14.5504C126.298 12.8387 125.372 10.8967 124.957 9.40018C124.341 7.20295 124.647 5.49121 124.657 5.42114L125.352 5.55127C125.352 5.55127 125.067 7.19795 125.648 9.24502C126.423 11.9778 128.29 14.12 131.203 15.6165C138.235 19.2352 150.808 21.6026 151.749 21.2822C151.724 21.2922 151.649 21.3373 151.614 21.4374C151.579 21.5375 151.604 21.6276 151.639 21.6776L152.235 21.2923C152.345 21.4624 152.335 21.6676 152.199 21.8128C152.059 21.9679 151.869 22.1832 149.372 21.7978C147.835 21.5625 145.863 21.1621 143.821 20.6666C138.601 19.4053 133.886 17.7937 130.883 16.2471C129.877 15.7316 129.031 15.156 128.32 14.5554L128.315 14.5504Z" fill="#ECB771"/>
<path d="M135.848 12.6886C134.471 11.5174 133.826 10.1661 133.526 9.08496C133.05 7.37323 133.32 5.98682 133.33 5.92676L134.026 6.06189C134.026 6.06189 133.781 7.36822 134.216 8.9248C134.797 10.9919 136.248 12.5285 138.531 13.4894C144.101 15.8418 147.75 14.1201 147.785 14.1001L148.095 14.7357C147.935 14.8158 144.121 16.6176 138.255 14.1401C137.274 13.7247 136.484 13.2242 135.848 12.6886Z" fill="#ECB771"/>
<path d="M77.7339 32.8643C77.7339 32.8643 93.8402 59.2811 118.25 64.0359C142.665 68.7957 149.091 71.8538 149.091 71.8538C149.091 71.8538 146.359 69.7867 125.708 67.0139C88.7301 62.0489 77.7289 32.8643 77.7289 32.8643H77.7339Z" fill="#978671"/>
<path d="M118.085 61.6985C133.851 64.7716 142.089 67.099 145.988 68.3953C148.416 69.096 150.403 69.4714 150.453 69.5114L152.009 73.6206L148.946 72.1641C148.946 72.1641 147.985 71.7187 145.583 70.9379C142.48 70.082 136.604 68.8207 125.668 67.3542C117.189 66.2181 109.381 63.7005 102.449 59.8816C98.9504 57.9547 95.6721 55.6924 92.649 53.1248C90.8772 51.6233 89.1955 50.0166 87.6039 48.3049C80.2715 40.4269 77.4386 33.0494 77.4086 32.9743L79.0202 30.4368C79.0602 30.5018 82.0333 36.7982 89.0654 43.8304C96.8783 51.6433 100.227 54.9917 105.807 57.224C111.388 59.4562 118.085 61.6885 118.085 61.6885V61.6985Z" fill="#EC7444"/>
<path d="M143.756 10.0711C143.621 10.0711 143.801 10.0711 143.826 10.0761C143.866 10.0761 143.906 10.0861 143.946 10.0911C144.041 10.1061 144.136 10.1211 144.226 10.1461C144.266 10.1562 144.306 10.1662 144.347 10.1762C144.402 10.1912 144.397 10.1912 144.331 10.1712C144.357 10.1812 144.382 10.1862 144.407 10.1962C144.482 10.2212 144.562 10.2563 144.637 10.2863C144.727 10.3263 144.812 10.3664 144.892 10.4114C144.932 10.4364 144.977 10.4565 145.017 10.4815C145.142 10.5566 144.962 10.4364 145.052 10.5065C145.202 10.6166 145.348 10.7267 145.488 10.8569C145.533 10.8969 145.658 10.987 145.678 11.0471C145.628 10.992 145.623 10.987 145.663 11.032C145.678 11.0471 145.688 11.0621 145.703 11.0821C145.733 11.1171 145.763 11.1572 145.793 11.1972C145.903 11.3474 145.998 11.5025 146.088 11.6677C146.108 11.7027 146.103 11.6927 146.073 11.6377C146.083 11.6627 146.098 11.6877 146.108 11.7127C146.123 11.7478 146.143 11.7878 146.158 11.8279C146.193 11.9179 146.228 12.008 146.253 12.0981C146.263 12.1382 146.278 12.1782 146.288 12.2183C146.293 12.2433 146.303 12.2733 146.309 12.2983C146.293 12.2333 146.293 12.2283 146.309 12.2833C146.324 12.3784 146.339 12.4735 146.349 12.5686C146.374 12.8489 146.634 13.0941 146.924 13.0541C147.209 13.0191 147.44 12.7738 147.41 12.4785C147.32 11.5426 146.864 10.6917 146.183 10.0511C145.498 9.4054 144.607 9.04503 143.671 9.00999C143.391 8.99998 143.15 9.32031 143.185 9.58558C143.225 9.9009 143.461 10.0611 143.761 10.0711H143.756Z" fill="white"/>
<path d="M147.31 17.4135C147.79 18.2494 148.396 19.0051 149.081 19.6758C149.281 19.871 149.667 19.831 149.832 19.6158C150.017 19.3755 149.982 19.0752 149.772 18.865C149.687 18.7799 149.602 18.6998 149.522 18.6147C149.487 18.5797 149.452 18.5397 149.417 18.5046C149.397 18.4846 149.312 18.3895 149.377 18.4596C149.226 18.2894 149.076 18.1142 148.941 17.934C148.666 17.5787 148.416 17.2033 148.19 16.8179C148.05 16.5777 147.67 16.5126 147.45 16.6778C147.204 16.863 147.159 17.1583 147.31 17.4185V17.4135Z" fill="white"/>
<path d="M151.113 23.3744C151.429 23.4495 151.534 23.4795 151.824 23.5996C152.079 23.7047 152.33 23.8248 152.57 23.965C152.63 24 152.69 24.0351 152.75 24.0751C152.66 24.015 152.83 24.1302 152.845 24.1402C152.96 24.2202 153.07 24.3003 153.175 24.3904C153.391 24.5656 153.591 24.7558 153.781 24.961C153.971 25.1662 154.372 25.1061 154.532 24.9009C154.727 24.6507 154.672 24.3704 154.472 24.1502C153.626 23.2393 152.505 22.6136 151.299 22.3333C151.028 22.2683 150.718 22.4935 150.683 22.7638C150.643 23.0641 150.823 23.3143 151.113 23.3794V23.3744Z" fill="white"/>
<path d="M155.012 28.1894C155.087 28.2945 155.157 28.4046 155.218 28.5147C155.233 28.5397 155.248 28.5698 155.263 28.5948C155.313 28.6799 155.233 28.5247 155.263 28.5848C155.293 28.6448 155.318 28.7049 155.348 28.77C155.398 28.8851 155.438 28.9952 155.473 29.1153C155.493 29.1754 155.508 29.2304 155.523 29.2905C155.533 29.3255 155.543 29.3606 155.548 29.3956C155.548 29.4106 155.578 29.5157 155.558 29.4356C155.538 29.3556 155.563 29.4707 155.563 29.4757C155.568 29.5057 155.573 29.5357 155.578 29.5658C155.588 29.6258 155.593 29.6859 155.603 29.746C155.618 29.8761 155.623 30.0012 155.623 30.1313C155.623 30.1914 155.628 30.2565 155.623 30.3165C155.643 30.1914 155.623 30.2765 155.623 30.3065C155.623 30.3366 155.623 30.3666 155.613 30.3966C155.598 30.5318 155.578 30.6619 155.553 30.797C155.498 31.0723 155.703 31.3776 155.983 31.4126C156.274 31.4527 156.544 31.2725 156.599 30.9822C156.834 29.816 156.574 28.5597 155.888 27.5788C155.728 27.3485 155.378 27.2634 155.147 27.4386C154.917 27.6088 154.837 27.9341 155.007 28.1794L155.012 28.1894Z" fill="white"/>
<path d="M157.5 35.0014C157.355 36.4879 157.215 37.9744 157.069 39.4609C157.044 39.7362 157.2 40.0415 157.5 40.0765C157.77 40.1116 158.09 39.9414 158.115 39.6461C158.261 38.1596 158.401 36.6731 158.546 35.1866C158.571 34.9113 158.416 34.606 158.115 34.5709C157.845 34.5359 157.525 34.7061 157.5 35.0014Z" fill="white"/>
<path d="M156.374 42.9845C155.623 43.7002 155.368 44.8414 155.658 45.8224C155.738 46.0927 156.078 46.2528 156.339 46.1477C156.619 46.0376 156.749 45.7523 156.664 45.467C156.649 45.422 156.639 45.3719 156.629 45.3269C156.614 45.2618 156.649 45.442 156.634 45.3519C156.634 45.3319 156.629 45.3069 156.624 45.2868C156.609 45.1867 156.604 45.0816 156.599 44.9815C156.599 44.9565 156.599 44.9265 156.599 44.9015C156.599 44.9265 156.589 45.0116 156.599 44.9415C156.599 44.8914 156.609 44.8464 156.614 44.7963C156.629 44.6962 156.649 44.5961 156.674 44.496C156.679 44.476 156.689 44.456 156.694 44.436C156.684 44.481 156.659 44.5411 156.689 44.461C156.704 44.416 156.724 44.3709 156.739 44.3259C156.779 44.2358 156.819 44.1507 156.869 44.0656C156.874 44.0556 156.934 43.9605 156.879 44.0406C156.824 44.1207 156.884 44.0306 156.894 44.0206C156.924 43.9805 156.949 43.9405 156.979 43.9054C157.044 43.8254 157.114 43.7503 157.19 43.6802C157.285 43.5901 157.325 43.4149 157.315 43.2898C157.305 43.1597 157.235 43.0095 157.129 42.9244C156.879 42.7292 156.594 42.7793 156.379 42.9845H156.374Z" fill="white"/>
<path d="M153.986 51.2377C153.606 52.6691 153.226 54.1006 152.845 55.532C152.75 55.8824 153.055 56.2828 153.406 56.3278C153.801 56.3779 154.106 56.1426 154.202 55.7673C154.582 54.3358 154.962 52.9044 155.343 51.4729C155.438 51.1226 155.132 50.7221 154.787 50.6771C154.392 50.6271 154.086 50.8623 153.991 51.2327L153.986 51.2377Z" fill="white"/>
<path d="M151.694 61.9787L150.863 65.0969C150.803 65.3271 151.003 65.5723 151.223 65.6124C151.474 65.6574 151.674 65.4873 151.739 65.252C152.014 64.211 152.29 63.1749 152.57 62.1339C152.63 61.9036 152.43 61.6584 152.209 61.6183C151.959 61.5733 151.759 61.7435 151.694 61.9787Z" fill="white"/>
<path d="M79.0002 32.0683C82.4687 28.785 86.0173 25.5617 89.3557 22.1432C89.7311 21.7579 89.1405 21.1673 88.7651 21.5526C85.4267 24.9711 81.8781 28.1944 78.4096 31.4777C78.0192 31.8481 78.6098 32.4387 79.0002 32.0683Z" fill="black"/>
<path d="M154.096 60.5072C154.217 62.0888 153.621 63.5503 152.87 64.9066C152.069 66.3581 151.153 67.7495 150.288 69.161C150.002 69.6214 150.728 70.0419 151.008 69.5814C151.929 68.0799 152.915 66.6034 153.741 65.0468C154.487 63.6454 155.052 62.1138 154.932 60.5022C154.892 59.9666 154.056 59.9616 154.096 60.5022V60.5072Z" fill="black"/>
</g>
<defs>
<clipPath id="clip0_81_4461">
<rect width="202" height="234.263" fill="white" transform="translate(0 0.000732422)"/>
</clipPath>
</defs>
</svg>
