<svg width="300" height="233" viewBox="0 0 300 233" fill="none" xmlns="http://www.w3.org/2000/svg">
<g clip-path="url(#clip0_81_5123)">
<path d="M78.2885 199.515C78.2885 199.74 76.4026 220.357 76.4026 220.357L84.7014 222.093L90.8122 200.724L78.2885 199.515Z" fill="#FFAA94"/>
<path d="M10.1328 209.027L25.4832 216.733L28.0467 203.442L12.5797 200.046L10.1328 209.027Z" fill="#FFAA94"/>
<path d="M27.6326 183.131C27.6326 183.131 30.3471 196.949 35.7803 204.426C30.1226 203.066 25.82 201.709 25.82 201.709C25.82 201.709 20.0501 225.043 20.7277 225.38C21.4052 225.721 43.8116 228.78 47.5445 230.024C51.2775 231.268 64.0602 230.931 64.8542 227.644C65.6483 224.357 57.8673 183.584 58.1392 183.697C58.4068 183.809 75.3842 185.17 75.3842 185.17L74.8534 205.558L92.3572 206.91C92.3572 206.91 103.962 170.332 102.063 162.177C100.164 154.022 52.7405 157.231 52.7405 157.231L27.6283 183.131H27.6326Z" fill="#F2E3DA"/>
<path d="M96.6123 116.381L99.0549 131.029L111.488 127.387L111.143 125.608L117.953 124.169L116.127 114.774L108.286 115.954L107.833 114.196L96.6123 116.381Z" fill="#2D2644"/>
<path d="M97.6523 116.887L99.7324 129.984L102.067 129.53L99.5382 116.52L97.6523 116.887Z" fill="white"/>
<path d="M118.13 119.258C118.635 121.854 118.553 124.048 117.953 124.169C117.353 124.286 116.455 122.277 115.95 119.686C115.445 117.09 115.527 114.895 116.127 114.774C116.727 114.658 117.625 116.666 118.13 119.258Z" fill="#2D2644"/>
<path d="M113.357 115.811C113.214 115.556 112.804 115.746 112.947 116.001C114.397 118.593 114.591 121.526 114.353 124.433C114.328 124.722 114.781 124.761 114.807 124.472C115.053 121.491 114.85 118.468 113.361 115.815L113.357 115.811Z" fill="#5E5580"/>
<path d="M108.95 116.519C108.886 116.234 108.441 116.312 108.506 116.597L110.172 124.005C110.236 124.29 110.681 124.213 110.616 123.927C110.06 121.457 109.503 118.99 108.95 116.519Z" fill="#5E5580"/>
<path d="M101.027 116.014C100.962 115.729 100.518 115.807 100.583 116.092C100.945 117.694 101.308 119.297 101.674 120.899C101.739 121.185 102.184 121.107 102.119 120.822C101.756 119.219 101.394 117.617 101.027 116.014Z" fill="#5E5580"/>
<path d="M77.6885 115.275H79.5011C79.5011 115.275 98.0623 101.885 99.0764 99.9194C100.095 97.954 100.328 93.3666 101.976 91.6691C103.625 89.9715 102.322 85.7513 102.943 85.4662C103.819 85.2675 106.223 88.7231 105.066 91.358C106.793 91.5265 111.686 91.4704 111.911 92.6625C112.135 93.8504 111.233 102.459 110.327 103.932C109.421 105.405 101.838 107.245 101.838 107.245C101.838 107.245 85.7975 130.014 84.7229 131.314C83.6483 132.618 75.1165 133.089 75.1165 133.089L77.6885 115.275Z" fill="#FFAA94"/>
<path d="M59.1489 110.131C59.1489 110.131 69.8989 113.984 77.5374 114.152C79.9714 114.831 79.1687 132.355 77.5374 133.18C75.9062 134.009 71.8236 134.031 71.8236 134.031C71.8236 134.031 56.0373 118.286 59.1489 110.131Z" fill="#408A67"/>
<path d="M47.2942 98.9735L46.1074 108.373L58.6096 110.667L60.7026 104.153L69.6703 93.0255C69.6703 93.0255 71.2844 92.1746 71.3405 91.4662C71.3966 90.7578 68.2289 86.4555 68.2289 86.4555C68.2289 86.4555 67.2407 75.9504 63.5595 75.5832C59.8827 75.2161 45.6802 82.9437 45.6802 82.9437L47.2942 98.9692V98.9735Z" fill="#FFAA94"/>
<path d="M57.7895 88.896C57.7895 88.896 60.1673 90.7102 61.0132 93.3711C61.8633 96.0319 66.3299 91.6735 69.6702 93.0298C69.558 98.7489 71.4827 100.563 69.1048 102.995C66.727 105.431 61.0132 105.202 60.3917 105.202C55.9769 102.429 55.9208 90.7059 55.9208 90.7059C56.033 90.5375 53.94 88.6109 52.7532 90.5936C51.5664 92.5763 52.559 96.8137 54.5657 97.0513C54.3974 99.5394 48.3988 101.976 46.9272 102.032C45.4556 102.088 43.1942 88.2697 41.4939 85.4966C39.7979 82.7234 40.1906 79.2678 45.5678 78.0756C50.945 76.8877 54.9023 71.9591 61.3541 72.0153C66.7874 69.5791 69.6141 75.0735 63.732 77.0562C63.732 77.0562 61.8633 80.5118 59.205 80.0583C56.5466 79.6047 61.695 85.7212 57.7895 88.8917V88.896Z" fill="#BF5452"/>
<path d="M80.403 139.111C80.403 139.111 95.7923 131.033 96.021 130.955C96.2454 130.878 95.87 126.424 98.5844 125.595C101.299 124.766 103.034 118.891 104.169 119.409C105.299 119.928 103.414 124.99 103.262 125.517C103.111 126.044 110.551 123.724 114.526 124.696C112.843 127.405 110.789 125.668 106.948 131.482C103.107 135.711 99.7151 137.75 99.7151 137.75C99.7151 137.75 84.0238 159.875 81.9135 159.723C79.8032 159.572 72.1819 153.832 72.1819 153.832L80.403 139.106V139.111Z" fill="#FFAA94"/>
<path d="M45.624 105.211C45.624 105.211 59.6539 109.055 60.107 109.738C60.5601 110.416 60.107 111.435 60.107 111.435C60.107 111.435 75.1553 136.126 80.7008 138.165C82.0602 141.223 75.9494 156.968 75.2675 156.855C74.59 156.743 65.9891 152.099 65.9891 152.099C65.9891 152.099 65.7647 191.628 64.8584 194.12C63.1624 195.934 22.4236 184.721 22.4236 184.379C22.4236 181.209 27.4037 164.332 31.8142 143.944C36.229 123.556 43.3583 109.738 43.3583 109.738C43.3583 109.738 43.6993 107.824 45.6197 105.211H45.624Z" fill="#408A67"/>
<path d="M65.7819 171.533C65.7905 171.101 65.7949 170.669 65.8035 170.242C65.5143 169.939 65.2252 169.633 64.9361 169.33C65.2382 168.92 65.5359 168.514 65.8337 168.103C65.8423 167.581 65.8466 167.062 65.8553 166.553C65.3374 167.261 64.8195 167.97 64.3017 168.678C60.7284 165.002 57.0861 161.395 53.3833 157.845C56.2532 153.871 59.1144 149.888 61.9929 145.923C64.4182 148.566 66.8435 151.201 69.2732 153.84C70.0414 154.246 70.8656 154.683 71.6511 155.089C68.6129 151.784 65.5748 148.484 62.5409 145.175C65.3892 141.253 68.259 137.344 71.172 133.474C74.2792 136.515 77.3864 139.551 80.4936 142.592C80.5713 142.225 80.6404 141.867 80.7008 141.525L71.7244 132.744C74.1368 129.547 76.5881 126.377 79.0824 123.241C79.0954 122.528 79.0954 121.824 79.0824 121.133C76.5017 118.593 73.9426 116.036 71.418 113.444C70.8958 113.349 70.378 113.245 69.8644 113.133C72.8033 116.178 75.7983 119.18 78.8235 122.148C76.204 125.435 73.6319 128.765 71.0944 132.126C69.571 130.636 68.0476 129.146 66.5242 127.655C64.47 125.647 62.4115 123.647 60.3529 121.642C62.6402 118.602 64.9404 115.565 67.2406 112.533C66.9212 112.455 66.6062 112.373 66.2955 112.291C64.0945 115.193 61.8936 118.1 59.7056 121.012C57.0213 118.399 54.3457 115.772 51.7003 113.124C53.0856 111.474 54.4708 109.816 55.8518 108.161C55.5497 108.066 55.2347 107.971 54.9153 107.876C53.6293 109.414 52.3476 110.952 51.0572 112.485C49.003 110.42 46.9661 108.334 44.9594 106.226C44.7824 106.507 44.6184 106.779 44.4803 107.034C46.4525 109.107 48.455 111.155 50.4746 113.181C47.7558 116.416 45.0414 119.656 42.3226 122.891C41.2782 121.725 40.2425 120.55 39.2024 119.379C39.0816 119.69 38.9607 120.005 38.8356 120.329C39.8023 121.414 40.7646 122.506 41.7313 123.591C39.5002 126.243 37.269 128.891 35.0379 131.543C34.8308 132.243 34.6236 132.955 34.4165 133.681C37.0576 130.545 39.6987 127.405 42.3398 124.264C45.0457 127.288 47.7645 130.299 50.4919 133.301C47.2725 137.62 44.0617 141.944 40.8596 146.277C38.2185 143.892 35.586 141.499 32.9794 139.076C32.8974 139.409 32.8111 139.741 32.7334 140.078C35.2451 142.407 37.7783 144.709 40.3245 147.007C37.5755 150.73 34.8264 154.449 32.0904 158.181C31.1496 157.188 30.2174 156.19 29.2939 155.179C29.2119 155.529 29.1256 155.879 29.0436 156.225C29.8722 157.127 30.7094 158.022 31.5553 158.911C29.9628 161.084 28.379 163.266 26.7952 165.438C26.5967 166.233 26.4025 167.011 26.2126 167.766C28.2021 165.032 30.1915 162.302 32.1853 159.572C34.9084 162.423 37.6704 165.218 40.3719 167.995C41.2307 168.881 42.0982 169.758 42.9613 170.639C40.1303 174.44 37.2604 178.207 34.3215 181.926C34.2741 181.883 34.2266 181.835 34.1748 181.792C31.0719 178.997 27.8698 176.259 24.7928 173.399C24.7108 173.736 24.6245 174.073 24.5425 174.397C27.2829 176.928 30.1139 179.373 32.8844 181.852C33.1736 182.112 33.4584 182.379 33.7519 182.639C32.6644 184.012 31.5639 185.377 30.4548 186.738C30.7612 186.824 31.0805 186.911 31.3999 186.997C32.4097 185.749 33.4196 184.5 34.4165 183.243C36.6951 185.312 38.9348 187.425 41.1444 189.571C41.727 189.723 42.3182 189.87 42.9052 190.016C40.3115 187.468 37.6704 184.971 34.9818 182.531C37.9034 178.82 40.7603 175.062 43.5827 171.274C47.1215 174.889 50.6732 178.496 54.2378 182.09C51.9031 185.096 49.5209 188.133 46.9963 191.031C47.3157 191.109 47.635 191.187 47.95 191.26C49.8877 189.019 51.7434 186.699 53.5775 184.379C54.0134 183.831 54.4363 183.274 54.8679 182.721C58.2685 186.15 61.6735 189.576 65.0785 193.001C65.113 192.669 65.1475 192.271 65.182 191.818C61.9281 188.543 58.6785 185.274 55.4289 181.995C58.4843 178.064 61.462 174.073 64.4139 170.064C64.8843 170.548 65.3417 171.041 65.8078 171.529L65.7819 171.533ZM59.7833 122.368C61.8073 124.342 63.8356 126.308 65.8553 128.282C67.4132 129.806 68.9711 131.331 70.529 132.852C67.6246 136.709 64.7678 140.605 61.9281 144.514C58.4886 140.765 55.0578 137.003 51.6398 133.236C54.3457 129.608 57.0645 125.984 59.7833 122.364V122.368ZM42.9052 123.56C45.6369 120.312 48.36 117.064 51.0874 113.815C53.7458 116.476 56.4344 119.111 59.1316 121.738C56.4215 125.34 53.7156 128.947 51.0184 132.562C48.3039 129.569 45.5981 126.571 42.9052 123.56ZM51.0874 133.975C54.5097 137.746 57.9449 141.508 61.3844 145.262C58.4929 149.244 55.6231 153.244 52.7446 157.231C52.5288 157.024 52.3174 156.816 52.1016 156.609C48.6276 153.309 45.0716 150.091 41.5112 146.877C44.6961 142.571 47.8896 138.268 51.0918 133.975H51.0874ZM43.4878 169.909C42.8577 169.265 42.2276 168.626 41.6019 167.987C38.6673 164.976 35.6507 161.948 32.6946 158.847C35.4436 155.093 38.2055 151.357 40.9718 147.616C44.4933 150.795 48.0148 153.983 51.45 157.248C51.7046 157.49 51.9549 157.737 52.2095 157.983C49.3224 161.978 46.4223 165.965 43.4878 169.918V169.909ZM54.7729 181.369C51.204 177.771 47.648 174.164 44.1049 170.544C47.0481 166.583 49.9481 162.587 52.8396 158.587C56.538 162.134 60.1803 165.741 63.7493 169.417C60.7974 173.434 57.8283 177.434 54.7686 181.369H54.7729Z" fill="#499E76"/>
<path d="M73.5542 156.065C73.8606 156.22 74.1411 156.354 74.3785 156.471C75.3797 155.123 76.3852 153.78 77.3994 152.445C77.7446 151.555 78.1071 150.575 78.4567 149.564C76.8038 151.719 75.1725 153.888 73.5542 156.069V156.065Z" fill="#367558"/>
<path d="M68.6519 96.1443C68.6519 96.1443 65.454 96.5978 65.1735 97.0514C64.8887 97.5049 68.3714 101.894 68.6519 96.1443Z" fill="white"/>
<path d="M57.8501 110.999C55.6837 111.068 53.5173 111.025 51.3552 110.844C50.3453 110.762 49.3398 110.649 48.3386 110.507C47.6438 110.407 46.949 110.299 46.2542 110.174C46.0643 110.14 45.3609 110.096 45.0501 109.975C45.0501 109.932 45.0372 109.885 45.007 109.841C44.994 109.82 44.9768 109.803 44.9595 109.781C44.9077 109.712 44.761 109.686 44.6876 109.738L44.6056 109.798C44.515 109.863 44.4373 109.997 44.515 110.105C44.8818 110.632 45.9952 110.589 46.5606 110.684C47.7172 110.882 48.8824 111.047 50.0519 111.172C52.6412 111.448 55.2392 111.535 57.8414 111.453C58.1306 111.444 58.1392 110.99 57.8501 110.999Z" fill="#2D2644"/>
<path d="M64.7419 152.601C62.4676 151.512 60.1933 150.424 57.919 149.339C55.9036 148.376 53.8969 147.24 51.7089 146.722C51.4284 146.657 51.3032 147.089 51.5881 147.158C53.8753 147.698 55.9856 148.912 58.0916 149.918C60.2321 150.942 62.3726 151.966 64.5132 152.989C64.7721 153.115 65.0051 152.726 64.7419 152.601Z" fill="#2D2644"/>
<path d="M78.09 137.841C76.2818 139.27 75.9926 141.914 75.259 143.961C74.2362 146.812 72.8855 149.521 71.2628 152.078C71.1074 152.324 71.4958 152.553 71.6512 152.307C73.0753 150.061 74.2923 147.698 75.2633 145.223C75.7423 144 76.1437 142.756 76.5235 141.499C76.8471 140.424 77.2096 139.378 77.9692 138.571C77.7577 140.921 76.8817 143.171 76.1523 145.4C75.3669 147.793 74.5858 150.182 73.8003 152.575C73.7097 152.851 74.1456 152.976 74.2362 152.696C75.0648 150.164 75.8934 147.633 76.7263 145.102C77.4858 142.787 78.3662 140.471 78.4698 138.009C78.4784 137.798 78.2324 137.728 78.0857 137.841H78.09Z" fill="#2D2644"/>
<path d="M65.6265 125.953C61.0952 132.001 57.4442 138.648 54.7599 145.711C54.6564 145.983 55.0922 146.104 55.1958 145.832C57.8671 138.804 61.5095 132.195 66.0192 126.182C66.1918 125.949 65.8034 125.72 65.6308 125.953H65.6265Z" fill="#2D2644"/>
<path d="M65.8942 81.1296C64.975 81.1382 64.0903 81.3758 63.2919 81.838C62.5367 82.2786 63.1884 83.4751 63.9436 83.0302C64.5434 82.6803 65.1778 82.4946 65.8683 82.4859C66.7401 82.4773 66.7659 81.1166 65.8899 81.1253L65.8942 81.1296Z" fill="#2D2644"/>
<path d="M65.4152 85.4619C64.5392 85.4619 64.5176 86.8226 65.3937 86.8226C66.2697 86.8226 66.2913 85.4619 65.4152 85.4619Z" fill="#2D2644"/>
<path d="M54.3068 91.2545C54.0133 91.2459 54.009 91.6994 54.2982 91.7081C55.6748 91.7556 55.1872 93.9758 54.8894 94.7447C54.7815 95.0168 55.2217 95.1378 55.3253 94.8656C55.7525 93.7685 56.0675 91.315 54.3068 91.2545Z" fill="#D96A6A"/>
<path d="M110.379 94.8699C108.717 94.2694 106.931 94.3472 105.243 93.8677C105.2 93.8548 105.166 93.8591 105.131 93.8677C105.187 93.1939 105.243 92.52 105.295 91.8462C105.317 91.5568 104.864 91.5481 104.842 91.8375C104.738 93.1161 104.592 94.4033 104.544 95.6862C104.497 96.9216 104.928 98.0663 104.933 99.2844C104.933 100.075 104.441 100.801 104.881 101.535C105.412 102.416 106.577 103.081 107.354 103.729C107.574 103.915 107.902 103.6 107.677 103.414C106.784 102.671 105.101 101.772 105.204 100.42C105.226 100.153 105.256 99.9064 105.286 99.6602C106.521 100.248 107.785 100.757 109.084 101.176C109.36 101.267 109.485 100.831 109.205 100.74C107.897 100.321 106.633 99.8114 105.394 99.2153C105.368 99.2023 105.343 99.198 105.321 99.198C105.33 98.9691 105.33 98.7315 105.291 98.4723C105.222 98.0231 105.157 97.5912 105.101 97.1592C106.473 97.8158 107.897 98.3384 109.373 98.7186C109.654 98.792 109.779 98.3557 109.494 98.2823C107.979 97.8935 106.525 97.3622 105.118 96.6711C105.092 96.6581 105.071 96.6538 105.045 96.6538C105.002 96.2003 104.98 95.7424 105.01 95.2629C105.032 94.939 105.058 94.6193 105.084 94.2954C105.092 94.2954 105.097 94.304 105.105 94.3083C106.793 94.7835 108.584 94.71 110.241 95.3104C110.517 95.4098 110.638 94.9735 110.362 94.8742L110.379 94.8699Z" fill="#D96A6A"/>
<path d="M110.81 126.921C109.58 127.392 108.338 127.802 107.069 128.156C106.788 128.234 106.896 128.675 107.177 128.597C108.441 128.243 109.688 127.832 110.918 127.362C111.186 127.258 111.082 126.817 110.81 126.921Z" fill="#D96A6A"/>
<path d="M82.3881 121.979C81.6847 120.01 80.8345 118.113 79.829 116.282C79.6866 116.027 79.2896 116.243 79.432 116.498C80.4202 118.295 81.2574 120.152 81.9479 122.083C82.0472 122.355 82.4874 122.252 82.3881 121.975V121.979Z" fill="#D96A6A"/>
<path d="M75.8416 133.059C74.4088 131.322 72.9415 129.62 71.4268 127.953C70.6716 127.119 69.8991 126.299 69.1309 125.482C68.2505 124.545 67.7499 123.595 67.1673 122.467C66.1834 120.549 64.7851 118.796 63.5811 117.012C62.321 115.15 60.8235 113.288 60.366 111.034C60.3099 110.748 59.8697 110.856 59.9258 111.142C60.3488 113.236 61.6477 114.951 62.8216 116.688C64.1464 118.649 65.6914 120.575 66.7746 122.683C67.2407 123.586 67.5903 124.441 68.2678 125.219C69.0403 126.104 69.8861 126.934 70.6802 127.802C72.3417 129.616 73.9514 131.478 75.5222 133.374C75.7078 133.599 76.0315 133.283 75.8459 133.059H75.8416Z" fill="#2D2644"/>
<path d="M76.8644 115.742C76.8039 115.448 76.3896 115.569 76.4242 115.85C77.0111 120.463 77.5505 125.444 75.2201 129.629C75.6387 124.649 75.6128 119.647 75.1295 114.671C75.0993 114.386 74.6505 114.373 74.6764 114.662C75.1899 119.954 75.1942 125.267 74.6893 130.558C74.6677 130.8 74.9957 130.852 75.1122 130.679C76.709 128.29 77.2743 125.612 77.365 122.865C77.4987 125.107 77.4729 127.353 77.2873 129.603C77.2614 129.893 77.7145 129.901 77.7404 129.612C78.1245 124.964 77.831 120.308 76.8687 115.742H76.8644Z" fill="#2D2644"/>
<path d="M104.242 141.132C102.792 134.921 102.986 128.886 105.64 123.012C105.878 122.485 105.101 122.018 104.859 122.55C103.427 125.724 102.538 129.081 102.365 132.571C102.162 136.592 103.224 140.268 103.979 144.173C104.376 146.238 104.751 148.354 104.713 150.462C104.691 151.59 104.575 152.73 104.203 153.801C103.582 155.59 102.922 156.406 101.027 156.674C99.8576 157.253 98.9945 156.942 98.4335 155.737C98.1141 155.223 97.8724 154.678 97.7041 154.095C97.3157 152.86 97.182 151.538 97.1517 150.251C97.0913 147.849 97.5013 145.46 97.894 143.102C97.989 142.532 97.1172 142.281 97.0223 142.856C96.3232 147.033 95.0587 153.045 98.0062 156.683C100.337 159.555 103.582 157.503 104.803 154.739C106.633 150.596 105.213 145.301 104.242 141.128V141.132Z" fill="#2D2644"/>
<path d="M76.4371 215.139C76.4371 215.139 67.4435 230.655 70.4644 233H100.669C100.669 233 102.52 232.037 102.248 230.516C101.769 229.346 94.9033 226.793 90.9201 223.549C86.9368 220.309 88.1754 214.858 88.1754 214.102C88.1063 212.586 82.5479 217.001 82.5479 217.001C82.5479 217.001 80.7613 214.932 76.4371 215.139Z" fill="#B863A6"/>
<path d="M100.669 233C100.669 233 102.52 232.037 102.248 230.516C102.218 230.443 102.162 230.361 102.08 230.274C99.1843 233 88.7234 231.272 81.5855 229.527C77.2311 228.46 73.5715 225.985 71.4094 225.329C70.0285 228.784 69.2128 232.024 70.4643 232.996H100.669V233Z" fill="#F2E3DA"/>
<path d="M89.1421 220.746C88.1754 220.806 87.2735 221.057 86.3845 221.381C87.0275 220.629 87.7482 219.964 88.5509 219.363C88.7365 219.225 88.5897 218.871 88.3653 218.888C86.6089 219.044 84.8654 219.281 83.1349 219.61C82.7853 219.674 82.9191 220.21 83.2643 220.145C84.6583 219.882 86.0608 219.674 87.4677 219.528C86.6607 220.219 85.9443 220.988 85.3056 221.856C85.1244 222.102 85.4523 222.327 85.6724 222.24C86.6521 221.839 87.6015 221.497 88.6372 221.359C88.2574 222.024 87.8388 222.655 87.3512 223.255C87.1311 223.527 87.5108 223.929 87.7309 223.653C88.361 222.871 88.9048 222.05 89.3709 221.16C89.4615 220.992 89.3579 220.728 89.1378 220.746H89.1421Z" fill="#F2E3DA"/>
<path d="M15.3116 208.469C15.3116 208.469 18.5785 203.459 16.6408 199.463C16.6408 199.463 1.20837 191.597 0.0647471 195.312C-0.776786 221.458 6.77112 229.864 6.77112 229.864C6.77112 229.864 8.48008 231.251 9.88695 230.426C10.8709 229.536 8.25567 224.378 12.3339 217.169C14.9275 212.582 17.4003 214.733 18.1599 214.452C19.653 213.821 15.3073 208.465 15.3073 208.465L15.3116 208.469Z" fill="#B863A6"/>
<path d="M13.8357 215.333C13.7753 214.34 13.512 213.407 13.1711 212.478C13.9695 213.178 14.6772 213.951 15.3116 214.802C15.4583 215.001 15.8381 214.871 15.8165 214.638C15.6612 212.832 15.4109 211.04 15.0656 209.247C14.9966 208.888 14.4226 208.992 14.4916 209.351C14.7678 210.793 14.9793 212.236 15.1347 213.687C14.401 212.824 13.5811 212.05 12.6575 211.351C12.3986 211.152 12.1526 211.476 12.2476 211.705C12.6705 212.729 13.033 213.718 13.1797 214.785C12.472 214.361 11.8031 213.899 11.16 213.368C10.8709 213.13 10.4393 213.493 10.7328 213.735C11.5657 214.422 12.4374 215.022 13.3869 215.549C13.5681 215.649 13.8443 215.558 13.8314 215.333H13.8357Z" fill="#F2E3DA"/>
<path d="M9.89134 230.43C10.0726 230.266 10.133 229.955 10.133 229.514C7.87166 227.907 3.43096 224.076 3.98335 215.713C4.46669 208.327 6.45185 199.951 7.6041 195.571C4.00493 194.319 0.582693 193.64 0.0691417 195.316C-0.772391 221.463 6.77551 229.868 6.77551 229.868C6.77551 229.868 8.48447 231.255 9.89134 230.43Z" fill="#F2E3DA"/>
<path d="M52.8569 220.253C48.3903 214.374 43.1123 209.169 37.1784 204.776C36.9454 204.603 36.7167 204.992 36.9497 205.165C42.8491 209.532 48.0925 214.72 52.5332 220.564C52.7101 220.797 53.0338 220.478 52.8569 220.249V220.253Z" fill="#2D2644"/>
<path d="M28.1115 203.891C26.4629 210.906 24.5425 217.851 22.3502 224.715C22.2639 224.992 22.6955 225.117 22.7861 224.836C24.9741 217.972 26.8988 211.027 28.5473 204.012C28.6121 203.731 28.1805 203.606 28.1115 203.891Z" fill="#2D2644"/>
<path d="M91.8006 205.407C86.3975 205.225 81.0462 204.258 75.7079 203.467C75.423 203.424 75.2979 203.86 75.587 203.904C80.9599 204.703 86.3543 205.679 91.7962 205.86C92.0897 205.869 92.094 205.415 91.8049 205.407H91.8006Z" fill="#2D2644"/>
<path d="M83.1951 185.04C80.6749 185.105 78.1589 185.027 75.6472 184.811C75.3581 184.785 75.3495 185.239 75.6386 185.265C78.1503 185.481 80.6662 185.559 83.1865 185.494C83.4757 185.485 83.4843 185.032 83.1951 185.04Z" fill="#2D2644"/>
<path d="M227.982 64.7845C227.982 64.7845 230.489 90.6067 219.843 94.6843C209.196 98.762 209.326 80.9482 209.326 80.9482C209.326 80.9482 206.482 61.8386 227.982 64.7845Z" fill="#2D2644"/>
<path d="M227.758 204.664C227.788 204.832 231.292 216.02 231.719 216.867C237.179 218.482 239.164 212.595 237.265 208.37C235.427 208.625 234.24 203.498 234.24 203.498L227.762 204.66L227.758 204.664Z" fill="#CA6A60"/>
<path d="M208.774 212.508C208.774 212.508 210.612 221.372 210.78 222.335C210.81 223.523 203.651 224.231 202.067 220.327C203.03 217.299 201.869 212.141 201.869 212.141L208.774 212.508Z" fill="#CA6A60"/>
<path d="M192.374 80.7149L191.848 84.7925C191.848 84.7925 183.627 107.22 181.361 122.169C179.1 137.119 196.901 213.687 196.901 213.687C197.959 213.839 213.65 213.687 213.65 213.687C213.65 213.687 205.351 123.681 206.107 123.379C206.862 123.077 210.482 163.248 211.691 168.535C212.899 173.822 222.251 211.122 224.366 211.273C226.627 211.424 235.077 205.834 237.494 201.303C233.269 178.803 229.799 165.36 229.799 163.248C229.799 161.136 231.007 127.154 229.95 115.375C228.893 103.595 219.955 87.436 219.955 87.436L220.24 85.1726C220.24 85.1726 211.661 78.1879 192.383 80.7192L192.374 80.7149Z" fill="#FF9CA9"/>
<path d="M192.979 38.958C192.754 38.958 174.948 35.4851 172.989 33.3685C171.03 31.2563 143.868 24.5999 143.868 24.5999C143.868 24.5999 140.398 20.911 138.663 19.8138C136.928 18.721 131.534 21.3602 130.062 20.682C129.721 21.8526 132.703 21.7014 132.401 22.1939C132.099 22.6863 123.649 26.008 123.688 26.4616C123.727 26.9151 126.29 26.8762 126.29 26.8762C126.29 26.8762 123.951 27.252 124.292 27.7445C124.633 28.2369 127.158 28.2715 127.158 28.2715C127.158 28.2715 125.311 28.8719 125.798 29.252C126.29 29.6321 128.815 29.7833 128.815 29.7833C128.815 29.7833 127.494 30.3103 127.986 30.5738C128.478 30.8373 132.25 31.3297 135.642 31.4809C139.039 31.6321 142.582 29.8178 142.582 29.8178C142.582 29.8178 160.422 41.1048 167.513 41.5972C174.603 42.0896 176.903 48.7331 191.313 52.4695C193.16 47.9383 192.974 38.9537 192.974 38.9537L192.979 38.958Z" fill="#CA6A60"/>
<path d="M231.724 44.5042C231.948 44.4869 249.474 39.8089 251.286 37.5627C253.099 35.3209 279.739 26.8287 279.739 26.8287C279.739 26.8287 282.949 22.9108 284.607 21.697C286.264 20.4876 291.827 22.7553 293.246 21.9778C293.665 23.1225 290.683 23.1743 291.015 23.6452C291.352 24.116 300.004 26.8503 300 27.3081C299.992 27.7617 297.432 27.8999 297.432 27.8999C297.432 27.8999 299.793 28.1159 299.487 28.6299C299.18 29.1439 296.664 29.3513 296.664 29.3513C296.664 29.3513 298.55 29.8221 298.084 30.2368C297.622 30.6471 295.111 30.9711 295.111 30.9711C295.111 30.9711 296.466 31.4074 295.991 31.7054C295.521 32.0035 291.792 32.7507 288.413 33.1309C285.038 33.5153 281.374 31.9473 281.374 31.9473C281.374 31.9473 264.345 44.4264 257.302 45.4026C250.259 46.3745 248.416 53.1649 234.296 57.8775C232.142 53.4845 231.719 44.5042 231.719 44.5042H231.724Z" fill="#CA6A60"/>
<path d="M234.149 43.7741C233.584 43.4328 226.282 45.0181 226.282 45.0181C226.282 45.0181 206.931 47.1692 200.03 38.5604C200.03 38.5604 190.074 37.1997 189.056 37.4848C188.093 38.2191 185.038 51.0179 185.491 51.5881C185.944 52.154 189.789 53.8515 190.13 54.5902C190.471 55.3245 190.074 80.1877 191.317 81.4318C192.56 82.6758 209.084 81.2633 220.231 85.1682C222.1 84.49 231.715 60.7585 232 60.3049C232.285 59.8514 237.26 58.0415 237.26 57.8687C237.485 56.737 234.434 44.1067 234.149 43.7654V43.7741Z" fill="#F2E3DA"/>
<path d="M220.287 32.2195C220.287 32.2195 217.966 38.5606 217.741 40.7722C217.517 42.9795 226.282 45.0183 226.282 45.0183C223.567 50.2277 218.587 56.91 208.402 54.3053C198.218 51.7006 199.18 39.6362 200.03 38.5606C203.707 38.9019 205.407 39.6362 207.781 38.958C210.159 38.2798 210.892 30.5781 210.892 30.5781C210.892 30.5781 218.363 26.2759 219.152 26.5566C219.946 26.8417 220.283 32.2195 220.283 32.2195H220.287Z" fill="#CA6A60"/>
<path d="M223.157 12.9629C223.343 12.4532 225.155 8.31944 229.454 10.017C233.752 11.7146 233.925 25.1743 225.38 22.8028C220.4 19.4725 223.157 12.9586 223.157 12.9586V12.9629Z" fill="#2D2644"/>
<path d="M217.858 9.05808C217.858 9.05808 222.273 4.41458 216.952 0.902803C211.635 -2.60898 204.506 4.98044 209.71 9.05808C214.008 12.0602 217.858 9.05808 217.858 9.05808Z" fill="#2D2644"/>
<path d="M205.86 13.1356C205.86 13.1356 203.258 10.302 206.823 9.39925C210.047 8.37984 210.331 5.54622 215.536 5.88747C220.741 6.22871 225.889 10.6433 226.23 17.6668C226.571 24.6904 225.436 26.0467 220.287 32.2193C218.984 30.7464 218.816 27.9732 218.816 27.9732L205.86 13.1356Z" fill="#2D2644"/>
<path d="M208.558 11.019C208.558 11.019 204.445 11.5849 203.655 17.9303C202.861 24.2714 202.71 34.202 209.201 34.5821C215.687 34.9579 218.971 28.3533 218.971 28.3533C221.233 30.1675 223.235 26.5391 223.157 24.3534C223.084 22.1634 221.763 21.2952 219.726 24.1288C217.236 23.1483 216.447 18.8417 217.5 16.8807C218.557 14.9196 211.087 16.0859 208.558 11.0277V11.019Z" fill="#CA6A60"/>
<path d="M218.212 29.5673C217.185 30.6645 216.494 31.982 215.212 32.8329C213.831 33.753 212.265 34.4398 210.595 34.5132C210.306 34.5262 210.297 34.9797 210.586 34.9668C212.252 34.8977 213.698 34.2843 215.113 33.429C216.624 32.5176 217.353 31.1483 218.531 29.8956C218.73 29.684 218.415 29.3557 218.216 29.5717L218.212 29.5673Z" fill="#A34848"/>
<path d="M221.474 24.198C220.892 24.4183 220.598 24.9842 220.313 25.5112C219.959 26.1764 219.769 26.8502 219.869 27.6018C219.908 27.8913 220.343 27.7789 220.309 27.4939C220.227 26.8632 220.417 26.293 220.706 25.7401C220.896 25.373 221.168 24.7941 221.582 24.6386C221.85 24.535 221.746 24.0944 221.474 24.198Z" fill="#A34848"/>
<path d="M207.569 22.4314C207.522 22.142 207.086 22.2543 207.129 22.5394C207.328 23.7964 206.913 25.0145 206.003 25.9C205.796 26.103 206.106 26.4313 206.318 26.2239C207.349 25.2218 207.794 23.8482 207.569 22.4314Z" fill="#A34848"/>
<path d="M206.745 18.3494C206.249 17.114 205.291 16.1766 204.07 15.6626C203.802 15.5503 203.681 15.9866 203.949 16.0989C205.062 16.5654 205.904 17.4509 206.353 18.5653C206.46 18.8375 206.857 18.6172 206.75 18.3494H206.745Z" fill="#2D2644"/>
<path d="M217.081 20.7381C215.096 19.5157 213.365 19.3602 211.074 19.615C210.785 19.6496 210.897 20.0859 211.182 20.0556C212.179 19.9433 213.184 19.8353 214.181 19.9908C215.178 20.1463 216.002 20.6042 216.852 21.1225C217.098 21.2737 217.331 20.885 217.081 20.7338V20.7381Z" fill="#2D2644"/>
<path d="M205.118 22.5437C205.101 22.3018 204.933 22.0859 204.674 22.0815C204.445 22.0815 204.195 22.2802 204.212 22.5265L204.281 23.4336C204.298 23.6755 204.467 23.8914 204.726 23.8957C204.954 23.8957 205.205 23.697 205.187 23.4508L205.118 22.5437Z" fill="#2D2644"/>
<path d="M213.331 25.0662C213.313 24.8243 213.145 24.6083 212.886 24.604C212.657 24.604 212.407 24.8027 212.424 25.0489L212.493 25.956C212.511 26.1979 212.679 26.4139 212.938 26.4182C213.167 26.4182 213.417 26.2195 213.4 25.9733L213.331 25.0662Z" fill="#2D2644"/>
<path d="M206.568 29.0057C206.568 29.0057 208.549 28.5263 210.444 30.4355C209.878 31.7227 207.419 31.2433 206.568 29.0057Z" fill="white"/>
<path d="M210.116 47.7741C209.451 48.1888 208.596 48.0246 208.122 47.4026C207.945 47.1694 207.621 47.489 207.798 47.718C208.389 48.4912 209.511 48.6855 210.331 48.1715C210.577 48.016 210.362 47.6186 210.116 47.7741Z" fill="#A34848"/>
<path d="M225.332 21.762C224.81 21.2004 224.232 20.6605 223.766 20.0514C223.144 19.235 223.054 18.1249 223.002 17.1314C222.911 15.4252 223.188 13.7492 223.74 12.138C223.835 11.8616 223.399 11.7406 223.304 12.0171C222.67 13.8745 222.402 15.814 222.596 17.7707C222.674 18.5612 222.778 19.3733 223.209 20.0601C223.675 20.8073 224.405 21.438 225 22.0773C225.199 22.2933 225.522 21.9779 225.324 21.762H225.332Z" fill="#5E5580"/>
<path d="M218.578 6.09484C215.92 4.55708 212.071 5.92206 209.736 7.48141C209.494 7.64123 209.71 8.04295 209.952 7.87881C212.148 6.41017 215.834 5.03223 218.345 6.4836C218.596 6.63046 218.829 6.2417 218.574 6.09484H218.578Z" fill="#5E5580"/>
<path d="M138.417 23.8914C136.453 23.6149 134.637 22.9238 132.971 21.8439C132.725 21.6841 132.496 22.0772 132.742 22.2327C134.352 23.278 136.1 23.9475 137.977 24.2715C137.075 25.3427 136.656 26.6559 136.803 28.0813C136.833 28.3664 137.286 28.3794 137.256 28.09C137.109 26.6472 137.558 25.3211 138.572 24.2801C138.719 24.1289 138.607 23.9173 138.421 23.8914H138.417Z" fill="#A34848"/>
<path d="M130.459 25.2089L126.614 26.2672C126.333 26.3449 126.441 26.7855 126.722 26.7077L130.567 25.6495C130.848 25.5717 130.74 25.1311 130.459 25.2089Z" fill="#A34848"/>
<path d="M131.15 26.9237C129.98 27.2606 128.798 27.4982 127.594 27.6408C127.305 27.6753 127.417 28.1159 127.702 28.0814C128.91 27.9388 130.093 27.7012 131.258 27.3643C131.538 27.2822 131.43 26.8416 131.15 26.9237Z" fill="#A34848"/>
<path d="M131.823 28.5607C130.977 28.7853 130.123 28.9754 129.264 29.1223C128.975 29.1698 129.087 29.6104 129.372 29.5628C130.235 29.416 131.089 29.2302 131.935 29.0013C132.216 28.9279 132.108 28.4873 131.827 28.5607H131.823Z" fill="#A34848"/>
<path d="M290.48 23.5588C289.638 23.9993 288.913 24.5652 288.318 25.3082C287.252 26.6343 286.423 27.4679 284.697 27.8221C284.533 27.8567 284.46 28.0856 284.589 28.1979C285.431 28.9625 286.169 29.7962 286.82 30.7378C286.984 30.9754 287.381 30.7594 287.217 30.5218C286.626 29.6666 285.962 28.8891 285.211 28.172C286.164 27.9301 287.066 27.5111 287.757 26.7811C288.754 25.7272 289.358 24.6602 290.7 23.9605C290.959 23.8266 290.743 23.4292 290.484 23.5631L290.48 23.5588Z" fill="#A34848"/>
<path d="M297.152 27.2391C295.711 27.0102 294.278 26.7337 292.854 26.4184C292.569 26.3536 292.444 26.7899 292.733 26.8547C294.157 27.1743 295.59 27.4465 297.035 27.6754C297.32 27.7186 297.445 27.2866 297.156 27.2391H297.152Z" fill="#A34848"/>
<path d="M296.276 29.0835C294.796 29.049 293.328 28.9842 291.908 28.5306C291.632 28.4399 291.507 28.8762 291.788 28.9669C293.246 29.4377 294.748 29.5025 296.267 29.5371C296.561 29.5457 296.565 29.0922 296.276 29.0835Z" fill="#A34848"/>
<path d="M294.075 30.8977C293.082 30.8545 292.094 30.7552 291.114 30.591C290.83 30.5435 290.704 30.9798 290.994 31.0273C292.012 31.2001 293.035 31.3081 294.07 31.3513C294.364 31.3642 294.368 30.9107 294.079 30.8977H294.075Z" fill="#A34848"/>
<path d="M172.588 36.3533C171.798 36.9407 171.427 37.8867 171.543 38.8543C171.578 39.1437 172.018 39.0314 171.983 38.7463C171.884 37.9299 172.247 37.1653 172.903 36.6816C173.136 36.5088 172.821 36.1848 172.588 36.3576V36.3533Z" fill="#A34848"/>
<path d="M251.748 40.6468C251.597 40.3963 251.2 40.6122 251.351 40.8628C251.804 41.623 251.981 42.4524 251.886 43.3335C251.856 43.6229 252.309 43.6316 252.339 43.3422C252.443 42.3919 252.236 41.4675 251.748 40.6468Z" fill="#A34848"/>
<path d="M211.997 74.9439C208.014 72.4644 203.923 70.1751 199.724 68.0844C199.465 67.9548 199.232 68.3436 199.495 68.4732C203.694 70.5638 207.785 72.8532 211.769 75.3326C212.015 75.4881 212.248 75.095 211.997 74.9439Z" fill="#2D2644"/>
<path d="M207.319 74.6589C205.36 74.4083 203.418 74.0628 201.489 73.6308C201.204 73.566 201.083 74.0023 201.368 74.0671C203.336 74.5077 205.313 74.8532 207.315 75.1124C207.604 75.147 207.608 74.6977 207.324 74.6589H207.319Z" fill="#2D2644"/>
<path d="M201.808 219.428C201.808 219.428 194.075 226.452 190.566 227.583C187.058 228.715 187.399 232.983 187.399 232.983H213.387C213.387 232.983 214.03 231.739 213.387 228.378C212.744 225.018 211.126 221.281 210.707 220.564C210.293 219.847 208.558 222.529 207.16 222.793C204.747 219.735 202.788 218.56 201.804 219.432L201.808 219.428Z" fill="#FF9CA9"/>
<path d="M187.399 232.983H213.387C213.387 232.983 213.823 232.132 213.616 229.955C207.755 230.201 193.294 230.806 187.584 231.039C187.334 232.102 187.399 232.983 187.399 232.983Z" fill="#F2E3DA"/>
<path d="M230.701 214.858C230.701 214.858 232.962 224.188 233.191 226.063C233.415 227.937 232.285 229.19 231.948 229.95C231.607 230.715 232.345 232.922 233.588 232.978C234.831 233.035 238.456 232.983 240.376 229.95C242.301 226.918 244.394 211.683 244.394 210.383C244.394 209.083 240.152 207.834 237.489 207.89C235.962 208.176 236.756 213.156 236.639 214.175C234.149 213.381 230.697 213.553 230.697 214.854L230.701 214.858Z" fill="#FF9CA9"/>
<path d="M242.284 208.763C242.146 212.798 241.485 225.406 238.469 228.948C236.212 231.605 233.73 231.925 232.194 231.791C232.492 232.421 232.975 232.961 233.584 232.987C234.827 233.043 238.452 232.991 240.372 229.959C242.297 226.927 244.39 211.692 244.39 210.392C244.39 209.796 243.501 209.212 242.284 208.763Z" fill="#F2E3DA"/>
<path d="M218.25 88.2006C212.951 87.7816 207.66 87.2935 202.374 86.7449C202.529 85.5484 202.684 84.3562 202.831 83.1597C202.865 82.8703 202.412 82.866 202.378 83.1511C202.235 84.3346 202.08 85.5139 201.925 86.6974C199.219 86.4167 196.517 86.1272 193.816 85.8119C193.527 85.7774 193.522 86.2309 193.807 86.2655C196.491 86.5765 199.176 86.8659 201.864 87.1467C201.113 92.8916 200.259 98.6237 199.292 104.334C199.271 104.464 199.322 104.567 199.448 104.615C200.63 105.055 201.834 105.349 203.086 105.526C203.375 105.565 203.379 105.112 203.094 105.073C201.951 104.913 200.85 104.632 199.763 104.243C200.716 98.5761 201.567 92.8916 202.309 87.1942C207.613 87.7428 212.921 88.2352 218.233 88.6542C218.522 88.6758 218.531 88.2222 218.242 88.2006H218.25Z" fill="#2D2644"/>
<path d="M207.841 123.841C205.52 122.934 203.094 122.485 200.604 122.498C200.311 122.498 200.306 122.951 200.596 122.951C203.051 122.943 205.433 123.387 207.721 124.277C207.992 124.381 208.113 123.945 207.841 123.841Z" fill="#2D2644"/>
<path d="M202.624 38.8888C202.624 38.8888 196.513 45.9037 190.294 59.7996C189.962 58.4433 190.256 57.0827 190.256 57.0827C190.256 57.0827 195.516 42.271 200.527 38.6166C201.994 38.3964 202.624 38.8931 202.624 38.8931V38.8888Z" fill="#2D2644"/>
<path d="M221.738 43.6532C221.738 43.6532 224.897 65.2292 225.95 74.3694C226.398 74.5983 226.808 72.4342 226.808 72.4342C225.721 59.575 224.275 44.4825 224.275 44.4825C224.275 44.4825 223.438 43.6272 221.742 43.6532H221.738Z" fill="#2D2644"/>
<path d="M217.344 40.9276C214.833 40.8628 210.961 40.906 209.369 38.595C209.205 38.3574 208.808 38.5734 208.972 38.811C210.694 41.3077 214.625 41.3077 217.336 41.3768C217.629 41.3854 217.633 40.9319 217.344 40.9232V40.9276Z" fill="#2D2644"/>
<path d="M212.338 41.325C212.338 41.7397 212.002 42.0766 211.583 42.0766C211.164 42.0766 210.828 41.7397 210.828 41.325C210.828 40.9103 211.164 40.5691 211.583 40.5691C212.002 40.5691 212.338 40.906 212.338 41.325Z" fill="#F2E3DA"/>
</g>
<defs>
<clipPath id="clip0_81_5123">
<rect width="300" height="233" fill="white"/>
</clipPath>
</defs>
</svg>
