<svg width="146" height="15" viewBox="0 0 146 15" fill="none" xmlns="http://www.w3.org/2000/svg">
<g clip-path="url(#clip0_33_442)">
<path d="M27.6195 6.9066V5.7711H33.1399V3.96767H27.6195V0.233887H25.6109V3.97434H20.0905V5.77778H25.6109V6.91328C25.6109 9.89228 23.1104 12.3035 20.0212 12.3035V14.2406C22.8472 14.2406 25.3061 12.7577 26.6152 10.5535C27.9243 12.7577 30.3901 14.2406 33.2091 14.2406V12.3035C30.1199 12.3035 27.6195 9.89228 27.6195 6.91328V6.9066Z" fill="#040000"/>
<path d="M50.6289 0.233887H48.7795V3.07263H50.6289V0.233887Z" fill="#040000"/>
<path d="M48.648 6.1919C48.2879 6.1919 47.9415 6.11175 47.6368 5.97148L49.1398 3.92091H47.048L46.4454 4.74915C46.3346 4.48866 46.2792 4.20144 46.2792 3.90087V2.75202H47.5952V0.948581H46.2792V0.233887H44.2705V0.948581H37.3164V5.25011C37.3164 5.67759 36.9563 6.0316 36.506 6.0316H35.9312V8.00202H36.506C37.9121 8.00202 39.0827 7.01347 39.3182 5.72435H40.6134V8.20908H42.4489V3.92091H39.3667V2.75202H44.2705V3.90087C44.2705 4.86938 44.6099 5.76442 45.1779 6.47244L43.9034 8.20908H45.9952L46.4662 7.56786C47.1104 7.92854 47.8584 8.12892 48.648 8.12892H49.7493V6.1919H48.648Z" fill="#040000"/>
<path d="M48.3295 8.83691H37.6282V12.4371H36.5061V14.2405H49.4516V12.4371H48.3295V8.83691ZM39.4637 12.4371V10.6403H40.5858V12.4371H39.4637ZM42.4143 12.4371V10.6403H43.5364V12.4371H42.4143ZM45.3719 12.4371V10.6403H46.494V12.4371H45.3719Z" fill="#040000"/>
<path d="M56.7935 7.73484C56.2463 7.73484 55.803 7.30736 55.803 6.77969V0.233887H53.635V6.77969C53.635 8.46289 55.048 9.82549 56.7935 9.82549V7.73484Z" fill="#040000"/>
<path d="M61.0394 0.233887V9.66518C61.0394 11.0345 59.8896 12.1432 58.4697 12.1432H55.3875V14.2339H58.4697C61.0879 14.2339 63.2074 12.19 63.2074 9.66518V0.233887H61.0394Z" fill="#040000"/>
<path d="M72.2263 4.38843H74.5259L68.5068 14.2405H66.2073L72.2263 4.38843Z" fill="#040000"/>
<path d="M76.5692 2.93237H66.2073V4.8026H76.5692V2.93237Z" fill="#040000"/>
<path d="M74.5258 1.87036H72.3647V14.2406H74.5258V1.87036Z" fill="#040000"/>
<path d="M83.448 12.1501H80.2688V14.2341H83.448V12.1501Z" fill="#040000"/>
<path d="M87.5971 2.4917H85.436V10.2264H87.5971V2.4917Z" fill="#040000"/>
<path d="M85.436 10.2332C85.436 11.2952 84.5425 12.1568 83.4412 12.1568V14.2408C85.7338 14.2408 87.597 12.444 87.597 10.2332H85.436Z" fill="#040000"/>
<path d="M87.597 2.4917H79.5693V4.36193H87.597V2.4917Z" fill="#040000"/>
<path d="M88.8645 1.86377C87.4793 1.86377 86.3572 2.94583 86.3572 4.28171C86.3572 5.61759 87.4793 6.69965 88.8645 6.69965C90.2498 6.69965 91.3719 5.61759 91.3719 4.28171C91.3719 2.94583 90.2498 1.86377 88.8645 1.86377ZM88.8645 5.13667C88.3797 5.13667 87.9849 4.75595 87.9849 4.28839C87.9849 3.82083 88.3797 3.44011 88.8645 3.44011C89.3494 3.44011 89.7442 3.82083 89.7442 4.28839C89.7442 4.75595 89.3494 5.13667 88.8645 5.13667Z" fill="#040000"/>
<path d="M99.6151 12.1499H94.3718V14.2339H99.6151V12.1499Z" fill="#040000"/>
<path d="M103.764 5.78442H101.603V10.2329H103.764V5.78442Z" fill="#040000"/>
<path d="M101.603 10.2329C101.603 11.2949 100.709 12.1566 99.6082 12.1566V14.2405C101.901 14.2405 103.764 12.4438 103.764 10.2329H101.603Z" fill="#040000"/>
<path d="M99.906 2.49146H94.3718V4.36168H99.906V2.49146Z" fill="#040000"/>
<path d="M99.906 6.19849H94.3718V8.06871H99.906V6.19849Z" fill="#040000"/>
<path d="M113.587 6.55933H111.426V14.2406H113.587V6.55933Z" fill="#040000"/>
<path d="M111.426 9.46484H106.764V11.3351H111.426V9.46484Z" fill="#040000"/>
<path d="M111.426 12.3704H106.764V14.2406H111.426V12.3704Z" fill="#040000"/>
<path d="M111.426 6.55933H106.764V8.42956H111.426V6.55933Z" fill="#040000"/>
<path d="M121.83 12.1499H116.587V14.2339H121.83V12.1499Z" fill="#040000"/>
<path d="M125.979 5.78442H123.818V10.2329H125.979V5.78442Z" fill="#040000"/>
<path d="M123.818 10.2329C123.818 11.2949 122.924 12.1566 121.823 12.1566V14.2405C124.116 14.2405 125.979 12.4438 125.979 10.2329H123.818Z" fill="#040000"/>
<path d="M122.121 2.49146H116.587V4.36168H122.121V2.49146Z" fill="#040000"/>
</g>
<defs>
<clipPath id="clip0_33_442">
<rect width="145.958" height="14.0067" fill="white" transform="translate(0.0212402 0.233887)"/>
</clipPath>
</defs>
</svg>
