<svg width="234" height="198" viewBox="0 0 234 198" fill="none" xmlns="http://www.w3.org/2000/svg">
<g clip-path="url(#clip0_81_4577)">
<path d="M31.3955 0.0397017C30.2362 -1.11501 89.3277 22.9959 89.3277 22.9959L133.286 17.088L175.014 40.0914L234 28.3555L202.644 188.595L150.596 197.996L103.072 171.539L55.6463 178.617L0 147.563L31.3955 0.0397017Z" fill="#428CC5"/>
<path d="M104.758 168.515C104.235 168.224 103.65 168.076 103.057 168.076C102.89 168.076 102.723 168.09 102.556 168.112L56.3004 175.015L3.92847 145.78L33.983 4.55347C43.4645 8.14105 70.4736 19.0563 88.012 26.2097C88.4336 26.3804 88.8806 26.4675 89.3349 26.4675C89.4875 26.4675 89.6365 26.4566 89.7892 26.4385L132.61 20.6795L173.335 43.1309C173.855 43.4178 174.436 43.563 175.021 43.563C175.243 43.563 175.468 43.5413 175.69 43.4977L229.599 32.7712L199.69 185.607L151.196 194.365L104.755 168.511L104.758 168.515Z" fill="#F4D4AA"/>
<path d="M89.4976 26.9552L56.3396 175.052L57.2014 175.244L90.3594 27.1478L89.4976 26.9552Z" fill="#F8E5CC"/>
<path d="M132.23 21.0395L103.827 167.994L104.698 168.162L133.1 21.2075L132.23 21.0395Z" fill="#F8E5CC"/>
<path d="M175.212 44.0673L151.241 194.441L152.113 194.58L176.084 44.2061L175.212 44.0673Z" fill="#F8E5CC"/>
<path d="M173.277 61.9257L173.153 61.864L129.721 40.0589L88.6773 45.295L88.5755 45.2551L30.269 23.6751L30.5779 22.8472L88.779 44.3909L129.878 39.1475L129.998 39.2056L173.43 61.0143L224.282 54.4455L224.399 55.3243L173.277 61.9257Z" fill="#F8E5CC"/>
<path d="M167.997 88.2189L167.906 88.1862L120.774 70.6441L79.879 71.8424L79.7955 71.8097L25.0068 49.6124L25.3375 48.7917L80.0389 70.9564L120.92 69.7544L168.127 87.3256L220.103 83.9596L220.161 84.8419L167.997 88.2189Z" fill="#F8E5CC"/>
<path d="M163.825 118.369L117.831 100.256L74.0753 102.98L18.1565 80.8514L18.4836 80.0308L74.2171 102.083L117.972 99.3631L118.063 99.3994L163.974 117.475L213.765 115.631L213.798 116.513L163.825 118.369Z" fill="#F8E5CC"/>
<path d="M157.984 153.166L157.883 153.122L111.78 134.124L64.5028 138.957L64.3902 138.899L10.6191 112.232L11.0153 111.44L64.6664 138.049L111.91 133.22L112.012 133.263L158.115 152.262L207.387 147.302L207.474 148.184L157.984 153.166Z" fill="#F8E5CC"/>
<path d="M57.7763 13.2258L24.4534 155.966L25.3169 156.167L58.6399 13.427L57.7763 13.2258Z" fill="#F8E5CC"/>
<path d="M111.811 22.2396L79.624 171.115L80.4908 171.302L112.678 22.4266L111.811 22.2396Z" fill="#F8E5CC"/>
<path d="M152.695 33.347L124.454 178.109L125.325 178.279L153.566 33.5165L152.695 33.347Z" fill="#F8E5CC"/>
<path d="M202.688 38.3033L177.502 189.171L178.376 189.316L203.562 38.4491L202.688 38.3033Z" fill="#F8E5CC"/>
<path d="M59.9418 98.7748C59.9418 98.7748 59.9418 98.7748 59.9418 98.7966V98.9709C59.9418 98.9709 59.9309 98.9927 59.9309 99.0072C59.92 99.0653 59.9091 99.1234 59.8837 99.1815C59.8837 99.2178 59.8619 99.2723 59.851 99.2977C59.8292 99.3449 59.8037 99.3921 59.7819 99.4466C59.7456 99.5047 59.702 99.5628 59.6656 99.6318C59.6511 99.6463 59.6438 99.6584 59.6438 99.6681C59.6438 99.6681 59.6329 99.6681 59.6075 99.6899C59.5602 99.748 59.5166 99.8061 59.4585 99.8533C59.4476 99.8642 59.4112 99.9005 59.3785 99.9223C59.3422 99.9441 59.2622 99.9913 59.2513 100.002C59.2295 100.013 59.1932 100.038 59.1714 100.049C59.1132 100.06 59.066 100.071 59.0224 100.097C59.0078 100.104 58.9957 100.107 58.986 100.107C58.986 100.107 58.9751 100.107 58.9642 100.107C58.768 100.107 58.6044 100.107 58.4882 100.086C58.1066 100.006 57.8958 99.9041 57.5614 99.6717C57.1435 99.3958 56.7837 98.9818 56.4712 98.5424C57.1072 97.9397 57.8449 97.602 58.7716 97.4131C58.7934 97.4131 58.8298 97.4022 58.8407 97.4022C58.9097 97.3913 58.9788 97.3914 59.0369 97.3768C59.175 97.3659 59.3131 97.3659 59.4548 97.3623C59.2586 97.7327 59.2949 98.2193 59.7601 98.4952C59.7819 98.517 59.8074 98.5315 59.8292 98.5533C59.851 98.5642 59.8764 98.6005 59.8873 98.6114C59.8982 98.6332 59.8982 98.6441 59.9091 98.6586C59.9091 98.6586 59.92 98.7058 59.9454 98.7639V98.7748H59.9418Z" fill="#39CA8C"/>
<path d="M93.1398 37.5316C92.562 39.1729 90.6904 40.0335 89.284 40.8432C88.5899 41.2318 87.6341 41.6639 87.158 42.3356C86.3549 43.4904 87.9502 44.2275 88.7243 44.8375C90.4433 46.1992 91.0284 48.4977 90.1889 50.5493C89.7746 51.5479 89.0732 52.3141 88.1247 52.837C87.536 53.1638 86.8527 53.3417 86.3003 53.7302C85.3736 54.3766 85.4899 55.2916 85.4827 56.2684C85.4499 58.8248 84.1198 60.5931 82.7897 62.6665C82.0774 63.7486 81.307 65.0159 81.6486 66.3703C81.8848 67.3689 82.6516 68.1714 83.3603 68.8722C84.6686 70.1721 86.5584 71.4902 86.8091 73.4692C87.0708 75.4773 85.5335 76.7445 83.9672 77.6451C82.7461 78.3531 81.4814 78.916 81.7031 80.5573C81.8812 81.8499 82.5681 83.0192 82.2555 84.3554C81.8012 86.2219 80.0278 86.9082 78.327 87.2495C76.1356 87.6925 74.0132 87.7724 72.8467 89.9365C72.0254 91.4471 71.4294 93.8727 69.4415 94.185C68.1986 94.3811 67.5117 93.5604 66.5014 93.0303C65.3676 92.4312 64.6044 93.4043 63.8231 94.1378C62.969 94.9367 61.8897 95.7319 60.7667 95.7791C61.439 95.9098 62.0932 96.1531 62.6674 96.538C63.0672 96.7922 63.2416 97.2896 62.9872 97.7181C62.7655 98.1175 62.2022 98.2918 61.8061 98.0377C61.6535 97.936 61.519 97.8561 61.3773 97.7835C62.075 99.0362 61.3664 100.841 60.0726 101.527C59.84 101.651 59.582 101.734 59.3276 101.785C59.4693 101.865 59.5929 101.967 59.6874 102.119C61.032 102.065 62.3912 102.457 63.5142 103.248C64.3936 103.866 65.0187 104.69 65.4911 105.649C66.1671 106.981 66.7813 107.907 68.1114 108.648C70.4808 109.966 72.8903 111.03 75.0999 112.613C77.2149 114.124 79.1483 115.841 80.9072 117.744C81.3361 118.223 81.1762 119.026 80.522 119.204C78.7595 119.647 80.3476 122.871 80.3621 124.015C80.3985 125.471 79.6971 126.8 79.0974 128.086C77.4948 131.495 75.8848 134.901 74.2713 138.322C72.8321 141.354 71.5347 144.556 69.1653 147.008C67.112 149.143 64.4845 150.628 61.6208 151.39C60.9884 151.565 60.3633 150.976 60.5559 150.323C61.9587 145.388 60.396 140.602 56.8963 136.964C55.4754 135.5 54.1344 134.048 53.1314 132.258C52.0956 130.417 51.387 128.42 50.7364 126.404C50.1295 124.48 49.1738 122.239 49.9224 120.22C50.2458 119.342 50.8782 118.619 51.2598 117.78C51.7249 116.749 51.8558 115.576 51.6777 114.476C51.158 111.317 46.3573 108.662 48.8249 105.213C49.628 104.08 50.9908 103.444 52.3464 103.227C53.1532 103.103 53.9272 103.139 54.734 103.292C55.2537 103.394 56.2967 103.666 57.0817 103.601C56.9872 103.194 57.1398 102.704 57.6377 102.519C57.7685 102.457 57.9212 102.428 58.0665 102.373C58.0665 102.108 58.1574 101.923 58.31 101.81C57.8303 101.731 57.3288 101.56 56.9 101.317C55.9406 100.75 55.181 99.8423 54.6068 98.8982C54.3924 98.5424 54.5014 98.1539 54.7449 97.8488C55.9842 96.2439 58.0738 95.4959 60.0617 95.6919C59.7855 95.6012 59.4911 95.4813 59.204 95.2671C57.3324 93.8255 58.0993 90.8988 55.966 89.6933C54.8612 89.0542 53.6292 88.7818 52.7062 87.8595C51.9503 87.097 51.5178 86.0802 51.2997 85.0417C50.7728 82.4854 51.4887 79.7947 50.5039 77.3183C49.4136 74.5404 46.7062 72.4779 43.737 72.1729C43.2283 72.1148 42.6868 71.6573 42.8976 71.0763C43.3518 69.8199 44.0859 68.7996 45.0599 67.9716C44.5693 67.289 44.1077 66.4466 44.2277 65.7421C44.3294 65.1611 44.9908 64.6382 45.3543 64.2207C45.5868 63.9556 45.8122 63.6905 46.0447 63.4254C44.4203 62.6556 43.3155 60.9671 43.3591 59.0717C43.3773 58.5924 43.479 58.113 43.6716 57.6628C43.9551 56.9583 44.5947 56.4899 44.9 55.8254C45.7504 53.8246 42.3306 52.216 40.8515 51.8638C37.8206 51.1376 34.3973 52.4847 31.7589 50.3206C29.5711 48.5231 29.7274 46.0576 31.6789 44.1948C36.0217 40.0335 41.8982 37.2266 47.8218 36.2716C50.1477 35.8976 52.9315 35.8685 54.5559 37.8838C55.5372 39.1148 55.7988 40.7343 57.1762 41.6675C58.2374 42.3792 59.5638 42.5862 60.8212 42.6044C64.8915 42.6951 69.536 40.5092 73.4354 41.9362C75.9539 41.2862 77.175 37.8294 79.5699 36.7727C81.078 36.0973 82.8733 35.9993 84.029 36.9652C85.2464 35.3529 87.2234 34.387 89.2731 34.3725C91.1701 34.358 93.9575 35.1532 93.1289 37.5389L93.1398 37.5316Z" fill="#39CA8C"/>
<path d="M108.491 50.9596C110.351 49.8449 114.509 46.791 112.335 44.2747C111.256 43.0074 109.566 43.287 108.109 43.4903C107.171 43.6101 106.201 43.5412 105.721 42.5971C105.303 41.7655 105.739 40.7125 106.593 40.353C107.251 40.0734 107.491 39.1947 106.797 38.7698C104.14 37.1721 100.942 35.1677 97.7007 35.3747C96.0581 35.4727 95.7964 36.6419 95.3131 37.9601C94.7861 39.4053 93.6086 40.589 92.1731 41.1482C91.559 41.3915 91.4827 42.0887 91.737 42.5135C91.6208 42.8258 91.7261 43.218 91.9369 43.4504C93.3433 45.019 93.2452 47.7134 95.2149 48.8281C96.327 49.4491 97.4608 49.0859 98.642 49.0024C99.5578 48.9298 99.3615 49.4055 99.4887 50.168C99.5941 50.8253 99.9103 51.3699 100.441 51.7839C102.68 53.5232 106.343 52.2414 108.48 50.9633L108.491 50.9596Z" fill="#39CA8C"/>
<path d="M112.139 64.5222C112.466 66.0944 113.847 66.69 115.315 66.2361C115.984 66.0146 116.587 65.6442 117.256 65.4082C118.11 65.0922 118.819 65.4045 119.698 65.4917C121.028 65.6151 122.057 64.9071 122.726 63.7959C123.314 62.8228 123.587 61.5845 124.394 60.7494C124.982 60.1466 125.862 59.9469 126.578 59.5075C127.261 59.079 127.871 58.4617 128.09 57.6629C128.318 56.8168 127.911 55.9635 127.272 55.4915C127.573 55.5023 127.886 55.5241 128.188 55.5459C129.3 55.6367 129.292 53.901 128.184 53.8102C126.367 53.6759 124.47 53.556 122.689 54.0789C120.988 54.5909 119.673 55.7311 118.31 56.8205C116.787 58.0514 115.17 59.2134 113.738 60.5351C112.63 61.5664 111.812 62.9571 112.143 64.5185L112.139 64.5222Z" fill="#39CA8C"/>
<path d="M115.134 75.6516C115.424 76.022 116.06 75.9493 116.362 75.6516C116.733 75.2921 116.649 74.7946 116.362 74.4243C116.268 74.2972 116.155 74.2064 116.049 74.1011C116.028 74.0103 116.002 73.905 115.955 73.8251C115.744 73.4656 115.352 73.3531 114.981 73.4475C113.858 73.0444 112.528 73.2006 111.474 73.7126C109.719 74.584 108.763 76.4831 107.956 78.1644C107.796 78.4984 107.796 78.9523 108.098 79.2174C110.453 81.2908 114.076 81.6503 116.758 79.9908C117.14 79.7475 117.336 79.2029 117.067 78.7998C116.358 77.725 115.65 76.6538 114.941 75.5681C114.952 75.5572 114.963 75.5209 114.988 75.51C115.046 75.5572 115.094 75.6008 115.141 75.6589L115.134 75.6516Z" fill="#39CA8C"/>
<path d="M213.532 89.1921C212.373 88.4659 210.959 88.5276 209.655 88.3824C208.902 88.3025 208.034 88.2589 208.008 87.3366C207.994 86.5268 208.615 85.7062 208.928 84.9872C209.422 83.8398 209.582 82.627 208.339 81.9371C208.059 81.7882 207.725 81.7773 207.46 81.9371C205.414 83.168 202.975 83.9741 200.577 83.4258C198.167 82.8884 196.114 80.8949 194.166 79.4679C193.701 79.1338 193.25 78.7997 192.785 78.4657C192.262 78.0844 191.557 77.3255 190.953 77.1185C190.048 76.8208 188.94 77.4017 188.013 77.5216C185.804 77.783 183.627 77.4889 181.555 76.7663C182.297 73.1678 179.117 69.8925 175.425 70.2847C173.157 70.5243 169.308 72.1184 168.879 68.6506C168.665 66.8823 167.807 65.5678 166.023 65.0522C161.099 63.6324 158.929 69.188 154.743 70.1612C153.263 70.5025 152.173 70.0632 151.312 68.8177C150.756 68.0116 150.291 67.2018 149.36 66.7406C148.397 66.2468 147.3 66.3194 146.246 66.3557C145.563 66.3812 144.313 66.4066 143.709 65.8873C147.725 65.7239 151.515 63.9229 154.132 60.84C154.546 60.3534 154.405 59.5691 153.747 59.3948C151.141 58.6867 148.488 58.2764 145.817 58.1566C145.952 56.3519 143.829 54.8304 141.863 55.2989C140.035 55.731 138.476 57.1689 136.975 58.2256C135.034 59.609 133.083 60.9998 131.142 62.3833C130.982 62.4994 130.888 62.6374 130.83 62.8008C130.793 62.8226 130.772 62.848 130.739 62.8589C130.405 63.1131 130.245 63.5198 130.383 63.912C129.049 63.291 127.406 63.2729 126.134 64.05C124.852 64.827 124.23 66.2178 123.645 67.5141C123.114 68.6724 122.333 70.2701 120.839 70.1939C119.982 70.1503 119.8 71.1561 120.254 71.6645C119.978 72.0458 119.793 72.4997 119.738 72.9826C119.637 73.9086 120.392 74.7837 121.097 75.292C121.606 75.6733 122.177 75.9239 122.766 76.1417C122.348 76.2579 121.955 76.4576 121.632 76.759C121.435 76.9551 121.286 77.1984 121.17 77.4526C120.403 77.0277 119.448 78.1062 120.156 78.8324L120.563 79.2464C120.24 79.8963 120.959 80.4701 121.606 80.3176L122.326 81.0547C121.319 81.0801 120.371 81.3597 119.622 82.1622C118.514 83.3459 118.644 84.7657 119.564 85.9894C121.574 88.6656 124.692 90.2742 127.991 90.5429C127.832 91.3527 127.025 91.9445 126.236 92.1769C125.15 92.5037 124.016 92.137 123.016 91.7012C121.279 90.9314 119.691 89.9075 117.859 89.3446C114.72 88.3933 111.191 88.5676 108.607 90.7354C107.568 91.6068 106.739 92.7398 106.336 94.0361C105.809 95.6919 106.23 97.3332 106.372 98.9963C106.445 100.002 106.47 101.066 105.674 101.821C105.154 102.319 104.428 102.566 103.792 102.878C102.567 103.484 101.528 104.309 101.07 105.649C100.176 108.288 101.655 111.244 103.763 112.835C106.652 115.013 110.529 115.347 113.277 117.722C114.832 119.058 115.494 120.536 115.225 122.573C115.123 123.419 115.043 124.193 115.348 125.014C115.617 125.729 116.162 126.248 116.533 126.905C118.125 129.665 113.284 131.92 111.83 133.659C109.57 136.394 109.661 140.13 110.148 143.434C110.537 146.06 111.303 150.497 114.89 150C115.399 149.927 115.548 149.339 115.49 148.921C115.148 146.412 119.251 145.486 120.778 144.371C121.435 143.896 121.988 143.304 122.359 142.574C122.566 142.167 122.635 141.706 122.831 141.299C123.314 140.362 123.928 140.453 124.841 140.355C126.716 140.166 127.952 139.375 128.744 137.65C129.492 136.052 129.863 132.432 132.283 132.679C132.839 132.733 133.116 132.305 133.101 131.866C135.391 131.038 137.564 129.781 138.494 127.421C138.829 126.564 138.941 125.511 139.886 125.093C140.555 124.803 141.38 124.825 142.107 124.785C143.171 124.748 144.422 124.767 145.334 124.106C146.293 123.409 146.449 122.17 146.042 121.11C145.715 120.268 145.054 119.61 144.821 118.732C144.505 117.566 144.85 116.291 144.996 115.122C145.301 112.856 144.483 109.527 141.994 109.247C141.954 107.479 141.242 105.837 139.977 104.628C141.154 103.55 141.296 101.295 140.391 99.9222C139.519 98.6186 137.898 98.0086 136.495 97.493C135.151 96.9882 132.233 95.7936 132.676 93.9199C136.336 94.4646 139.715 95.3433 141.856 98.6912C143.589 101.393 145.127 104.683 148.703 105.18C151.712 105.598 153.743 103.085 153.34 100.216C152.878 96.8176 150.094 95.0673 147.362 93.4805C146.584 93.0194 145.53 92.5509 144.905 91.8792C144 90.9097 145.261 90.3396 146.137 90.1399C147.87 89.7513 149.749 90.4775 151.094 91.5487C154.354 94.1523 154.321 98.8256 154.019 102.606C153.863 104.675 153.627 106.734 153.412 108.793C153.267 110.264 152.762 112.381 154.339 113.299C155.382 113.909 156.676 113.456 157.577 112.791C158.973 111.734 159.467 109.988 159.925 108.379C160.463 106.458 161.033 103.484 163.254 102.762C164.213 102.446 165.961 102.951 165.954 104.221C165.947 105.1 165.045 105.819 164.976 106.745C164.809 108.768 166.423 110.474 166.43 112.533C166.437 114.639 165.492 116.549 163.89 117.893C163.657 118.078 163.592 118.459 163.672 118.739C164.62 122.09 166.114 126.121 170.093 126.666C171.667 126.88 173.044 126.31 174.164 125.231C175.352 124.095 176.144 122.301 177.798 121.753C178.201 121.615 178.386 121.313 178.43 120.918C178.612 119.425 178.248 118.038 177.445 116.851C178.67 116.048 179.884 115.249 181.108 114.447C181.395 114.251 181.65 113.822 181.512 113.463C181.29 112.918 180.698 112.021 180.683 111.429C180.683 110.885 181.236 110.318 181.559 109.853C182.388 108.717 183.289 107.653 184.259 106.654C185.655 105.216 187.192 103.942 188.842 102.813C188.533 104.004 188.224 105.209 187.926 106.411C187.548 107.925 187.366 109.291 187.995 110.758C188.111 111.023 188.471 111.182 188.747 111.182C192.08 111.113 194.664 108.136 194.468 104.922C195.787 104.617 196.753 103.39 196.866 101.934C197.011 100.024 195.594 98.6186 194.144 97.5256C194.871 96.5053 194.995 95.2344 195.685 94.1232C195.903 93.7855 196.47 93.0811 196.932 93.092C197.568 93.1029 197.778 93.9816 198.036 94.4065C198.349 94.9257 198.781 95.376 199.381 95.583C200.726 96.0405 202.019 95.1109 203.197 94.6243C205.29 93.7492 206.486 95.4014 208.328 96.055C211.119 97.0645 214.717 95.9098 215.041 92.6236C215.175 91.2946 214.674 89.8966 213.514 89.1703L213.532 89.1921ZM131.629 64.3622C132.185 63.9555 132.738 63.5489 133.279 63.1531C133.374 63.2584 133.443 63.3855 133.512 63.5125C133.675 63.8139 133.781 64.2061 133.875 64.5765C134.064 65.3971 134.122 66.2395 134.344 67.0493C134.577 67.8699 135.02 68.7342 135.634 69.3696C135.056 69.9143 134.526 70.5062 134.021 71.1307C133.592 70.5643 133.068 70.0704 132.571 69.5403C132.058 69.0101 131.095 67.5431 132.145 67.0311C132.585 66.8096 132.65 66.2323 132.454 65.8401C132.174 65.31 131.793 64.8488 131.328 64.4784C131.433 64.4675 131.535 64.4312 131.629 64.3622Z" fill="#39CA8C"/>
<path d="M144.323 131.775C143.942 131.684 143.651 131.833 143.469 132.076C143.364 131.949 143.237 131.858 143.077 131.822C140.853 131.481 138.531 132.207 137.008 133.91C136.626 134.349 136.339 134.836 136.016 135.322C135.671 135.867 135.209 136.158 134.631 136.426C133.566 136.927 132.505 137.414 131.985 138.54C131.538 139.524 131.797 140.715 132.745 141.299C133.592 141.829 134.726 141.779 135.627 141.43C136.714 140.998 137.578 140.232 138.796 140.413C139.977 140.606 141.227 140.776 141.998 139.629C142.655 138.656 142.386 137.407 142.881 136.354C143.353 135.333 144.229 134.513 145.41 134.658C145.955 134.716 146.417 134.041 146.253 133.558C145.937 132.657 145.265 131.989 144.327 131.771L144.323 131.775Z" fill="#39CA8C"/>
<path d="M167.702 132.988C168.094 132.421 168.218 131.807 167.811 131.208C167.462 130.7 166.928 130.402 166.35 130.217C165.747 130.021 165.111 129.977 164.508 129.785C163.904 129.589 163.486 129.128 163.196 128.576C162.556 127.363 162.807 125.95 163.159 124.643C163.541 124.56 163.897 124.226 163.864 123.808C163.733 122.41 162.607 121.393 161.219 121.273C159.819 121.15 158.547 122.112 157.835 123.238C156.429 125.475 157.007 128.34 158.435 130.406C159.852 132.446 162.127 134.222 164.707 134.284C165.841 134.317 167.033 133.953 167.702 132.991V132.988Z" fill="#39CA8C"/>
<path d="M197.662 132.207C197.36 131.92 197.037 131.64 196.779 131.306C196.255 130.591 196.521 130.083 196.586 129.284C196.764 127.178 194.889 126.143 193.126 125.489C190.95 124.687 188.576 124.694 186.403 125.438C186.032 125.555 185.767 125.881 185.771 126.273C185.753 127.661 185.466 128.946 184.95 130.162C182.871 131.314 180.65 131.862 178.197 131.974C177.169 132.011 176.093 132.12 175.235 132.748C174.381 133.387 174.232 134.324 173.807 135.25C172.437 138.249 167.251 136.713 166.357 140.439C166.245 140.925 166.51 141.35 166.96 141.513C168.665 142.087 170.402 142.45 172.194 142.596C172.702 142.639 173.211 142.65 173.72 142.65C174.043 142.65 174.69 142.487 174.948 142.625C175.621 142.991 174.131 143.703 173.782 143.994C173.044 144.607 172.593 145.548 173 146.492C173.375 147.381 174.312 147.69 175.134 148.035C175.944 148.38 176.431 148.529 176.515 149.513C176.573 150.159 176.46 150.784 176.671 151.408C177.045 152.458 178.019 153.093 179.084 153.238C182.093 153.671 183.278 150.682 185.346 149.23C185.52 149.669 185.847 150.061 186.251 150.315C187.061 150.809 188.068 150.657 188.903 151.049C189.867 151.51 190.492 152.443 191.168 153.238C192.178 154.426 193.65 155.566 195.318 155.355C196.88 155.156 197.742 153.754 197.749 152.273C197.742 149.996 196.154 148.289 196.655 145.904C197.124 143.67 198.425 141.735 199.09 139.571C199.617 137.846 199.853 135.882 199.119 134.193C198.781 133.409 198.258 132.795 197.655 132.207H197.662Z" fill="#39CA8C"/>
<path d="M203.506 103.779C203.215 103.376 202.877 103.041 202.473 102.751C201.754 102.232 200.827 101.945 199.948 102.017C198.432 102.148 197.069 103.437 196.855 104.919C196.833 104.93 196.808 104.93 196.786 104.941C195.954 105.242 195.053 105.801 195.056 106.807C195.056 107.49 195.5 107.729 196.066 107.947C196.448 108.096 196.855 108.187 197.258 108.245C198.116 108.368 198.959 108.321 199.802 108.121C201.398 107.737 202.866 106.738 203.742 105.336C203.949 104.988 204.018 104.665 203.833 104.294C203.753 104.109 203.636 103.935 203.506 103.775V103.779Z" fill="#39CA8C"/>
<path d="M205.046 97.01C204.225 96.5379 203.24 96.3455 202.314 96.5561C201.376 96.7667 200.685 97.4276 200.351 98.2954C200.042 99.1052 200.195 100.042 200.751 100.699C201.274 101.324 202.19 101.505 202.939 101.237C203.4 101.073 203.782 100.808 204.069 100.412C204.312 100.089 204.392 99.7188 204.367 99.3375C204.748 98.9998 205.094 98.6295 205.359 98.201C205.603 97.7943 205.45 97.2424 205.043 97.01H205.046Z" fill="#39CA8C"/>
<path d="M131.162 25.2465L105.137 163.926L106.009 164.089L132.033 25.4098L131.162 25.2465Z" fill="#FEFAF5"/>
<path d="M174.16 49.606L153.033 185.183L153.909 185.319L175.036 49.7423L174.16 49.606Z" fill="#FEFAF5"/>
<path d="M87.3642 31.4753L58.1931 170.148L59.0573 170.329L88.2284 31.6568L87.3642 31.4753Z" fill="#FEFAF5"/>
<path d="M45.0237 59.511C35.2442 60.4696 46.4556 71.1416 46.4556 71.1416C46.4556 71.1416 54.3054 58.5996 45.0237 59.511ZM45.2745 64.6309C44.3732 64.6309 43.6427 63.9047 43.6391 63.0078C43.6391 62.1073 44.3659 61.3774 45.2636 61.3738C46.1649 61.3738 46.8953 62.1 46.899 62.9969C46.899 63.8974 46.1721 64.6273 45.2745 64.6309Z" fill="#D8450B"/>
<path d="M102.73 98.3717C92.6456 97.7653 102.298 110.413 102.298 110.413C102.298 110.413 112.299 98.9491 102.73 98.3717ZM102.156 103.608C101.24 103.466 100.615 102.609 100.761 101.694C100.902 100.779 101.76 100.155 102.676 100.3C103.592 100.441 104.217 101.298 104.071 102.213C103.93 103.129 103.072 103.753 102.156 103.608Z" fill="#D8450B"/>
<path d="M145.901 89.2032C135.805 88.575 145.508 101.008 145.508 101.008C145.508 101.008 155.484 89.8023 145.901 89.2032ZM145.337 94.334C144.422 94.1924 143.793 93.35 143.935 92.4531C144.076 91.5562 144.93 90.9462 145.846 91.0914C146.762 91.233 147.391 92.0755 147.249 92.9724C147.107 93.8692 146.253 94.4793 145.337 94.334Z" fill="#D8450B"/>
<path d="M171.95 129.055C162.861 128.507 171.561 139.909 171.561 139.909C171.561 139.909 180.578 129.574 171.95 129.055ZM171.431 133.776C170.606 133.645 170.042 132.875 170.173 132.051C170.304 131.226 171.074 130.664 171.899 130.794C172.724 130.921 173.288 131.695 173.157 132.519C173.03 133.343 172.256 133.906 171.431 133.776Z" fill="#D8450B"/>
<path d="M73.7554 111.193C73.0176 111.193 72.2653 111.179 71.5058 111.142C71.2914 111.132 71.1242 110.95 71.1351 110.736C71.1424 110.522 71.3277 110.336 71.5422 110.365C73.7335 110.463 75.7832 110.42 78.0546 110.242C78.2653 110.224 78.458 110.384 78.4725 110.601C78.4907 110.816 78.3271 111.005 78.1127 111.019C76.5973 111.135 75.1727 111.193 73.7554 111.193ZM100.95 110.776C100.855 110.776 100.757 110.739 100.684 110.67C99.8305 109.872 98.802 109.352 97.5337 109.08C97.3229 109.036 97.1884 108.829 97.232 108.619C97.2756 108.408 97.4864 108.278 97.6936 108.317C99.1036 108.619 100.256 109.203 101.215 110.1C101.371 110.249 101.379 110.493 101.233 110.652C101.157 110.732 101.052 110.776 100.95 110.776ZM65.0043 110.391C64.9789 110.391 64.9571 110.391 64.9316 110.384C64.4955 110.3 64.0521 110.213 63.6088 110.115C61.8389 109.726 60.1854 109.047 58.6845 108.089C58.5028 107.973 58.4519 107.733 58.5646 107.551C58.6809 107.37 58.9207 107.315 59.1024 107.431C60.5234 108.339 62.0933 108.986 63.7723 109.352C64.2084 109.447 64.6409 109.538 65.0733 109.617C65.2841 109.657 65.4222 109.861 65.3822 110.071C65.3459 110.257 65.1824 110.387 65.0007 110.387L65.0043 110.391ZM84.5961 110.217C84.4071 110.217 84.2399 110.079 84.2108 109.886C84.1781 109.672 84.3235 109.476 84.5343 109.439C85.4428 109.298 86.3186 109.149 87.169 109.007C88.5282 108.779 89.8111 108.564 91.0249 108.397C91.2429 108.372 91.4355 108.517 91.4646 108.731C91.4937 108.946 91.3447 109.142 91.1303 109.171C89.9274 109.338 88.6518 109.552 87.2962 109.777C86.4458 109.919 85.5627 110.068 84.6542 110.213C84.6324 110.213 84.6142 110.217 84.5924 110.217H84.5961ZM54.2217 103.611C54.0982 103.611 53.9783 103.553 53.9056 103.448C52.7172 101.785 51.6706 99.8133 50.7911 97.5837C50.7111 97.384 50.8093 97.1553 51.0128 97.079C51.2127 96.9991 51.438 97.0972 51.5179 97.2969C52.3756 99.4683 53.3895 101.386 54.5415 102.998C54.6651 103.172 54.6251 103.415 54.4507 103.542C54.3816 103.59 54.3017 103.615 54.2254 103.615L54.2217 103.611ZM49.2575 91.5451C49.0794 91.5451 48.9195 91.4217 48.8759 91.2401C48.418 89.2103 48.0546 87.0171 47.7893 84.7258C47.7638 84.5116 47.9165 84.3191 48.1309 84.2937C48.3562 84.2574 48.5379 84.4208 48.5634 84.635C48.825 86.8972 49.1848 89.0614 49.6354 91.0658C49.6827 91.2764 49.5518 91.4834 49.3411 91.5306C49.312 91.5379 49.2829 91.5415 49.2538 91.5415L49.2575 91.5451ZM47.7057 78.5201C47.4949 78.5201 47.3241 78.3531 47.3168 78.1425C47.2878 77.1802 47.2769 76.2979 47.2769 75.5063C47.2769 73.0916 47.3859 71.5519 47.3859 71.5374C47.4004 71.3232 47.5894 71.1562 47.8038 71.1779C48.0182 71.1925 48.1818 71.3813 48.1636 71.5955C48.1636 71.61 48.0546 73.1242 48.0546 75.5099C48.0546 76.2906 48.0655 77.1694 48.0945 78.1207C48.1018 78.335 47.931 78.5165 47.7166 78.5201C47.713 78.5201 47.7093 78.5201 47.7057 78.5201Z" fill="#B1AAF4"/>
<path d="M92.7438 108.492C91.9698 107.275 88.8952 107.816 87.6669 107.831C87.3653 107.446 86.7111 106.625 86.0061 105.805C86.235 105.787 86.6348 105.859 86.6312 105.525C86.5294 105.082 85.9043 105.362 85.5773 105.314C85.5555 105.289 85.5337 105.267 85.5118 105.242C85.7481 105.22 86.166 105.307 86.166 104.959C86.0533 104.505 85.3992 104.802 85.0612 104.748C81.6306 101.091 84.0691 106.858 84.934 108.216C84.1054 108.346 83.3204 108.742 82.4701 108.659C81.7105 108.045 81.4089 107.747 81.8668 108.858C81.6996 109.069 81.7214 109.414 81.9249 109.592C81.6306 110.874 81.7105 110.699 82.5391 109.755C83.3568 109.646 84.1563 109.853 84.9631 109.981C84.7741 111.349 83.2223 118.154 86.0243 113.238C86.3441 113.154 87.0164 113.397 87.0673 112.936C87.02 112.573 86.5839 112.722 86.3332 112.711C86.3477 112.689 86.3586 112.664 86.3731 112.642C86.6966 112.555 87.3725 112.806 87.4271 112.341C87.3762 111.974 86.9292 112.13 86.6748 112.116C87.1254 111.317 87.5288 110.554 87.7505 110.126C88.779 109.886 92.6239 109.759 92.7475 108.488L92.7438 108.492Z" fill="#0F558B"/>
<path d="M169.715 140.079C169.69 140.079 169.661 140.079 169.635 140.072C169.599 140.065 167.128 139.557 163.959 138.921C163.748 138.877 163.61 138.674 163.654 138.464C163.697 138.253 163.901 138.111 164.111 138.159C168.128 138.967 170.125 139.491 170.101 139.731C170.09 139.84 170.032 139.941 169.944 140.007C169.875 140.058 169.795 140.083 169.712 140.083L169.715 140.079ZM157.585 137.643C157.559 137.643 157.534 137.643 157.508 137.636C154.31 137.011 152.137 136.608 151.05 136.437C150.836 136.405 150.691 136.205 150.727 135.991C150.76 135.78 150.956 135.631 151.174 135.668C152.271 135.838 154.455 136.245 157.664 136.869C157.875 136.913 158.013 137.116 157.973 137.327C157.937 137.512 157.773 137.643 157.592 137.643H157.585ZM144.538 136.111C144.538 136.111 144.527 136.111 144.523 136.111C142.081 136.023 139.385 135.896 137.902 135.577C137.691 135.53 137.557 135.323 137.604 135.112C137.651 134.901 137.858 134.771 138.069 134.814C139.501 135.123 142.288 135.254 144.556 135.333C144.77 135.341 144.941 135.522 144.93 135.737C144.923 135.947 144.749 136.114 144.542 136.114L144.538 136.111ZM141.162 131.971C141.049 131.971 140.933 131.92 140.856 131.826C140.722 131.659 140.747 131.412 140.915 131.277C142.699 129.843 144.164 128.26 145.268 126.572C145.385 126.39 145.628 126.339 145.81 126.459C145.992 126.575 146.042 126.818 145.922 127C144.774 128.757 143.255 130.402 141.405 131.891C141.333 131.949 141.245 131.978 141.162 131.978V131.971ZM106.51 129.64C106.379 129.64 106.252 129.574 106.179 129.458C105.34 128.126 104.479 126.056 103.621 123.307C103.555 123.1 103.672 122.882 103.875 122.821C104.082 122.752 104.3 122.871 104.362 123.075C105.202 125.758 106.034 127.766 106.837 129.044C106.953 129.226 106.895 129.466 106.714 129.582C106.648 129.622 106.579 129.643 106.506 129.643L106.51 129.64ZM111.594 129.324C111.496 129.324 111.402 129.288 111.325 129.215C111.169 129.066 111.162 128.819 111.311 128.663C112.612 127.298 114.153 125.355 115.486 123.638C115.617 123.467 115.864 123.434 116.035 123.569C116.206 123.699 116.235 123.946 116.104 124.113C114.76 125.849 113.204 127.81 111.878 129.2C111.801 129.28 111.7 129.32 111.594 129.32V129.324ZM148.038 121.132C148.012 121.132 147.99 121.132 147.965 121.125C147.754 121.085 147.616 120.881 147.656 120.671C147.856 119.611 147.958 118.499 147.958 117.367C147.958 116.368 147.878 115.326 147.721 114.269C147.689 114.055 147.838 113.859 148.048 113.826C148.263 113.79 148.459 113.942 148.492 114.153C148.652 115.25 148.735 116.328 148.735 117.363C148.735 118.547 148.63 119.705 148.419 120.812C148.383 121.001 148.219 121.132 148.038 121.132ZM119.815 119.066C119.731 119.066 119.644 119.037 119.575 118.982C119.404 118.848 119.375 118.605 119.509 118.434C121.236 116.241 122.584 114.632 123.761 113.376C123.91 113.22 124.154 113.209 124.314 113.358C124.47 113.507 124.481 113.75 124.332 113.91C123.173 115.148 121.835 116.738 120.124 118.917C120.047 119.015 119.931 119.066 119.818 119.066H119.815ZM102.287 117.229C102.109 117.229 101.949 117.105 101.909 116.927C101.077 113.365 100.572 110.482 100.565 110.453C100.528 110.242 100.67 110.039 100.881 110.003C101.091 109.966 101.295 110.108 101.331 110.318C101.335 110.347 101.84 113.212 102.665 116.749C102.712 116.96 102.585 117.167 102.374 117.218C102.345 117.225 102.316 117.229 102.283 117.229H102.287ZM130.583 110.496C130.252 110.496 129.907 110.467 129.558 110.406C129.485 110.395 129.409 110.387 129.333 110.387C129.118 110.387 128.944 110.209 128.947 109.995C128.947 109.781 129.122 109.607 129.336 109.607C129.456 109.607 129.572 109.618 129.685 109.636C131.822 110.003 133.326 109.077 133.981 106.872C134.042 106.665 134.257 106.546 134.468 106.611C134.675 106.673 134.791 106.891 134.729 107.094C134.079 109.287 132.603 110.493 130.579 110.493L130.583 110.496ZM146.417 108.27C146.257 108.27 146.108 108.172 146.05 108.013C145.868 107.519 145.697 107.065 145.541 106.655C145.108 105.525 144.825 104.777 144.825 104.334C144.825 103.997 144.981 103.837 145.116 103.761C145.203 103.71 145.323 103.608 145.323 103.314C145.323 102.969 145.159 102.497 144.861 101.989C144.752 101.803 144.818 101.564 145.003 101.455C145.188 101.349 145.428 101.411 145.537 101.596C145.904 102.232 146.101 102.824 146.101 103.31C146.101 103.764 145.926 104.135 145.61 104.367C145.639 104.723 145.933 105.493 146.271 106.375C146.428 106.789 146.602 107.246 146.784 107.744C146.856 107.947 146.755 108.169 146.551 108.245C146.508 108.26 146.464 108.27 146.417 108.27ZM134.446 100.87C134.42 100.87 134.391 100.87 134.366 100.863C134.155 100.819 134.021 100.612 134.064 100.402C134.482 98.4046 136.779 97.6929 138.789 97.6929C139.21 97.6929 139.632 97.7219 140.046 97.7837C140.26 97.8127 140.406 98.0124 140.377 98.2267C140.348 98.4409 140.151 98.5825 139.937 98.5571C139.559 98.5026 139.174 98.4772 138.792 98.4772C137.088 98.4772 135.154 99.0255 134.831 100.565C134.791 100.75 134.631 100.874 134.449 100.874L134.446 100.87Z" fill="#B1AAF4"/>
</g>
<defs>
<clipPath id="clip0_81_4577">
<rect width="234" height="198" fill="white"/>
</clipPath>
</defs>
</svg>
