<svg width="322" height="214" viewBox="0 0 322 214" fill="none" xmlns="http://www.w3.org/2000/svg">
<g clip-path="url(#clip0_81_4937)">
<path d="M254.447 102.902C254.447 102.902 247.884 115.794 246.773 117.747C245.663 119.704 249.005 126.823 249.005 126.823C249.005 126.823 252.059 128.941 254.731 127.455C257.403 125.973 264.947 110.032 264.947 110.032L254.447 102.902Z" fill="#FFAA94"/>
<path d="M293.855 75.3142L301.078 68.2676C301.078 68.2676 284.681 67.9573 284.765 67.9098C284.849 67.8587 285.515 61.5788 285.963 61.4912C286.407 61.4036 316.787 53.9773 321.698 59.4174C325.04 63.1196 299.265 90.9517 299.265 90.9517L293.855 75.3142Z" fill="#FFAA94"/>
<path d="M295.829 87.7278C295.829 87.7278 305.851 91.0795 308.621 97.5893C311.388 104.099 306.426 129.182 305.472 136.554C304.518 143.925 295.832 142.833 295.832 142.833V87.7278H295.829Z" fill="#2D2644"/>
<path d="M304.89 157.912H259.468C256.14 157.912 253.443 160.617 253.443 163.955V207.957C253.443 211.294 256.14 214 259.468 214H304.89C308.217 214 310.915 211.294 310.915 207.957V163.955C310.915 160.617 308.217 157.912 304.89 157.912Z" fill="#FFC673"/>
<path d="M268.106 191.55C268.172 191.933 269.57 199.21 268.394 201.601C269.508 205.431 278.034 201.411 278.005 201.313C276.192 198.76 275.872 190.911 275.872 190.911L268.106 191.55Z" fill="#FFAA94"/>
<path d="M243.479 191.966C243.479 191.966 243.861 198.187 244.687 202.017C245.292 205.653 234.283 205.496 235.426 201.221C236.762 198.191 234.756 191.648 234.756 191.648L243.479 191.966Z" fill="#FFAA94"/>
<path d="M254.677 142.213C254.677 142.213 223.016 141.603 220.981 146.327C218.945 151.052 227.664 194.547 227.664 194.547H245.23C245.23 194.547 239.296 158.679 239.845 158.168C240.395 157.657 254.68 158.04 254.68 158.04L263.05 194.547H278.704L274.12 158.168L295.377 157.912C295.377 157.912 303.397 155.871 299.324 145.02C295.25 134.169 254.68 142.213 254.68 142.213H254.677Z" fill="#408A67"/>
<path d="M261.19 146.061C258.947 146.722 256.031 147.77 254.575 149.723C253.843 150.705 253.883 151.782 253.985 152.954C254.116 154.466 254.309 155.973 254.546 157.474C254.586 157.719 254.953 157.624 254.917 157.383C254.706 156.039 254.528 154.688 254.4 153.334C254.269 151.943 254.171 150.643 255.212 149.562C256.737 147.974 259.22 147.039 261.277 146.433C261.514 146.364 261.423 145.991 261.186 146.061H261.19Z" fill="#2D2644"/>
<path d="M239.722 155.477C239.591 156.017 239.496 156.558 239.438 157.109C239.048 156.433 238.717 155.732 238.451 154.995C238.367 154.765 237.996 154.853 238.08 155.086C238.422 156.032 238.859 156.93 239.394 157.781C239.412 157.85 239.463 157.89 239.525 157.901C239.66 157.941 239.816 157.825 239.769 157.682C239.813 156.97 239.918 156.273 240.086 155.579C240.144 155.342 239.776 155.236 239.718 155.477H239.722Z" fill="#2D2644"/>
<path d="M243.992 193.167C238.775 192.992 233.555 192.948 228.334 193.036C228.09 193.039 228.079 193.423 228.327 193.419C233.547 193.331 238.768 193.375 243.985 193.55C244.232 193.558 244.236 193.174 243.992 193.167Z" fill="#2D2644"/>
<path d="M277.594 193.791C273.018 193.47 268.434 193.317 263.847 193.324C263.6 193.324 263.596 193.707 263.84 193.707C268.427 193.7 273.01 193.853 277.586 194.175C277.834 194.193 277.837 193.81 277.594 193.791Z" fill="#2D2644"/>
<path d="M275.227 155.521C274.914 156.01 274.597 156.499 274.284 156.988C274.226 156.065 274.131 155.145 273.989 154.225C273.953 153.98 273.582 154.075 273.618 154.316C273.786 155.415 273.895 156.514 273.938 157.624C273.949 157.868 274.332 157.876 274.321 157.631C274.321 157.616 274.321 157.602 274.321 157.591C274.35 157.576 274.379 157.558 274.401 157.521C274.787 156.919 275.176 156.317 275.562 155.714C275.693 155.506 275.366 155.313 275.234 155.521H275.227Z" fill="#2D2644"/>
<path d="M255.758 214C255.507 213.887 254.742 213.405 254.801 211.798C254.993 210.458 258.099 209.261 261.423 207.6C264.746 205.938 267.273 200.517 267.979 200.005C268.685 199.494 270.717 202.525 270.717 202.525C270.717 202.525 277.786 198.37 278.252 200.94C278.252 200.94 280.404 211.882 279.556 213.996H255.758V214Z" fill="#BF5452"/>
<path d="M255.758 214C255.507 213.887 254.742 213.405 254.801 211.798C254.808 211.755 254.819 211.711 254.83 211.671C256.759 212.835 262.944 213.858 270.222 210.217C274.008 208.323 277.142 207.83 279.381 207.837C279.727 210.477 279.927 213.076 279.556 214H255.754H255.758Z" fill="#F2E3DA"/>
<path d="M271.405 204.022C271.124 203.802 270.844 203.583 270.557 203.375C270.535 203.299 270.455 203.244 270.367 203.24C269.217 202.43 267.965 201.787 266.501 201.842C266.355 201.849 266.221 202.054 266.359 202.167C267.36 202.97 268.179 203.923 268.809 205.011C268.725 205.099 268.634 205.179 268.551 205.263C267.375 204.551 266.068 204.124 264.659 203.996C264.502 203.981 264.39 204.215 264.517 204.321C265.391 205.033 266.079 205.884 266.57 206.866C266.436 206.953 266.294 207.037 266.155 207.118C265.267 206.669 264.335 206.336 263.345 206.114C263.105 206.059 263.003 206.428 263.243 206.482C264.124 206.68 264.961 206.972 265.762 207.351C265.718 207.377 265.678 207.402 265.635 207.428C265.085 207.724 262.675 208.929 262.628 207.366C262.62 207.121 262.238 207.114 262.245 207.359C262.304 209.348 265.005 208.213 265.951 207.691C266.028 207.647 266.101 207.603 266.177 207.559C266.497 207.727 266.81 207.91 267.116 208.107C267.251 208.191 267.448 208.052 267.4 207.895C267.302 207.585 267.182 207.289 267.054 207.001C267.604 206.621 268.121 206.201 268.605 205.745C268.915 205.946 269.217 206.165 269.504 206.409C269.672 206.552 269.89 206.387 269.81 206.183C269.654 205.792 269.475 205.42 269.279 205.058C269.672 204.635 270.036 204.186 270.378 203.715C270.658 203.923 270.935 204.135 271.208 204.35C271.401 204.5 271.594 204.171 271.401 204.022H271.405ZM267.295 206.366C267.164 206.464 267.025 206.555 266.891 206.65C266.476 205.832 265.933 205.095 265.256 204.46C266.334 204.631 267.346 204.996 268.274 205.54C267.961 205.829 267.641 206.11 267.298 206.369L267.295 206.366ZM269.082 204.715C268.532 203.792 267.848 202.963 267.033 202.243C268.157 202.338 269.148 202.857 270.069 203.496C269.763 203.923 269.432 204.328 269.082 204.715Z" fill="#2D2644"/>
<path d="M223.238 214C222.986 213.887 222.222 213.405 222.28 211.798C222.473 210.458 225.578 209.261 228.902 207.6C232.226 205.938 234.752 200.517 235.459 200.005C236.165 199.494 238.196 202.525 238.196 202.525C238.196 202.525 245.266 198.37 245.732 200.94C245.732 200.94 247.884 211.882 247.035 213.996H223.238V214Z" fill="#BF5452"/>
<path d="M223.238 214C222.986 213.887 222.222 213.405 222.28 211.798C222.287 211.755 222.298 211.711 222.309 211.671C224.239 212.835 230.424 213.858 237.701 210.217C241.487 208.323 244.622 207.83 246.861 207.837C247.206 210.477 247.407 213.076 247.035 214H223.234H223.238Z" fill="#F2E3DA"/>
<path d="M238.888 204.022C238.611 203.802 238.327 203.583 238.04 203.375C238.018 203.299 237.938 203.244 237.85 203.24C236.7 202.43 235.448 201.787 233.984 201.842C233.839 201.849 233.704 202.054 233.842 202.167C234.843 202.97 235.663 203.923 236.292 205.011C236.209 205.099 236.118 205.179 236.034 205.263C234.858 204.551 233.551 204.124 232.142 203.996C231.986 203.981 231.873 204.215 232 204.321C232.874 205.033 233.562 205.884 234.053 206.866C233.919 206.953 233.777 207.037 233.638 207.118C232.75 206.669 231.818 206.336 230.828 206.114C230.588 206.059 230.482 206.428 230.726 206.482C231.607 206.68 232.444 206.972 233.245 207.351C233.202 207.377 233.162 207.402 233.114 207.428C232.565 207.724 230.155 208.929 230.107 207.366C230.1 207.121 229.718 207.114 229.725 207.359C229.783 209.348 232.484 208.213 233.431 207.691C233.507 207.647 233.58 207.603 233.657 207.559C233.977 207.727 234.29 207.91 234.596 208.107C234.731 208.191 234.927 208.052 234.88 207.895C234.782 207.585 234.661 207.289 234.534 207.001C235.084 206.621 235.601 206.201 236.085 205.745C236.394 205.946 236.696 206.165 236.984 206.409C237.152 206.552 237.37 206.387 237.29 206.183C237.133 205.792 236.955 205.42 236.758 205.058C237.152 204.635 237.519 204.186 237.858 203.715C238.138 203.923 238.415 204.135 238.688 204.35C238.881 204.5 239.074 204.171 238.881 204.022H238.888ZM234.774 206.366C234.643 206.464 234.505 206.555 234.37 206.65C233.955 205.832 233.413 205.095 232.736 204.46C233.813 204.631 234.825 204.996 235.754 205.54C235.441 205.829 235.12 206.11 234.778 206.369L234.774 206.366ZM236.565 204.715C236.016 203.792 235.331 202.963 234.519 202.243C235.644 202.338 236.635 202.857 237.556 203.496C237.25 203.923 236.919 204.328 236.569 204.715H236.565Z" fill="#2D2644"/>
<path d="M298.861 206.366C298.879 202.174 298.887 197.983 298.883 193.791C298.876 185.408 298.825 177.026 298.727 168.643C298.701 166.357 298.668 164.072 298.636 161.786C298.621 160.771 298.69 159.019 297.358 158.814C297.117 158.778 297.012 159.146 297.256 159.183C298.111 159.314 298.206 160.329 298.242 161.019C298.293 161.969 298.271 162.929 298.282 163.878C298.308 165.718 298.33 167.562 298.352 169.402C298.395 173.086 298.428 176.77 298.45 180.45C298.497 187.818 298.512 195.182 298.49 202.55C298.483 204.584 298.479 206.614 298.464 208.647C298.453 210.119 298.424 212.339 296.732 212.883C296.499 212.959 296.586 213.332 296.823 213.255C299.422 212.419 298.85 208.417 298.858 206.369L298.861 206.366Z" fill="#2D2644"/>
<path d="M306.128 160.873C306.015 159.88 305.592 158.664 304.424 158.664C304.176 158.664 304.173 159.048 304.417 159.048C306.146 159.048 305.793 162.22 305.804 163.294C305.825 165.079 305.836 166.865 305.844 168.654C305.855 172.224 305.844 175.799 305.811 179.37C305.749 186.496 305.625 193.62 305.501 200.747C305.432 204.799 305.538 208.91 304.93 212.93C304.893 213.171 305.261 213.277 305.298 213.032C305.858 209.334 305.8 205.573 305.865 201.845C305.931 197.994 306 194.138 306.058 190.286C306.179 182.44 306.262 174.594 306.215 166.748C306.204 164.816 306.346 162.794 306.128 160.877V160.873Z" fill="#2D2644"/>
<path d="M272.613 82.1744C272.613 82.1744 262.992 87.1544 259.937 87.9175C256.883 88.6842 254.305 100.791 251.823 104.311C252.776 106.68 259.555 110.032 259.555 110.032C259.555 110.032 259.366 116.735 262.802 121.423C266.239 126.115 256.61 138.788 258.696 142.486C260.785 146.181 291.009 138.499 298.909 144.18C298.887 122 297.576 99.5023 297.755 97.9689C297.933 96.4354 304.136 90.8858 304.806 90.309C304.424 86.8623 296.404 72.3092 295.832 72.1193C295.261 71.9295 290.455 75.9164 284.503 78.5671C278.555 81.2141 272.617 82.1744 272.617 82.1744H272.613Z" fill="#FFEFE6"/>
<path d="M256.821 100.364C254.364 100.364 254.291 104.194 256.755 104.194C259.22 104.194 259.286 100.364 256.821 100.364Z" fill="white"/>
<path d="M263.316 90.4186L263.221 90.3236C262.871 89.9731 262.38 89.7468 261.881 89.7395C261.412 89.7322 260.847 89.9293 260.523 90.2762C260.185 90.6376 259.926 91.1086 259.941 91.6198C259.952 92.1236 260.112 92.6201 260.476 92.9816C260.509 93.0145 260.538 93.0437 260.571 93.0765C260.92 93.427 261.412 93.6534 261.91 93.6607C262.38 93.668 262.944 93.4708 263.268 93.124C263.607 92.7625 263.865 92.2916 263.851 91.7804C263.84 91.2766 263.68 90.78 263.316 90.4186Z" fill="white"/>
<path d="M272.617 99.7688C272.606 99.495 272.537 99.2211 272.395 98.9838C272.144 98.5639 271.732 98.1514 271.234 98.0565C270.975 98.009 270.749 97.9798 270.487 98.009C270.058 98.0565 269.694 98.2317 269.37 98.5201C269.017 98.8305 268.758 99.4183 268.769 99.9002C268.784 100.43 268.958 100.893 269.315 101.295C269.523 101.529 269.872 101.729 270.178 101.817C270.506 101.908 270.837 101.886 271.168 101.832C271.634 101.755 272.126 101.342 272.359 100.944C272.551 100.62 272.653 100.17 272.613 99.7725L272.617 99.7688Z" fill="white"/>
<path d="M268.085 108.309C265.627 108.309 265.555 112.139 268.019 112.139C270.484 112.139 270.549 108.309 268.085 108.309Z" fill="white"/>
<path d="M278.11 88.5966C277.746 88.2498 277.284 88.0125 276.771 88.0125H276.483C275.988 88.0125 275.482 88.2023 275.125 88.5492C274.787 88.8741 274.532 89.4145 274.543 89.8928C274.554 90.3893 274.71 90.9041 275.078 91.2546C275.442 91.6015 275.904 91.8388 276.418 91.8388H276.705C277.2 91.8388 277.706 91.6489 278.063 91.3021C278.402 90.9771 278.657 90.4368 278.646 89.9585C278.635 89.4619 278.478 88.9471 278.11 88.5966Z" fill="white"/>
<path d="M295.486 80.3817C295.403 80.0458 295.243 79.7537 295.006 79.5055C294.656 79.071 294.019 78.8337 293.481 78.8264C292.949 78.8191 292.279 79.0272 291.933 79.458C291.737 79.6332 291.598 79.845 291.518 80.0896C291.402 80.3087 291.347 80.546 291.351 80.8016C291.344 81.2726 291.54 81.8385 291.886 82.1634C292.246 82.503 292.716 82.7622 293.226 82.7476C293.291 82.7476 293.357 82.7403 293.422 82.733C293.484 82.7403 293.542 82.744 293.597 82.7476C294.067 82.7549 294.631 82.5577 294.955 82.2109C295.294 81.8494 295.552 81.3785 295.537 80.8673C295.519 80.7067 295.501 80.5424 295.483 80.3817H295.486Z" fill="white"/>
<path d="M301.599 87.556C301.461 87.0741 301.169 86.6031 300.714 86.3621C300.277 86.1285 299.782 86.0262 299.291 86.1504C299.163 86.1832 299.036 86.2124 298.909 86.2453C298.424 86.3658 297.969 86.7017 297.718 87.1325C297.485 87.5305 297.376 88.111 297.507 88.5601C297.645 89.042 297.937 89.513 298.392 89.754C298.828 89.9876 299.324 90.0899 299.815 89.9657C299.942 89.9329 300.07 89.9037 300.197 89.8708C300.681 89.7503 301.136 89.4144 301.388 88.9836C301.621 88.5856 301.73 88.0051 301.599 87.556Z" fill="white"/>
<path d="M286.607 101.138C286.283 100.798 285.745 100.543 285.268 100.554C284.773 100.565 284.259 100.722 283.91 101.091C283.564 101.456 283.327 101.919 283.327 102.434V102.529C283.327 103.026 283.517 103.533 283.862 103.891C284.186 104.23 284.725 104.486 285.202 104.475C285.697 104.464 286.211 104.307 286.56 103.938C286.906 103.573 287.142 103.11 287.142 102.595V102.5C287.142 102.003 286.953 101.496 286.607 101.138Z" fill="white"/>
<path d="M295.388 107.747C295.024 107.4 294.562 107.162 294.049 107.162H293.954C293.459 107.162 292.953 107.352 292.596 107.699C292.257 108.024 292.003 108.564 292.014 109.043C292.024 109.539 292.181 110.054 292.549 110.405C292.913 110.751 293.375 110.989 293.888 110.989H293.983C294.478 110.989 294.984 110.799 295.341 110.452C295.679 110.127 295.934 109.587 295.923 109.108C295.912 108.612 295.756 108.097 295.388 107.747Z" fill="white"/>
<path d="M279.163 120.766C278.798 120.419 278.336 120.182 277.823 120.182H277.728C277.233 120.182 276.727 120.372 276.37 120.719C276.032 121.044 275.777 121.584 275.788 122.062C275.799 122.559 275.955 123.074 276.323 123.424C276.687 123.771 277.149 124.008 277.663 124.008H277.757C278.252 124.008 278.758 123.818 279.115 123.471C279.454 123.147 279.709 122.606 279.698 122.128C279.687 121.631 279.53 121.117 279.163 120.766Z" fill="white"/>
<path d="M267.702 133.392C265.245 133.392 265.172 137.222 267.637 137.222C270.101 137.222 270.167 133.392 267.702 133.392Z" fill="white"/>
<path d="M286.513 134.837C286.149 134.49 285.686 134.253 285.173 134.253H285.078C284.583 134.253 284.077 134.443 283.721 134.79C283.382 135.115 283.127 135.655 283.138 136.133C283.149 136.63 283.305 137.145 283.673 137.495C284.037 137.842 284.5 138.079 285.013 138.079H285.108C285.603 138.079 286.109 137.89 286.465 137.543C286.804 137.218 287.059 136.677 287.048 136.199C287.037 135.703 286.88 135.188 286.513 134.837Z" fill="white"/>
<path d="M297.776 128.233C297.416 127.893 296.946 127.634 296.437 127.649C295.934 127.659 295.439 127.82 295.079 128.185L294.791 128.474C294.442 128.824 294.216 129.317 294.209 129.817C294.201 130.288 294.398 130.854 294.744 131.179C295.104 131.519 295.574 131.778 296.084 131.763C296.586 131.752 297.081 131.592 297.441 131.227L297.729 130.938C298.079 130.588 298.304 130.095 298.312 129.595C298.319 129.124 298.122 128.558 297.776 128.233Z" fill="white"/>
<path d="M269.235 121.628C268.871 121.281 268.409 121.044 267.895 121.044H267.801C267.306 121.044 266.8 121.234 266.443 121.58C266.104 121.905 265.849 122.446 265.86 122.924C265.871 123.421 266.028 123.935 266.395 124.286C266.76 124.633 267.222 124.87 267.735 124.87H267.83C268.325 124.87 268.831 124.68 269.188 124.333C269.526 124.008 269.781 123.468 269.77 122.99C269.759 122.493 269.603 121.978 269.235 121.628Z" fill="white"/>
<path d="M282.119 110.609C279.661 110.609 279.588 114.439 282.053 114.439C284.518 114.439 284.583 110.609 282.119 110.609Z" fill="white"/>
<path d="M272.409 49.0154C272.409 49.0154 268.911 50.0377 268.019 56.0364C267.127 62.0351 263.374 67.7161 264.644 70.5895C265.918 73.4629 270.116 73.525 270.691 74.5473C271.263 75.5696 272.664 80.4182 272.409 81.2506C272.155 82.2729 269.1 85.2705 273.236 85.2084C277.371 85.1463 284.055 80.1663 284.499 78.5708C284.499 78.5708 284.117 78.5379 283.673 78.1253C283.229 77.7091 283.083 75.6207 283.083 75.6207L284.037 70.8816C284.037 70.8816 290.575 65.9016 288.475 60.016C286.374 54.1269 281.059 47.46 272.406 49.0227L272.409 49.0154Z" fill="#FFAA94"/>
<path d="M272.3 46.6386C272.3 46.6386 269.963 48.1392 273.971 51.6333C276.902 54.189 281.369 52.7834 283.946 55.4158C286.524 58.0482 280.797 60.3958 282.705 65.4197C283.469 63.6489 285.664 62.7398 286.094 64.9414C286.524 67.143 284.9 69.633 282.799 68.8189C281.416 71.214 282.705 75.6646 283.087 75.6171C283.611 75.1863 286.811 69.874 290.725 65.7556C294.638 61.6372 292.731 57.475 289.436 56.5659C286.287 49.2893 276.691 44.0537 272.3 46.6386Z" fill="#2D2644"/>
<path d="M267.91 65.4453C267.91 65.4453 271.274 65.6534 273.709 66.997C271.729 69.3227 267.742 68.2457 267.91 65.4453Z" fill="white"/>
<path d="M268.43 59.107C268.412 58.9025 268.277 58.72 268.055 58.7163C267.866 58.7163 267.648 58.8843 267.666 59.0924C267.684 59.2676 267.688 59.4465 267.659 59.6218C267.626 59.8262 267.71 60.0343 267.924 60.0928C268.106 60.1439 268.361 60.0343 268.394 59.8262C268.434 59.5853 268.452 59.3479 268.43 59.1033V59.107Z" fill="#2D2644"/>
<path d="M270.353 54.7366C269.708 54.408 269.013 54.2619 268.292 54.3386C267.808 54.3897 267.79 55.1564 268.277 55.1053C268.867 55.0433 269.432 55.1272 269.963 55.3974C270.4 55.6201 270.793 54.9629 270.353 54.7366Z" fill="#2D2644"/>
<path d="M279.476 56.5003C278.329 55.8285 277.069 55.4889 275.744 55.4962C275.253 55.4999 275.238 56.2666 275.73 56.2629C276.935 56.2556 278.049 56.5514 279.086 57.1611C279.508 57.4094 279.902 56.7522 279.476 56.5003Z" fill="#2D2644"/>
<path d="M276.876 60.4871C276.858 60.2826 276.723 60.1001 276.501 60.0964C276.312 60.0964 276.094 60.2644 276.112 60.4725C276.13 60.6477 276.134 60.8266 276.105 61.0019C276.072 61.2064 276.155 61.4145 276.37 61.4729C276.552 61.524 276.807 61.4145 276.84 61.2064C276.88 60.9654 276.898 60.7281 276.876 60.4834V60.4871Z" fill="#2D2644"/>
<path d="M271.172 57.727C270.342 58.5558 269.082 59.673 268.831 60.8852C268.583 62.1046 269.457 63.1671 270.2 64.0178C270.36 64.204 270.636 63.9375 270.473 63.7512C269.617 62.7728 268.74 61.63 269.479 60.2937C269.952 59.4393 270.749 58.6872 271.434 58.0008C271.608 57.8256 271.343 57.5517 271.168 57.727H271.172Z" fill="#D96A6A"/>
<path d="M281.602 68.9395C280.302 70.7942 278.005 73.0323 275.595 73.098C275.351 73.1053 275.34 73.4887 275.588 73.4814C278.15 73.412 280.542 71.1118 281.929 69.1366C282.071 68.9358 281.74 68.7423 281.602 68.9431V68.9395Z" fill="#D96A6A"/>
<path d="M284.055 65.2882C283.327 65.8943 283.014 66.8399 283.229 67.7636C283.284 68.0046 283.655 67.9133 283.6 67.6723C283.415 66.8728 283.691 66.0841 284.321 65.562C284.51 65.405 284.245 65.1312 284.055 65.2882Z" fill="#D96A6A"/>
<path d="M274.492 77.7276C273.902 77.2128 273.396 76.6249 272.977 75.9604C272.846 75.7523 272.511 75.9349 272.642 76.143C273.076 76.8331 273.6 77.4537 274.215 77.9904C274.401 78.1511 274.674 77.8882 274.488 77.7239L274.492 77.7276Z" fill="#D96A6A"/>
<path d="M284.503 78.5672C284.503 78.5672 281.449 117.013 298.665 126.59C299.458 127.455 300.478 125.637 300.478 125.637C300.478 125.637 292.683 118.36 291.442 111.755C292.873 103.811 287.74 76.9571 287.74 76.9571C287.74 76.9571 286.4 76.5884 284.507 78.5672H284.503Z" fill="#2D2644"/>
<path d="M259.555 110.032C259.555 110.032 259.002 95.9062 265.482 85.6722C265.027 85.0771 262.227 86.815 261.94 87.2239C257.833 94.3325 255.161 107.641 259.551 110.032H259.555Z" fill="#2D2644"/>
<path d="M241.128 112.585L245.367 109.272C246.136 108.67 247.25 108.809 247.85 109.581L256.629 120.878C257.228 121.65 257.09 122.767 256.321 123.369L252.082 126.681C251.313 127.283 250.199 127.144 249.599 126.372L240.82 115.075C240.221 114.303 240.359 113.186 241.128 112.585Z" fill="#2D2644"/>
<path d="M248.288 127.075C248.229 126.999 244.633 124.552 243.708 122.544C242.783 120.536 243.104 118.013 245.044 115.94C246.984 113.866 248.098 112.142 248.513 112.683C248.928 113.227 248.226 115.14 248.226 115.14C248.226 115.14 250.487 111.821 250.516 113.577C250.548 115.333 249.817 117.407 249.817 117.407C249.817 117.407 250.487 115.717 251.186 116.451C251.885 117.185 250.803 120.631 250.803 121.015C250.803 121.398 251.662 118.718 252.205 119.547C252.747 120.376 252.267 123.311 251.218 125.867C250.17 128.419 248.892 127.853 248.288 127.079V127.075Z" fill="#FFAA94"/>
<path d="M247.931 114.91C247.192 116.067 246.544 117.276 245.991 118.535C245.892 118.758 246.22 118.955 246.318 118.729C246.872 117.469 247.516 116.261 248.255 115.103C248.386 114.895 248.058 114.702 247.927 114.91H247.931Z" fill="#D96A6A"/>
<path d="M249.475 117.411C248.67 118.652 248.051 119.981 247.618 121.394C247.545 121.631 247.913 121.734 247.986 121.496C248.412 120.113 249.016 118.82 249.806 117.604C249.941 117.396 249.609 117.203 249.478 117.411H249.475Z" fill="#D96A6A"/>
<path d="M250.261 121.409C249.886 122.238 249.569 123.085 249.307 123.954C249.234 124.191 249.602 124.293 249.675 124.056C249.926 123.216 250.232 122.402 250.592 121.602C250.69 121.38 250.366 121.183 250.265 121.409H250.261Z" fill="#D96A6A"/>
<path d="M309.753 68.567C307.114 67.8843 304.318 68.2019 301.628 68.3041C301.384 68.3151 301.377 68.6948 301.621 68.6875C304.275 68.5853 307.045 68.264 309.648 68.9358C309.884 68.9979 309.99 68.6291 309.75 68.567H309.753Z" fill="#D96A6A"/>
<path d="M281.991 128.025C276.982 124.677 271.598 121.949 265.94 119.89C265.711 119.806 265.605 120.175 265.838 120.259C271.463 122.307 276.818 125.027 281.798 128.357C282.002 128.492 282.199 128.163 281.991 128.028V128.025Z" fill="#2D2644"/>
<path d="M275.049 128.127C273.218 126.677 271.452 125.151 269.752 123.552C269.574 123.384 269.297 123.651 269.479 123.819C271.204 125.443 272.996 126.988 274.856 128.459C275.049 128.612 275.242 128.28 275.049 128.13V128.127Z" fill="#2D2644"/>
<path d="M297.361 96.7787L294.001 95.0992C293.783 94.9897 293.586 95.3183 293.808 95.4278C294.929 95.9864 296.051 96.5487 297.168 97.1073C297.387 97.2168 297.583 96.8882 297.361 96.7787Z" fill="#2D2644"/>
<path d="M257.655 118.072C255.911 116.053 253.799 114.435 251.397 113.278C251.178 113.172 250.982 113.501 251.204 113.606C253.577 114.749 255.656 116.341 257.382 118.335C257.542 118.521 257.815 118.254 257.655 118.068V118.072Z" fill="#D96A6A"/>
<path d="M296.142 146.28C294.558 146.488 293.055 145.743 292.239 144.374C292.112 144.162 291.777 144.345 291.904 144.556C292.771 146.01 294.311 146.798 295.974 146.678C295.912 147.284 295.945 147.591 295.246 147.737C294.766 147.835 294.227 147.802 293.739 147.831C292.483 147.912 291.223 147.992 289.968 148.072C287.579 148.226 285.191 148.379 282.803 148.533C280.415 148.686 278.027 148.839 275.639 148.993C274.506 149.066 273.374 149.139 272.246 149.208C271.496 149.255 270.575 149.208 269.919 149.642C269.446 149.956 269.279 150.442 269.25 150.986C269.188 152.1 269.424 153.297 269.526 154.411C269.745 156.795 269.978 159.179 270.225 161.563C270.706 166.156 271.245 170.742 271.845 175.32C272.548 180.695 273.334 186.058 274.197 191.411C274.237 191.655 274.608 191.56 274.568 191.319C273.181 182.732 271.998 174.112 271.03 165.47C270.531 161.037 270.09 156.601 269.705 152.158C269.654 151.563 269.584 151.121 269.792 150.548C270.076 149.759 270.746 149.697 271.485 149.639C272.613 149.548 273.749 149.493 274.878 149.42C277.015 149.285 279.152 149.146 281.289 149.011C286.192 148.697 291.092 148.383 295.996 148.069C296.109 148.062 296.175 147.992 296.189 147.879C296.255 147.408 296.316 146.937 296.382 146.466C296.4 146.331 296.255 146.262 296.145 146.276L296.142 146.28Z" fill="#2D2644"/>
<path d="M253.261 149.599C246.569 149.81 239.875 149.588 233.212 148.941C233.114 148.931 233.012 149.033 233.02 149.131C233.759 162.87 238.837 176.054 238.666 189.877C238.666 190.126 239.045 190.129 239.048 189.885C239.143 182.203 237.614 174.66 236.103 167.164C235.335 163.352 234.574 159.533 234.043 155.678C233.897 154.63 233.769 153.578 233.664 152.527C233.624 152.111 233.584 151.694 233.547 151.278C233.518 150.939 233.242 149.759 233.424 149.493C233.675 149.12 235.586 149.54 236.041 149.577C237.111 149.661 238.182 149.737 239.252 149.799C243.915 150.073 248.59 150.128 253.261 149.982C253.504 149.975 253.512 149.591 253.268 149.599H253.261Z" fill="#2D2644"/>
<path d="M286.4 167.912H282.17C280.837 167.912 279.756 166.828 279.756 165.492C279.756 164.155 280.837 163.071 282.17 163.071H286.4C287.732 163.071 288.813 164.155 288.813 165.492C288.813 166.828 287.732 167.912 286.4 167.912Z" fill="#BF5452"/>
<path d="M288.195 176.792L285.264 175.51C284.467 175.16 284.103 174.229 284.449 173.429C284.798 172.63 285.726 172.264 286.524 172.611L289.454 173.893C290.251 174.243 290.616 175.174 290.27 175.974C289.924 176.774 288.992 177.139 288.195 176.792Z" fill="#E69367"/>
<path d="M263.319 201.225H261.179C259.883 201.225 258.831 200.17 258.831 198.87C258.831 197.57 259.883 196.515 261.179 196.515H263.319C264.615 196.515 265.667 197.57 265.667 198.87C265.667 200.17 264.615 201.225 263.319 201.225Z" fill="#FFEFE6"/>
<path d="M306.251 193.499C305.727 193.499 305.298 193.068 305.298 192.542V179.534C305.298 179.008 305.727 178.577 306.251 178.577C306.776 178.577 307.205 179.008 307.205 179.534V192.542C307.205 193.068 306.776 193.499 306.251 193.499Z" fill="#2D2644"/>
<path d="M58.9575 48.0774C58.9575 48.0774 61.2255 47.9459 62.2558 45.9926C63.286 44.0429 59.3252 44.4409 59.3252 44.4409L58.9612 48.0737L58.9575 48.0774Z" fill="#FFAA94"/>
<path d="M72.6165 46.3212H60.2062C59.8458 46.3212 59.5654 46.0255 59.5764 45.6603L59.7766 39.5229C59.7875 39.1578 60.0897 38.8621 60.4501 38.8621H72.8605C73.2209 38.8621 73.5048 39.1578 73.4903 39.5229L73.29 45.6603C73.2791 46.0255 72.9769 46.3212 72.6165 46.3212Z" fill="#2D2644"/>
<path d="M71.6154 45.8356H60.6394C60.279 45.8356 59.995 45.5399 60.0096 45.1747L60.1807 40.0048C60.1916 39.6397 60.4938 39.344 60.8542 39.344H71.8302C72.1906 39.344 72.4746 39.6397 72.46 40.0048L72.2889 45.1747C72.278 45.5399 71.9758 45.8356 71.6154 45.8356Z" fill="white"/>
<path d="M60.6357 45.8356L62.6635 39.344H67.0903C67.0903 39.344 65.4921 42.9074 66.071 43.0754C66.6498 43.2433 68.5574 40.4831 69.9772 40.8227C71.397 41.1622 68.9287 45.8356 68.9287 45.8356H60.6357Z" fill="#DAE9F2"/>
<path d="M64.2471 54.317C64.4145 54.0907 67.7929 49.9868 68.0332 48.5337C68.2734 47.0806 67.7201 43.4953 68.4373 42.075C69.1544 40.6547 74.171 38.9424 74.5132 39.2637C74.8518 39.585 74.5897 45.6275 73.7778 48.1139C72.966 50.6002 71.8557 50.4396 70.5524 52.3126C69.2491 54.1856 66.5551 60.71 66.6207 60.6151C66.6862 60.5202 64.2507 54.317 64.2507 54.317H64.2471Z" fill="#FFAA94"/>
<path d="M54.6362 48.3438C54.6362 48.3438 56.147 46.6497 56.7732 45.799C57.3993 44.9483 58.5315 41.6331 59.0266 41.122C59.5217 40.6145 60.8978 41.509 63.0894 40.2749C64.1306 39.8404 63.2023 41.2424 61.5058 41.9946C59.8093 42.7467 60.9452 44.5613 59.6382 45.799C60.2826 47.2302 60.6503 48.0042 58.9575 48.0772C56.6458 50.4285 55.4735 53.3348 55.4735 53.3348L54.6362 48.3438Z" fill="#FFAA94"/>
<path d="M45.87 53.868C45.9646 53.868 53.5114 48.8295 54.6581 47.8583C55.8049 46.8908 57.0208 51.5423 56.391 53.2546C55.7612 54.967 51.5054 61.5571 51.5054 61.5571L45.87 53.868Z" fill="#F2E3DA"/>
<path d="M10.5173 184.529C10.5173 184.529 12.0099 196.274 10.6957 200.389C14.8677 206.074 17.8238 203.328 17.2886 200.195C16.1164 196.19 17.2559 184.755 17.2559 184.755L10.5173 184.529Z" fill="#FFAA94"/>
<path d="M46.2886 185.401C46.2777 185.723 45.7061 199.082 48.786 203.259C45.0763 206.851 41.4541 200.907 41.4541 200.907C42.164 196.774 38.4689 183.269 38.4689 183.269L46.2886 185.401Z" fill="#FFAA94"/>
<path d="M4.03732 111.62C4.03732 111.62 1.83847 123.348 4.78726 135.265C7.73604 147.185 5.56996 169.57 9.65821 187.497H25.5999C25.5999 187.497 26.1932 152.03 26.8631 149.026C29.233 166.952 36.7688 187.402 36.4812 187.497C36.19 187.595 52.4229 187.497 52.4229 187.497C52.4229 187.497 47.3881 114.14 45.8773 107.838C44.3665 101.54 4.03732 111.617 4.03732 111.617V111.62Z" fill="#B863A6"/>
<path d="M25.5962 187.501C25.5962 187.501 25.5962 187.366 25.6035 187.114C25.3305 187.242 25.0538 187.369 24.7808 187.501H25.5962Z" fill="#C76CB2"/>
<path d="M50.1003 155.17C49.343 155.481 48.5858 155.791 47.8322 156.105C46.6272 152.29 45.3858 148.489 44.1481 144.696C45.8009 143.867 47.4573 143.045 49.1173 142.227C49.0955 141.954 49.0736 141.683 49.0554 141.41C47.3371 142.257 45.6225 143.107 43.9115 143.965C43.4564 142.567 42.9977 141.169 42.5463 139.774C42.0621 138.288 41.5816 136.798 41.1046 135.312C43.5074 134.184 45.9028 133.041 48.2982 131.899C48.2764 131.625 48.2545 131.355 48.2327 131.084C45.779 132.253 43.3253 133.421 40.868 134.578C39.8596 131.446 38.8476 128.31 37.8282 125.177C40.413 123.749 42.9831 122.304 45.5569 120.854C46.3506 123.092 47.1442 125.327 47.9378 127.565C47.8504 126.532 47.7631 125.524 47.6793 124.542C47.1988 123.183 46.7146 121.829 46.2341 120.471C46.5763 120.277 46.9221 120.084 47.2643 119.89C47.2388 119.609 47.2134 119.332 47.1879 119.061C46.7838 119.288 46.3797 119.518 45.9756 119.744C45.6844 118.919 45.3895 118.094 45.0982 117.269C44.4648 115.491 43.835 113.709 43.2016 111.931C44.2318 111.434 45.2584 110.941 46.2887 110.449C46.2523 110.167 46.2195 109.905 46.1831 109.656C45.1019 110.171 44.0207 110.69 42.9431 111.212C42.306 109.415 41.6689 107.623 41.0318 105.826C40.7624 105.808 40.4894 105.797 40.2018 105.786C40.8826 107.707 41.567 109.627 42.2478 111.548C39.6776 112.793 37.111 114.045 34.5409 115.297C33.5834 112.489 32.6041 109.693 31.5921 106.907C32.2037 106.64 32.8153 106.381 33.4269 106.118C32.5095 106.21 31.563 106.319 30.6019 106.443C30.6092 106.462 30.6164 106.48 30.6237 106.498C28.3557 107.48 26.0877 108.466 23.8197 109.452C23.6267 108.824 23.4301 108.199 23.2372 107.572C22.9787 107.615 22.7239 107.663 22.4691 107.707C22.6802 108.393 22.895 109.079 23.1025 109.766C20.1173 111.069 17.1321 112.373 14.1506 113.683C13.6263 112.347 13.1094 111.007 12.6252 109.656C12.3813 109.707 12.1374 109.762 11.9008 109.813C12.4031 111.212 12.9383 112.595 13.4807 113.979C10.2225 115.414 6.96064 116.845 3.70605 118.291C3.60048 117.988 3.4949 117.685 3.39297 117.382C3.35293 118.021 3.31652 118.707 3.29468 119.423C3.4403 119.817 3.58592 120.212 3.73518 120.602C4.64529 122.979 5.60274 125.338 6.57839 127.685C5.60274 128.047 4.61981 128.394 3.63688 128.737C3.66601 128.996 3.69877 129.255 3.73153 129.514C4.78363 129.149 5.82845 128.777 6.87326 128.39C8.19112 131.552 9.53809 134.699 10.8523 137.857C9.13036 138.649 7.40841 139.434 5.67919 140.216C5.71195 140.475 5.74108 140.745 5.77384 141.012C7.56495 140.201 9.35607 139.387 11.1435 138.562C12.2102 141.125 13.2732 143.684 14.3399 146.247C12.1665 147.12 9.99315 147.978 7.80887 148.825C7.24823 147.438 6.68396 146.05 6.12333 144.666C6.18521 145.473 6.24346 146.298 6.29079 147.138C6.55654 147.792 6.8223 148.449 7.08805 149.106C6.86234 149.194 6.63663 149.278 6.41456 149.365C6.42913 149.632 6.44005 149.898 6.45097 150.169C6.76041 150.048 7.06621 149.935 7.37565 149.814C8.73719 153.173 10.0987 156.532 11.4603 159.888C9.94583 160.578 8.42411 161.26 6.90239 161.932C6.91331 162.206 6.92423 162.476 6.93515 162.75C8.54424 162.045 10.1497 161.326 11.7479 160.596C13.0512 163.802 14.3581 167.007 15.6759 170.206C13.63 171.104 11.584 171.998 9.53081 172.882C8.72991 170.75 7.91808 168.625 7.1099 166.496C7.15358 167.35 7.20455 168.208 7.25915 169.066C7.77974 170.439 8.30397 171.812 8.82092 173.188C8.41683 173.36 8.01273 173.532 7.60864 173.703C7.63048 173.97 7.65597 174.233 7.68145 174.496C8.15107 174.295 8.62069 174.101 9.09031 173.9C10.3572 177.27 11.6132 180.644 12.8691 184.021C11.6678 184.558 10.4591 185.073 9.24321 185.569C9.29418 185.821 9.34515 186.069 9.39975 186.318C10.6521 185.807 11.8935 185.274 13.1312 184.722C13.4734 185.65 13.8156 186.577 14.1579 187.504H14.977C14.5984 186.475 14.2197 185.441 13.8339 184.412C16.0145 183.422 18.1769 182.378 20.3285 181.312C21.2131 183.382 22.1123 185.445 23.0151 187.508H23.8597C22.9023 185.336 21.9558 183.156 21.0201 180.969C22.6074 180.177 24.1874 179.373 25.7637 178.57C25.771 178.289 25.7746 178.008 25.7819 177.719C24.1 178.577 22.4144 179.435 20.7216 180.283C19.3528 177.066 18.0022 173.838 16.6661 170.604C18.8613 169.636 21.0529 168.661 23.2481 167.686C24.1182 169.782 24.9919 171.878 25.862 173.973C25.8765 173.353 25.8911 172.725 25.9057 172.09C25.2504 170.52 24.5951 168.946 23.9434 167.376C24.6461 167.062 25.3487 166.752 26.0476 166.441C26.0549 166.16 26.0622 165.879 26.0695 165.602C25.2613 165.959 24.4568 166.321 23.6486 166.679C22.2943 163.426 20.9401 160.172 19.5858 156.919C21.8975 155.809 24.1983 154.681 26.4954 153.546C26.51 153.243 26.5245 152.951 26.5391 152.673C24.1291 153.867 21.7118 155.05 19.2909 156.215C17.9694 153.038 16.6443 149.858 15.3228 146.678C18.1333 145.546 20.9328 144.389 23.7214 143.199C24.6715 146.116 25.6217 149.037 26.5792 151.95C26.6301 151.121 26.6811 150.431 26.7321 149.913C25.9639 147.573 25.1958 145.232 24.4349 142.892C26.9214 141.826 29.4005 140.734 31.8651 139.606C32.7643 142.622 33.6781 145.634 34.6137 148.639C32.2401 149.833 29.8629 151.023 27.4856 152.206C27.3801 151.888 27.2781 151.567 27.1726 151.249C27.4347 152.969 27.7405 154.703 28.0754 156.43C28.8836 158.829 29.699 161.228 30.54 163.615C30.267 163.736 29.9976 163.856 29.7245 163.977C29.7864 164.229 29.8447 164.481 29.9065 164.729C30.2014 164.598 30.4963 164.466 30.7948 164.335C31.8833 167.405 33.0119 170.457 34.1987 173.488C33.6271 173.769 33.0556 174.054 32.484 174.339C32.5568 174.587 32.626 174.831 32.6988 175.076C33.041 174.904 33.3832 174.733 33.729 174.565C33.9802 174.444 34.2314 174.324 34.479 174.203C34.4863 174.225 34.4972 174.247 34.5045 174.266C35.491 176.763 36.5177 179.242 37.5916 181.699C36.747 182.064 35.9024 182.437 35.0578 182.809C35.1379 183.061 35.2144 183.306 35.2908 183.539C36.1572 183.156 37.0273 182.776 37.8974 182.396C38.6619 184.131 39.4592 185.847 40.2783 187.552C40.5586 187.552 40.8498 187.552 41.1447 187.552C40.2746 185.741 39.4337 183.919 38.6218 182.082C39.066 181.889 39.5101 181.695 39.9543 181.502C41.8182 180.706 43.6894 179.928 45.5679 179.162C46.7619 181.977 48.0179 184.766 49.3285 187.526C49.6343 187.526 49.9219 187.526 50.1913 187.523C48.8297 184.664 47.5301 181.779 46.296 178.862C48.0798 178.136 49.8673 177.427 51.662 176.73C51.6438 176.467 51.6256 176.201 51.6038 175.93C49.7289 176.661 47.8614 177.402 45.9974 178.161C44.9017 175.543 43.8532 172.907 42.8412 170.249C45.3203 169.11 47.8068 167.993 50.3041 166.901C50.6026 167.927 50.8902 168.953 51.1778 169.979C51.0832 168.639 50.9813 167.248 50.8757 165.821C50.8502 165.832 50.8247 165.843 50.7992 165.854C49.9146 162.841 48.9936 159.837 48.0507 156.843C48.7496 156.551 49.4486 156.266 50.1512 155.977C50.133 155.711 50.1112 155.444 50.093 155.178L50.1003 155.17ZM47.1151 156.408C44.4357 157.533 41.7599 158.675 39.0951 159.837C37.8683 156.248 36.696 152.637 35.5602 149.011C38.1886 147.689 40.817 146.364 43.4491 145.046C44.6796 148.825 45.9137 152.611 47.1151 156.408ZM42.5026 112.267C43.0559 113.822 43.6057 115.374 44.159 116.929L45.2948 120.128C42.7283 121.573 40.1618 123.019 37.5843 124.439C36.6669 121.628 35.7349 118.817 34.7848 116.016C37.3586 114.768 39.9288 113.512 42.5026 112.263V112.267ZM36.8999 124.812C36.3465 125.115 35.7932 125.422 35.2398 125.725C33.3395 126.762 31.4283 127.773 29.5097 128.766C28.6579 125.838 27.8096 122.913 26.9578 119.992C26.9396 119.93 26.9214 119.865 26.9032 119.803C29.3059 118.671 31.7013 117.513 34.0931 116.352C35.0469 119.164 35.9825 121.986 36.9035 124.812H36.8999ZM28.8035 129.135C26.2734 130.442 23.7287 131.716 21.173 132.965C20.1501 129.916 19.1053 126.878 18.024 123.855C20.7617 122.658 23.4775 121.409 26.186 120.138C27.0633 123.136 27.9334 126.137 28.8035 129.135ZM30.8858 107.21C31.9015 110.007 32.8845 112.814 33.8455 115.633C31.461 116.79 29.0765 117.941 26.6847 119.069C25.8147 116.104 24.9373 113.139 24.0381 110.182C26.3207 109.189 28.6033 108.199 30.8858 107.21ZM23.3246 110.496C24.2201 113.461 25.1011 116.429 25.9712 119.401C23.2481 120.682 20.5178 121.935 17.7656 123.14C17.4088 122.154 17.052 121.168 16.688 120.182C15.9708 118.247 15.1954 116.323 14.4309 114.388C17.3942 113.085 20.3612 111.792 23.3246 110.496ZM6.0942 124.407C5.35519 122.621 4.63073 120.825 3.96453 119.003C7.22639 117.554 10.4919 116.119 13.7574 114.684C14.0632 115.461 14.369 116.239 14.6675 117.017C15.4903 119.149 16.2839 121.292 17.0593 123.443C13.8448 124.837 10.612 126.17 7.3356 127.397C6.92423 126.4 6.50922 125.403 6.0942 124.407ZM7.62684 128.101C10.8887 126.878 14.1142 125.549 17.3178 124.158C18.4063 127.192 19.4511 130.245 20.4777 133.304C17.5107 134.746 14.5328 136.152 11.5404 137.536C10.2334 134.392 8.93013 131.245 7.62684 128.101ZM20.0336 180.618C17.893 181.681 15.7415 182.718 13.5717 183.7C12.3194 180.326 11.0635 176.956 9.80021 173.59C11.0926 173.035 12.3813 172.48 13.67 171.918C14.4345 171.586 15.199 171.246 15.9635 170.91C17.3032 174.156 18.6575 177.395 20.0336 180.622V180.618ZM22.9642 166.982C21.5189 167.624 20.0736 168.267 18.6284 168.909C17.8821 169.242 17.1321 169.567 16.3858 169.895C15.1299 166.847 13.8812 163.794 12.6398 160.738C12.5779 160.585 12.516 160.428 12.4505 160.275C14.6129 159.282 16.7644 158.267 18.9123 157.241C20.2629 160.49 21.6135 163.736 22.9642 166.985V166.982ZM18.6174 156.532C16.4732 157.558 14.3217 158.573 12.1629 159.566C10.805 156.222 9.45072 152.878 8.09646 149.537C10.2807 148.69 12.4578 147.828 14.6348 146.956L18.6174 156.532ZM15.0388 145.962C13.9686 143.388 12.9019 140.814 11.8316 138.24C14.8059 136.864 17.7692 135.466 20.7216 134.031C21.0201 134.929 21.3187 135.827 21.6172 136.725C22.247 138.631 22.8695 140.544 23.492 142.454C20.6852 143.651 17.8675 144.816 15.0388 145.959V145.962ZM24.2056 142.154C23.2845 139.332 22.3598 136.51 21.417 133.695C23.9653 132.454 26.4991 131.183 29.0219 129.883C29.892 132.877 30.7693 135.871 31.654 138.858C29.1821 139.986 26.6993 141.085 24.2056 142.154ZM32.3711 138.533C31.4792 135.528 30.6019 132.523 29.7245 129.514C31.6867 128.499 33.6417 127.466 35.582 126.407C36.1026 126.123 36.6196 125.838 37.1402 125.553C38.1559 128.671 39.157 131.789 40.1618 134.907C37.6389 136.094 35.1124 137.273 32.5787 138.438C32.5095 138.47 32.4403 138.5 32.3711 138.533ZM32.5932 139.27C35.1998 138.073 37.8027 136.86 40.402 135.637C40.9408 137.313 41.4833 138.985 42.0257 140.661C42.4189 141.877 42.8157 143.096 43.2161 144.312C40.5877 145.63 37.9629 146.952 35.3345 148.274C34.4025 145.28 33.4924 142.279 32.5969 139.27H32.5932ZM27.7332 152.929C30.1104 151.749 32.4804 150.559 34.8503 149.369C35.9825 152.98 37.1474 156.576 38.3707 160.154C38.1813 160.238 37.992 160.318 37.8027 160.402C35.6221 161.355 33.4414 162.319 31.2644 163.287C30.0485 159.851 28.8799 156.397 27.7295 152.932L27.7332 152.929ZM31.5229 164.006C32.4076 163.615 33.2885 163.217 34.1732 162.827C35.6549 162.173 37.1365 161.52 38.6218 160.873C39.6557 163.882 40.7333 166.876 41.8546 169.851C39.532 170.925 37.2166 172.009 34.9158 173.126C33.7363 170.107 32.6078 167.062 31.5229 164.002V164.006ZM43.2707 173.539C43.9187 175.186 44.5886 176.821 45.273 178.453C43.3836 179.227 41.4942 180.012 39.6157 180.812C39.1825 180.998 38.7493 181.188 38.316 181.374C37.2312 178.884 36.1973 176.372 35.1998 173.846C37.5006 172.728 39.8159 171.644 42.1349 170.571C42.5135 171.56 42.8848 172.553 43.2744 173.539H43.2707ZM50.0966 166.157C47.5811 167.256 45.0728 168.376 42.5754 169.523C41.4541 166.555 40.3838 163.564 39.3463 160.559C42.0075 159.402 44.6723 158.259 47.3481 157.138C48.2909 160.136 49.212 163.141 50.0966 166.157Z" fill="#C76CB2"/>
<path d="M26.1277 37.8763C26.1277 37.8763 40.4384 40.976 42.6154 44.4664C44.7924 47.9568 50.77 57.7417 53.0817 59.9725C55.3934 62.1997 63.9085 52.8967 65.3283 53.2874C66.9155 54.3535 68.5938 58.5194 68.5683 59.2971C68.0295 61.1372 60.0241 75.2851 55.5973 76.3512C51.1705 77.4173 40.8243 69.8633 40.8243 69.8633C40.8243 69.8633 40.6386 87.1072 43.4454 94.6649C46.2522 102.223 48.2071 106.586 46.5871 109.393C38.7055 116.856 1.31419 115.984 -0.00366211 112.493C1.90395 100.959 7.03702 87.1036 7.6923 81.6781C8.34759 76.2526 6.81131 64.9124 10.4882 51.8306C14.1651 38.7489 23.6157 35.8426 26.124 37.8763H26.1277Z" fill="#F2E3DA"/>
<path d="M34.8285 9.35394C34.8285 9.35394 36.4885 13.0999 35.3236 17.4958C34.1622 21.8881 35.6912 27.9598 29.7318 29.0588C23.7723 30.1577 18.6575 7.60873 34.8285 9.35394Z" fill="#FFAA94"/>
<path d="M10.7539 69.8888C10.7539 69.8888 9.83291 59.1656 10.9287 52.9624C11.3073 53.0281 12.2647 52.9624 12.2647 52.9624C12.2647 52.9624 11.6495 67.7565 11.7078 69.8888C11.7514 70.535 10.7539 69.8888 10.7539 69.8888Z" fill="#BF5452"/>
<path d="M34.9158 17.2988C34.7847 17.4595 34.985 19.1061 35.3818 19.5917C35.7786 20.0773 36.179 20.4972 34.4498 21.8517C32.7315 22.8192 34.9194 17.2988 34.9194 17.2988H34.9158Z" fill="#FFAA94"/>
<path d="M35.764 15.415C35.2107 14.7833 34.1185 15.8604 33.7763 16.3022C33.6234 16.4993 33.9474 16.6965 34.1003 16.4993C34.2824 16.2657 34.4935 16.0612 34.7374 15.8969C34.894 15.791 35.3126 15.488 35.4837 15.6815C35.6439 15.864 35.9278 15.5975 35.7677 15.4113L35.764 15.415Z" fill="#2D2644"/>
<path d="M34.0712 19.3653C34.0202 19.5332 33.9947 19.7012 33.9911 19.8728C33.9875 20.216 34.5226 20.2269 34.5263 19.8837C34.5263 19.7523 34.5445 19.6354 34.5809 19.5113C34.6792 19.1791 34.1695 19.033 34.0676 19.3689L34.0712 19.3653Z" fill="#2D2644"/>
<path d="M32.5749 23.7283C32.5749 23.7283 33.2448 23.3924 33.8709 23.5019C33.5032 24.5352 33.5251 25.7291 32.8516 25.9555C32.1745 26.1818 32.3892 24.5023 32.5749 23.7283Z" fill="white"/>
<path d="M8.31126 68.6911C8.31126 68.6911 2.43553 87.684 2.58115 91.9484C2.72677 96.2129 17.9258 95.6323 21.2131 94.3727C24.5005 93.1131 22.2652 71.1154 20.9109 68.6911C19.5603 66.2668 9.20682 65.7155 8.31126 68.6911Z" fill="#BF5452"/>
<path d="M16.2948 69.823C16.2948 69.823 20.2193 48.76 33.1866 39.7492C32.5131 39.2015 31.9197 39.3695 31.9197 39.3695C31.9197 39.3695 19.1198 44.3861 15.2427 69.823C15.0243 70.6299 16.2912 69.823 16.2912 69.823H16.2948Z" fill="#BF5452"/>
<path d="M20.6305 83.0654C20.6305 83.0654 32.3274 73.7624 36.5394 67.625L37.5369 68.2712C37.5369 68.2712 30.478 77.7677 20.6087 83.7116C20.4849 83.6459 20.6305 83.0654 20.6305 83.0654Z" fill="#BF5452"/>
<path d="M29.7791 18.3028C30.3215 17.8172 35.7786 12.4392 34.8394 7.64171C33.9001 2.84421 26.1204 4.48354 21.2203 4.29733C17.3869 4.15129 11.1071 4.15129 9.87663 18.2992C8.97015 28.7558 9.55627 48.3402 7.60497 52.506C5.65368 56.6719 6.89872 59.4832 7.91805 60.4508C12.4068 57.4459 14.0049 64.0361 18.0349 60.4508C22.0649 56.8654 23.9798 59.6767 24.4567 59.6767C30.7074 49.5998 29.7791 18.2992 29.7791 18.2992V18.3028Z" fill="#2D2644"/>
<path d="M40.6604 69.5676C38.1849 68.1327 35.7094 66.6942 33.2302 65.2593C33.0191 65.1388 32.8152 65.4711 33.0264 65.5915C35.5019 67.0264 37.9774 68.4649 40.4566 69.8998C40.6677 70.0203 40.8716 69.688 40.6604 69.5676Z" fill="#2D2644"/>
<path d="M26.1204 148.346C24.5477 144.593 22.8622 140.756 20.7252 137.309C19.8843 135.955 18.8176 135.016 17.3614 134.381C15.756 133.68 14.0195 133.3 12.5887 132.253C12.3922 132.11 12.1883 132.442 12.3849 132.585C13.6299 133.498 15.1007 133.917 16.5277 134.461C18.4208 135.181 19.6877 136.25 20.7034 138.025C22.6255 141.391 24.2819 144.944 25.7855 148.529C25.8801 148.755 26.2223 148.569 26.1277 148.343L26.1204 148.346Z" fill="#2D2644"/>
<path d="M18.6611 69.3227C18.4936 71.8748 17.1139 74.3795 14.8349 75.6391C12.4978 76.9316 9.53805 76.6358 7.61223 74.9016C7.43385 74.7409 7.14625 75.0074 7.32828 75.1717C9.31234 76.9608 12.2902 77.3405 14.7548 76.1137C17.2995 74.8468 18.8613 72.1121 19.0433 69.33C19.0615 69.0818 18.6793 69.0745 18.6611 69.3227Z" fill="#2D2644"/>
<path d="M16.0217 87.7205C16.0217 87.1327 15.9962 86.5375 15.9052 85.9607C15.9344 85.9607 15.9635 85.957 15.9926 85.9534C16.2365 85.9242 16.1564 85.5481 15.9162 85.5773C15.8907 85.5773 15.8616 85.581 15.8361 85.5846C15.6686 84.8215 15.3664 84.1059 14.8131 83.5145C13.7683 82.3936 12.192 81.897 10.7358 81.5502C8.97741 81.134 7.17174 81.0244 5.37698 81.4224C5.13307 81.4772 5.21316 81.8532 5.45343 81.7985C7.24819 81.4005 9.0393 81.5283 10.7867 81.9628C12.2502 82.3242 13.8484 82.839 14.784 84.0986C15.1262 84.5623 15.3337 85.0808 15.4611 85.6248C11.7405 85.9935 8.04181 85.497 4.59064 84.1716C4.36493 84.084 4.24844 84.4564 4.47415 84.5441C7.99085 85.8913 11.7478 86.3732 15.5339 85.9935C15.6795 86.8734 15.6431 87.8081 15.6249 88.6917C15.5958 90.3894 15.563 92.0908 15.5339 93.7886C15.5303 94.0368 15.9125 94.0441 15.9162 93.7959C15.9526 91.7732 16.0181 89.7432 16.0217 87.7205Z" fill="#2D2644"/>
<path d="M61.16 214C61.3967 213.883 62.1248 213.39 62.1211 211.751C61.9864 210.382 58.3168 209.206 55.2843 207.512C52.2554 205.818 48.513 200.013 47.8759 199.491C47.2389 198.969 46.6564 202.36 46.6564 202.36C46.6564 202.36 41.2321 198.041 40.7115 200.666C40.7115 200.666 38.3452 211.846 39.0624 214.004H61.1564L61.16 214Z" fill="#5E5580"/>
<path d="M61.1599 214C61.3966 213.883 62.1247 213.39 62.121 211.751C62.1174 211.707 62.1101 211.663 62.0955 211.62C60.2644 212.81 54.4869 213.854 47.854 210.137C44.4028 208.202 41.5086 207.698 39.4299 207.706C39.0222 210.404 38.7492 213.058 39.0586 214H61.1563H61.1599Z" fill="#F2E3DA"/>
<path d="M51.9132 204.12C51.6183 204.555 51.3234 204.989 51.0249 205.424C51.105 204.671 51.1851 203.923 51.2688 203.171C51.2906 202.985 51.1159 202.93 51.0176 203.028C50.5443 203.474 50.1402 204.047 49.7362 204.606C49.8199 203.667 49.8854 202.725 49.9255 201.787C49.9327 201.63 49.7726 201.51 49.6743 201.645C49.0627 202.448 48.4219 203.2 47.7412 203.905C47.5846 204.069 47.7812 204.35 47.9414 204.186C48.5202 203.587 49.0663 202.944 49.5942 202.273C49.5468 203.233 49.4813 204.193 49.3867 205.153C49.3721 205.318 49.5432 205.424 49.6379 205.299C50.0529 204.748 50.4606 204.146 50.9157 203.635C50.8283 204.434 50.7446 205.234 50.6572 206.033C50.639 206.19 50.8174 206.311 50.9084 206.176C51.2142 205.727 51.52 205.278 51.8258 204.828C51.7785 205.394 51.6947 205.949 51.571 206.512C51.5163 206.756 51.8076 206.866 51.8622 206.617C52.0333 205.836 52.1352 205.066 52.1716 204.266C52.1789 204.116 52.0151 203.981 51.9204 204.12H51.9132Z" fill="#2D2644"/>
<path d="M22.6911 214C22.9277 213.883 23.532 213.332 23.532 211.693C23.3973 210.323 21.3368 210.418 20.0918 207.702C18.6283 204.515 17.933 200.009 17.2959 199.487C16.6588 198.965 16.0763 202.357 16.0763 202.357C16.0763 202.357 10.652 198.038 10.1314 200.663C10.1314 200.663 7.76511 211.842 8.48228 214H22.6911Z" fill="#5E5580"/>
<path d="M22.8767 214C23.0333 213.883 23.5138 213.39 23.532 211.751C23.532 211.707 23.5247 211.663 23.5175 211.62C22.3052 212.81 20.4449 213.536 16.1491 209.82C13.9139 207.885 10.2043 207.728 8.84271 207.735C8.32577 210.634 8.22383 213.054 8.41678 214H22.8767Z" fill="#F2E3DA"/>
<path d="M52.7395 59.2788C51.2542 57.3692 49.8526 55.4013 48.5348 53.3677C48.4037 53.1632 48.0615 53.3494 48.1926 53.5539C49.5286 55.6167 50.9521 57.6139 52.4556 59.5489C52.6048 59.7424 52.8888 59.4723 52.7395 59.2788Z" fill="#2D2644"/>
<path d="M74 40.8993C73.8507 41.0563 73.6869 41.1731 73.4939 41.2644C73.2682 41.3703 73.4393 41.7098 73.665 41.604C73.8871 41.4981 74.0837 41.3557 74.2548 41.1768C74.4295 40.9942 74.1747 40.7168 74 40.8993Z" fill="#D96A6A"/>
<path d="M74.1783 43.2872C74.0473 43.3967 73.9198 43.5062 73.7888 43.6121C73.5958 43.7727 73.8543 44.0502 74.0436 43.8896C74.1747 43.78 74.3021 43.6705 74.4331 43.5646C74.6261 43.404 74.3676 43.1265 74.1783 43.2872Z" fill="#D96A6A"/>
<path d="M73.949 45.5143C73.9017 45.5873 73.858 45.664 73.8107 45.737C73.6796 45.9524 74 46.1496 74.1347 45.9342C74.182 45.8611 74.2257 45.7845 74.273 45.7115C74.4041 45.496 74.0837 45.2989 73.949 45.5143Z" fill="#D96A6A"/>
<path d="M17.4088 19.1974C17.3797 18.9528 17.012 19.0477 17.0375 19.2887C17.7401 25.5832 16.9974 31.9579 14.8714 37.9201C13.0002 43.1667 10.2116 48.4863 11.1617 54.2258C11.2018 54.4704 11.5731 54.3755 11.5331 54.1345C10.5174 47.9934 13.863 42.3525 15.6868 36.708C17.5071 31.0671 18.0641 25.083 17.4088 19.1938V19.1974Z" fill="#5E5580"/>
<path d="M21.8137 19.1646C21.7519 18.9236 21.3842 19.0149 21.4424 19.2559C23.1862 26.2148 20.758 33.2687 17.893 39.5668C17.791 39.7895 18.1187 39.9867 18.2206 39.7603C21.1293 33.3673 23.5794 26.2258 21.8101 19.1646H21.8137Z" fill="#5E5580"/>
<path d="M30.2561 9.78848C30.2452 9.54385 29.8629 9.53655 29.8738 9.78117C29.9612 11.4753 29.8847 13.1584 29.6408 14.8379C29.6044 15.0789 29.9721 15.1848 30.0085 14.9401C30.2597 13.2278 30.3434 11.5154 30.2561 9.78482V9.78848Z" fill="#5E5580"/>
<path d="M32.8117 8.76626C32.7898 8.52164 32.4076 8.51434 32.4294 8.75896C32.5568 10.1902 32.2146 11.5374 31.4101 12.7313C31.2717 12.9358 31.603 13.1293 31.7377 12.9248C32.5714 11.6835 32.9427 10.2559 32.808 8.76261L32.8117 8.76626Z" fill="#5E5580"/>
<path d="M13.4589 14.5422C12.0864 19.4712 11.6313 24.5936 12.1228 29.6869C12.1447 29.9278 12.5269 29.9388 12.5051 29.6942C12.0172 24.6301 12.4614 19.5479 13.8266 14.6481C13.8921 14.4108 13.5244 14.3049 13.4589 14.5459V14.5422Z" fill="#5E5580"/>
<path d="M108.308 158.449L107.744 213.989L81.8889 214.004C80.3781 214.004 79.1767 212.737 79.2568 211.221C79.843 200.429 81.9435 161.83 82.1619 159.417C82.4168 156.609 108.33 157.562 108.308 158.453V158.449Z" fill="#FF9CA9"/>
<path d="M107.805 213.989H91.3832C90.717 213.989 90.1746 213.445 90.1746 212.777V159.479C90.1746 158.81 90.717 158.266 91.3832 158.266H107.805C108.472 158.266 109.014 158.81 109.014 159.479V212.777C109.014 213.445 108.472 213.989 107.805 213.989Z" fill="#E68894"/>
<path d="M104.314 115.688C104.307 115.439 104.689 115.436 104.696 115.68C105.17 131.862 105.108 148.058 104.514 164.236C104.504 164.48 104.125 164.488 104.132 164.243C104.726 148.065 104.787 131.869 104.314 115.688Z" fill="#2D2644"/>
<path d="M95.2058 115.688C95.1985 115.439 95.5808 115.436 95.5881 115.68C96.0613 131.862 95.9994 148.058 95.406 164.236C95.3988 164.48 95.0165 164.488 95.0238 164.243C95.6172 148.065 95.6791 131.869 95.2058 115.688Z" fill="#2D2644"/>
<path d="M95.9083 116.538H103.965C104.449 116.538 104.849 116.14 104.849 115.651C104.849 115.166 104.453 114.764 103.965 114.764H95.9083C95.4241 114.764 95.0237 115.162 95.0237 115.651C95.0237 116.137 95.4205 116.538 95.9083 116.538Z" fill="#2D2644"/>
<path d="M85.3547 158.39L85.5148 201.09C85.5294 205.109 85.544 209.133 85.5622 213.153C85.5622 213.401 85.1799 213.405 85.1799 213.16L85.0197 170.461C85.0052 166.441 84.9906 162.418 84.9724 158.398C84.9724 158.149 85.3547 158.146 85.3547 158.39Z" fill="#2D2644"/>
<path d="M104.252 167.456C104.252 167.208 104.635 167.204 104.635 167.449C104.598 181.023 104.565 194.594 104.529 208.169C104.529 208.417 104.147 208.421 104.147 208.176C104.183 194.602 104.216 181.031 104.252 167.456Z" fill="#2D2644"/>
<path d="M95.1402 166.821C95.1438 166.576 95.5261 166.569 95.5224 166.814C95.3186 180.768 95.1147 194.722 94.9108 208.68C94.9108 208.925 94.5249 208.936 94.5286 208.688C94.7325 194.733 94.9363 180.779 95.1402 166.821Z" fill="#2D2644"/>
<path d="M83.3997 212.094C83.3997 213.149 84.1896 214.004 85.1653 214.004C86.1409 214.004 86.9309 213.149 86.9309 212.094C86.9309 211.039 86.1409 210.185 85.1653 210.185C84.1896 210.185 83.3997 211.039 83.3997 212.094Z" fill="#2D2644"/>
<path d="M158.976 8.21488C158.976 8.21488 157.542 0.401595 167.342 0.0182326C177.142 -0.365129 180.153 5.32323 178.711 14.6042C173.45 14.8233 158.976 8.21488 158.976 8.21488Z" fill="#F2E3DA"/>
<path d="M159.835 11.8879C159.835 11.698 154.109 7.41895 153.089 4.61128C152.07 1.80361 162.23 0.043797 168.721 1.00038C175.212 1.95696 177.102 10.1171 177.102 10.1171L159.835 11.8842V11.8879Z" fill="#2D2644"/>
<path d="M159.58 12.5379C159.58 12.5379 158.768 15.4112 159.769 23.9766C161.153 27.4233 161.535 28.1425 161.535 28.1425C161.535 28.1425 163.159 39.103 161.011 41.6405C161.965 41.7829 176.811 40.4904 176.811 40.4904C175.762 37.0913 176.476 26.4922 176.286 25.4955C177.717 25.4115 179.246 23.4947 179.723 21.1033C180.2 18.7082 178.514 18.2153 178.514 18.2153C178.514 18.2153 178.147 12.8226 174.426 9.71193C170.702 6.60122 159.438 5.73957 159.584 12.5379H159.58Z" fill="#FFAA94"/>
<path d="M159.77 23.9803C159.791 23.8379 162.824 21.4902 166.355 22.2095C169.886 22.9288 170.363 24.747 172.034 24.2212C173.705 23.6955 174.852 18.9089 175.613 18.9564C176.712 19.0039 175.424 25.0354 175.041 29.2013C174.659 33.3672 164.779 31.7388 161.866 31.7388C158.954 31.7388 159.1 28.482 159.766 23.9839L159.77 23.9803Z" fill="#BF5452"/>
<path d="M158.816 8.86837C158.816 8.86837 158.084 11.2927 159.58 12.5377C160.439 12.8261 161.109 8.10165 166.515 8.03958C170.622 8.64566 170.906 12.1251 173.771 12.1872C176.636 12.2493 174.408 17.5177 175.617 18.9526C176.763 20.2305 177.047 18.0581 178.511 18.2188C179.497 14.8999 178.256 6.92235 169.952 5.96577C161.648 5.00919 159.071 6.7325 158.816 8.86837Z" fill="#BF5452"/>
<path d="M206.815 69.323C206.815 69.323 200.153 88.2246 192.308 88.2866C184.463 88.3523 186.25 71.5647 186.25 71.5647C186.25 71.5647 206.957 58.0156 206.815 69.3193V69.323Z" fill="#FFAA94"/>
<path d="M141.822 182.236C141.822 182.236 142.441 197.136 140.541 202.642C140.664 204.299 149.645 204.573 148.564 202.594C147.421 200.104 151.462 183.831 151.462 183.831L141.822 182.236Z" fill="#FFAA94"/>
<path d="M151.943 209.422C151.943 209.422 152.358 212.788 151.753 214H127.635C127.635 214 127.064 212.85 127.508 211.528C127.952 210.203 151.659 207.906 151.946 209.422H151.943Z" fill="#2D2644"/>
<path d="M139.867 200.999C139.867 200.999 136.095 206.599 129.765 208.925C127.176 209.874 127.504 211.532 127.504 211.532C133.806 210.287 140.151 213.398 144.494 211.244C148.837 209.089 151.797 209.473 151.939 209.425C152.416 208.469 149.172 202.342 148.884 201.433C148.597 200.524 144.301 203.445 143.588 202.105C142.87 200.765 140.963 199.52 139.863 201.002L139.867 200.999Z" fill="#FFC673"/>
<path d="M143.901 202.437C142.466 203.266 141.534 204.668 140.329 205.778C140.013 206.07 139.681 206.453 139.317 206.68C138.469 207.216 138.083 207.005 137.322 206.742C136.591 206.486 135.924 206.253 135.142 206.318C134.898 206.34 134.891 206.724 135.134 206.702C136.718 206.57 138.185 208.111 139.579 206.957C140.315 206.351 141.025 205.683 141.676 204.986C142.448 204.164 143.082 203.346 144.075 202.773C144.29 202.649 144.105 202.313 143.893 202.437H143.901Z" fill="#2D2644"/>
<path d="M143.781 203.777C142.459 202.412 140.653 202.028 138.822 201.9C138.593 201.886 138.575 202.203 138.768 202.276C140.009 202.747 140.956 203.66 141.469 204.85C140.268 204.018 138.833 203.857 137.366 203.558C137.166 203.518 137.013 203.803 137.217 203.908C137.974 204.299 138.597 204.847 139.004 205.606C139.175 205.924 139.288 206.263 139.412 206.599C138.466 205.785 137.359 205.212 136.117 204.916C135.881 204.858 135.775 205.227 136.015 205.285C137.53 205.65 138.822 206.417 139.867 207.578C140.009 207.735 140.289 207.538 140.173 207.351C139.696 206.596 139.576 205.694 139.048 204.96C138.815 204.635 138.542 204.358 138.236 204.113C139.514 204.354 140.763 204.628 141.746 205.562C141.877 205.687 142.124 205.577 142.07 205.384C141.706 204.102 140.916 203.065 139.831 202.39C141.2 202.579 142.499 203.007 143.508 204.047C143.679 204.222 143.955 203.96 143.781 203.781V203.777Z" fill="#2D2644"/>
<path d="M149.092 202.594C148.247 202.912 147.446 202.543 146.66 202.196C146.438 202.098 146.241 202.426 146.467 202.525C147.359 202.915 148.226 203.324 149.183 202.963C149.412 202.879 149.321 202.503 149.092 202.591V202.594Z" fill="#2D2644"/>
<path d="M194.663 182.236C194.663 182.236 194.045 197.136 195.945 202.642C195.821 204.299 186.84 204.573 187.921 202.594C189.064 200.104 185.023 183.831 185.023 183.831L194.663 182.236Z" fill="#FFAA94"/>
<path d="M184.547 209.422C184.547 209.422 184.132 212.788 184.736 214H208.854C208.854 214 209.426 212.85 208.981 211.528C208.537 210.203 184.831 207.906 184.543 209.422H184.547Z" fill="#2D2644"/>
<path d="M196.622 200.999C196.622 200.999 200.394 206.599 206.724 208.925C209.313 209.874 208.985 211.532 208.985 211.532C202.683 210.287 196.338 213.398 191.995 211.244C187.652 209.089 184.692 209.473 184.55 209.425C184.073 208.469 187.317 202.342 187.605 201.433C187.892 200.524 192.188 203.445 192.901 202.105C193.619 200.765 195.526 199.52 196.626 201.002L196.622 200.999Z" fill="#FFC673"/>
<path d="M192.588 202.437C194.023 203.266 194.955 204.668 196.16 205.778C196.476 206.07 196.808 206.453 197.172 206.68C198.02 207.216 198.406 207.005 199.167 206.742C199.898 206.486 200.565 206.253 201.347 206.318C201.591 206.34 201.598 206.724 201.355 206.702C199.771 206.57 198.304 208.111 196.91 206.957C196.174 206.351 195.464 205.683 194.813 204.986C194.041 204.164 193.407 203.346 192.414 202.773C192.202 202.649 192.384 202.313 192.596 202.437H192.588Z" fill="#2D2644"/>
<path d="M192.709 203.777C194.03 202.412 195.836 202.028 197.667 201.9C197.896 201.886 197.914 202.203 197.722 202.276C196.48 202.747 195.534 203.66 195.02 204.85C196.222 204.018 197.656 203.857 199.123 203.558C199.323 203.518 199.476 203.803 199.272 203.908C198.515 204.299 197.893 204.847 197.485 205.606C197.314 205.924 197.201 206.263 197.077 206.599C198.024 205.785 199.13 205.212 200.372 204.916C200.608 204.858 200.714 205.227 200.474 205.285C198.959 205.65 197.667 206.417 196.622 207.578C196.48 207.735 196.2 207.538 196.316 207.351C196.793 206.596 196.913 205.694 197.441 204.96C197.674 204.635 197.947 204.358 198.253 204.113C196.975 204.354 195.727 204.628 194.744 205.562C194.613 205.687 194.365 205.577 194.42 205.384C194.784 204.102 195.574 203.065 196.658 202.39C195.29 202.579 193.99 203.007 192.982 204.047C192.811 204.222 192.534 203.96 192.709 203.781V203.777Z" fill="#2D2644"/>
<path d="M187.397 202.594C188.242 202.912 189.043 202.543 189.829 202.196C190.051 202.098 190.248 202.426 190.022 202.525C189.13 202.915 188.264 203.324 187.306 202.963C187.077 202.879 187.168 202.503 187.397 202.591V202.594Z" fill="#2D2644"/>
<path d="M141.695 70.8527C141.695 70.8527 136.602 92.8832 139.911 96.9688C143.224 101.054 155.696 101.31 155.696 101.31L158.444 68.5671L141.695 70.8527Z" fill="#FFC673"/>
<path d="M144.37 116.115C144.37 116.115 136.671 187.599 136.987 188.172C151.244 190.279 163.206 189.45 163.206 189.45L172.944 133.092L177.655 189.1C177.655 189.1 193.884 191.495 199.993 188.91C198.752 162.871 195.22 112.895 195.22 112.895L144.374 116.119L144.37 116.115Z" fill="#2D2644"/>
<path d="M194.58 46.5475C194.58 46.5475 178.86 39.5922 173.196 38.8255C167.531 38.0588 148.313 41.4433 145.004 43.55C141.695 45.6567 133.74 65.4893 133.547 66.6759C133.358 67.8661 147.356 71.0571 147.356 71.0571C147.356 71.0571 141.564 120.869 141.564 121.876C141.564 122.884 170.964 126.71 173.192 125.498C174.211 121.924 174.845 119.116 174.845 119.116L176.119 125.37C176.119 125.37 194.638 125.816 197.63 122.497C196.04 106.031 192.304 78.6514 192.304 78.6514L194.576 46.5475H194.58Z" fill="#5272BF"/>
<path d="M143.861 87.0123C143.861 87.0123 149.78 80.9478 152.896 70.4802C156.016 60.0126 149.882 41.8449 149.882 41.8449C149.882 41.8449 151.913 41.3301 153.453 41.0161C157.8 59.9505 159.325 71.1812 144.116 87.841L143.861 87.0123Z" fill="#2D2644"/>
<path d="M135.458 67.7968C135.458 67.7968 133.675 82.025 139.467 82.3463C139.783 78.7756 144.621 67.4792 144.621 67.4792C144.621 67.4792 139.15 66.6467 135.458 67.7968Z" fill="#FFAA94"/>
<path d="M163.334 65.5659C163.334 65.5659 158.266 78.4578 158.444 83.5657C183.571 81.7803 203.171 84.4602 203.171 84.4602C204.318 72.9703 213.481 49.483 212.717 44.251C192.352 47.8254 168.678 44.251 168.678 44.251C168.678 44.251 164.604 50.633 163.334 65.5696V65.5659Z" fill="#FFEFE6"/>
<path d="M165.492 65.4564C165.492 65.4564 160.916 77.2019 161.076 81.8533C183.768 80.225 201.471 82.6675 201.471 82.6675C202.505 72.1999 210.784 50.801 210.092 46.0327C191.7 49.2895 170.32 46.0327 170.32 46.0327C170.32 46.0327 166.643 51.8489 165.492 65.4564Z" fill="#F2E3DA"/>
<path d="M158.75 64.153C158.75 64.153 160.152 60.4252 161.743 58.9575C163.334 57.4898 171.798 62.1485 171.608 63.5104C171.576 63.9777 170.334 63.6893 170.334 63.6893C170.334 63.6893 171.576 64.4779 171.415 65.0876C171.255 65.6974 169.73 65.2665 169.73 65.2665C169.73 65.2665 170.462 65.7667 170.207 66.2341C169.952 66.7014 169.228 66.5481 169.228 66.5481C169.228 66.5481 169.537 67.0336 169.038 67.4353C168.536 67.8369 164.622 68.0012 164.003 68.0523C163.385 68.1071 161.164 69.8815 159.781 69.3959C158.397 68.9103 158.157 65.9821 158.754 64.153H158.75Z" fill="#FFAA94"/>
<path d="M210.9 64.2844C210.9 64.2844 212.174 61.9513 210.98 60.9327C209.335 59.527 200.477 61.871 200.368 63.2402C200.299 63.7002 201.573 63.6892 201.573 63.6892C201.573 63.6892 200.193 64.1894 200.215 64.8211C200.241 65.4491 201.824 65.3614 201.824 65.3614C201.824 65.3614 201.002 65.6937 201.151 66.2012C201.3 66.7123 202.039 66.7196 202.039 66.7196C202.039 66.7196 201.631 67.1249 202.035 67.6287C202.44 68.1326 206.226 69.1366 206.819 69.3228C207.412 69.509 209.113 68.4648 210.904 64.2844H210.9Z" fill="#FFAA94"/>
<path d="M191.962 50.1147C190.819 52.7873 189.68 55.4562 188.537 58.1288C187.59 60.3486 186.316 62.6269 186.105 65.0658C185.864 67.8333 185.937 70.6592 185.872 73.434C185.803 76.3439 185.73 79.2502 185.661 82.1601C185.653 82.4084 186.036 82.412 186.043 82.1674C186.174 76.7017 186.196 71.2178 186.443 65.7559C186.571 62.9737 187.94 60.4874 189.014 57.9718C190.106 55.416 191.198 52.8603 192.29 50.3045C192.385 50.0818 192.057 49.8847 191.962 50.111V50.1147Z" fill="#2D2644"/>
<path d="M170.199 63.3752C168.991 62.5063 167.658 61.9988 166.253 61.5424C166.02 61.4657 165.915 61.8345 166.151 61.9112C167.527 62.3566 168.823 62.8531 170.007 63.7038C170.207 63.8462 170.4 63.5176 170.199 63.3752Z" fill="#D96A6A"/>
<path d="M169.69 64.9636C169.209 64.6715 168.641 64.5985 168.103 64.4743C167.418 64.321 166.734 64.164 166.049 64.0107C165.809 63.9559 165.707 64.3246 165.947 64.3794C166.544 64.5145 167.145 64.6496 167.742 64.7883C168.325 64.9198 168.984 64.9818 169.497 65.2958C169.708 65.4236 169.901 65.095 169.69 64.9672V64.9636Z" fill="#D96A6A"/>
<path d="M169.085 66.2998C168.063 66.0807 166.981 66.2158 165.998 65.8105C165.773 65.7156 165.671 66.088 165.896 66.1793C166.887 66.5882 167.953 66.4495 168.984 66.6685C169.224 66.7196 169.329 66.3509 169.085 66.2998Z" fill="#D96A6A"/>
<path d="M206.626 62.1485C205.035 62.3676 203.47 62.6925 201.919 63.1234C201.682 63.1891 201.773 63.5615 202.01 63.4958C203.557 63.065 205.123 62.74 206.717 62.5209C206.961 62.4881 206.866 62.1157 206.626 62.1485Z" fill="#D96A6A"/>
<path d="M206.513 64.3611C205.148 64.4268 203.801 64.602 202.461 64.8868C202.221 64.9379 202.312 65.3104 202.552 65.2592C203.859 64.9781 205.174 64.8065 206.51 64.7444C206.754 64.7335 206.761 64.3501 206.517 64.3611H206.513Z" fill="#D96A6A"/>
<path d="M206.076 66.4166C204.973 66.4933 203.888 66.3546 202.782 66.4933C202.538 66.5225 202.632 66.8949 202.873 66.8657C203.95 66.7306 205.002 66.873 206.073 66.8C206.317 66.7818 206.324 66.3984 206.08 66.4166H206.076Z" fill="#D96A6A"/>
<path d="M159.708 64.0764C159.708 64.0764 145.819 66.9389 141.618 67.5121C137.417 68.0853 136.274 82.2989 139.47 82.35C142.667 82.4011 159.988 69.7867 160.086 69.4654C160.185 69.1404 159.708 64.0764 159.708 64.0764Z" fill="#FFAA94"/>
<path d="M178.857 40.7606C178.245 41.4689 177.561 42.4291 176.789 42.9658C176.203 43.3711 175.817 43.2798 175.256 42.8928C174.805 42.5788 174.368 42.2538 173.938 41.9106C173.116 41.2571 172.347 40.5488 171.601 39.8076C171.39 39.5995 171.19 39.406 170.953 39.322C170.949 39.2928 170.942 39.26 170.939 39.2308C170.899 39.0007 170.567 39.0738 170.567 39.2892C170.502 39.3001 170.436 39.322 170.363 39.3512C169.646 39.6543 168.987 40.3991 168.387 40.8847C167.564 41.5565 166.752 42.2392 165.947 42.9329C165.598 43.236 165.157 43.7982 164.753 43.9844C164.313 44.1853 164.145 43.6924 163.876 43.3309C163.195 42.4145 162.518 41.4944 161.837 40.578C161.692 40.3808 161.419 40.6474 161.564 40.8445C162.493 42.1005 163.425 43.3565 164.353 44.6124C164.415 44.6964 164.553 44.6781 164.622 44.6161C165.937 43.4331 167.276 42.2757 168.649 41.1585C168.922 40.9358 169.198 40.7131 169.475 40.494C169.661 40.348 169.843 40.2019 170.028 40.0559C170.254 39.9281 170.458 39.8514 170.644 39.8295L171.295 43.7325C171.335 43.9771 171.707 43.8822 171.667 43.6412L171.037 39.8733C171.186 39.9318 171.321 40.0376 171.434 40.1946C172.049 40.6255 172.577 41.29 173.156 41.7719C173.68 42.21 174.222 42.6299 174.779 43.0279C175.143 43.2871 175.686 43.8384 176.188 43.8055C176.647 43.7727 176.989 43.298 177.284 43.006C177.921 42.3743 178.529 41.7171 179.111 41.038C179.272 40.8518 179.006 40.5744 178.846 40.7642L178.857 40.7606Z" fill="#2D2644"/>
<path d="M141.877 67.4646C141.214 67.9867 140.657 68.6147 140.22 69.3376C140.093 69.5494 140.42 69.7429 140.548 69.5311C140.97 68.8374 141.502 68.2386 142.142 67.7384C142.335 67.5851 142.07 67.3113 141.877 67.4646Z" fill="#D96A6A"/>
<path d="M173.989 85.2306C173.971 84.986 173.589 84.9787 173.607 85.2233C174.433 95.7968 174.852 106.4 174.863 117.006C174.863 117.254 175.245 117.258 175.245 117.013C175.234 106.407 174.816 95.8041 173.989 85.2306Z" fill="#2D2644"/>
<path d="M144.505 65.7996C141.582 65.0876 138.655 64.372 135.732 63.6601C135.495 63.6016 135.389 63.9704 135.63 64.0288C138.553 64.7408 141.48 65.4564 144.403 66.1683C144.64 66.2268 144.745 65.858 144.505 65.7996Z" fill="#2D2644"/>
<path d="M162.864 13.184C161.681 13.1256 160.52 13.2461 159.373 13.5454C158.896 13.6696 159.078 14.4144 159.555 14.2903C160.64 14.0055 161.732 13.8923 162.853 13.9471C163.345 13.9726 163.359 13.2059 162.868 13.1803L162.864 13.184Z" fill="#2D2644"/>
<path d="M172.795 13.5564C171.346 12.9467 169.799 12.9284 168.252 12.9467C167.76 12.954 167.746 13.7171 168.237 13.7134C169.726 13.6951 171.193 13.7061 172.588 14.2939C173.039 14.4838 173.243 13.7463 172.795 13.5564Z" fill="#2D2644"/>
<path d="M160.996 16.8131V17.5799C160.996 18.0728 161.761 18.0874 161.761 17.5945V16.8277C161.761 16.3348 160.996 16.3202 160.996 16.8131Z" fill="#2D2644"/>
<path d="M169.697 16.8131V17.5799C169.697 18.0728 170.462 18.0874 170.462 17.5945V16.8277C170.462 16.3348 169.697 16.3202 169.697 16.8131Z" fill="#2D2644"/>
<path d="M162.951 25.2908C162.951 25.2908 166.534 24.4109 169.537 25.4989C169.013 28.0912 163.319 28.1168 162.951 25.2908Z" fill="white"/>
<path d="M164.506 20.8584C163.741 20.3838 163.352 19.9639 163.574 19.0147C163.705 18.4633 163.982 17.9412 164.113 17.3826C164.324 16.4881 164.356 15.6119 164.145 14.7174C164.087 14.4764 163.719 14.5677 163.774 14.8086C163.985 15.7104 163.934 16.5538 163.705 17.4484C163.545 18.0727 163.166 18.7007 163.075 19.336C162.944 20.2341 163.625 20.7635 164.313 21.1907C164.52 21.3221 164.717 20.9899 164.506 20.8621V20.8584Z" fill="#D96A6A"/>
<path d="M177.797 20.0771C176.468 20.5992 176.578 22.1545 176.865 23.2973C176.923 23.5383 177.295 23.447 177.237 23.206C176.989 22.2203 176.818 20.8694 177.983 20.413C178.212 20.3217 178.027 19.9895 177.801 20.0771H177.797Z" fill="#D96A6A"/>
<path d="M168.186 34.886C167.615 34.2653 167.123 33.5899 166.712 32.8524C166.592 32.637 166.257 32.8195 166.377 33.0349C166.807 33.798 167.32 34.5063 167.913 35.1489C168.081 35.3314 168.354 35.0649 168.186 34.8824V34.886Z" fill="#D96A6A"/>
<path d="M158.714 64.2771C158.714 64.2771 157.724 67.0117 159.755 69.7573C158.889 70.5898 158.444 70.8928 158.444 70.8928C158.444 70.8928 155.918 68.6803 156.817 64.6641C158.128 64.3538 158.717 64.2771 158.717 64.2771H158.714Z" fill="#2D2644"/>
<path d="M157.538 67.3184C157.123 67.3184 156.784 66.9788 156.784 66.5626V65.9054C156.784 65.4892 157.123 65.1497 157.538 65.1497C157.953 65.1497 158.291 65.4892 158.291 65.9054V66.5626C158.291 66.9788 157.953 67.3184 157.538 67.3184Z" fill="white"/>
</g>
<defs>
<clipPath id="clip0_81_4937">
<rect width="322" height="214" fill="white"/>
</clipPath>
</defs>
</svg>
