<svg width="178" height="247" viewBox="0 0 178 247" fill="none" xmlns="http://www.w3.org/2000/svg">
<g clip-path="url(#clip0_81_4551)">
<path d="M88.4779 239.218L15.7684 213.443C7.3129 210.444 2.89753 201.118 5.91037 192.613L68.1012 16.9834C71.1141 8.47836 80.4137 4.01643 88.8692 7.01537L161.579 32.7906C170.039 35.7909 174.456 45.1123 171.443 53.6174L109.252 229.247C106.239 237.752 96.9439 242.216 88.4839 239.215L88.4779 239.218Z" fill="#E88F6D"/>
<path d="M86.645 228.662C85.7361 228.501 84.8322 228.261 83.9499 227.953L25.6794 207.456C16.965 204.391 12.3766 194.884 15.4525 186.259L70.0388 33.3253C72.7816 25.6445 80.6398 21.1097 88.73 22.5414C89.6388 22.7025 90.5442 22.9379 91.4206 23.2495L149.691 43.7463C158.405 46.8119 162.992 56.3226 159.913 64.9424L105.33 217.882C102.587 225.563 94.7292 230.097 86.639 228.666L86.645 228.662Z" fill="#B3D1E8"/>
<path d="M79.6934 207.523C81.2125 209.711 89.2899 217.997 97.9842 226.703C94.6637 228.61 90.6826 229.378 86.639 228.666C85.7438 228.509 84.8293 228.271 83.9499 227.953L25.684 207.458C16.9681 204.397 12.3811 194.886 15.4542 186.269L38.9989 120.299C40.9831 124.07 43.5612 126.988 46.8924 127.979C59.4471 131.673 66.7109 140.335 62.3343 148.41C57.9578 156.485 84.7421 162.698 85.5487 174.639C86.3553 186.579 76.1808 202.481 79.6874 207.527L79.6934 207.523Z" fill="#FDF0E0"/>
<path d="M159.918 64.9439L146.431 102.737C144.055 103.791 142.034 104.509 140.586 104.726C131.538 106.077 136.529 86.309 134.704 80.0859C132.878 73.8629 127.844 77.3995 117.885 75.6344C107.924 73.8739 111.383 62.6861 114.847 51.4998C116.093 47.4866 114.839 39.4344 112.647 30.7294L149.693 43.7569C158.408 46.8179 162.995 56.3287 159.922 64.9453L159.918 64.9439Z" fill="#FDF0E0"/>
<path d="M45.5152 143.958C34.5765 145.25 45.9636 166.161 45.9636 166.161C45.9636 166.161 60.5147 142.184 45.5152 143.958ZM45.409 152.787C43.8379 152.508 42.7932 151.003 43.0718 149.422C43.3549 147.844 44.8568 146.79 46.4294 147.065C48.0006 147.345 49.0452 148.85 48.7667 150.43C48.4836 152.009 46.9817 153.062 45.409 152.787Z" fill="#E06A3C"/>
<path d="M133.87 52.4665C123.917 47.7644 122.569 71.5906 122.569 71.5906C122.569 71.5906 147.51 58.9147 133.87 52.4665ZM129.134 59.9206C127.948 58.8481 127.852 57.0141 128.924 55.8198C129.995 54.6254 131.822 54.5233 133.008 55.5959C134.194 56.6684 134.29 58.5024 133.219 59.6967C132.147 60.8911 130.32 60.9932 129.134 59.9206Z" fill="#E06A3C"/>
<path d="M49.5204 170.413C49.1704 170.302 48.9794 169.925 49.0889 169.578C49.1985 169.231 49.5711 169.032 49.9212 169.142L51.1378 169.516L51.1469 169.519C51.4924 169.628 51.6863 169.996 51.5798 170.349C51.4688 170.701 51.1007 170.901 50.7493 170.795L49.519 170.417L49.5204 170.413ZM56.0075 172.268C55.6711 172.162 55.4775 171.81 55.5674 171.461C55.6602 171.103 56.0266 170.893 56.3824 170.985C58.1221 171.443 59.9038 171.879 61.6653 172.284C62.0393 172.382 62.2464 172.724 62.1627 173.084C62.079 173.445 61.7233 173.669 61.3646 173.586C59.5849 173.176 57.7941 172.736 56.0408 172.274C56.0317 172.271 56.0181 172.266 56.009 172.264L56.0075 172.268ZM66.6511 174.716C66.3328 174.616 66.1365 174.288 66.2025 173.952C66.2771 173.588 66.6251 173.357 66.9836 173.424C68.7912 173.779 70.5937 174.101 72.3354 174.379C72.689 174.43 72.9445 174.777 72.8835 175.145C72.8239 175.508 72.4852 175.758 72.1239 175.699C70.3686 175.417 68.551 175.095 66.7252 174.735C66.7025 174.728 66.6798 174.72 66.6525 174.712L66.6511 174.716ZM77.4285 176.423C77.1285 176.328 76.9312 176.035 76.9686 175.71C77.0145 175.343 77.3425 175.08 77.7082 175.125C79.5499 175.339 81.3668 175.505 83.1074 175.612C83.4757 175.633 83.7503 175.95 83.7286 176.32C83.7023 176.689 83.3897 176.967 83.0213 176.946C81.2566 176.837 79.4155 176.668 77.5496 176.451C77.5058 176.447 77.4649 176.434 77.4285 176.423ZM88.3188 177.075C88.0506 176.99 87.8553 176.738 87.854 176.441C87.8501 176.073 88.1504 175.771 88.5154 175.77C90.4127 175.761 92.2258 175.67 93.9035 175.501C94.2695 175.465 94.5947 175.734 94.6287 176.101C94.6628 176.469 94.3946 176.796 94.0286 176.831C92.3101 177.003 90.4518 177.095 88.5198 177.103C88.4489 177.106 88.3824 177.095 88.3188 177.075ZM99.1525 175.926C98.9389 175.858 98.7598 175.681 98.705 175.443C98.6229 175.085 98.8423 174.722 99.1986 174.639C101.052 174.199 102.745 173.617 104.225 172.918C104.559 172.763 104.954 172.903 105.109 173.238C105.263 173.573 105.122 173.97 104.788 174.126C103.226 174.864 101.449 175.474 99.5041 175.936C99.3854 175.964 99.2616 175.96 99.1525 175.926ZM108.45 170.775C108.422 170.766 108.4 170.759 108.374 170.746C108.041 170.596 107.891 170.201 108.043 169.862C108.098 169.734 108.149 169.605 108.192 169.467C108.558 168.307 108.337 166.87 107.54 165.197C107.38 164.865 107.52 164.468 107.851 164.306C108.182 164.144 108.578 164.284 108.737 164.62C109.683 166.612 109.926 168.376 109.454 169.871C109.397 170.053 109.329 170.238 109.248 170.414C109.11 170.727 108.757 170.877 108.444 170.778L108.45 170.775ZM104.922 161.01C104.804 160.973 104.696 160.904 104.608 160.801C103.604 159.58 102.377 158.243 100.953 156.829C100.69 156.57 100.688 156.148 100.951 155.884C101.209 155.623 101.629 155.621 101.892 155.879C103.346 157.323 104.608 158.695 105.637 159.949C105.872 160.235 105.83 160.653 105.545 160.89C105.363 161.039 105.13 161.081 104.921 161.015L104.922 161.01ZM97.2356 153.245C97.1492 153.218 97.0686 153.172 96.9938 153.108C95.7453 151.996 94.3583 150.8 92.8665 149.555C92.5855 149.321 92.5477 148.902 92.7833 148.615C93.0175 148.332 93.4407 148.29 93.7202 148.529C95.2197 149.78 96.6234 150.987 97.8782 152.111C98.1517 152.353 98.1775 152.778 97.9311 153.052C97.7516 153.257 97.4751 153.325 97.2342 153.249L97.2356 153.245ZM88.854 146.225C88.7767 146.2 88.7038 146.162 88.6397 146.112C87.2311 144.984 85.7983 143.854 84.3535 142.73C84.0651 142.503 84.0122 142.085 84.2388 141.795C84.4653 141.504 84.8823 141.45 85.1706 141.677C86.6185 142.807 88.0559 143.938 89.4676 145.072C89.7546 145.303 89.8029 145.72 89.5718 146.009C89.3971 146.23 89.1071 146.31 88.8526 146.229L88.854 146.225ZM80.2428 139.489C80.1701 139.466 80.1016 139.429 80.0361 139.384L75.7053 136.048C75.4155 135.826 75.3581 135.406 75.5861 135.111C75.8126 134.821 76.231 134.762 76.5194 134.988L80.8502 138.324C81.14 138.546 81.1974 138.966 80.9695 139.261C80.7918 139.491 80.5005 139.575 80.2413 139.494L80.2428 139.489ZM71.5915 132.801C71.5188 132.778 71.4458 132.74 71.3818 132.689C69.8942 131.527 68.4583 130.391 67.0891 129.28C66.8022 129.049 66.7598 128.629 66.9909 128.34C67.222 128.051 67.6406 128.007 67.9276 128.239C69.2891 129.341 70.7204 130.476 72.2004 131.631C72.4887 131.858 72.5416 132.277 72.3151 132.567C72.1389 132.793 71.8475 132.877 71.5884 132.795L71.5915 132.801ZM63.109 125.895C63.0272 125.869 62.9466 125.823 62.8749 125.766C61.2662 124.369 59.9436 123.143 58.8246 122.016C58.5674 121.754 58.5657 121.331 58.8274 121.072C59.0891 120.813 59.5098 120.81 59.767 121.072C60.8586 122.175 62.1582 123.379 63.7439 124.754C64.0234 124.992 64.0492 125.418 63.812 125.694C63.631 125.904 63.3545 125.972 63.109 125.895ZM55.6461 117.959C55.4916 117.91 55.3589 117.808 55.2722 117.655C54.5836 116.463 54.3289 115.448 54.4879 114.564C54.5185 114.387 54.5613 114.22 54.6132 114.056C54.8698 113.242 55.3756 112.558 56.1249 112.02C56.4234 111.803 56.8407 111.874 57.0517 112.172C57.2672 112.471 57.1964 112.886 56.8979 113.103C56.386 113.474 56.0516 113.917 55.8815 114.456C55.8469 114.565 55.8214 114.678 55.799 114.796C55.6985 115.353 55.9114 116.088 56.4283 116.985C56.6124 117.304 56.5038 117.712 56.1852 117.898C56.0147 117.995 55.8249 118.01 55.6521 117.956L55.6461 117.959ZM61.5003 111.807C61.2457 111.727 61.0538 111.495 61.0391 111.209C61.0156 110.84 61.2945 110.526 61.6622 110.502C63.2279 110.403 65.0413 110.437 67.2096 110.598C67.5779 110.619 67.8496 110.946 67.8188 111.313C67.7925 111.682 67.4708 111.957 67.1053 111.927C65.0005 111.771 63.2414 111.738 61.7375 111.832C61.6561 111.836 61.5745 111.825 61.4972 111.801L61.5003 111.807ZM72.3864 112.488C72.0819 112.392 71.8874 112.089 71.9294 111.766C71.9799 111.4 72.311 111.143 72.6752 111.192C74.2589 111.4 75.9821 111.658 78.0956 111.993C78.4629 112.048 78.7047 112.391 78.6437 112.759C78.5842 113.122 78.2455 113.371 77.8796 113.311C75.7766 112.974 74.0671 112.722 72.4939 112.512C72.4546 112.509 72.4183 112.498 72.3819 112.486L72.3864 112.488ZM83.1757 114.173C82.8666 114.076 82.6659 113.761 82.7213 113.427C82.7809 113.064 83.1287 112.817 83.4886 112.88L83.6111 112.904C85.3862 113.202 87.1522 113.498 88.8711 113.769C89.2293 113.822 89.4802 114.167 89.4206 114.53C89.3611 114.893 89.0224 115.143 88.6565 115.083C86.9331 114.811 85.1671 114.515 83.3874 114.215L83.2635 114.196C83.2317 114.186 83.2029 114.182 83.1757 114.173ZM93.9663 115.854C93.6663 115.759 93.4659 115.46 93.5093 115.132C93.5552 114.764 93.8909 114.509 94.2565 114.554C96.3509 114.822 98.112 114.991 99.6425 115.067C100.011 115.088 100.293 115.398 100.271 115.768C100.251 116.133 99.9413 116.417 99.5716 116.401C98.0064 116.324 96.2105 116.155 94.0829 115.88C94.0436 115.878 94.0027 115.865 93.9663 115.854ZM104.843 116.074C104.629 116.007 104.45 115.83 104.395 115.592C104.313 115.234 104.533 114.871 104.889 114.788C105.392 114.665 105.815 114.512 106.154 114.327C106.45 114.165 106.634 113.946 106.729 113.645C106.88 113.165 106.817 112.477 106.548 111.603C106.439 111.252 106.632 110.876 106.987 110.767C107.337 110.656 107.71 110.85 107.818 111.205C108.178 112.363 108.235 113.291 107.997 114.045C107.797 114.68 107.392 115.17 106.788 115.502C106.346 115.745 105.809 115.942 105.193 116.089C105.074 116.117 104.95 116.113 104.841 116.079L104.843 116.074ZM104.537 107.156C104.392 107.11 104.262 107.014 104.176 106.876C103.359 105.568 102.357 104.101 101.121 102.395C100.905 102.096 100.972 101.68 101.266 101.461C101.564 101.244 101.98 101.305 102.195 101.604C103.453 103.337 104.472 104.829 105.304 106.167C105.5 106.48 105.405 106.892 105.094 107.085C104.921 107.191 104.719 107.213 104.542 107.157L104.537 107.156ZM98.1646 98.2672C98.0419 98.2285 97.9261 98.1518 97.8415 98.0397C96.7578 96.6428 95.6252 95.2103 94.462 93.7481C94.2331 93.4599 94.2812 93.038 94.5675 92.8117C94.8552 92.581 95.2707 92.6266 95.4996 92.9149C96.6673 94.3785 97.8015 95.8215 98.8898 97.2199C99.1128 97.5113 99.0616 97.9272 98.7738 98.158C98.5949 98.2975 98.3646 98.3303 98.1646 98.2672ZM91.3621 89.6955C91.2394 89.6567 91.1327 89.5829 91.0452 89.4799C89.9052 88.0552 88.7591 86.6185 87.6373 85.1995C87.4083 84.9112 87.461 84.4907 87.7473 84.2645C88.035 84.0337 88.455 84.0808 88.6779 84.3722C89.7983 85.7958 90.9414 87.2265 92.0828 88.6467C92.3117 88.9349 92.2651 89.3523 91.9819 89.5845C91.8015 89.7286 91.5698 89.766 91.3652 89.7015L91.3621 89.6955ZM84.6029 81.0972C84.4757 81.057 84.3599 80.9803 84.2753 80.8682C83.0451 79.2542 81.9757 77.8116 81.0102 76.4519C80.7946 76.1528 80.8655 75.7381 81.164 75.5207C81.4624 75.3034 81.8798 75.3748 82.0907 75.6724C83.047 77.0141 84.1087 78.4493 85.3327 80.0513C85.5557 80.3427 85.4985 80.7617 85.2076 80.9865C85.0287 81.126 84.8044 81.1557 84.6044 81.0926L84.6029 81.0972ZM78.2898 72.1623C78.1444 72.1164 78.0148 72.0203 77.9283 71.8825C76.7885 70.0609 75.8913 68.4213 75.2596 67.0012C75.11 66.6676 75.261 66.2681 75.5982 66.1182C75.9322 65.9624 76.3236 66.116 76.4764 66.4556C77.0815 67.8171 77.9494 69.4072 79.0567 71.1733C79.2528 71.4864 79.1578 71.8985 78.8469 72.0918C78.6735 72.1979 78.4717 72.2197 78.2944 72.1637L78.2898 72.1623ZM74.5756 62.1029C74.2574 62.0025 74.0611 61.6743 74.1271 61.3384C74.155 61.1865 74.1951 61.0434 74.2384 60.9063C74.2946 60.7281 74.363 60.5588 74.4405 60.3923C75.1389 58.9546 76.555 58.0147 78.6486 57.605C79.0065 57.532 79.3568 57.7681 79.427 58.1319C79.4986 58.4911 79.2625 58.8436 78.9 58.9152C77.2156 59.248 76.1485 59.9212 75.6301 60.9786C75.5773 61.0825 75.5367 61.1953 75.5007 61.3095C75.4704 61.4055 75.4461 61.4983 75.4249 61.5971C75.3563 61.9573 75.0068 62.1937 74.6438 62.1244C74.6211 62.1173 74.5984 62.1101 74.5711 62.1015L74.5756 62.1029ZM120.123 70.8039C120.096 70.7953 120.069 70.7867 120.043 70.7735C120.025 70.7678 118.087 69.8601 115.069 68.5716C114.731 68.4246 114.574 68.0336 114.72 67.6978C114.868 67.3574 115.256 67.2036 115.591 67.3446C118.63 68.6448 120.586 69.5582 120.604 69.564C120.935 69.7187 121.08 70.1159 120.925 70.4489C120.783 70.7558 120.437 70.9028 120.123 70.8039ZM84.0084 58.8034C83.7129 58.7102 83.5156 58.4168 83.5502 58.1012C83.5916 57.7324 83.915 57.4676 84.2821 57.5081C85.9029 57.6777 87.7355 57.9845 89.7299 58.4278C90.0902 58.5213 90.3124 58.8627 90.2332 59.2246C90.154 59.5865 89.7984 59.8109 89.4382 59.7325C87.4907 59.299 85.7066 58.9974 84.1386 58.8344C84.0948 58.8306 84.0479 58.8209 84.007 58.808L84.0084 58.8034ZM110.089 66.5031C110.089 66.5031 110.057 66.4931 110.039 66.4873C108.455 65.852 106.746 65.1871 104.965 64.525C104.621 64.3963 104.446 64.0147 104.576 63.6686C104.705 63.3225 105.094 63.1338 105.43 63.2748C107.219 63.9398 108.938 64.6075 110.531 65.2457C110.872 65.3836 111.035 65.7714 110.898 66.1101C110.77 66.4365 110.407 66.6035 110.08 66.5003L110.089 66.5031ZM94.6615 61.0787C94.3205 60.9712 94.1206 60.6067 94.2257 60.258C94.3276 59.9033 94.6971 59.6983 95.0486 59.8041C96.783 60.3111 98.5376 60.8646 100.278 61.4487C100.625 61.5682 100.811 61.9436 100.696 62.294C100.582 62.6398 100.207 62.8282 99.8664 62.7207L99.8528 62.7164C98.1355 62.1395 96.3944 61.5902 94.6782 61.089L94.6646 61.0847L94.6615 61.0787Z" fill="#45A5D5"/>
<path d="M105.947 63.9155C105.468 61.7096 100.672 60.8647 98.8632 60.2288C98.6278 59.5014 98.1103 57.9415 97.52 56.3585C97.8638 56.457 98.413 56.7759 98.5852 56.2775C98.6743 55.5671 97.6046 55.6467 97.1516 55.4033C97.1313 55.3567 97.1156 55.3115 97.0953 55.2649C97.4511 55.3571 98.0189 55.712 98.2059 55.1983C98.2857 54.4699 97.1679 54.5594 96.6996 54.3011C93.6362 47.0746 94.1174 56.8778 94.6528 59.3478C93.3671 59.0979 92.0045 59.266 90.8076 58.6874C90.0252 57.3805 89.7404 56.7782 89.8117 58.6596C89.4574 58.8795 89.3036 59.3987 89.5021 59.7678C88.3811 61.4992 88.5937 61.2849 90.3114 60.3396C91.5688 60.6157 92.6277 61.3466 93.7423 61.9645C92.7327 63.8818 86.8055 73.0852 93.5479 67.3343C94.0629 67.3812 94.915 68.1022 95.2403 67.4512C95.3664 66.8931 94.6467 66.8771 94.2901 66.7243C94.3229 66.6995 94.3526 66.6687 94.3854 66.6439C94.9064 66.6877 95.7602 67.4192 96.0915 66.7651C96.2159 66.1964 95.4738 66.1884 95.1094 66.0282C96.1952 65.0896 97.2015 64.1812 97.7522 63.6716C99.3854 63.8652 105.094 65.7315 105.949 63.926L105.947 63.9155Z" fill="#6292AB"/>
<path d="M76.3475 93.2288L72.9454 92.1305L71.9561 93.5869L68.898 92.6021L75.6851 84.0317L78.9509 85.087L79.4499 96.0062L76.316 94.9924L76.3475 93.2288ZM76.4012 90.9196L76.4611 87.0699L74.2736 90.2334L76.4012 90.9196Z" fill="#E06A3C"/>
<path d="M82.5253 89.2041L85.0439 90.0136L84.6686 91.1714C85.0712 90.7508 85.4353 90.4838 85.7536 90.3782C86.0718 90.2726 86.4188 90.2816 86.8006 90.402C87.2007 90.5282 87.5922 90.7924 87.9857 91.1929L86.5333 92.8499C86.2583 92.6124 86.0285 92.4696 85.8435 92.4062C85.489 92.2943 85.1715 92.35 84.8838 92.5807C84.4722 92.9031 84.0877 93.6309 83.7211 94.7612L82.9594 97.1284L80.2559 96.2555L82.5327 89.1964L82.5253 89.2041Z" fill="#E06A3C"/>
<path d="M87.2505 94.6485C87.5998 93.573 88.2431 92.8013 89.1941 92.3376C90.1405 91.8725 91.2305 91.8395 92.4595 92.2373C93.8658 92.6909 94.7984 93.4423 95.2512 94.4945C95.6135 95.3423 95.6433 96.246 95.3332 97.2133C94.9856 98.2994 94.3377 99.0697 93.3958 99.5363C92.4554 99.9983 91.3517 100.027 90.0909 99.6191C88.9619 99.2529 88.145 98.6737 87.6325 97.874C87.0057 96.8824 86.8829 95.8137 87.2536 94.6545L87.2505 94.6485ZM89.9524 95.5109C89.7535 96.1415 89.7246 96.6448 89.8826 97.0313C90.0375 97.4118 90.3067 97.6675 90.6931 97.7894C91.084 97.9127 91.4484 97.8669 91.7906 97.6533C92.1343 97.4351 92.4115 97.0001 92.6237 96.3435C92.8168 95.7312 92.8428 95.237 92.6879 94.8565C92.533 94.4761 92.2714 94.2278 91.9001 94.1056C91.5046 93.9809 91.1358 94.0253 90.7815 94.2451C90.4273 94.465 90.1499 94.8849 89.9493 95.5049L89.9524 95.5109Z" fill="#E06A3C"/>
<path d="M102.881 103.564L100.367 102.755L100.738 101.611C100.214 101.958 99.7267 102.172 99.2829 102.248C98.839 102.324 98.3346 102.275 97.7814 102.095C97.0419 101.857 96.5321 101.445 96.2552 100.865C95.9782 100.286 95.9868 99.5297 96.2885 98.605L97.7356 94.1127L100.439 94.9856L99.1897 98.8671C99.0499 99.3103 99.0277 99.65 99.1322 99.8889C99.2368 100.128 99.4338 100.296 99.7293 100.389C100.052 100.491 100.353 100.455 100.64 100.274C100.927 100.093 101.173 99.6786 101.381 99.0357L102.477 95.6386L105.167 96.5073L102.89 103.566L102.881 103.564Z" fill="#E06A3C"/>
<path d="M106.792 97.0299L109.297 97.8351L108.924 98.9838C109.449 98.6367 109.937 98.419 110.386 98.3444C110.835 98.2653 111.334 98.317 111.883 98.4951C112.627 98.7348 113.136 99.1469 113.418 99.728C113.695 100.308 113.686 101.064 113.383 101.993L111.938 106.481L109.234 105.608L110.483 101.726C110.623 101.283 110.645 100.943 110.541 100.704C110.435 100.47 110.238 100.302 109.942 100.209C109.615 100.106 109.314 100.142 109.032 100.324C108.749 100.506 108.503 100.921 108.296 101.564L107.202 104.952L104.512 104.083L106.789 97.0239L106.792 97.0299Z" fill="#E06A3C"/>
<path d="M124.082 99.6404L120.938 109.385L118.419 108.576L118.749 107.529C118.259 107.862 117.843 108.057 117.498 108.119C117.044 108.197 116.58 108.161 116.105 108.006C115.147 107.699 114.536 107.1 114.265 106.2C113.997 105.307 114.028 104.337 114.369 103.289C114.747 102.122 115.311 101.315 116.07 100.876C116.828 100.437 117.634 100.355 118.496 100.632C118.914 100.763 119.272 100.962 119.568 101.211C119.863 101.465 120.099 101.775 120.269 102.14L121.359 98.7663L124.076 99.6435L124.082 99.6404ZM119.387 104.967C119.563 104.41 119.584 103.964 119.439 103.617C119.293 103.27 119.042 103.035 118.683 102.921C118.37 102.822 118.066 102.867 117.77 103.06C117.474 103.253 117.227 103.658 117.027 104.273C116.846 104.849 116.816 105.307 116.945 105.644C117.078 105.982 117.303 106.204 117.626 106.306C117.971 106.415 118.299 106.372 118.616 106.176C118.933 105.98 119.191 105.574 119.389 104.963L119.387 104.967Z" fill="#E06A3C"/>
<path d="M70.8112 100.496L69.944 103.181L71.423 103.658L70.7838 105.637L69.3047 105.16L68.5012 107.66C68.406 107.962 68.3699 108.171 68.3942 108.284C68.433 108.462 68.563 108.589 68.7858 108.659C68.9858 108.722 69.2804 108.755 69.6755 108.754L69.2709 110.686C68.558 110.617 67.9136 110.489 67.3363 110.307C66.6635 110.095 66.2028 109.844 65.9394 109.57C65.676 109.296 65.5277 108.958 65.4887 108.559C65.4497 108.159 65.5586 107.561 65.8111 106.776L66.6088 104.295L65.6179 103.982L66.26 101.994L67.251 102.307L67.668 101.016L70.8157 100.497L70.8112 100.496Z" fill="#E06A3C"/>
<path d="M73.5739 101.387L76.2638 102.256L75.1067 105.845C75.5945 105.582 76.0478 105.428 76.4633 105.379C76.8774 105.333 77.3307 105.386 77.8247 105.547C78.5552 105.782 79.0604 106.193 79.3359 106.777C79.6114 107.361 79.6043 108.113 79.3026 109.038L77.857 113.525L75.1534 112.652L76.4028 108.771C76.5427 108.328 76.5648 107.988 76.4603 107.749C76.3543 107.515 76.1573 107.347 75.8618 107.254C75.5345 107.151 75.2334 107.186 74.951 107.368C74.6686 107.551 74.4228 107.965 74.215 108.608L73.1212 111.996L70.4313 111.128L73.5754 101.383L73.5739 101.387Z" fill="#E06A3C"/>
<path d="M88.1835 113.698L82.7901 111.957C82.6986 112.405 82.7099 112.765 82.8285 113.039C82.9911 113.427 83.2784 113.688 83.6998 113.826C83.9634 113.909 84.2382 113.926 84.5163 113.868C84.6878 113.831 84.8944 113.731 85.1289 113.574L87.7015 114.672C87.069 115.251 86.4135 115.602 85.7396 115.726C85.0657 115.85 84.1953 115.741 83.1254 115.393C82.195 115.095 81.5063 114.727 81.0595 114.289C80.6127 113.852 80.3044 113.293 80.136 112.606C79.9721 111.922 80.0127 111.191 80.2623 110.416C80.6202 109.313 81.2573 108.529 82.1798 108.076C83.1037 107.619 84.1817 107.592 85.4199 107.993C86.4262 108.321 87.1681 108.725 87.652 109.22C88.1358 109.714 88.4355 110.301 88.5524 110.976C88.668 111.655 88.5787 112.461 88.2755 113.391L88.179 113.697L88.1835 113.698ZM85.8621 111.519C85.9778 110.978 85.9597 110.56 85.8044 110.26C85.6492 109.96 85.3898 109.752 85.0185 109.63C84.5912 109.495 84.1938 109.551 83.8266 109.812C83.5966 109.97 83.3866 110.256 83.2085 110.662L85.8575 111.517L85.8621 111.519Z" fill="#E06A3C"/>
<path d="M61.479 115.518L64.3235 116.436L63.5876 122.222L66.8452 117.251L69.6805 118.166L69.4279 124.1L72.2113 118.984L75.0421 119.897L69.7614 128.953L66.826 128.007L67.1053 121.322L63.4329 126.911L60.493 125.964L61.4776 115.523L61.479 115.518Z" fill="#E06A3C"/>
<path d="M73.1458 126.162C73.4951 125.087 74.1384 124.315 75.0893 123.851C76.0358 123.386 77.1258 123.353 78.3548 123.751C79.7611 124.204 80.6937 124.956 81.1464 126.008C81.5088 126.856 81.5386 127.76 81.2284 128.727C80.8763 129.812 80.233 130.583 79.2911 131.05C78.3507 131.512 77.247 131.54 75.9862 131.133C74.8571 130.766 74.0357 130.186 73.5278 129.388C72.9009 128.396 72.7782 127.327 73.1489 126.168L73.1458 126.162ZM75.8462 127.029C75.6473 127.66 75.6184 128.163 75.7764 128.549C75.9313 128.93 76.2005 129.186 76.5869 129.307C76.9779 129.431 77.3422 129.385 77.6845 129.171C78.0282 128.953 78.3054 128.518 78.5175 127.862C78.7106 127.249 78.7366 126.755 78.5817 126.375C78.4268 125.994 78.1653 125.746 77.794 125.624C77.3985 125.499 77.0296 125.543 76.6753 125.763C76.3211 125.983 76.0437 126.403 75.8431 127.023L75.8462 127.029Z" fill="#E06A3C"/>
<path d="M83.681 125.642L86.1996 126.452L85.8244 127.609C86.227 127.189 86.5897 126.926 86.9093 126.816C87.2275 126.71 87.5746 126.719 87.9564 126.84C88.3564 126.966 88.7465 127.235 89.1414 127.631L87.6876 129.292C87.4126 129.055 87.1828 128.912 86.9979 128.849C86.6433 128.737 86.3259 128.792 86.0381 129.023C85.6266 129.346 85.242 130.073 84.8755 131.204L84.1137 133.571L81.4102 132.698L83.687 125.639L83.681 125.642Z" fill="#E06A3C"/>
<path d="M91.0722 125.06L93.7712 125.931L90.6272 135.676L87.9282 134.804L91.0722 125.06Z" fill="#E06A3C"/>
<path d="M102.88 128.87L99.7363 138.615L97.2177 137.805L97.5478 136.759C97.0579 137.092 96.6415 137.287 96.297 137.349C95.8426 137.427 95.3791 137.391 94.9032 137.236C93.9469 136.924 93.3318 136.323 93.0639 135.43C92.7959 134.536 92.8269 133.566 93.1676 132.518C93.5457 131.351 94.1115 130.54 94.8698 130.101C95.628 129.662 96.4338 129.58 97.296 129.857C97.7142 129.988 98.0716 130.187 98.3678 130.436C98.6626 130.69 98.8995 131 99.0692 131.365L100.159 127.991L102.876 128.868L102.88 128.87ZM98.186 134.197C98.3619 133.639 98.3825 133.194 98.2372 132.846C98.0918 132.499 97.841 132.264 97.4819 132.151C97.1683 132.052 96.8642 132.097 96.5684 132.29C96.2726 132.483 96.0251 132.887 95.826 133.503C95.6444 134.078 95.6149 134.536 95.7435 134.873C95.8766 135.212 96.1016 135.433 96.4243 135.535C96.7698 135.644 97.098 135.602 97.4149 135.406C97.7318 135.209 97.9883 134.808 98.1875 134.192L98.186 134.197Z" fill="#E06A3C"/>
</g>
<defs>
<clipPath id="clip0_81_4551">
<rect width="116.067" height="221.583" fill="white" transform="translate(66.6614) rotate(17.5081)"/>
</clipPath>
</defs>
</svg>
