<svg width="260" height="235" viewBox="0 0 260 235" fill="none" xmlns="http://www.w3.org/2000/svg">
<g clip-path="url(#clip0_81_4615)">
<path d="M195.817 12.6048L196.325 49.9563L200.402 49.9008L199.893 12.5493L195.817 12.6048Z" fill="#153433"/>
<path d="M161.833 13.528L162.341 50.8794L166.418 50.8239L165.909 13.4724L161.833 13.528Z" fill="#153433"/>
<path d="M158.945 16.7865C157.699 14.7675 156.749 4.20125 159.825 2.86144C162.896 1.52164 191.597 -2.25282 201.946 1.88535C204.15 2.76495 204.168 10.5922 203.586 15.97C203.33 18.3267 194.323 19.5143 193.985 15.7659C193.807 13.7803 193.971 10.9262 194.115 9.07427C194.197 8.05736 193.414 7.18147 192.394 7.14436C186.789 6.94395 170.616 6.52085 169.9 8.34684C169.032 10.5551 170.66 16.7976 167.492 17.0834C164.324 17.3692 160.196 18.8055 158.949 16.7865H158.945Z" fill="#ECB771"/>
<path d="M155.577 50.3003L205.408 49.7781L205.458 54.5693C205.461 54.8513 205.233 55.0838 204.951 55.0868L156.141 55.5982C155.859 55.6011 155.626 55.3735 155.623 55.0914L155.573 50.3003L155.577 50.3003Z" fill="#F4D4AA"/>
<path d="M205.403 49.5394L155.572 50.105L155.577 50.5355L205.407 49.9699L205.403 49.5394Z" fill="#153433"/>
<path d="M227.998 212.249C230.083 211.871 235.013 215.289 235.959 220.507C236.923 225.829 235.762 231.322 233.677 231.701C231.589 232.079 230.547 232.268 228.083 230.557C225.62 228.846 222.775 225.05 222.872 219.642C222.968 214.235 224.867 212.813 227.998 212.246V212.249Z" fill="#F4D4AA"/>
<path d="M229.886 222.689C230.454 225.822 230.546 232.272 228.08 230.565C225.616 228.854 222.582 224.014 222.868 219.65C223.153 215.285 224.489 212.242 225.91 213.385C227.327 214.528 229.319 219.557 229.886 222.689Z" fill="#153433"/>
<path d="M224.489 210.731C224.11 208.646 224.396 204.281 224.396 204.281L214.15 207.217C214.15 207.217 212.155 214.046 215.285 213.481C215.504 213.441 215.745 213.404 215.994 213.37C216.09 214.116 216.298 214.836 216.71 215.382C218.131 217.282 220.119 222.311 221.354 223.164C222.586 224.018 225.717 223.45 226.381 221.175C226.841 219.598 224.667 214.881 223.283 212.127C224.107 211.793 224.6 211.355 224.489 210.735V210.731Z" fill="#45A5D5"/>
<path d="M211.494 216.321C214.392 215.01 220.408 217.939 220.69 225.436C220.972 232.933 220.115 234.165 215.942 234.922C211.769 235.679 208.738 230.839 207.981 226.664C207.414 223.532 207.51 218.124 211.494 216.324V216.321Z" fill="#F4D4AA"/>
<path d="M211.494 216.321C212.726 217.174 216.803 221.828 216.517 226.193C216.231 230.557 215.519 234.042 213.646 234.863C211.773 235.679 207.291 230.817 207.306 223.947C207.325 217.078 210.263 215.467 211.498 216.324L211.494 216.321Z" fill="#153433"/>
<path d="M217.355 213.849C219.5 213.838 221.584 213.366 223.547 212.509C224.018 212.305 224.159 211.578 223.899 211.169C223.584 210.679 223.064 210.598 222.56 210.817C222.449 210.865 222.43 210.872 222.504 210.843C222.441 210.869 222.374 210.895 222.311 210.921C222.215 210.958 222.115 210.999 222.018 211.032C221.788 211.117 221.558 211.195 221.325 211.27C220.891 211.407 220.453 211.522 220.008 211.615C219.785 211.663 219.563 211.704 219.34 211.741C219.307 211.748 218.988 211.793 219.132 211.774C219.028 211.789 218.925 211.8 218.821 211.811C218.335 211.863 217.845 211.886 217.355 211.889C216.844 211.889 216.354 212.338 216.376 212.869C216.398 213.396 216.806 213.849 217.355 213.849Z" fill="black"/>
<path d="M129.948 210.817C127.863 210.42 122.904 213.793 121.91 219.004C120.897 224.319 122.006 229.823 124.091 230.22C126.176 230.617 127.214 230.817 129.696 229.129C132.178 227.444 135.052 223.673 135.004 218.262C134.956 212.854 133.072 211.414 129.948 210.817Z" fill="#F4D4AA"/>
<path d="M127.964 221.238C127.366 224.363 127.218 230.817 129.696 229.129C132.178 227.444 135.253 222.63 135.004 218.262C134.756 213.894 133.45 210.839 132.022 211.971C130.594 213.099 128.557 218.113 127.964 221.238Z" fill="#153433"/>
<path d="M133.472 209.329C133.869 207.243 133.624 202.878 133.624 202.878L143.84 205.907C143.84 205.907 145.773 212.754 142.65 212.16C142.431 212.119 142.193 212.079 141.945 212.042C141.841 212.788 141.626 213.504 141.21 214.046C139.771 215.931 137.738 220.941 136.495 221.788C135.256 222.63 132.129 222.036 131.488 219.75C131.042 218.169 133.261 213.47 134.667 210.731C133.847 210.39 133.357 209.948 133.472 209.329Z" fill="#45A5D5"/>
<path d="M141.466 214.049C138.476 212.966 132.701 216.343 132.994 223.84C133.287 231.337 134.233 232.499 138.45 232.937C142.668 233.371 145.324 228.312 145.758 224.092C146.085 220.927 145.573 215.541 141.462 214.049H141.466Z" fill="#F4D4AA"/>
<path d="M141.466 214.049C140.301 214.996 136.596 219.947 137.215 224.274C137.835 228.605 138.81 232.027 140.743 232.699C142.675 233.371 146.771 228.178 146.229 221.331C145.688 214.484 142.631 213.103 141.47 214.049H141.466Z" fill="#153433"/>
<path d="M140.583 210.557C139.582 210.542 138.855 210.461 137.935 210.256C137.074 210.067 136.065 209.733 135.39 209.433C134.923 209.225 134.318 209.28 134.051 209.785C133.825 210.212 133.903 210.902 134.403 211.125C136.358 212.001 138.439 212.483 140.583 212.517C141.095 212.524 141.585 212.06 141.563 211.537C141.54 210.999 141.132 210.565 140.583 210.557Z" fill="black"/>
<path d="M224.889 206.593H133.431C129.993 206.593 127.207 203.802 127.207 200.362V61.5048C127.207 58.0643 129.996 55.2771 133.435 55.2771H224.893C228.332 55.2771 231.118 58.068 231.118 61.5085V200.366C231.118 203.806 228.328 206.593 224.889 206.593Z" fill="#F4D4AA"/>
<path d="M231.114 73.0879L231.121 179.218C224.455 177.292 217.111 171.421 214.44 166.021C210.864 158.776 212.696 153.365 207.173 149.416C201.649 145.463 160.414 148.752 152.661 142.795C144.909 136.838 151.894 108.84 149.605 105.778C147.316 102.716 135.728 104.401 133.268 98.1619C132.333 95.8015 129.892 93.6712 127.207 91.7116V91.7004L127.21 73.0879C127.21 63.2491 135.171 55.2771 145.001 55.2771H213.319C223.153 55.2771 231.11 63.2528 231.11 73.0917L231.114 73.0879Z" fill="#ECB771"/>
<path d="M198.181 206.59H145.005C135.171 206.59 127.203 198.625 127.203 188.79L127.211 155.209C130.701 154.141 134.604 154.1 138.525 156.308C150.569 163.096 135.661 181.961 155.889 182.993C176.121 184.024 178.409 187.09 184.103 194.22C185.936 196.521 191.359 201.401 198.181 206.59Z" fill="#ECB771"/>
<path d="M130.416 74.5391C132.945 67.855 140.891 66.285 147.171 65.8582C155.006 65.3275 162.874 65.116 170.723 64.9749C178.702 64.8339 186.689 64.845 194.668 65.0158C200.355 65.1382 206.079 65.1976 211.728 65.8991C217.185 66.5782 223.632 67.8364 227.43 72.1824C228.261 73.1325 229.641 71.7445 228.814 70.7981C225.286 66.7675 219.641 65.2013 214.551 64.3477C208.931 63.4087 203.218 63.2714 197.532 63.123C180.891 62.6887 164.168 62.8038 147.55 63.8727C140.157 64.3477 131.465 66.2442 128.527 74.0158C128.082 75.196 129.97 75.7045 130.412 74.5354L130.416 74.5391Z" fill="black"/>
<path d="M130.13 67.1868C134.025 63.3567 139.912 62.4437 145.127 61.9909C151.43 61.4454 157.795 61.2264 164.113 60.974C179.374 60.3653 194.664 60.499 209.91 61.3674C212.029 61.4899 214.15 61.6235 216.269 61.772C218.083 61.9019 219.926 61.9538 221.718 62.2804C224.177 62.7295 227.238 63.6907 227.642 66.5411C227.816 67.7844 229.701 67.2536 229.526 66.0215C228.681 60.0091 220.112 60.0833 215.653 59.7715C207.592 59.2111 199.513 58.8622 191.433 58.7175C176.458 58.4503 161.431 58.8622 146.493 59.9237C140.324 60.3616 133.365 61.2561 128.746 65.7988C127.849 66.6821 129.232 68.0664 130.13 67.1831V67.1868Z" fill="black"/>
<path d="M140.045 76.0645C137.849 76.9218 136.436 78.7144 135.523 80.8447C133.513 85.5285 133.261 91.0064 133.094 96.0242C132.916 101.324 133.086 106.635 133.368 111.927C133.413 112.755 134.704 112.759 134.659 111.927C134.244 104.111 133.917 96.1096 134.982 88.3268C135.412 85.1907 136.009 81.3866 138.168 78.9037C138.799 78.1763 139.626 77.6047 140.39 77.3078C141.158 77.0072 140.824 75.7564 140.045 76.0608V76.0645Z" fill="white"/>
<path d="M133.428 119.569C132.771 125.53 133.049 131.65 133.149 137.632C133.264 144.35 133.476 151.067 133.75 157.778C133.821 159.481 133.865 161.192 133.984 162.892C134.043 163.716 135.334 163.723 135.275 162.892C134.971 158.524 134.889 154.129 134.748 149.754C134.515 142.58 134.325 135.398 134.374 128.22C134.392 125.34 134.4 122.434 134.715 119.569C134.808 118.741 133.513 118.749 133.424 119.569H133.428Z" fill="white"/>
<path d="M235.42 91.446L253.819 91.5167C255.177 91.5219 256.278 92.6321 256.273 93.9905L256.094 140.69C256.088 142.32 254.758 143.639 253.13 143.633L235.71 143.566C234.082 143.56 232.762 142.23 232.769 140.601L232.948 93.9009C232.953 92.5425 234.063 91.4408 235.42 91.446Z" fill="#B3D1E8"/>
<path d="M255.31 101.847L233.595 101.726L233.45 127.656L255.166 127.778L255.31 101.847Z" fill="#FDF0E0"/>
<path d="M252.107 81.5865L236.437 81.8492C235.787 81.8601 235.27 82.3956 235.281 83.0452L235.419 91.2982C235.43 91.9478 235.965 92.4657 236.614 92.4548L252.285 92.1921C252.934 92.1812 253.452 91.6457 253.441 90.996L253.303 82.7431C253.292 82.0934 252.757 81.5756 252.107 81.5865Z" fill="#45A5D5"/>
<path d="M237.773 82.8007C242.428 83.825 247.217 83.9809 251.932 83.2757C252.34 83.2126 252.169 82.5928 251.761 82.6522C247.169 83.3388 242.484 83.1755 237.947 82.1771C237.543 82.0881 237.368 82.7116 237.776 82.8007H237.773Z" fill="black"/>
<path d="M240.28 83.8843C240.173 86.4006 240.544 88.9243 240.366 91.4369C240.336 91.8526 240.981 91.8489 241.011 91.4369C241.189 88.9243 240.818 86.4006 240.926 83.8843C240.944 83.4686 240.299 83.4686 240.28 83.8843Z" fill="black"/>
<path d="M243.927 84.5709C244.094 86.9758 244.038 89.3882 244.205 91.7932C244.235 92.2051 244.88 92.2089 244.85 91.7932C244.684 89.3882 244.739 86.9758 244.572 84.5709C244.543 84.1589 243.897 84.1552 243.927 84.5709Z" fill="black"/>
<path d="M246.931 84.3557C246.887 86.7532 246.846 89.1508 246.802 91.5446C246.794 91.9603 247.44 91.9603 247.447 91.5446C247.492 89.1471 247.532 86.7495 247.577 84.3557C247.584 83.94 246.939 83.94 246.931 84.3557Z" fill="black"/>
<path d="M250.233 84.4634C250.125 86.8349 249.888 89.2102 250.363 91.5558C250.444 91.964 251.068 91.7896 250.986 91.3851C250.526 89.0989 250.774 86.7718 250.878 84.4634C250.897 84.0477 250.251 84.0477 250.233 84.4634Z" fill="black"/>
<path d="M237.602 83.2756C237.743 86.2224 237.205 89.1581 237.346 92.105C237.365 92.5206 238.014 92.5206 237.991 92.105C237.851 89.1581 238.388 86.2224 238.247 83.2756C238.229 82.8599 237.58 82.8599 237.602 83.2756Z" fill="black"/>
<path d="M244.832 110.094C241.367 109.927 242.981 110.959 240.881 114.7C239.716 116.774 236.701 118.496 238.648 122.323C240.221 125.418 247.306 125.14 248.827 121.213C250.348 117.286 248.727 117.743 247.236 115.538C245.744 113.334 247.492 110.22 244.836 110.09L244.832 110.094Z" fill="#E06A3C"/>
<path d="M245.533 106.345C247.351 105.31 249.728 106.75 249.728 106.75C249.728 106.75 248.979 108.814 246.994 108.917C245.014 109.025 243.344 108.717 243.344 108.717C243.344 108.717 244.242 107.077 245.529 106.345H245.533Z" fill="#39CA8C"/>
<path d="M242.246 105.67C244.027 106.509 244.209 109.114 244.209 109.114C244.209 109.114 242.22 109.656 241.063 108.19C239.906 106.724 239.242 105.277 239.242 105.277C239.242 105.277 240.985 105.08 242.246 105.67Z" fill="#39CA8C"/>
<path d="M246.597 117.817C246.649 117.817 246.701 117.81 246.757 117.81C246.865 117.814 246.965 117.791 247.057 117.743C247.154 117.713 247.236 117.658 247.306 117.584C247.38 117.513 247.436 117.431 247.465 117.335C247.514 117.242 247.536 117.142 247.532 117.034C247.525 116.964 247.514 116.897 247.506 116.826C247.469 116.697 247.402 116.581 247.306 116.485C247.254 116.444 247.202 116.403 247.15 116.363C247.028 116.292 246.898 116.259 246.757 116.255C246.705 116.255 246.653 116.262 246.597 116.262C246.49 116.259 246.39 116.281 246.297 116.329C246.201 116.359 246.119 116.414 246.048 116.489C245.974 116.559 245.919 116.641 245.889 116.737C245.841 116.83 245.818 116.93 245.822 117.038C245.83 117.109 245.841 117.175 245.848 117.246C245.885 117.376 245.952 117.491 246.048 117.587C246.1 117.628 246.152 117.669 246.204 117.71C246.327 117.78 246.457 117.814 246.597 117.817Z" fill="black"/>
<path d="M240.818 118.129C241.816 118.129 241.82 116.574 240.818 116.574C239.817 116.574 239.817 118.129 240.818 118.129Z" fill="black"/>
<path d="M241.582 120.334C242.113 121.02 243.066 121.336 243.912 121.291C244.865 121.239 245.729 120.809 246.523 120.304C246.865 120.085 247.035 119.602 246.801 119.242C246.583 118.901 246.104 118.73 245.741 118.964C245.429 119.164 245.11 119.35 244.776 119.51C244.713 119.539 244.702 119.543 244.772 119.513C244.732 119.532 244.687 119.547 244.643 119.562C244.557 119.595 244.468 119.621 244.383 119.647C244.294 119.673 244.205 119.695 244.116 119.714C244.079 119.721 244.019 119.743 243.979 119.74C244.068 119.751 244.068 119.729 243.971 119.74C243.815 119.751 243.66 119.743 243.5 119.732C243.392 119.725 243.637 119.762 243.533 119.732C243.496 119.721 243.456 119.717 243.418 119.71C243.344 119.691 243.266 119.669 243.196 119.643C243.177 119.636 243.059 119.584 243.155 119.628C243.251 119.673 243.136 119.617 243.118 119.606C243.051 119.573 242.988 119.524 242.921 119.487C242.832 119.439 243.014 119.576 242.944 119.506C242.914 119.48 242.884 119.458 242.858 119.428C242.795 119.369 242.74 119.302 242.688 119.235C242.435 118.912 241.849 118.953 241.59 119.235C241.274 119.576 241.323 119.988 241.59 120.334H241.582Z" fill="black"/>
<path d="M244.272 105.833C243.648 107.288 243.556 108.94 244.027 110.454C244.22 111.081 245.21 110.814 245.017 110.183C244.635 108.951 244.646 107.548 245.158 106.353C245.266 106.097 245.232 105.804 244.973 105.651C244.758 105.525 244.379 105.581 244.272 105.837V105.833Z" fill="black"/>
<path d="M260 128.595V148.247C260 149.401 259.065 150.336 257.912 150.336H231.963C230.81 150.336 229.875 149.401 229.875 148.247V128.595C229.875 127.441 230.81 126.506 231.963 126.506H257.912C259.065 126.506 260 127.441 260 128.595Z" fill="#ECB771"/>
<path d="M230.495 128.417V146.109C230.495 147.772 233.08 147.775 233.08 146.109V128.417C233.08 126.754 230.495 126.75 230.495 128.417Z" fill="black"/>
<path d="M67.9252 49.5216L70.1366 100.605L75.3658 100.379L73.1544 49.295L67.9252 49.5216Z" fill="#153433"/>
<path d="M28.2621 51.8036L30.4684 102.564L35.2269 102.357L33.0206 51.5965L28.2621 51.8036Z" fill="#153433"/>
<path d="M25.0021 55.6852C23.4775 53.3879 22.0085 41.1627 25.5511 39.4963C29.0937 37.8299 62.4757 32.4261 74.7022 36.8575C77.3026 37.8002 77.5956 46.8819 77.0986 53.143C76.8834 55.8894 66.404 57.5855 65.881 53.2506C65.6028 50.9533 65.6955 47.6353 65.8031 45.479C65.8624 44.2951 64.9165 43.3078 63.7258 43.3004C57.1748 43.267 38.2748 43.3561 37.4995 45.5013C36.5647 48.0955 38.6754 55.2807 34.9881 55.7261C31.2972 56.1714 26.5267 57.9826 25.0021 55.6852Z" fill="#E06A3C"/>
<path d="M82.6925 213.7L17.7278 211.911C12.1301 211.689 4.46255 205.476 4.68883 199.764L0 108.138C0.22628 102.426 8.93622 86.4561 14.5339 86.6788L85.79 89.9894C91.3876 90.212 100.917 97.7498 100.691 103.462L106.738 190.011C102.576 209.503 87.5075 214.795 82.6888 213.697L82.6925 213.7Z" fill="#E06A3C"/>
<path d="M87.3034 202.952L26.8049 201.453C21.5893 201.245 14.3818 195.385 14.5895 190.163L10.1566 106.442C10.3643 101.224 18.4696 86.6381 23.6889 86.8459L90.1078 89.9227C95.3234 90.1305 104.215 97.0225 104.007 102.244L106.745 190.015C103.436 198.658 91.8031 203.958 87.3108 202.952H87.3034Z" fill="#E88F6D"/>
<path d="M21.1517 205.933C18.6774 205.406 16.8153 204.775 15.5355 204.043C12.0448 202.047 9.63735 198.45 8.17209 193.047C6.9665 188.604 6.40265 183.026 6.39523 175.496C6.39152 170.853 5.93896 161.882 5.41963 151.498C4.46999 132.633 3.39794 111.248 4.54789 106.817C6.31733 100.006 10.6129 89.8521 13.5843 88.7758C16.1438 87.8517 17.3717 86.5453 17.3828 86.5342L18.0171 87.1206C17.9615 87.18 16.6483 88.5866 13.8773 89.5886C11.5255 90.4385 7.241 99.8914 5.38253 107.036C4.26226 111.341 5.38253 133.583 6.28023 151.457C6.80328 161.856 7.25584 170.834 7.25955 175.499C7.27068 186.129 8.26854 198.892 15.9658 203.297C22.272 206.905 42.8486 207.198 59.3857 207.436C61.5483 207.465 63.5886 207.495 65.5731 207.532C74.2794 207.688 81.6576 207.391 87.5075 206.653C93.2313 205.929 97.6753 204.756 100.713 203.164L101.114 203.928C94.767 207.25 83.1377 208.709 65.5583 208.393C63.5774 208.356 61.5372 208.33 59.3745 208.297C51.0578 208.178 41.6282 208.041 33.6157 207.48C28.4335 207.116 24.3011 206.604 21.1554 205.933H21.1517Z" fill="#610F08"/>
<path d="M53.4736 94.3674L52.6853 94.4211L59.3373 192.045L60.1256 191.991L53.4736 94.3674Z" fill="black"/>
<path d="M50.5681 190.363C50.5495 190.07 48.717 160.702 44.6885 139.944C42.5963 129.156 35.6744 118.318 30.2362 111.122C24.3344 103.313 18.8666 98.006 18.8109 97.9541L19.3599 97.3862C19.4156 97.4382 24.9279 102.794 30.8668 110.647C34.3575 115.264 37.3103 119.829 39.6436 124.219C42.5667 129.72 44.5253 134.96 45.4638 139.796C49.5035 160.609 51.3397 190.026 51.3582 190.319L50.5681 190.367V190.363Z" fill="black"/>
<path d="M66.9233 189.855C66.5932 189.784 66.545 189.465 66.4671 188.693C66.378 187.802 66.289 186.292 66.2037 184.199C65.9515 177.953 65.7511 167.1 65.6102 151.943C65.5249 142.977 66.953 134.57 69.8576 126.962C72.1797 120.872 75.4478 115.275 79.5654 110.331C86.5838 101.907 93.7543 98.2361 93.8285 98.199L94.1846 98.9041C94.1141 98.9412 87.0623 102.552 80.1515 110.866C73.7785 118.53 66.2185 131.876 66.4077 151.936C66.7267 185.784 67.2572 188.99 67.3574 189.291C67.3351 189.224 67.2201 189.079 67.0272 189.076C66.8677 189.072 66.7193 189.165 66.66 189.313L67.3907 189.614C67.3166 189.792 67.1274 189.896 66.9382 189.862C66.9345 189.862 66.9308 189.862 66.9271 189.862L66.9233 189.855Z" fill="black"/>
<path d="M39.2986 187.758C39.2801 187.502 37.2695 162.068 35.9304 149.312C35.3851 144.101 31.976 136.708 26.0779 127.938C21.6042 121.287 17.2381 116.14 17.1936 116.088L17.7945 115.576C17.8391 115.628 22.2311 120.805 26.7271 127.493C32.7847 136.5 36.1455 143.815 36.7131 149.234C38.0522 161.997 40.0628 187.443 40.0813 187.699L39.2912 187.762L39.2986 187.758Z" fill="black"/>
<path d="M76.6089 187.892C76.6089 187.606 76.7944 159.21 78.2819 143.582C79.0683 135.328 83.3231 128.454 86.7507 124.138C90.4602 119.469 94.0436 116.704 94.077 116.678L94.5592 117.305C94.5258 117.331 91.0092 120.052 87.3554 124.646C83.9982 128.874 79.8325 135.606 79.0683 143.656C77.5845 159.247 77.399 187.61 77.399 187.895H76.6089V187.892Z" fill="black"/>
<path d="M86.046 187.443C86.046 187.365 85.8234 179.612 85.4821 169.68C85.1372 159.656 94.9562 137.384 95.3754 136.441L96.0988 136.76C95.9986 136.99 85.9347 159.808 86.2723 169.65C86.6136 179.586 86.8361 187.342 86.8361 187.42L86.046 187.443Z" fill="black"/>
<path d="M29.435 185.847C29.4239 185.687 28.4557 169.828 27.4801 157.299C26.9793 150.863 24.7165 146.488 22.9025 143.949C20.9402 141.199 19.0669 139.956 19.0483 139.941L19.4824 139.276C19.564 139.328 21.4744 140.594 23.522 143.452C25.4027 146.076 27.7509 150.592 28.2702 157.232C29.2458 169.769 30.214 185.635 30.2251 185.791L29.435 185.839V185.847Z" fill="black"/>
<path d="M31.824 215.241C33.5007 215.293 36.7465 218.752 36.6167 222.942C36.4831 227.217 34.6803 231.274 33.0036 231.222C31.3269 231.17 30.4886 231.144 28.8675 229.414C27.2427 227.685 25.6736 224.282 26.6418 220.114C27.61 215.946 29.3126 215.163 31.824 215.241Z" fill="#F4D4AA"/>
<path d="M31.5643 223.625C31.4864 226.141 30.4923 231.144 28.8675 229.414C27.2427 227.685 25.6996 223.443 26.6418 220.114C27.584 216.784 29.1197 214.654 30.0286 215.771C30.9374 216.888 31.6459 221.108 31.5643 223.621V223.625Z" fill="#153433"/>
<path d="M29.3646 213.485C29.4165 211.808 30.3587 208.482 30.3587 208.482L21.953 209.061C21.953 209.061 19.2821 214.012 21.7972 214.09C21.9715 214.094 22.1644 214.105 22.361 214.12C22.3128 214.714 22.3573 215.304 22.5799 215.794C23.3663 217.497 24.0748 221.713 24.8835 222.578C25.6959 223.443 28.2109 223.521 29.0975 221.869C29.7133 220.726 28.8119 216.718 28.1961 214.361C28.8861 214.239 29.3423 213.982 29.3572 213.485H29.3646Z" fill="#ECA443"/>
<path d="M18.3918 215.66C20.8512 215.125 25.017 218.384 23.9969 224.226C22.9767 230.067 22.1124 230.88 18.759 230.776C15.4056 230.672 13.8625 226.427 13.9663 223.075C14.0442 220.559 15.0124 216.395 18.3918 215.66Z" fill="#F4D4AA"/>
<path d="M18.3918 215.66C19.2042 216.525 21.5857 220.793 20.6435 224.122C19.7012 227.451 18.5735 230.027 16.9896 230.35C15.4056 230.673 12.7422 226.171 13.8884 220.863C15.0347 215.556 17.5757 214.795 18.3881 215.66H18.3918Z" fill="#153433"/>
<path d="M23.2364 214.903C24.9354 215.256 26.6603 215.259 28.3592 214.914C28.86 214.81 29.1976 214.19 29.0418 213.712C28.8712 213.177 28.3778 212.917 27.8399 213.029C27.6544 213.066 27.469 213.099 27.2798 213.129C27.2353 213.136 27.1944 213.144 27.1499 213.147C27.2649 213.133 27.2649 213.133 27.1499 213.147C27.0646 213.155 26.9756 213.166 26.8903 213.177C26.5267 213.211 26.1632 213.229 25.7997 213.229C25.4361 213.229 25.0689 213.211 24.7091 213.173C24.6238 213.166 24.5347 213.155 24.4494 213.144C24.6683 213.17 24.4086 213.136 24.3641 213.129C24.1638 213.099 23.9635 213.058 23.7631 213.018C23.2624 212.914 22.6837 213.162 22.5613 213.7C22.45 214.19 22.7096 214.792 23.2438 214.903H23.2364Z" fill="black"/>
<path d="M95.8206 213.333C97.4973 213.385 100.743 216.844 100.613 221.034C100.48 225.31 98.6769 229.366 97.0002 229.314C95.3235 229.262 94.4851 229.236 92.8641 227.507C91.2393 225.777 89.6702 222.374 90.6384 218.206C91.6066 214.042 93.3092 213.255 95.8206 213.333Z" fill="#F4D4AA"/>
<path d="M95.5609 221.717C95.483 224.233 94.4888 229.236 92.8641 227.507C91.2393 225.777 89.6962 221.535 90.6384 218.206C91.5806 214.877 93.1163 212.747 94.0252 213.864C94.934 214.981 95.6425 219.201 95.5646 221.713L95.5609 221.717Z" fill="#153433"/>
<path d="M93.3612 211.581C93.4131 209.904 94.3553 206.578 94.3553 206.578L85.9496 207.157C85.9496 207.157 83.2787 212.108 85.7938 212.186C85.9681 212.19 86.161 212.201 86.3576 212.216C86.3094 212.81 86.3539 213.4 86.5765 213.89C87.3629 215.593 88.0714 219.809 88.8801 220.674C89.6925 221.539 92.2038 221.617 93.0941 219.965C93.7099 218.822 92.8085 214.814 92.1927 212.457C92.8826 212.335 93.3389 212.079 93.3538 211.581H93.3612Z" fill="#ECA443"/>
<path d="M82.3884 213.756C84.8478 213.222 89.0136 216.48 87.9935 222.322C86.9733 228.164 86.109 228.976 82.7556 228.873C79.4022 228.769 77.859 224.523 77.9629 221.171C78.0408 218.655 79.009 214.491 82.3884 213.756Z" fill="#F4D4AA"/>
<path d="M82.3884 213.756C83.2007 214.621 85.5823 218.889 84.64 222.218C83.6978 225.547 82.5701 228.123 80.9862 228.446C79.4022 228.769 76.7388 224.267 77.885 218.96C79.0312 213.652 81.5723 212.892 82.3846 213.756H82.3884Z" fill="#153433"/>
<path d="M87.233 212.999C88.9319 213.352 90.6569 213.355 92.3558 213.01C92.8566 212.906 93.1942 212.287 93.0384 211.808C92.8677 211.273 92.3744 211.014 91.8365 211.125C91.651 211.162 91.4655 211.195 91.2764 211.225C91.2318 211.233 91.191 211.24 91.1465 211.244C91.2232 211.234 91.2232 211.234 91.1465 211.244C91.0612 211.251 90.9722 211.262 90.8868 211.273C90.5233 211.307 90.1598 211.325 89.7963 211.325C89.4327 211.325 89.0655 211.307 88.7057 211.27C88.6203 211.262 88.5313 211.251 88.446 211.24C88.6648 211.266 88.4052 211.233 88.3607 211.225C88.1604 211.195 87.96 211.155 87.7597 211.114C87.2589 211.01 86.6803 211.258 86.5578 211.797C86.4466 212.287 86.7062 212.888 87.2404 212.999H87.233Z" fill="black"/>
</g>
<defs>
<clipPath id="clip0_81_4615">
<rect width="260" height="235" fill="white"/>
</clipPath>
</defs>
</svg>
