<svg width="80" height="31" viewBox="0 0 80 31" fill="none" xmlns="http://www.w3.org/2000/svg">
<path d="M12.0171 17.4724H14.2333V12.2603C14.2331 11.0083 13.7823 9.79817 12.9631 8.85127C12.144 7.90436 11.0114 7.28392 9.77239 7.10343L9.65906 7.08915L9.5381 7.07486C8.3756 6.97631 7.24914 6.62253 6.23905 6.03873C5.79551 5.80698 5.40729 5.48212 5.10097 5.0864C4.9131 5.22316 4.75732 5.39923 4.64448 5.60236C4.53164 5.80549 4.46447 6.03078 4.44763 6.26253C4.41267 6.6837 4.49314 7.10643 4.6804 7.4853C4.86767 7.86417 5.15464 8.18485 5.51048 8.41288C4.53201 9.30567 3.93023 10.5375 3.82748 11.8581C3.72473 13.1786 4.1287 14.4887 4.9573 15.5221C5.7859 16.5555 6.97693 17.2346 8.28829 17.4214C9.59966 17.6082 10.933 17.2886 12.0171 16.5277V17.4724ZM9.02096 15.4039C8.39936 15.4039 7.79172 15.2196 7.27488 14.8743C6.75804 14.529 6.35521 14.0381 6.11733 13.4639C5.87946 12.8896 5.81722 12.2578 5.93848 11.6481C6.05975 11.0385 6.35909 10.4785 6.79863 10.039C7.23817 9.59952 7.79817 9.30021 8.40782 9.17895C9.01748 9.05769 9.64939 9.11992 10.2237 9.35778C10.798 9.59564 11.2888 9.99845 11.6342 10.5153C11.9795 11.0321 12.1638 11.6397 12.1638 12.2612C12.1638 13.0947 11.8327 13.8941 11.2433 14.4835C10.6539 15.0728 9.8545 15.4039 9.02096 15.4039ZM41.541 17.4724H43.7571V12.2603C43.757 11.0083 43.3061 9.79817 42.4869 8.85127C41.6678 7.90436 40.5352 7.28392 39.2962 7.10343L39.1828 7.08915L39.0619 7.07486C37.8994 6.97622 36.773 6.62244 35.7629 6.03873C35.3192 5.80716 34.9309 5.48227 34.6248 5.0864C34.4369 5.22316 34.2811 5.39923 34.1683 5.60236C34.0555 5.80549 33.9883 6.03078 33.9714 6.26253C33.9366 6.68369 34.0171 7.10638 34.2044 7.48523C34.3916 7.86408 34.6785 8.18477 35.0343 8.41288C34.0558 9.30567 33.454 10.5375 33.3513 11.8581C33.2485 13.1786 33.6525 14.4887 34.4811 15.5221C35.3097 16.5555 36.5007 17.2346 37.8121 17.4214C39.1235 17.6082 40.4568 17.2886 41.541 16.5277V17.4724ZM38.5457 15.4039C37.9241 15.4039 37.3165 15.2196 36.7996 14.8743C36.2828 14.529 35.88 14.0381 35.6421 13.4639C35.4042 12.8896 35.342 12.2578 35.4633 11.6481C35.5845 11.0385 35.8838 10.4785 36.3234 10.039C36.7629 9.59952 37.3229 9.30021 37.9326 9.17895C38.5422 9.05769 39.1742 9.11992 39.7484 9.35778C40.3227 9.59564 40.8136 9.99845 41.1589 10.5153C41.5042 11.0321 41.6886 11.6397 41.6886 12.2612C41.6886 13.0947 41.3574 13.8941 40.7681 14.4835C40.1786 15.0728 39.3793 15.4039 38.5457 15.4039ZM34.9381 20.7008C33.1581 23.7997 29.081 25.971 24.3476 25.971C19.6143 25.971 15.5371 23.7997 13.7571 20.7008H16.26C18.4114 22.8335 21.3182 24.03 24.3476 24.03C27.3771 24.03 30.2838 22.8335 32.4352 20.7008H34.9381ZM71.7514 7.04915C70.7205 7.04915 69.7128 7.35483 68.8556 7.92754C67.9984 8.50025 67.3303 9.31427 66.9358 10.2667C66.5413 11.219 66.4381 12.267 66.6392 13.2781C66.8403 14.2891 67.3368 15.2178 68.0657 15.9468C68.7947 16.6757 69.7234 17.1721 70.7345 17.3732C71.7456 17.5743 72.7937 17.4711 73.7461 17.0766C74.6986 16.6821 75.5126 16.0141 76.0854 15.1569C76.6581 14.2998 76.9638 13.2921 76.9638 12.2612C76.9638 10.8789 76.4147 9.55319 75.4372 8.57574C74.4596 7.59828 73.1339 7.04915 71.7514 7.04915ZM71.7514 15.4049C71.1298 15.4049 70.5222 15.2206 70.0053 14.8752C69.4885 14.5299 69.0857 14.0391 68.8478 13.4648C68.61 12.8906 68.5477 12.2587 68.669 11.6491C68.7902 11.0395 69.0896 10.4795 69.5291 10.04C69.9686 9.60047 70.5286 9.30116 71.1383 9.1799C71.748 9.05864 72.3799 9.12088 72.9542 9.35874C73.5284 9.5966 74.0193 9.9994 74.3646 10.5162C74.71 11.033 74.8943 11.6406 74.8943 12.2622C74.8943 13.0957 74.5632 13.895 73.9738 14.4844C73.3844 15.0738 72.585 15.4049 71.7514 15.4049ZM61.9019 10.8413V17.4724H59.6419V10.8413C59.6419 10.4338 59.48 10.043 59.1918 9.75479C58.9037 9.46663 58.5128 9.30474 58.1052 9.30474C57.6977 9.30474 57.3068 9.46663 57.0187 9.75479C56.7305 10.043 56.5686 10.4338 56.5686 10.8413V17.4724H54.3134V10.8413C54.3134 10.4338 54.1514 10.043 53.8633 9.75479C53.5751 9.46663 53.1842 9.30474 52.7767 9.30474C52.3691 9.30474 51.9783 9.46663 51.6901 9.75479C51.4019 10.043 51.24 10.4338 51.24 10.8413V17.4724H48.9838V10.8413C48.984 10.2989 49.1013 9.76291 49.3276 9.26998C49.0357 9.01966 48.8077 8.70332 48.6626 8.34721C48.5175 7.9911 48.4595 7.60551 48.4933 7.22247C48.5115 6.9757 48.5831 6.73584 48.7034 6.51957C48.8236 6.30331 48.9895 6.11582 49.1895 5.97016C49.5637 6.34388 49.97 6.68391 50.4038 6.98629C50.6398 7.15793 50.8956 7.30054 51.1657 7.41103C51.8673 7.07926 52.654 6.97157 53.4189 7.1026C54.1838 7.23362 54.8898 7.59702 55.441 8.14338C55.973 7.6174 56.6487 7.26056 57.3831 7.11778C58.1175 6.975 58.8777 7.05268 59.568 7.34101C60.2583 7.62935 60.8479 8.11546 61.2626 8.73815C61.6772 9.36084 61.8983 10.0923 61.8981 10.8404M21.7162 17.4714H19.5V3.80933H21.7162V7.68911C22.406 7.27805 23.1924 7.05715 23.9953 7.04892C24.7982 7.04068 25.589 7.2454 26.2871 7.64222C26.9851 8.03904 27.5655 8.61378 27.9692 9.30791C28.3728 10.002 28.5852 10.7907 28.5848 11.5937V17.4752H26.3686V11.5937C26.3686 10.9768 26.1235 10.3851 25.6873 9.94889C25.251 9.51267 24.6593 9.2676 24.0424 9.2676C23.4254 9.2676 22.8338 9.51267 22.3975 9.94889C21.9613 10.3851 21.7162 10.9768 21.7162 11.5937V17.4714Z" fill="#231815"/>
</svg>
