<svg width="319" height="181" viewBox="0 0 319 181" fill="none" xmlns="http://www.w3.org/2000/svg">
<g clip-path="url(#clip0_81_4550)">
<path d="M186.568 60.5797C186.568 60.5797 213.375 65.9428 212.303 70.2291C211.23 74.5196 209.085 77.7332 198.363 73.4469C187.641 69.1564 186.568 60.5797 186.568 60.5797Z" fill="#428CC5"/>
<path d="M191.927 54.1483L203.149 65.5754C203.149 65.5754 204.794 69.1608 195.145 65.9429C185.496 62.725 191.927 54.1483 191.927 54.1483Z" fill="#45A5D5"/>
<path d="M123.305 144.215C124.377 144.215 159.223 154.402 156.009 161.906C153.441 167.902 146.894 165.659 137.245 161.372C127.595 157.082 124.377 154.941 121.16 151.723C117.942 148.505 123.305 144.219 123.305 144.219V144.215Z" fill="#428CC5"/>
<path d="M138.317 138.851C138.317 138.851 145.821 151.719 144.749 152.791C143.676 153.864 138.317 154.937 134.027 153.864C129.736 152.791 117.942 144.215 117.942 144.215L138.313 138.851H138.317Z" fill="#45A5D5"/>
<path d="M56.8277 44.4989C56.8277 44.4989 244.469 84.1732 262.695 95.9678C280.921 107.762 328.099 146.364 317.377 153.868C306.655 161.372 274.489 151.723 249.827 144.219C225.166 136.715 106.147 95.9678 81.4895 84.1732C56.8277 72.3786 30.0206 61.6566 27.8797 56.2935C25.7344 50.9304 27.8797 38.0674 56.8277 44.4989Z" fill="#B3D1E8"/>
<path d="M156.009 0L176.38 1.07262L206.94 92.7499L157.616 80.9554C157.616 80.9554 158.15 50.3963 157.082 35.3838C156.009 20.3713 156.009 0 156.009 0Z" fill="#B3D1E8"/>
<path d="M208.568 75.5195C207.448 75.5195 206.247 75.1948 205.35 74.4213C204.196 73.4256 203.807 71.8914 204.256 70.0923C204.67 68.4342 205.641 67.2719 206.991 66.8274C208.38 66.3702 210.021 66.7548 211.371 67.8659C212.589 68.8659 213.153 70.3231 212.927 71.8658C212.704 73.3657 211.764 74.6264 210.474 75.1648C209.935 75.3871 209.269 75.5153 208.568 75.5153V75.5195ZM208.192 67.7505C207.897 67.7505 207.611 67.7932 207.337 67.883C206.363 68.2035 205.649 69.0838 205.333 70.3615C204.987 71.7504 205.243 72.8615 206.072 73.5794C207.158 74.511 208.944 74.5965 210.051 74.1392C210.982 73.7504 211.666 72.8187 211.828 71.7034C211.999 70.5538 211.576 69.4684 210.666 68.7248C209.888 68.0881 209.008 67.7462 208.192 67.7462V67.7505Z" fill="black"/>
<path d="M208.572 74.4512C207.38 74.4512 206.277 73.9854 205.692 73.2376C205.128 72.5196 204.995 71.5496 205.294 70.353C205.709 68.6992 206.794 67.712 208.196 67.712C209.029 67.712 209.914 68.0625 210.687 68.6992C211.606 69.4513 212.033 70.5496 211.863 71.7119C211.7 72.823 210.991 73.7888 210.063 74.1777C209.64 74.3529 209.11 74.4512 208.572 74.4512ZM208.2 68.8231C207.004 68.8231 206.542 69.9513 206.375 70.6265C206.162 71.4726 206.23 72.1222 206.572 72.5581C206.944 73.0367 207.73 73.3444 208.576 73.3444C208.969 73.3444 209.35 73.276 209.64 73.1564C210.209 72.9213 210.662 72.276 210.769 71.5538C210.884 70.7846 210.598 70.0581 209.991 69.5581C209.414 69.0838 208.777 68.8231 208.204 68.8231H208.2Z" fill="black"/>
<path d="M146.894 97.0361C146.894 97.0361 21.444 171.022 23.5892 172.094C34.3112 177.457 46.1058 183.889 55.7551 179.598C65.4045 175.308 217.662 119.553 211.23 117.407C204.799 115.262 146.898 97.0361 146.898 97.0361H146.894Z" fill="#B3D1E8"/>
<path d="M150.86 166.312C150.193 166.312 149.501 166.214 148.804 166.013C146.244 165.282 145.505 163.838 145.334 162.757C144.979 160.475 146.817 157.894 148.732 156.616C150.347 155.539 152.142 155.304 153.654 155.975C155.24 156.68 156.321 158.236 156.62 160.248C156.872 161.941 156.21 163.659 154.851 164.851C153.757 165.808 152.368 166.304 150.86 166.304V166.312ZM151.843 156.706C151.031 156.706 150.176 156.988 149.347 157.539C147.736 158.616 146.163 160.847 146.432 162.586C146.603 163.693 147.505 164.488 149.112 164.945C151.005 165.483 152.834 165.15 154.12 164.022C155.197 163.077 155.719 161.731 155.526 160.415C155.283 158.787 154.441 157.539 153.21 156.992C152.778 156.8 152.321 156.706 151.847 156.706H151.843Z" fill="black"/>
<path d="M150.855 164.684C150.338 164.684 149.796 164.603 149.253 164.449C147.86 164.052 147.082 163.398 146.945 162.509C146.714 161.022 148.15 158.966 149.637 157.975C150.372 157.488 151.133 157.227 151.847 157.227C153.449 157.227 154.723 158.539 155.013 160.492C155.154 161.449 154.847 162.453 154.167 163.244C153.364 164.171 152.193 164.684 150.86 164.684H150.855Z" fill="#214663"/>
<path d="M135.886 108.527C144.172 110.916 152.394 113.536 160.53 116.386C161.881 116.86 162.462 114.715 161.12 114.245C152.979 111.395 144.762 108.775 136.475 106.386C135.099 105.989 134.514 108.13 135.886 108.527Z" fill="black"/>
<path d="M166.133 113.878C168.919 111.895 171.855 110.138 174.919 108.613C175.453 108.348 175.607 107.587 175.316 107.096C174.996 106.549 174.338 106.429 173.799 106.698C170.74 108.224 167.799 109.98 165.013 111.963C164.526 112.309 164.295 112.933 164.616 113.48C164.898 113.963 165.641 114.228 166.133 113.878Z" fill="black"/>
<path d="M154.129 136.89C166.658 131.505 179.056 125.822 191.307 119.835C192.589 119.207 191.466 117.292 190.188 117.92C177.936 123.903 165.539 129.591 153.009 134.975C151.702 135.54 152.83 137.45 154.129 136.89Z" fill="black"/>
<path d="M143.89 139.168C134.027 142.702 124.275 146.535 114.638 150.65C113.331 151.21 114.459 153.12 115.758 152.565C125.219 148.526 134.796 144.779 144.479 141.309C145.813 140.83 145.24 138.685 143.89 139.168Z" fill="black"/>
<path d="M31.7343 171.133C38.1615 173.504 44.5844 175.872 51.0116 178.244C52.3535 178.739 52.9304 176.594 51.6014 176.103C45.1742 173.731 38.7512 171.364 32.324 168.992C30.9822 168.496 30.4053 170.641 31.7343 171.133Z" fill="black"/>
<path d="M36.4564 31.6317L51.4689 34.8496L60.0456 49.8621C60.0456 49.8621 39.6743 46.6442 40.7469 46.6442C41.8195 46.6442 36.4564 31.6317 36.4564 31.6317Z" fill="#B3D1E8"/>
<path d="M32.166 19.8371L24.6619 16.6193C24.6619 16.6193 27.8797 31.6317 30.025 39.1358C32.1702 46.6399 32.1702 50.9304 33.2429 49.8578C34.3155 48.7852 66.4814 64.8703 66.4814 61.6524C66.4814 58.4345 47.1827 42.3537 43.9648 36.9906C40.747 31.6275 32.1702 19.8329 32.1702 19.8329L32.166 19.8371Z" fill="#45A5D5"/>
<path d="M28.3113 52.2551L46.1058 60.5797L12.8672 69.1607L0 64.8702L28.3113 52.2551Z" fill="#B3D1E8"/>
<path d="M73.4854 61.4858L77.6349 62.8703C79.2973 63.4259 80.4169 64.9771 80.4169 66.7292V75.1564C80.4169 77.2503 78.4896 78.8016 76.4426 78.3742C74.041 77.8742 71.3402 76.8102 70.7676 74.5239C70.071 71.7334 70.2804 66.6651 70.5112 63.4729C70.618 61.9986 72.0838 61.0242 73.4854 61.4943V61.4858Z" fill="#428CC5"/>
<path d="M86.8484 68.0881C86.8484 66.3104 88.2885 64.8702 90.0663 64.8702C91.844 64.8702 93.2841 66.3104 93.2841 68.0881C93.2841 69.8658 91.844 71.306 90.0663 71.306C88.2885 71.306 86.8484 69.8658 86.8484 68.0881Z" fill="#45A5D5"/>
<path d="M98.9379 72.1307C98.9379 70.2718 100.442 68.7676 102.301 68.7676C104.16 68.7676 105.664 70.2718 105.664 72.1307C105.664 73.9897 104.16 75.4939 102.301 75.4939C100.442 75.4939 98.9379 73.9897 98.9379 72.1307Z" fill="#45A5D5"/>
<path d="M111.023 76.1777C111.023 74.2375 112.596 72.6692 114.532 72.6692C116.467 72.6692 118.04 74.2418 118.04 76.1777C118.04 78.1135 116.467 79.6861 114.532 79.6861C112.596 79.6861 111.023 78.1135 111.023 76.1777Z" fill="#45A5D5"/>
<path d="M123.113 80.2203C123.113 78.2032 124.749 76.5665 126.766 76.5665C128.783 76.5665 130.42 78.2032 130.42 80.2203C130.42 82.2373 128.783 83.8741 126.766 83.8741C124.749 83.8741 123.113 82.2373 123.113 80.2203Z" fill="#45A5D5"/>
<path d="M135.198 84.2672C135.198 82.169 136.898 80.4639 139.001 80.4639C141.103 80.4639 142.804 82.1647 142.804 84.2672C142.804 86.3697 141.103 88.0705 139.001 88.0705C136.898 88.0705 135.198 86.3697 135.198 84.2672Z" fill="#45A5D5"/>
<path d="M147.283 88.3141C147.283 86.1347 149.052 84.3655 151.231 84.3655C153.411 84.3655 155.18 86.1347 155.18 88.3141C155.18 90.4935 153.411 92.2627 151.231 92.2627C149.052 92.2627 147.283 90.4935 147.283 88.3141Z" fill="#45A5D5"/>
<path d="M167.507 93.0133C167.868 90.7813 166.351 88.6791 164.119 88.318C161.887 87.9569 159.785 89.4736 159.424 91.7056C159.063 93.9376 160.579 96.0397 162.811 96.4008C165.043 96.7619 167.145 95.2452 167.507 93.0133Z" fill="#45A5D5"/>
<path d="M171.458 96.4036C171.458 94.0618 173.355 92.1644 175.697 92.1644C178.039 92.1644 179.936 94.0618 179.936 96.4036C179.936 98.7455 178.039 100.643 175.697 100.643C173.355 100.643 171.458 98.7455 171.458 96.4036Z" fill="#45A5D5"/>
<path d="M183.547 100.446C183.547 98.0233 185.513 96.0618 187.931 96.0618C190.35 96.0618 192.316 98.0275 192.316 100.446C192.316 102.865 190.35 104.831 187.931 104.831C185.513 104.831 183.547 102.865 183.547 100.446Z" fill="#45A5D5"/>
<path d="M195.632 104.493C195.632 101.989 197.662 99.9591 200.166 99.9591C202.67 99.9591 204.7 101.989 204.7 104.493C204.7 106.997 202.67 109.027 200.166 109.027C197.662 109.027 195.632 106.997 195.632 104.493Z" fill="#45A5D5"/>
<path d="M212.397 113.219C214.981 113.219 217.076 111.124 217.076 108.54C217.076 105.956 214.981 103.861 212.397 103.861C209.812 103.861 207.717 105.956 207.717 108.54C207.717 111.124 209.812 113.219 212.397 113.219Z" fill="#45A5D5"/>
<path d="M219.807 112.583C219.807 109.916 221.969 107.758 224.631 107.758C227.294 107.758 229.456 109.92 229.456 112.583C229.456 115.245 227.298 117.407 224.631 117.407C221.965 117.407 219.807 115.249 219.807 112.583Z" fill="#45A5D5"/>
<path d="M78.3016 55.3662C87.3569 58.0243 96.4123 60.6823 105.463 63.3404C106.835 63.7421 107.425 61.6011 106.053 61.1994C96.9977 58.5414 87.9424 55.8833 78.8913 53.2252C77.5196 52.8235 76.9298 54.9645 78.3016 55.3662Z" fill="black"/>
<path d="M80.0793 59.8105C83.9254 60.9088 87.7714 62.0113 91.6175 63.1096C92.9935 63.5027 93.579 61.3618 92.2072 60.9686C88.3612 59.8704 84.5151 58.7678 80.669 57.6696C79.293 57.2764 78.7076 59.4174 80.0793 59.8105Z" fill="black"/>
<path d="M87.2671 77.5922C95.3054 80.0451 103.318 82.6049 111.467 84.669C112.852 85.0194 113.442 82.8827 112.057 82.528C103.912 80.4597 95.8951 77.9042 87.8569 75.4512C86.4894 75.0324 85.9039 77.1734 87.2671 77.5922Z" fill="black"/>
<path d="M209.991 82.7458C209.713 82.6817 181.91 76.2631 164.945 72.0196L165.304 70.5837C182.256 74.823 210.046 81.2373 210.324 81.3014L209.991 82.7416V82.7458Z" fill="white"/>
<path d="M277.207 110.45C277.122 110.373 268.468 102.523 261.28 98.7669C249.041 92.3654 214.615 83.904 214.268 83.8186L214.619 82.3827C216.042 82.7288 249.562 90.9722 261.964 97.455C269.323 101.301 277.844 109.032 278.203 109.356L277.207 110.45Z" fill="white"/>
<path d="M240.178 109.903C242.323 108.831 250.9 110.801 250.9 114.194C250.9 119.557 247.682 127.061 245.537 128.134C242.661 129.574 233.742 127.061 234.815 122.771C235.888 118.48 238.033 110.976 240.178 109.903Z" fill="#428CC5"/>
<path d="M244.469 116.707C243.084 116.707 241.956 115.578 241.956 114.194C241.956 112.809 243.084 111.681 244.469 111.681C245.853 111.681 246.981 112.809 246.981 114.194C246.981 115.578 245.853 116.707 244.469 116.707ZM244.469 112.416C243.49 112.416 242.695 113.211 242.695 114.19C242.695 115.168 243.49 115.963 244.469 115.963C245.447 115.963 246.242 115.168 246.242 114.19C246.242 113.211 245.447 112.416 244.469 112.416Z" fill="black"/>
<path d="M240.4 119.604C242.071 120.177 243.785 120.608 245.528 120.89C246.101 120.984 246.751 120.741 246.892 120.117C247.011 119.583 246.729 118.852 246.118 118.754C244.375 118.472 242.657 118.04 240.99 117.467C240.439 117.279 239.751 117.685 239.627 118.241C239.486 118.856 239.815 119.403 240.4 119.604Z" fill="black"/>
<path d="M288.429 131.347C291.805 130.672 296.45 127.45 299.433 125.151C297.215 123.087 294.903 121.014 292.553 118.972C290.497 120.493 287.955 122.211 286.284 122.766C283.066 123.839 276.634 123.839 272.344 122.766C268.053 121.694 265.566 121.621 264.84 125.984C263.767 132.416 283.066 132.416 288.429 131.347Z" fill="#45A5D5"/>
<path d="M28.522 51.5432L28.0986 52.9598L41.6021 56.9957L42.0255 55.579L28.522 51.5432Z" fill="black"/>
<path d="M49.3575 42.1433L49.0488 43.5894L56.6759 45.2175L56.9846 43.7715L49.3575 42.1433Z" fill="black"/>
<path d="M132.42 153.014C135.364 155.684 139.488 154.86 142.967 153.975C143.659 153.8 143.364 152.727 142.672 152.907C139.629 153.68 135.809 154.595 133.202 152.231C132.672 151.753 131.886 152.535 132.416 153.018L132.42 153.014Z" fill="black"/>
<path d="M200.812 67.7335C201.982 67.9472 203.243 67.3959 203.799 66.319C203.931 66.0626 203.876 65.7036 203.598 65.5583C203.341 65.4258 202.982 65.4814 202.837 65.7592C202.786 65.8575 202.713 65.9472 202.662 66.0455C202.683 66.007 202.73 65.96 202.675 66.0241C202.658 66.0455 202.641 66.0669 202.619 66.0882C202.581 66.131 202.542 66.1694 202.504 66.2079C202.47 66.2421 202.431 66.2763 202.393 66.3062C202.32 66.366 202.376 66.3062 202.414 66.2933C202.393 66.2976 202.367 66.3275 202.346 66.3404C202.256 66.4045 202.158 66.46 202.059 66.5113C202.034 66.5241 202.008 66.5369 201.982 66.5455C201.914 66.5797 202 66.5369 202.021 66.5284C201.97 66.5412 201.914 66.5668 201.863 66.5839C201.756 66.6181 201.649 66.6438 201.538 66.6651C201.44 66.6822 201.641 66.6566 201.568 66.6651C201.538 66.6651 201.512 66.6694 201.487 66.6737C201.431 66.6737 201.376 66.6779 201.32 66.6779C201.269 66.6779 201.222 66.6779 201.171 66.6694C201.149 66.6694 201.128 66.6609 201.106 66.6566C200.82 66.6053 200.495 66.7335 200.423 67.0455C200.363 67.319 200.504 67.6737 200.812 67.7292V67.7335Z" fill="black"/>
<path d="M159.586 6.16223C164.475 6.30753 169.351 6.62376 174.218 7.11093C174.816 7.17076 175.329 6.55966 175.329 5.99984C175.329 5.35029 174.821 4.94859 174.218 4.88876C169.355 4.40159 164.475 4.08536 159.586 3.94006C158.159 3.89733 158.159 6.11523 159.586 6.15796V6.16223Z" fill="black"/>
</g>
<defs>
<clipPath id="clip0_81_4550">
<rect width="318.945" height="181" fill="white"/>
</clipPath>
</defs>
</svg>
