<svg width="185" height="267" viewBox="0 0 185 267" fill="none" xmlns="http://www.w3.org/2000/svg">
<g clip-path="url(#clip0_81_4720)">
<path d="M157.914 158.384C194.038 122.444 194.038 64.1735 157.914 28.2336C121.789 -7.70634 63.2196 -7.70634 27.095 28.2336C-9.02966 64.1735 -9.02966 122.444 27.095 158.384C63.2196 194.324 121.789 194.324 157.914 158.384Z" fill="#E06A3C"/>
<path d="M67.8056 181.373C67.8056 181.373 70.4028 192.788 79.3894 194.275C88.3759 195.768 101.859 195.768 108.6 193.529C115.341 191.295 118.337 182.464 118.337 182.464L67.7998 181.373H67.8056Z" fill="#F4D4AA"/>
<path d="M115.757 266.19H65.5028L53.9248 230.049L132.57 231.536L115.757 266.19Z" fill="#ECA443"/>
<path d="M70.2356 239.96C75.6898 251.766 86.177 263.359 99.0998 266.925C101.501 267.586 102.522 263.882 100.127 263.222C94.0842 261.556 88.8377 257.841 84.4339 253.483C79.932 249.021 76.2208 243.767 73.5658 238.025C72.5269 235.78 69.2024 237.732 70.2298 239.966L70.2356 239.96Z" fill="#F4D4AA"/>
<path d="M87.4468 240.276C94.4017 250.526 104.491 261.298 117.592 262.521C120.063 262.751 120.051 258.909 117.592 258.68C106.032 257.6 96.8662 247.299 90.777 238.335C89.3918 236.297 86.0442 238.22 87.441 240.276H87.4468Z" fill="#F4D4AA"/>
<path d="M105.437 239.96C107.429 243.118 109.703 246.19 112.473 248.723C115.007 251.037 118.095 253.046 121.569 253.512C122.602 253.649 123.641 253.265 123.941 252.168C124.19 251.272 123.635 249.946 122.591 249.808C119.624 249.406 117.206 247.873 115.018 245.84C112.554 243.555 110.545 240.85 108.762 238.019C107.446 235.929 104.098 237.858 105.426 239.96H105.437Z" fill="#F4D4AA"/>
<path d="M117.575 237.83C99.7288 246.058 79.3432 244.594 60.2678 243.193C57.7917 243.009 57.8032 246.851 60.2678 247.034C80.1397 248.493 100.964 249.705 119.52 241.149C121.771 240.109 119.814 236.796 117.569 237.83H117.575Z" fill="#F4D4AA"/>
<path d="M62.0859 256.228C83.597 261.453 105.985 257.939 125.303 247.35C127.479 246.156 125.534 242.837 123.352 244.031C104.946 254.12 83.6085 257.502 63.1075 252.518C60.6949 251.932 59.6618 255.636 62.0801 256.222L62.0859 256.228Z" fill="#F4D4AA"/>
<path d="M65.399 264.686C74.8646 266.546 84.3475 267.161 93.9573 266.087C103.105 265.065 111.751 262.418 120.068 258.53C122.314 257.479 120.357 254.166 118.118 255.211C110.297 258.869 102.026 261.396 93.4148 262.303C84.3301 263.262 75.3725 262.739 66.4264 260.976C64.0022 260.5 62.9633 264.198 65.399 264.68V264.686Z" fill="#F4D4AA"/>
<path d="M55.8122 239.501C57.0185 245.197 60.0082 250.715 63.5982 255.263C65.399 257.543 67.523 259.202 69.7912 260.988C72.5501 263.158 75.2455 265.404 78.5584 266.684C80.8786 267.58 81.8829 263.865 79.5858 262.98C76.7403 261.884 74.3624 259.707 71.9902 257.853C69.9009 256.222 67.9674 254.654 66.3282 252.547C63.1711 248.476 60.6027 243.526 59.5349 238.479C59.0213 236.061 55.2985 237.083 55.8122 239.501Z" fill="#F4D4AA"/>
<path d="M117.979 238.479C117.904 239.018 117.858 239.438 117.99 239.977C118.106 240.425 118.377 240.839 118.695 241.172C119.174 241.677 119.861 242.056 120.432 242.458C121.54 243.233 122.677 243.974 123.756 244.784C123.624 244.686 123.497 244.583 123.364 244.485C123.422 244.537 123.468 244.583 123.514 244.64C123.416 244.508 123.312 244.382 123.214 244.249C123.237 244.284 123.26 244.318 123.272 244.353C123.208 244.198 123.145 244.049 123.075 243.893C123.098 243.951 123.11 243.997 123.116 244.054C123.093 243.882 123.07 243.715 123.046 243.543C123.046 243.618 123.046 243.687 123.035 243.761C123.058 243.589 123.081 243.423 123.104 243.25C123.041 243.618 122.937 243.974 122.931 244.353C122.919 244.881 123.087 245.496 123.41 245.915C123.728 246.328 124.039 246.655 124.564 246.799C125.026 246.925 125.644 246.868 126.054 246.604C126.463 246.34 126.827 245.943 126.942 245.455C127.052 244.985 127.052 244.376 126.746 243.974C126.683 243.888 126.625 243.802 126.585 243.698C126.648 243.853 126.711 244.003 126.781 244.158C126.758 244.089 126.746 244.031 126.735 243.962C126.758 244.135 126.781 244.301 126.804 244.473C126.798 244.387 126.804 244.307 126.804 244.227C126.781 244.399 126.758 244.565 126.735 244.738C126.787 244.41 126.867 244.094 126.896 243.761C126.942 243.296 126.815 242.82 126.602 242.412C126.204 241.654 125.344 241.206 124.657 240.73C123.52 239.937 122.354 239.173 121.246 238.341C121.378 238.438 121.505 238.542 121.638 238.639C121.529 238.553 121.425 238.461 121.338 238.352C121.436 238.484 121.54 238.611 121.638 238.743C121.604 238.691 121.575 238.639 121.546 238.582C121.609 238.737 121.673 238.886 121.742 239.041C121.719 238.978 121.702 238.921 121.69 238.858C121.713 239.03 121.736 239.196 121.759 239.369C121.748 239.271 121.748 239.173 121.759 239.07C121.736 239.242 121.713 239.409 121.69 239.581C121.69 239.552 121.696 239.524 121.702 239.495C121.777 238.961 121.794 238.502 121.505 238.013C121.269 237.617 120.813 237.233 120.351 237.129C119.855 237.014 119.301 237.043 118.862 237.324C118.47 237.577 118.042 237.991 117.973 238.473L117.979 238.479Z" fill="#F4D4AA"/>
<path d="M129.574 239.524H56.9204C56.2105 239.524 55.6333 238.949 55.6333 238.243C55.6333 237.537 56.2105 236.963 56.9204 236.963H129.574C130.284 236.963 130.862 237.537 130.862 238.243C130.862 238.949 130.284 239.524 129.574 239.524Z" fill="black"/>
<path d="M56.1757 232.817C55.6735 232.817 55.2002 232.524 54.9925 232.036L21.2973 153.425C21.0203 152.777 21.3204 152.024 21.9784 151.743C22.6306 151.462 23.3867 151.766 23.6695 152.421L57.3646 231.031C57.6417 231.68 57.3415 232.432 56.6836 232.713C56.5162 232.782 56.3488 232.817 56.1814 232.817H56.1757Z" fill="black"/>
<path d="M131.075 232.817C130.919 232.817 130.764 232.788 130.614 232.731C129.95 232.478 129.621 231.737 129.875 231.077C130.1 230.497 152.419 172.754 159.08 154.821C159.328 154.155 160.067 153.816 160.73 154.063C161.4 154.31 161.74 155.045 161.492 155.705C154.826 173.655 132.501 231.41 132.276 231.996C132.08 232.507 131.589 232.817 131.075 232.817Z" fill="black"/>
<path d="M105.61 232.076C105.501 232.076 105.391 232.065 105.281 232.036C104.595 231.858 104.179 231.157 104.364 230.474C104.491 229.992 117.177 181.665 124.576 147.212C124.726 146.518 125.413 146.081 126.106 146.23C126.798 146.38 127.243 147.057 127.093 147.752C119.682 182.263 106.984 230.641 106.857 231.129C106.707 231.703 106.182 232.088 105.61 232.088V232.076Z" fill="black"/>
<path d="M83.1411 231.33C82.5986 231.33 82.0964 230.991 81.9175 230.451L54.1442 147.097C53.9191 146.426 54.2885 145.702 54.9637 145.478C55.639 145.254 56.3663 145.622 56.5914 146.294L84.3647 229.647C84.5898 230.319 84.2204 231.042 83.5451 231.266C83.4124 231.312 83.2739 231.33 83.1411 231.33Z" fill="black"/>
<path d="M181.976 84.6857C176.389 81.2002 170.109 77.6113 163.299 77.7032C156.586 77.7893 152.309 82.0615 146.769 85.0819C141.037 88.2057 134.059 89.0727 127.705 87.6027C121.425 86.15 116.738 81.9237 110.99 79.334C105.045 76.6581 99.1406 76.8476 93.1265 79.2421C87.4183 81.5218 81.889 85.2829 75.5055 84.9671C72.5562 84.8235 69.7165 83.876 67.2116 82.3371C64.4989 80.6719 63.0386 78.2315 60.9089 75.992C56.2973 71.1341 49.8041 72.9602 44.1941 74.9412C37.2969 77.3702 30.4748 81.5332 23.0581 82.096C17.6789 82.5037 10.5047 81.0451 8.41536 75.3719C6.77043 70.9045 -0.467274 72.8338 1.19497 77.3529C5.13704 88.0621 17.4769 91.1112 27.8082 88.8717C34.8555 87.3443 41.1928 83.6578 48.038 81.5103C49.5733 81.0279 52.0609 79.9714 53.7404 80.2355C55.2873 80.4767 55.9683 81.717 56.8687 82.8482C58.733 85.1967 60.8569 87.195 63.4253 88.7741C68.4005 91.829 74.4839 93.0521 80.2556 92.1103C86.9565 91.0136 92.4396 86.6897 98.9616 85.1336C106.101 83.4282 111.4 88.3722 117.264 91.5304C122.955 94.5967 129.465 96.0782 135.935 95.6648C143.282 95.1939 149.435 92.4434 155.432 88.3549C158.941 85.9662 162.196 84.5364 166.514 85.5068C170.756 86.46 174.559 88.8488 178.201 91.1169C182.299 93.6722 186.062 87.2295 181.982 84.68L181.976 84.6857Z" fill="#FDF0E0"/>
<path d="M182.784 103.79C176.798 94.2752 164.355 94.212 154.791 97.6688C148.321 100.006 142.012 103.733 135 104.129C127.612 104.542 120.853 101.585 114.349 98.4784C108.306 95.5901 101.847 93.1037 95.2328 95.705C89.6516 97.8985 85.7441 102.217 79.2914 101.522C73.3235 100.879 67.7365 97.8181 62.1841 95.7452C56.4413 93.5976 50.658 92.4606 44.5285 93.3162C34.5261 94.7173 14.4349 106.041 7.32994 93.299C4.9924 89.1072 -1.48343 92.8568 0.859874 97.0601C6.15829 106.563 18.3192 107.741 27.9695 105.432C34.8609 103.784 41.5849 100.477 48.7765 100.408C54.8714 100.35 60.5911 103.061 66.1262 105.289C71.4592 107.43 77.127 109.503 82.9795 108.975C85.6806 108.728 88.1856 107.947 90.6039 106.741C93.357 105.363 95.8273 103.153 98.8286 102.314C105.605 100.419 113.391 106.604 119.514 108.872C125.811 111.203 132.599 112.283 139.265 111.083C146.814 109.722 153.371 105.444 160.759 103.595C166.011 102.28 173.122 102.492 176.302 107.551C178.853 111.605 185.335 107.873 182.772 103.79H182.784Z" fill="#FDF0E0"/>
<path d="M92.0467 183.882C89.4725 183.882 86.9041 183.049 84.7571 181.367C71.032 170.6 38.6124 140.075 33.92 89.3312C30.7745 55.3202 46.762 32.8568 60.7295 20.0001C75.8167 6.10397 91.4003 0.315853 92.0583 0.0804231C92.2256 0.0172591 92.3988 -0.00570963 92.5777 0.00577473L104.935 0.752258C105.2 0.769485 105.449 0.86136 105.656 1.02788C106.17 1.43558 157.076 42.3716 148.073 97.6171C141.089 140.483 112.074 170.135 99.9251 180.896C97.6799 182.883 94.8633 183.888 92.0467 183.888V183.882ZM92.6989 2.57827C90.65 3.37069 76.1169 9.29088 62.4091 21.9409C42.7623 40.069 34.0355 62.6587 36.4827 89.0957C41.0827 138.852 72.8905 168.791 86.3501 179.357C89.865 182.113 94.8518 181.958 98.2109 178.984C110.158 168.407 138.676 139.265 145.533 97.2094C153.931 45.6791 108.571 6.75858 104.364 3.27882L92.6989 2.57827Z" fill="black"/>
<path d="M92.1797 182.699C91.0773 182.699 90.1423 182.004 89.8306 180.936C84.8727 164.083 68.9371 106.041 72.1231 66.7528C75.8631 20.5455 97.859 1.82023 98.7941 1.04504C99.1288 0.763672 99.5848 0.677539 100 0.803867C100.416 0.930195 100.739 1.26324 100.86 1.68242C100.953 2.00398 109.893 34.2349 109.893 63.876C109.893 89.4402 98.1996 159.73 94.6153 180.661C94.4191 181.809 93.5014 182.624 92.3298 182.693C92.2778 182.693 92.2259 182.693 92.1739 182.693L92.1797 182.699ZM98.9268 4.4559C93.8823 9.61812 77.7678 28.8831 74.6799 66.9596C71.5574 105.455 87.0775 162.418 92.1566 179.748C95.8274 158.277 107.313 89.0497 107.313 63.876C107.313 38.7023 100.878 12.0298 98.9268 4.4559Z" fill="black"/>
</g>
<defs>
<clipPath id="clip0_81_4720">
<rect width="185" height="267" fill="white"/>
</clipPath>
</defs>
</svg>
