<svg width="184" height="153" viewBox="0 0 184 153" fill="none" xmlns="http://www.w3.org/2000/svg">
<g clip-path="url(#clip0_81_4743)">
<path d="M64.498 8.99962L51.0953 5.69456C49.8296 5.38243 48.55 6.15966 48.2373 7.43057L46.8172 13.2019C46.5045 14.4728 47.2771 15.7561 48.5428 16.0682L61.9455 19.3733C63.2113 19.6854 64.4909 18.9082 64.8036 17.6373L66.2236 11.866C66.5364 10.5951 65.7638 9.31175 64.498 8.99962Z" fill="#ECB771"/>
<path d="M87.325 30.2429L83.2281 29.231C80.4174 28.5359 78.6871 25.6602 79.3789 22.8372L79.4083 22.7268C80.1047 19.9047 82.9721 18.164 85.7837 18.8546L89.8806 19.8664C92.6913 20.5616 94.4216 23.4373 93.7297 26.2603L93.7004 26.3706C93.004 29.1928 90.1366 30.9334 87.325 30.2429Z" fill="#ECB771"/>
<path d="M105.432 37.8188L101.335 36.807C98.5241 36.1118 96.7938 33.2361 97.4856 30.4131L97.515 30.3028C98.2114 27.4806 101.079 25.74 103.89 26.4305L107.987 27.4423C110.798 28.1375 112.528 31.0132 111.836 33.8362L111.807 33.9465C111.111 36.7687 108.243 38.5093 105.432 37.8188Z" fill="#ECB771"/>
<path d="M22.4305 37.2581C21.2734 37.0512 19.6574 36.5408 18.8091 35.2768C18.1087 34.232 18.0661 32.9147 18.6754 31.3577C19.4682 29.3376 20.5058 28.175 21.7637 27.8991C23.2714 27.5669 24.4453 28.6723 24.4944 28.7196L24.7077 28.9215L24.4035 37.4087L23.7624 37.4C23.705 37.3993 23.1602 37.3886 22.4305 37.2581ZM22.5963 29.1699C22.4197 29.1383 22.2288 29.1331 22.0334 29.18C21.2433 29.3613 20.5037 30.2787 19.8944 31.8357C19.4526 32.9652 19.453 33.8753 19.8957 34.5371C20.5542 35.5215 22.129 35.9138 23.1436 36.0326L23.377 29.4973C23.1969 29.3784 22.9225 29.2234 22.5972 29.1652L22.5963 29.1699Z" fill="#142600"/>
<path d="M62.5598 23.6432L44.8804 19.283C42.0697 18.5879 40.3395 15.7122 41.0313 12.8892L41.0606 12.7788C41.7571 9.95668 44.6245 8.21604 47.436 8.90656L65.1154 13.2667C67.9261 13.9619 69.6564 16.8376 68.9645 19.6606L68.9352 19.7709C68.2388 22.5931 65.3714 24.3337 62.5598 23.6432Z" fill="#ECB771"/>
<path d="M50.4856 10.0102C55.0896 11.0019 59.6882 11.9976 64.2923 12.9893C65.5302 13.254 65.8718 11.3169 64.6393 11.0484C60.0353 10.0566 55.4367 9.06101 50.8326 8.06924C49.5947 7.80455 49.2531 9.74164 50.4856 10.0102Z" fill="#142600"/>
<path d="M44.8762 12.3874C52.4341 14.4273 60.0318 16.3251 67.66 18.0791C68.8946 18.3625 69.237 16.4207 68.007 16.1382C60.378 14.3889 52.7803 12.4911 45.2232 10.4464C44.0016 10.1173 43.6639 12.0598 44.8762 12.3874Z" fill="#142600"/>
<path d="M81.9041 22.0993C85.4592 22.9228 88.9502 23.9707 92.3661 25.2508C92.8606 25.4355 93.4321 25.297 93.6767 24.787C93.8911 24.339 93.7156 23.6576 93.2165 23.4721C89.6383 22.1341 85.9765 21.0219 82.2558 20.1592C81.0266 19.872 80.6796 21.813 81.9087 22.1002L81.9041 22.0993Z" fill="#142600"/>
<path d="M169.905 72.3477C169.449 72.2663 169.035 72.144 168.689 72.01C168.389 71.8937 168.215 71.5785 168.272 71.2613L169.588 63.8988C169.641 63.6002 169.883 63.3738 170.186 63.346C170.655 63.2951 174.839 62.9358 176.405 65.0119C177.096 65.9249 177.161 67.1162 176.603 68.5476C175.147 72.2643 172.046 72.7354 169.904 72.3524L169.905 72.3477ZM169.706 70.911C170.936 71.2177 173.967 71.5671 175.348 68.0536C175.729 67.0769 175.724 66.3538 175.333 65.8313C174.512 64.7406 172.138 64.6051 170.828 64.6598L169.71 70.9119L169.706 70.911Z" fill="#142600"/>
<path d="M146.743 41.6811C146.743 41.6811 146.899 35.416 152.146 36.3542C157.393 37.2923 168.527 39.2833 169.023 41.4713C169.524 43.6601 168.055 46.8882 168.055 46.8882L146.743 41.6811Z" fill="#B3D1E8"/>
<path d="M147.444 149.895L5.86041 114.853C3.59138 114.293 2.20956 111.99 2.7704 109.712L26.3519 14.2269C26.9128 11.9486 29.2092 10.5585 31.4782 11.1183L173.062 46.1608C175.331 46.7206 176.713 49.0237 176.152 51.3019L152.571 146.782C152.01 149.06 149.714 150.451 147.445 149.891L147.444 149.895Z" fill="#FDF0E0"/>
<path d="M17.565 49.7975L4.0467 104.533C3.75496 105.708 3.70857 106.88 3.84663 108.012L152.459 144.701C153.084 143.783 153.566 142.747 153.847 141.608L167.927 84.5897L17.565 49.7975Z" fill="#0B4765"/>
<path d="M16.9766 52.1769L167.185 87.6109L168.719 81.39L18.5286 45.911L16.9766 52.1769Z" fill="#B3D1E8"/>
<path d="M3.9248 105.161C3.55939 107.205 3.8633 109.233 4.71012 110.988L151.519 145.881C152.614 144.719 153.439 143.273 153.847 141.608L154.245 139.994L3.9248 105.161Z" fill="#B3D1E8"/>
<path d="M33.3985 43.3456C33.139 44.7967 31.7569 45.7677 30.3069 45.5084C28.857 45.2492 27.8961 43.864 28.1564 42.4083C28.4167 40.9526 29.798 39.9863 31.248 40.2455C32.6979 40.5048 33.6588 41.8899 33.3985 43.3456Z" fill="#ECB771"/>
<path d="M127.099 51.4191C126.839 52.8702 125.457 53.8412 124.007 53.5819C122.557 53.3226 121.596 51.9375 121.857 50.4818C122.117 49.0261 123.498 48.0597 124.948 48.319C126.398 48.5783 127.359 49.9634 127.099 51.4191Z" fill="#ECB771"/>
<path d="M160.271 71.4579C160.011 72.909 158.629 73.88 157.179 73.6207C155.729 73.3615 154.768 71.9763 155.028 70.5206C155.289 69.0649 156.67 68.0986 158.12 68.3578C159.57 68.6171 160.531 70.0022 160.271 71.4579Z" fill="#ECB771"/>
<path d="M48.6292 42.8143C48.2654 44.8485 46.3305 46.2022 44.3043 45.8399C42.2781 45.4776 40.9321 43.5373 41.2959 41.503C41.6596 39.4688 43.5946 38.1151 45.6208 38.4774C47.6469 38.8397 48.9929 40.78 48.6292 42.8143Z" fill="#153433"/>
<path d="M80.406 39.7572C77.1901 39.1822 75.0172 36.261 75.5562 33.247C76.0951 30.233 79.1503 28.2466 82.3615 28.8208C85.5728 29.395 87.7503 32.317 87.2114 35.3311C86.6724 38.3451 83.6172 40.3314 80.406 39.7572ZM82.193 29.7633C79.4976 29.2814 76.9412 30.9187 76.4949 33.4149C76.0486 35.911 77.8791 38.3328 80.5745 38.8148C83.2699 39.2967 85.8263 37.6594 86.2726 35.1632C86.719 32.6671 84.8884 30.2453 82.193 29.7633Z" fill="#142600"/>
<path d="M80.7655 37.7462C82.8804 38.1244 84.8716 36.8831 85.213 34.9737C85.5544 33.0643 84.1168 31.2098 82.0019 30.8317C79.887 30.4535 77.8958 31.6948 77.5544 33.6043C77.213 35.5137 78.6507 37.3681 80.7655 37.7462Z" fill="#153433"/>
<path d="M149.166 58.355L149.036 58.3317L133.174 54.2677C132.22 54.0248 131.647 53.046 131.89 52.088L133.923 44.1219C134.04 43.6565 134.33 43.2702 134.743 43.0262C135.113 42.8083 135.545 42.7266 135.967 42.8022L136.098 42.8255L151.96 46.8895C152.914 47.1324 153.487 48.1112 153.244 49.0692L151.21 57.0353C151.093 57.5007 150.804 57.887 150.391 58.131C150.021 58.3489 149.589 58.4306 149.166 58.355ZM135.874 43.6473C135.59 43.5966 135.367 43.6386 135.174 43.7533C134.959 43.8834 134.803 44.0865 134.739 44.3352L132.705 52.3013C132.643 52.5452 132.678 52.802 132.808 53.0177C132.937 53.2334 133.144 53.3908 133.387 53.4535L149.254 57.5137L149.147 57.9231L149.318 57.53C149.541 57.5699 149.769 57.5288 149.968 57.4102C150.183 57.2802 150.339 57.077 150.403 56.8284L152.436 48.8622C152.565 48.3557 152.26 47.8388 151.755 47.7101L135.892 43.6507L135.879 43.6482L135.874 43.6473Z" fill="#142600"/>
<path d="M150.757 48.4409L136.405 44.7681C135.988 44.6614 135.563 44.9142 135.456 45.3327L133.81 51.7803C133.704 52.1988 133.955 52.6245 134.372 52.7311L148.724 56.404C149.14 56.5106 149.565 56.2579 149.672 55.8394L151.318 49.3918C151.425 48.9733 151.173 48.5476 150.757 48.4409Z" fill="#45A5D5"/>
<path d="M82.7375 116.755C65.8542 113.736 54.5052 97.9503 57.4352 81.5644C60.3651 65.1785 76.485 54.3096 93.3636 57.3277C110.242 60.3458 121.596 76.132 118.667 92.5132C115.738 108.894 99.6162 119.773 82.7375 116.755Z" fill="#FDF0E0"/>
<path d="M83.1138 114.651C67.3876 111.839 56.8042 97.1626 59.5264 81.9385C62.2486 66.7143 77.2574 56.6146 92.9882 59.4274C108.719 62.2402 119.298 76.9153 116.576 92.1394C113.853 107.364 98.8446 117.463 83.1138 114.651Z" fill="#153433"/>
<path d="M85.8549 105.463C97.017 107.458 107.632 100.316 109.565 89.5086C111.497 78.7015 104.015 68.3227 92.8528 66.3268C81.6907 64.3309 71.0756 71.4737 69.1432 82.2808C67.2107 93.0879 74.6929 103.467 85.8549 105.463Z" fill="#B3D1E8"/>
<path d="M86.6074 101.254C77.773 99.6745 71.8207 91.4986 73.3349 83.0304C74.8491 74.5621 83.2659 68.9556 92.1002 70.5352C100.935 72.1149 106.887 80.2908 105.373 88.759C103.859 97.2273 95.4417 102.834 86.6074 101.254Z" fill="#05355A"/>
<path d="M86.9837 99.15C79.3065 97.7772 74.1244 90.7116 75.4309 83.4051C76.7373 76.0987 84.0469 71.2667 91.7241 72.6395C99.4013 74.0122 104.584 81.0732 103.277 88.3843C101.97 95.6954 94.6609 100.523 86.9837 99.15Z" fill="#45A5D5"/>
<path d="M62.7303 87.9183C62.2284 87.8286 61.8069 87.4499 61.6854 86.9226C59.6813 78.2297 65.0984 74.3257 65.3287 74.1646C65.9207 73.7505 66.7386 73.8967 67.1504 74.4904C67.5622 75.084 67.417 75.8958 66.8288 76.3155C66.6361 76.4544 62.6477 79.4486 64.2327 86.3284C64.3939 87.0361 63.9558 87.7426 63.2505 87.9054C63.0707 87.9455 62.8921 87.9521 62.7248 87.9221L62.7303 87.9183Z" fill="#142600"/>
<path d="M83.7258 111.871C79.8826 111.184 77.7778 108.901 77.6453 108.757C77.1614 108.218 77.2044 107.387 77.7422 106.901C78.2799 106.415 79.1023 106.456 79.587 106.99C79.7555 107.174 83.5706 111.184 90.5986 108.516C91.2725 108.261 92.0313 108.604 92.2845 109.28C92.5368 109.961 92.1952 110.718 91.5213 110.973C88.4297 112.144 85.8179 112.24 83.7267 111.866L83.7258 111.871Z" fill="#142600"/>
<path d="M101.146 66.5626C100.76 66.4937 100.41 66.2529 100.217 65.8814C100.109 65.6839 97.9213 61.9849 89.1832 63.2729C88.4693 63.3764 87.8048 62.882 87.6981 62.1647C87.596 61.4483 88.0894 60.7806 88.8041 60.6725C99.6053 59.0842 102.429 64.4522 102.547 64.6802C102.873 65.3259 102.611 66.1169 101.968 66.4448C101.704 66.5759 101.42 66.6117 101.15 66.5635L101.146 66.5626Z" fill="#142600"/>
<path d="M111.272 98.9478C110.937 98.888 110.626 98.6975 110.417 98.3905C110.016 97.7939 110.166 96.9782 110.762 96.5696C110.949 96.4392 115.254 93.3331 113.665 86.4478C113.504 85.7401 113.942 85.0336 114.648 84.8708C115.348 84.7072 116.056 85.1468 116.217 85.8545C118.225 94.5576 112.485 98.5772 112.239 98.7451C111.944 98.9428 111.597 99.0106 111.276 98.9533L111.272 98.9478Z" fill="#142600"/>
<path d="M60.9386 74.4438C60.9386 74.4438 57.2108 70.402 55.408 74.4226C53.6099 78.4441 52.6697 83.7024 53.5276 84.9391C54.3855 86.1759 58.6231 85.6769 58.6231 85.6769L60.9386 74.4438Z" fill="#FDF0E0"/>
<path d="M31.2919 95.976C31.3718 95.6629 31.4387 95.3426 31.4979 95.0114C32.0077 92.1606 31.585 89.6969 30.5486 89.5116C29.5123 89.3263 28.262 91.4909 27.7523 94.3416C27.693 94.6729 27.6486 95.002 27.6113 95.3179C26.3622 95.759 25.3747 96.8295 25.1244 98.2292C24.7532 100.305 26.1258 102.284 28.1938 102.654C30.2618 103.024 32.2352 101.643 32.6064 99.567C32.8567 98.1673 32.3014 96.821 31.2826 95.9743L31.2919 95.976Z" fill="#FDF0E0"/>
<path d="M27.0009 98.5695C27.1862 97.5337 28.1737 96.8388 29.21 97.0241C30.2463 97.2094 30.9326 98.1988 30.7466 99.2392C30.5606 100.28 29.5739 100.97 28.5376 100.785C27.5012 100.599 26.8149 99.6099 27.0009 98.5695Z" fill="#B3D1E8"/>
<path d="M96.6478 79.6205C92.2256 73.2397 82.5452 73.844 79.8022 83.1229C77.0638 92.4026 86.1121 96.192 88.3966 95.5123C90.6802 94.8373 86.1953 89.6924 88.1811 84.6211C90.1669 79.5498 98.3628 82.0987 96.6432 79.6197L96.6478 79.6205Z" fill="#B3D1E8"/>
<path d="M94.3478 92.2431C101.352 88.1799 97.56 84.3096 96.8753 83.1231C96.1907 81.9365 89.5544 83.9422 89.6867 88.2174C89.8191 92.4926 93.5346 92.714 94.3478 92.2431Z" fill="#B3D1E8"/>
<path d="M58.2844 74.5086C56.4039 77.5957 55.4507 81.1568 55.4865 84.7647C55.4934 85.3967 56.4687 85.3063 56.4618 84.6743C56.4293 81.2355 57.3826 77.8622 59.1679 74.9314C59.4999 74.3889 58.6109 73.9699 58.2844 74.5086Z" fill="#142600"/>
</g>
<defs>
<clipPath id="clip0_81_4743">
<rect width="164" height="125" fill="white" transform="translate(22.2815 0.542236) rotate(10.1379)"/>
</clipPath>
</defs>
</svg>
