<svg width="242" height="238" viewBox="0 0 242 238" fill="none" xmlns="http://www.w3.org/2000/svg">
<g clip-path="url(#clip0_81_5222)">
<path d="M227.405 123.266C227.405 123.266 227.389 123.266 227.381 123.27C227.279 122.842 226.889 122.521 226.433 122.521H217.724C217.268 122.521 216.894 122.842 216.811 123.27C216.803 123.27 216.796 123.266 216.788 123.266C216.674 123.266 216.583 123.356 216.587 123.47L217.823 177.777C217.823 177.89 217.921 177.981 218.035 177.981C218.149 177.981 218.24 177.89 218.236 177.777L217.012 124.05C217.193 124.273 217.465 124.418 217.768 124.418H226.476C226.779 124.418 227.046 124.273 227.216 124.05L228.44 177.773C228.44 177.887 228.538 177.977 228.652 177.977C228.766 177.977 228.857 177.887 228.853 177.773L227.617 123.466C227.617 123.352 227.519 123.262 227.405 123.262V123.266Z" fill="#2D2644"/>
<path d="M235.358 236.424C235.153 237.295 235.728 238 236.641 238C237.554 238 238.459 237.295 238.663 236.424C238.868 235.554 238.293 234.848 237.38 234.848C236.467 234.848 235.562 235.554 235.358 236.424Z" fill="#2D2644"/>
<path d="M207.159 179.227L206.368 236.918L236.904 236.722C236.904 236.722 241.882 236.624 241.992 226.486C242.106 216.347 239.753 178.937 237.888 176.769C236.023 174.605 207.222 175.785 207.159 179.231V179.227Z" fill="#FF9CA9"/>
<path d="M205.333 236.424C205.128 237.295 205.703 238 206.612 238C207.521 238 208.43 237.295 208.634 236.424C208.839 235.554 208.265 234.848 207.356 234.848C206.447 234.848 205.538 235.554 205.333 236.424Z" fill="#2D2644"/>
<path d="M232.135 180.282C234.023 195.29 235.188 210.517 235.629 225.909C235.637 226.156 235.212 226.262 235.208 226.015C234.767 210.623 233.598 195.396 231.714 180.388C231.682 180.149 232.107 180.043 232.135 180.282Z" fill="#2D2644"/>
<path d="M227.802 180.776C228.908 195.764 229.498 210.882 229.577 226.113C229.577 226.36 229.156 226.466 229.156 226.219C229.081 210.988 228.487 195.87 227.381 180.882C227.361 180.639 227.786 180.533 227.802 180.776Z" fill="#2D2644"/>
<path d="M223.088 181.568C223.898 196.376 224.209 211.309 224.02 226.34C224.02 226.587 223.595 226.697 223.599 226.446C223.792 211.415 223.481 196.482 222.667 181.674C222.655 181.431 223.076 181.321 223.088 181.568Z" fill="#2D2644"/>
<path d="M235.586 175.781C229.97 175.918 224.351 176.032 218.736 176.193C216.528 176.256 214.183 176.405 212.353 177.73C210.751 178.886 210.228 180.549 210.248 182.478C210.311 188.017 210.657 193.565 210.791 199.105C210.928 204.699 211.019 210.298 211.058 215.892C211.105 222.24 211.086 228.583 211.007 234.926C211.007 235.189 211.416 235.197 211.42 234.934C211.554 224.294 211.511 213.646 211.29 203.002C211.18 197.744 211.031 192.491 210.838 187.237C210.791 185.939 210.736 184.646 210.684 183.348C210.637 182.046 210.582 180.69 211.239 179.529C212.491 177.322 215.253 176.773 217.614 176.648C223.584 176.322 229.6 176.342 235.582 176.197C235.845 176.189 235.845 175.781 235.582 175.785L235.586 175.781Z" fill="#2D2644"/>
<path d="M85.1396 210.933C85.1396 210.933 87.0324 225.874 86.2415 228.532C90.3694 231.939 93.12 228.646 92.7422 228.152C91.9159 226.078 93.0177 219.809 93.2223 211.619C92.1913 208.533 85.1396 210.933 85.1396 210.933Z" fill="#FFAA94"/>
<path d="M95.552 234.122C95.552 234.122 95.8864 236.898 95.3985 237.898H75.8883C75.8883 237.898 75.424 236.949 75.786 235.859C76.1481 234.765 95.3237 232.872 95.5559 234.122H95.552Z" fill="#2D2644"/>
<path d="M85.7851 227.175C85.7851 227.175 82.7354 231.794 77.6119 233.711C75.5184 234.495 75.786 235.859 75.786 235.859C80.8819 234.832 86.0172 237.4 89.5313 235.624C93.0453 233.848 95.5283 235.24 95.6424 235.201C96.1147 233.97 93.3168 228.281 93.0846 227.532C92.8525 226.783 89.3778 229.19 88.7993 228.085C88.2209 226.979 86.6744 225.952 85.789 227.175H85.7851Z" fill="#BF5452"/>
<path d="M89.0472 228.363C87.8863 229.045 87.1308 230.206 86.1588 231.119C85.9031 231.358 85.6355 231.676 85.3403 231.864C84.6556 232.307 84.3408 232.131 83.727 231.915C83.1367 231.703 82.5976 231.511 81.964 231.566C81.7673 231.582 81.7594 231.899 81.9601 231.884C83.239 231.774 84.4274 233.048 85.5568 232.095C86.151 231.594 86.7255 231.045 87.2528 230.472C87.8785 229.794 88.39 229.12 89.1928 228.645C89.3659 228.543 89.2164 228.265 89.0433 228.367L89.0472 228.363Z" fill="#2D2644"/>
<path d="M88.949 229.469C87.8787 228.343 86.4187 228.026 84.9392 227.92C84.7542 227.908 84.7385 228.171 84.8959 228.23C85.8993 228.618 86.6667 229.371 87.0798 230.355C86.1079 229.669 84.947 229.535 83.7586 229.288C83.5973 229.253 83.4714 229.488 83.6366 229.575C84.2505 229.896 84.7542 230.347 85.0808 230.974C85.2185 231.237 85.313 231.515 85.4114 231.794C84.648 231.119 83.7508 230.649 82.7473 230.406C82.5545 230.359 82.4679 230.661 82.6647 230.711C83.8885 231.009 84.9352 231.645 85.7813 232.601C85.8954 232.731 86.1236 232.57 86.0292 232.417C85.6435 231.794 85.5452 231.053 85.1202 230.445C84.9313 230.174 84.7109 229.947 84.463 229.747C85.4979 229.943 86.5053 230.174 87.3002 230.943C87.4065 231.045 87.6071 230.955 87.5599 230.794C87.2648 229.735 86.6273 228.885 85.7498 228.324C86.8595 228.481 87.9101 228.834 88.7247 229.692C88.8624 229.837 89.0867 229.618 88.9451 229.473L88.949 229.469Z" fill="#2D2644"/>
<path d="M93.2461 228.493C92.5614 228.755 91.9161 228.449 91.2786 228.163C91.0976 228.081 90.9402 228.355 91.1212 228.434C91.8452 228.759 92.5457 229.092 93.317 228.794C93.5019 228.724 93.4311 228.418 93.2422 228.489L93.2461 228.493Z" fill="#2D2644"/>
<path d="M60.2739 210.933C60.2739 210.933 62.1667 225.874 61.3758 228.532C65.5037 231.939 68.2543 228.646 67.8765 228.152C67.0501 226.078 68.152 219.809 68.3566 211.619C67.3256 208.533 60.2739 210.933 60.2739 210.933Z" fill="#FFAA94"/>
<path d="M70.6863 234.122C70.6863 234.122 71.0207 236.898 70.5328 237.898H51.0226C51.0226 237.898 50.5583 236.949 50.9203 235.859C51.2823 234.765 70.458 232.872 70.6902 234.122H70.6863Z" fill="#2D2644"/>
<path d="M60.9193 227.175C60.9193 227.175 57.8696 231.794 52.7462 233.711C50.6527 234.495 50.9203 235.859 50.9203 235.859C56.0162 234.832 61.1515 237.4 64.6655 235.624C68.1796 233.848 70.6626 235.24 70.7767 235.201C71.2489 233.97 68.4511 228.281 68.2189 227.532C67.9867 226.783 64.5121 229.19 63.9336 228.085C63.3552 226.979 61.8087 225.952 60.9233 227.175H60.9193Z" fill="#BF5452"/>
<path d="M64.1815 228.363C63.0206 229.045 62.2651 230.206 61.2931 231.119C61.0373 231.358 60.7697 231.676 60.4746 231.864C59.7899 232.307 59.4751 232.131 58.8612 231.915C58.271 231.703 57.7319 231.511 57.0983 231.566C56.9016 231.582 56.8937 231.899 57.0944 231.884C58.3733 231.774 59.5617 233.048 60.691 232.095C61.2852 231.594 61.8598 231.045 62.3871 230.472C63.0127 229.794 63.5243 229.12 64.3271 228.645C64.5002 228.543 64.3507 228.265 64.1775 228.367L64.1815 228.363Z" fill="#2D2644"/>
<path d="M64.0833 229.469C63.0129 228.343 61.553 228.026 60.0734 227.92C59.8885 227.908 59.8727 228.171 60.0301 228.23C61.0336 228.618 61.8009 229.371 62.218 230.355C61.2461 229.669 60.0852 229.535 58.8968 229.288C58.7355 229.253 58.6095 229.488 58.7748 229.575C59.3887 229.896 59.8924 230.347 60.219 230.974C60.3567 231.237 60.4512 231.515 60.5495 231.794C59.7861 231.119 58.8889 230.649 57.8855 230.406C57.6927 230.359 57.6061 230.661 57.8029 230.711C59.0267 231.009 60.0734 231.645 60.9194 232.601C61.0336 232.731 61.2618 232.57 61.1674 232.417C60.7817 231.794 60.6833 231.053 60.2584 230.445C60.0695 230.174 59.8491 229.947 59.6012 229.747C60.6361 229.943 61.6435 230.174 62.4384 230.943C62.5446 231.045 62.7453 230.955 62.6981 230.794C62.403 229.735 61.7655 228.885 60.888 228.324C61.9977 228.481 63.0483 228.834 63.8629 229.692C64.0006 229.837 64.2249 229.618 64.0833 229.473V229.469Z" fill="#2D2644"/>
<path d="M68.3804 228.493C67.6957 228.755 67.0503 228.449 66.4129 228.163C66.2318 228.081 66.0744 228.355 66.2555 228.434C66.9756 228.759 67.68 229.092 68.4512 228.794C68.6362 228.724 68.5654 228.418 68.3765 228.489L68.3804 228.493Z" fill="#2D2644"/>
<path d="M56.7283 115.236C55.9728 115.565 55.0756 143.46 54.4577 168.406C53.8399 193.353 56.7283 215.833 56.7283 215.833H72.8267C72.8267 215.833 75.1996 167.654 75.6128 157.99C75.9236 189.55 81.9089 215.833 81.9089 215.833H96.2523C96.2523 215.833 96.0477 186.57 97.905 159.428C99.7624 132.29 100.073 121.599 98.7314 117.381C97.3895 113.166 68.809 110.002 56.7362 115.232L56.7283 115.236Z" fill="#F2E3DA"/>
<path d="M75.648 46.2427C75.648 46.2427 86.5482 51.3825 92.6358 62.999C98.7234 74.6156 106.051 90.137 92.6358 93.5322C79.2211 95.5865 66.192 48.9165 75.648 46.2427Z" fill="#FFC673"/>
<path d="M6.51239 41.4792C6.51239 41.4792 16.7633 48.4813 20.8873 50.4651C25.0152 52.445 26.8017 54.6405 28.0413 54.6405C29.8317 54.366 34.4397 52.6528 34.4397 52.6528C34.4397 52.6528 40.7555 62.5208 40.8303 63.5519C38.2922 64.8535 31.4805 66.6295 25.9084 65.4337C20.3364 64.238 8.60979 50.8219 4.15527 44.2667C4.37957 41.9615 6.51239 41.4832 6.51239 41.4832V41.4792Z" fill="#FFAA94"/>
<path d="M31.6539 52.6055C31.6539 52.6055 43.6047 46.8188 47.7681 44.2666C51.9314 41.7182 59.7819 40.6048 62.7962 39.8246C65.8104 39.0444 73.8577 45.4702 76.5926 47.4736C79.3275 49.477 80.9763 57.6513 82.3181 61.662C83.66 65.6727 100.479 103.71 100.479 119.847C97.6925 123.548 93.6669 120.874 90.4677 121.595C87.2685 122.317 64.9801 122.007 64.9801 121.391C64.0514 118.514 64.0514 116.15 64.0514 116.15C64.0514 116.15 62.2964 120.364 62.2964 121.391C59.9235 121.391 54.1429 119.231 54.1429 119.231C52.2855 115.632 55.5989 111.829 54.56 110.594C53.5211 109.359 52.8325 80.9863 47.7602 66.4921C47.7602 66.4921 42.1527 67.3389 41.9992 67.4173C40.8226 68.0329 31.646 52.6055 31.646 52.6055H31.6539Z" fill="#408A67"/>
<path d="M53.6904 41.9144C53.6904 41.9144 50.3416 42.6868 49.5743 55.4638C48.7125 69.8835 49.5074 72.6514 49.5074 72.6514C49.5074 72.6514 47.166 68.1781 47.2014 64.1007C47.2368 60.0234 46.3396 50.0848 47.9924 46.2113C49.6451 42.3378 52.9821 41.6204 53.6904 41.9144Z" fill="#FFC673"/>
<path d="M5.08406 23.6604H15.7324C16.547 23.6604 17.2081 24.3191 17.2081 25.1306V31.7602C17.2081 32.5718 16.547 33.2304 15.7324 33.2304H5.08406C4.26949 33.2304 3.6084 32.5718 3.6084 31.7602V25.1306C3.6084 24.3191 4.26949 23.6604 5.08406 23.6604Z" fill="#2D2644"/>
<path d="M70.1784 21.3982C70.2452 20.9865 70.7293 17.2189 70.0406 14.5137C69.352 11.8046 65.11 7.55474 61.0057 7.69196C56.9014 7.82918 70.1784 21.3982 70.1784 21.3982Z" fill="#E8D4D1"/>
<path d="M41.8891 3.83817C41.8891 3.83817 39.5162 10.1306 41.8891 14.5138C44.2619 18.8969 46.926 28.612 48.4567 32.9834C49.9875 37.3509 68.9231 37.9978 71.6029 34.9515C74.2867 31.9053 71.9138 23.2174 71.1386 20.5945C70.3634 17.9717 65.1415 12.0125 61.6904 5.07314C58.2394 -1.8662 43.4316 -1.09386 41.8851 3.83817H41.8891Z" fill="#F2E3DA"/>
<path d="M64.9839 18.4538C64.9839 18.4538 68.3366 19.7986 68.9308 22.3704C69.525 24.9384 65.4994 25.1736 65.6804 27.9729C65.8614 30.7761 63.402 32.3207 62.0247 31.7523C58.1211 32.4423 54.2017 26.5066 55.3075 20.2886C56.4172 14.0707 64.98 18.4538 64.98 18.4538H64.9839Z" fill="#BF5452"/>
<path d="M25.7748 39.1739C25.7748 39.1739 24.9248 32.1327 24.4605 31.129C23.9961 30.1254 17.7787 26.8125 17.212 26.5028C16.6454 26.1931 14.2961 26.6047 14.0404 27.1457C13.7807 27.6868 15.3547 28.1494 15.3547 28.1494C15.3547 28.1494 13.4973 28.5101 13.8318 29.3334C14.1663 30.1567 15.5593 30.3371 15.5593 30.3371C15.5593 30.3371 13.8043 30.2861 14.064 31.1604C14.3237 32.0347 16 32.7913 16 32.7913C16 32.7913 14.0404 32.6776 14.0404 33.4735C14.0404 34.2694 16.4644 34.4262 16.3345 35.8885C16.2047 37.3548 17.1333 42.8789 22.6031 43.6238C24.307 43.2905 41.9244 64.183 46.7213 65.1083C51.5181 66.0335 58.9987 64.6966 58.9987 64.4418C58.9987 64.187 55.4886 51.5393 55.4886 51.5393C55.4886 51.5393 48.1104 51.849 47.9569 51.7981C45.3755 49.5869 28.4034 42.134 25.7709 39.1779L25.7748 39.1739Z" fill="#FFAA94"/>
<path d="M4.38784 33.8262C5.04893 33.4106 5.87137 33.1637 5.87137 32.701C5.87137 31.9052 3.91169 32.0189 3.91169 32.0189C3.91169 32.0189 5.58804 31.2622 5.84775 30.3879C6.10747 29.5136 4.35242 29.5646 4.35242 29.5646C4.35242 29.5646 5.74544 29.3843 6.07993 28.5609C6.41441 27.7376 4.55705 27.3769 4.55705 27.3769C4.55705 27.3769 6.13108 26.9143 5.87137 26.3733C5.61165 25.8323 3.26634 25.4206 2.69969 25.7303C2.69969 25.7303 1.44439 25.5696 0.700661 28.6276C-0.0824216 31.8503 -0.570372 36.1315 1.26731 39.1974C2.31405 40.942 4.15567 44.2588 4.15567 44.2588C5.52114 44.3881 7.14633 42.3808 7.66577 40.4794C8.25996 37.8605 3.17977 36.402 4.38784 33.8184V33.8262Z" fill="#FFAA94"/>
<path d="M46.8239 13.0395C46.8239 13.0395 44.1047 14.6861 45.1397 18.9321C46.1707 23.1819 45.242 30.9956 44.2779 34.2849C43.3138 37.5742 48.1303 40.1775 50.9518 40.5891C53.7732 41.0008 54.942 42.3298 55.3551 44.2705C55.7683 46.2112 54.8042 50.1827 55.3551 50.4571C55.9061 50.7315 62.7138 41.4085 63.3355 40.7263C60.9272 37.3664 62.0291 31.7522 62.0291 31.7522C60.6518 31.1328 60.1717 29.1451 60.1717 29.1451C60.1717 29.1451 62.8554 28.4864 62.7846 25.6284C62.7177 22.7703 59.8962 22.5625 59.003 24.3463C56.457 21.4687 59.2784 18.7282 60.1048 18.1793C60.9312 17.6305 64.7836 18.8654 64.9882 18.4538C61.549 14.5489 59.6208 11.3262 55.7014 10.7107C51.7821 10.0952 47.7919 11.7379 46.8278 13.0395H46.8239Z" fill="#FFAA94"/>
<path d="M60.7144 24.868C59.8959 25.456 59.408 26.3774 59.8054 27.3653C59.9038 27.6123 60.2658 27.4124 60.1674 27.1693C59.8644 26.4087 60.2973 25.6756 60.9112 25.2287C61.1237 25.0758 60.9269 24.7111 60.7144 24.868Z" fill="#D96A6A"/>
<path d="M49.0468 28.1885C48.0394 27.9179 47.2996 27.5024 47.2681 26.3536C47.2484 25.6989 47.3192 25.0246 47.3861 24.3777C47.5435 22.8291 47.8898 21.3236 48.4722 19.8808C48.5706 19.6338 48.1732 19.5241 48.0748 19.7711C47.2878 21.7156 46.9454 23.7857 46.8707 25.8753C46.8116 27.4553 47.4098 28.1767 48.9405 28.5883C49.1963 28.6589 49.3104 28.2629 49.0507 28.1924L49.0468 28.1885Z" fill="#D96A6A"/>
<path d="M51.6166 30.6232C50.9515 31.521 49.0509 32.5599 48.1222 31.5249C47.9451 31.3289 47.65 31.6151 47.8271 31.8111C48.9722 33.0853 51.1522 31.9444 51.9746 30.831C52.132 30.6193 51.7779 30.4115 51.6205 30.6232H51.6166Z" fill="#D96A6A"/>
<path d="M46.4107 15.1135C45.8952 14.992 45.3915 15.0508 44.9193 15.2821C44.6281 15.4232 44.5022 15.8427 44.6714 16.1211C44.8524 16.419 45.1987 16.521 45.5095 16.3681C45.6748 16.2857 45.8991 16.2661 46.0762 16.3053C46.4028 16.3798 46.7452 16.2073 46.8396 15.878C46.9262 15.5683 46.7373 15.1958 46.4107 15.1174V15.1135Z" fill="#2D2644"/>
<path d="M55.7207 15.0391C54.5442 14.4079 53.2338 14.4745 51.9391 14.5843C51.1521 14.6509 51.1246 15.8859 51.9194 15.8193C52.9622 15.733 54.1349 15.5919 55.0911 16.1055C55.7916 16.4818 56.4251 15.4194 55.7207 15.043V15.0391Z" fill="#2D2644"/>
<path d="M53.9737 22.8644C53.9225 22.535 53.5329 22.3351 53.226 22.4096C52.8797 22.4958 52.7184 22.8252 52.7695 23.1545C52.7892 23.2917 52.8128 23.4289 52.8325 23.5622C52.8837 23.8916 53.2732 24.0915 53.5802 24.017C53.9265 23.9308 54.0878 23.6014 54.0366 23.2721C54.017 23.1349 53.9934 22.9977 53.9737 22.8644Z" fill="#2D2644"/>
<path d="M46.9375 22.8644C46.8864 22.535 46.4968 22.3351 46.1899 22.4096C45.8436 22.4958 45.6823 22.8252 45.7334 23.1545C45.7531 23.2917 45.7767 23.4289 45.7964 23.5622C45.8475 23.8916 46.2371 24.0915 46.544 24.017C46.8903 23.9308 47.0517 23.6014 47.0005 23.2721C46.9808 23.1349 46.9572 22.9977 46.9375 22.8644Z" fill="#2D2644"/>
<path d="M70.9143 43.3455C70.9143 43.3455 64.9841 45.0431 66.7037 55.4599C68.4233 65.8768 77.297 80.8846 90.7786 82.0529L91.2587 83.3545C91.2587 83.3545 84.2424 83.6956 78.2571 79.038C72.685 79.2419 65.7632 69.9973 62.5719 57.9299C59.3805 45.8624 64.8975 41.5499 66.5188 40.7265C68.144 39.9032 75.7426 44.7725 75.8961 46.9641C72.8582 44.7137 70.9064 43.3455 70.9064 43.3455H70.9143Z" fill="#FFC673"/>
<path d="M70.4852 46.7561L59.2388 50.2846C59.2388 50.2846 63.587 66.2882 63.7563 66.1863C63.9294 66.0843 69.1867 64.3005 72.4174 64.1633C73.1729 60.7014 70.4852 46.7561 70.4852 46.7561Z" fill="#408A67"/>
<path d="M72.1068 64.0184C69.9031 63.9674 67.5972 64.877 65.4801 65.4141C64.3192 65.7082 63.1544 66.0022 61.9936 66.2962C61.6434 66.3864 60.5297 66.8686 60.2503 66.7353C59.8214 66.5354 59.6601 65.4102 59.5263 65.0103C59.4437 64.7594 59.0423 64.8574 59.1249 65.1083C59.302 65.6376 59.424 66.998 60.0733 67.1627C60.4156 67.2489 60.998 66.9745 61.3168 66.8922C62.029 66.7118 62.7373 66.5315 63.4496 66.3551C64.8701 65.9944 66.2907 65.6376 67.7113 65.2769C69.1397 64.9162 70.6154 64.3987 72.1028 64.434C72.3704 64.4418 72.3744 64.0302 72.1107 64.0223L72.1068 64.0184Z" fill="#2D2644"/>
<path d="M91.7149 62.4227C90.255 62.4031 88.7163 62.2776 87.4256 61.5288C86.0995 60.7643 85.3322 59.4313 84.7026 58.0866C83.7424 56.0205 82.9278 53.6956 80.736 52.6292C80.4999 52.5155 80.2874 52.8684 80.5274 52.9821C83.282 54.319 83.703 57.62 85.2456 59.9528C86.7409 62.211 89.1256 62.7952 91.707 62.8265C91.9746 62.8265 91.9785 62.4188 91.7149 62.4149V62.4227Z" fill="#2D2644"/>
<path d="M98.3613 80.1944C97.8419 76.5287 96.2482 72.9062 94.3121 69.7776C94.2649 69.7031 94.1704 69.6482 94.0839 69.6756C92.0219 70.3029 90.0347 71.1145 88.1222 72.1064C87.8861 72.2279 88.0829 72.5886 88.319 72.4671C89.2083 72.0044 90.1134 71.5732 91.042 71.189C91.6402 70.942 93.4975 69.9187 94.1429 70.2833C94.4183 70.4362 94.7174 71.2635 94.8709 71.5418C94.9063 71.6045 94.9338 71.6673 94.9693 71.73C94.9496 71.73 94.9299 71.73 94.9063 71.7418C92.8797 72.5416 90.8335 73.2865 88.7676 73.9843C88.5157 74.0706 88.6141 74.4705 88.8659 74.3842C90.9633 73.6746 93.045 72.914 95.107 72.1025C95.1227 72.0946 95.1345 72.0828 95.1503 72.075C95.2801 72.3259 95.4139 72.5768 95.5398 72.8317C96.0081 73.7961 96.4213 74.7841 96.7794 75.7956C97.4602 77.7088 98.2433 79.9592 98.0268 82.0096C97.9088 83.1348 97.4011 84.2953 96.3977 84.9069C95.5438 85.4323 94.4459 85.4127 93.4897 85.6244C93.2299 85.6832 93.3283 86.0831 93.588 86.0243C95.0676 85.691 96.5394 85.7106 97.5428 84.409C98.4715 83.2054 98.5738 81.645 98.3692 80.1944H98.3613Z" fill="#2D2644"/>
<path d="M69.7182 46.6464C67.3493 47.5912 64.9725 48.54 62.517 49.2339C60.1362 49.9082 57.6768 50.2689 55.2449 50.708C54.9813 50.7551 55.0836 51.155 55.3433 51.1079C57.9051 50.6492 60.4865 50.2611 62.9852 49.528C65.3463 48.834 67.6365 47.9205 69.9189 47.007C70.1668 46.909 69.9661 46.5483 69.7221 46.6464H69.7182Z" fill="#2D2644"/>
<path d="M63.7207 114.946C62.7408 113.597 62.4378 112.068 62.7566 110.437C63.0359 108.999 62.9454 107.834 62.5401 106.415C61.6351 103.247 60.7811 100.064 60.0453 96.8527C58.5263 90.2505 57.4009 83.5582 56.6887 76.8188C56.3424 73.553 56.2401 70.1852 54.8431 67.1507C54.7329 66.9116 54.3709 67.1076 54.4811 67.3468C55.8702 70.3695 55.9489 73.7529 56.2951 77.007C56.6336 80.1708 57.0625 83.3269 57.578 86.4672C58.6601 93.042 60.1319 99.5461 61.9774 105.948C62.2647 106.948 62.6306 107.987 62.5716 109.038C62.5283 109.814 62.2607 110.559 62.2096 111.339C62.123 112.711 62.5598 114.032 63.3586 115.138C63.5121 115.35 63.8781 115.154 63.7207 114.942V114.946Z" fill="#2D2644"/>
<path d="M53.7531 42.326C52.5214 44.4039 51.4393 46.5562 50.5027 48.7792C50.4319 48.9517 50.6562 49.0889 50.8018 49.0144C51.577 48.6067 53.0448 49.2261 53.824 49.4809C54.0758 49.5633 54.186 49.1673 53.9341 49.085C53.1314 48.8223 51.9902 48.3283 51.0733 48.4969C51.9587 46.4465 52.97 44.4587 54.1112 42.5338C54.245 42.3064 53.8909 42.0947 53.7571 42.326H53.7531Z" fill="#2D2644"/>
<path d="M64.5865 40.6636C62.9928 41.8123 62.1783 43.5217 61.5054 45.3134C61.3165 45.823 61.1237 46.3327 60.9505 46.8502C60.7931 47.3285 60.7459 47.9362 60.5413 48.3871C60.3366 48.8379 60.0887 48.7046 59.5614 48.7281C59.0499 48.7517 58.5501 48.8418 58.0543 48.9595C57.7946 49.0222 57.8929 49.4182 58.1527 49.3593C58.9869 49.1633 59.8054 49.1045 60.6593 49.1751C60.7774 49.1829 60.8561 49.0771 60.8679 48.9712C61.0528 47.5637 61.5841 46.2072 62.1035 44.8939C62.6938 43.4001 63.4454 41.9887 64.7793 41.0282C64.9918 40.8753 64.7951 40.5107 64.5826 40.6675L64.5865 40.6636Z" fill="#2D2644"/>
<path d="M58.0822 35.1318C56.8701 36.8646 55.1151 37.488 53.0767 37.4606C52.5101 37.4527 52.152 37.5547 51.6876 37.8644C51.0738 38.2721 50.696 38.625 49.905 38.625C49.3699 38.625 48.8426 38.4799 48.331 38.3427C48.0752 38.276 47.9611 38.672 48.2208 38.7387C49.0708 38.9621 50.031 39.2052 50.8849 38.8798C51.2233 38.7504 51.4594 38.5505 51.7427 38.3388C52.4825 37.7899 53.2262 37.9389 54.0684 37.8801C55.851 37.7585 57.425 36.7784 58.4363 35.3356C58.5898 35.12 58.2317 34.9083 58.0822 35.1279V35.1318Z" fill="#D96A6A"/>
<path d="M58.0386 40.8596C58.0386 41.926 57.952 42.9767 57.7671 44.0274C57.7199 44.2862 58.1173 44.3999 58.1645 44.1372C58.3573 43.0512 58.4557 41.9652 58.4518 40.8636C58.4518 40.597 58.0386 40.593 58.0386 40.8557V40.8596Z" fill="#D96A6A"/>
<path d="M3.2034 32.4072C2.20389 33.0737 1.51525 34.0538 1.24766 35.2221C1.18863 35.4809 1.58608 35.5906 1.6451 35.3319C1.88514 34.2733 2.49508 33.3716 3.40015 32.7679C3.62052 32.6228 3.42376 32.2582 3.2034 32.4072Z" fill="#D96A6A"/>
<path d="M3.8409 29.3921C2.40065 29.3137 1.11388 30.6428 0.582643 31.8581C0.476396 32.0973 0.830553 32.309 0.936801 32.0659C1.40901 30.9838 2.53445 29.7293 3.83302 29.7998C4.10061 29.8155 4.10455 29.4039 3.8409 29.3882V29.3921Z" fill="#D96A6A"/>
<path d="M3.80129 27.2516C2.7034 27.3613 1.60551 27.5299 0.885389 28.4473C0.72405 28.6551 1.07821 28.8629 1.23955 28.6551C1.85342 27.8749 2.87261 27.7534 3.79342 27.6593C4.05313 27.6319 4.06494 27.2202 3.80129 27.2477V27.2516Z" fill="#D96A6A"/>
<path d="M20.663 29.6665C19.2346 28.8706 17.7038 28.3806 16.0786 28.1924C15.815 28.161 15.8111 28.5727 16.0708 28.604C17.6291 28.7844 19.085 29.2588 20.4545 30.0233C20.6866 30.1526 20.8952 29.7998 20.663 29.6704V29.6665Z" fill="#D96A6A"/>
<path d="M19.6713 31.5209C18.5695 31.0622 17.4559 30.6271 16.3383 30.2154C16.0904 30.1252 15.9802 30.5212 16.2281 30.6114C17.3496 31.023 18.4593 31.4582 19.5651 31.9169C19.8091 32.0189 19.9192 31.6229 19.6753 31.5209H19.6713Z" fill="#D96A6A"/>
<path d="M19.2309 34.0223C18.5147 33.4107 17.7119 32.952 16.8187 32.654C16.5668 32.5717 16.4566 32.9677 16.7085 33.05C17.5348 33.3244 18.2786 33.7439 18.9357 34.3085C19.1364 34.481 19.4355 34.1948 19.2309 34.0223Z" fill="#D96A6A"/>
<path d="M74.5186 139.575C74.4517 138.077 74.3888 136.576 74.3219 135.078C74.2707 133.89 74.4675 132.357 74.0582 131.224C73.4207 129.448 71.0636 130.346 69.9146 129.24C69.7257 129.056 69.4266 129.342 69.6194 129.527C70.1231 130.009 70.7291 130.162 71.406 130.271C71.8388 130.342 72.2874 130.369 72.7085 130.507C73.6293 130.812 73.7434 131.542 73.7906 132.412C73.948 135.203 74.0346 137.999 74.1566 140.794C74.4006 146.381 74.6446 151.968 74.8925 157.554C74.9043 157.817 75.3174 157.825 75.3056 157.562C75.042 151.568 74.7823 145.569 74.5186 139.575Z" fill="#2D2644"/>
<path d="M26.0426 39.4482C26.0426 39.4482 25.3382 42.2436 23.0952 43.7961C23.3589 44.2156 24.5709 44.9644 24.5709 44.9644C25.5625 44.7606 27.8173 41.8437 27.7898 40.7499C27.2153 40.0324 26.0465 39.4482 26.0465 39.4482H26.0426Z" fill="#BF5452"/>
<path d="M27.7186 41.5342C27.7186 42.2712 27.1402 42.8711 26.4279 42.8711C25.7157 42.8711 25.1372 42.2712 25.1372 41.5342C25.1372 40.7971 25.7157 40.1973 26.4279 40.1973C27.1402 40.1973 27.7186 40.7971 27.7186 41.5342Z" fill="#2D2644"/>
<path d="M27.5771 41.4791C27.5771 42.0436 27.1167 42.5023 26.55 42.5023C25.9834 42.5023 25.5229 42.0436 25.5229 41.4791C25.5229 40.9145 25.9834 40.4558 26.55 40.4558C27.1167 40.4558 27.5771 40.9145 27.5771 41.4791Z" fill="white"/>
<path d="M185.602 190.656C185.26 190.177 185.728 189.479 179.275 186.888C172.982 184.359 164.002 179.827 164.002 179.827L170.334 170.073C170.334 170.073 181.116 183.387 187.322 184.355C189.521 189.832 185.602 190.656 185.602 190.656Z" fill="#FFAA94"/>
<path d="M189.561 203.299C189.419 203.46 188.896 203.919 187.794 203.507C186.909 203.056 187.082 199.83 186.739 196.983C186.397 194.137 183.473 189.699 183.288 189.06C183.103 188.421 185.543 188.801 185.543 188.801C185.543 188.801 184.064 183.387 185.968 183.626C185.968 183.626 194.118 184.52 195.385 185.633L189.565 203.299H189.561Z" fill="#5E5580"/>
<path d="M189.561 203.299C189.419 203.46 188.896 203.919 187.794 203.507C187.767 203.491 187.739 203.476 187.711 203.456C188.994 202.288 191.222 197.932 190.462 191.698C190.069 188.456 190.49 186.018 191.041 184.359C192.965 184.704 194.826 185.147 195.377 185.633L189.557 203.299H189.561Z" fill="#F2E3DA"/>
<path d="M184.433 191.33C185.197 190.918 185.964 190.51 186.731 190.099C186.964 189.973 187.176 190.326 186.94 190.452C186.283 190.805 185.622 191.157 184.965 191.51C185.342 191.585 186.011 191.542 186.216 191.549C186.641 191.565 187.07 191.585 187.495 191.6C187.68 191.608 187.806 191.891 187.605 191.985C186.983 192.263 186.373 192.553 185.783 192.89C186.452 193.024 187.125 193.11 187.814 193.145C187.971 193.153 188.117 193.372 187.967 193.494C187.357 193.984 186.704 194.341 185.96 194.576C185.708 194.654 185.594 194.259 185.85 194.18C186.362 194.019 186.822 193.804 187.255 193.518C186.558 193.455 185.874 193.349 185.189 193.184C185.008 193.141 184.984 192.902 185.134 192.808C185.618 192.498 186.125 192.232 186.645 191.985C186.133 191.969 185.622 191.949 185.114 191.918C184.791 191.898 184.571 191.883 184.374 191.612C184.311 191.526 184.355 191.381 184.449 191.33H184.433Z" fill="#2D2644"/>
<path d="M148.538 211.23C148.557 211.505 153.783 225.576 152.394 228.253C154.68 230.323 157.891 226.552 157.891 226.552C156.624 223.827 156.553 208.078 156.553 208.078L148.542 211.23H148.538Z" fill="#FFAA94"/>
<path d="M144.91 237.902C144.689 237.882 143.977 237.741 143.572 236.714C143.343 235.828 146.039 234.256 148.085 232.503C150.131 230.751 151.745 226.27 152.134 225.795C152.524 225.325 153.834 227.309 153.834 227.309C153.834 227.309 157.179 223.368 158.25 224.89C158.25 224.89 162.924 231.335 162.873 232.848L144.914 237.894L144.91 237.902Z" fill="#5E5580"/>
<path d="M144.91 237.902C144.689 237.882 143.977 237.741 143.572 236.714C143.564 236.686 143.56 236.655 143.56 236.628C145.343 236.953 150.293 236.287 154.771 232.448C157.101 230.449 159.328 229.473 161.02 229.006C162.016 230.598 162.893 232.197 162.87 232.856L144.906 237.902H144.91Z" fill="#F2E3DA"/>
<path d="M150.12 229.916C150.391 230.022 150.655 230.143 150.907 230.277C150.616 229.814 150.336 229.324 150.297 228.846C150.285 228.712 150.423 228.606 150.549 228.638C151.108 228.771 151.658 228.932 152.201 229.108C151.804 228.646 151.47 228.144 151.194 227.583C151.119 227.434 151.23 227.226 151.414 227.273C152.261 227.501 153.044 227.83 153.795 228.285C154.02 228.422 153.827 228.787 153.598 228.646C153.024 228.297 152.422 228.022 151.792 227.814C152.135 228.403 152.548 228.932 153.051 229.406C153.189 229.536 153.063 229.83 152.863 229.755C152.178 229.504 151.477 229.296 150.773 229.12C150.95 229.685 151.45 230.316 151.706 230.782C151.796 230.943 151.611 231.194 151.43 231.072C151.131 230.869 150.82 230.696 150.502 230.539C150.651 230.786 150.816 231.021 151.009 231.249C151.178 231.449 150.895 231.751 150.726 231.547C150.376 231.127 150.088 230.696 149.848 230.202C149.754 230.01 149.927 229.837 150.124 229.912L150.12 229.916Z" fill="#2D2644"/>
<path d="M146.055 57.7808C146.35 57.4946 145.948 48.2657 160.186 49.434C174.427 50.5984 174.702 69.1739 172.018 72.9415C169.335 76.7091 146.055 57.7808 146.055 57.7808Z" fill="#F2E3DA"/>
<path d="M152.3 59.6979C152.449 59.5371 152.245 54.2836 159.367 54.9462C166.486 55.6088 166.624 66.1824 165.282 68.3309C163.94 70.4754 152.3 59.7018 152.3 59.7018V59.6979Z" fill="#2D2644"/>
<path d="M140.101 116.326C140.101 116.326 136.386 158.542 136.386 170.194C136.386 181.846 145.095 214.194 144.866 214.81C152.481 215.633 161.287 214.057 161.287 214.057V188.221L174.494 194.047L182.474 178.694L173.049 164.576C173.049 164.576 182.061 141.276 182.474 133.874C182.887 126.472 177.866 113.59 177.866 113.59L140.101 116.33V116.326Z" fill="#5272BF"/>
<path d="M141.537 117.557C141.537 117.557 155.92 125.92 170.779 118.106C168.579 103.44 157.486 56.5186 157.486 56.5186L137.366 56.7342C137.366 56.7342 135.56 78.3755 135.146 81.4571C134.733 84.5425 143.871 97.7508 141.537 117.557Z" fill="#FFEFE6"/>
<path d="M136.851 32.5757C136.851 32.5757 136.233 27.4869 139.534 27.0752C142.836 26.6636 143.765 26.9733 149.388 27.0752C155.011 27.1771 157.282 30.6743 156.377 34.3243C157.848 34.634 161.512 34.7869 159.19 40.6481C156.869 46.5093 153.669 45.2743 153.669 45.2743C153.669 45.2743 133.341 46.6112 136.851 32.5796V32.5757Z" fill="#BF5452"/>
<path d="M139.381 29.5413C139.381 29.5413 138.712 32.7796 142.836 32.8306C146.964 32.8816 149.026 33.2932 148.613 36.1709C148.199 39.0486 151.245 39.9738 151.552 40.3345C151.863 40.6952 149.695 42.5966 150.883 44.1884C151.761 44.651 153.358 42.8515 154.134 44.7529C154.909 46.6544 153.618 49.8928 150.832 49.3282C149.75 50.7161 151.45 53.3899 151.45 53.3899C152.378 54.1622 156.247 55.2913 156.247 55.2913C157.329 56.4204 151.399 64.6457 145.669 64.9045C139.944 65.1632 137.929 55.652 137.929 55.652C137.929 55.652 140.199 55.3423 140.613 55.0365C141.026 54.7268 139.53 52.7744 139.53 52.7744C139.53 52.7744 134.32 52.9273 133.289 48.0972C132.258 43.2671 134.58 39.7699 134.993 36.069C135.406 32.368 136.646 29.7451 139.377 29.5413H139.381Z" fill="#FFAA94"/>
<path d="M156.459 37.4921C156.337 36.6727 156.955 35.9749 156.676 35.1516C156.589 34.9006 156.188 34.9987 156.274 35.2496C156.526 35.9906 155.967 36.5512 155.948 37.2608C155.928 37.8136 156.223 38.1116 156.443 38.5938C157.187 40.2247 155.444 42.5026 154.342 43.5689C154.153 43.7532 154.436 44.0512 154.629 43.863C155.778 42.7496 156.833 41.1931 157.03 39.5661C157.128 38.7428 156.573 38.2566 156.459 37.4921Z" fill="#2D2644"/>
<path d="M137.284 34.7752C136.831 34.3204 136.261 34.0107 135.623 33.9009C135.104 33.8108 134.875 34.6027 135.399 34.6929C135.899 34.7791 136.331 34.9869 136.69 35.3476C137.063 35.724 137.658 35.1516 137.284 34.7752Z" fill="#2D2644"/>
<path d="M146.602 38.1351C146.283 37.6725 145.858 37.4725 145.335 37.2961C144.587 37.0413 143.82 36.8413 143.045 36.6767C142.529 36.5669 142.301 37.3588 142.82 37.4686C143.352 37.5823 143.875 37.7117 144.394 37.8646C144.839 37.994 145.595 38.1233 145.874 38.5311C146.169 38.9663 146.897 38.5742 146.598 38.139L146.602 38.1351Z" fill="#2D2644"/>
<path d="M135.603 39.5465C135.375 39.4838 135.174 39.621 135.096 39.8327C135.06 39.9229 135.025 40.017 134.993 40.1072C134.915 40.315 135.076 40.558 135.281 40.6129C135.509 40.6756 135.71 40.5384 135.788 40.3267C135.824 40.2365 135.855 40.1425 135.891 40.0523C135.969 39.8445 135.808 39.6014 135.603 39.5465Z" fill="#2D2644"/>
<path d="M143.788 41.3969C143.56 41.3341 143.359 41.4714 143.28 41.6831C143.245 41.7732 143.21 41.8673 143.178 41.9575C143.099 42.1653 143.261 42.4084 143.465 42.4633C143.694 42.526 143.894 42.3888 143.973 42.1771C144.008 42.0869 144.04 41.9928 144.075 41.9026C144.154 41.6948 143.993 41.4518 143.788 41.3969Z" fill="#2D2644"/>
<path d="M137.933 40.3659C136.492 41.0363 136.402 42.2869 136.906 43.6591C136.996 43.9061 137.397 43.812 137.307 43.5611C137.106 43.0162 136.89 42.4046 137.043 41.8204C137.185 41.2715 137.641 40.954 138.133 40.7266C138.373 40.6129 138.177 40.2522 137.937 40.3659H137.933Z" fill="#D96A6A"/>
<path d="M151.647 45.4781C151.178 46.0113 150.927 46.666 150.938 47.3757C150.942 47.6383 151.355 47.6462 151.352 47.3835C151.344 46.7837 151.537 46.2269 151.934 45.7722C152.107 45.5761 151.824 45.2782 151.647 45.4781Z" fill="#D96A6A"/>
<path d="M147.31 49.489C146.72 50.034 146.031 50.4143 145.232 50.5554C144.764 50.6377 144.122 50.4652 143.69 50.7005C143.206 50.9631 142.863 51.61 142.36 51.9119C141.675 52.3236 140.935 52.4843 140.14 52.4765C139.873 52.4765 139.869 52.8842 140.132 52.8881C141.643 52.9077 142.541 52.2804 143.635 51.3591C144.229 50.8612 145.197 51.0455 145.933 50.8024C146.57 50.5907 147.109 50.2339 147.597 49.787C147.794 49.6066 147.507 49.3126 147.31 49.4929V49.489Z" fill="#D96A6A"/>
<path d="M146.354 57.4947C145.87 57.0477 145.362 56.5969 145 56.0401C144.733 55.6246 144.666 55.1227 144.414 54.7072C143.871 53.8172 142.568 54.3739 141.911 53.4604C141.758 53.2487 141.392 53.4448 141.549 53.6565C142.238 54.6092 143.702 54.2759 144.209 55.2952C144.709 56.3067 145.213 57.0007 146.059 57.7809C146.252 57.9612 146.551 57.675 146.354 57.4947Z" fill="#D96A6A"/>
<path d="M142.203 56.2283C142.002 55.946 141.923 55.6402 141.963 55.2991C141.994 55.0364 141.581 55.0325 141.549 55.2912C141.502 55.6911 141.604 56.095 141.841 56.4243C141.994 56.6399 142.356 56.4439 142.203 56.2283Z" fill="#D96A6A"/>
<path d="M136.626 46.4936C136.626 46.4936 138.724 45.733 140.136 47.0346C139.275 50.0142 136.524 48.2108 136.626 46.4936Z" fill="white"/>
<path d="M139.164 55.4522C139.164 55.4522 138.216 78.8342 137.405 82.6372C136.595 86.4401 141.545 92.3013 142.525 101.244C143.505 110.187 144.331 127.253 143.607 128.28C142.781 129.307 137.724 125.402 137.311 123.964C136.898 122.525 139.892 105.666 139.271 100.115C138.653 94.5634 134.002 88.7022 133.026 85.0012C132.05 81.3003 133.281 74.7216 133.026 73.075C132.77 71.4323 111.032 69.4955 107.68 68.3194C103.717 66.806 109.022 55.9501 115.884 56.5146C122.747 57.0792 128.264 56.0716 139.16 55.4482L139.164 55.4522Z" fill="#FFC673"/>
<path d="M154.956 54.8875C154.956 54.8875 154.401 78.493 154.956 84.66C155.511 90.827 161.492 97.6448 162.803 105.219C164.113 112.794 165.966 127.974 168.304 129.891C170.504 131.671 180.55 124.681 183.851 121.391C187.153 118.102 178.35 103.71 178.35 101.381C178.35 99.0523 188.353 98.7034 188.924 95.1749C189.494 91.6503 188.53 92.4697 186.468 88.0865C184.406 83.7034 172.16 62.6423 169.134 59.9449C166.108 57.2476 154.96 54.8875 154.96 54.8875H154.956Z" fill="#FFC673"/>
<path d="M121.15 44.5334C121.15 44.5334 121.185 38.0919 122.834 37.99C124.486 37.8881 126.238 38.8447 126.997 39.1897C127.753 39.5308 132.227 34.3596 132.329 35.4691C132.431 36.5786 128.134 39.4288 128.788 40.0796C129.441 40.7304 134.017 37.1667 134.155 38.1939C134.293 39.221 129.338 41.346 128.858 43.0945C128.378 44.8431 123.837 46.8308 123.837 46.8308C123.837 46.8308 118.489 56.2714 117.458 58.6355C116.427 60.9996 112.815 67.0137 110.029 68.5545C108.018 68.7584 103.166 67.2176 102.289 65.469C101.411 63.7205 109.942 54.7424 121.153 44.5334H121.15Z" fill="#FFAA94"/>
<path d="M176.681 93.744C176.681 93.744 166.21 104.486 165.073 104.537C163.94 104.588 158.006 102.428 156.613 103.149C155.219 103.871 154.909 109.265 154.96 109.779C155.011 110.293 160.941 112.813 161.819 112.813C162.696 112.813 165.797 109.367 166.981 108.701C168.17 108.034 188.805 100.632 189.081 96.3119C189.356 91.9954 180.109 90.2861 176.681 93.744Z" fill="#FFAA94"/>
<path d="M160.312 187.296C158.391 185.998 156.471 184.7 154.547 183.403C152.776 182.207 150.568 181.105 149.132 179.502C147.739 177.949 147.53 175.824 147.617 173.825C147.707 171.712 148.003 169.598 148.235 167.497C149.258 158.17 150.513 148.867 151.997 139.599C152.402 137.062 152.827 134.525 153.268 131.993C153.362 131.44 153.579 130.891 153.067 130.495C152.697 130.209 152.064 130.099 151.631 129.934C151.005 129.699 150.379 129.468 149.754 129.233C149.506 129.139 149.396 129.534 149.644 129.629C150.722 130.032 152.666 130.35 152.906 131.679C152.992 132.161 152.674 133.008 152.595 133.479C152.493 134.078 152.39 134.678 152.288 135.278C151.906 137.548 151.54 139.818 151.19 142.088C150.501 146.518 149.868 150.952 149.281 155.398C148.683 159.958 148.136 164.525 147.648 169.101C147.306 172.3 146.37 176.42 148.416 179.266C149.636 180.96 151.792 182.034 153.488 183.179C155.692 184.669 157.895 186.155 160.099 187.645C160.319 187.794 160.528 187.441 160.308 187.292L160.312 187.296Z" fill="#2D2644"/>
<path d="M174.726 93.199C174.757 92.7717 174.8 92.905 174.588 92.607C174.316 92.2228 173.817 91.9092 173.478 91.572C173.081 91.1721 172.699 90.7605 172.317 90.341C171.633 89.5921 170.968 88.8276 170.255 88.1023C169.901 87.7417 168.618 86.197 167.989 86.2558C168.032 86.2009 168.048 86.1264 168.009 86.0441L167.981 85.9931C167.926 85.8872 167.804 85.8676 167.702 85.9108C167.678 85.9186 167.654 85.9304 167.631 85.9382C167.548 85.9696 167.509 86.0872 167.528 86.1656C167.568 86.3146 167.631 86.3185 167.717 86.44C168.044 86.8909 168.799 87.2751 169.236 87.6789C170.019 88.4081 170.736 89.2001 171.452 89.996C172.168 90.7918 172.884 91.5916 173.663 92.3248C174.246 92.8736 174.273 93.0971 174.269 93.8655C174.269 94.3399 174.324 94.8025 174.411 95.2652C174.458 95.5278 174.859 95.4259 174.812 95.1672C174.686 94.4967 174.675 93.8695 174.722 93.1951L174.726 93.199Z" fill="#2D2644"/>
<path d="M160.611 57.8632C159.387 63.254 157.884 68.5781 156.109 73.8159C156.022 74.0668 156.42 74.1766 156.506 73.9257C158.281 68.6878 159.784 63.3677 161.008 57.973C161.067 57.7143 160.67 57.6045 160.611 57.8632Z" fill="#2D2644"/>
<path d="M136.906 56.3263C136.945 56.0675 136.548 55.9538 136.508 56.2165C135.741 61.3171 137.382 66.308 137.559 71.389C137.567 71.6516 137.98 71.6595 137.972 71.3968C137.795 66.3589 136.142 61.3838 136.906 56.3302V56.3263Z" fill="#2D2644"/>
<path d="M118.285 57.6123C118.198 57.3653 117.797 57.4594 117.884 57.7103C118.49 59.4784 117.848 61.325 117.191 62.9873C116.53 64.6614 115.656 66.2335 114.621 67.7077C114.468 67.9233 114.826 68.135 114.976 67.9154C116.097 66.3119 117.026 64.5908 117.714 62.7599C118.332 61.1172 118.867 59.3373 118.277 57.6123H118.285Z" fill="#2D2644"/>
<path d="M186.681 89.6823C184.69 89.2589 182.506 89.2275 180.483 89.4392C178.551 89.6431 176.867 90.7957 175.186 91.6857C174.95 91.8112 175.151 92.1718 175.383 92.0464C177.107 91.1329 178.826 89.9685 180.817 89.8195C182.702 89.6745 184.717 89.6823 186.571 90.0744C186.83 90.1292 186.944 89.7333 186.681 89.6784V89.6823Z" fill="#2D2644"/>
<path d="M152.197 96.9195C149.018 95.3042 145.838 93.689 142.659 92.0737C142.423 91.9561 142.21 92.309 142.45 92.4266C145.63 94.0418 148.809 95.6571 151.989 97.2723C152.225 97.39 152.438 97.0371 152.197 96.9195Z" fill="#2D2644"/>
<path d="M157.557 106.278C156.982 107.532 156.553 108.83 156.282 110.183C156.231 110.441 156.628 110.555 156.679 110.292C156.943 108.975 157.348 107.709 157.911 106.486C158.021 106.246 157.667 106.035 157.557 106.278Z" fill="#D96A6A"/>
<path d="M159.646 107.987C159.123 108.881 158.647 109.803 158.222 110.747C158.116 110.987 158.47 111.198 158.576 110.955C159.005 110.01 159.477 109.093 160 108.195C160.134 107.968 159.78 107.756 159.646 107.987Z" fill="#D96A6A"/>
<path d="M161.63 109.516C161.342 110.179 161.004 110.814 160.614 111.425C160.473 111.649 160.827 111.857 160.969 111.633C161.358 111.022 161.697 110.386 161.984 109.724C162.09 109.485 161.736 109.273 161.63 109.516Z" fill="#D96A6A"/>
<path d="M128.528 42.3103C127.937 41.7301 127.205 41.4752 126.438 41.2126C126.596 40.8323 126.812 40.4833 127.083 40.1697C127.257 39.9697 126.969 39.6718 126.796 39.8757C126.485 40.2363 126.241 40.6323 126.056 41.0675C125.663 40.9068 125.175 40.7068 124.73 40.6284C124.73 40.6166 124.734 40.6088 124.734 40.597C124.707 40.1501 124.726 39.711 124.774 39.268C124.856 39.217 124.911 39.1151 124.852 39.0014C124.789 38.8798 124.675 38.7936 124.537 38.8446C124.439 38.8759 124.392 38.9426 124.38 39.0406C124.309 39.5581 124.29 40.0717 124.321 40.5931C124.321 40.601 124.321 40.6049 124.325 40.6088C124.199 40.6166 124.081 40.6323 123.975 40.6794C123.345 40.946 123.609 41.4478 124.073 41.8751C123.876 41.8438 123.68 41.8085 123.487 41.7654C123.373 41.7379 123.105 41.7183 123.019 41.6438C122.837 41.4909 122.869 41.0518 122.869 40.8479C122.869 40.1305 122.869 39.4169 122.873 38.6995C122.873 38.4329 122.46 38.429 122.46 38.6917C122.46 39.2837 122.456 39.8717 122.456 40.4598C122.456 40.8323 122.334 41.4203 122.507 41.7575C122.79 42.3064 124.081 42.2985 124.62 42.3534C124.652 42.3534 124.683 42.3534 124.707 42.3456C124.781 42.3887 124.852 42.4318 124.919 42.4671C124.486 42.9141 124.376 43.5217 124.648 44.1412C124.754 44.3843 125.116 44.1843 125.01 43.9452C124.789 43.4433 124.947 42.8945 125.403 42.5887C125.541 42.4946 125.549 42.2554 125.36 42.2084C125.136 42.1535 123.625 41.5262 124.4 41.0479C124.608 40.9224 125.49 41.3263 125.722 41.4047C126.599 41.7065 127.556 41.9339 128.236 42.6004C128.425 42.7847 128.724 42.5024 128.532 42.3142L128.528 42.3103Z" fill="#D96A6A"/>
<path d="M161.472 56.2676C160.197 55.8285 158.973 56.2087 157.836 56.8399C156.451 57.6084 155.125 58.3964 153.685 59.059C152.185 59.7451 150.666 60.439 149.033 60.7409C147.302 61.0584 145.535 60.8624 143.827 61.3368C143.815 61.3368 143.808 61.3486 143.796 61.3525C141.718 60.2391 138.365 58.3533 139.597 55.5501C139.703 55.3109 139.349 55.0992 139.243 55.3423C137.921 58.3572 141.124 60.3724 143.438 61.6269C143.182 61.8622 142.969 62.117 142.781 62.4189C142.694 62.5561 142.836 62.7874 143.009 62.7247C143.371 62.5875 143.623 62.4346 143.859 62.1954C143.977 62.4698 144.103 62.76 144.319 62.9403C144.414 63.0148 144.583 63.0344 144.646 62.9011C144.654 62.8854 144.662 62.8697 144.669 62.8541C144.717 62.756 144.701 62.6306 144.599 62.5718L144.563 62.5522C144.563 62.5522 144.532 62.5404 144.512 62.5365C144.343 62.3091 144.201 61.9249 144.095 61.721C144.095 61.7132 144.087 61.7093 144.083 61.7053C145.567 61.325 147.093 61.4231 148.601 61.227C149.99 61.0467 151.304 60.5684 152.583 60.0156C153.948 59.4236 155.333 58.8159 156.62 58.0671C158.088 57.2124 159.579 56.0519 161.374 56.6714C161.626 56.7576 161.736 56.3616 161.484 56.2754L161.472 56.2676Z" fill="#2D2644"/>
<path d="M167.765 105.447C167.493 104.584 166.734 103.396 165.691 103.894C165.451 104.008 165.651 104.369 165.888 104.255C166.745 103.843 167.281 105.211 167.434 105.788C167.54 106.196 167.776 108.113 167.115 108.281C166.856 108.348 166.954 108.744 167.214 108.681C168.296 108.407 168.009 106.211 167.765 105.447Z" fill="#2D2644"/>
</g>
<defs>
<clipPath id="clip0_81_5222">
<rect width="242" height="238" fill="white"/>
</clipPath>
</defs>
</svg>
