<svg width="159" height="144" viewBox="0 0 159 144" fill="none" xmlns="http://www.w3.org/2000/svg">
<g clip-path="url(#clip0_81_4783)">
<path d="M79.2129 26.7126C79.2129 26.7126 93.0244 26.56 93.1415 27.4089C93.2587 28.2579 92.6728 31.8023 92.6728 31.8023L77.7013 31.2468C77.7013 31.2468 77.1232 26.9942 79.2129 26.7126Z" fill="#ECB771"/>
<path d="M56.6835 18.6925C56.6835 18.6925 61.4448 17.5305 61.23 18.3091C61.0113 19.0876 60.0582 26.7164 60.0582 26.7164L66.4718 26.7907C66.4718 26.7907 66.5382 19.4905 67.4248 19.1619C68.3115 18.8333 71.7527 19.5571 71.5183 24.9363C71.2839 30.3156 70.7254 33.6097 70.7254 33.6097L55.6562 32.7451C55.6562 32.7451 54.9219 21.1024 56.6835 18.6925Z" fill="#ECB771"/>
<path d="M98.2816 19.4161C98.2816 19.4161 102.816 17.9452 102.598 18.7276C102.379 19.5061 101.656 27.444 101.656 27.444L108.07 27.5183C108.07 27.5183 108.136 20.2181 109.023 19.8895C109.91 19.5609 113.351 20.2846 113.116 25.6639C112.882 31.0432 112.324 34.3372 112.324 34.3372L97.2543 33.4726C97.2543 33.4726 96.52 21.83 98.2816 19.42V19.4161Z" fill="#ECB771"/>
<path d="M154.403 33.0088L10.5681 25.1562C7.88422 25.0097 5.5899 27.0701 5.44361 29.7582L0.0195553 129.426C-0.126738 132.114 1.93039 134.412 4.61428 134.559L148.449 142.411C151.133 142.558 153.427 140.497 153.573 137.809L158.997 38.1415C159.144 35.4533 157.086 33.1554 154.403 33.0088Z" fill="#E06A3C"/>
<path d="M23.0411 122.295C25.0761 126.783 25.6776 131.665 25.7284 135.71L12.8621 135.002C5.61656 134.615 -0.203322 135.002 0.195086 127.753L0.874724 113.52C8.42104 113.931 20.0335 115.672 23.0411 122.295Z" fill="#F4D4AA"/>
<path d="M15.444 24.8581L32.2982 25.6601C31.0093 30.6638 28.5641 37.1893 24.9081 41.3011C20.8577 45.8705 11.0537 48.2726 4.31982 49.4384L5.01118 33.6997C5.40959 26.4426 8.19844 24.4591 15.444 24.8581Z" fill="#F4D4AA"/>
<path d="M154.461 121.188L154.285 132.572C151.075 140.612 150.297 142.615 143.048 142.22L129.494 141.379C131.267 136.352 134.099 129.474 137.38 125.883C140.482 122.487 148.227 121.442 154.457 121.188H154.461Z" fill="#F4D4AA"/>
<path d="M158.547 46.4261L158.012 56.2731C152.469 54.63 146.282 51.8719 142.669 47.3651C138.978 42.7643 137.33 36.9039 136.607 32.0449L151.879 32.8978C159.125 33.2929 158.941 39.1651 158.543 46.4222L158.547 46.4261Z" fill="#F4D4AA"/>
<path d="M35.3139 24.7055C35.3139 24.7055 31.3455 136.809 32.0603 137.948C32.7751 139.086 40.0909 140.049 41.2744 138.992C42.4579 137.936 46.442 25.3197 45.1413 24.056C43.8406 22.7885 39.3488 23.0897 35.3139 24.7055Z" fill="#EBA082"/>
<path d="M119.976 29.1459C119.976 29.1459 116.007 141.25 116.722 142.388C117.437 143.527 123.71 144.634 124.893 143.578C126.077 142.521 130.037 31.7279 128.733 30.4604C127.432 29.1928 124.01 27.5301 119.976 29.1459Z" fill="#EBA082"/>
<path d="M28.8883 94.855C29.107 87.4649 35.9151 91.7644 39.0516 91.338C42.1842 90.9116 52.2069 86.346 50.9687 92.9107C49.7344 99.4753 43.7973 94.9528 39.6179 95.524C35.4386 96.0952 28.6969 101.275 28.8883 94.855Z" fill="#F0B8A1"/>
<path d="M112.761 92.9849C113.695 85.6534 120.054 90.5906 123.214 90.4694C126.374 90.3481 136.787 86.7763 134.924 93.1883C133.061 99.6004 127.588 94.5263 123.374 94.6906C119.159 94.8549 111.949 99.3579 112.757 92.9849H112.761Z" fill="#F0B8A1"/>
<path d="M31.3334 95.8136C33.2395 95.8136 33.2434 92.8481 31.3334 92.8481C29.4234 92.8481 29.4234 95.8136 31.3334 95.8136Z" fill="#142600"/>
<path d="M46.4848 95.3519C48.3909 95.3519 48.3948 92.3865 46.4848 92.3865C44.5747 92.3865 44.5747 95.3519 46.4848 95.3519Z" fill="#142600"/>
<path d="M116.41 94.2369C118.316 94.2369 118.32 91.2715 116.41 91.2715C114.5 91.2715 114.5 94.2369 116.41 94.2369Z" fill="#142600"/>
<path d="M131.221 94.2213C133.127 94.2213 133.131 91.2559 131.221 91.2559C129.311 91.2559 129.311 94.2213 131.221 94.2213Z" fill="#142600"/>
<path d="M146.384 40.8199C148.29 40.8199 148.294 37.8545 146.384 37.8545C144.474 37.8545 144.474 40.8199 146.384 40.8199Z" fill="#142600"/>
<path d="M14.7684 35.5736C16.6746 35.5736 16.6785 32.6082 14.7684 32.6082C12.8584 32.6082 12.8584 35.5736 14.7684 35.5736Z" fill="#142600"/>
<path d="M13.9599 127.06C15.866 127.06 15.8699 124.095 13.9599 124.095C12.0498 124.095 12.0498 127.06 13.9599 127.06Z" fill="#142600"/>
<path d="M143.434 131.058C145.341 131.058 145.344 128.093 143.434 128.093C141.524 128.093 141.524 131.058 143.434 131.058Z" fill="#142600"/>
<path d="M60.3863 21.2862C60.3863 21.2862 59.9136 2.16736 69.3192 0.884157C78.7208 -0.399043 101.989 -1.43969 106.262 6.50207C110.535 14.4438 108.539 23.2423 106.59 24.5764C104.645 25.9065 101.223 24.2439 102.176 15.5862C103.129 6.9285 71.694 2.69159 68.9364 13.724C66.1788 24.7564 62.7611 23.0937 60.3863 21.2862Z" fill="#E06A3C"/>
<path d="M57.1912 62.466C56.9959 63.9722 55.8476 64.7077 56.2577 65.4862C56.7615 66.433 58.7419 65.8422 59.152 66.7342C59.6441 67.7983 57.7263 68.6825 58.2185 69.7505C58.7067 70.8146 60.6245 69.9344 61.1128 70.9985C61.601 72.0626 59.6871 72.9468 60.1754 74.0109C60.6636 75.075 62.5814 74.1909 63.0697 75.255C63.5579 76.3191 61.644 77.2032 62.1322 78.2674C62.6205 79.3315 65.093 78.0522 65.2883 79.2102C65.4875 80.3995 62.9994 82.383 64.3938 82.9111C66.5968 83.7483 66.0382 79.9574 66.7178 80.7633C66.835 80.9042 68.538 82.5473 68.706 82.4691C70.0379 81.8548 69.1552 79.934 70.4871 79.3197C71.819 78.7055 72.7018 80.6225 74.0337 80.0083C75.3656 79.3941 74.4829 77.4771 75.8109 76.8629C77.1429 76.2487 78.0217 78.1656 79.3536 77.5553C80.6856 76.9411 79.8028 75.0242 81.1308 74.4099C82.4589 73.7957 83.3416 75.7166 84.6696 75.1024C85.9977 74.4921 85.1149 72.5712 86.439 71.9609C87.6226 71.4171 89.0092 73.2324 89.9818 72.6534C90.8059 72.1643 90.0989 70.6894 91.0286 69.7975C92.1886 68.6903 95.3759 68.9681 95.5595 68.4869C96.3953 66.2804 91.1965 66.4408 91.2121 65.3219C91.2278 64.1913 92.4113 64.4221 92.6652 63.0685C92.7433 62.6499 92.7823 62.4386 92.7003 62.2352C92.3019 61.2689 90.2356 61.8244 89.8021 60.9872C89.3607 60.1343 91.1575 58.8864 90.7356 57.9709C90.3177 57.0633 88.2553 57.6305 87.8374 56.7268C87.4194 55.8192 89.1888 54.6103 88.7709 53.7144C88.3413 52.7872 86.0914 53.2645 85.8766 52.4743C85.7477 52.0048 86.4937 51.6371 86.775 50.2913C86.8687 49.8453 86.9117 49.6223 86.8101 49.4619C86.3609 48.7655 84.3494 49.6458 83.7674 48.7929C83.7049 48.699 83.6814 48.6208 83.6541 48.523C83.2557 47.1537 85.3141 45.8235 84.9157 45.1115C84.8298 44.9589 84.6579 44.8729 84.5447 44.8181C84.2244 44.6616 83.826 44.6655 83.5721 44.7751C82.6893 45.1546 82.8221 47.0637 82.4042 47.0794C82.3261 47.0794 82.2636 47.0129 82.2206 46.9659C81.5253 46.1952 80.6699 45.2485 80.2286 45.2641C79.5138 45.2876 79.7052 47.8461 78.4474 48.4134C77.2757 48.9455 76.057 47.1928 74.9008 47.7288C73.7408 48.2687 74.2837 50.3382 73.1236 50.8781C71.9636 51.4141 70.741 49.6536 69.5809 50.1895C68.4208 50.7255 68.9638 52.8029 67.8076 53.335C66.6475 53.8709 65.425 52.1104 64.2688 52.6464C63.1126 53.1824 63.6595 55.248 62.4994 55.7918C61.2807 56.363 59.6793 54.536 58.9567 55.1033C58.2849 55.6314 59.3473 57.4623 58.6794 58.0257C57.8552 58.7142 55.0468 55.6353 54.211 57.8457C53.3751 60.0522 57.531 59.8214 57.1873 62.4738L57.1912 62.466Z" fill="#FBEEDD"/>
<path d="M82.0622 48.4069L58.1221 59.4509L66.9442 78.6357L90.8844 67.5917L82.0622 48.4069Z" fill="#EBA082"/>
<path d="M71.4169 74.3394C71.4169 74.3394 67.0579 66.5737 75.7877 62.7633C84.5175 58.9528 86.6658 67.2701 86.6658 67.2701L71.4169 74.3394Z" fill="#E06A3C"/>
<path d="M73.9048 59.5905C73.7056 59.2188 73.0533 59.391 73.1744 59.8487C73.2447 60.1108 73.2994 60.3769 73.3658 60.639C73.3618 60.6781 73.3579 60.7211 73.3658 60.7681C73.7329 62.642 74.0298 64.5277 74.3149 66.4134C74.5571 68.0213 74.8422 69.6879 74.2954 71.2645C74.2798 71.3193 74.2837 71.3662 74.2876 71.4131C74.2719 71.4405 74.2485 71.464 74.2329 71.4914C74.1509 71.4757 74.0649 71.4757 73.9868 71.5227C73.9321 71.554 73.8852 71.597 73.8384 71.6401C72.9791 71.1002 72.2565 70.3842 72.1471 69.3123C72.1002 68.8663 71.3503 68.9328 71.3659 69.3788C71.3229 69.2419 71.2722 69.105 71.2448 68.9602C71.1433 68.4594 70.3738 68.6316 70.4714 69.1284C70.7488 70.5173 71.6432 71.7144 72.8267 72.446C72.9088 72.532 72.9947 72.6181 73.0806 72.7003C73.3111 72.9193 73.5571 73.1228 73.8032 73.3184C73.7876 73.4944 73.7915 73.6705 73.8345 73.8504C73.8774 74.0148 74.0259 74.1634 74.2055 74.1595C74.6235 74.1595 75.0336 74.0461 75.4047 73.8426C75.4789 73.8426 75.5531 73.8426 75.6273 73.8348C75.6546 73.8504 75.6703 73.8739 75.7015 73.8857C76.0296 74.0069 76.4007 73.8113 76.5022 73.4788C76.5804 73.2128 76.3616 72.9585 76.0921 72.978C76.0609 72.9233 76.0179 72.8685 75.9671 72.8372C76.0023 72.7394 76.057 72.6455 76.0843 72.5477C76.264 72.5399 76.428 72.4186 76.4397 72.1799C76.4788 71.1941 76.4397 70.2082 76.3304 69.2262C76.3069 68.9954 76.1312 68.9133 75.9554 68.9289C75.9281 68.0995 75.8695 67.274 75.764 66.4525C75.4828 64.2225 74.9633 62.0317 74.4438 59.8448C74.3774 59.5709 74.1157 59.5044 73.9087 59.5827L73.9048 59.5905Z" fill="#142600"/>
<path d="M75.9829 53.7613C75.9125 53.7182 75.8344 53.6987 75.7368 53.7261C75.7016 53.7339 75.6743 53.7535 75.6391 53.7613V53.7535C75.5844 53.773 75.5337 53.8043 75.479 53.8239C75.1704 53.9295 74.8892 54.0743 74.6275 54.2347C74.604 54.2464 74.5767 54.2581 74.5533 54.266C73.9088 54.5359 73.151 54.8137 72.7409 55.4201C72.6237 55.5961 72.5534 55.7995 72.5105 56.0108C72.444 56.1164 72.3816 56.2221 72.3269 56.3316C72.3034 56.3551 72.2839 56.3785 72.2605 56.3981C72.2527 56.3159 72.237 56.2377 72.237 56.1555C72.2292 55.9443 72.2605 55.7174 72.3191 55.5022C72.4362 55.3575 72.5534 55.2088 72.694 55.0875C72.8268 54.9701 72.8854 54.7902 72.8151 54.622C72.8151 54.622 72.8151 54.622 72.8112 54.6181C72.8464 54.5046 72.8385 54.3794 72.7526 54.2699C72.6315 54.1173 72.3503 54.0547 72.198 54.2034C72.0769 54.3246 71.9675 54.4537 71.8777 54.5946C70.9324 55.1266 70.452 56.2964 70.7254 57.3409C70.7254 57.3488 70.7254 57.3527 70.7254 57.3605C69.9755 56.9145 69.0693 56.7463 68.2139 56.9028C66.9405 57.1414 65.8703 57.9747 65.1087 58.9958C65.0071 59.1327 65.0188 59.2892 65.0891 59.4105C65.0501 59.4418 65.0071 59.4653 64.9719 59.4966C64.6321 59.7782 64.9524 60.3455 65.3704 60.1734C66.7296 59.6139 68.1592 59.2775 69.6161 59.1405C69.6864 59.164 69.7607 59.1718 69.8271 59.2031C69.8271 59.2031 69.8271 59.2031 69.8231 59.2031C69.0615 59.4731 68.5225 60.0638 68.1045 60.7485C67.4093 61.3314 66.8312 62.0551 66.4406 62.8884C66.2961 63.1975 66.6281 63.4713 66.9054 63.4166C67.0304 63.4948 67.1944 63.5144 67.3507 63.4127C68.5146 62.638 69.7607 62.0043 71.0613 61.4996C70.8895 61.6717 70.7293 61.8595 70.5809 62.0551C69.3662 63.2992 68.7529 65.1184 69.1084 66.8554C69.1943 67.2779 69.8466 67.317 69.8935 66.8476C69.9013 66.7889 69.913 66.7302 69.9208 66.6676C70.1083 66.695 70.3153 66.5855 70.37 66.339C70.5184 65.6622 70.7489 65.0127 71.0184 64.3751C71.3855 63.9369 71.7527 63.4987 72.1199 63.0566C72.1199 63.0762 72.1277 63.0919 72.1277 63.1114C72.1238 63.1779 72.1277 63.2366 72.155 63.2914C72.1628 63.354 72.1667 63.4166 72.1824 63.4792C72.3073 63.9682 72.5534 64.4494 72.7253 64.9384C72.7604 65.0675 72.7721 65.1966 72.7839 65.3257C72.7956 65.4157 72.7995 65.5096 72.8112 65.5996C72.7839 65.8108 72.7761 66.026 72.7331 66.2334C72.7058 66.3703 72.7526 66.4603 72.819 66.5307C72.7995 66.605 72.8034 66.6793 72.78 66.7537C72.6472 67.1566 73.2135 67.5322 73.4674 67.1332C73.4869 67.1058 73.4987 67.0706 73.5182 67.0432C74.7525 65.044 74.9204 62.4698 73.9361 60.3377C74.1627 60.3494 74.3892 60.3885 74.604 60.4707C74.7798 60.8697 74.9712 61.261 75.186 61.6404C75.3071 62.059 75.4673 62.4464 75.7954 62.7554C76.061 63.0019 76.3852 63.1662 76.7094 63.3188C77.0726 63.8195 77.5726 64.2186 78.1507 64.4377C78.471 64.5589 78.7834 64.2342 78.6584 63.9173C78.4436 63.3696 78.01 63.0997 77.5413 62.8689C77.4554 62.685 77.3695 62.5011 77.2757 62.3172C77.2757 62.2938 77.2874 62.2703 77.2835 62.2429C77.2406 61.7069 77.1742 61.1553 77.0297 60.635C77.1898 60.0638 77.3851 59.5122 77.2289 58.9097C77.221 58.8784 77.2015 58.851 77.1898 58.8197C77.2562 58.8745 77.3187 58.9332 77.3851 58.9801C77.6507 59.164 78.0764 58.9528 78.01 58.6046C78.0022 58.5655 77.9905 58.5224 77.9827 58.4833C77.9827 58.4833 77.9827 58.4833 77.9827 58.4794C77.7796 57.5561 77.2249 56.5428 76.2016 56.4059C76.061 56.3864 75.9165 56.3942 75.7719 56.4137C75.3149 56.2886 74.8189 56.3277 74.3619 56.4959L74.5142 56.3081C74.5533 56.2612 74.5728 56.2142 74.5806 56.1634C74.7173 55.9756 74.854 55.7917 74.9907 55.6039C75.893 55.2127 76.8578 54.9701 77.8538 54.9036C78.053 54.8919 78.2405 54.6533 78.1897 54.4576C77.9515 53.4952 76.9359 53.5109 75.9868 53.7535L75.9829 53.7613Z" fill="#142600"/>
<path d="M72.7019 64.4494C72.5301 64.5394 72.366 64.6411 72.2059 64.7506C72.1043 64.7858 72.0106 64.8171 71.9325 64.8523C71.3387 65.1145 70.8153 65.5018 70.3662 65.9634C70.499 65.5917 70.6357 65.224 70.7333 64.8367C71.1317 64.4259 71.5848 64.066 72.1043 63.8C72.448 63.62 72.4324 63.1192 72.0184 63.0371C70.5497 62.7554 69.4326 63.9917 68.9483 65.2357C68.6827 65.9204 68.4405 66.7185 68.4132 67.4931C68.1944 67.3248 67.9406 67.2036 67.6867 67.1488C66.7844 66.961 65.9407 67.5948 65.3275 68.1738C65.1712 68.3185 65.1048 68.5376 65.2415 68.7254C65.3743 68.9093 65.6126 68.9249 65.7923 68.8115C65.9798 68.698 66.1165 68.612 66.3079 68.5298C66.3586 68.5063 66.4094 68.4946 66.4641 68.475C66.4914 68.4985 66.5071 68.5298 66.5422 68.5494C66.7571 68.6785 66.9641 68.8193 67.1711 68.9641C65.9954 69.3435 65.0423 70.3098 64.726 71.64C64.726 71.6478 64.7181 71.6517 64.7142 71.6596C64.7064 71.6948 64.6908 71.7221 64.683 71.7574C64.5892 72.2229 65.2415 72.3442 65.4368 71.9686C65.6204 71.6243 65.8118 71.2605 66.0462 70.9319C66.1243 70.9593 66.2063 70.9749 66.304 70.9475C66.8742 70.7441 67.4836 70.8263 67.9757 71.1353C67.507 72.0586 67.4914 73.2088 68.0773 74.2025C68.1359 74.3042 68.2257 74.3472 68.3194 74.3629C68.3351 74.4255 68.3429 74.4881 68.3585 74.5507C68.3585 74.5585 68.3585 74.5702 68.3585 74.5781C68.3663 74.6094 68.3702 74.6446 68.3819 74.6759C68.5147 75.0984 69.2412 74.9301 69.1436 74.4881C69.0811 74.2103 69.0499 73.9325 69.0342 73.6548C69.0264 73.4083 69.042 73.1618 69.0655 72.9193C69.0889 72.7276 69.1202 72.5398 69.1631 72.3559C69.1709 72.3207 69.1787 72.2855 69.1905 72.2464C69.2373 72.0625 69.292 71.8825 69.3623 71.7026C69.499 71.4209 69.6631 71.151 69.8662 70.9123C69.8115 71.2722 69.8193 71.64 69.9717 71.9921C70.0693 72.219 70.2099 72.4068 70.374 72.5672C70.4365 72.7784 70.62 72.8762 70.7958 72.8762C71.245 73.1384 71.784 73.287 72.2762 73.4005C72.6121 73.4787 72.8504 73.0327 72.6511 72.7745C71.9832 71.906 71.6044 70.881 71.5301 69.7974C72.077 69.813 72.8386 69.7426 73.405 69.8795C73.7136 70.1573 73.9948 70.482 74.2252 70.7637C74.4674 71.0571 74.9908 70.8967 74.9361 70.4859C74.8932 70.1573 74.7487 69.8834 74.5455 69.6682C74.569 69.6135 74.5963 69.5626 74.5963 69.4922C74.5963 68.8936 74.2995 68.3342 73.8425 67.9821C73.8268 67.9625 73.8151 67.9391 73.7995 67.9195C73.2722 67.3757 72.4832 67.2505 71.7684 67.4344C72.0223 67.1175 72.2684 66.7967 72.534 66.4955C72.6433 66.3703 72.7683 66.2451 72.905 66.1238C73.3034 66.0495 73.8659 65.983 74.3034 66.0729C74.3737 66.1668 74.444 66.2686 74.4909 66.4055C74.4909 66.4055 74.4948 66.4055 74.4987 66.4016C74.5143 66.4329 74.5221 66.4642 74.5416 66.4955C74.5846 66.5737 74.6432 66.6128 74.7096 66.6402C74.8072 66.828 74.8932 67.0236 74.9635 67.1879C75.1236 67.5635 75.6431 67.4892 75.7251 67.1019C75.8579 66.4642 75.5181 65.8695 74.9908 65.5252C75.0025 65.1927 74.8971 64.958 74.7135 64.7976C74.6315 64.645 74.5299 64.5042 74.3698 64.3868C73.862 64.0151 73.2097 64.1599 72.698 64.4298L72.7019 64.4494Z" fill="#142600"/>
<path d="M89.9504 65.5449C86.8881 66.5504 82.9861 67.9235 79.8652 69.3319C76.4006 70.8968 70.6745 74.5508 66.3857 77.4067L66.9482 78.6273L90.8878 67.5793L89.9504 65.5449Z" fill="#906100"/>
<path d="M101.766 57.1415C98.356 52.9868 98.7465 47.005 102.637 43.8048C106.527 40.6047 112.46 41.3793 115.87 45.534C119.28 49.6888 118.89 55.6705 114.999 58.8707C111.109 62.0709 105.176 61.2962 101.766 57.1415Z" fill="#FBEEDD"/>
<path d="M101.668 46.0621C101.699 47.7208 105.519 50.1659 106.906 51.2966C106.98 51.8756 107.148 53.1197 107.378 54.4068C107.113 54.2072 106.711 53.7808 106.488 54.0429C106.297 54.4811 107.191 54.8449 107.523 55.1892C107.531 55.2283 107.539 55.2674 107.546 55.3027C107.269 55.1031 106.855 54.6415 106.621 54.9114C106.433 55.3652 107.371 55.7447 107.714 56.1007C109.05 62.1255 110.273 55.3887 110.238 53.5343C111.257 54.2033 112.409 54.6258 113.3 55.4826C113.73 56.6641 113.866 57.1766 114.116 55.8895C114.444 55.8817 114.659 55.5961 114.554 55.2714C115.765 54.5554 115.554 54.6141 113.98 54.5711C112.987 53.8943 112.237 52.9945 111.417 52.1455C112.566 51.2614 118.975 47.4352 112.464 48.6363C112.046 48.4055 111.464 47.5878 111.089 47.8969C110.894 48.2216 111.484 48.5111 111.757 48.7536C111.726 48.7576 111.695 48.7654 111.663 48.7693C111.241 48.5346 110.656 47.713 110.277 48.0221C110.077 48.3546 110.691 48.648 110.968 48.8984C109.917 49.0979 108.937 49.3131 108.398 49.4383C107.082 48.6676 102.68 45.1896 101.676 46.0581L101.668 46.0621Z" fill="#6292AB"/>
<path d="M145.028 62.1099L146.516 62.3759L145.212 63.1427L144.946 64.6333L144.181 63.3305L142.688 63.0645L143.993 62.2938L144.259 60.8032L145.028 62.1099Z" fill="#FBEEDD"/>
<path d="M151.317 71.5461L149.524 71.2253L151.094 70.2981L151.414 68.5024L152.34 70.0751L154.133 70.3959L152.563 71.3192L152.242 73.1188L151.317 71.5461Z" fill="#FBEEDD"/>
<path d="M8.44493 32.0879C8.4957 31.7906 8.5621 31.5011 8.64804 31.2116C8.68319 31.0942 8.72225 30.9808 8.76521 30.8634C8.78865 30.7969 8.95661 30.4722 8.79646 30.7812C8.92145 30.5465 9.03082 30.3079 9.17534 30.0809C9.23393 29.9871 9.29642 29.8971 9.35892 29.8071C9.56594 29.5098 9.1519 30.0301 9.39407 29.7641C9.55031 29.5919 9.70265 29.4237 9.87451 29.2633C9.96434 29.1811 10.062 29.1029 10.1557 29.0207C9.97606 29.1733 10.0503 29.099 10.1948 29.0012C10.3823 28.8721 10.5776 28.7508 10.7768 28.6413C10.8862 28.5826 10.9955 28.5278 11.1049 28.473C11.1869 28.4339 11.4955 28.3126 11.14 28.4496C11.5736 28.2813 12.015 28.1405 12.472 28.0427C12.6829 27.9958 12.8977 27.9605 13.1125 27.9253C12.6985 27.9918 13.1126 27.9253 13.2063 27.9214C13.3313 27.9097 13.4602 27.8979 13.5852 27.8901C14.0539 27.8627 14.5226 27.8666 14.9913 27.8979C15.2022 27.9136 15.4171 27.9371 15.628 27.9605C15.2218 27.9175 15.5538 27.9527 15.6514 27.9684C15.7881 27.9918 15.9248 28.0153 16.0576 28.0427C16.8154 28.1914 17.6903 27.8275 17.8778 27.006C18.0458 26.2705 17.6552 25.3394 16.8427 25.1829C14.5148 24.7291 12.097 24.8308 9.90185 25.7854C7.62077 26.7751 6.02323 28.8486 5.59357 31.2976C5.46077 32.0605 5.79668 32.9329 6.62865 33.1207C7.34735 33.285 8.30822 32.9016 8.44883 32.084L8.44493 32.0879Z" fill="#FBEEDD"/>
<path d="M19.858 28.3517C21.7524 28.3517 23.6429 28.5003 25.5334 28.5042C26.3068 28.5042 27.0489 27.8196 27.0138 27.0215C26.9786 26.2156 26.3615 25.5388 25.5334 25.5388C23.639 25.5388 21.7485 25.3901 19.858 25.3862C19.0846 25.3862 18.3425 26.0709 18.3777 26.869C18.4128 27.6749 19.03 28.3517 19.858 28.3517Z" fill="#FBEEDD"/>
</g>
<defs>
<clipPath id="clip0_81_4783">
<rect width="159" height="144" fill="white"/>
</clipPath>
</defs>
</svg>
