<svg width="295" height="288" viewBox="0 0 295 288" fill="none" xmlns="http://www.w3.org/2000/svg">
<g clip-path="url(#clip0_81_4700)">
<path d="M173.494 209.132C173.494 209.132 220.981 209.573 232.321 216.719C243.663 223.859 242.888 246.908 242.888 246.908L94.4871 233.033C94.4871 233.033 99.6659 214.173 122.774 216.566C145.881 218.96 154.504 221.347 158.868 218.066C163.233 214.785 173.487 209.138 173.487 209.138L173.494 209.132Z" fill="#B3D1E8"/>
<path d="M228.351 283.069L43.2332 263.896L17.0662 237.377L254.296 262.446L228.351 283.069Z" fill="#FFE0DF"/>
<path d="M112.767 257.71L94.2539 255.792L93.7966 260.208L112.31 262.125L112.767 257.71Z" fill="#134460"/>
<path d="M140.533 260.585L122.02 258.668L121.563 263.083L140.076 265.001L140.533 260.585Z" fill="#134460"/>
<path d="M168.3 263.461L149.786 261.544L149.329 265.959L167.842 267.877L168.3 263.461Z" fill="#134460"/>
<path d="M196.066 266.337L177.552 264.419L177.095 268.835L195.608 270.752L196.066 266.337Z" fill="#134460"/>
<path d="M223.832 269.213L205.319 267.295L204.862 271.711L223.375 273.628L223.832 269.213Z" fill="#134460"/>
<path d="M17.0662 237.378C17.0662 237.378 11.8361 230.387 8.34457 223.086L4.84662 215.777L272.517 242.51C272.517 242.51 268.646 247.07 263.827 252.522C259.007 257.973 254.296 262.446 254.296 262.446L17.0662 237.378Z" fill="#E06A3C"/>
<path d="M189.771 216.862L177.633 215.604L177.157 220.206L189.295 221.463L189.771 216.862Z" fill="#134460"/>
<path d="M207.978 218.747L195.84 217.49L195.364 222.091L207.501 223.349L207.978 218.747Z" fill="#134460"/>
<path d="M226.185 220.633L214.047 219.376L213.571 223.977L225.709 225.234L226.185 220.633Z" fill="#134460"/>
<path d="M57.7853 179.072L184.154 34.8871L169.517 187.965C169.517 187.965 89.9016 185.41 57.7853 179.072Z" fill="#FDF0E0"/>
<path d="M256.113 177.617L184.154 34.8871L169.941 172.122L256.113 177.617Z" fill="#FDF0E0"/>
<path d="M110.883 123.949C130.3 135.831 149.012 148.832 168.437 160.716C171.057 162.316 173.905 158.451 171.272 156.836C151.854 144.953 133.143 131.952 113.718 120.068C111.097 118.468 108.249 122.333 110.883 123.949Z" fill="#E06A3C"/>
<path d="M101.031 141.003C123.88 152.36 143.257 169.496 166.12 180.862C168.886 182.239 170.604 177.744 167.865 176.385C145.016 165.028 125.638 147.892 102.776 136.526C100.01 135.149 98.2919 139.644 101.031 141.003Z" fill="#E06A3C"/>
<path d="M163.885 222.601L163.863 222.598C161.671 222.357 160.09 220.381 160.324 218.188L181.784 20.8633C182.025 18.6713 183.982 17.0832 186.162 17.3089L186.183 17.3111C188.376 17.5526 189.957 19.5289 189.722 21.7216L168.263 219.046C168.022 221.238 166.064 222.826 163.885 222.601Z" fill="black"/>
</g>
<defs>
<clipPath id="clip0_81_4700">
<rect width="269" height="260" fill="white" transform="translate(27.1082 0.835571) rotate(5.91308)"/>
</clipPath>
</defs>
</svg>
