<svg width="247" height="250" viewBox="0 0 247 250" fill="none" xmlns="http://www.w3.org/2000/svg">
<g clip-path="url(#clip0_81_4823)">
<path d="M210.519 154.672L33.6014 107.267C29.6524 106.209 25.5893 108.568 24.5262 112.536L3.65479 190.429C2.59166 194.396 4.9311 198.471 8.88007 199.529L185.798 246.934C189.747 247.992 193.81 245.633 194.873 241.666L215.744 163.772C216.808 159.805 214.468 155.731 210.519 154.672Z" fill="#45A5D5"/>
<path d="M7.01812 190.357C7.12931 189.793 18.3826 134.003 50.8752 125.236C83.3678 116.469 88.8211 122.217 89.0407 122.462L88.0011 123.371C87.9645 123.334 82.4342 118.146 51.2276 126.57C19.5569 135.117 8.47745 190.061 8.36793 190.618L7.01812 190.357Z" fill="black"/>
<path d="M205.201 153.248L150.618 138.622C125.481 135.833 94.293 134.136 69.1544 138.314C18.2562 146.782 14.8496 185.422 14.8496 185.422L11.0447 199.622C12.0204 200.19 13.0712 200.652 14.2103 200.957L180.48 245.509C187.37 247.355 194.458 243.241 196.313 236.318L214.319 169.117C216.174 162.194 212.093 155.088 205.203 153.241L205.201 153.248Z" fill="#FDF0E0"/>
<path d="M75.1225 156.626C77.4082 161.938 92.9058 164.744 98.8558 166.559C99.8552 168.326 102.027 172.108 104.457 175.966C103.333 175.678 101.49 174.831 101.108 175.982C101.066 177.651 104.433 177.639 105.948 178.299C106.024 178.412 106.1 178.526 106.175 178.64C105.015 178.362 103.084 177.425 102.68 178.61C102.677 180.329 106.194 180.305 107.767 180.993C119.984 198.646 115.071 175.303 112.515 169.365C116.678 170.174 120.943 170.004 124.934 171.579C127.869 174.813 128.973 176.288 128.096 171.813C129.147 171.355 129.452 170.144 128.694 169.234C131.649 165.312 131.051 165.785 125.921 167.744C121.847 166.879 118.239 164.966 114.487 163.32C117.021 158.939 132.646 138.093 113.247 150.615C111.6 150.42 108.648 148.563 107.842 150.06C107.632 151.364 109.92 151.517 111.112 151.943C111.018 151.998 110.928 152.06 110.832 152.121C109.172 151.93 106.204 150.054 105.384 151.555C105.18 152.887 107.538 153.025 108.754 153.464C105.634 155.502 102.763 157.499 101.183 158.616C95.9323 157.882 77.1964 152.502 75.1052 156.641L75.1225 156.626Z" fill="#6292AB"/>
<path d="M28.1679 171.624L33.1205 172.951C33.9438 173.172 34.5265 173.548 34.856 174.076C35.1855 174.604 35.2717 175.174 35.1101 175.777C34.9734 176.287 34.702 176.681 34.2896 176.958C34.0141 177.144 33.6529 177.254 33.2138 177.283C33.7867 177.596 34.1703 177.972 34.3646 178.411C34.5589 178.85 34.5796 179.342 34.433 179.889C34.3146 180.331 34.1011 180.707 33.8018 181.007C33.5025 181.307 33.1427 181.51 32.727 181.625C32.4708 181.69 32.1098 181.7 31.6491 181.637C31.0348 181.552 30.6269 181.489 30.4288 181.436L25.8601 180.212L28.165 171.61L28.1679 171.624ZM29.9311 175.716L31.0826 176.025C31.4973 176.136 31.8021 176.138 31.9997 176.044C32.199 175.944 32.3345 175.76 32.4078 175.487C32.4745 175.238 32.4457 175.024 32.3231 174.837C32.2004 174.651 31.934 174.506 31.5378 174.4L30.3678 174.087L29.9311 175.716ZM29.0244 179.1L30.374 179.462C30.8321 179.584 31.1695 179.588 31.4048 179.478C31.6338 179.366 31.785 179.173 31.8583 178.899C31.9267 178.644 31.8888 178.414 31.7431 178.215C31.599 178.01 31.2971 177.849 30.8328 177.725L29.4894 177.365L29.0228 179.106L29.0244 179.1Z" fill="#153433"/>
<path d="M35.9768 178.336C36.3535 176.931 37.0369 175.94 38.0252 175.372C39.0152 174.797 40.2036 174.696 41.5965 175.069C42.9894 175.442 44.0128 176.13 44.58 177.108C45.1488 178.081 45.2426 179.266 44.8726 180.647C44.6026 181.654 44.2155 182.431 43.7017 182.986C43.1957 183.537 42.5717 183.91 41.8373 184.1C41.1047 184.284 40.264 184.252 39.3168 183.998C38.3696 183.744 37.5941 183.37 37.0443 182.896C36.4962 182.415 36.1124 181.793 35.8962 181.015C35.6862 180.238 35.7114 179.352 35.9814 178.344L35.9768 178.336ZM38.6231 179.059C38.3915 179.923 38.3841 180.595 38.6043 181.06C38.8246 181.526 39.2079 181.829 39.7651 181.978C40.3223 182.127 40.8242 182.062 41.2337 181.772C41.6433 181.481 41.9764 180.857 42.2347 179.893C42.4514 179.085 42.4487 178.45 42.2206 177.989C41.9925 177.528 41.603 177.224 41.0458 177.075C40.4886 176.925 40.0363 177.004 39.6065 177.296C39.1829 177.589 38.8536 178.174 38.6186 179.051L38.6231 179.059Z" fill="#153433"/>
<path d="M50.3601 185.277L47.3576 184.472L46.5629 185.779L43.8637 185.056L49.3879 177.316L52.2727 178.089L53.1869 187.554L50.4135 186.811L50.3663 185.279L50.3601 185.277ZM50.3092 183.263L50.1903 179.918L48.4272 182.759L50.3092 183.263Z" fill="#153433"/>
<path d="M54.0535 187.787L56.3585 179.184L60.7663 180.365C61.5834 180.584 62.1904 180.82 62.5854 181.079C62.9804 181.339 63.2571 181.693 63.4216 182.143C63.5861 182.594 63.5912 183.096 63.4445 183.643C63.3162 184.122 63.1009 184.504 62.8095 184.799C62.5118 185.093 62.1583 185.298 61.7487 185.415C61.4892 185.492 61.1497 185.521 60.7285 185.508C61.0159 185.699 61.2166 185.866 61.3306 186.01C61.4114 186.105 61.5137 186.292 61.6299 186.577C61.7461 186.861 61.8295 187.07 61.858 187.211L62.4712 190.049L59.4811 189.248L58.7746 186.238C58.6867 185.848 58.5841 185.587 58.4684 185.45C58.3115 185.268 58.1131 185.141 57.8717 185.076L57.6365 185.013L56.7015 188.503L54.0457 187.791L54.0535 187.787ZM58.081 183.379L59.1953 183.678C59.3129 183.709 59.5582 183.735 59.9265 183.747C60.1099 183.756 60.2818 183.709 60.427 183.588C60.5768 183.475 60.6775 183.322 60.7275 183.135C60.8025 182.855 60.7725 182.62 60.6391 182.425C60.5058 182.229 60.1977 182.066 59.7148 181.937L58.551 181.625L58.0826 183.373L58.081 183.379Z" fill="#153433"/>
<path d="M65.665 181.671L69.5961 182.725C70.3699 182.932 70.9668 183.205 71.3868 183.544C71.8069 183.884 72.1214 184.295 72.3259 184.769C72.5288 185.25 72.6345 185.772 72.6307 186.331C72.6331 186.892 72.5512 187.47 72.3945 188.054C72.1479 188.975 71.851 189.662 71.5055 190.11C71.16 190.557 70.7602 190.91 70.2971 191.152C69.834 191.395 69.3762 191.519 68.919 191.516C68.2954 191.516 67.7475 191.456 67.277 191.33L63.3459 190.276L65.6509 181.674L65.665 181.671ZM67.7851 184.333L66.5251 189.035L67.1751 189.209C67.7261 189.357 68.1389 189.401 68.4075 189.339C68.6761 189.278 68.9123 189.115 69.1318 188.84C69.3435 188.57 69.5449 188.091 69.7299 187.4C69.9749 186.486 69.993 185.824 69.7859 185.409C69.5787 184.993 69.1346 184.694 68.4475 184.51L67.7851 184.333Z" fill="#153433"/>
<path d="M75.0376 184.183L77.6872 184.893L75.3822 193.495L72.7326 192.785L75.0376 184.183Z" fill="#153433"/>
<path d="M79.6062 185.407L82.0763 186.069L84.0267 191.691L85.3016 186.933L87.7965 187.601L85.4915 196.204L82.9967 195.535L81.0565 189.949L79.7899 194.676L77.3012 194.009L79.6062 185.407Z" fill="#153433"/>
<path d="M92.3857 194.718L92.8657 192.926L96.9515 194.021L95.9682 197.691C95.0387 198.015 94.2532 198.198 93.5948 198.228C92.9426 198.26 92.204 198.169 91.3745 197.947C90.3592 197.675 89.5763 197.278 89.0258 196.757C88.4815 196.238 88.1184 195.588 87.9505 194.803C87.7827 194.018 87.821 193.181 88.0593 192.292C88.311 191.353 88.7212 190.589 89.2917 189.995C89.8622 189.402 90.5717 189.032 91.4113 188.87C92.0682 188.746 92.8849 188.818 93.863 189.08C94.8412 189.342 95.4926 189.61 95.9164 189.91C96.3403 190.211 96.6586 190.583 96.8715 191.026C97.0844 191.47 97.1963 191.993 97.2027 192.588L94.5288 192.365C94.5102 192.014 94.3974 191.717 94.1964 191.476C93.9955 191.236 93.6952 191.069 93.3052 190.964C92.7233 190.808 92.2056 190.883 91.7551 191.202C91.3001 191.514 90.9551 192.108 90.7201 192.985C90.4701 193.918 90.4651 194.63 90.7051 195.121C90.9452 195.612 91.3809 195.942 92 196.108C92.2971 196.187 92.5874 196.218 92.8831 196.204C93.1726 196.189 93.5205 196.128 93.9238 196.01L94.1405 195.201L92.37 194.727L92.3857 194.718Z" fill="#153433"/>
<path d="M103.496 191.808L107.891 192.986C108.851 193.243 109.507 193.666 109.861 194.254C110.214 194.842 110.282 195.553 110.056 196.399C109.829 197.245 109.381 197.878 108.729 198.23C108.079 198.576 107.22 198.612 106.155 198.327L104.706 197.939L103.851 201.13L101.196 200.418L103.501 191.816L103.496 191.808ZM105.169 196.19L105.819 196.364C106.332 196.501 106.709 196.509 106.967 196.385C107.226 196.261 107.385 196.064 107.46 195.784C107.535 195.504 107.507 195.263 107.377 195.028C107.248 194.793 106.939 194.611 106.443 194.478L105.688 194.275L105.175 196.191L105.169 196.19Z" fill="#153433"/>
<path d="M114.471 202.455L111.468 201.651L110.674 202.958L107.975 202.235L113.499 194.495L116.384 195.268L117.298 204.733L114.524 203.99L114.477 202.457L114.471 202.455ZM114.42 200.442L114.301 197.097L112.538 199.937L114.42 200.442Z" fill="#153433"/>
<path d="M118.433 201.984L120.994 202.503C120.94 202.929 120.968 203.27 121.076 203.532C121.256 203.953 121.599 204.232 122.107 204.368C122.484 204.469 122.798 204.46 123.051 204.335C123.304 204.209 123.458 204.03 123.521 203.794C123.581 203.57 123.535 203.344 123.39 203.119C123.239 202.891 122.832 202.602 122.168 202.258C121.074 201.685 120.344 201.116 119.965 200.548C119.587 199.98 119.481 199.358 119.661 198.686C119.779 198.245 120.015 197.861 120.38 197.539C120.739 197.215 121.206 197.007 121.78 196.921C122.354 196.834 123.083 196.91 123.975 197.149C125.07 197.442 125.845 197.87 126.311 198.435C126.776 198.999 126.944 199.738 126.815 200.663L124.28 200.144C124.315 199.74 124.256 199.417 124.092 199.187C123.928 198.956 123.654 198.79 123.283 198.69C122.973 198.607 122.726 198.614 122.536 198.703C122.346 198.792 122.223 198.933 122.173 199.119C122.136 199.256 122.165 199.397 122.266 199.538C122.36 199.683 122.629 199.868 123.073 200.094C124.164 200.653 124.925 201.13 125.352 201.518C125.785 201.907 126.065 202.322 126.186 202.761C126.314 203.202 126.312 203.655 126.185 204.128C126.039 204.675 125.747 205.144 125.319 205.529C124.89 205.914 124.368 206.154 123.76 206.245C123.15 206.341 122.432 206.275 121.602 206.053C120.147 205.663 119.213 205.113 118.801 204.396C118.39 203.679 118.266 202.879 118.423 201.994L118.433 201.984Z" fill="#153433"/>
<path d="M127.069 204.298L129.63 204.817C129.576 205.243 129.604 205.584 129.713 205.846C129.892 206.267 130.235 206.546 130.743 206.682C131.12 206.783 131.435 206.774 131.687 206.648C131.94 206.523 132.094 206.344 132.157 206.108C132.217 205.884 132.171 205.658 132.026 205.433C131.875 205.205 131.468 204.916 130.804 204.572C129.71 203.999 128.98 203.43 128.601 202.862C128.223 202.294 128.117 201.672 128.297 201C128.416 200.559 128.651 200.175 129.016 199.853C129.375 199.529 129.842 199.321 130.416 199.235C130.99 199.148 131.719 199.224 132.611 199.463C133.706 199.756 134.481 200.184 134.947 200.749C135.412 201.313 135.58 202.051 135.451 202.977L132.916 202.458C132.951 202.054 132.892 201.731 132.728 201.501C132.564 201.27 132.29 201.104 131.919 201.004C131.609 200.921 131.362 200.928 131.172 201.017C130.983 201.106 130.859 201.247 130.809 201.433C130.772 201.57 130.801 201.711 130.902 201.852C130.996 201.997 131.265 202.182 131.703 202.406C132.794 202.965 133.555 203.442 133.982 203.83C134.415 204.219 134.695 204.634 134.816 205.074C134.944 205.514 134.942 205.967 134.815 206.44C134.668 206.987 134.377 207.456 133.949 207.841C133.52 208.226 132.998 208.466 132.39 208.557C131.78 208.653 131.061 208.587 130.232 208.365C128.777 207.975 127.843 207.425 127.431 206.708C127.02 205.991 126.896 205.191 127.053 204.307L127.069 204.298Z" fill="#153433"/>
<path d="M165.996 160.222L174.131 162.402C175.171 162.681 176.42 162.029 176.661 160.933C176.901 159.838 176.325 158.697 175.204 158.396L167.07 156.217C166.03 155.938 164.78 156.59 164.54 157.685C164.299 158.781 164.876 159.922 165.996 160.222Z" fill="black"/>
<path d="M163.428 166.541L186.612 172.753C189.175 173.44 190.254 169.436 187.685 168.747L164.501 162.535C161.938 161.848 160.858 165.852 163.428 166.541Z" fill="black"/>
<path d="M153.781 205.809L161.916 207.988C162.956 208.267 164.206 207.615 164.446 206.52C164.687 205.424 164.11 204.283 162.989 203.983L154.855 201.803C153.815 201.524 152.565 202.176 152.325 203.272C152.084 204.367 152.661 205.509 153.781 205.809Z" fill="black"/>
<path d="M151.211 212.133L174.395 218.345C176.958 219.032 178.038 215.028 175.469 214.34L152.284 208.127C149.721 207.441 148.642 211.445 151.211 212.133Z" fill="black"/>
<path d="M159.888 183.019L168.023 185.198C169.063 185.477 170.312 184.825 170.553 183.73C170.793 182.634 170.217 181.493 169.096 181.193L160.961 179.013C159.921 178.734 158.672 179.386 158.431 180.482C158.191 181.577 158.768 182.719 159.888 183.019Z" fill="black"/>
<path d="M157.319 189.337L180.503 195.549C183.066 196.236 184.146 192.232 181.577 191.544L158.393 185.331C155.83 184.645 154.75 188.649 157.319 189.337Z" fill="black"/>
<path d="M133.903 227.722L132.578 227.367L134.366 220.693L135.691 221.048L133.903 227.722ZM137.48 214.374L136.155 214.019L137.943 207.345L139.268 207.7L137.48 214.374ZM141.056 201.026L139.731 200.671L141.52 193.997L142.845 194.352L141.056 201.026ZM144.635 187.671L143.31 187.316L145.098 180.642L146.423 180.997L144.635 187.671ZM148.211 174.323L146.886 173.968L148.675 167.294L149.999 167.649L148.211 174.323ZM151.788 160.975L150.463 160.62L152.251 153.946L153.576 154.301L151.788 160.975ZM155.364 147.627L154.04 147.272L155.828 140.598L157.153 140.953L155.364 147.627Z" fill="black"/>
<path d="M9.2112 182.271L9.55715 180.931C11.7784 181.506 13.9997 182.081 16.2164 182.648L15.8705 183.989C13.6475 183.42 11.4325 182.846 9.2112 182.271ZM22.5376 185.702L22.8836 184.361L29.5479 186.06L29.2081 187.403L22.5376 185.702ZM35.8695 189.088L36.2093 187.745L42.8786 189.426L42.5388 190.768L35.8695 189.088ZM49.2159 192.444L49.5557 191.102L56.2283 192.769L55.8948 194.113L49.2221 192.445L49.2159 192.444ZM62.5628 195.773L62.8964 194.429L69.5707 196.091L69.2371 197.435L62.5628 195.773ZM75.9176 199.099L76.2512 197.755L82.9271 199.41L82.5936 200.754L75.9176 199.099ZM89.3314 202.426L89.4355 201.741L89.6633 201.088L96.2757 202.733L95.9421 204.077L89.3297 202.432L89.3314 202.426ZM102.612 205.731L102.945 204.387L109.562 206.04L109.284 207.399L102.61 205.737L102.612 205.731ZM115.955 209.073L116.295 207.731L122.915 209.398L122.625 210.754L115.954 209.08L115.955 209.073ZM129.294 212.434L129.634 211.092L136.256 212.773L135.96 214.127L129.294 212.434ZM142.616 215.83L142.962 214.49L149.622 216.207L149.276 217.548L142.616 215.83ZM196.236 230.091L195.778 229.968L196.148 228.634L196.607 228.757L196.236 230.091ZM155.933 219.272L156.279 217.931L162.932 219.674L162.574 221.011L155.927 219.27L155.933 219.272ZM189.144 228.131C186.931 227.525 184.723 226.926 182.508 226.326L182.866 224.989C185.083 225.583 187.296 226.189 189.508 226.795L189.15 228.132L189.144 228.131ZM169.229 222.768L169.587 221.431C171.785 222.019 173.984 222.602 176.182 223.191L175.873 224.542C173.626 223.939 171.428 223.351 169.229 222.768Z" fill="black"/>
<path d="M174.15 231.493L173.147 231.224L171.23 238.377L172.233 238.646L174.15 231.493Z" fill="black"/>
<path d="M172.262 230.987L171.11 230.678L169.194 237.831L170.345 238.14L172.262 230.987Z" fill="black"/>
<path d="M154.309 226.176L153.009 225.828L151.092 232.981L152.392 233.329L154.309 226.176Z" fill="black"/>
<path d="M158.048 227.178L156.593 226.789L154.676 233.942L156.131 234.331L158.048 227.178Z" fill="black"/>
<path d="M159.769 227.64L158.983 227.429L157.066 234.582L157.852 234.793L159.769 227.64Z" fill="black"/>
<path d="M170.733 230.577L170.145 230.42L168.228 237.573L168.816 237.73L170.733 230.577Z" fill="black"/>
<path d="M155.918 226.608L155.33 226.45L153.413 233.603L154.002 233.761L155.918 226.608Z" fill="black"/>
<path d="M178.149 232.564L177.363 232.354L175.446 239.507L176.232 239.717L178.149 232.564Z" fill="black"/>
<path d="M176.521 232.128L175.066 231.739L173.15 238.892L174.604 239.281L176.521 232.128Z" fill="black"/>
<path d="M152.538 225.702L151.752 225.491L149.835 232.644L150.622 232.855L152.538 225.702Z" fill="black"/>
<path d="M161.013 227.973L160.227 227.762L158.31 234.915L159.097 235.126L161.013 227.973Z" fill="black"/>
<path d="M163.849 228.733L161.496 228.102L159.579 235.255L161.932 235.886L163.849 228.733Z" fill="black"/>
<path d="M165.019 229.046L164.43 228.889L162.514 236.042L163.102 236.199L165.019 229.046Z" fill="black"/>
<path d="M166.269 229.381L165.681 229.224L163.764 236.377L164.352 236.534L166.269 229.381Z" fill="black"/>
<path d="M169.204 230.168L166.851 229.537L164.934 236.69L167.287 237.321L169.204 230.168Z" fill="black"/>
<path d="M151.201 225.344L150.749 225.223L148.833 232.376L149.285 232.497L151.201 225.344Z" fill="black"/>
<path d="M150.242 225.087L149.907 224.997L147.991 232.15L148.325 232.24L150.242 225.087Z" fill="black"/>
<path d="M179.889 233.03L179.554 232.941L177.638 240.094L177.972 240.184L179.889 233.03Z" fill="black"/>
<path d="M170.002 230.382L169.668 230.292L167.751 237.445L168.086 237.535L170.002 230.382Z" fill="black"/>
<path d="M178.991 232.79L178.657 232.7L176.74 239.853L177.074 239.943L178.991 232.79Z" fill="black"/>
<path d="M61.3458 3.12977L238.27 50.5364C242.213 51.593 244.558 55.668 243.495 59.6364L222.622 137.536C221.56 141.498 217.496 143.862 213.547 142.804L36.6228 95.3973C32.6793 94.3407 30.3342 90.2657 31.3975 86.2973L52.2706 8.39797C53.3339 4.42961 57.3961 2.07146 61.3458 3.12977Z" fill="#FDF0E0"/>
<path d="M58.1296 72.9538C66.1848 75.1122 74.3594 70.7243 76.3881 63.153C78.4168 55.5818 73.5314 47.6944 65.4762 45.536C57.4209 43.3777 49.2463 47.7656 47.2176 55.3368C45.1889 62.908 50.0743 70.7954 58.1296 72.9538Z" fill="#B3D1E8"/>
<path d="M62.8603 50.1483C60.4007 50.8093 59.5396 56.4251 58.856 58.5552C58.0434 58.8642 56.3114 59.5334 54.5483 60.2943C54.6566 59.89 54.9964 59.241 54.4413 59.059C53.6449 58.9856 53.7563 60.2288 53.4871 60.7633C53.4337 60.789 53.382 60.8085 53.3287 60.8342C53.428 60.4141 53.8149 59.7378 53.2351 59.5491C52.4213 59.491 52.538 60.789 52.2575 61.3405C44.2332 65.237 55.1869 64.2254 57.9325 63.4877C57.6753 64.9921 57.8835 66.5679 57.2577 67.9869C55.8096 68.9588 55.1439 69.3138 57.2401 69.1421C57.4911 69.5427 58.0792 69.7003 58.4849 69.449C60.4395 70.6727 60.1981 70.4347 59.1104 68.4766C59.398 67.007 60.1952 65.7407 60.869 64.4146C63.0329 65.501 73.4216 71.9713 66.8737 64.3902C66.9156 63.7881 67.7068 62.7668 66.9775 62.418C66.353 62.2974 66.3473 63.1358 66.1811 63.558C66.1506 63.5231 66.1201 63.4883 66.0913 63.4472C66.1349 62.8389 66.9339 61.813 66.1984 61.4626C65.5598 61.3449 65.5677 62.2069 65.392 62.6399C64.3253 61.4207 63.2864 60.2957 62.7097 59.6745C62.8964 57.7645 64.8892 51.0453 62.8575 50.1342L62.8603 50.1483Z" fill="#6292AB"/>
<path d="M48.2289 23.5209L46.7693 28.8496L237.697 81.1586L239.157 75.8299L48.2289 23.5209Z" fill="black"/>
<path d="M65.8346 13.1457L70.7872 14.4727C71.6106 14.6933 72.1932 15.0695 72.5227 15.5978C72.8523 16.126 72.9385 16.6958 72.7768 17.2991C72.6402 17.8092 72.3687 18.2031 71.9563 18.4793C71.6809 18.6655 71.3197 18.7753 70.8806 18.8044C71.4535 19.1179 71.8371 19.494 72.0314 19.9327C72.2257 20.3714 72.2464 20.8636 72.0997 21.411C71.9797 21.8588 71.7678 22.2287 71.4685 22.5285C71.1692 22.8283 70.8078 23.0381 70.3937 23.1472C70.1359 23.2181 69.7766 23.2218 69.3158 23.1584C68.6999 23.08 68.2937 23.0111 68.0956 22.958L63.5268 21.7339L65.8318 13.1316L65.8346 13.1457ZM67.6057 17.2335L68.7572 17.5421C69.172 17.6532 69.4767 17.6549 69.6743 17.5612C69.8736 17.4612 70.0091 17.2775 70.0824 17.0039C70.1491 16.7551 70.122 16.5344 69.9977 16.3545C69.875 16.1683 69.6086 16.0236 69.2124 15.9174L68.0424 15.6039L67.6057 17.2335ZM66.699 20.6172L68.0486 20.9788C68.5067 21.1016 68.8441 21.1053 69.0794 20.995C69.3084 20.8831 69.4596 20.6902 69.5329 20.4166C69.6013 20.1615 69.5634 19.9314 69.4194 19.7261C69.2753 19.5209 68.9734 19.36 68.5091 19.2356L67.1657 18.8756L66.699 20.6172Z" fill="#153433"/>
<path d="M73.6517 19.8537C74.0283 18.4479 74.7117 17.4577 75.7 16.8892C76.69 16.3145 77.8784 16.213 79.2713 16.5862C80.6642 16.9594 81.6876 17.647 82.2564 18.6194C82.8236 19.598 82.9191 20.7769 82.5491 22.1577C82.2791 23.1654 81.892 23.9416 81.3781 24.4973C80.8722 25.0484 80.2481 25.4211 79.5138 25.611C78.7812 25.7947 77.9404 25.7628 76.9933 25.509C76.0461 25.2552 75.2706 24.8807 74.7225 24.4005C74.1743 23.9203 73.7905 23.2975 73.5743 22.5196C73.3643 21.7433 73.3895 20.8567 73.6595 19.8491L73.6517 19.8537ZM76.2917 20.5744C76.0584 21.4452 76.0527 22.1103 76.273 22.576C76.4932 23.0417 76.8766 23.3444 77.4337 23.4937C77.9909 23.643 78.4928 23.5775 78.9023 23.2872C79.3119 22.997 79.645 22.3729 79.9033 21.4088C80.12 20.6002 80.1173 19.9662 79.8892 19.5051C79.6611 19.0439 79.2716 18.7396 78.7144 18.5903C78.1573 18.441 77.7032 18.526 77.2751 18.8113C76.8515 19.1044 76.5222 19.6895 76.2872 20.5665L76.2917 20.5744Z" fill="#153433"/>
<path d="M88.0286 26.7925L85.0261 25.988L84.2313 27.295L81.5322 26.5717L87.0563 18.8321L89.9412 19.6051L90.8554 29.0699L88.0819 28.3268L88.0348 26.7941L88.0286 26.7925ZM87.9776 24.7788L87.8588 21.4337L86.0956 24.2746L87.9776 24.7788Z" fill="#153433"/>
<path d="M91.7283 29.3039L94.0333 20.7016L98.4411 21.8827C99.2582 22.1016 99.8652 22.3376 100.26 22.5968C100.655 22.8559 100.932 23.2101 101.096 23.6608C101.261 24.1116 101.266 24.6129 101.119 25.1603C100.991 25.6392 100.776 26.0215 100.484 26.3168C100.193 26.612 99.8331 26.8156 99.4235 26.9325C99.164 27.0097 98.8245 27.0387 98.4033 27.0258C98.6907 27.2161 98.8914 27.3833 99.0054 27.5272C99.0862 27.6221 99.1869 27.8158 99.3047 28.094C99.4288 28.3739 99.5043 28.5875 99.5329 28.7285L100.146 31.5661L97.1559 30.7649L96.4494 27.7556C96.3615 27.3654 96.2589 27.1046 96.1449 26.9607C95.988 26.7786 95.7896 26.6521 95.5482 26.5875L95.3129 26.5244L94.3779 30.0138L91.7221 29.3022L91.7283 29.3039ZM95.7558 24.8964L96.8701 25.195C96.9877 25.2265 97.233 25.2522 97.6013 25.2643C97.7847 25.2734 97.9566 25.2261 98.1001 25.1113C98.2499 24.9981 98.3506 24.8451 98.4006 24.6585C98.4756 24.3786 98.4456 24.1439 98.3123 23.9481C98.1789 23.7524 97.8708 23.5899 97.388 23.4605L96.2241 23.1486L95.7558 24.8964Z" fill="#153433"/>
<path d="M103.332 23.193L107.263 24.2463C108.037 24.4537 108.634 24.727 109.054 25.0662C109.474 25.4054 109.788 25.8163 109.993 26.2911C110.196 26.7722 110.301 27.2938 110.297 27.8528C110.3 28.4134 110.218 28.9915 110.061 29.5761C109.815 30.4967 109.518 31.1838 109.172 31.6312C108.827 32.0786 108.427 32.4315 107.964 32.6741C107.501 32.9167 107.043 33.0406 106.586 33.0381C105.962 33.0377 105.414 32.9776 104.944 32.8515L101.013 31.7982L103.318 23.1959L103.332 23.193ZM105.46 25.8498L104.2 30.5522L104.85 30.7263C105.401 30.874 105.814 30.9179 106.082 30.8566C106.351 30.7952 106.593 30.6335 106.806 30.3573C107.018 30.0874 107.22 29.608 107.405 28.9176C107.65 28.0033 107.668 27.3414 107.46 26.9259C107.253 26.5104 106.809 26.2115 106.122 26.0273L105.46 25.8498Z" fill="#153433"/>
<path d="M112.71 25.7063L115.36 26.4163L113.055 35.0185L110.405 34.3086L112.71 25.7063Z" fill="#153433"/>
<path d="M117.279 26.9304L119.749 27.5923L121.7 33.2148L122.975 28.4565L125.47 29.125L123.165 37.7273L120.67 37.0588L118.728 31.4785L117.463 36.1995L114.974 35.5327L117.279 26.9304Z" fill="#153433"/>
<path d="M130.06 36.2351L130.54 34.4437L134.632 35.5402L133.649 39.21C132.72 39.5342 131.934 39.7171 131.276 39.7473C130.624 39.7793 129.885 39.688 129.055 39.4657C128.04 39.1937 127.257 38.7973 126.707 38.2764C126.162 37.7572 125.799 37.1066 125.631 36.3216C125.464 35.5367 125.502 34.7003 125.74 33.8108C125.992 32.8716 126.402 32.1082 126.973 31.5144C127.543 30.9206 128.253 30.5507 129.092 30.389C129.749 30.2651 130.566 30.3372 131.544 30.5993C132.522 30.8614 133.174 31.1293 133.599 31.4233C134.023 31.7235 134.341 32.0955 134.554 32.5392C134.767 32.9829 134.879 33.5062 134.885 34.1013L132.211 33.8781C132.193 33.5265 132.08 33.2296 131.879 32.9891C131.672 32.7469 131.378 32.5814 130.988 32.4769C130.406 32.321 129.887 32.4019 129.438 32.7149C128.983 33.0263 128.638 33.6206 128.403 34.4976C128.153 35.4306 128.148 36.1426 128.388 36.6335C128.628 37.1245 129.063 37.4546 129.683 37.6205C129.98 37.7001 130.27 37.7312 130.566 37.7171C130.855 37.7014 131.203 37.6412 131.606 37.5226L131.823 36.714L130.053 36.2396L130.06 36.2351Z" fill="#153433"/>
<path d="M141.163 33.33L145.558 34.5077C146.518 34.7648 147.174 35.1874 147.529 35.7692C147.883 36.3572 147.951 37.0687 147.724 37.9147C147.497 38.7606 147.049 39.3938 146.399 39.7396C145.747 40.0916 144.89 40.1219 143.825 39.8366L142.377 39.4484L141.522 42.6393L138.866 41.9277L141.171 33.3254L141.163 33.33ZM142.843 37.7068L143.493 37.881C144.007 38.0187 144.383 38.0261 144.642 37.9022C144.901 37.7782 145.06 37.5808 145.135 37.3009C145.21 37.021 145.182 36.7801 145.052 36.5454C144.923 36.3107 144.613 36.1278 144.118 35.9951L143.363 35.7927L142.849 37.7085L142.843 37.7068Z" fill="#153433"/>
<path d="M152.139 43.9709L149.137 43.1664L148.342 44.4735L145.643 43.7502L151.167 36.0105L154.052 36.7835L154.966 46.2484L152.193 45.5052L152.146 43.9726L152.139 43.9709ZM152.088 41.9573L151.97 38.6122L150.206 41.453L152.088 41.9573Z" fill="#153433"/>
<path d="M156.101 43.4992L158.662 44.0189C158.608 44.4443 158.636 44.7852 158.745 45.0477C158.924 45.469 159.267 45.7476 159.775 45.8837C160.152 45.9849 160.467 45.9757 160.719 45.8501C160.972 45.7245 161.126 45.5457 161.189 45.3094C161.253 45.073 161.204 44.8599 161.058 44.6343C160.907 44.4071 160.5 44.118 159.836 43.7734C158.742 43.2003 158.012 42.6314 157.634 42.0633C157.255 41.4952 157.149 40.8736 157.329 40.2018C157.448 39.7602 157.683 39.3766 158.048 39.0544C158.407 38.7306 158.874 38.5224 159.448 38.4362C160.022 38.35 160.751 38.4254 161.643 38.6643C162.739 38.9579 163.513 39.3855 163.979 39.9502C164.445 40.515 164.612 41.2531 164.483 42.1787L161.948 41.6595C161.984 41.2556 161.924 40.933 161.754 40.7008C161.59 40.4702 161.316 40.3035 160.945 40.204C160.635 40.121 160.388 40.1281 160.198 40.2172C160.009 40.3064 159.885 40.4465 159.835 40.6331C159.798 40.77 159.827 40.911 159.928 41.0515C160.022 41.1967 160.291 41.382 160.735 41.6076C161.826 42.1666 162.587 42.6439 163.014 43.0316C163.447 43.421 163.727 43.8361 163.849 44.2752C163.976 44.716 163.974 45.1689 163.847 45.6416C163.699 46.1952 163.409 46.6575 162.981 47.0427C162.553 47.4279 162.03 47.668 161.422 47.7584C160.812 47.855 160.094 47.7891 159.264 47.5668C157.809 47.177 156.875 46.6267 156.464 45.9097C156.052 45.1928 155.928 44.3929 156.085 43.5084L156.101 43.4992Z" fill="#153433"/>
<path d="M164.743 45.8149L167.304 46.3345C167.25 46.76 167.278 47.1009 167.387 47.3633C167.566 47.7847 167.91 48.0633 168.417 48.1993C168.795 48.3005 169.109 48.2914 169.362 48.1658C169.614 48.0401 169.768 47.8614 169.832 47.625C169.895 47.3887 169.846 47.1755 169.701 46.95C169.549 46.7227 169.142 46.4337 168.478 46.0891C167.384 45.516 166.654 44.9471 166.276 44.379C165.897 43.8108 165.792 43.1893 165.972 42.5175C166.09 42.0759 166.326 41.6923 166.691 41.3701C167.049 41.0463 167.517 40.8381 168.09 40.7519C168.664 40.6656 169.394 40.7411 170.285 40.98C171.381 41.2736 172.156 41.7011 172.621 42.2659C173.087 42.8307 173.254 43.5688 173.126 44.4944L170.591 43.9751C170.626 43.5713 170.566 43.2486 170.396 43.0164C170.233 42.7859 169.959 42.6192 169.587 42.5196C169.278 42.4367 169.03 42.4437 168.841 42.5329C168.651 42.622 168.527 42.7622 168.477 42.9488C168.44 43.0856 168.469 43.2266 168.571 43.3672C168.664 43.5123 168.933 43.6977 169.377 43.9233C170.468 44.4823 171.229 44.9596 171.656 45.3473C172.089 45.7367 172.37 46.1518 172.491 46.5909C172.618 47.0317 172.616 47.4845 172.49 47.9572C172.341 48.5108 172.052 48.9732 171.623 49.3584C171.195 49.7436 170.673 49.9837 170.065 50.0741C169.455 50.1707 168.736 50.1047 167.906 49.8825C166.452 49.4927 165.518 48.9424 165.106 48.2254C164.694 47.5084 164.57 46.7085 164.727 45.824L164.743 45.8149Z" fill="#153433"/>
<path d="M223.372 134.71L223.36 134.707L218.14 133.215C217.671 133.083 217.405 132.591 217.536 132.126C217.667 131.662 218.145 131.389 218.609 131.514L218.621 131.517L223.841 133.009C224.31 133.142 224.577 133.633 224.446 134.098C224.314 134.563 223.837 134.835 223.372 134.71ZM211.54 131.326L211.527 131.323L204.915 129.431C204.446 129.299 204.179 128.807 204.311 128.343C204.443 127.872 204.955 127.549 205.396 127.734L212.009 129.625C212.478 129.758 212.744 130.249 212.613 130.714C212.482 131.179 212.004 131.451 211.54 131.326ZM198.316 127.536L198.304 127.533L191.691 125.641C191.222 125.509 190.956 125.018 191.087 124.553C191.22 124.082 191.731 123.785 192.172 123.944L198.785 125.835C199.254 125.968 199.52 126.459 199.389 126.924C199.258 127.389 198.78 127.661 198.316 127.536ZM185.091 123.753L185.078 123.749L178.466 121.858C177.997 121.725 177.731 121.234 177.862 120.769C177.993 120.304 178.471 120.032 178.935 120.157L178.947 120.16L185.56 122.052C186.029 122.184 186.295 122.675 186.164 123.14C186.033 123.605 185.555 123.877 185.091 123.753ZM171.872 119.971L171.859 119.967L165.247 118.076C164.778 117.943 164.512 117.452 164.643 116.987C164.776 116.516 165.296 116.209 165.728 116.378L172.341 118.27C172.81 118.402 173.076 118.893 172.945 119.358C172.814 119.823 172.336 120.095 171.872 119.971ZM158.648 116.181L158.636 116.177L152.023 114.286C151.554 114.153 151.288 113.662 151.419 113.197C151.552 112.726 152.066 112.444 152.505 112.588L159.117 114.48C159.586 114.612 159.853 115.104 159.721 115.568C159.59 116.033 159.113 116.305 158.648 116.181ZM145.423 112.397L145.411 112.394L138.798 110.502C138.329 110.37 138.063 109.878 138.194 109.413C138.327 108.942 138.858 108.618 139.279 108.804L145.892 110.696C146.361 110.828 146.627 111.32 146.496 111.785C146.365 112.25 145.887 112.522 145.423 112.397ZM132.199 108.607L132.187 108.604L125.574 106.712C125.106 106.58 124.839 106.088 124.97 105.624C125.103 105.152 125.634 104.855 126.056 105.014L132.668 106.906C133.137 107.039 133.404 107.53 133.273 107.995C133.141 108.46 132.664 108.732 132.199 108.607ZM118.98 104.825L118.968 104.822L112.355 102.93C111.887 102.798 111.62 102.306 111.751 101.841C111.882 101.377 112.36 101.105 112.824 101.229L112.837 101.232L119.449 103.124C119.918 103.256 120.185 103.748 120.053 104.213C119.922 104.678 119.445 104.95 118.98 104.825ZM105.755 101.041L105.743 101.038L99.1301 99.1463C98.6613 99.014 98.3949 98.5226 98.5261 98.0578C98.6589 97.5867 99.2011 97.272 99.6116 97.4487L106.224 99.3405C106.693 99.4728 106.959 99.9642 106.828 100.429C106.697 100.894 106.219 101.166 105.755 101.041ZM92.5316 97.2516L92.5192 97.2483L85.9066 95.3564C85.4377 95.2241 85.1713 94.7327 85.3025 94.2679C85.4353 93.7968 85.9089 93.4904 86.388 93.6588L93.0006 95.5506C93.4694 95.6829 93.7359 96.1743 93.6047 96.6391C93.4735 97.104 92.9959 97.376 92.5316 97.2516ZM79.3063 93.4679L79.2939 93.4646L72.6813 91.5727C72.2125 91.4404 71.9461 90.9491 72.0773 90.4842C72.2084 90.0194 72.6861 89.7474 73.1504 89.8718L73.1628 89.8751L79.7754 91.7669C80.2442 91.8992 80.5106 92.3906 80.3794 92.8554C80.2483 93.3203 79.7706 93.5923 79.3063 93.4679ZM66.0873 89.6859L66.0749 89.6825L59.4623 87.7907C58.9935 87.6584 58.727 87.167 58.8582 86.7022C58.9911 86.2311 59.4758 85.9077 59.9437 86.0931L66.5563 87.9849C67.0252 88.1172 67.2916 88.6086 67.1604 89.0734C67.0292 89.5383 66.5516 89.8103 66.0873 89.6859ZM52.8637 85.8959L52.8513 85.8926L46.2387 84.0008C45.7699 83.8685 45.5034 83.3771 45.6346 82.9123C45.7675 82.4412 46.2439 82.1489 46.7201 82.3031L53.3328 84.195C53.8016 84.3273 54.068 84.8187 53.9368 85.2835C53.8056 85.7483 53.328 86.0204 52.8637 85.8959ZM39.6385 82.1123L39.6261 82.1089L33.0135 80.2171C32.5447 80.0848 32.2782 79.5934 32.4094 79.1286C32.5423 78.6575 33.0366 78.3233 33.4949 78.5195L40.1075 80.4113C40.5763 80.5436 40.8428 81.035 40.7116 81.4998C40.5804 81.9647 40.1028 82.2367 39.6385 82.1123Z" fill="black"/>
<path d="M186.752 92.3187L185.479 97.0708L184.173 96.7208L185.006 93.6108C184.752 93.7161 184.513 93.792 184.288 93.8385C184.063 93.8849 183.791 93.9119 183.469 93.9255L183.754 92.8619C184.232 92.8366 184.617 92.7599 184.912 92.6256C185.207 92.4912 185.465 92.2938 185.68 92.038L186.744 92.3233L186.752 92.3187Z" fill="black"/>
<path d="M188.332 95.1415C188.156 94.981 188.04 94.8168 187.983 94.6613C187.907 94.4477 187.896 94.218 187.959 93.9816C188.064 93.5898 188.335 93.3223 188.767 93.1714C189.103 93.0549 189.506 93.0627 189.976 93.1888C190.595 93.3547 191.022 93.5956 191.262 93.9133C191.496 94.2292 191.564 94.5676 191.466 94.9346C191.409 95.1461 191.296 95.3223 191.128 95.4774C191.005 95.591 190.827 95.6835 190.608 95.7581C190.824 95.9426 190.973 96.1558 191.043 96.388C191.114 96.6202 191.116 96.8607 191.051 97.1033C190.986 97.3459 190.873 97.5424 190.715 97.7133C190.554 97.8903 190.383 98.011 190.192 98.0798C190.007 98.1503 189.793 98.1798 189.545 98.1665C189.302 98.1549 189.046 98.1196 188.78 98.0483C188.285 97.9156 187.929 97.7601 187.7 97.5722C187.472 97.3844 187.319 97.1634 187.244 96.8967C187.168 96.6363 187.168 96.363 187.243 96.0831C187.318 95.8032 187.44 95.5959 187.622 95.4379C187.796 95.2845 188.034 95.1883 188.328 95.1539L188.332 95.1415ZM188.552 96.3739C188.497 96.5791 188.514 96.7636 188.603 96.9274C188.692 97.0912 188.817 97.1916 188.978 97.2347C189.139 97.2778 189.288 97.2443 189.446 97.1468C189.605 97.0494 189.712 96.898 189.767 96.6928C189.822 96.4875 189.805 96.303 189.716 96.1392C189.628 95.9754 189.504 95.8688 189.343 95.8257C189.182 95.7825 189.023 95.8066 188.87 95.9057C188.719 95.9986 188.61 96.1562 188.552 96.3739ZM189.159 94.383C189.115 94.5448 189.13 94.6886 189.202 94.8147C189.274 94.9408 189.397 95.027 189.564 95.0718C189.713 95.1116 189.85 95.095 189.968 95.0266C190.088 94.952 190.17 94.8409 190.212 94.6854C190.254 94.5299 190.241 94.3797 190.169 94.2537C190.096 94.1276 189.979 94.043 189.831 94.0032C189.682 93.9634 189.533 93.9767 189.407 94.0497C189.281 94.1226 189.199 94.2338 189.155 94.3955L189.159 94.383Z" fill="black"/>
<path d="M192.248 95.2576L193.629 95.6275L193.28 96.9275L191.9 96.5575L192.248 95.2576ZM191.69 97.3413L193.07 97.7112L192.722 99.0112L191.342 98.6412L191.69 97.3413Z" fill="black"/>
<path d="M195.519 96.2007L194.358 95.6563C194.562 95.2909 194.84 95.0454 195.188 94.9119C195.534 94.7846 195.97 94.7884 196.497 94.9294C197.103 95.0919 197.513 95.3217 197.724 95.6248C197.936 95.9217 197.996 96.2443 197.902 96.5926C197.849 96.7917 197.743 96.9634 197.588 97.0952C197.434 97.2271 197.234 97.327 196.978 97.3917C197.146 97.4833 197.269 97.5696 197.351 97.6583C197.481 97.7931 197.564 97.9552 197.609 98.134C197.654 98.3127 197.647 98.5109 197.589 98.7286C197.515 99.0023 197.377 99.2453 197.168 99.4559C196.959 99.6666 196.703 99.8046 196.4 99.8702C196.097 99.9357 195.726 99.9095 195.293 99.7934C194.859 99.6773 194.551 99.5413 194.33 99.3754C194.115 99.2112 193.951 99.0072 193.846 98.7791C193.743 98.5448 193.684 98.2691 193.674 97.9597L195.009 98.1306C194.988 98.4051 195.02 98.607 195.099 98.7348C195.177 98.8625 195.3 98.9487 195.467 98.9935C195.641 99.04 195.8 99.0159 195.952 98.9168C196.103 98.8239 196.206 98.6647 196.262 98.4532C196.319 98.2417 196.31 98.0527 196.23 97.9046C196.15 97.7566 196.019 97.6546 195.827 97.6032C195.728 97.5766 195.579 97.5633 195.392 97.5666L195.708 96.6581C195.779 96.6905 195.833 96.7116 195.87 96.7216C196.038 96.7664 196.195 96.7485 196.335 96.6726C196.475 96.5968 196.565 96.4811 196.605 96.3318C196.645 96.1825 196.63 96.0652 196.573 95.9565C196.51 95.8462 196.41 95.7728 196.261 95.733C196.113 95.6932 195.969 95.7081 195.853 95.7703C195.735 95.8387 195.624 95.9822 195.531 96.2041L195.519 96.2007Z" fill="black"/>
<path d="M198.337 97.9893C198.576 97.0998 198.895 96.5255 199.314 96.251C199.725 95.981 200.262 95.9317 200.912 96.1059C201.228 96.1905 201.472 96.2958 201.648 96.4297C201.824 96.5637 201.965 96.708 202.055 96.8656C202.146 97.0231 202.216 97.182 202.248 97.3371C202.285 97.4938 202.298 97.6704 202.293 97.8624C202.286 98.234 202.233 98.6063 202.131 98.9858C201.904 99.8317 201.595 100.416 201.205 100.731C200.816 101.047 200.273 101.115 199.574 100.927C199.184 100.823 198.885 100.676 198.677 100.487C198.468 100.298 198.32 100.058 198.231 99.774C198.166 99.57 198.141 99.3166 198.159 99.0015C198.177 98.6863 198.234 98.3484 198.331 97.9876L198.337 97.9893ZM199.617 98.3388C199.457 98.936 199.398 99.3535 199.445 99.5994C199.492 99.8453 199.612 99.9909 199.81 100.044C199.94 100.079 200.07 100.067 200.188 99.9984C200.312 99.9316 200.418 99.8068 200.515 99.6194C200.611 99.4319 200.719 99.1276 200.833 98.7046C200.999 98.0826 201.062 97.6526 201.013 97.4129C200.964 97.1732 200.84 97.0198 200.629 96.9634C200.419 96.907 200.234 96.9775 200.078 97.1624C199.927 97.3553 199.769 97.7463 199.613 98.331L199.617 98.3388Z" fill="black"/>
<path d="M185.733 109.865L184.572 109.321C184.776 108.955 185.054 108.71 185.394 108.581C185.74 108.454 186.177 108.457 186.703 108.598C187.31 108.761 187.719 108.991 187.93 109.294C188.141 109.597 188.2 109.919 188.109 110.262C188.055 110.461 187.95 110.632 187.795 110.764C187.64 110.896 187.434 110.994 187.178 111.059C187.346 111.151 187.469 111.237 187.551 111.326C187.681 111.46 187.764 111.622 187.809 111.801C187.854 111.98 187.847 112.178 187.789 112.396C187.715 112.67 187.577 112.913 187.368 113.123C187.159 113.334 186.903 113.472 186.6 113.537C186.298 113.603 185.926 113.577 185.493 113.461C185.06 113.345 184.751 113.209 184.53 113.043C184.315 112.878 184.151 112.674 184.046 112.446C183.943 112.212 183.884 111.936 183.876 111.621L185.21 111.792C185.19 112.066 185.222 112.268 185.301 112.396C185.379 112.524 185.502 112.61 185.669 112.655C185.843 112.701 186.002 112.677 186.154 112.578C186.305 112.485 186.408 112.326 186.464 112.114C186.521 111.903 186.512 111.714 186.432 111.566C186.352 111.418 186.22 111.316 186.029 111.264C185.929 111.238 185.78 111.224 185.588 111.226L185.904 110.317C185.975 110.35 186.029 110.371 186.066 110.381C186.233 110.426 186.391 110.408 186.53 110.332C186.67 110.256 186.761 110.14 186.801 109.991C186.841 109.842 186.826 109.725 186.769 109.616C186.705 109.506 186.604 109.438 186.455 109.399C186.307 109.359 186.165 109.367 186.047 109.436C185.929 109.504 185.818 109.648 185.725 109.87L185.733 109.865Z" fill="black"/>
<path d="M191.197 114.062L189.569 113.626L189.134 114.336L187.666 113.943L190.664 109.74L192.23 110.159L192.724 115.298L191.22 114.895L191.191 114.061L191.197 114.062ZM191.17 112.975L191.106 111.158L190.149 112.701L191.17 112.975Z" fill="black"/>
<path d="M196.119 77.9883L199.567 78.9122L199.352 79.7146C198.982 79.9087 198.65 80.133 198.367 80.3971C198.022 80.7181 197.715 81.0958 197.446 81.5304C197.236 81.8675 197.045 82.283 196.869 82.769L195.692 82.4538C195.972 81.7821 196.277 81.2372 196.602 80.8176C196.927 80.3979 197.377 79.9787 197.954 79.5599L195.855 78.9976L196.124 77.9962L196.119 77.9883Z" fill="black"/>
<path d="M140.389 68.7085L124.12 64.3492C122.819 64.0009 122.05 62.6615 122.4 61.3553C122.75 60.0491 124.086 59.2737 125.386 59.622L141.655 63.9813C142.955 64.3297 143.724 65.6691 143.374 66.9753C143.024 68.2815 141.689 69.0569 140.389 68.7085Z" fill="black"/>
<path d="M132.24 99.1182L115.971 94.7589C114.671 94.4106 113.902 93.0712 114.252 91.765C114.602 90.4588 115.938 89.6834 117.238 90.0317L133.507 94.391C134.807 94.7394 135.576 96.0788 135.226 97.385C134.876 98.6912 133.541 99.4666 132.24 99.1182Z" fill="black"/>
<path d="M115.477 62.0338L91.7113 55.6657C90.4113 55.3173 89.6422 53.9779 89.9922 52.6717C90.3422 51.3655 91.6779 50.5901 92.978 50.9384L116.744 57.3065C118.044 57.6549 118.813 58.9943 118.463 60.3005C118.113 61.6067 116.777 62.3821 115.477 62.0338Z" fill="black"/>
<path d="M135.085 84.1675L118.816 79.8082C117.516 79.4599 116.747 78.1205 117.097 76.8143C117.447 75.5081 118.783 74.7327 120.083 75.081L136.352 79.4403C137.652 79.7887 138.421 81.1281 138.071 82.4343C137.721 83.7405 136.385 84.5159 135.085 84.1675Z" fill="black"/>
<path d="M98.2941 74.3093L87.4913 71.4147C86.1913 71.0663 85.4222 69.7269 85.7722 68.4207C86.1222 67.1145 87.4579 66.3391 88.758 66.6875L99.5607 69.5821C100.861 69.9304 101.63 71.2698 101.28 72.576C100.93 73.8822 99.5941 74.6576 98.2941 74.3093Z" fill="black"/>
<path d="M113.418 78.3616L105.853 76.3346C104.553 75.9862 103.784 74.6469 104.134 73.3407C104.484 72.0345 105.82 71.259 107.12 71.6074L114.685 73.6344C115.985 73.9828 116.754 75.3222 116.404 76.6284C116.054 77.9346 114.718 78.71 113.418 78.3616Z" fill="black"/>
<path d="M108.412 92.7335L83.5629 86.0751C82.2628 85.7267 81.4937 84.3873 81.8437 83.0811C82.1937 81.7749 83.5295 80.9995 84.8295 81.3479L109.679 88.0063C110.979 88.3546 111.748 89.694 111.398 91.0002C111.048 92.3064 109.712 93.0818 108.412 92.7335Z" fill="black"/>
<path d="M208.851 91.6862L203.539 90.263C203.18 90.1668 202.968 89.7965 203.064 89.4357C203.161 89.0749 203.53 88.8606 203.889 88.9568L209.201 90.38C209.56 90.4762 209.773 90.8465 209.676 91.2073C209.579 91.568 209.21 91.7824 208.851 91.6862ZM198.222 88.8381L192.91 87.4148C192.551 87.3186 192.338 86.9483 192.435 86.5876C192.532 86.2268 192.901 86.0124 193.26 86.1086L198.572 87.5319C198.931 87.6281 199.143 87.9984 199.047 88.3591C198.95 88.7199 198.581 88.9343 198.222 88.8381ZM187.592 85.9899L183.463 84.8835C183.104 84.7873 182.891 84.417 182.988 84.0562L183.306 82.8682C183.403 82.5075 183.772 82.2931 184.131 82.3893C184.49 82.4855 184.703 82.8558 184.606 83.2166L184.461 83.7577L187.94 84.6899C188.3 84.7861 188.512 85.1565 188.415 85.5172C188.319 85.878 187.95 86.0924 187.59 85.9961L187.592 85.9899ZM210.231 86.536C209.872 86.4398 209.659 86.0695 209.756 85.7088L211.186 80.372C211.283 80.0113 211.652 79.7969 212.011 79.8931C212.37 79.9893 212.583 80.3596 212.486 80.7204L211.056 86.0571C210.959 86.4179 210.59 86.6323 210.231 86.536ZM185.213 78.3525C184.854 78.2563 184.641 77.886 184.738 77.5252L186.143 72.2818C186.24 71.921 186.609 71.7066 186.968 71.8028C187.327 71.899 187.583 72.281 187.486 72.6417C187.461 72.735 187.418 72.8233 187.367 72.8897L186.032 77.8719C185.935 78.2327 185.566 78.4471 185.207 78.3508L185.213 78.3525ZM207.97 78.8302L202.658 77.407C202.299 77.3108 202.086 76.9405 202.183 76.5797C202.28 76.2189 202.649 76.0046 203.008 76.1008L208.32 77.524C208.679 77.6202 208.891 77.9905 208.795 78.3513C208.698 78.712 208.329 78.9264 207.97 78.8302ZM197.34 75.9821L192.029 74.5588C191.67 74.4626 191.457 74.0923 191.554 73.7315C191.65 73.3708 192.02 73.1564 192.379 73.2526L197.69 74.6759C198.049 74.7721 198.262 75.1424 198.165 75.5031C198.069 75.8639 197.699 76.0783 197.34 75.9821Z" fill="#45A5D5"/>
<path d="M200.721 122.028L195.409 120.604C195.05 120.508 194.838 120.138 194.934 119.777C195.031 119.416 195.4 119.202 195.759 119.298L201.071 120.721C201.43 120.818 201.643 121.188 201.546 121.549C201.449 121.909 201.08 122.124 200.721 122.028ZM190.092 119.179L184.78 117.756C184.421 117.66 184.208 117.29 184.305 116.929C184.402 116.568 184.771 116.354 185.13 116.45L190.442 117.873C190.801 117.969 191.013 118.34 190.917 118.7C190.82 119.061 190.451 119.276 190.092 119.179ZM179.462 116.331L175.333 115.225C174.974 115.129 174.761 114.758 174.858 114.398L175.176 113.21C175.273 112.849 175.642 112.634 176.001 112.731C176.36 112.827 176.573 113.197 176.476 113.558L176.331 114.099L179.811 115.031C180.17 115.127 180.382 115.498 180.286 115.859C180.189 116.219 179.82 116.434 179.461 116.337L179.462 116.331ZM202.101 116.877C201.742 116.781 201.529 116.411 201.626 116.05L203.056 110.713C203.153 110.353 203.522 110.138 203.881 110.234C204.24 110.331 204.453 110.701 204.356 111.062L202.926 116.398C202.829 116.759 202.46 116.974 202.101 116.877ZM177.083 108.694C176.724 108.598 176.511 108.227 176.608 107.867L178.013 102.623C178.11 102.262 178.479 102.048 178.838 102.144C179.197 102.24 179.453 102.622 179.356 102.983C179.331 103.076 179.288 103.165 179.237 103.231L177.902 108.213C177.805 108.574 177.436 108.788 177.077 108.692L177.083 108.694ZM199.84 109.172L194.528 107.748C194.169 107.652 193.956 107.282 194.053 106.921C194.15 106.56 194.519 106.346 194.878 106.442L200.19 107.865C200.549 107.962 200.761 108.332 200.665 108.693C200.568 109.053 200.199 109.268 199.84 109.172ZM189.21 106.323L183.899 104.9C183.54 104.804 183.327 104.434 183.424 104.073C183.52 103.712 183.89 103.498 184.249 103.594L189.56 105.017C189.919 105.113 190.132 105.484 190.035 105.844C189.939 106.205 189.569 106.42 189.21 106.323Z" fill="#45A5D5"/>
<path d="M205.011 106.017L199.699 104.594C199.34 104.498 199.128 104.128 199.224 103.767C199.321 103.406 199.69 103.192 200.049 103.288L205.361 104.711C205.72 104.807 205.933 105.178 205.836 105.538C205.739 105.899 205.37 106.113 205.011 106.017ZM194.381 103.169L189.07 101.746C188.711 101.65 188.498 101.279 188.595 100.919C188.691 100.558 189.061 100.343 189.42 100.44L194.731 101.863C195.091 101.959 195.303 102.329 195.206 102.69C195.11 103.051 194.741 103.265 194.381 103.169ZM183.752 100.321L179.623 99.2146C179.264 99.1184 179.051 98.7481 179.148 98.3873L179.466 97.1993C179.563 96.8385 179.932 96.6241 180.291 96.7203C180.65 96.8166 180.863 97.1869 180.766 97.5476L180.621 98.0888L184.1 99.021C184.459 99.1172 184.672 99.4875 184.575 99.8483C184.479 100.209 184.109 100.423 183.75 100.327L183.752 100.321ZM206.391 100.867C206.032 100.771 205.819 100.401 205.916 100.04L207.346 94.7031C207.443 94.3423 207.812 94.1279 208.171 94.2241C208.53 94.3203 208.743 94.6907 208.646 95.0514L207.216 100.388C207.119 100.749 206.75 100.963 206.391 100.867ZM181.373 92.6836C181.014 92.5873 180.801 92.217 180.898 91.8563L182.303 86.6128C182.399 86.2521 182.769 86.0377 183.128 86.1339C183.487 86.2301 183.743 86.612 183.646 86.9728C183.621 87.0661 183.578 87.1544 183.527 87.2207L182.192 92.203C182.095 92.5637 181.726 92.7781 181.367 92.6819L181.373 92.6836ZM204.13 93.1613L198.818 91.738C198.459 91.6418 198.246 91.2715 198.343 90.9107C198.44 90.55 198.809 90.3356 199.168 90.4318L204.48 91.8551C204.839 91.9513 205.051 92.3216 204.955 92.6823C204.858 93.0431 204.489 93.2575 204.13 93.1613ZM193.5 90.3131L188.188 88.8899C187.829 88.7937 187.617 88.4234 187.713 88.0626C187.81 87.7018 188.179 87.4875 188.538 87.5837L193.85 89.0069C194.209 89.1031 194.422 89.4734 194.325 89.8342C194.228 90.195 193.859 90.4093 193.5 90.3131Z" fill="#45A5D5"/>
<path d="M163.269 119.192C162.798 119.066 162.522 118.586 162.649 118.113L162.711 117.883C162.837 117.41 163.317 117.132 163.787 117.258C164.258 117.384 164.534 117.864 164.407 118.337L164.345 118.567C164.219 119.04 163.739 119.318 163.269 119.192ZM165.12 112.282C164.65 112.156 164.374 111.675 164.501 111.202L166.289 104.528C166.416 104.056 166.895 103.777 167.365 103.903C167.836 104.03 168.112 104.51 167.985 104.983L166.197 111.657C166.07 112.13 165.591 112.408 165.12 112.282ZM168.697 98.9337C168.227 98.8076 167.951 98.327 168.077 97.8543L169.866 91.1802C169.992 90.7075 170.472 90.4293 170.942 90.5553C171.413 90.6814 171.688 91.162 171.562 91.6347L169.774 98.3088C169.647 98.7815 169.168 99.0597 168.697 98.9337ZM172.274 85.5855C171.803 85.4595 171.527 84.9789 171.654 84.5062L173.442 77.8321C173.569 77.3594 174.048 77.0811 174.519 77.2072C174.989 77.3333 175.265 77.8139 175.138 78.2866L173.35 84.9607C173.223 85.4334 172.744 85.7116 172.274 85.5855ZM175.85 72.2374C175.38 72.1113 175.104 71.6307 175.231 71.158L177.019 64.484C177.145 64.0112 177.625 63.733 178.095 63.8591C178.566 63.9851 178.842 64.4657 178.715 64.9385L176.927 71.6125C176.8 72.0853 176.321 72.3635 175.85 72.2374ZM179.427 58.8893C178.956 58.7632 178.68 58.2826 178.807 57.8099L180.595 51.1358C180.722 50.6631 181.201 50.3849 181.672 50.5109C182.142 50.637 182.418 51.1176 182.292 51.5903L180.503 58.2644C180.377 58.7371 179.897 59.0153 179.427 58.8893ZM183.004 45.5411C182.533 45.4151 182.257 44.9345 182.384 44.4618L184.172 37.7877C184.299 37.315 184.778 37.0367 185.249 37.1628C185.719 37.2889 185.995 37.7695 185.868 38.2422L184.08 44.9163C183.953 45.389 183.474 45.6672 183.004 45.5411Z" fill="black"/>
<path d="M198.602 129.86L197.686 129.614L195.94 136.133L196.856 136.378L198.602 129.86Z" fill="black"/>
<path d="M196.882 129.398L195.829 129.116L194.082 135.635L195.135 135.917L196.882 129.398Z" fill="black"/>
<path d="M180.532 125.018L179.343 124.699L177.597 131.218L178.785 131.536L180.532 125.018Z" fill="black"/>
<path d="M183.931 125.928L182.606 125.573L180.859 132.092L182.184 132.447L183.931 125.928Z" fill="black"/>
<path d="M185.491 126.346L184.779 126.156L183.032 132.674L183.744 132.865L185.491 126.346Z" fill="black"/>
<path d="M195.489 129.025L194.95 128.881L193.204 135.399L193.742 135.544L195.489 129.025Z" fill="black"/>
<path d="M181.993 125.409L181.454 125.265L179.708 131.783L180.246 131.928L181.993 125.409Z" fill="black"/>
<path d="M202.237 130.833L201.525 130.643L199.778 137.161L200.49 137.352L202.237 130.833Z" fill="black"/>
<path d="M200.757 130.437L199.432 130.082L197.685 136.601L199.01 136.956L200.757 130.437Z" fill="black"/>
<path d="M178.904 124.581L178.192 124.391L176.445 130.909L177.157 131.1L178.904 124.581Z" fill="black"/>
<path d="M186.63 126.651L185.918 126.461L184.171 132.979L184.883 133.17L186.63 126.651Z" fill="black"/>
<path d="M189.217 127.345L187.075 126.771L185.329 133.29L187.471 133.864L189.217 127.345Z" fill="black"/>
<path d="M190.282 127.63L189.744 127.486L187.997 134.004L188.536 134.149L190.282 127.63Z" fill="black"/>
<path d="M191.421 127.936L190.883 127.791L189.136 134.31L189.675 134.454L191.421 127.936Z" fill="black"/>
<path d="M194.096 128.652L191.954 128.078L190.207 134.597L192.349 135.171L194.096 128.652Z" fill="black"/>
<path d="M177.69 124.256L177.282 124.147L175.535 130.665L175.944 130.775L177.69 124.256Z" fill="black"/>
<path d="M176.824 124.024L176.514 123.941L174.768 130.46L175.077 130.543L176.824 124.024Z" fill="black"/>
<path d="M203.828 131.26L203.518 131.177L201.771 137.695L202.081 137.778L203.828 131.26Z" fill="black"/>
<path d="M194.826 128.848L194.517 128.765L192.77 135.283L193.079 135.366L194.826 128.848Z" fill="black"/>
<path d="M203.01 131.041L202.701 130.958L200.954 137.476L201.264 137.559L203.01 131.041Z" fill="black"/>
<path d="M234.404 63.2804L189.032 51.1231C187.93 50.8278 187.279 49.6933 187.575 48.5861C187.872 47.4789 189.004 46.8221 190.105 47.1174L235.477 59.2747C236.579 59.5699 237.23 60.7045 236.934 61.8116C236.637 62.9188 235.506 63.5756 234.404 63.2804Z" fill="black"/>
</g>
<defs>
<clipPath id="clip0_81_4823">
<rect width="199.72" height="203.286" fill="white" transform="translate(53.3474 0.986572) rotate(15)"/>
</clipPath>
</defs>
</svg>
