<svg width="228" height="70" viewBox="0 0 228 70" fill="none" xmlns="http://www.w3.org/2000/svg">
<mask id="mask0_184_1006" style="mask-type:luminance" maskUnits="userSpaceOnUse" x="34" y="0" width="160" height="29">
<path d="M193.198 0H34.8028V28.6364H193.198V0Z" fill="white"/>
</mask>
<g mask="url(#mask0_184_1006)">
<path d="M99.1066 0H34.8028V28.6364H99.1066V0Z" fill="#CC0033"/>
<path d="M46.2158 22.958H40.5876V6.07715H46.2158V11.6598H53.8535V17.3701H46.2158V22.958Z" fill="white"/>
<path d="M93.3213 23.1574H87.3716C83.0175 23.1574 81.9104 20.9801 81.9104 17.3328V16.0993H77.9572V12.2207H81.9104V10.2481H77.9572V6.27649H93.3213V10.2481H87.536V12.2207H93.3213V16.0993H87.5705C87.5705 17.0058 87.5705 17.5002 87.8868 17.7741C88.1117 17.9681 88.4364 18.0957 88.9046 18.0957H93.3239V23.16L93.3213 23.1574Z" fill="white"/>
<path d="M73.9303 22.389H59.2176V16.6708H68.1085V12.3403H59.2176V6.62207H73.9303V22.389Z" fill="white"/>
<path d="M50.6273 9.5383C49.3741 9.82275 48.2749 8.70625 48.5551 7.43284C48.6961 6.78953 49.2065 6.27115 49.8371 6.1276C51.0903 5.84315 52.1921 6.95965 51.9092 8.23306C51.7683 8.87637 51.2578 9.39209 50.6247 9.53565L50.6273 9.5383Z" fill="white"/>
<path d="M55.1907 9.5383C53.9375 9.82275 52.8383 8.70625 53.1186 7.43284C53.2595 6.78953 53.77 6.27115 54.4005 6.1276C55.6537 5.84315 56.7555 6.95965 56.4726 8.23306C56.3317 8.87637 55.8212 9.39209 55.1881 9.53565L55.1907 9.5383Z" fill="white"/>
<path d="M184.212 13.409L192.31 0H179.785L177.203 5.81392H177.114L174.534 0H162.008L170.109 13.409L164.507 22.9022L156.019 0H144.684L136.193 22.9022V0H125.269L120.17 7.19897L114.953 0H104.029V28.6364H114.953V14.6744H115.031L120.17 21.3975L125.191 14.6744H125.269V28.6364H146.079L146.969 24.8774H153.729L154.619 28.6364H173.636L177.119 21.7936H177.2L180.682 28.6364H193.197L184.21 13.409H184.212ZM148.677 17.681L150.312 10.7719H150.391L152.026 17.681H148.677Z" fill="#CC0033"/>
</g>
<mask id="mask1_184_1006" style="mask-type:luminance" maskUnits="userSpaceOnUse" x="0" y="41" width="228" height="29">
<path d="M227.67 41.3636H0.329468V70H227.67V41.3636Z" fill="white"/>
</mask>
<g mask="url(#mask1_184_1006)">
<path d="M133.467 41.3636H0.329468V70H133.467V41.3636Z" fill="#BC9500"/>
<path d="M107.76 54.6398L113.364 55.6102V52.497L107.76 51.5267V54.6398Z" fill="white"/>
<path d="M107.76 49.7588L113.364 50.7292V47.6215L107.76 46.6538V49.7588Z" fill="white"/>
<path d="M107.76 65.643L113.364 63.8246V58.1859L107.76 60.0812V65.643Z" fill="white"/>
<path d="M124.668 49.9822C125.785 49.8174 126.819 49.6419 127.682 49.4665V46.3641C124.662 46.9703 119.641 47.6056 116.028 47.6216V50.7292C116.959 50.7239 117.982 50.6787 119.042 50.6043V52.5157H115.402V55.6182H119.042V57.5851H116.028V64.7765H127.682V57.5851H124.668V55.6182H128.307V52.5157H124.668V49.9849V49.9822ZM123.917 62.3573H119.793V60.0043H123.917V62.3573Z" fill="white"/>
<path d="M66.0201 64.5797C67.503 64.5797 68.7051 63.3585 68.7051 61.8519C68.7051 60.3458 67.503 59.1245 66.0201 59.1245C64.5378 59.1245 63.3358 60.3458 63.3358 61.8519C63.3358 63.3585 64.5378 64.5797 66.0201 64.5797Z" fill="white"/>
<path d="M81.259 64.5957C82.7419 64.5957 83.944 63.3744 83.944 61.8679C83.944 60.3618 82.7419 59.1405 81.259 59.1405C79.7767 59.1405 78.5746 60.3618 78.5746 61.8679C78.5746 63.3744 79.7767 64.5957 81.259 64.5957Z" fill="white"/>
<path d="M11.743 64.776H6.11476V47.8954H11.743V53.4779H19.3807V59.1855H11.743V64.776Z" fill="white"/>
<path d="M58.8485 64.9754H52.8983C48.5447 64.9754 47.4376 62.7985 47.4376 59.1511V57.9176H43.4839V54.0389H47.4376V52.0664H43.4839V48.0947H58.8485V52.0664H53.0632V54.0389H58.8485V57.9176H53.0972C53.0972 58.8239 53.0972 59.3186 53.414 59.5923C53.639 59.7864 53.9631 59.9142 54.4318 59.9142H58.8512V64.978L58.8485 64.9754Z" fill="white"/>
<path d="M39.4575 64.2049H24.7448V58.4893H33.6357V54.1562H24.7448V48.4404H39.4575V64.2049Z" fill="white"/>
<path d="M15.7594 51.4018C14.8094 51.4018 14.0375 50.6176 14.0375 49.6526C14.0375 48.6876 14.8094 47.9033 15.7594 47.9033C16.7093 47.9033 17.4813 48.6876 17.4813 49.6526C17.4813 50.6176 16.7093 51.4018 15.7594 51.4018Z" fill="white"/>
<path d="M20.3228 51.4018C19.3728 51.4018 18.6009 50.6176 18.6009 49.6526C18.6009 48.6876 19.3728 47.9033 20.3228 47.9033C21.2722 47.9033 22.0442 48.6876 22.0442 49.6526C22.0442 50.6176 21.2722 51.4018 20.3228 51.4018Z" fill="white"/>
<path d="M103.557 47.7837C98.9939 49.5516 93.1121 51.2131 87.3586 51.9707V58.1568C89.1296 57.9388 91.1365 57.6037 93.1721 57.1863V64.776H98.8687V55.815C100.616 55.3229 102.231 54.7888 103.555 54.241V47.7863L103.557 47.7837Z" fill="white"/>
<path d="M82.5357 45.8643C80.6337 45.8643 79.0924 47.4301 79.0924 49.3627C79.0924 49.9609 79.2417 50.5245 79.5006 51.0163H76.4054V47.866H70.8685V51.0163H65.9392V56.7318H70.8685V64.7733H76.4054V56.7318H81.3347V52.6379C81.709 52.7788 82.1119 52.8612 82.5331 52.8612C84.4356 52.8612 85.9764 51.2954 85.9764 49.3627C85.9764 47.4301 84.4356 45.8643 82.5331 45.8643H82.5357ZM82.5357 50.7425C81.7878 50.7425 81.1781 50.1257 81.1781 49.3627C81.1781 48.5998 81.7852 47.983 82.5357 47.983C83.2868 47.983 83.8938 48.5998 83.8938 49.3627C83.8938 50.1257 83.2868 50.7425 82.5357 50.7425Z" fill="white"/>
<path d="M218.683 54.7729L226.783 41.3636H214.258L211.675 47.1776H211.586L209.004 41.3636H196.478L204.579 54.7729L198.977 64.2658L190.492 41.3636H179.157L170.666 64.2658V41.3636H159.742L154.643 48.5626L149.425 41.3636H138.501V70H149.425V56.0382H149.504L154.643 62.7614L159.664 56.0382H159.742V70H180.551L181.441 66.2412H188.202L189.092 70H208.109L211.591 63.1575H211.673L215.155 70H227.67L218.683 54.7729ZM183.147 59.0445L184.782 52.1355H184.861L186.496 59.0445H183.147Z" fill="#BC9500"/>
</g>
</svg>
