<svg width="97" height="69" viewBox="0 0 97 69" fill="none" xmlns="http://www.w3.org/2000/svg">
<path d="M14.4726 51.9466H17.1415V45.4637C17.1413 43.9065 16.5983 42.4013 15.6118 41.2235C14.6253 40.0457 13.2613 39.274 11.7692 39.0495L11.6327 39.0318L11.4871 39.014C10.087 38.8914 8.73045 38.4514 7.514 37.7252C6.97984 37.437 6.51231 37.0329 6.1434 36.5407C5.91716 36.7108 5.72955 36.9298 5.59366 37.1825C5.45777 37.4351 5.37687 37.7154 5.35659 38.0036C5.31449 38.5275 5.4114 39.0533 5.63692 39.5245C5.86244 39.9958 6.20805 40.3946 6.63658 40.6783C5.45821 41.7887 4.73349 43.3209 4.60974 44.9635C4.486 46.606 4.97251 48.2355 5.97039 49.5209C6.96827 50.8062 8.40262 51.6509 9.9819 51.8832C11.5612 52.1155 13.1669 51.7181 14.4726 50.7716V51.9466ZM10.8643 49.3739C10.1157 49.3739 9.38388 49.1446 8.76145 48.7151C8.13902 48.2856 7.65389 47.6751 7.36741 46.9608C7.08094 46.2465 7.00598 45.4606 7.15203 44.7023C7.29807 43.9441 7.65857 43.2476 8.1879 42.7009C8.71723 42.1542 9.39164 41.7819 10.1259 41.6311C10.8601 41.4803 11.6211 41.5577 12.3127 41.8535C13.0043 42.1494 13.5954 42.6504 14.0113 43.2932C14.4272 43.9361 14.6492 44.6918 14.6492 45.4649C14.6492 46.5016 14.2504 47.4959 13.5406 48.229C12.8308 48.962 11.8681 49.3739 10.8643 49.3739ZM50.0281 51.9466H52.6971V45.4637C52.6968 43.9065 52.1538 42.4013 51.1674 41.2235C50.1809 40.0457 48.8169 39.274 47.3248 39.0495L47.1882 39.0318L47.0426 39.014C45.6426 38.8913 44.286 38.4513 43.0696 37.7252C42.5352 37.4372 42.0677 37.0331 41.699 36.5407C41.4727 36.7108 41.2851 36.9298 41.1492 37.1825C41.0133 37.4351 40.9324 37.7154 40.9121 38.0036C40.8702 38.5275 40.9671 39.0532 41.1926 39.5244C41.4182 39.9956 41.7637 40.3945 42.1921 40.6783C41.0138 41.7887 40.289 43.3209 40.1653 44.9635C40.0415 46.606 40.5281 48.2355 41.5259 49.5209C42.5238 50.8062 43.9582 51.6509 45.5375 51.8832C47.1167 52.1155 48.7224 51.7181 50.0281 50.7716V51.9466ZM46.421 49.3739C45.6724 49.3739 44.9406 49.1446 44.3182 48.7151C43.6957 48.2856 43.2106 47.6751 42.9241 46.9608C42.6376 46.2465 42.5627 45.4606 42.7087 44.7023C42.8548 43.9441 43.2153 43.2476 43.7446 42.7009C44.2739 42.1542 44.9483 41.7819 45.6825 41.6311C46.4167 41.4803 47.1778 41.5577 47.8694 41.8535C48.561 42.1494 49.1521 42.6504 49.568 43.2932C49.9839 43.9361 50.2059 44.6918 50.2059 45.4649C50.2059 46.5016 49.8071 47.4959 49.0973 48.229C48.3875 48.962 47.4248 49.3739 46.421 49.3739ZM42.0763 55.9622C39.9326 59.8166 35.0225 62.5173 29.3222 62.5173C23.6218 62.5173 18.7117 59.8166 16.568 55.9622H19.5822C22.1732 58.6149 25.6738 60.1032 29.3222 60.1032C32.9705 60.1032 36.4712 58.6149 39.0621 55.9622H42.0763ZM86.4106 38.982C85.1691 38.982 83.9554 39.3622 82.9232 40.0746C81.8909 40.7869 81.0863 41.7994 80.6112 42.984C80.1361 44.1686 80.0117 45.4721 80.254 46.7297C80.4962 47.9872 81.094 49.1424 81.9719 50.049C82.8498 50.9557 83.9683 51.5731 85.186 51.8233C86.4036 52.0734 87.6658 51.945 88.8128 51.4544C89.9599 50.9637 90.9402 50.1327 91.63 49.0666C92.3197 48.0005 92.6879 46.7471 92.6879 45.4649C92.6879 43.7456 92.0266 42.0966 90.8493 40.8808C89.6721 39.665 88.0755 38.982 86.4106 38.982ZM86.4106 49.375C85.662 49.375 84.9302 49.1458 84.3078 48.7163C83.6854 48.2868 83.2003 47.6763 82.9138 46.962C82.6273 46.2477 82.5524 45.4618 82.6984 44.7035C82.8444 43.9453 83.2049 43.2488 83.7343 42.7021C84.2636 42.1554 84.938 41.7831 85.6722 41.6323C86.4064 41.4815 87.1675 41.5589 87.8591 41.8547C88.5507 42.1506 89.1418 42.6516 89.5577 43.2944C89.9736 43.9372 90.1956 44.693 90.1956 45.4661C90.1956 46.5028 89.7968 47.4971 89.087 48.2301C88.3772 48.9632 87.4145 49.375 86.4106 49.375ZM74.5488 43.6988V51.9466H71.8271V43.6988C71.8271 43.1919 71.6321 42.7058 71.2851 42.3474C70.938 41.9889 70.4673 41.7876 69.9765 41.7876C69.4857 41.7876 69.015 41.9889 68.6679 42.3474C68.3209 42.7058 68.1259 43.1919 68.1259 43.6988V51.9466H65.4099V43.6988C65.4099 43.1919 65.2149 42.7058 64.8679 42.3474C64.5208 41.9889 64.0501 41.7876 63.5593 41.7876C63.0685 41.7876 62.5978 41.9889 62.2507 42.3474C61.9037 42.7058 61.7087 43.1919 61.7087 43.6988V51.9466H58.9916V43.6988C58.9918 43.0241 59.133 42.3575 59.4056 41.7443C59.054 41.433 58.7795 41.0395 58.6048 40.5966C58.43 40.1536 58.3601 39.674 58.4009 39.1976C58.4227 38.8907 58.509 38.5923 58.6538 38.3233C58.7986 38.0543 58.9984 37.8211 59.2393 37.64C59.6899 38.1048 60.1792 38.5277 60.7017 38.9038C60.9859 39.1173 61.2939 39.2947 61.6192 39.4321C62.4641 39.0195 63.4116 38.8855 64.3328 39.0485C65.254 39.2115 66.1042 39.6635 66.7679 40.343C67.4086 39.6888 68.2224 39.245 69.1068 39.0674C69.9912 38.8898 70.9067 38.9864 71.7381 39.345C72.5694 39.7037 73.2795 40.3083 73.7788 41.0828C74.2782 41.8574 74.5445 42.7671 74.5442 43.6976M26.1531 51.9455H23.4842V34.9523H26.1531V39.778C26.9838 39.2667 27.9309 38.992 28.8979 38.9817C29.8648 38.9715 30.8172 39.2261 31.6578 39.7197C32.4985 40.2133 33.1975 40.9281 33.6836 41.7915C34.1697 42.6549 34.4255 43.6359 34.425 44.6346V51.9502H31.756V44.6346C31.756 43.8673 31.4609 43.1314 30.9355 42.5888C30.4101 42.0462 29.6976 41.7414 28.9546 41.7414C28.2116 41.7414 27.499 42.0462 26.9737 42.5888C26.4483 43.1314 26.1531 43.8673 26.1531 44.6346V51.9455Z" fill="#231815"/>
<path d="M26.8799 2.388C26.8559 2.572 26.8359 2.772 26.8199 2.988C26.8119 3.204 26.8079 3.408 26.8079 3.6C26.8159 3.936 26.8239 4.3 26.8319 4.692C26.8399 5.084 26.8479 5.5 26.8559 5.94C26.8719 6.38 26.8839 6.832 26.8919 7.296C26.8999 7.752 26.9079 8.212 26.9159 8.676C26.9239 9.132 26.9319 9.584 26.9399 10.032C26.9479 10.472 26.9559 10.896 26.9639 11.304C26.9719 11.688 26.8639 11.984 26.6399 12.192C26.4159 12.408 26.0759 12.516 25.6199 12.516C25.2599 12.516 24.9079 12.508 24.5639 12.492C24.2199 12.484 23.8759 12.468 23.5319 12.444L23.3999 10.884C23.6719 10.932 23.9559 10.968 24.2519 10.992C24.5479 11.016 24.7959 11.028 24.9959 11.028C25.1479 11.028 25.2559 10.988 25.3199 10.908C25.3839 10.828 25.4159 10.7 25.4159 10.524C25.4159 10.252 25.4159 9.94 25.4159 9.588C25.4159 9.228 25.4119 8.848 25.4039 8.448C25.4039 8.04 25.3999 7.624 25.3919 7.2C25.3839 6.768 25.3759 6.34 25.3679 5.916C25.3599 5.492 25.3479 5.084 25.3319 4.692C25.3239 4.3 25.3119 3.936 25.2959 3.6C25.2799 3.336 25.2599 3.108 25.2359 2.916C25.2199 2.716 25.1999 2.54 25.1759 2.388H26.8799ZM20.0279 4.38C20.2039 4.404 20.4159 4.424 20.6639 4.44C20.9199 4.456 21.1519 4.464 21.3599 4.464C21.4799 4.464 21.6839 4.464 21.9719 4.464C22.2599 4.464 22.5999 4.464 22.9919 4.464C23.3919 4.464 23.8159 4.464 24.2639 4.464C24.7119 4.464 25.1559 4.464 25.5959 4.464C26.0359 4.464 26.4479 4.464 26.8319 4.464C27.2159 4.464 27.5399 4.464 27.8039 4.464C28.0679 4.464 28.2399 4.464 28.3199 4.464C28.5119 4.464 28.7319 4.456 28.9799 4.44C29.2279 4.416 29.4239 4.392 29.5679 4.368V5.964C29.3759 5.956 29.1719 5.948 28.9559 5.94C28.7479 5.932 28.5639 5.928 28.4039 5.928C28.3319 5.928 28.1639 5.928 27.8999 5.928C27.6359 5.928 27.3079 5.928 26.9159 5.928C26.5319 5.928 26.1119 5.928 25.6559 5.928C25.1999 5.928 24.7399 5.928 24.2759 5.928C23.8199 5.928 23.3879 5.928 22.9799 5.928C22.5799 5.928 22.2399 5.928 21.9599 5.928C21.6799 5.928 21.4919 5.928 21.3959 5.928C21.1799 5.928 20.9519 5.932 20.7119 5.94C20.4719 5.948 20.2439 5.96 20.0279 5.976V4.38ZM19.3919 10.092C20.0159 9.796 20.6119 9.464 21.1799 9.096C21.7479 8.728 22.2679 8.344 22.7399 7.944C23.2119 7.544 23.6279 7.148 23.9879 6.756C24.3559 6.356 24.6479 5.98 24.8639 5.628L25.6439 5.64L25.6559 6.912C25.4159 7.28 25.1079 7.664 24.7319 8.064C24.3559 8.464 23.9399 8.864 23.4839 9.264C23.0279 9.664 22.5439 10.044 22.0319 10.404C21.5199 10.756 21.0079 11.068 20.4959 11.34L19.3919 10.092ZM33.5639 2.88C33.7719 3.024 34.0159 3.2 34.2959 3.408C34.5759 3.616 34.8639 3.844 35.1599 4.092C35.4639 4.332 35.7479 4.568 36.0119 4.8C36.2759 5.032 36.4919 5.24 36.6599 5.424L35.4359 6.672C35.2839 6.504 35.0839 6.304 34.8359 6.072C34.5879 5.84 34.3199 5.6 34.0319 5.352C33.7439 5.104 33.4599 4.868 33.1799 4.644C32.8999 4.42 32.6519 4.232 32.4359 4.08L33.5639 2.88ZM32.0639 10.872C32.6879 10.784 33.2759 10.66 33.8279 10.5C34.3799 10.34 34.8919 10.156 35.3639 9.948C35.8359 9.74 36.2679 9.524 36.6599 9.3C37.3399 8.892 37.9639 8.428 38.5319 7.908C39.0999 7.388 39.5959 6.848 40.0199 6.288C40.4439 5.72 40.7799 5.168 41.0279 4.632L41.9639 6.324C41.6599 6.86 41.2839 7.396 40.8359 7.932C40.3959 8.468 39.8959 8.98 39.3359 9.468C38.7759 9.948 38.1719 10.38 37.5239 10.764C37.1159 11.012 36.6759 11.248 36.2039 11.472C35.7319 11.688 35.2319 11.88 34.7039 12.048C34.1839 12.224 33.6399 12.36 33.0719 12.456L32.0639 10.872ZM45.3479 2.796C45.5159 2.82 45.7159 2.836 45.9479 2.844C46.1799 2.852 46.3959 2.856 46.5959 2.856C46.7479 2.856 46.9799 2.856 47.2919 2.856C47.6119 2.856 47.9639 2.856 48.3479 2.856C48.7399 2.856 49.1279 2.856 49.5119 2.856C49.8959 2.856 50.2399 2.856 50.5439 2.856C50.8479 2.856 51.0719 2.856 51.2159 2.856C51.3999 2.856 51.6199 2.852 51.8759 2.844C52.1319 2.836 52.3439 2.82 52.5119 2.796V4.344C52.3519 4.328 52.1439 4.32 51.8879 4.32C51.6399 4.312 51.4079 4.308 51.1919 4.308C51.0639 4.308 50.8439 4.308 50.5319 4.308C50.2279 4.308 49.8799 4.308 49.4879 4.308C49.1039 4.308 48.7159 4.308 48.3239 4.308C47.9399 4.308 47.5919 4.308 47.2799 4.308C46.9679 4.308 46.7399 4.308 46.5959 4.308C46.4039 4.308 46.1919 4.312 45.9599 4.32C45.7359 4.328 45.5319 4.336 45.3479 4.344V2.796ZM53.5199 6.276C53.4799 6.356 53.4359 6.444 53.3879 6.54C53.3479 6.636 53.3159 6.716 53.2919 6.78C53.1079 7.356 52.8759 7.932 52.5959 8.508C52.3239 9.076 51.9639 9.608 51.5159 10.104C50.9159 10.776 50.2439 11.324 49.4999 11.748C48.7559 12.164 47.9999 12.48 47.2319 12.696L46.0439 11.34C46.9479 11.148 47.7519 10.868 48.4559 10.5C49.1599 10.132 49.7399 9.712 50.1959 9.24C50.5159 8.912 50.7719 8.568 50.9639 8.208C51.1639 7.84 51.3199 7.492 51.4319 7.164C51.3439 7.164 51.1919 7.164 50.9759 7.164C50.7599 7.164 50.4999 7.164 50.1959 7.164C49.8999 7.164 49.5799 7.164 49.2359 7.164C48.8919 7.164 48.5399 7.164 48.1799 7.164C47.8199 7.164 47.4759 7.164 47.1479 7.164C46.8199 7.164 46.5239 7.164 46.2599 7.164C46.0039 7.164 45.7959 7.164 45.6359 7.164C45.4919 7.164 45.2879 7.168 45.0239 7.176C44.7599 7.184 44.4999 7.2 44.2439 7.224V5.664C44.4999 5.68 44.7479 5.696 44.9879 5.712C45.2359 5.728 45.4519 5.736 45.6359 5.736C45.7559 5.736 45.9359 5.736 46.1759 5.736C46.4239 5.736 46.7079 5.736 47.0279 5.736C47.3479 5.736 47.6879 5.736 48.0479 5.736C48.4159 5.736 48.7799 5.736 49.1399 5.736C49.5079 5.736 49.8559 5.736 50.1839 5.736C50.5119 5.736 50.7959 5.736 51.0359 5.736C51.2759 5.736 51.4559 5.736 51.5759 5.736C51.7679 5.736 51.9399 5.724 52.0919 5.7C52.2519 5.676 52.3719 5.648 52.4519 5.616L53.5199 6.276ZM55.4159 7.332C56.4959 7.052 57.4719 6.728 58.3439 6.36C59.2239 5.984 59.9959 5.592 60.6599 5.184C61.0759 4.928 61.4919 4.636 61.9079 4.308C62.3319 3.972 62.7279 3.628 63.0959 3.276C63.4719 2.924 63.7879 2.588 64.0439 2.268L65.3399 3.504C64.9719 3.864 64.5679 4.228 64.1279 4.596C63.6959 4.964 63.2439 5.316 62.7719 5.652C62.2999 5.988 61.8319 6.296 61.3679 6.576C60.9119 6.84 60.3999 7.112 59.8319 7.392C59.2719 7.672 58.6799 7.936 58.0559 8.184C57.4319 8.432 56.8039 8.652 56.1719 8.844L55.4159 7.332ZM60.4079 5.952L62.1119 5.556V10.956C62.1119 11.132 62.1159 11.324 62.1239 11.532C62.1319 11.74 62.1439 11.932 62.1599 12.108C62.1759 12.292 62.1959 12.432 62.2199 12.528H60.3239C60.3399 12.432 60.3519 12.292 60.3599 12.108C60.3759 11.932 60.3879 11.74 60.3959 11.532C60.4039 11.324 60.4079 11.132 60.4079 10.956V5.952ZM69.5639 2.88C69.7719 3.024 70.0159 3.2 70.2959 3.408C70.5759 3.616 70.8639 3.844 71.1599 4.092C71.4639 4.332 71.7479 4.568 72.0119 4.8C72.2759 5.032 72.4919 5.24 72.6599 5.424L71.4359 6.672C71.2839 6.504 71.0839 6.304 70.8359 6.072C70.5879 5.84 70.3199 5.6 70.0319 5.352C69.7439 5.104 69.4599 4.868 69.1799 4.644C68.8999 4.42 68.6519 4.232 68.4359 4.08L69.5639 2.88ZM68.0639 10.872C68.6879 10.784 69.2759 10.66 69.8279 10.5C70.3799 10.34 70.8919 10.156 71.3639 9.948C71.8359 9.74 72.2679 9.524 72.6599 9.3C73.3399 8.892 73.9639 8.428 74.5319 7.908C75.0999 7.388 75.5959 6.848 76.0199 6.288C76.4439 5.72 76.7799 5.168 77.0279 4.632L77.9639 6.324C77.6599 6.86 77.2839 7.396 76.8359 7.932C76.3959 8.468 75.8959 8.98 75.3359 9.468C74.7759 9.948 74.1719 10.38 73.5239 10.764C73.1159 11.012 72.6759 11.248 72.2039 11.472C71.7319 11.688 71.2319 11.88 70.7039 12.048C70.1839 12.224 69.6399 12.36 69.0719 12.456L68.0639 10.872ZM19.2119 23.072H30.1439V24.284H19.2119V23.072ZM19.4999 16.604H29.8439V17.792H19.4999V16.604ZM26.1239 22.316H27.5399V25.688C27.5399 26.032 27.4919 26.296 27.3959 26.48C27.3079 26.664 27.1399 26.804 26.8919 26.9C26.6439 26.988 26.3399 27.04 25.9799 27.056C25.6199 27.08 25.1959 27.092 24.7079 27.092C24.6759 26.892 24.6159 26.676 24.5279 26.444C24.4479 26.212 24.3599 26.008 24.2639 25.832C24.4799 25.832 24.6959 25.836 24.9119 25.844C25.1359 25.852 25.3319 25.856 25.4999 25.856C25.6759 25.856 25.7959 25.856 25.8599 25.856C25.9639 25.848 26.0319 25.832 26.0639 25.808C26.1039 25.776 26.1239 25.72 26.1239 25.64V22.316ZM23.9159 15.812H25.3319V21.92H23.9159V15.812ZM20.9279 24.884L22.0079 24.128C22.2239 24.272 22.4439 24.44 22.6679 24.632C22.8999 24.824 23.1159 25.016 23.3159 25.208C23.5239 25.392 23.6879 25.568 23.8079 25.736L22.6439 26.588C22.5399 26.42 22.3919 26.236 22.1999 26.036C22.0079 25.836 21.7999 25.636 21.5759 25.436C21.3599 25.228 21.1439 25.044 20.9279 24.884ZM21.7199 20.84V21.452H27.6239V20.84H21.7199ZM21.7199 19.304V19.916H27.6239V19.304H21.7199ZM20.3639 18.332H29.0399V22.436H20.3639V18.332ZM33.2039 16.604H40.5599V17.984H33.2039V16.604ZM33.2039 19.376H40.5839V20.72H33.2039V19.376ZM33.1799 22.208H40.6319V23.564H33.1799V22.208ZM32.3759 16.604H33.7919V20.924C33.7919 21.396 33.7719 21.912 33.7319 22.472C33.6919 23.032 33.6119 23.596 33.4919 24.164C33.3799 24.724 33.2079 25.26 32.9759 25.772C32.7519 26.284 32.4559 26.74 32.0879 27.14C32.0159 27.044 31.9079 26.936 31.7639 26.816C31.6199 26.696 31.4719 26.58 31.3199 26.468C31.1759 26.356 31.0519 26.268 30.9479 26.204C31.2759 25.844 31.5359 25.448 31.7279 25.016C31.9199 24.576 32.0599 24.124 32.1479 23.66C32.2439 23.188 32.3039 22.72 32.3279 22.256C32.3599 21.784 32.3759 21.336 32.3759 20.912V16.604ZM40.0559 16.604H41.4959V25.376C41.4959 25.76 41.4479 26.056 41.3519 26.264C41.2559 26.48 41.0839 26.644 40.8359 26.756C40.5959 26.868 40.2879 26.94 39.9119 26.972C39.5359 27.004 39.0719 27.016 38.5199 27.008C38.4959 26.816 38.4359 26.584 38.3399 26.312C38.2439 26.04 38.1479 25.812 38.0519 25.628C38.2839 25.636 38.5159 25.644 38.7479 25.652C38.9799 25.652 39.1839 25.652 39.3599 25.652C39.5439 25.652 39.6759 25.652 39.7559 25.652C39.8679 25.652 39.9439 25.632 39.9839 25.592C40.0319 25.552 40.0559 25.476 40.0559 25.364V16.604ZM36.0719 17.156H37.5239V26.924H36.0719V17.156ZM52.3199 17.204C52.3199 17.396 52.3879 17.56 52.5239 17.696C52.6599 17.824 52.8199 17.888 53.0039 17.888C53.1959 17.888 53.3599 17.824 53.4959 17.696C53.6319 17.56 53.6999 17.396 53.6999 17.204C53.6999 17.012 53.6319 16.848 53.4959 16.712C53.3599 16.576 53.1959 16.508 53.0039 16.508C52.8199 16.508 52.6599 16.576 52.5239 16.712C52.3879 16.848 52.3199 17.012 52.3199 17.204ZM51.5759 17.204C51.5759 16.94 51.6399 16.7 51.7679 16.484C51.9039 16.26 52.0799 16.084 52.2959 15.956C52.5119 15.828 52.7479 15.764 53.0039 15.764C53.2679 15.764 53.5079 15.828 53.7239 15.956C53.9479 16.084 54.1239 16.26 54.2519 16.484C54.3799 16.7 54.4439 16.94 54.4439 17.204C54.4439 17.46 54.3799 17.696 54.2519 17.912C54.1239 18.128 53.9479 18.304 53.7239 18.44C53.5079 18.568 53.2679 18.632 53.0039 18.632C52.7479 18.632 52.5119 18.568 52.2959 18.44C52.0799 18.304 51.9039 18.128 51.7679 17.912C51.6399 17.696 51.5759 17.46 51.5759 17.204ZM53.0279 18.152C52.9719 18.264 52.9239 18.4 52.8839 18.56C52.8439 18.712 52.8039 18.852 52.7639 18.98C52.6999 19.276 52.6159 19.608 52.5119 19.976C52.4079 20.336 52.2839 20.712 52.1399 21.104C51.9959 21.496 51.8239 21.884 51.6239 22.268C51.4319 22.652 51.2119 23.012 50.9639 23.348C50.6039 23.828 50.1839 24.276 49.7039 24.692C49.2239 25.108 48.6879 25.484 48.0959 25.82C47.5039 26.156 46.8519 26.44 46.1399 26.672L44.8319 25.232C45.6319 25.04 46.3199 24.804 46.8959 24.524C47.4719 24.244 47.9719 23.924 48.3959 23.564C48.8279 23.204 49.2079 22.82 49.5359 22.412C49.7999 22.076 50.0239 21.712 50.2079 21.32C50.3999 20.928 50.5559 20.536 50.6759 20.144C50.8039 19.744 50.8919 19.372 50.9399 19.028C50.8199 19.028 50.6199 19.028 50.3399 19.028C50.0679 19.028 49.7439 19.028 49.3679 19.028C48.9999 19.028 48.6119 19.028 48.2039 19.028C47.8039 19.028 47.4159 19.028 47.0399 19.028C46.6639 19.028 46.3239 19.028 46.0199 19.028C45.7239 19.028 45.5039 19.028 45.3599 19.028C45.0799 19.028 44.8079 19.032 44.5439 19.04C44.2879 19.048 44.0839 19.06 43.9319 19.076V17.384C44.0519 17.4 44.1959 17.416 44.3639 17.432C44.5399 17.448 44.7159 17.46 44.8919 17.468C45.0759 17.476 45.2319 17.48 45.3599 17.48C45.4879 17.48 45.6679 17.48 45.8999 17.48C46.1399 17.48 46.4159 17.48 46.7279 17.48C47.0399 17.48 47.3639 17.48 47.6999 17.48C48.0439 17.48 48.3839 17.48 48.7199 17.48C49.0639 17.48 49.3839 17.48 49.6799 17.48C49.9759 17.48 50.2319 17.48 50.4479 17.48C50.6639 17.48 50.8199 17.48 50.9159 17.48C51.0359 17.48 51.1799 17.476 51.3479 17.468C51.5239 17.46 51.6919 17.432 51.8519 17.384L53.0279 18.152ZM57.3479 16.796C57.5159 16.82 57.7159 16.836 57.9479 16.844C58.1799 16.852 58.3959 16.856 58.5959 16.856C58.7479 16.856 58.9799 16.856 59.2919 16.856C59.6119 16.856 59.9639 16.856 60.3479 16.856C60.7399 16.856 61.1279 16.856 61.5119 16.856C61.8959 16.856 62.2399 16.856 62.5439 16.856C62.8479 16.856 63.0719 16.856 63.2159 16.856C63.3999 16.856 63.6199 16.852 63.8759 16.844C64.1319 16.836 64.3439 16.82 64.5119 16.796V18.344C64.3519 18.328 64.1439 18.32 63.8879 18.32C63.6399 18.312 63.4079 18.308 63.1919 18.308C63.0639 18.308 62.8439 18.308 62.5319 18.308C62.2279 18.308 61.8799 18.308 61.4879 18.308C61.1039 18.308 60.7159 18.308 60.3239 18.308C59.9399 18.308 59.5919 18.308 59.2799 18.308C58.9679 18.308 58.7399 18.308 58.5959 18.308C58.4039 18.308 58.1919 18.312 57.9599 18.32C57.7359 18.328 57.5319 18.336 57.3479 18.344V16.796ZM65.5199 20.276C65.4799 20.356 65.4359 20.444 65.3879 20.54C65.3479 20.636 65.3159 20.716 65.2919 20.78C65.1079 21.356 64.8759 21.932 64.5959 22.508C64.3239 23.076 63.9639 23.608 63.5159 24.104C62.9159 24.776 62.2439 25.324 61.4999 25.748C60.7559 26.164 59.9999 26.48 59.2319 26.696L58.0439 25.34C58.9479 25.148 59.7519 24.868 60.4559 24.5C61.1599 24.132 61.7399 23.712 62.1959 23.24C62.5159 22.912 62.7719 22.568 62.9639 22.208C63.1639 21.84 63.3199 21.492 63.4319 21.164C63.3439 21.164 63.1919 21.164 62.9759 21.164C62.7599 21.164 62.4999 21.164 62.1959 21.164C61.8999 21.164 61.5799 21.164 61.2359 21.164C60.8919 21.164 60.5399 21.164 60.1799 21.164C59.8199 21.164 59.4759 21.164 59.1479 21.164C58.8199 21.164 58.5239 21.164 58.2599 21.164C58.0039 21.164 57.7959 21.164 57.6359 21.164C57.4919 21.164 57.2879 21.168 57.0239 21.176C56.7599 21.184 56.4999 21.2 56.2439 21.224V19.664C56.4999 19.68 56.7479 19.696 56.9879 19.712C57.2359 19.728 57.4519 19.736 57.6359 19.736C57.7559 19.736 57.9359 19.736 58.1759 19.736C58.4239 19.736 58.7079 19.736 59.0279 19.736C59.3479 19.736 59.6879 19.736 60.0479 19.736C60.4159 19.736 60.7799 19.736 61.1399 19.736C61.5079 19.736 61.8559 19.736 62.1839 19.736C62.5119 19.736 62.7959 19.736 63.0359 19.736C63.2759 19.736 63.4559 19.736 63.5759 19.736C63.7679 19.736 63.9399 19.724 64.0919 19.7C64.2519 19.676 64.3719 19.648 64.4519 19.616L65.5199 20.276ZM69.5639 16.88C69.7719 17.024 70.0159 17.2 70.2959 17.408C70.5759 17.616 70.8639 17.844 71.1599 18.092C71.4639 18.332 71.7479 18.568 72.0119 18.8C72.2759 19.032 72.4919 19.24 72.6599 19.424L71.4359 20.672C71.2839 20.504 71.0839 20.304 70.8359 20.072C70.5879 19.84 70.3199 19.6 70.0319 19.352C69.7439 19.104 69.4599 18.868 69.1799 18.644C68.8999 18.42 68.6519 18.232 68.4359 18.08L69.5639 16.88ZM68.0639 24.872C68.6879 24.784 69.2759 24.66 69.8279 24.5C70.3799 24.34 70.8919 24.156 71.3639 23.948C71.8359 23.74 72.2679 23.524 72.6599 23.3C73.3399 22.892 73.9639 22.428 74.5319 21.908C75.0999 21.388 75.5959 20.848 76.0199 20.288C76.4439 19.72 76.7799 19.168 77.0279 18.632L77.9639 20.324C77.6599 20.86 77.2839 21.396 76.8359 21.932C76.3959 22.468 75.8959 22.98 75.3359 23.468C74.7759 23.948 74.1719 24.38 73.5239 24.764C73.1159 25.012 72.6759 25.248 72.2039 25.472C71.7319 25.688 71.2319 25.88 70.7039 26.048C70.1839 26.224 69.6399 26.36 69.0719 26.456L68.0639 24.872Z" fill="black"/>
</svg>
