<svg width="212" height="105" viewBox="0 0 212 105" fill="none" xmlns="http://www.w3.org/2000/svg">
<path d="M31.8455 69.0449H37.7184V54.7796C37.7178 51.3529 36.523 48.0409 34.3523 45.4492C32.1816 42.8576 29.1802 41.1595 25.8969 40.6655L25.5965 40.6264L25.276 40.5873C22.1953 40.3176 19.2102 39.3493 16.5335 37.7514C15.3581 37.1172 14.3293 36.228 13.5176 35.145C13.0197 35.5193 12.6069 36.0012 12.3079 36.5571C12.0089 37.1131 11.8308 37.7297 11.7862 38.364C11.6936 39.5167 11.9068 40.6737 12.4031 41.7106C12.8993 42.7476 13.6598 43.6253 14.6028 44.2494C12.0098 46.6929 10.4151 50.0645 10.1428 53.6788C9.87054 57.293 10.9411 60.8787 13.1369 63.7071C15.3326 66.5354 18.4889 68.3941 21.964 68.9053C25.4391 69.4165 28.9723 68.5419 31.8455 66.4593V69.0449ZM23.9056 63.3836C22.2583 63.3836 20.6481 62.8791 19.2784 61.934C17.9088 60.9889 16.8413 59.6455 16.2109 58.0738C15.5806 56.5021 15.4156 54.7727 15.737 53.1041C16.0584 51.4356 16.8516 49.903 18.0164 48.7001C19.1812 47.4972 20.6652 46.678 22.2807 46.3461C23.8963 46.0142 25.5709 46.1845 27.0927 46.8355C28.6146 47.4866 29.9154 48.589 30.8305 50.0035C31.7457 51.418 32.2341 53.081 32.2341 54.7822C32.2341 57.0634 31.3567 59.2512 29.7947 60.8643C28.2328 62.4774 26.1144 63.3836 23.9056 63.3836ZM110.084 69.0449H115.956V54.7796C115.956 51.3529 114.761 48.0409 112.59 45.4492C110.42 42.8576 107.418 41.1595 104.135 40.6655L103.835 40.6264L103.514 40.5873C100.433 40.3173 97.4484 39.349 94.7716 37.7514C93.5959 37.1176 92.567 36.2284 91.7557 35.145C91.2578 35.5193 90.845 36.0012 90.546 36.5571C90.247 37.1131 90.0689 37.7297 90.0243 38.364C89.932 39.5167 90.1453 40.6736 90.6416 41.7104C91.1378 42.7473 91.8981 43.6251 92.8409 44.2494C90.2479 46.6929 88.6532 50.0645 88.3809 53.6788C88.1086 57.293 89.1792 60.8787 91.3749 63.7071C93.5707 66.5354 96.727 68.3941 100.202 68.9053C103.677 69.4165 107.21 68.5419 110.084 66.4593V69.0449ZM102.146 63.3836C100.499 63.3836 98.8887 62.8791 97.5191 61.934C96.1494 60.9889 95.0819 59.6455 94.4516 58.0738C93.8212 56.5021 93.6563 54.7727 93.9776 53.1041C94.299 51.4356 95.0922 49.903 96.257 48.7001C97.4217 47.4972 98.9057 46.678 100.521 46.3461C102.137 46.0142 103.812 46.1845 105.333 46.8355C106.855 47.4866 108.156 48.589 109.071 50.0035C109.986 51.418 110.475 53.081 110.475 54.7822C110.475 57.0634 109.597 59.2512 108.035 60.8643C106.473 62.4774 104.355 63.3836 102.146 63.3836ZM92.586 77.8809C87.869 86.3624 77.0646 92.3052 64.5212 92.3052C51.9779 92.3052 41.1734 86.3624 36.4564 77.8809H43.089C48.7903 83.7179 56.4933 86.9929 64.5212 86.9929C72.5492 86.9929 80.2522 83.7179 85.9534 77.8809H92.586ZM190.141 40.5169C187.409 40.5169 184.739 41.3536 182.467 42.921C180.196 44.4885 178.425 46.7165 177.38 49.3231C176.334 51.9297 176.061 54.798 176.594 57.5652C177.127 60.3324 178.442 62.8742 180.374 64.8693C182.306 66.8643 184.767 68.2229 187.447 68.7734C190.126 69.3238 192.903 69.0413 195.427 67.9616C197.951 66.8819 200.108 65.0535 201.626 62.7076C203.144 60.3617 203.954 57.6036 203.954 54.7822C203.954 50.9988 202.499 47.3704 199.908 44.6951C197.318 42.0199 193.805 40.5169 190.141 40.5169ZM190.141 63.3862C188.494 63.3862 186.884 62.8817 185.514 61.9366C184.145 60.9915 183.077 59.6481 182.447 58.0764C181.816 56.5047 181.651 54.7753 181.973 53.1068C182.294 51.4382 183.087 49.9056 184.252 48.7027C185.417 47.4998 186.901 46.6806 188.517 46.3487C190.132 46.0168 191.807 46.1871 193.329 46.8382C194.85 47.4892 196.151 48.5916 197.066 50.0061C197.981 51.4206 198.47 53.0836 198.47 54.7848C198.47 57.066 197.592 59.2538 196.03 60.8669C194.469 62.48 192.35 63.3862 190.141 63.3862ZM164.04 50.8959V69.0449H158.051V50.8959C158.051 49.7806 157.622 48.7108 156.858 47.9221C156.095 47.1334 155.059 46.6904 153.979 46.6904C152.899 46.6904 151.863 47.1334 151.099 47.9221C150.336 48.7108 149.907 49.7806 149.907 50.8959V69.0449H143.93V50.8959C143.93 49.7806 143.501 48.7108 142.738 47.9221C141.974 47.1334 140.938 46.6904 139.858 46.6904C138.778 46.6904 137.742 47.1334 136.979 47.9221C136.215 48.7108 135.786 49.7806 135.786 50.8959V69.0449H129.807V50.8959C129.808 49.4114 130.118 47.9444 130.718 46.5952C129.945 45.9101 129.34 45.0443 128.956 44.0697C128.571 43.095 128.418 42.0397 128.507 40.9913C128.555 40.3159 128.745 39.6594 129.064 39.0675C129.383 38.4756 129.822 37.9624 130.352 37.5638C131.344 38.5866 132.42 39.5173 133.57 40.3449C134.196 40.8147 134.873 41.205 135.589 41.5074C137.448 40.5993 139.533 40.3046 141.56 40.6632C143.587 41.0218 145.458 42.0164 146.919 43.5118C148.328 42.0722 150.119 41.0955 152.065 40.7048C154.011 40.314 156.026 40.5266 157.855 41.3157C159.685 42.1049 161.247 43.4354 162.346 45.1397C163.445 46.8439 164.031 48.8458 164.03 50.8933M57.5479 69.0423H51.675V31.6497H57.5479V42.2685C59.3758 41.1434 61.4598 40.5388 63.5876 40.5163C65.7153 40.4937 67.8109 41.054 69.6607 42.1401C71.5106 43.2262 73.0487 44.7993 74.1183 46.699C75.1879 48.5988 75.7507 50.7575 75.7496 52.9551V69.0527H69.8767V52.9551C69.8767 51.2666 69.2273 49.6473 68.0712 48.4534C66.9152 47.2595 65.3472 46.5887 63.7123 46.5887C62.0774 46.5887 60.5095 47.2595 59.3535 48.4534C58.1974 49.6473 57.5479 51.2666 57.5479 52.9551V69.0423Z" fill="#231815"/>
<path d="M28.312 3.582C28.276 3.858 28.246 4.158 28.222 4.482C28.21 4.806 28.204 5.112 28.204 5.4C28.216 5.904 28.228 6.45 28.24 7.038C28.252 7.626 28.264 8.25 28.276 8.91C28.3 9.57 28.318 10.248 28.33 10.944C28.342 11.628 28.354 12.318 28.366 13.014C28.378 13.698 28.39 14.376 28.402 15.048C28.414 15.708 28.426 16.344 28.438 16.956C28.45 17.532 28.288 17.976 27.952 18.288C27.616 18.612 27.106 18.774 26.422 18.774C25.882 18.774 25.354 18.762 24.838 18.738C24.322 18.726 23.806 18.702 23.29 18.666L23.092 16.326C23.5 16.398 23.926 16.452 24.37 16.488C24.814 16.524 25.186 16.542 25.486 16.542C25.714 16.542 25.876 16.482 25.972 16.362C26.068 16.242 26.116 16.05 26.116 15.786C26.116 15.378 26.116 14.91 26.116 14.382C26.116 13.842 26.11 13.272 26.098 12.672C26.098 12.06 26.092 11.436 26.08 10.8C26.068 10.152 26.056 9.51 26.044 8.874C26.032 8.238 26.014 7.626 25.99 7.038C25.978 6.45 25.96 5.904 25.936 5.4C25.912 5.004 25.882 4.662 25.846 4.374C25.822 4.074 25.792 3.81 25.756 3.582H28.312ZM18.034 6.57C18.298 6.606 18.616 6.636 18.988 6.66C19.372 6.684 19.72 6.696 20.032 6.696C20.212 6.696 20.518 6.696 20.95 6.696C21.382 6.696 21.892 6.696 22.48 6.696C23.08 6.696 23.716 6.696 24.388 6.696C25.06 6.696 25.726 6.696 26.386 6.696C27.046 6.696 27.664 6.696 28.24 6.696C28.816 6.696 29.302 6.696 29.698 6.696C30.094 6.696 30.352 6.696 30.472 6.696C30.76 6.696 31.09 6.684 31.462 6.66C31.834 6.624 32.128 6.588 32.344 6.552V8.946C32.056 8.934 31.75 8.922 31.426 8.91C31.114 8.898 30.838 8.892 30.598 8.892C30.49 8.892 30.238 8.892 29.842 8.892C29.446 8.892 28.954 8.892 28.366 8.892C27.79 8.892 27.16 8.892 26.476 8.892C25.792 8.892 25.102 8.892 24.406 8.892C23.722 8.892 23.074 8.892 22.462 8.892C21.862 8.892 21.352 8.892 20.932 8.892C20.512 8.892 20.23 8.892 20.086 8.892C19.762 8.892 19.42 8.898 19.06 8.91C18.7 8.922 18.358 8.94 18.034 8.964V6.57ZM17.08 15.138C18.016 14.694 18.91 14.196 19.762 13.644C20.614 13.092 21.394 12.516 22.102 11.916C22.81 11.316 23.434 10.722 23.974 10.134C24.526 9.534 24.964 8.97 25.288 8.442L26.458 8.46L26.476 10.368C26.116 10.92 25.654 11.496 25.09 12.096C24.526 12.696 23.902 13.296 23.218 13.896C22.534 14.496 21.808 15.066 21.04 15.606C20.272 16.134 19.504 16.602 18.736 17.01L17.08 15.138ZM38.338 4.32C38.65 4.536 39.016 4.8 39.436 5.112C39.856 5.424 40.288 5.766 40.732 6.138C41.188 6.498 41.614 6.852 42.01 7.2C42.406 7.548 42.73 7.86 42.982 8.136L41.146 10.008C40.918 9.756 40.618 9.456 40.246 9.108C39.874 8.76 39.472 8.4 39.04 8.028C38.608 7.656 38.182 7.302 37.762 6.966C37.342 6.63 36.97 6.348 36.646 6.12L38.338 4.32ZM36.088 16.308C37.024 16.176 37.906 15.99 38.734 15.75C39.562 15.51 40.33 15.234 41.038 14.922C41.746 14.61 42.394 14.286 42.982 13.95C44.002 13.338 44.938 12.642 45.79 11.862C46.642 11.082 47.386 10.272 48.022 9.432C48.658 8.58 49.162 7.752 49.534 6.948L50.938 9.486C50.482 10.29 49.918 11.094 49.246 11.898C48.586 12.702 47.836 13.47 46.996 14.202C46.156 14.922 45.25 15.57 44.278 16.146C43.666 16.518 43.006 16.872 42.298 17.208C41.59 17.532 40.84 17.82 40.048 18.072C39.268 18.336 38.452 18.54 37.6 18.684L36.088 16.308ZM56.014 4.194C56.266 4.23 56.566 4.254 56.914 4.266C57.262 4.278 57.586 4.284 57.886 4.284C58.114 4.284 58.462 4.284 58.93 4.284C59.41 4.284 59.938 4.284 60.514 4.284C61.102 4.284 61.684 4.284 62.26 4.284C62.836 4.284 63.352 4.284 63.808 4.284C64.264 4.284 64.6 4.284 64.816 4.284C65.092 4.284 65.422 4.278 65.806 4.266C66.19 4.254 66.508 4.23 66.76 4.194V6.516C66.52 6.492 66.208 6.48 65.824 6.48C65.452 6.468 65.104 6.462 64.78 6.462C64.588 6.462 64.258 6.462 63.79 6.462C63.334 6.462 62.812 6.462 62.224 6.462C61.648 6.462 61.066 6.462 60.478 6.462C59.902 6.462 59.38 6.462 58.912 6.462C58.444 6.462 58.102 6.462 57.886 6.462C57.598 6.462 57.28 6.468 56.932 6.48C56.596 6.492 56.29 6.504 56.014 6.516V4.194ZM68.272 9.414C68.212 9.534 68.146 9.666 68.074 9.81C68.014 9.954 67.966 10.074 67.93 10.17C67.654 11.034 67.306 11.898 66.886 12.762C66.478 13.614 65.938 14.412 65.266 15.156C64.366 16.164 63.358 16.986 62.242 17.622C61.126 18.246 59.992 18.72 58.84 19.044L57.058 17.01C58.414 16.722 59.62 16.302 60.676 15.75C61.732 15.198 62.602 14.568 63.286 13.86C63.766 13.368 64.15 12.852 64.438 12.312C64.738 11.76 64.972 11.238 65.14 10.746C65.008 10.746 64.78 10.746 64.456 10.746C64.132 10.746 63.742 10.746 63.286 10.746C62.842 10.746 62.362 10.746 61.846 10.746C61.33 10.746 60.802 10.746 60.262 10.746C59.722 10.746 59.206 10.746 58.714 10.746C58.222 10.746 57.778 10.746 57.382 10.746C56.998 10.746 56.686 10.746 56.446 10.746C56.23 10.746 55.924 10.752 55.528 10.764C55.132 10.776 54.742 10.8 54.358 10.836V8.496C54.742 8.52 55.114 8.544 55.474 8.568C55.846 8.592 56.17 8.604 56.446 8.604C56.626 8.604 56.896 8.604 57.256 8.604C57.628 8.604 58.054 8.604 58.534 8.604C59.014 8.604 59.524 8.604 60.064 8.604C60.616 8.604 61.162 8.604 61.702 8.604C62.254 8.604 62.776 8.604 63.268 8.604C63.76 8.604 64.186 8.604 64.546 8.604C64.906 8.604 65.176 8.604 65.356 8.604C65.644 8.604 65.902 8.586 66.13 8.55C66.37 8.514 66.55 8.472 66.67 8.424L68.272 9.414ZM71.116 10.998C72.736 10.578 74.2 10.092 75.508 9.54C76.828 8.976 77.986 8.388 78.982 7.776C79.606 7.392 80.23 6.954 80.854 6.462C81.49 5.958 82.084 5.442 82.636 4.914C83.2 4.386 83.674 3.882 84.058 3.402L86.002 5.256C85.45 5.796 84.844 6.342 84.184 6.894C83.536 7.446 82.858 7.974 82.15 8.478C81.442 8.982 80.74 9.444 80.044 9.864C79.36 10.26 78.592 10.668 77.74 11.088C76.9 11.508 76.012 11.904 75.076 12.276C74.14 12.648 73.198 12.978 72.25 13.266L71.116 10.998ZM78.604 8.928L81.16 8.334V16.434C81.16 16.698 81.166 16.986 81.178 17.298C81.19 17.61 81.208 17.898 81.232 18.162C81.256 18.438 81.286 18.648 81.322 18.792H78.478C78.502 18.648 78.52 18.438 78.532 18.162C78.556 17.898 78.574 17.61 78.586 17.298C78.598 16.986 78.604 16.698 78.604 16.434V8.928ZM92.338 4.32C92.65 4.536 93.016 4.8 93.436 5.112C93.856 5.424 94.288 5.766 94.732 6.138C95.188 6.498 95.614 6.852 96.01 7.2C96.406 7.548 96.73 7.86 96.982 8.136L95.146 10.008C94.918 9.756 94.618 9.456 94.246 9.108C93.874 8.76 93.472 8.4 93.04 8.028C92.608 7.656 92.182 7.302 91.762 6.966C91.342 6.63 90.97 6.348 90.646 6.12L92.338 4.32ZM90.088 16.308C91.024 16.176 91.906 15.99 92.734 15.75C93.562 15.51 94.33 15.234 95.038 14.922C95.746 14.61 96.394 14.286 96.982 13.95C98.002 13.338 98.938 12.642 99.79 11.862C100.642 11.082 101.386 10.272 102.022 9.432C102.658 8.58 103.162 7.752 103.534 6.948L104.938 9.486C104.482 10.29 103.918 11.094 103.246 11.898C102.586 12.702 101.836 13.47 100.996 14.202C100.156 14.922 99.25 15.57 98.278 16.146C97.666 16.518 97.006 16.872 96.298 17.208C95.59 17.532 94.84 17.82 94.048 18.072C93.268 18.336 92.452 18.54 91.6 18.684L90.088 16.308ZM106.81 13.608H123.208V15.426H106.81V13.608ZM107.242 3.906H122.758V5.688H107.242V3.906ZM117.178 12.474H119.302V17.532C119.302 18.048 119.23 18.444 119.086 18.72C118.954 18.996 118.702 19.206 118.33 19.35C117.958 19.482 117.502 19.56 116.962 19.584C116.422 19.62 115.786 19.638 115.054 19.638C115.006 19.338 114.916 19.014 114.784 18.666C114.664 18.318 114.532 18.012 114.388 17.748C114.712 17.748 115.036 17.754 115.36 17.766C115.696 17.778 115.99 17.784 116.242 17.784C116.506 17.784 116.686 17.784 116.782 17.784C116.938 17.772 117.04 17.748 117.088 17.712C117.148 17.664 117.178 17.58 117.178 17.46V12.474ZM113.866 2.718H115.99V11.88H113.866V2.718ZM109.384 16.326L111.004 15.192C111.328 15.408 111.658 15.66 111.994 15.948C112.342 16.236 112.666 16.524 112.966 16.812C113.278 17.088 113.524 17.352 113.704 17.604L111.958 18.882C111.802 18.63 111.58 18.354 111.292 18.054C111.004 17.754 110.692 17.454 110.356 17.154C110.032 16.842 109.708 16.566 109.384 16.326ZM110.572 10.26V11.178H119.428V10.26H110.572ZM110.572 7.956V8.874H119.428V7.956H110.572ZM108.538 6.498H121.552V12.654H108.538V6.498ZM127.798 3.906H138.832V5.976H127.798V3.906ZM127.798 8.064H138.868V10.08H127.798V8.064ZM127.762 12.312H138.94V14.346H127.762V12.312ZM126.556 3.906H128.68V10.386C128.68 11.094 128.65 11.868 128.59 12.708C128.53 13.548 128.41 14.394 128.23 15.246C128.062 16.086 127.804 16.89 127.456 17.658C127.12 18.426 126.676 19.11 126.124 19.71C126.016 19.566 125.854 19.404 125.638 19.224C125.422 19.044 125.2 18.87 124.972 18.702C124.756 18.534 124.57 18.402 124.414 18.306C124.906 17.766 125.296 17.172 125.584 16.524C125.872 15.864 126.082 15.186 126.214 14.49C126.358 13.782 126.448 13.08 126.484 12.384C126.532 11.676 126.556 11.004 126.556 10.368V3.906ZM138.076 3.906H140.236V17.064C140.236 17.64 140.164 18.084 140.02 18.396C139.876 18.72 139.618 18.966 139.246 19.134C138.886 19.302 138.424 19.41 137.86 19.458C137.296 19.506 136.6 19.524 135.772 19.512C135.736 19.224 135.646 18.876 135.502 18.468C135.358 18.06 135.214 17.718 135.07 17.442C135.418 17.454 135.766 17.466 136.114 17.478C136.462 17.478 136.768 17.478 137.032 17.478C137.308 17.478 137.506 17.478 137.626 17.478C137.794 17.478 137.908 17.448 137.968 17.388C138.04 17.328 138.076 17.214 138.076 17.046V3.906ZM132.1 4.734H134.278V19.386H132.1V4.734ZM156.472 4.806C156.472 5.094 156.574 5.34 156.778 5.544C156.982 5.736 157.222 5.832 157.498 5.832C157.786 5.832 158.032 5.736 158.236 5.544C158.44 5.34 158.542 5.094 158.542 4.806C158.542 4.518 158.44 4.272 158.236 4.068C158.032 3.864 157.786 3.762 157.498 3.762C157.222 3.762 156.982 3.864 156.778 4.068C156.574 4.272 156.472 4.518 156.472 4.806ZM155.356 4.806C155.356 4.41 155.452 4.05 155.644 3.726C155.848 3.39 156.112 3.126 156.436 2.934C156.76 2.742 157.114 2.646 157.498 2.646C157.894 2.646 158.254 2.742 158.578 2.934C158.914 3.126 159.178 3.39 159.37 3.726C159.562 4.05 159.658 4.41 159.658 4.806C159.658 5.19 159.562 5.544 159.37 5.868C159.178 6.192 158.914 6.456 158.578 6.66C158.254 6.852 157.894 6.948 157.498 6.948C157.114 6.948 156.76 6.852 156.436 6.66C156.112 6.456 155.848 6.192 155.644 5.868C155.452 5.544 155.356 5.19 155.356 4.806ZM157.534 6.228C157.45 6.396 157.378 6.6 157.318 6.84C157.258 7.068 157.198 7.278 157.138 7.47C157.042 7.914 156.916 8.412 156.76 8.964C156.604 9.504 156.418 10.068 156.202 10.656C155.986 11.244 155.728 11.826 155.428 12.402C155.14 12.978 154.81 13.518 154.438 14.022C153.898 14.742 153.268 15.414 152.548 16.038C151.828 16.662 151.024 17.226 150.136 17.73C149.248 18.234 148.27 18.66 147.202 19.008L145.24 16.848C146.44 16.56 147.472 16.206 148.336 15.786C149.2 15.366 149.95 14.886 150.586 14.346C151.234 13.806 151.804 13.23 152.296 12.618C152.692 12.114 153.028 11.568 153.304 10.98C153.592 10.392 153.826 9.804 154.006 9.216C154.198 8.616 154.33 8.058 154.402 7.542C154.222 7.542 153.922 7.542 153.502 7.542C153.094 7.542 152.608 7.542 152.044 7.542C151.492 7.542 150.91 7.542 150.298 7.542C149.698 7.542 149.116 7.542 148.552 7.542C147.988 7.542 147.478 7.542 147.022 7.542C146.578 7.542 146.248 7.542 146.032 7.542C145.612 7.542 145.204 7.548 144.808 7.56C144.424 7.572 144.118 7.59 143.89 7.614V5.076C144.07 5.1 144.286 5.124 144.538 5.148C144.802 5.172 145.066 5.19 145.33 5.202C145.606 5.214 145.84 5.22 146.032 5.22C146.224 5.22 146.494 5.22 146.842 5.22C147.202 5.22 147.616 5.22 148.084 5.22C148.552 5.22 149.038 5.22 149.542 5.22C150.058 5.22 150.568 5.22 151.072 5.22C151.588 5.22 152.068 5.22 152.512 5.22C152.956 5.22 153.34 5.22 153.664 5.22C153.988 5.22 154.222 5.22 154.366 5.22C154.546 5.22 154.762 5.214 155.014 5.202C155.278 5.19 155.53 5.148 155.77 5.076L157.534 6.228ZM164.014 4.194C164.266 4.23 164.566 4.254 164.914 4.266C165.262 4.278 165.586 4.284 165.886 4.284C166.114 4.284 166.462 4.284 166.93 4.284C167.41 4.284 167.938 4.284 168.514 4.284C169.102 4.284 169.684 4.284 170.26 4.284C170.836 4.284 171.352 4.284 171.808 4.284C172.264 4.284 172.6 4.284 172.816 4.284C173.092 4.284 173.422 4.278 173.806 4.266C174.19 4.254 174.508 4.23 174.76 4.194V6.516C174.52 6.492 174.208 6.48 173.824 6.48C173.452 6.468 173.104 6.462 172.78 6.462C172.588 6.462 172.258 6.462 171.79 6.462C171.334 6.462 170.812 6.462 170.224 6.462C169.648 6.462 169.066 6.462 168.478 6.462C167.902 6.462 167.38 6.462 166.912 6.462C166.444 6.462 166.102 6.462 165.886 6.462C165.598 6.462 165.28 6.468 164.932 6.48C164.596 6.492 164.29 6.504 164.014 6.516V4.194ZM176.272 9.414C176.212 9.534 176.146 9.666 176.074 9.81C176.014 9.954 175.966 10.074 175.93 10.17C175.654 11.034 175.306 11.898 174.886 12.762C174.478 13.614 173.938 14.412 173.266 15.156C172.366 16.164 171.358 16.986 170.242 17.622C169.126 18.246 167.992 18.72 166.84 19.044L165.058 17.01C166.414 16.722 167.62 16.302 168.676 15.75C169.732 15.198 170.602 14.568 171.286 13.86C171.766 13.368 172.15 12.852 172.438 12.312C172.738 11.76 172.972 11.238 173.14 10.746C173.008 10.746 172.78 10.746 172.456 10.746C172.132 10.746 171.742 10.746 171.286 10.746C170.842 10.746 170.362 10.746 169.846 10.746C169.33 10.746 168.802 10.746 168.262 10.746C167.722 10.746 167.206 10.746 166.714 10.746C166.222 10.746 165.778 10.746 165.382 10.746C164.998 10.746 164.686 10.746 164.446 10.746C164.23 10.746 163.924 10.752 163.528 10.764C163.132 10.776 162.742 10.8 162.358 10.836V8.496C162.742 8.52 163.114 8.544 163.474 8.568C163.846 8.592 164.17 8.604 164.446 8.604C164.626 8.604 164.896 8.604 165.256 8.604C165.628 8.604 166.054 8.604 166.534 8.604C167.014 8.604 167.524 8.604 168.064 8.604C168.616 8.604 169.162 8.604 169.702 8.604C170.254 8.604 170.776 8.604 171.268 8.604C171.76 8.604 172.186 8.604 172.546 8.604C172.906 8.604 173.176 8.604 173.356 8.604C173.644 8.604 173.902 8.586 174.13 8.55C174.37 8.514 174.55 8.472 174.67 8.424L176.272 9.414ZM182.338 4.32C182.65 4.536 183.016 4.8 183.436 5.112C183.856 5.424 184.288 5.766 184.732 6.138C185.188 6.498 185.614 6.852 186.01 7.2C186.406 7.548 186.73 7.86 186.982 8.136L185.146 10.008C184.918 9.756 184.618 9.456 184.246 9.108C183.874 8.76 183.472 8.4 183.04 8.028C182.608 7.656 182.182 7.302 181.762 6.966C181.342 6.63 180.97 6.348 180.646 6.12L182.338 4.32ZM180.088 16.308C181.024 16.176 181.906 15.99 182.734 15.75C183.562 15.51 184.33 15.234 185.038 14.922C185.746 14.61 186.394 14.286 186.982 13.95C188.002 13.338 188.938 12.642 189.79 11.862C190.642 11.082 191.386 10.272 192.022 9.432C192.658 8.58 193.162 7.752 193.534 6.948L194.938 9.486C194.482 10.29 193.918 11.094 193.246 11.898C192.586 12.702 191.836 13.47 190.996 14.202C190.156 14.922 189.25 15.57 188.278 16.146C187.666 16.518 187.006 16.872 186.298 17.208C185.59 17.532 184.84 17.82 184.048 18.072C183.268 18.336 182.452 18.54 181.6 18.684L180.088 16.308Z" fill="black"/>
</svg>
